<?xml version="1.0" encoding="UTF-8" standalone="no"?>
<!-- Created with Inkscape (http://www.inkscape.org/) -->

<svg
   xmlns:dc="http://purl.org/dc/elements/1.1/"
   xmlns:cc="http://creativecommons.org/ns#"
   xmlns:rdf="http://www.w3.org/1999/02/22-rdf-syntax-ns#"
   xmlns:svg="http://www.w3.org/2000/svg"
   xmlns="http://www.w3.org/2000/svg"
   xmlns:sodipodi="http://sodipodi.sourceforge.net/DTD/sodipodi-0.dtd"
   xmlns:inkscape="http://www.inkscape.org/namespaces/inkscape"
   width="210mm"
   height="297mm"
   id="svg2"
   version="1.1"
   inkscape:version="0.48.5 r10040"
   sodipodi:docname="anderson-veja-se-você-sai.svg"
   inkscape:export-filename="/home/fredm/projetos/o-rato-anderson/um-dia-este-rato-encontrou-uma-rata.png"
   inkscape:export-xdpi="90"
   inkscape:export-ydpi="90">
  <defs
     id="defs4" />
  <sodipodi:namedview
     id="base"
     pagecolor="#ffffff"
     bordercolor="#666666"
     borderopacity="1.0"
     inkscape:pageopacity="0.0"
     inkscape:pageshadow="2"
     inkscape:zoom="0.36914063"
     inkscape:cx="433.55668"
     inkscape:cy="606.65018"
     inkscape:document-units="px"
     inkscape:current-layer="layer1"
     showgrid="false"
     inkscape:window-width="710"
     inkscape:window-height="693"
     inkscape:window-x="560"
     inkscape:window-y="31"
     inkscape:window-maximized="0" />
  <metadata
     id="metadata7">
    <rdf:RDF>
      <cc:Work
         rdf:about="">
        <dc:format>image/svg+xml</dc:format>
        <dc:type
           rdf:resource="http://purl.org/dc/dcmitype/StillImage" />
        <dc:title />
      </cc:Work>
    </rdf:RDF>
  </metadata>
  <g
     inkscape:label="Camada 1"
     inkscape:groupmode="layer"
     id="layer1">
    <path
       style="fill:none;stroke:#000000;stroke-width:1px;stroke-linecap:butt;stroke-linejoin:miter;stroke-opacity:1"
       d="m 587.85185,285.7167 c -5.41799,0 -10.83598,0 -16.25397,0 -0.903,0 -2.13091,0.6937 -2.70899,0 -4.16864,-5.00236 -6.92902,-11.04468 -10.83598,-16.25397 -1.53244,-2.04325 -3.612,-3.61199 -5.41799,-5.41799 -0.903,-0.903 -2.13789,-1.56678 -2.709,-2.709 -0.40383,-0.80766 0,-1.80599 0,-2.70899 0,-0.903 0,-1.806 0,-2.709 0,-5.41798 0,-10.83597 0,-16.25396 0,-10.83598 0,-21.67196 0,-32.50794 0,-8.12698 0,-16.25397 0,-24.38095 0,-2.81715 -0.53273,-14.12303 0,-16.25397 0.48972,-1.95888 1.28123,-3.99022 2.709,-5.41799 2.85553,-2.85553 7.60531,-2.99499 10.83598,-5.41799 2.04325,-1.53244 3.22789,-4.10393 5.41799,-5.41799 2.44859,-1.46916 5.41799,-1.80599 8.12698,-2.70899 5.41799,-1.806 10.95138,-3.29696 16.25397,-5.41799 1.87475,-0.7499 3.42629,-2.37705 5.41799,-2.709 3.56285,-0.5938 7.22398,0 10.83598,0 6.32098,0 12.64197,0 18.96296,0 1.9728,0 20.44989,-0.61103 21.67196,0 7.93464,3.96733 16.3742,22.48772 18.96296,27.08995 4.55793,8.10298 8.07678,16.86219 13.54497,24.38095 1.91498,2.63309 5.58463,3.38411 8.12699,5.41799 8.36942,6.69554 3.07121,3.25232 8.12698,10.83598 0.70837,1.06256 2.00062,1.64644 2.70899,2.709 1.12004,1.68004 2.07048,3.50244 2.709,5.41798 0.28555,0.85666 0,1.806 0,2.709 0,1.806 0,3.61199 0,5.41799 0,5.41799 0,10.83598 0,16.25397 0,4.51499 0,9.02998 0,13.54497 0,6.46065 0.45564,9.92471 -2.709,16.25397 -9.98492,19.96985 -0.36822,0.36822 -10.83597,10.83598 -1.42777,1.42776 -1.58897,3.73794 -2.709,5.41799 -0.70837,1.06255 -1.806,1.80599 -2.70899,2.70899 -0.903,0.903 -1.56679,2.13789 -2.709,2.709 -0.80766,0.40383 -1.80599,0 -2.70899,0"
       id="path3035"
       inkscape:connector-curvature="0" />
    <path
       style="fill:none;stroke:#000000;stroke-width:1px;stroke-linecap:butt;stroke-linejoin:miter;stroke-opacity:1"
       d="m 539.08994,171.93892 c -3.70951,-11.74284 -11.04311,-0.97204 -16.25396,-2.70899 -1.91555,-0.63852 -3.50244,-2.07048 -5.41799,-2.709 -0.85666,-0.28555 -1.806,0 -2.709,0 -4.51499,0 -9.02998,0 -13.54497,0 -10.83598,0 -21.67196,0 -32.50794,0 -2.31857,0 -20.74996,-0.5532 -21.67195,0 -2.79184,1.6751 -3.46451,5.52234 -5.41799,8.12698 -0.76622,1.02163 -2.39927,1.4701 -2.709,2.709 -0.40442,1.6177 0,17.14118 0,18.96296 0,8.12699 0,16.25397 0,24.38095 0,11.73898 0,23.47796 0,35.21693 0,1.67702 -0.45807,12.39979 0,13.54498 2.81706,7.04265 4.92983,11.82435 10.83598,16.25397 1.61533,1.2115 3.99022,1.28123 5.41799,2.70899 1.42777,1.42777 1.58896,3.73794 2.70899,5.41799 0.70837,1.06256 2.13789,1.56678 2.709,2.70899 0.40383,0.80767 -0.40383,1.90133 0,2.709 1.55282,3.10564 5.65235,3.76823 8.12698,5.41799 1.06256,0.70837 1.64644,2.00062 2.709,2.70899 5.27499,3.51666 4.97152,2.709 10.83598,2.709 8.12698,0 16.25396,0 24.38095,0 3.61199,0 7.22398,0 10.83598,0 0.903,0 2.70899,-0.903 2.70899,0 0,0.903 -1.80599,0 -2.70899,0"
       id="path3037"
       inkscape:connector-curvature="0" />
    <path
       style="fill:none;stroke:#000000;stroke-width:1px;stroke-linecap:butt;stroke-linejoin:miter;stroke-opacity:1"
       d="m 528.25397,353.44156 c 0,4.51499 0,9.02998 0,13.54498 0,1.80599 0.80766,3.80265 0,5.41799 -0.40384,0.80766 -2.07048,-0.63852 -2.709,0 -0.63852,0.63851 0,1.80599 0,2.70899 -0.903,0 -1.90133,-0.40383 -2.70899,0 -8.32263,4.16131 4.48054,1.52796 -5.41799,8.12698 -1.50268,1.00179 -3.66592,-0.43801 -5.41799,0 -1.95888,0.48972 -3.73794,1.58897 -5.41799,2.709 -1.06256,0.70837 -1.806,1.806 -2.709,2.70899 -4.51499,4.51499 -9.02998,9.02999 -13.54497,13.54498 -3.61199,3.61199 -7.22399,7.22398 -10.83598,10.83598 -1.80599,1.80599 -3.88555,3.37473 -5.41799,5.41798 -1.95348,2.60465 -3.4645,5.52234 -5.41799,8.12699 -0.76622,1.02162 -2.00062,1.64644 -2.70899,2.70899 -1.12003,1.68005 -1.58896,3.73795 -2.709,5.41799 -1.41674,2.12511 -4.00125,3.29288 -5.41799,5.41799 -2.24006,3.3601 -3.34028,7.37314 -5.41799,10.83598 -1.67509,2.79183 -4.20881,5.10404 -5.41798,8.12698 -1.34146,3.35366 0.70837,7.29413 0,10.83598 -3.56566,17.82827 -2.709,-1.4939 -2.709,16.25397 0,9.93298 0,19.86596 0,29.79894 0,0.72074 -0.44736,7.90331 0,8.12699 2.423,1.2115 5.70399,-1.2115 8.12698,0 1.14222,0.5711 1.56679,2.13789 2.709,2.70899 0.82444,0.41222 6.90697,0 8.12698,0 6.32099,0 12.64198,0 18.96297,0 14.44797,0 28.89594,0 43.34391,0 3.91773,0 16.1023,0.57214 18.96296,0 1.97996,-0.39599 3.45911,-2.21927 5.41799,-2.70899 19.2967,-4.82418 -13.7245,8.19879 13.54498,-2.709 1.87474,-0.7499 3.43803,-2.313 5.41799,-2.70899 4.42731,-0.88546 9.02998,0 13.54497,0 1.806,0 3.61199,0 5.41799,0 0.903,0 1.90133,0.40383 2.70899,0 1.14222,-0.57111 1.4975,-2.30516 2.709,-2.709 1.71332,-0.5711 3.70467,0.57111 5.41799,0 1.2115,-0.40383 1.56678,-2.13789 2.70899,-2.70899 0.80767,-0.40383 1.85234,0.28555 2.709,0 1.91555,-0.63852 3.61199,-1.806 5.41799,-2.709 2.70899,0 5.47059,0.53128 8.12698,0 1.97995,-0.39599 3.45911,-2.21927 5.41799,-2.70899 2.45583,-0.61396 10.39802,0 13.54497,0 0.903,0 1.806,0 2.709,0 0.903,0 1.90133,0.40383 2.70899,0 1.14221,-0.57111 1.806,-1.806 2.709,-2.709 0.90299,-0.90299 2.13789,-1.56678 2.70899,-2.70899 1.70383,-3.40766 -3.89065,-5.41799 2.709,-5.41799"
       id="path3039"
       inkscape:connector-curvature="0" />
    <path
       style="fill:none;stroke:#000000;stroke-width:1px;stroke-linecap:butt;stroke-linejoin:miter;stroke-opacity:1"
       d="m 438.85714,497.01828 c -9.29927,2.12285 -7.83391,-10.68944 -13.54497,-13.54497 -0.80767,-0.40384 -2.07048,0.63851 -2.709,0 -0.63851,-0.63852 0.63852,-2.07048 0,-2.709 -0.63851,-0.63851 -1.80599,0 -2.70899,0 -4.51499,0 -9.02998,0 -13.54497,0 -3.71707,0 -8.77041,-1.42216 -10.83598,2.709 -0.40384,0.80766 0,1.80599 0,2.70899 0,1.806 0,3.61199 0,5.41799 0,4.51499 0,9.02998 0,13.54497 0,1.03232 -0.26294,13.28204 0,13.54498 1.27703,1.27703 3.91531,-1.00179 5.41799,0 2.12511,1.41674 3.13356,4.27577 5.41799,5.41799 1.61533,0.80766 3.61199,0 5.41798,0 1.806,0 3.612,0 5.41799,0 8.12699,0 16.25397,0 24.38096,0 0.90299,0 1.80599,0 2.70899,0 0.903,0 2.07048,0.63851 2.709,0 1.27703,-1.27704 -1.806,-5.41799 0,-5.41799 0.90299,0 0,1.80599 0,2.70899 1.80599,-0.903 3.61199,-1.80599 5.41798,-2.70899"
       id="path3041"
       inkscape:connector-curvature="0" />
    <path
       style="fill:none;stroke:#000000;stroke-width:1px;stroke-linecap:butt;stroke-linejoin:miter;stroke-opacity:1"
       d="m 614.9418,356.15056 c -8.12699,0 -16.25397,0 -24.38096,0 -0.903,0 -1.80599,0 -2.70899,0 -0.903,0 -1.90133,-0.40384 -2.709,0 -1.14221,0.5711 -1.80599,1.80599 -2.70899,2.70899 -2.709,2.709 -5.41799,5.41799 -8.12698,8.12699 -0.903,0.90299 -2.00063,1.64644 -2.709,2.70899 -1.12003,1.68005 -1.58896,3.73794 -2.70899,5.41799 -0.70837,1.06256 -2.00063,1.64644 -2.709,2.70899 -1.12003,1.68005 -1.58896,3.73795 -2.70899,5.41799 -0.70837,1.06256 -2.13789,1.56679 -2.709,2.709 -0.35615,0.71231 0,9.41939 0,10.83598 0,8.12698 0,16.25397 0,24.38095 0,0.72074 -0.44736,7.90331 0,8.12698 2.423,1.2115 5.41799,0 8.12699,0 1.80599,0 3.61199,0 5.41799,0 1.80599,0 3.66591,0.43802 5.41798,0 9.44216,-2.36054 9.09749,-10.32399 13.54498,-16.25396 1.53244,-2.04326 3.88555,-3.37474 5.41799,-5.41799 1.2115,-1.61534 1.02894,-4.29796 2.70899,-5.41799 1.50268,-1.00179 3.91531,1.00178 5.41799,0 3.31892,-2.21262 1.25668,-6.73988 5.41799,-8.12699 1.71332,-0.5711 3.70467,0.57111 5.41799,0 8.45564,-2.81854 -0.903,-1.80599 2.70899,-5.41799 0.63852,-0.63851 1.85234,0.28556 2.709,0 1.91555,-0.63851 3.99022,-1.28123 5.41799,-2.70899 0.63851,-0.63852 -0.40383,-1.90133 0,-2.709 0.5711,-1.14221 2.00062,-1.64644 2.70899,-2.70899 1.12003,-1.68005 1.806,-3.61199 2.709,-5.41799 1.80599,-3.61199 4.14095,-7.00488 5.41799,-10.83598 0.5711,-1.71332 0,-3.61199 0,-5.41799 0,-0.903 0.80766,-2.30516 0,-2.70899 -1.61534,-0.80767 -3.612,0 -5.41799,0 -6.32099,0 -12.64198,0 -18.96296,0 z"
       id="path3043"
       inkscape:connector-curvature="0" />
    <path
       style="fill:none;stroke:#000000;stroke-width:1px;stroke-linecap:butt;stroke-linejoin:miter;stroke-opacity:1"
       d="m 86.68783,215.28283 c 0,-6.32099 0,-12.64197 0,-18.96296 0,-4.51499 0,-9.02998 0,-13.54497 0,-0.903 -0.403834,-1.90133 0,-2.709 1.552819,-3.10564 5.652346,-3.76823 8.126986,-5.41799 1.06255,-0.70837 1.64644,-2.00062 2.70899,-2.70899 1.68005,-1.12003 3.612004,-1.806 5.417994,-2.709 1.806,-0.903 3.45911,-2.21927 5.41799,-2.70899 1.75207,-0.43802 3.66592,0.43802 5.41799,0 4.90312,1.63279 5.03826,-4.38842 8.12698,-5.41799 0.99339,-0.33113 15.78919,0 16.25397,0 8.12699,0 16.25397,0 24.38095,0 4.515,0 9.02999,0 13.54498,0 0.903,0 1.80599,0 2.70899,0 0.903,0 1.90133,-0.40384 2.709,0 1.14221,0.5711 2.13789,1.56678 2.70899,2.70899 0.80767,1.61533 -0.43802,3.66592 0,5.41799 4.20181,16.80725 2.08968,-1.62621 5.41799,21.67196 0.25541,1.78784 0,3.61199 0,5.41799 0,2.70899 0,5.41799 0,8.12698 0,11.73898 0,23.47796 0,35.21693 0,3.612 0,7.22399 0,10.83598 0,2.709 0,5.41799 0,8.12699 0,0.90299 0.40383,1.90132 0,2.70899 -0.57111,1.14221 -2.13789,1.56678 -2.70899,2.709 -0.40384,0.80766 0.63851,2.07047 0,2.70899 -0.63852,0.63852 -1.82354,-0.17709 -2.709,0 -3.65085,0.73017 -7.18512,1.97882 -10.83598,2.70899 -3.38624,0.67725 -4.06349,-1.35449 -8.12698,0 -10.04253,3.34752 3.30213,2.709 -5.41799,2.709"
       id="path3045"
       inkscape:connector-curvature="0" />
    <path
       style="fill:none;stroke:#000000;stroke-width:1px;stroke-linecap:butt;stroke-linejoin:miter;stroke-opacity:1"
       d="m 184.21164,188.19288 c 1.806,-3.61199 2.56246,-7.98044 5.41799,-10.83597 1.27703,-1.27704 3.61199,0 5.41799,0 1.806,0 3.61199,0 5.41799,0 7.22399,0 14.44797,0 21.67196,0 0.88963,0 7.72335,-0.26909 8.12698,0 8.04241,5.3616 3.59051,6.2995 10.83598,13.54497 3.19258,3.19258 8.81681,4.08865 10.83598,8.12698 0.40383,0.80767 0,1.806 0,2.709 0,0.903 0,1.80599 0,2.70899 0,9.02998 0,18.05997 0,27.08995 0,8.12698 0,16.25397 0,24.38095 0,3.61199 1.61533,7.60532 0,10.83598 -0.54342,1.08684 -9.35412,3.93613 -10.83598,5.41799 -0.63852,0.63852 0.63852,2.07048 0,2.70899 -0.63852,0.63852 -1.90133,-0.40383 -2.70899,0 -1.14222,0.57111 -1.56679,2.13789 -2.709,2.709 -2.55406,1.27703 -5.57292,1.43196 -8.12698,2.70899 -10.1434,5.0717 4.7254,0.34629 -5.41799,5.41799 -2.55407,1.27704 -5.57292,1.43197 -8.12699,2.709 -2.28442,1.14221 -3.13356,4.27577 -5.41799,5.41799 -0.70041,0.3502 -14.33382,0 -16.25396,0"
       id="path3047"
       inkscape:connector-curvature="0" />
    <path
       style="fill:none;stroke:#000000;stroke-width:1px;stroke-linecap:butt;stroke-linejoin:miter;stroke-opacity:1"
       d="m 173.37566,299.26167 c 7.22399,0 14.44797,0 21.67196,0 1.806,0 3.61199,0 5.41799,0 0.903,0 1.95765,-0.5009 2.70899,0 2.12511,1.41674 3.4236,3.82247 5.41799,5.41799 2.54236,2.03388 5.82479,3.11578 8.12699,5.41798 1.42776,1.42777 1.58896,3.73795 2.70899,5.41799 0.70837,1.06256 2.00063,1.64644 2.709,2.709 1.12003,1.68005 1.49749,3.80266 2.70899,5.41799 4.55111,6.06815 11.70286,10.18582 16.25397,16.25397 1.2115,1.61533 1.806,3.61199 2.70899,5.41799 1.806,3.61199 3.41442,7.32972 5.41799,10.83597 1.61534,2.82684 4.20882,5.10405 5.41799,8.12699 0.67073,1.67682 0,3.61199 0,5.41799 0,14.36519 -0.85666,1.99135 2.709,16.25397 0.21901,0.87603 -0.40384,1.90132 0,2.70899 0.5711,1.14221 2.00062,1.64644 2.70899,2.70899 1.12003,1.68005 1.806,3.612 2.709,5.41799 0.903,1.806 2.21927,3.45912 2.70899,5.41799 0.43802,1.75208 -0.5711,3.70467 0,5.41799 0.40383,1.2115 2.13789,1.56679 2.709,2.709 0.40383,0.80766 -0.28556,1.85233 0,2.70899 6.28832,12.57665 0.22994,-1.55928 2.70899,10.83598 -0.62166,5.44005 4.23859,8.82737 5.41799,13.54497 0.52837,2.11349 0,13.09211 0,16.25397 0,4.51499 0,9.02998 0,13.54498 0,0.90299 0,1.80599 0,2.70899 0,0.903 0.40383,1.90133 0,2.709 -0.57111,1.14221 -1.806,1.80599 -2.70899,2.70899 -3.8929,3.8929 -3.3652,4.17286 -10.83598,5.41799 -2.67214,0.44536 -5.41799,0 -8.12699,0 -3.61199,0 -7.22398,0 -10.83598,0 -11.73897,0 -23.47795,0 -35.21693,0 -7.22398,0 -14.44797,0 -21.67195,0 -3.612,0 -7.40934,1.14221 -10.83598,0 -0.85666,-0.28555 0.63851,-2.07048 0,-2.709 -0.63852,-0.63851 -1.85234,0.28556 -2.709,0 -1.91555,-0.63851 -3.99022,-1.28122 -5.41799,-2.70899 -2.3022,-2.3022 -3.4645,-5.52234 -5.41799,-8.12698 -0.61924,-0.82567 -7.43914,-7.78307 -8.12698,-8.12699 -0.80767,-0.40383 -2.07048,0.63852 -2.70899,0 -0.63852,-0.63851 0.4324,-1.91625 0,-2.70899 -14.58005,-26.73008 -10.13373,-20.9697 -24.38096,-35.21693 -0.90299,-0.903 -1.64644,-2.00063 -2.70899,-2.709 -1.68005,-1.12003 -3.61199,-1.80599 -5.41799,-2.70899 -1.806,-0.903 -3.73794,-1.58897 -5.41799,-2.709 -5.02127,-3.34751 -0.24844,-2.70899 -5.41799,-2.70899"
       id="path3049"
       inkscape:connector-curvature="0" />
    <path
       style="fill:none;stroke:#000000;stroke-width:1px;stroke-linecap:butt;stroke-linejoin:miter;stroke-opacity:1"
       d="m 260.06349,480.76431 c 0,3.61199 3.612,10.83598 0,10.83598 -3.61199,0 0,-14.44797 0,-10.83598 0,4.51499 0,9.02998 0,13.54497 0,0.903 0,1.806 0,2.709 0,0.903 -0.63851,2.07048 0,2.70899 0.63852,0.63852 1.806,0 2.709,0 0.903,0 1.80599,0 2.70899,0 5.41799,0 10.83598,0 16.25397,0 1.22002,0 7.30254,0.41222 8.12698,0 1.14222,-0.5711 2.13789,-1.56678 2.709,-2.70899 0.4838,-0.9676 0,-15.62692 0,-16.25397 0,-0.62705 0.4838,-15.28637 0,-16.25397 -2.06558,-4.13115 -7.11891,-2.70899 -10.83598,-2.70899 -0.903,0 -2.70899,0.90299 -2.70899,0 0,-0.903 1.80599,0 2.70899,0"
       id="path3051"
       inkscape:connector-curvature="0" />
    <path
       style="fill:none;stroke:#000000;stroke-width:1px;stroke-linecap:butt;stroke-linejoin:miter;stroke-opacity:1"
       d="m 154.4127,320.93362 c -5.41799,-6.32098 -10.36714,-13.07613 -16.25397,-18.96296 -1.27703,-1.27703 -3.80265,0.80767 -5.41799,0 -1.14221,-0.57111 -1.56678,-2.13789 -2.70899,-2.70899 -0.80767,-0.40384 -1.806,0 -2.709,0 -0.90299,0 -1.80599,0 -2.70899,0 -5.41799,0 -10.83598,0 -16.25397,0 -1.69878,0 -10.501354,-0.33463 -10.835984,0 -0.63851,0.63851 0,1.80599 0,2.70899 0,0.903 0,1.806 0,2.709 0,12.64197 0,25.28395 0,37.92592 0,0.903 0,1.806 0,2.709 0,0.90299 -0.40383,1.90132 0,2.70899 2.994874,5.98974 1.68132,0.84066 5.417994,2.70899 1.14221,0.57111 1.56678,2.13789 2.709,2.709 0.80766,0.40383 1.90132,-0.40383 2.70899,0 8.26125,4.13062 -4.9546,2.14759 8.12698,5.41799 3.50415,0.87604 7.29413,-0.70837 10.83598,0 2.80008,0.56001 5.32691,2.14898 8.12699,2.70899 1.77092,0.35419 3.61199,0 5.41799,0 4.51499,0 9.02998,0 13.54497,0 1.22002,0 7.30255,0.41222 8.12698,0 1.14222,-0.5711 2.00063,-1.64644 2.709,-2.70899 3.86549,-5.79824 2.70899,-9.72599 2.70899,-16.25397 0,-0.903 -0.28555,-1.85233 0,-2.70899 0.63852,-1.91555 2.31301,-3.43804 2.709,-5.41799 0.53128,-2.65639 0,-5.41799 0,-8.12699 0,-4.51499 0,-9.02998 0,-13.54497"
       id="path3057"
       inkscape:connector-curvature="0" />
    <path
       style="fill:none;stroke:#000000;stroke-width:1px;stroke-linecap:butt;stroke-linejoin:miter;stroke-opacity:1"
       d="m 419.89418,656.84896 c -12.64198,0 -25.28395,0 -37.92593,0 -2.70899,0 -5.41799,0 -8.12698,0 -0.903,0 -2.30516,-0.80766 -2.709,0 -0.80766,1.61534 0,3.612 0,5.41799 0,4.51499 0,9.02998 0,13.54498 0,12.64197 0,25.28395 0,37.92592 0,3.30682 -1.0512,6.24689 2.709,8.12698 0.80766,0.40384 1.806,0 2.70899,0 0.903,0 1.806,0 2.709,0 5.41799,0 10.83598,0 16.25397,0 8.12698,0 16.25396,0 24.38095,0 1.80599,0 3.61199,0 5.41799,0 0.903,0 1.90133,0.40384 2.70899,0 1.14221,-0.5711 1.56678,-2.13788 2.709,-2.70899 0.80766,-0.40383 2.07048,0.63852 2.70899,0 0.63852,-0.63852 -0.40383,-1.90133 0,-2.70899 0.57111,-1.14222 2.13789,-1.56679 2.709,-2.709 0.40383,-0.80767 -0.63852,-2.07048 0,-2.70899 0.63851,-0.63852 2.07047,0.63851 2.70899,0 0.4204,-0.4204 -0.35138,-7.07286 0,-8.12699 6.54079,-19.62237 -0.78101,4.27102 5.41799,-8.12698 0.80767,-1.61533 -1.27703,-4.14096 0,-5.41799 0.63852,-0.63852 2.07048,0.63852 2.70899,0 0.63852,-0.63852 -0.85665,-2.42344 0,-2.709 2.56998,-0.85666 5.41799,0 8.12699,0"
       id="path3059"
       inkscape:connector-curvature="0" />
    <path
       style="fill:none;stroke:#000000;stroke-width:1px;stroke-linecap:butt;stroke-linejoin:miter;stroke-opacity:1"
       d="m 419.89418,637.886 c -6.43892,2.74818 -10.23835,2.70899 -16.25397,2.70899 -0.903,0 -2.07048,0.63852 -2.70899,0 -0.63852,-0.63851 0,-1.80599 0,-2.70899 0,-6.32099 0,-12.64197 0,-18.96296 0,-2.709 0,-5.41799 0,-8.12699 0,-0.90299 -0.63852,-2.07048 0,-2.70899 6.84265,-6.84266 3.12289,-1.04097 8.12698,-2.709 1.91555,-0.63851 3.50244,-2.07047 5.41799,-2.70899 1.52841,-0.50947 6.34688,0 8.12698,0 6.32099,0 12.64198,0 18.96297,0 1.80599,0 3.61199,0 5.41798,0 0.903,0 2.07048,-0.63852 2.709,0 0.0871,0.0871 0,7.46998 0,8.12698 0,10.83598 0,21.67196 0,32.50794"
       id="path3061"
       inkscape:connector-curvature="0" />
    <path
       style="fill:none;stroke:#000000;stroke-width:1px;stroke-linecap:butt;stroke-linejoin:miter;stroke-opacity:1"
       d="m 449.69312,605.37806 c 7.28485,-0.56566 11.90013,-9.07027 18.96296,-10.83597 2.62811,-0.65703 5.41799,0 8.12699,0 8.12698,0 16.25396,0 24.38095,0 0.99484,0 10.72696,-0.10902 10.83598,0 0.63851,0.63851 -0.40384,1.90132 0,2.70899 0.5711,1.14221 2.13789,1.56678 2.70899,2.70899 0.40383,0.80767 0,1.806 0,2.709 0,2.70899 0,5.41799 0,8.12698 0,3.612 0,7.22399 0,10.83598 0,6.32099 0,12.64198 0,18.96296 0,1.806 0,3.612 0,5.41799 0,0.903 0.40383,1.90133 0,2.709 -0.5711,1.14221 -1.80599,1.806 -2.70899,2.70899 -0.903,0.903 -1.56679,2.13789 -2.709,2.709 -0.80766,0.40383 -2.07048,-0.63852 -2.70899,0 -0.63852,0.63851 0.63851,2.07048 0,2.70899 -1.27703,1.27704 -3.70467,-0.5711 -5.41799,0 -15.34832,7.67416 4.03833,-1.00958 -10.83598,2.709 -1.95888,0.48972 -3.50244,2.07048 -5.41799,2.70899 -1.71332,0.57111 -3.61199,0 -5.41799,0 -4.51499,0 -9.02998,0 -13.54497,0"
       id="path3063"
       inkscape:connector-curvature="0" />
    <path
       style="fill:none;stroke:#000000;stroke-width:1px;stroke-linecap:butt;stroke-linejoin:miter;stroke-opacity:1"
       d="m 363.00529,708.31986 c -9.31114,-5.58041 -12.95358,-5.41799 -21.67196,-5.41799 -0.903,0 -2.07048,-0.63851 -2.70899,0 -0.0871,0.0871 0,7.46998 0,8.12699 0,0.90299 0,1.80599 0,2.70899 0,0.903 0.903,2.709 0,2.709 -0.903,0 0,-3.612 0,-2.709 0,1.806 0,3.61199 0,5.41799 0,0.903 -0.63852,2.07048 0,2.70899 0.63851,0.63852 1.80599,0 2.70899,0 4.51499,0 9.02998,0 13.54498,0 0.90299,0 1.80599,0 2.70899,0 0.903,0 2.709,-0.90299 2.709,0 0,0.903 -3.612,0 -2.709,0 1.806,0 3.61199,0 5.41799,0 0.903,0 2.70899,-0.90299 2.70899,0 0,0.903 -1.80599,0 -2.70899,0"
       id="path3065"
       inkscape:connector-curvature="0" />
    <path
       style="fill:none;stroke:#000000;stroke-width:1px;stroke-linecap:butt;stroke-linejoin:miter;stroke-opacity:1"
       d="m 490.32804,694.77489 c 3.61199,-0.903 7.16348,-2.09691 10.83598,-2.709 1.78142,-0.2969 3.61199,0 5.41799,0 4.51499,0 9.02998,0 13.54497,0 11.73898,0 23.47795,0 35.21693,0 4.51499,0 9.02998,0 13.54498,0 1.80599,0 3.66591,-0.43801 5.41798,0 1.95888,0.48972 3.99023,1.28123 5.41799,2.709 0.63852,0.63851 -0.21901,1.83296 0,2.70899 0.97687,3.90749 5.50378,15.46535 8.12699,18.96297 1.53244,2.04325 3.61199,3.61199 5.41799,5.41798 1.80599,1.806 3.61199,3.612 5.41799,5.41799 0.90299,0.903 2.13789,1.56679 2.70899,2.709 1.86834,3.73667 -3.28074,2.42312 2.709,5.41799 0.80766,0.40383 2.07047,-0.63852 2.70899,0 0.63852,0.63851 -0.63852,2.07048 0,2.70899 0.63852,0.63852 2.07048,-0.63851 2.709,0 0.63851,0.63852 -0.40384,1.90133 0,2.709 0.5711,1.14221 2.13788,1.56678 2.70899,2.70899 0.41222,0.82444 0,6.90697 0,8.12699 0,5.41799 0,10.83598 0,16.25396 0,0.38667 0.31111,13.07832 0,13.54498 -7.75153,11.6273 -2.11686,1.93034 -10.83598,5.41799 -3.02294,1.20917 -5.03825,4.38841 -8.12698,5.41799 -2.56998,0.85666 -5.55701,-0.85666 -8.12699,0 -3.08873,1.02957 -5.03825,4.38841 -8.12698,5.41799 -2.56998,0.85666 -5.44522,-0.38311 -8.12698,0 -6.99037,-2.80139 -10.65382,4.29795 -16.25397,5.41799 -5.31278,1.06255 -10.9412,-1.06256 -16.25397,0 -1.97996,0.39599 -3.43804,2.313 -5.41799,2.70899 -2.81664,0.56333 -26.021,0 -27.08995,0 -11.73897,0 -23.47795,0 -35.21693,0 -7.22398,0 -14.44797,0 -21.67196,0 -0.90299,0 -2.07047,0.63852 -2.70899,0 -10.57249,-10.57249 0.62707,-1.45486 -2.70899,-8.12698 -0.57111,-1.14222 -2.13789,-1.56679 -2.709,-2.709 -0.40383,-0.80767 0,-1.806 0,-2.70899 0,-0.903 0,-1.806 0,-2.709 0,-11.73898 0,-23.47795 0,-35.21693 0,-2.70899 0,-5.41799 0,-8.12698 0,-0.903 0.63852,-2.07048 0,-2.709 -0.63852,-0.63851 -2.07048,0.63852 -2.70899,0 -0.63852,-0.63851 0.40383,-1.90133 0,-2.70899 -0.57111,-1.14221 -2.13789,-1.56678 -2.709,-2.709 -0.57848,-1.15696 0,-12.47407 0,-13.54497 0,-0.903 0.63852,-2.07048 0,-2.709 -0.63851,-0.63851 -2.07048,0.63852 -2.70899,0 -0.63852,-0.63851 0.40383,-1.90132 0,-2.70899 -0.57111,-1.14221 -2.13789,-1.56678 -2.709,-2.70899 -0.40383,-0.80767 0.63852,-2.07048 0,-2.709 -3.61199,-3.61199 -2.70899,4.51499 -2.70899,-2.70899"
       id="path3069"
       inkscape:connector-curvature="0" />
    <path
       style="fill:none;stroke:#000000;stroke-width:1px;stroke-linecap:butt;stroke-linejoin:miter;stroke-opacity:1"
       d="m 606.81481,754.37277 c 5.03716,-2.33184 6.02506,-10.33769 10.83598,-13.54497 1.68005,-1.12003 3.61199,-1.806 5.41799,-2.709 1.806,-0.903 3.50244,-2.07048 5.41799,-2.70899 1.46612,-0.48871 9.91309,0 10.83598,0 7.22398,0 14.44797,0 21.67195,0 4.515,0 9.02999,0 13.54498,0 0.903,0 1.80599,0 2.70899,0 0.903,0 1.90133,-0.40383 2.709,0 1.12084,0.56042 7.36149,6.97874 8.12698,8.12698 1.12003,1.68005 1.28123,3.99023 2.709,5.41799 1.42776,1.42777 3.99022,1.28123 5.41798,2.709 2.30221,2.3022 3.11579,5.82478 5.41799,8.12698 8.315,8.31499 2.25247,-1.58276 10.83598,2.709 1.61534,0.80766 -1.27703,4.14095 0,5.41798 0.65187,0.65187 10.18411,-0.65186 10.83598,0 0.63852,0.63852 0.80767,2.30517 0,2.709 -2.423,1.2115 -5.70398,-1.2115 -8.12698,0 -1.14221,0.57111 -1.56678,2.13789 -2.709,2.70899 -2.16719,1.0836 -5.95979,-1.08359 -8.12698,0 -1.14221,0.57111 -1.4975,2.30517 -2.709,2.709 -1.24008,0.41336 -12.03293,0 -13.54497,0 -7.22399,0 -14.44797,0 -21.67196,0 -1.27728,0 -13.42219,0.12277 -13.54497,0 -0.63852,-0.63852 0.50089,-1.95766 0,-2.709 -1.41674,-2.12511 -3.61199,-3.61199 -5.41799,-5.41799 -0.903,-0.90299 -1.56678,-2.13788 -2.70899,-2.70899 -0.80767,-0.40383 -1.90133,0.40383 -2.709,0 -1.14221,-0.57111 -1.56678,-2.13789 -2.70899,-2.70899 -0.80767,-0.40384 -1.806,0 -2.709,0 -0.903,0 -1.80599,0 -2.70899,0 -0.903,0 -1.806,0 -2.709,0 -0.903,0 -2.70899,0.90299 -2.70899,0 0,-0.903 2.70899,-0.903 2.70899,0 0,0.90299 -1.80599,0 -2.70899,0 -0.903,0 -1.806,0 -2.709,0 -0.90299,0 -1.80599,0 -2.70899,0 -0.903,0 -1.90133,0.40383 -2.709,0 -4.70946,-2.35474 -9.02998,-5.41799 -13.54497,-8.12699 z"
       id="path3071"
       inkscape:connector-curvature="0" />
  </g>
</svg>
