<?xml version="1.0" encoding="UTF-8" standalone="no"?>
<!-- Created with Inkscape (http://www.inkscape.org/) -->

<svg
   xmlns:dc="http://purl.org/dc/elements/1.1/"
   xmlns:cc="http://creativecommons.org/ns#"
   xmlns:rdf="http://www.w3.org/1999/02/22-rdf-syntax-ns#"
   xmlns:svg="http://www.w3.org/2000/svg"
   xmlns="http://www.w3.org/2000/svg"
   xmlns:sodipodi="http://sodipodi.sourceforge.net/DTD/sodipodi-0.dtd"
   xmlns:inkscape="http://www.inkscape.org/namespaces/inkscape"
   width="210mm"
   height="297mm"
   id="svg2"
   version="1.1"
   inkscape:version="0.48.5 r10040"
   sodipodi:docname="anderson-disse-que-ia-junto.svg"
   inkscape:export-filename="/home/fredm/projetos/o-rato-anderson/um-dia-este-rato-encontrou-uma-rata.png"
   inkscape:export-xdpi="90"
   inkscape:export-ydpi="90">
  <defs
     id="defs4" />
  <sodipodi:namedview
     id="base"
     pagecolor="#ffffff"
     bordercolor="#666666"
     borderopacity="1.0"
     inkscape:pageopacity="0.0"
     inkscape:pageshadow="2"
     inkscape:zoom="0.36914063"
     inkscape:cx="107.6434"
     inkscape:cy="368.60101"
     inkscape:document-units="px"
     inkscape:current-layer="layer1"
     showgrid="false"
     inkscape:window-width="710"
     inkscape:window-height="693"
     inkscape:window-x="560"
     inkscape:window-y="31"
     inkscape:window-maximized="0" />
  <metadata
     id="metadata7">
    <rdf:RDF>
      <cc:Work
         rdf:about="">
        <dc:format>image/svg+xml</dc:format>
        <dc:type
           rdf:resource="http://purl.org/dc/dcmitype/StillImage" />
        <dc:title />
      </cc:Work>
    </rdf:RDF>
  </metadata>
  <g
     inkscape:label="Camada 1"
     inkscape:groupmode="layer"
     id="layer1">
    <path
       style="fill:none;stroke:#000000;stroke-width:1px;stroke-linecap:butt;stroke-linejoin:miter;stroke-opacity:1"
       d="m 396.86772,650.07647 c 0,-1.58025 0,-3.16049 0,-4.74074 0,-0.67725 0,-1.3545 0,-2.03175 0,-0.67724 -0.21416,-1.38925 0,-2.03174 0.25739,-0.77218 0.77895,-1.4562 1.3545,-2.03175 0.82488,-0.82488 1.51311,-0.31724 2.03174,-1.3545 0.10096,-0.20191 -0.20191,-0.57629 0,-0.67724 0.5418,-0.2709 1.48995,0.2709 2.03175,0 0.57111,-0.28556 0.74875,-1.15259 1.3545,-1.3545 0.31002,-0.10334 3.00823,0 3.38624,0 0.4515,0 0.92617,0.14278 1.3545,0 0.30287,-0.10096 0.36752,-0.59982 0.67725,-0.67725 0.60313,-0.15078 3.84137,0 4.74074,0 2.03174,0 4.06349,0 6.09524,0 1.80599,0 -0.22575,0.22575 0.67724,-0.67725 0.15963,-0.15963 0.67725,-0.22575 0.67725,0 0,0.22575 -0.4515,0 -0.67725,0 -0.4515,0 -0.90299,0 -1.35449,0 -1.3545,0 -2.709,0 -4.0635,0 -0.22574,0 -0.45149,0 -0.67724,0 -0.22575,0 -0.51762,0.15963 -0.67725,0 -0.15963,-0.15963 0,-0.4515 0,-0.67725 0,-1.35449 0,-2.70899 0,-4.06349 0,-2.03175 0,-4.06349 0,-6.09524 0,-0.22575 0,-0.4515 0,-0.67725 0,-0.22575 -0.15963,-0.51762 0,-0.67724 0.15963,-0.15963 0.4515,0 0.67725,0 0.22575,0 0.4515,0 0.67724,0 1.806,0 3.612,0 5.41799,0 0.4515,0 0.903,0 1.3545,0 0.22575,0 0.51762,-0.15963 0.67725,0 0.35694,0.35694 0.39724,0.93448 0.67725,1.35449 0.17709,0.26564 0.53447,0.3917 0.67725,0.67725 0.10043,0.20086 0,3.40844 0,4.06349 0,0.30501 0.10305,1.82564 0,2.03175 -1.40928,2.81855 0.0467,-0.724 -1.3545,0.67725 -0.15963,0.15963 0.15963,0.51762 0,0.67725 -0.15963,0.15963 -0.51762,-0.15963 -0.67725,0 -0.15963,0.15963 0.15963,0.51762 0,0.67725 -0.15963,0.15962 -0.4515,0 -0.67725,0 -0.22575,0 -0.4515,0 -0.67725,0 -1.37318,0 -3.73044,0.65493 -4.06349,-0.67725 -0.14948,-0.59791 0,-3.12615 0,-4.0635 0,-0.22575 0,-0.45149 0,-0.67724 0,-0.22575 -0.20191,-0.57629 0,-0.67725 0.40384,-0.20192 0.903,0 1.3545,0 0.4515,0 0.903,0 1.3545,0 1.35449,0 2.70899,0 4.06349,0 1.3545,0 2.70899,0 4.06349,0 0.22575,0 0.51762,-0.15963 0.67725,0 0.31926,0.31926 -0.14278,0.92616 0,1.35449 0.15963,0.47889 0.51762,0.87561 0.67725,1.3545 0.0714,0.21417 -0.10096,0.47533 0,0.67725 0.14277,0.28555 0.53447,0.3917 0.67725,0.67725 0.0969,0.19383 0,3.02445 0,3.38624 0,0.22575 0,0.4515 0,0.67725 0,0.22575 0.15963,0.51762 0,0.67725 -0.15963,0.15963 -0.51762,-0.15963 -0.67725,0 -0.15963,0.15963 0.15963,0.51762 0,0.67725 -0.15963,0.15963 -0.4515,0 -0.67725,0 -1.12875,0 -2.2575,0 -3.38624,0 -0.22575,0 -0.51762,-0.15963 -0.67725,0 -0.0996,0.0996 0.0797,2.03174 0,2.03174 -0.22575,0 0,-0.90299 0,-0.67724 0,2.14462 -0.4515,1.07231 0.67725,1.35449 0.69256,0.17315 1.33917,0.50411 2.03174,0.67725 0.21901,0.0548 0.51762,-0.15963 0.67725,0 0.15963,0.15963 -0.15963,0.51762 0,0.67725 0.15963,0.15963 0.4515,0 0.67725,0 0.70429,0 3.53076,0.13318 4.06349,0 1.61118,-0.40279 2.14784,-1.78019 3.38624,-2.70899 0.40384,-0.30288 0.88582,-0.48978 1.3545,-0.67725 0.66283,-0.26513 1.39323,-0.35799 2.03175,-0.67725 3.18006,-1.59003 0.85205,-1.01807 3.38624,-2.03175 0.66283,-0.26513 1.34533,-0.48113 2.03175,-0.67725 1.27333,-0.36381 2.92065,-0.49737 4.06349,-1.35449 0.51081,-0.38311 0.903,-0.903 1.3545,-1.3545 0.903,-0.4515 1.84328,-0.83507 2.70899,-1.3545 0.27376,-0.16426 0.37438,-0.57629 0.67725,-0.67725 0.42833,-0.14277 0.91648,0.10951 1.3545,0 0.48972,-0.12243 0.85951,-0.57825 1.35449,-0.67725 1.3282,-0.26563 2.72743,0.22268 4.0635,0 0.70417,-0.11736 1.33917,-0.5041 2.03174,-0.67724 0.43802,-0.10951 0.903,0 1.3545,0 0.67725,0 1.36765,-0.13282 2.03175,0 0.45826,0.0917 1.74498,0.78097 2.03174,1.35449 0.20192,0.40384 -0.20191,0.95067 0,1.3545 0.36401,0.72802 0.77895,1.4562 1.3545,2.03175 0.35694,0.35694 1.05162,0.27341 1.3545,0.67725 0.42833,0.5711 0.28125,1.43775 0.67725,2.03174 0.53127,0.79692 1.45708,1.26553 2.03174,2.03175 0.2709,0.3612 -0.224,0.96248 0,1.35449 0.80767,1.41342 1.90133,2.65008 2.709,4.0635 0.112,0.196 -0.10096,0.47533 0,0.67725 0.14277,0.28555 0.53447,0.39169 0.67724,0.67724 0.10096,0.20192 -0.15962,0.51762 0,0.67725 0.15963,0.15963 0.48942,-0.12522 0.67725,0 0.4515,0.4515 0.903,0.903 1.3545,1.3545 0,0.22575 -0.12522,0.48941 0,0.67725 0.70837,1.06255 2.13789,1.56678 2.709,2.70899 0.20191,0.40384 -0.16769,0.93529 0,1.3545 0.30229,0.75574 0.99048,1.30373 1.35449,2.03175 0.69874,1.39747 -2.13595,0.28652 1.3545,2.03174 1.3545,0.67725 1.01587,-0.33862 2.03175,0 0.47888,0.15963 0.86477,0.55482 1.35449,0.67725 0.43802,0.10951 0.903,0 1.3545,0 1.3545,0 2.709,0 4.06349,0 0.35415,0 2.53092,0.089 2.709,0 0.5711,-0.28555 0.82322,-1.00031 1.3545,-1.3545 0.42001,-0.28 0.99755,-0.3203 1.35449,-0.67724 0.15963,-0.15963 -0.20191,-0.5763 0,-0.67725 0.40384,-0.20192 0.92617,0.14277 1.3545,0 0.60575,-0.20192 0.74875,-1.15258 1.3545,-1.3545 0.42833,-0.14278 0.92616,0.14278 1.35449,0 0.60575,-0.20192 0.7834,-1.06895 1.3545,-1.3545 0.20192,-0.10096 0.51762,0.15963 0.67725,0 0.15963,-0.15963 -0.10096,-0.47533 0,-0.67725 0.14278,-0.28555 0.50016,-0.41161 0.67725,-0.67725 0.28001,-0.42001 0.39724,-0.93448 0.67725,-1.35449 0.17709,-0.26564 0.57629,-0.37438 0.67725,-0.67725 0.14277,-0.42833 -0.14278,-0.92617 0,-1.3545 0.10095,-0.30287 0.53447,-0.39169 0.67725,-0.67725 0.10095,-0.20191 -0.10096,-0.47533 0,-0.67725 0.6166,-1.23321 0.51374,-0.39699 1.35449,-0.67724 0.95778,-0.31926 1.71315,-1.18853 2.709,-1.3545 0.89071,-0.14845 1.80599,0 2.70899,0 1.3545,0 2.709,0 4.06349,0 0.67725,0 1.3545,0 2.03175,0 0.4515,0 1.3545,-0.4515 1.3545,0 0,0.0914 -4.45947,-0.0938 -4.74074,0 -0.60575,0.20191 -0.82322,1.00031 -1.3545,1.3545 -0.42001,0.28 -0.93449,0.39724 -1.3545,0.67724 -0.26564,0.1771 -0.4515,0.4515 -0.67725,0.67725 -0.22575,0.22575 -0.53447,0.3917 -0.67725,0.67725 -0.10095,0.20192 0.15963,0.51762 0,0.67725 -0.15962,0.15963 -0.45149,0 -0.67724,0 -0.22575,0.22575 -0.50016,0.41161 -0.67725,0.67725 -0.28001,0.42001 -0.39724,0.93448 -0.67725,1.3545 -0.17709,0.26563 -0.57629,0.37437 -0.67725,0.67724 -0.14278,0.42833 0.1095,0.91648 0,1.3545 -0.12243,0.48972 -0.55482,0.86478 -0.67725,1.3545 -0.1095,0.43802 0,0.903 0,1.3545 0,0.90299 0,1.80599 0,2.70899 0,0.22575 0.0714,0.46309 0,0.67725 -0.41001,1.23004 -0.57962,1.25687 -1.3545,2.03175 -0.22575,0.22575 -0.53447,0.39169 -0.67724,0.67724 -0.10096,0.20192 0.15962,0.51762 0,0.67725 -0.35695,0.35694 -0.93449,0.39724 -1.3545,0.67725 -0.26564,0.17709 -0.41161,0.50016 -0.67725,0.67725 -0.42001,0.28001 -0.903,0.4515 -1.3545,0.67725 -0.4515,0.22575 -0.87561,0.51762 -1.3545,0.67725 -0.21416,0.0714 -0.47533,-0.10096 -0.67724,0 -0.28556,0.14277 -0.37438,0.57629 -0.67725,0.67725 -0.42833,0.14277 -0.92617,-0.14278 -1.3545,0 -0.30288,0.10095 -0.36752,0.59981 -0.67725,0.67725 -0.87604,0.219 -1.806,0 -2.70899,0 -1.58025,0 -3.1605,0 -4.74074,0 -2.87217,0 -8.41078,0.36212 -10.83598,-0.67725 -0.58689,-0.25153 -0.82322,-1.00032 -1.3545,-1.3545 -0.37567,-0.25045 -1.03524,0.31926 -1.3545,0 -0.31926,-0.31926 0.20192,-0.95067 0,-1.3545 -0.14277,-0.28555 -0.53447,-0.39169 -0.67725,-0.67725 -0.99432,-1.98864 -1.71467,-4.10659 -2.70899,-6.09523 -1.40927,-2.81855 0.0468,0.724 -1.3545,-0.67725 -0.15963,-0.15963 0.0714,-0.46309 0,-0.67725 -0.15963,-0.47889 -0.32031,-0.99756 -0.67725,-1.3545 -0.15963,-0.15963 -0.4515,0 -0.67725,0 -2.03174,0 -4.06349,0 -6.09523,0 -1.806,0 -3.612,0 -5.41799,0 -0.4515,0 -0.92617,-0.14278 -1.3545,0 -0.95777,0.31926 -1.77162,0.97955 -2.709,1.3545 -1.98503,0.79401 -4.11019,1.23773 -6.09523,2.03174 -0.46869,0.18748 -0.86478,0.55482 -1.3545,0.67725 -3.08303,0 -0.0387,-0.31926 -2.03175,0.67725 -0.40383,0.20192 -0.92616,-0.14278 -1.35449,0 -4.05904,1.35301 1.70104,-0.17327 -2.709,2.03175 -0.40383,0.20191 -0.91648,-0.10951 -1.3545,0 -0.97943,0.24486 -1.72955,1.10963 -2.70899,1.35449 -0.43802,0.10951 -0.903,0 -1.3545,0 -0.4515,0.22575 -0.87561,0.51762 -1.3545,0.67725 -0.40382,0.13461 -3.40732,0 -4.06349,0 -2.70899,0 -5.41799,0 -8.12698,0 -0.16425,0 -2.00997,0.0218 -2.03175,0 -0.15963,-0.15963 0.0371,-0.45457 0,-0.67725 -0.18924,-1.13543 -0.31324,-2.29421 -0.67725,-3.38624 -0.10095,-0.30287 -0.53447,-0.39169 -0.67724,-0.67725 -0.55358,-1.10715 -0.68398,-3.38961 -2.03175,-4.06349 -0.20192,-0.10096 -0.67725,0.22575 -0.67725,0 0,-0.22575 0.4515,0 0.67725,0 -0.903,-0.22575 -1.84478,-0.33156 -2.709,-0.67725 -0.29642,-0.11857 -0.36752,-0.59982 -0.67724,-0.67725 -0.80466,-0.20116 -2.41396,0 -3.38625,0 -2.03174,0 -4.06349,0 -6.09524,0 -1.12874,0 -2.25749,0 -3.38624,0 -0.4515,0 -0.92617,-0.14277 -1.3545,0 -1.15331,0.38444 -2.25749,0.903 -3.38624,1.3545 z"
       id="path3035"
       inkscape:connector-curvature="0" />
    <path
       style="fill:none;stroke:#000000;stroke-width:1px;stroke-linecap:butt;stroke-linejoin:miter;stroke-opacity:1"
       d="m 458.20631,699.50243 c 0,-1.58025 0,-3.16049 0,-4.74074 0,-0.67725 0,-1.3545 0,-2.03175 0,-0.67724 -0.21416,-1.38925 0,-2.03174 0.25739,-0.77218 0.77895,-1.4562 1.3545,-2.03175 0.82488,-0.82488 1.51311,-0.31724 2.03174,-1.3545 0.10096,-0.20191 -0.20191,-0.57629 0,-0.67724 0.5418,-0.2709 1.48995,0.2709 2.03175,0 0.57111,-0.28556 0.74875,-1.15259 1.3545,-1.3545 0.31002,-0.10334 3.00823,0 3.38624,0 0.4515,0 0.92617,0.14278 1.3545,0 0.30287,-0.10096 0.36752,-0.59982 0.67725,-0.67725 0.60313,-0.15078 3.84137,0 4.74074,0 2.03174,0 4.06349,0 6.09524,0 1.80599,0 -0.22575,0.22575 0.67724,-0.67725 0.15963,-0.15963 0.67725,-0.22575 0.67725,0 0,0.22575 -0.4515,0 -0.67725,0 -0.4515,0 -0.90299,0 -1.35449,0 -1.3545,0 -2.709,0 -4.0635,0 -0.22574,0 -0.45149,0 -0.67724,0 -0.22575,0 -0.51762,0.15963 -0.67725,0 -0.15963,-0.15963 0,-0.4515 0,-0.67725 0,-1.35449 0,-2.70899 0,-4.06349 0,-2.03175 0,-4.06349 0,-6.09524 0,-0.22575 0,-0.4515 0,-0.67725 0,-0.22575 -0.15963,-0.51762 0,-0.67724 0.15963,-0.15963 0.4515,0 0.67725,0 0.22575,0 0.4515,0 0.67724,0 1.806,0 3.612,0 5.41799,0 0.4515,0 0.903,0 1.3545,0 0.22575,0 0.51762,-0.15963 0.67725,0 0.35694,0.35694 0.39724,0.93448 0.67725,1.35449 0.17709,0.26564 0.53447,0.3917 0.67725,0.67725 0.10043,0.20086 0,3.40844 0,4.06349 0,0.30501 0.10305,1.82564 0,2.03175 -1.40928,2.81855 0.0467,-0.724 -1.3545,0.67725 -0.15963,0.15963 0.15963,0.51762 0,0.67725 -0.15963,0.15963 -0.51762,-0.15963 -0.67725,0 -0.15963,0.15963 0.15963,0.51762 0,0.67725 -0.15963,0.15962 -0.4515,0 -0.67725,0 -0.22575,0 -0.4515,0 -0.67725,0 -1.37318,0 -3.73044,0.65493 -4.06349,-0.67725 -0.14948,-0.59791 0,-3.12615 0,-4.0635 0,-0.22575 0,-0.45149 0,-0.67724 0,-0.22575 -0.20191,-0.57629 0,-0.67725 0.40384,-0.20192 0.903,0 1.3545,0 0.4515,0 0.903,0 1.3545,0 1.35449,0 2.70899,0 4.06349,0 1.3545,0 2.70899,0 4.06349,0 0.22575,0 0.51762,-0.15963 0.67725,0 0.31926,0.31926 -0.14278,0.92616 0,1.35449 0.15963,0.47889 0.51762,0.87561 0.67725,1.3545 0.0714,0.21417 -0.10096,0.47533 0,0.67725 0.14277,0.28555 0.53447,0.3917 0.67725,0.67725 0.0969,0.19383 0,3.02445 0,3.38624 0,0.22575 0,0.4515 0,0.67725 0,0.22575 0.15963,0.51762 0,0.67725 -0.15963,0.15963 -0.51762,-0.15963 -0.67725,0 -0.15963,0.15963 0.15963,0.51762 0,0.67725 -0.15963,0.15963 -0.4515,0 -0.67725,0 -1.12875,0 -2.2575,0 -3.38624,0 -0.22575,0 -0.51762,-0.15963 -0.67725,0 -0.0996,0.0996 0.0797,2.03174 0,2.03174 -0.22575,0 0,-0.90299 0,-0.67724 0,2.14462 -0.4515,1.07231 0.67725,1.35449 0.69256,0.17315 1.33917,0.50411 2.03174,0.67725 0.21901,0.0548 0.51762,-0.15963 0.67725,0 0.15963,0.15963 -0.15963,0.51762 0,0.67725 0.15963,0.15963 0.4515,0 0.67725,0 0.70429,0 3.53076,0.13318 4.06349,0 1.61118,-0.40279 2.14784,-1.78019 3.38624,-2.70899 0.40384,-0.30288 0.88582,-0.48978 1.3545,-0.67725 0.66283,-0.26513 1.39323,-0.35799 2.03175,-0.67725 3.18006,-1.59003 0.85205,-1.01807 3.38624,-2.03175 0.66283,-0.26513 1.34533,-0.48113 2.03175,-0.67725 1.27333,-0.36381 2.92065,-0.49737 4.06349,-1.35449 0.51081,-0.38311 0.903,-0.903 1.3545,-1.3545 0.903,-0.4515 1.84328,-0.83507 2.70899,-1.3545 0.27376,-0.16426 0.37438,-0.57629 0.67725,-0.67725 0.42833,-0.14277 0.91648,0.10951 1.3545,0 0.48972,-0.12243 0.85951,-0.57825 1.35449,-0.67725 1.3282,-0.26563 2.72743,0.22268 4.0635,0 0.70417,-0.11736 1.33917,-0.5041 2.03174,-0.67724 0.43802,-0.10951 0.903,0 1.3545,0 0.67725,0 1.36765,-0.13282 2.03175,0 0.45826,0.0917 1.74498,0.78097 2.03174,1.35449 0.20192,0.40384 -0.20191,0.95067 0,1.3545 0.36401,0.72802 0.77895,1.4562 1.3545,2.03175 0.35694,0.35694 1.05162,0.27341 1.3545,0.67725 0.42833,0.5711 0.28125,1.43775 0.67725,2.03174 0.53127,0.79692 1.45708,1.26553 2.03174,2.03175 0.2709,0.3612 -0.224,0.96248 0,1.35449 0.80767,1.41342 1.90133,2.65008 2.709,4.0635 0.112,0.196 -0.10096,0.47533 0,0.67725 0.14277,0.28555 0.53447,0.39169 0.67724,0.67724 0.10096,0.20192 -0.15962,0.51762 0,0.67725 0.15963,0.15963 0.48942,-0.12522 0.67725,0 0.4515,0.4515 0.903,0.903 1.3545,1.3545 0,0.22575 -0.12522,0.48941 0,0.67725 0.70837,1.06255 2.13789,1.56678 2.709,2.70899 0.20191,0.40384 -0.16769,0.93529 0,1.3545 0.30229,0.75574 0.99048,1.30373 1.35449,2.03175 0.69874,1.39747 -2.13595,0.28652 1.3545,2.03174 1.3545,0.67725 1.01587,-0.33862 2.03175,0 0.47888,0.15963 0.86477,0.55482 1.35449,0.67725 0.43802,0.10951 0.903,0 1.3545,0 1.3545,0 2.709,0 4.06349,0 0.35415,0 2.53092,0.089 2.709,0 0.5711,-0.28555 0.82322,-1.00031 1.3545,-1.3545 0.42001,-0.28 0.99755,-0.3203 1.35449,-0.67724 0.15963,-0.15963 -0.20191,-0.5763 0,-0.67725 0.40384,-0.20192 0.92617,0.14277 1.3545,0 0.60575,-0.20192 0.74875,-1.15258 1.3545,-1.3545 0.42833,-0.14278 0.92616,0.14278 1.35449,0 0.60575,-0.20192 0.7834,-1.06895 1.3545,-1.3545 0.20192,-0.10096 0.51762,0.15963 0.67725,0 0.15963,-0.15963 -0.10096,-0.47533 0,-0.67725 0.14278,-0.28555 0.50016,-0.41161 0.67725,-0.67725 0.28001,-0.42001 0.39724,-0.93448 0.67725,-1.35449 0.17709,-0.26564 0.57629,-0.37438 0.67725,-0.67725 0.14277,-0.42833 -0.14278,-0.92617 0,-1.3545 0.10095,-0.30287 0.53447,-0.39169 0.67725,-0.67725 0.10095,-0.20191 -0.10096,-0.47533 0,-0.67725 0.6166,-1.23321 0.51374,-0.39699 1.35449,-0.67724 0.95778,-0.31926 1.71315,-1.18853 2.709,-1.3545 0.89071,-0.14845 1.80599,0 2.70899,0 1.3545,0 2.709,0 4.06349,0 0.67725,0 1.3545,0 2.03175,0 0.4515,0 1.3545,-0.4515 1.3545,0 0,0.0914 -4.45947,-0.0938 -4.74074,0 -0.60575,0.20191 -0.82322,1.00031 -1.3545,1.3545 -0.42001,0.28 -0.93449,0.39724 -1.3545,0.67724 -0.26564,0.1771 -0.4515,0.4515 -0.67725,0.67725 -0.22575,0.22575 -0.53447,0.3917 -0.67725,0.67725 -0.10095,0.20192 0.15963,0.51762 0,0.67725 -0.15962,0.15963 -0.45149,0 -0.67724,0 -0.22575,0.22575 -0.50016,0.41161 -0.67725,0.67725 -0.28001,0.42001 -0.39724,0.93448 -0.67725,1.3545 -0.17709,0.26563 -0.57629,0.37437 -0.67725,0.67724 -0.14278,0.42833 0.1095,0.91648 0,1.3545 -0.12243,0.48972 -0.55482,0.86478 -0.67725,1.3545 -0.1095,0.43802 0,0.903 0,1.3545 0,0.90299 0,1.80599 0,2.70899 0,0.22575 0.0714,0.46309 0,0.67725 -0.41001,1.23004 -0.57962,1.25687 -1.3545,2.03175 -0.22575,0.22575 -0.53447,0.39169 -0.67724,0.67724 -0.10096,0.20192 0.15962,0.51762 0,0.67725 -0.35695,0.35694 -0.93449,0.39724 -1.3545,0.67725 -0.26564,0.17709 -0.41161,0.50016 -0.67725,0.67725 -0.42001,0.28001 -0.903,0.4515 -1.3545,0.67725 -0.4515,0.22575 -0.87561,0.51762 -1.3545,0.67725 -0.21416,0.0714 -0.47533,-0.10096 -0.67724,0 -0.28556,0.14277 -0.37438,0.57629 -0.67725,0.67725 -0.42833,0.14277 -0.92617,-0.14278 -1.3545,0 -0.30288,0.10095 -0.36752,0.59981 -0.67725,0.67725 -0.87604,0.219 -1.806,0 -2.70899,0 -1.58025,0 -3.1605,0 -4.74074,0 -2.87217,0 -8.41078,0.36212 -10.83598,-0.67725 -0.58689,-0.25153 -0.82322,-1.00032 -1.3545,-1.3545 -0.37567,-0.25045 -1.03524,0.31926 -1.3545,0 -0.31926,-0.31926 0.20192,-0.95067 0,-1.3545 -0.14277,-0.28555 -0.53447,-0.39169 -0.67725,-0.67725 -0.99432,-1.98864 -1.71467,-4.10659 -2.70899,-6.09523 -1.40927,-2.81855 0.0468,0.724 -1.3545,-0.67725 -0.15963,-0.15963 0.0714,-0.46309 0,-0.67725 -0.15963,-0.47889 -0.32031,-0.99756 -0.67725,-1.3545 -0.15963,-0.15963 -0.4515,0 -0.67725,0 -2.03174,0 -4.06349,0 -6.09523,0 -1.806,0 -3.612,0 -5.41799,0 -0.4515,0 -0.92617,-0.14278 -1.3545,0 -0.95777,0.31926 -1.77162,0.97955 -2.709,1.3545 -1.98503,0.79401 -4.11019,1.23773 -6.09523,2.03174 -0.46869,0.18748 -0.86478,0.55482 -1.3545,0.67725 -3.08303,0 -0.0387,-0.31926 -2.03175,0.67725 -0.40383,0.20192 -0.92616,-0.14278 -1.35449,0 -4.05904,1.35301 1.70104,-0.17327 -2.709,2.03175 -0.40383,0.20191 -0.91648,-0.10951 -1.3545,0 -0.97943,0.24486 -1.72955,1.10963 -2.70899,1.35449 -0.43802,0.10951 -0.903,0 -1.3545,0 -0.4515,0.22575 -0.87561,0.51762 -1.3545,0.67725 -0.40382,0.13461 -3.40732,0 -4.06349,0 -2.70899,0 -5.41799,0 -8.12698,0 -0.16425,0 -2.00997,0.0218 -2.03175,0 -0.15963,-0.15963 0.0371,-0.45457 0,-0.67725 -0.18924,-1.13543 -0.31324,-2.29421 -0.67725,-3.38624 -0.10095,-0.30287 -0.53447,-0.39169 -0.67724,-0.67725 -0.55358,-1.10715 -0.68398,-3.38961 -2.03175,-4.06349 -0.20192,-0.10096 -0.67725,0.22575 -0.67725,0 0,-0.22575 0.4515,0 0.67725,0 -0.903,-0.22575 -1.84478,-0.33156 -2.709,-0.67725 -0.29642,-0.11857 -0.36752,-0.59982 -0.67724,-0.67725 -0.80466,-0.20116 -2.41396,0 -3.38625,0 -2.03174,0 -4.06349,0 -6.09524,0 -1.12874,0 -2.25749,0 -3.38624,0 -0.4515,0 -0.92617,-0.14277 -1.3545,0 -1.15331,0.38444 -2.25749,0.903 -3.38624,1.3545 z"
       id="path3035-3"
       inkscape:connector-curvature="0" />
    <path
       style="fill:none;stroke:#000000;stroke-width:1px;stroke-linecap:butt;stroke-linejoin:miter;stroke-opacity:1"
       d="m 459.56081,621.61883 c 0,-1.58025 0,-3.16049 0,-4.74074 0,-0.67725 0,-1.3545 0,-2.03175 0,-0.67724 -0.21416,-1.38925 0,-2.03174 0.25739,-0.77218 0.77895,-1.4562 1.3545,-2.03175 0.82488,-0.82488 1.51311,-0.31724 2.03174,-1.3545 0.10096,-0.20191 -0.20191,-0.57629 0,-0.67724 0.5418,-0.2709 1.48995,0.2709 2.03175,0 0.57111,-0.28556 0.74875,-1.15259 1.3545,-1.3545 0.31002,-0.10334 3.00823,0 3.38624,0 0.4515,0 0.92617,0.14278 1.3545,0 0.30287,-0.10096 0.36752,-0.59982 0.67725,-0.67725 0.60313,-0.15078 3.84137,0 4.74074,0 2.03174,0 4.06349,0 6.09524,0 1.80599,0 -0.22575,0.22575 0.67724,-0.67725 0.15963,-0.15963 0.67725,-0.22575 0.67725,0 0,0.22575 -0.4515,0 -0.67725,0 -0.4515,0 -0.90299,0 -1.35449,0 -1.3545,0 -2.709,0 -4.0635,0 -0.22574,0 -0.45149,0 -0.67724,0 -0.22575,0 -0.51762,0.15963 -0.67725,0 -0.15963,-0.15963 0,-0.4515 0,-0.67725 0,-1.35449 0,-2.70899 0,-4.06349 0,-2.03175 0,-4.06349 0,-6.09524 0,-0.22575 0,-0.4515 0,-0.67725 0,-0.22575 -0.15963,-0.51762 0,-0.67724 0.15963,-0.15963 0.4515,0 0.67725,0 0.22575,0 0.4515,0 0.67724,0 1.806,0 3.612,0 5.41799,0 0.4515,0 0.903,0 1.3545,0 0.22575,0 0.51762,-0.15963 0.67725,0 0.35694,0.35694 0.39724,0.93448 0.67725,1.35449 0.17709,0.26564 0.53447,0.3917 0.67725,0.67725 0.10043,0.20086 0,3.40844 0,4.06349 0,0.30501 0.10305,1.82564 0,2.03175 -1.40928,2.81855 0.0467,-0.724 -1.3545,0.67725 -0.15963,0.15963 0.15963,0.51762 0,0.67725 -0.15963,0.15963 -0.51762,-0.15963 -0.67725,0 -0.15963,0.15963 0.15963,0.51762 0,0.67725 -0.15963,0.15962 -0.4515,0 -0.67725,0 -0.22575,0 -0.4515,0 -0.67725,0 -1.37318,0 -3.73044,0.65493 -4.06349,-0.67725 -0.14948,-0.59791 0,-3.12615 0,-4.0635 0,-0.22575 0,-0.45149 0,-0.67724 0,-0.22575 -0.20191,-0.57629 0,-0.67725 0.40384,-0.20192 0.903,0 1.3545,0 0.4515,0 0.903,0 1.3545,0 1.35449,0 2.70899,0 4.06349,0 1.3545,0 2.70899,0 4.06349,0 0.22575,0 0.51762,-0.15963 0.67725,0 0.31926,0.31926 -0.14278,0.92616 0,1.35449 0.15963,0.47889 0.51762,0.87561 0.67725,1.3545 0.0714,0.21417 -0.10096,0.47533 0,0.67725 0.14277,0.28555 0.53447,0.3917 0.67725,0.67725 0.0969,0.19383 0,3.02445 0,3.38624 0,0.22575 0,0.4515 0,0.67725 0,0.22575 0.15963,0.51762 0,0.67725 -0.15963,0.15963 -0.51762,-0.15963 -0.67725,0 -0.15963,0.15963 0.15963,0.51762 0,0.67725 -0.15963,0.15963 -0.4515,0 -0.67725,0 -1.12875,0 -2.2575,0 -3.38624,0 -0.22575,0 -0.51762,-0.15963 -0.67725,0 -0.0996,0.0996 0.0797,2.03174 0,2.03174 -0.22575,0 0,-0.90299 0,-0.67724 0,2.14462 -0.4515,1.07231 0.67725,1.35449 0.69256,0.17315 1.33917,0.50411 2.03174,0.67725 0.21901,0.0548 0.51762,-0.15963 0.67725,0 0.15963,0.15963 -0.15963,0.51762 0,0.67725 0.15963,0.15963 0.4515,0 0.67725,0 0.70429,0 3.53076,0.13318 4.06349,0 1.61118,-0.40279 2.14784,-1.78019 3.38624,-2.70899 0.40384,-0.30288 0.88582,-0.48978 1.3545,-0.67725 0.66283,-0.26513 1.39323,-0.35799 2.03175,-0.67725 3.18006,-1.59003 0.85205,-1.01807 3.38624,-2.03175 0.66283,-0.26513 1.34533,-0.48113 2.03175,-0.67725 1.27333,-0.36381 2.92065,-0.49737 4.06349,-1.35449 0.51081,-0.38311 0.903,-0.903 1.3545,-1.3545 0.903,-0.4515 1.84328,-0.83507 2.70899,-1.3545 0.27376,-0.16426 0.37438,-0.57629 0.67725,-0.67725 0.42833,-0.14277 0.91648,0.10951 1.3545,0 0.48972,-0.12243 0.85951,-0.57825 1.35449,-0.67725 1.3282,-0.26563 2.72743,0.22268 4.0635,0 0.70417,-0.11736 1.33917,-0.5041 2.03174,-0.67724 0.43802,-0.10951 0.903,0 1.3545,0 0.67725,0 1.36765,-0.13282 2.03175,0 0.45826,0.0917 1.74498,0.78097 2.03174,1.35449 0.20192,0.40384 -0.20191,0.95067 0,1.3545 0.36401,0.72802 0.77895,1.4562 1.3545,2.03175 0.35694,0.35694 1.05162,0.27341 1.3545,0.67725 0.42833,0.5711 0.28125,1.43775 0.67725,2.03174 0.53127,0.79692 1.45708,1.26553 2.03174,2.03175 0.2709,0.3612 -0.224,0.96248 0,1.35449 0.80767,1.41342 1.90133,2.65008 2.709,4.0635 0.112,0.196 -0.10096,0.47533 0,0.67725 0.14277,0.28555 0.53447,0.39169 0.67724,0.67724 0.10096,0.20192 -0.15962,0.51762 0,0.67725 0.15963,0.15963 0.48942,-0.12522 0.67725,0 0.4515,0.4515 0.903,0.903 1.3545,1.3545 0,0.22575 -0.12522,0.48941 0,0.67725 0.70837,1.06255 2.13789,1.56678 2.709,2.70899 0.20191,0.40384 -0.16769,0.93529 0,1.3545 0.30229,0.75574 0.99048,1.30373 1.35449,2.03175 0.69874,1.39747 -2.13595,0.28652 1.3545,2.03174 1.3545,0.67725 1.01587,-0.33862 2.03175,0 0.47888,0.15963 0.86477,0.55482 1.35449,0.67725 0.43802,0.10951 0.903,0 1.3545,0 1.3545,0 2.709,0 4.06349,0 0.35415,0 2.53092,0.089 2.709,0 0.5711,-0.28555 0.82322,-1.00031 1.3545,-1.3545 0.42001,-0.28 0.99755,-0.3203 1.35449,-0.67724 0.15963,-0.15963 -0.20191,-0.5763 0,-0.67725 0.40384,-0.20192 0.92617,0.14277 1.3545,0 0.60575,-0.20192 0.74875,-1.15258 1.3545,-1.3545 0.42833,-0.14278 0.92616,0.14278 1.35449,0 0.60575,-0.20192 0.7834,-1.06895 1.3545,-1.3545 0.20192,-0.10096 0.51762,0.15963 0.67725,0 0.15963,-0.15963 -0.10096,-0.47533 0,-0.67725 0.14278,-0.28555 0.50016,-0.41161 0.67725,-0.67725 0.28001,-0.42001 0.39724,-0.93448 0.67725,-1.35449 0.17709,-0.26564 0.57629,-0.37438 0.67725,-0.67725 0.14277,-0.42833 -0.14278,-0.92617 0,-1.3545 0.10095,-0.30287 0.53447,-0.39169 0.67725,-0.67725 0.10095,-0.20191 -0.10096,-0.47533 0,-0.67725 0.6166,-1.23321 0.51374,-0.39699 1.35449,-0.67724 0.95778,-0.31926 1.71315,-1.18853 2.709,-1.3545 0.89071,-0.14845 1.80599,0 2.70899,0 1.3545,0 2.709,0 4.06349,0 0.67725,0 1.3545,0 2.03175,0 0.4515,0 1.3545,-0.4515 1.3545,0 0,0.0914 -4.45947,-0.0938 -4.74074,0 -0.60575,0.20191 -0.82322,1.00031 -1.3545,1.3545 -0.42001,0.28 -0.93449,0.39724 -1.3545,0.67724 -0.26564,0.1771 -0.4515,0.4515 -0.67725,0.67725 -0.22575,0.22575 -0.53447,0.3917 -0.67725,0.67725 -0.10095,0.20192 0.15963,0.51762 0,0.67725 -0.15962,0.15963 -0.45149,0 -0.67724,0 -0.22575,0.22575 -0.50016,0.41161 -0.67725,0.67725 -0.28001,0.42001 -0.39724,0.93448 -0.67725,1.3545 -0.17709,0.26563 -0.57629,0.37437 -0.67725,0.67724 -0.14278,0.42833 0.1095,0.91648 0,1.3545 -0.12243,0.48972 -0.55482,0.86478 -0.67725,1.3545 -0.1095,0.43802 0,0.903 0,1.3545 0,0.90299 0,1.80599 0,2.70899 0,0.22575 0.0714,0.46309 0,0.67725 -0.41001,1.23004 -0.57962,1.25687 -1.3545,2.03175 -0.22575,0.22575 -0.53447,0.39169 -0.67724,0.67724 -0.10096,0.20192 0.15962,0.51762 0,0.67725 -0.35695,0.35694 -0.93449,0.39724 -1.3545,0.67725 -0.26564,0.17709 -0.41161,0.50016 -0.67725,0.67725 -0.42001,0.28001 -0.903,0.4515 -1.3545,0.67725 -0.4515,0.22575 -0.87561,0.51762 -1.3545,0.67725 -0.21416,0.0714 -0.47533,-0.10096 -0.67724,0 -0.28556,0.14277 -0.37438,0.57629 -0.67725,0.67725 -0.42833,0.14277 -0.92617,-0.14278 -1.3545,0 -0.30288,0.10095 -0.36752,0.59981 -0.67725,0.67725 -0.87604,0.219 -1.806,0 -2.70899,0 -1.58025,0 -3.1605,0 -4.74074,0 -2.87217,0 -8.41078,0.36212 -10.83598,-0.67725 -0.58689,-0.25153 -0.82322,-1.00032 -1.3545,-1.3545 -0.37567,-0.25045 -1.03524,0.31926 -1.3545,0 -0.31926,-0.31926 0.20192,-0.95067 0,-1.3545 -0.14277,-0.28555 -0.53447,-0.39169 -0.67725,-0.67725 -0.99432,-1.98864 -1.71467,-4.10659 -2.70899,-6.09523 -1.40927,-2.81855 0.0468,0.724 -1.3545,-0.67725 -0.15963,-0.15963 0.0714,-0.46309 0,-0.67725 -0.15963,-0.47889 -0.32031,-0.99756 -0.67725,-1.3545 -0.15963,-0.15963 -0.4515,0 -0.67725,0 -2.03174,0 -4.06349,0 -6.09523,0 -1.806,0 -3.612,0 -5.41799,0 -0.4515,0 -0.92617,-0.14278 -1.3545,0 -0.95777,0.31926 -1.77162,0.97955 -2.709,1.3545 -1.98503,0.79401 -4.11019,1.23773 -6.09523,2.03174 -0.46869,0.18748 -0.86478,0.55482 -1.3545,0.67725 -3.08303,0 -0.0387,-0.31926 -2.03175,0.67725 -0.40383,0.20192 -0.92616,-0.14278 -1.35449,0 -4.05904,1.35301 1.70104,-0.17327 -2.709,2.03175 -0.40383,0.20191 -0.91648,-0.10951 -1.3545,0 -0.97943,0.24486 -1.72955,1.10963 -2.70899,1.35449 -0.43802,0.10951 -0.903,0 -1.3545,0 -0.4515,0.22575 -0.87561,0.51762 -1.3545,0.67725 -0.40382,0.13461 -3.40732,0 -4.06349,0 -2.70899,0 -5.41799,0 -8.12698,0 -0.16425,0 -2.00997,0.0218 -2.03175,0 -0.15963,-0.15963 0.0371,-0.45457 0,-0.67725 -0.18924,-1.13543 -0.31324,-2.29421 -0.67725,-3.38624 -0.10095,-0.30287 -0.53447,-0.39169 -0.67724,-0.67725 -0.55358,-1.10715 -0.68398,-3.38961 -2.03175,-4.06349 -0.20192,-0.10096 -0.67725,0.22575 -0.67725,0 0,-0.22575 0.4515,0 0.67725,0 -0.903,-0.22575 -1.84478,-0.33156 -2.709,-0.67725 -0.29642,-0.11857 -0.36752,-0.59982 -0.67724,-0.67725 -0.80466,-0.20116 -2.41396,0 -3.38625,0 -2.03174,0 -4.06349,0 -6.09524,0 -1.12874,0 -2.25749,0 -3.38624,0 -0.4515,0 -0.92617,-0.14277 -1.3545,0 -1.15331,0.38444 -2.25749,0.903 -3.38624,1.3545 z"
       id="path3035-6"
       inkscape:connector-curvature="0" />
    <path
       style="fill:none;stroke:#000000;stroke-width:1px;stroke-linecap:butt;stroke-linejoin:miter;stroke-opacity:1"
       d="m 345.78304,700.17967 c 0,-1.58025 0,-3.16049 0,-4.74074 0,-0.67725 0,-1.3545 0,-2.03175 0,-0.67724 -0.21416,-1.38925 0,-2.03174 0.25739,-0.77218 0.77895,-1.4562 1.3545,-2.03175 0.82488,-0.82488 1.51311,-0.31724 2.03174,-1.3545 0.10096,-0.20191 -0.20191,-0.57629 0,-0.67724 0.5418,-0.2709 1.48995,0.2709 2.03175,0 0.57111,-0.28556 0.74875,-1.15259 1.3545,-1.3545 0.31002,-0.10334 3.00823,0 3.38624,0 0.4515,0 0.92617,0.14278 1.3545,0 0.30287,-0.10096 0.36752,-0.59982 0.67725,-0.67725 0.60313,-0.15078 3.84137,0 4.74074,0 2.03174,0 4.06349,0 6.09524,0 1.80599,0 -0.22575,0.22575 0.67724,-0.67725 0.15963,-0.15963 0.67725,-0.22575 0.67725,0 0,0.22575 -0.4515,0 -0.67725,0 -0.4515,0 -0.90299,0 -1.35449,0 -1.3545,0 -2.709,0 -4.0635,0 -0.22574,0 -0.45149,0 -0.67724,0 -0.22575,0 -0.51762,0.15963 -0.67725,0 -0.15963,-0.15963 0,-0.4515 0,-0.67725 0,-1.35449 0,-2.70899 0,-4.06349 0,-2.03175 0,-4.06349 0,-6.09524 0,-0.22575 0,-0.4515 0,-0.67725 0,-0.22575 -0.15963,-0.51762 0,-0.67724 0.15963,-0.15963 0.4515,0 0.67725,0 0.22575,0 0.4515,0 0.67724,0 1.806,0 3.612,0 5.41799,0 0.4515,0 0.903,0 1.3545,0 0.22575,0 0.51762,-0.15963 0.67725,0 0.35694,0.35694 0.39724,0.93448 0.67725,1.35449 0.17709,0.26564 0.53447,0.3917 0.67725,0.67725 0.10043,0.20086 0,3.40844 0,4.06349 0,0.30501 0.10305,1.82564 0,2.03175 -1.40928,2.81855 0.0467,-0.724 -1.3545,0.67725 -0.15963,0.15963 0.15963,0.51762 0,0.67725 -0.15963,0.15963 -0.51762,-0.15963 -0.67725,0 -0.15963,0.15963 0.15963,0.51762 0,0.67725 -0.15963,0.15962 -0.4515,0 -0.67725,0 -0.22575,0 -0.4515,0 -0.67725,0 -1.37318,0 -3.73044,0.65493 -4.06349,-0.67725 -0.14948,-0.59791 0,-3.12615 0,-4.0635 0,-0.22575 0,-0.45149 0,-0.67724 0,-0.22575 -0.20191,-0.57629 0,-0.67725 0.40384,-0.20192 0.903,0 1.3545,0 0.4515,0 0.903,0 1.3545,0 1.35449,0 2.70899,0 4.06349,0 1.3545,0 2.70899,0 4.06349,0 0.22575,0 0.51762,-0.15963 0.67725,0 0.31926,0.31926 -0.14278,0.92616 0,1.35449 0.15963,0.47889 0.51762,0.87561 0.67725,1.3545 0.0714,0.21417 -0.10096,0.47533 0,0.67725 0.14277,0.28555 0.53447,0.3917 0.67725,0.67725 0.0969,0.19383 0,3.02445 0,3.38624 0,0.22575 0,0.4515 0,0.67725 0,0.22575 0.15963,0.51762 0,0.67725 -0.15963,0.15963 -0.51762,-0.15963 -0.67725,0 -0.15963,0.15963 0.15963,0.51762 0,0.67725 -0.15963,0.15963 -0.4515,0 -0.67725,0 -1.12875,0 -2.2575,0 -3.38624,0 -0.22575,0 -0.51762,-0.15963 -0.67725,0 -0.0996,0.0996 0.0797,2.03174 0,2.03174 -0.22575,0 0,-0.90299 0,-0.67724 0,2.14462 -0.4515,1.07231 0.67725,1.35449 0.69256,0.17315 1.33917,0.50411 2.03174,0.67725 0.21901,0.0548 0.51762,-0.15963 0.67725,0 0.15963,0.15963 -0.15963,0.51762 0,0.67725 0.15963,0.15963 0.4515,0 0.67725,0 0.70429,0 3.53076,0.13318 4.06349,0 1.61118,-0.40279 2.14784,-1.78019 3.38624,-2.70899 0.40384,-0.30288 0.88582,-0.48978 1.3545,-0.67725 0.66283,-0.26513 1.39323,-0.35799 2.03175,-0.67725 3.18006,-1.59003 0.85205,-1.01807 3.38624,-2.03175 0.66283,-0.26513 1.34533,-0.48113 2.03175,-0.67725 1.27333,-0.36381 2.92065,-0.49737 4.06349,-1.35449 0.51081,-0.38311 0.903,-0.903 1.3545,-1.3545 0.903,-0.4515 1.84328,-0.83507 2.70899,-1.3545 0.27376,-0.16426 0.37438,-0.57629 0.67725,-0.67725 0.42833,-0.14277 0.91648,0.10951 1.3545,0 0.48972,-0.12243 0.85951,-0.57825 1.35449,-0.67725 1.3282,-0.26563 2.72743,0.22268 4.0635,0 0.70417,-0.11736 1.33917,-0.5041 2.03174,-0.67724 0.43802,-0.10951 0.903,0 1.3545,0 0.67725,0 1.36765,-0.13282 2.03175,0 0.45826,0.0917 1.74498,0.78097 2.03174,1.35449 0.20192,0.40384 -0.20191,0.95067 0,1.3545 0.36401,0.72802 0.77895,1.4562 1.3545,2.03175 0.35694,0.35694 1.05162,0.27341 1.3545,0.67725 0.42833,0.5711 0.28125,1.43775 0.67725,2.03174 0.53127,0.79692 1.45708,1.26553 2.03174,2.03175 0.2709,0.3612 -0.224,0.96248 0,1.35449 0.80767,1.41342 1.90133,2.65008 2.709,4.0635 0.112,0.196 -0.10096,0.47533 0,0.67725 0.14277,0.28555 0.53447,0.39169 0.67724,0.67724 0.10096,0.20192 -0.15962,0.51762 0,0.67725 0.15963,0.15963 0.48942,-0.12522 0.67725,0 0.4515,0.4515 0.903,0.903 1.3545,1.3545 0,0.22575 -0.12522,0.48941 0,0.67725 0.70837,1.06255 2.13789,1.56678 2.709,2.70899 0.20191,0.40384 -0.16769,0.93529 0,1.3545 0.30229,0.75574 0.99048,1.30373 1.35449,2.03175 0.69874,1.39747 -2.13595,0.28652 1.3545,2.03174 1.3545,0.67725 1.01587,-0.33862 2.03175,0 0.47888,0.15963 0.86477,0.55482 1.35449,0.67725 0.43802,0.10951 0.903,0 1.3545,0 1.3545,0 2.709,0 4.06349,0 0.35415,0 2.53092,0.089 2.709,0 0.5711,-0.28555 0.82322,-1.00031 1.3545,-1.3545 0.42001,-0.28 0.99755,-0.3203 1.35449,-0.67724 0.15963,-0.15963 -0.20191,-0.5763 0,-0.67725 0.40384,-0.20192 0.92617,0.14277 1.3545,0 0.60575,-0.20192 0.74875,-1.15258 1.3545,-1.3545 0.42833,-0.14278 0.92616,0.14278 1.35449,0 0.60575,-0.20192 0.7834,-1.06895 1.3545,-1.3545 0.20192,-0.10096 0.51762,0.15963 0.67725,0 0.15963,-0.15963 -0.10096,-0.47533 0,-0.67725 0.14278,-0.28555 0.50016,-0.41161 0.67725,-0.67725 0.28001,-0.42001 0.39724,-0.93448 0.67725,-1.35449 0.17709,-0.26564 0.57629,-0.37438 0.67725,-0.67725 0.14277,-0.42833 -0.14278,-0.92617 0,-1.3545 0.10095,-0.30287 0.53447,-0.39169 0.67725,-0.67725 0.10095,-0.20191 -0.10096,-0.47533 0,-0.67725 0.6166,-1.23321 0.51374,-0.39699 1.35449,-0.67724 0.95778,-0.31926 1.71315,-1.18853 2.709,-1.3545 0.89071,-0.14845 1.80599,0 2.70899,0 1.3545,0 2.709,0 4.06349,0 0.67725,0 1.3545,0 2.03175,0 0.4515,0 1.3545,-0.4515 1.3545,0 0,0.0914 -4.45947,-0.0938 -4.74074,0 -0.60575,0.20191 -0.82322,1.00031 -1.3545,1.3545 -0.42001,0.28 -0.93449,0.39724 -1.3545,0.67724 -0.26564,0.1771 -0.4515,0.4515 -0.67725,0.67725 -0.22575,0.22575 -0.53447,0.3917 -0.67725,0.67725 -0.10095,0.20192 0.15963,0.51762 0,0.67725 -0.15962,0.15963 -0.45149,0 -0.67724,0 -0.22575,0.22575 -0.50016,0.41161 -0.67725,0.67725 -0.28001,0.42001 -0.39724,0.93448 -0.67725,1.3545 -0.17709,0.26563 -0.57629,0.37437 -0.67725,0.67724 -0.14278,0.42833 0.1095,0.91648 0,1.3545 -0.12243,0.48972 -0.55482,0.86478 -0.67725,1.3545 -0.1095,0.43802 0,0.903 0,1.3545 0,0.90299 0,1.80599 0,2.70899 0,0.22575 0.0714,0.46309 0,0.67725 -0.41001,1.23004 -0.57962,1.25687 -1.3545,2.03175 -0.22575,0.22575 -0.53447,0.39169 -0.67724,0.67724 -0.10096,0.20192 0.15962,0.51762 0,0.67725 -0.35695,0.35694 -0.93449,0.39724 -1.3545,0.67725 -0.26564,0.17709 -0.41161,0.50016 -0.67725,0.67725 -0.42001,0.28001 -0.903,0.4515 -1.3545,0.67725 -0.4515,0.22575 -0.87561,0.51762 -1.3545,0.67725 -0.21416,0.0714 -0.47533,-0.10096 -0.67724,0 -0.28556,0.14277 -0.37438,0.57629 -0.67725,0.67725 -0.42833,0.14277 -0.92617,-0.14278 -1.3545,0 -0.30288,0.10095 -0.36752,0.59981 -0.67725,0.67725 -0.87604,0.219 -1.806,0 -2.70899,0 -1.58025,0 -3.1605,0 -4.74074,0 -2.87217,0 -8.41078,0.36212 -10.83598,-0.67725 -0.58689,-0.25153 -0.82322,-1.00032 -1.3545,-1.3545 -0.37567,-0.25045 -1.03524,0.31926 -1.3545,0 -0.31926,-0.31926 0.20192,-0.95067 0,-1.3545 -0.14277,-0.28555 -0.53447,-0.39169 -0.67725,-0.67725 -0.99432,-1.98864 -1.71467,-4.10659 -2.70899,-6.09523 -1.40927,-2.81855 0.0468,0.724 -1.3545,-0.67725 -0.15963,-0.15963 0.0714,-0.46309 0,-0.67725 -0.15963,-0.47889 -0.32031,-0.99756 -0.67725,-1.3545 -0.15963,-0.15963 -0.4515,0 -0.67725,0 -2.03174,0 -4.06349,0 -6.09523,0 -1.806,0 -3.612,0 -5.41799,0 -0.4515,0 -0.92617,-0.14278 -1.3545,0 -0.95777,0.31926 -1.77162,0.97955 -2.709,1.3545 -1.98503,0.79401 -4.11019,1.23773 -6.09523,2.03174 -0.46869,0.18748 -0.86478,0.55482 -1.3545,0.67725 -3.08303,0 -0.0387,-0.31926 -2.03175,0.67725 -0.40383,0.20192 -0.92616,-0.14278 -1.35449,0 -4.05904,1.35301 1.70104,-0.17327 -2.709,2.03175 -0.40383,0.20191 -0.91648,-0.10951 -1.3545,0 -0.97943,0.24486 -1.72955,1.10963 -2.70899,1.35449 -0.43802,0.10951 -0.903,0 -1.3545,0 -0.4515,0.22575 -0.87561,0.51762 -1.3545,0.67725 -0.40382,0.13461 -3.40732,0 -4.06349,0 -2.70899,0 -5.41799,0 -8.12698,0 -0.16425,0 -2.00997,0.0218 -2.03175,0 -0.15963,-0.15963 0.0371,-0.45457 0,-0.67725 -0.18924,-1.13543 -0.31324,-2.29421 -0.67725,-3.38624 -0.10095,-0.30287 -0.53447,-0.39169 -0.67724,-0.67725 -0.55358,-1.10715 -0.68398,-3.38961 -2.03175,-4.06349 -0.20192,-0.10096 -0.67725,0.22575 -0.67725,0 0,-0.22575 0.4515,0 0.67725,0 -0.903,-0.22575 -1.84478,-0.33156 -2.709,-0.67725 -0.29642,-0.11857 -0.36752,-0.59982 -0.67724,-0.67725 -0.80466,-0.20116 -2.41396,0 -3.38625,0 -2.03174,0 -4.06349,0 -6.09524,0 -1.12874,0 -2.25749,0 -3.38624,0 -0.4515,0 -0.92617,-0.14277 -1.3545,0 -1.15331,0.38444 -2.25749,0.903 -3.38624,1.3545 z"
       id="path3035-7"
       inkscape:connector-curvature="0" />
    <path
       style="fill:none;stroke:#000000;stroke-width:1px;stroke-linecap:butt;stroke-linejoin:miter;stroke-opacity:1"
       d="m 249.22751,388.65849 c -11.63373,14.54217 -6.74748,9.45647 -13.54497,16.25397 -1.806,1.80599 -4.27578,3.13356 -5.41799,5.41799 -0.80767,1.61533 0.5711,3.70467 0,5.41798 -1.27704,3.8311 -4.00004,7.05478 -5.41799,10.83598 -2.69671,7.19122 -4.08039,20.40194 -5.41799,27.08995 -0.73017,3.65086 -2.18246,7.15024 -2.709,10.83598 -1.00954,7.06683 0.78852,14.57527 0,21.67196 -0.60657,5.45912 -2.2117,10.7838 -2.70899,16.25396 -0.40877,4.49645 0,9.02999 0,13.54498 0,9.02998 0,18.05996 0,27.08994 0,26.18695 0,52.3739 0,78.56085 0,18.96296 0,37.92593 0,56.88889 0,7.22398 0,14.44797 0,21.67196 0,3.61199 -0.70837,7.29412 0,10.83597 2.1775,10.88751 6.93846,20.99026 13.54497,29.79895 5.71458,7.61943 0.20735,-5.0033 8.12699,10.83597 1.27703,2.55407 1.58414,5.50234 2.70899,8.12699 12.33212,24.66423 0.15493,-0.96717 8.12699,18.96296 0.74989,1.87475 2.21927,3.45911 2.70899,5.41799 0.43802,1.75207 -0.57111,3.70467 0,5.41799 0.40383,1.2115 1.94278,1.68737 2.70899,2.70899 14.16253,18.88337 -2.22261,1.04204 10.83598,10.83598 2.04325,1.53244 7.22399,3.612 5.41799,5.41799 -1.80599,1.806 -3.49586,-3.73612 -5.41799,-5.41799 -5.30765,-4.64419 -10.38581,-9.63287 -16.25396,-13.54497 -2.37595,-1.58396 -5.64769,-1.29226 -8.12699,-2.709 -3.61199,-2.70899 -7.22398,-5.41798 -10.83598,-8.12698 -0.903,0 -1.90133,0.40383 -2.70899,0 -11.27419,-5.63709 2.89601,0.18702 -2.709,-5.41799 -0.63851,-0.63851 -2.07048,0.63852 -2.70899,0 -14.19096,-14.19096 5.87951,-2.97388 -16.25397,-16.25397 -1.99191,-1.19514 -6.13508,1.19515 -8.12698,0 -3.61773,-2.17063 -22.47791,-17.37709 -24.38096,-18.96296 -0.98104,-0.81754 -1.64644,-2.00062 -2.70899,-2.70899 -1.68005,-1.12004 -3.99022,-1.28123 -5.41799,-2.709 -0.63852,-0.63851 0.63852,-2.07048 0,-2.70899 -0.63852,-0.63852 -2.07048,-0.63852 -2.70899,0 -0.63852,0.63851 0,1.80599 0,2.70899 0,1.806 -0.80767,3.80266 0,5.41799 1.14221,2.28443 3.88555,3.37474 5.41799,5.41799 1.21149,1.61533 1.67014,3.68657 2.70899,5.41799 1.6751,2.79183 3.46451,5.52234 5.41799,8.12698 4.79714,6.39619 2.15091,-2.23233 5.41799,10.83598 0.57336,2.29345 0,8.02332 0,10.83598 0,1.806 0,7.22399 0,5.41799 0,-1.51204 0.41336,-12.30489 0,-13.54497 -0.40383,-1.2115 -1.806,-1.806 -2.709,-2.709 -0.90299,-0.903 -1.56678,-2.13789 -2.70899,-2.70899 -0.80767,-0.40384 -2.07048,0.63851 -2.709,0 -0.63851,-0.63852 0.40384,-1.90133 0,-2.709 -0.5711,-1.14221 -1.80599,-1.80599 -2.70899,-2.70899 -1.806,-2.709 -3.96195,-5.2149 -5.41799,-8.12699 -0.40383,-0.80766 0.63852,-2.07047 0,-2.70899 -0.63852,-0.63852 -2.07048,0.63852 -2.70899,0 -0.63852,-0.63852 0.28555,-1.85234 0,-2.709 -0.65991,-1.9797 -2.93839,-6.88718 -5.41799,-8.12698 -0.80767,-0.40383 -1.90133,0.40383 -2.709,0 -1.14221,-0.57111 -1.56678,-2.13789 -2.70899,-2.70899 -0.80767,-0.40384 -2.07048,0.63851 -2.709,0 -0.63851,-0.63852 0.63852,-2.07048 0,-2.709 -0.63851,-0.63851 -1.80599,0 -2.70899,0 -5.41799,0 -10.83598,0 -16.25397,0 -1.806,0 -3.66592,-0.43802 -5.41799,0 -7.22399,1.806 -4.51499,2.709 -8.12698,8.12699 -0.70837,1.06255 -1.806,1.80599 -2.709,2.70899 -3.88974,3.88974 -10.1422,9.2915 -13.544972,13.54497 -2.033886,2.54236 -2.875631,6.0931 -5.417989,8.12699 -2.229795,1.78383 -5.572919,1.43196 -8.126984,2.70899 -2.284425,1.14221 -3.133565,4.27578 -5.41799,5.41799 -0.807666,0.40383 -2.070478,-0.63851 -2.708994,0 -0.638516,0.63852 0.638516,2.07048 0,2.709 -0.638516,0.63851 -2.070479,0.63851 -2.708995,0 -0.638516,-0.63852 0,-1.806 0,-2.709 0,-1.806 -0.571106,-3.70467 0,-5.41799 0.403833,-1.2115 2.305162,-1.49749 2.708995,-2.70899 0.571106,-1.71332 -0.571106,-3.70467 0,-5.41799 0.807666,-2.423 4.001249,-3.29288 5.417989,-5.41799 1.120032,-1.68005 1.805997,-3.61199 2.708995,-5.41799 1.805996,-3.61199 3.611993,-7.22399 5.417989,-10.83598 2.984573,-5.96915 2.708995,-5.1317 2.708995,-10.83598 0,-0.903 0,-1.80599 0,-2.70899 0,-0.903 -0.902998,-2.709 0,-2.709 0.902998,0 0.807666,2.30516 0,2.709 -1.615332,0.80766 -3.802657,-0.80767 -5.417989,0 -2.284425,1.14221 -3.227897,4.10393 -5.41799,5.41799 -2.448598,1.46916 -5.572919,1.43196 -8.126984,2.70899 -2.284425,1.14221 -3.133564,4.27578 -5.417989,5.41799 -0.807666,0.40383 -2.070479,-0.63852 -2.708995,0 -0.638516,0.63852 0.638516,2.07048 0,2.709 -0.638516,0.63851 -1.901328,-0.40384 -2.708995,0 -1.254477,0.62723 -9.242699,9.2427 -10.835978,10.83597 -0.902998,0.903 -1.566782,2.13789 -2.708995,2.709 -0.807666,0.40383 -2.070478,-0.63852 -2.708995,0 -0.638516,0.63851 0.638517,2.07048 0,2.70899 -0.638516,0.63852 -1.901328,-0.40383 -2.708994,0 -1.142213,0.57111 -1.805997,1.806 -2.708995,2.709 -1.805996,0 -3.704671,-0.57111 -5.417989,0 -1.2115,0.40383 -1.566782,2.13789 -2.708995,2.70899 -0.807666,0.40384 -1.901328,-0.40383 -2.708995,0 -1.142212,0.57111 -1.805996,3.612 -2.708994,2.709 -1.277033,-1.27703 0,-3.612 0,-5.41799 0,-16.87335 -0.807666,6.74732 2.708994,-10.83598 0.531278,-2.65639 -1.006095,-5.61175 0,-8.12698 0.948556,-2.37139 4.103934,-3.2279 5.41799,-5.41799 1.469158,-2.4486 1.648477,-5.47569 2.708994,-8.12699 0.7499,-1.87475 1.805997,-3.61199 2.708995,-5.41799 0.902998,-1.80599 1.281229,-3.99022 2.708995,-5.41799 1.427765,-1.42776 3.990224,-1.28123 5.417989,-2.70899 1.427766,-1.42777 1.281229,-3.99023 2.708995,-5.41799 1.427765,-1.42777 3.990224,-1.28123 5.417989,-2.709 1.427766,-1.42776 1.497496,-3.80265 2.708995,-5.41798 1.532439,-2.04326 3.611993,-3.612 5.417989,-5.41799 0.902998,-0.903 1.64644,-2.00063 2.708995,-2.709 1.680047,-1.12003 3.990224,-1.28123 5.417989,-2.70899 1.427766,-1.42777 1.588963,-3.73795 2.708995,-5.41799 7.788289,-11.68244 -4.537496,14.05273 5.417989,-10.83598 2.214772,-5.53693 5.459004,-10.91801 8.126984,-16.25397 9.820893,-19.64179 -2.855531,4.2833 5.41799,-8.12698 1.120031,-1.68005 1.588963,-3.73795 2.708994,-5.41799 5.167882,-7.75182 0.507543,4.14913 5.417992,-8.12699 1.06052,-2.65129 1.80599,-5.41799 2.70899,-8.12698 0.903,-2.709 2.23955,-5.31031 2.709,-8.12698 0.44535,-2.67214 -0.53128,-5.4706 0,-8.12699 0.39599,-1.97995 1.80599,-3.61199 2.70899,-5.41799 0.903,-2.70899 2.23955,-5.3103 2.709,-8.12698 0.44535,-2.67214 0,-5.41799 0,-8.12699 0,-2.70899 0,-5.41799 0,-8.12698 0,-28.30581 -1.14222,4.14428 2.70899,-18.96296 0.44536,-2.67214 0,-5.41799 0,-8.12699 0,-11.73897 0,-23.47795 0,-35.21693 0,-26.18695 0,-52.37389 0,-78.56084 0,-17.15697 0,-34.31394 0,-51.4709 0,-0.65701 0.0871,-8.03987 0,-8.12699 -0.63852,-0.63851 -2.42344,0.85666 -2.70899,0 -3.78796,-11.36386 -5.2074,-35.00633 -16.253972,-46.05291 -0.638516,-0.63851 -1.901328,0.40384 -2.708994,0 -1.142213,-0.5711 -1.566783,-2.13788 -2.708995,-2.70899 -0.807666,-0.40383 -1.805997,0 -2.708995,0 -0.902998,0 -1.805996,0 -2.708994,0"
       id="path3071"
       inkscape:connector-curvature="0" />
    <path
       style="fill:none;stroke:#000000;stroke-width:1px;stroke-linecap:butt;stroke-linejoin:miter;stroke-opacity:1"
       d="m 292.57142,215.28283 c 5.4455,27.22749 -1.38738,-0.75947 10.83598,29.79894 1.38275,3.45686 0.86179,7.60337 2.709,10.83598 21.05336,36.84338 -6.49271,-29.50807 16.25397,21.67196 1.51211,3.40226 1.80599,7.22398 2.70899,10.83598 0.903,3.61199 1.90133,7.20148 2.709,10.83597 0.99883,4.49476 1.59226,9.07805 2.70899,13.54498 4.79947,19.19787 -0.0645,1.69856 5.41799,10.83598 2.0777,3.46284 4.00004,7.05477 5.41799,10.83597 1.30729,3.48611 1.97882,7.18513 2.70899,10.83598 1.07722,5.38606 2.16245,10.78851 2.709,16.25397 0.3594,3.59407 0,7.22399 0,10.83598 0,9.02998 0,18.05996 0,27.08995 0,16.25396 0,32.50793 0,48.7619 0,9.93298 0.76182,19.89522 0,29.79894 -2.08291,27.07774 -1.20099,6.31197 -8.12699,27.08995 -1.45604,4.36812 -1.38592,9.13475 -2.70899,13.54497 -1.39731,4.65771 -4.16503,8.84637 -5.41799,13.54498 -4.41796,16.56733 -3.36318,33.16212 -16.25397,46.0529 -0.903,0.903 -1.80599,1.806 -2.70899,2.709 -0.903,0.903 -2.13789,1.56678 -2.709,2.70899 -0.40383,0.80767 0.903,2.709 0,2.709 -0.903,0 -0.50089,-1.95766 0,-2.709 1.41674,-2.12511 4.10394,-3.22789 5.41799,-5.41799 1.46916,-2.44859 1.64848,-5.47568 2.709,-8.12698 2.11042,-5.27605 5.41799,-7.76053 5.41799,-13.54497 0,-1.806 -0.57111,-3.70467 0,-5.41799 0.40383,-1.2115 1.80599,-1.806 2.70899,-2.709 0.903,-0.90299 1.64644,-2.00062 2.709,-2.70899 1.68004,-1.12003 3.80265,-1.4975 5.41798,-2.709 4.95364,-3.71522 7.10028,-9.2248 13.54498,-10.83597 1.75207,-0.43802 3.80266,0.80766 5.41799,0 0.32739,-0.1637 10.20038,-10.35929 10.83598,-10.83598 1.61533,-1.2115 3.50244,-2.07048 5.41799,-2.709 0.85665,-0.28555 2.07047,0.63852 2.70899,0 0.63852,-0.63851 -0.63852,-2.07048 0,-2.70899 0.55382,-0.55382 7.05289,0.53704 8.12698,0 1.14222,-0.57111 1.56679,-2.13789 2.709,-2.709 0.80766,-0.40383 1.90133,0.40384 2.70899,0 1.14222,-0.5711 1.56679,-2.13789 2.709,-2.70899 0.80766,-0.40383 1.90133,0.40383 2.70899,0 1.14222,-0.57111 1.56679,-2.13789 2.709,-2.709 0.80766,-0.40383 2.30516,-0.80766 2.70899,0 0.80767,1.61534 0,3.612 0,5.41799 0,2.709 0,5.41799 0,8.12699 0,0.903 0.40384,1.90133 0,2.70899 -1.14221,2.28443 -4.00125,3.29288 -5.41799,5.41799 -10.07332,15.10998 3.15546,-3.82516 -2.70899,10.83598 -1.20918,3.02294 -4.13547,5.13443 -5.41799,8.12698 -1.46662,3.42212 -1.04395,7.50589 -2.709,10.83598 -12.48842,24.97685 1.65245,-11.43187 -10.83597,13.54498 -0.40384,0.80766 0.40383,1.90132 0,2.70899 -0.57111,1.14221 -2.13789,1.56678 -2.709,2.70899 -0.40383,0.80767 0.40383,1.90133 0,2.709 -1.33286,2.66573 -9.50311,8.17025 -10.83598,10.83598 -0.40383,0.80766 0.63852,2.07048 0,2.70899 -0.63851,0.63852 -2.07048,-0.63851 -2.70899,0 -0.63852,0.63852 0.63851,2.07048 0,2.709 -0.63852,0.63851 -2.07048,-0.63852 -2.709,0 -0.63851,0.63851 0.63852,2.07048 0,2.70899 -0.63851,0.63852 -2.07048,-0.63851 -2.70899,0 -0.63852,0.63852 0,3.612 0,2.709 0,-1.806 -1.00179,-3.91531 0,-5.41799 2.83348,-4.25022 7.22398,-7.22399 10.83598,-10.83598 3.61199,-3.61199 7.64495,-6.8472 10.83598,-10.83598 2.03388,-2.54236 3.4645,-5.52234 5.41798,-8.12698 0.76622,-1.02163 2.30517,-1.4975 2.709,-2.709 0.57111,-1.71332 -0.80767,-3.80266 0,-5.41799 1.14221,-2.28442 3.88555,-3.37474 5.41799,-5.41799 1.2115,-1.61533 1.09366,-4.20649 2.70899,-5.41799 2.28443,-1.71332 5.57292,-1.43196 8.12699,-2.70899 1.14221,-0.57111 1.64644,-2.00063 2.70899,-2.709 21.67196,-14.44797 -9.93298,9.93298 8.12699,-8.12698 2.3022,-2.3022 5.58462,-3.3841 8.12698,-5.41799 1.99439,-1.59551 3.61199,-3.61199 5.41799,-5.41799 0.903,-0.903 1.56678,-2.13789 2.70899,-2.70899 0.80767,-0.40384 2.07048,0.63851 2.709,0 0.63852,-0.63852 -0.63852,-2.07048 0,-2.709 5.60501,-5.605 -0.21911,8.56519 5.41799,-2.70899 0.40383,-0.80767 -0.63852,-2.07048 0,-2.709 1.27703,-1.27703 3.80266,0.80767 5.41799,0 1.14221,-0.5711 1.56678,-2.13789 2.70899,-2.70899 0.80767,-0.40383 2.709,-0.903 2.709,0 0,0.903 -3.612,0 -2.709,0 2.709,0 5.41799,0 8.12699,0 0.90299,0 1.80599,0 2.70899,0 0.903,0 1.90133,-0.40383 2.709,0 1.14221,0.5711 1.56678,2.13789 2.70899,2.70899 0.80767,0.40384 1.90133,-0.40383 2.70899,0 2.28443,1.14222 3.13357,4.27578 5.41799,5.41799 0.80767,0.40384 1.85234,-0.28555 2.709,0 9.82089,3.27363 1.92798,1.28532 8.12698,5.41799 1.68005,1.12003 3.612,1.806 5.41799,2.709 1.806,0.90299 4.29796,1.02894 5.41799,2.70899 1.00179,1.50268 -0.5711,3.70467 0,5.41799 0.40383,1.2115 1.806,1.806 2.709,2.70899 0.90299,0.903 1.80599,1.806 2.70899,2.709 2.709,2.70899 5.41799,5.41799 8.12699,8.12698 3.61199,3.612 7.22398,7.22399 10.83597,10.83598 0.903,0.903 1.806,1.806 2.709,2.709 0.903,0.903 1.56678,2.13789 2.70899,2.70899 1.61534,0.80767 4.14096,-1.27703 5.41799,0 0.63852,0.63852 -0.63851,2.07048 0,2.709 0.63852,0.63851 2.709,-0.903 2.709,0 0,0.90299 -2.709,0.90299 -2.709,0 0,-1.27704 1.806,-1.806 2.709,-2.709 -1.806,-3.61199 -3.34029,-7.37314 -5.41799,-10.83598 -0.65703,-1.09504 -1.806,-1.80599 -2.709,-2.70899 -1.80599,-1.806 -3.61199,-3.61199 -5.41799,-5.41799 -0.90299,-0.903 -2.13788,-1.56678 -2.70899,-2.709 -0.40383,-0.80766 0.63852,-2.07047 0,-2.70899 -0.63852,-0.63852 -2.07048,0.63852 -2.709,0 -0.63851,-0.63852 0.28556,-1.85234 0,-2.709 -1.53775,-4.61325 -3.24328,-9.19555 -5.41798,-13.54497 -6.19901,-12.398 1.1228,11.49539 -5.41799,-8.12698 -0.28556,-0.85666 0.63851,-2.07048 0,-2.709 -0.63852,-0.63851 -1.806,0 -2.709,0 -2.70899,-2.70899 -5.73372,-5.1354 -8.12698,-8.12698 -1.26137,-1.5767 -1.09367,-4.20649 -2.709,-5.41799 -2.28442,-1.71332 -5.57292,-1.43196 -8.12698,-2.709 -1.14221,-0.5711 -1.56678,-2.13788 -2.709,-2.70899 -2.16719,-1.0836 -5.95978,1.0836 -8.12698,0 -1.14221,-0.57111 -1.56678,-2.13789 -2.709,-2.70899 -0.80766,-0.40384 -1.90132,0.40383 -2.70899,0 -1.14221,-0.57111 -1.56678,-2.13789 -2.70899,-2.709 -1.0741,-0.53705 -7.57317,0.55382 -8.12699,0 -0.63851,-0.63852 -0.40383,-1.90133 0,-2.70899 0.57111,-1.14222 1.47009,-2.39927 2.709,-2.709 2.62811,-0.65703 5.41799,0 8.12698,0 5.41799,0 10.83598,0 16.25397,0 9.02998,0 18.05996,0 27.08995,0 3.61199,0 7.22398,0 10.83597,0 2.709,0 5.4706,-0.53128 8.12699,0 1.97995,0.39599 3.61199,1.806 5.41799,2.709 1.80599,0.90299 3.73794,1.58896 5.41799,2.70899 1.06255,0.70837 1.80599,1.806 2.70899,2.709 0.903,0.90299 2.13789,1.56678 2.709,2.70899 0.40383,0.80767 -0.40384,1.90133 0,2.70899 0.5711,1.14222 1.80599,1.806 2.70899,2.709 0.903,0.903 1.806,1.806 2.709,2.70899 2.11595,2.11596 5.78939,6.56859 8.12698,8.12699 16.44649,10.96433 -8.48222,-7.79833 13.54497,5.41799 2.19009,1.31405 3.13357,4.27577 5.41799,5.41799 1.61533,0.80766 3.70467,-0.57111 5.41799,0 1.2115,0.40383 1.56678,2.13789 2.709,2.70899 0.80766,0.40383 2.07047,-0.63851 2.70899,0 0.63852,0.63852 -0.63852,2.07048 0,2.709 0.65187,0.65186 10.18411,-0.65187 10.83598,0 5.60501,5.605 -8.56519,-0.21911 2.70899,5.41799 0.80767,0.40383 2.709,-0.903 2.709,0 0,0.90299 -1.87058,0.33536 -2.709,0 -3.74949,-1.4998 -7.30584,-3.45681 -10.83597,-5.41799 -4.60274,-2.55708 -8.70537,-6.05287 -13.54498,-8.12699 -1.65997,-0.71141 -3.91531,1.00179 -5.41799,0 -1.68004,-1.12003 -1.28123,-3.99022 -2.70899,-5.41799 -0.63852,-0.63851 -1.90133,0.40384 -2.709,0 -1.14221,-0.5711 -1.80599,-1.80599 -2.70899,-2.70899 -3.61199,-3.61199 -7.22399,-7.22399 -10.83598,-10.83598 -1.806,-1.806 -3.37474,-3.88555 -5.41799,-5.41799 -1.61533,-1.2115 -3.73794,-1.58896 -5.41799,-2.70899 -1.06255,-0.70837 -1.56678,-2.13789 -2.70899,-2.709 -0.80767,-0.40383 -1.90133,0.40383 -2.709,0 -1.14221,-0.57111 -1.56678,-2.13789 -2.70899,-2.70899 -0.80767,-0.40384 -1.90133,0.40383 -2.709,0 -11.27418,-5.6371 2.89601,0.18701 -2.70899,-5.41799 -0.63852,-0.63852 -2.07048,0.63851 -2.709,0 -2.3022,-2.30221 -3.4645,-5.52234 -5.41799,-8.12699 -1.53244,-2.04325 -4.00125,-3.29288 -5.41799,-5.41799 -1.12003,-1.68004 -1.49749,-3.80265 -2.70899,-5.41799 -1.53244,-2.04325 -3.61199,-3.61199 -5.41799,-5.41799 -0.903,-0.90299 -1.56678,-2.13788 -2.70899,-2.70899 -1.61534,-0.80767 -3.80266,0.80767 -5.41799,0 -1.14222,-0.57111 -1.806,-1.806 -2.709,-2.70899 -2.70899,-2.709 -5.0621,-5.82833 -8.12698,-8.12699 -0.7224,-0.5418 -1.90133,0.40383 -2.709,0 -1.14221,-0.5711 -1.56678,-2.13789 -2.70899,-2.70899 -1.61533,-0.80767 -4.14096,1.27703 -5.41799,0 -0.63852,-0.63852 0,-1.806 0,-2.709 0,-1.80599 0,-3.61199 0,-5.41799 0,-9.02998 0,-18.05996 0,-27.08994 0,-28.89595 0,-57.79189 0,-86.68783 0,-6.32099 0,-12.64198 0,-18.96297 0,-5.41799 0,-10.83597 0,-16.25396 0,-0.903 -0.35571,-1.87901 0,-2.709 2.70899,-5.41799 5.41799,-10.83598 8.12698,-16.25397 0,-1.80599 -0.67073,-3.74116 0,-5.41799 1.20918,-3.02294 3.74289,-5.33515 5.41799,-8.12698 1.03885,-1.73142 1.806,-3.61199 2.709,-5.41799 0.903,-1.806 2.07048,-3.50244 2.70899,-5.41799 0.28555,-0.85666 -0.40383,-1.90133 0,-2.70899 1.14221,-2.28443 4.10394,-3.2279 5.41799,-5.41799 3.05776,-5.09627 9.56266,-18.01438 10.83598,-24.38096 0.35418,-1.77092 0,-3.61199 0,-5.41798 0,-0.903 -0.87604,-2.48999 0,-2.709 3.50415,-0.87604 7.22399,0 10.83598,0"
       id="path3073"
       inkscape:connector-curvature="0" />
    <path
       style="fill:none;stroke:#000000;stroke-width:1px;stroke-linecap:butt;stroke-linejoin:miter;stroke-opacity:1"
       d="m 658.28571,261.33574 c 6.74279,8.42849 11.0788,13.04668 16.25396,21.67196 1.03886,1.73142 1.58897,3.73794 2.709,5.41799 1.41674,2.12511 4.27577,3.13356 5.41799,5.41798 2.27603,4.55206 4.11604,14.62314 5.41799,18.96297 1.64106,5.4702 4.17908,10.6789 5.41799,16.25397 0.58766,2.64448 0,5.41798 0,8.12698 0,2.70899 0,5.41799 0,8.12698 0,11.73898 0,23.47796 0,35.21693 0,9.02999 0,18.05997 0,27.08995 0,2.709 0.58766,5.4825 0,8.12698 -1.23891,5.57507 -3.91531,10.74415 -5.41799,16.25397 -3.39552,12.45022 -4.02854,25.63058 -8.12699,37.92593 -1.53775,4.61325 -3.71055,8.9918 -5.41799,13.54497 -2.00528,5.34744 -2.86392,11.14584 -5.41799,16.25397 -1.45604,2.91208 -3.96194,5.2149 -5.41799,8.12698 -3.41333,6.82667 -2.00465,9.4273 -5.41798,16.25397 -0.57111,1.14221 -2.39927,1.47009 -2.709,2.709 -0.65703,2.62811 0.53128,5.47059 0,8.12698 -0.39599,1.97995 -1.806,3.61199 -2.70899,5.41799 -1.806,3.61199 -4.14096,7.00488 -5.41799,10.83598 -1.45604,4.36812 -1.09228,9.23373 -2.709,13.54497 -1.14319,3.04851 -4.20881,5.10405 -5.41799,8.12699 -0.67073,1.67682 0.57111,3.70467 0,5.41798 -0.40383,1.2115 -2.30516,1.4975 -2.70899,2.709 -0.57111,1.71332 0.43802,3.66592 0,5.41799 -0.48972,1.95888 -1.9591,3.54324 -2.709,5.41799 -3.52092,8.80231 -5.5345,18.01626 -8.12698,27.08995 -1.56895,5.49132 -4.03285,10.71342 -5.41799,16.25396 -0.21901,0.87604 0.40383,1.90133 0,2.709 -0.57111,1.14221 -2.70899,3.98602 -2.70899,2.70899 0,-4.40658 5.38765,-13.51464 8.12698,-16.25397 2.3022,-2.3022 5.52234,-3.4645 8.12698,-5.41798 4.95921,-3.71941 0.26639,-2.7978 8.12699,-5.41799 0.85666,-0.28556 1.85233,0.28555 2.70899,0 1.806,-0.903 3.61199,-1.806 5.41799,-2.709 0,-0.903 -0.63851,-2.07048 0,-2.70899 0.63852,-0.63852 1.806,0 2.709,0 0.90299,0 2.70899,-0.903 2.70899,0 0,0.90299 -2.70899,-0.903 -2.70899,0 0,5.49272 2.25284,10.78021 2.70899,16.25396 0.44994,5.39928 0,10.83598 0,16.25397 0,7.11111 0,3.72487 0,10.83598 0,1.806 -0.89602,6.98603 0,5.41799 4.00715,-7.01251 7.83638,-14.17296 10.83598,-21.67196 4.24207,-10.60517 6.59391,-21.90276 10.83598,-32.50793 1.07197,-2.67994 12.96441,-18.28565 13.54497,-18.96297 2.49325,-2.90878 5.41799,-5.41799 8.12699,-8.12698 0.90299,-0.903 2.00062,-1.64644 2.70899,-2.70899 1.12003,-1.68005 1.28123,-3.99023 2.70899,-5.41799 0.63852,-0.63852 2.07048,-0.63852 2.709,0 0.63852,0.63851 0,1.80599 0,2.70899 0,2.709 0,5.41799 0,8.12698 0,3.612 0,7.22399 0,10.83598 0,2.709 0.53128,5.4706 0,8.12699 -0.39599,1.97995 -2.21928,3.45911 -2.709,5.41799 -0.44933,1.79732 0,13.95568 0,16.25397 0,0.90299 0,1.80599 0,2.70899 0,0.903 0.63852,2.07048 0,2.70899 -0.63851,0.63852 -1.80599,0 -2.70899,0"
       id="path3075"
       inkscape:connector-curvature="0" />
    <path
       style="fill:none;stroke:#000000;stroke-width:1px;stroke-linecap:butt;stroke-linejoin:miter;stroke-opacity:1"
       d="m 102.9418,228.8278 c 0,-11.75694 0.51081,-16.91971 -2.709,-29.79894 -0.309723,-1.2389 -2.137886,-1.56678 -2.708992,-2.70899 -0.403833,-0.80767 0.638516,-2.07048 0,-2.709 -0.638516,-0.63851 -1.901328,0.40383 -2.708994,0 -4.709463,-2.35473 -8.835511,-5.77225 -13.544974,-8.12698 -0.807666,-0.40384 -1.805996,0 -2.708995,0 -0.902998,0 -1.805996,0 -2.708994,0 -4.514991,0 -9.029982,0 -13.544974,0 -4.385113,0 -18.355259,-1.16049 -21.671957,2.70899 -3.942166,4.5992 -5.417989,10.83598 -8.126984,16.25397 -0.902998,1.806 -2.219275,3.45911 -2.708995,5.41799 -0.438018,1.75207 0.354185,3.64706 0,5.41799 -0.560015,2.80008 -2.148979,5.3269 -2.708994,8.12698 -0.354185,1.77093 0,3.612 0,5.41799 0,5.41799 0,10.83598 0,16.25397 0,8.7503 -0.885463,18.70288 2.708994,27.08995 1.006096,2.34755 3.611993,3.61199 5.41799,5.41799 1.805996,1.80599 3.374737,3.88555 5.417989,5.41799 1.615332,1.21149 3.611993,1.80599 5.417989,2.70899 8.748083,4.37404 3.459112,2.21928 16.253968,5.41799 3.611993,0.903 7.141573,2.24719 10.835979,2.70899 3.584101,0.44802 7.223986,0 10.835979,0 4.514991,0 9.029982,0 13.544973,0 8.126982,0 16.253972,0 24.380952,0 0.903,0 2.07048,-0.63851 2.70899,0 0.63852,0.63852 0.63852,2.07048 0,2.709 -3.19276,3.19276 -13.70261,4.39745 -16.25396,5.41799 -1.1857,0.47428 -1.56679,2.13789 -2.709,2.70899 -2.55406,1.27704 -5.678384,1.23984 -8.126982,2.709 -5.031459,3.01887 -7.428724,9.2859 -10.835978,13.54497 -3.988779,4.98597 -9.457293,8.63976 -13.544974,13.54497 -2.084316,2.50118 -3.115786,5.82479 -5.417989,8.12699 -1.427766,1.42776 -3.990224,1.28123 -5.41799,2.70899 -1.427765,1.42777 -1.805996,3.612 -2.708994,5.41799 -0.902998,1.806 -2.219275,3.45911 -2.708995,5.41799 -0.438018,1.75208 0,3.61199 0,5.41799 0,2.709 0,5.41799 0,8.12699 0,1.80599 0.571106,3.70467 0,5.41798 -0.403833,1.2115 -2.305161,1.4975 -2.708995,2.709 -0.120332,0.361 -0.218562,13.41384 0,13.54497 3.948246,2.36895 9.117728,1.44407 13.544974,2.709 1.941476,0.5547 3.459111,2.21927 5.417989,2.70899 2.085966,0.52149 21.576452,0 21.671958,0 9.925186,0 17.504726,0.88546 27.089946,-2.70899 9.28798,-3.483 7.86898,-6.44999 13.54497,-13.54498 1.59552,-1.99439 3.612,-3.61199 5.41799,-5.41799 4.51499,-4.51499 9.02999,-9.02998 13.54498,-13.54497 1.80599,-1.806 3.88555,-3.37474 5.41799,-5.41799 1.21149,-1.61533 1.80599,-3.61199 2.70899,-5.41799 2.09239,-4.18478 4.74849,-8.85846 5.41799,-13.54497 0.63852,-4.46961 0,-9.02998 0,-13.54497 0,-1.806 0,-3.612 0,-5.41799 0,-0.903 -0.903,-2.709 0,-2.709 0.61582,0 -0.64859,10.18739 0,10.83598 1.42777,1.42777 3.61199,1.806 5.41799,2.709 1.806,0.90299 3.50244,2.07047 5.41799,2.70899 5.00409,1.66803 1.28432,-4.13366 8.12698,2.70899 0.63852,0.63852 -0.63851,2.07048 0,2.709 0.63852,0.63852 1.806,0 2.709,0 1.80599,0 3.61199,0 5.41799,0 8.12698,0 16.25396,0 24.38095,0 1.13957,0 15.44811,0.40293 16.25397,0 1.14221,-0.57111 2.13788,-1.56678 2.70899,-2.709 0.40383,-0.80766 -0.40383,-1.90132 0,-2.70899 0.57111,-1.14221 2.39927,-1.47009 2.709,-2.70899 0.65702,-2.62812 -0.44536,-5.45485 0,-8.12699 0.46944,-2.81668 2.01642,-5.35671 2.70899,-8.12698 0.8353,-3.34119 -0.69875,-10.05123 0,-13.54498 0.56002,-2.80007 1.92452,-5.38132 2.709,-8.12698 1.02283,-3.5799 1.97882,-7.18512 2.70899,-10.83598 0.17709,-0.88546 0,-1.806 0,-2.70899 0,-4.51499 0,-9.02999 0,-13.54498 0,-2.70899 0,-5.41799 0,-8.12698 0,-4.40654 0.63852,-4.49308 -5.41799,-8.12699 -2.4486,-1.46915 -5.47569,-1.64847 -8.12698,-2.70899 -1.87475,-0.7499 -3.45911,-2.21927 -5.41799,-2.70899 -1.75208,-0.43802 -3.612,0 -5.41799,0 -4.51499,0 -9.02998,0 -13.54498,0 -0.657,0 -8.03986,-0.0871 -8.12698,0 -1.42777,1.42776 -2.07048,3.50244 -2.70899,5.41798 -0.50947,1.52842 0,6.34689 0,8.12699 0,0.903 -0.80767,2.30516 0,2.70899 1.61533,0.80767 3.61199,0 5.41799,0 10.66666,0 5.5873,0 16.25396,0 2.709,0 5.41799,0 8.12699,0 0.903,0 1.95765,0.5009 2.70899,0 8.78176,-5.8545 3.94245,-3.45826 5.41799,-10.83598 0.56002,-2.80007 2.08954,-5.33945 2.709,-8.12698 1.19153,-5.36192 1.37681,-10.92524 2.70899,-16.25397 0.48972,-1.95888 1.9591,-3.54324 2.709,-5.41799 1.06051,-2.65129 2.01642,-5.35671 2.70899,-8.12698 0.57941,-2.31764 0,-10.8373 0,-13.54497 0,-8.12699 0,-16.25397 0,-24.38096 0,-0.90299 0.7224,-2.16719 0,-2.70899 -3.23066,-2.423 -6.95303,-4.30858 -10.83598,-5.41799 -2.60476,-0.74422 -5.41799,0 -8.12698,0 -9.02999,0 -18.05997,0 -27.08995,0 -7.22399,0 -14.44797,0 -21.67196,0 -2.70899,0 -5.45485,-0.44536 -8.12698,0 -2.81668,0.46945 -5.57292,1.43196 -8.12698,2.70899 -1.14222,0.57111 -1.64644,2.00063 -2.709,2.709 -1.68005,1.12003 -4.29796,1.02895 -5.41799,2.70899 -1.00179,1.50268 0.57111,3.70467 0,5.41799 -0.40383,1.2115 -2.13789,1.56679 -2.70899,2.709 -0.40384,0.80766 0,1.80599 0,2.70899 0,0.903 0,1.806 0,2.709 0,2.93964 -1.51101,9.42931 2.70899,10.83598 1.24008,0.41336 12.03293,0 13.54497,0 0.65701,0 8.03987,0.0871 8.12699,0 0.63851,-0.63852 0,-1.806 0,-2.709 0,-3.61199 0,-7.22398 0,-10.83598 0,-1.80599 1.00178,-3.91531 0,-5.41799 -1.12003,-1.68004 -3.61199,-1.80599 -5.41799,-2.70899 -1.806,-0.903 -3.45911,-2.21928 -5.41799,-2.709 -2.30593,-0.57648 -11.98983,0.77758 -13.54497,0 -1.14222,-0.5711 -1.4975,-2.30516 -2.709,-2.70899 -1.71332,-0.57111 -3.61199,0 -5.41799,0 -2.70899,0 -5.41799,0 -8.12698,0 -11.73898,0 -23.47796,0 -35.21693,0 -3.611995,0 -7.223988,0 -10.835981,0 -0.902998,0 -2.070479,-0.63852 -2.708995,0 -0.638516,0.63852 0.638516,2.07048 0,2.70899 -0.638516,0.63852 -2.070478,-0.63851 -2.708994,0 -0.638517,0.63852 0,1.806 0,2.709 0,2.70899 0,5.41799 0,8.12698 0,12.64198 0,25.28395 0,37.92593"
       id="path3077"
       inkscape:connector-curvature="0" />
    <path
       style="fill:none;stroke:#000000;stroke-width:1px;stroke-linecap:butt;stroke-linejoin:miter;stroke-opacity:1"
       d="m 352.16931,112.34103 c -1.32645,-14.590952 2.27602,-27.522914 -8.12699,-37.925924 -0.63851,-0.638516 -1.90133,0.403833 -2.70899,0 -2.91208,-1.456041 -5.52234,-3.464506 -8.12699,-5.417989 -1.02162,-0.76622 -1.56678,-2.137889 -2.70899,-2.708995 -0.80767,-0.403833 -1.806,0 -2.70899,0 -0.903,0 -1.806,0 -2.709,0 -5.41799,0 -10.83598,0 -16.25397,0 -3.85049,0 -10.68591,-1.103093 -13.54497,2.708995 -1.71332,2.284424 -1.806,5.417989 -2.709,8.126984 -0.90299,2.708994 -2.30516,5.300152 -2.70899,8.126984 -0.51081,3.57569 0,7.223985 0,10.835978 0,7.223987 0,14.447967 0,21.671957 0,3.61199 0,7.22399 0,10.83598 0,1.806 0,3.61199 0,5.41799 0,0.903 -0.40383,1.90133 0,2.70899 0.57111,1.14222 1.806,1.806 2.70899,2.709 0.903,0.903 1.4975,2.30516 2.709,2.70899 1.24008,0.41336 12.03293,0 13.54497,0 0.903,0 3.612,0 2.709,0 -7.22399,0 -14.44797,0 -21.67196,0 -2.70899,0 -5.4706,-0.53127 -8.12698,0 -6.22847,1.2457 -8.91926,7.36669 -13.54498,10.83598 -1.61533,1.2115 -3.80265,1.4975 -5.41799,2.709 -7.81146,5.85859 -3.51232,3.91398 -8.12698,10.83597 -0.70837,1.06256 -2.23472,1.5233 -2.709,2.709 -2.65933,6.64832 -2.70899,10.15943 -2.70899,16.25397 0,8.12698 0,16.25397 0,24.38095 0,0.903 -0.75134,2.2081 0,2.70899 6.22774,4.15183 19.81889,2.709 27.08995,2.709 6.32098,0 12.64197,0 18.96296,0 1.806,0 3.61199,0 5.41799,0 0.903,0 1.90133,0.40383 2.70899,0 1.14222,-0.57111 1.94278,-1.68737 2.709,-2.709 6.41977,-8.5597 5.41799,-5.46468 5.41799,-13.54497 0,-0.903 0.80766,-2.30516 0,-2.70899 -1.61534,-0.80767 -3.80266,-0.80767 -5.41799,0 -0.80767,0.40383 0,1.80599 0,2.70899 0,3.61199 0,7.22399 0,10.83598 0,9.93298 0,19.86596 0,29.79894 0,2.709 -1.2115,5.70399 0,8.12698 0.40383,0.80767 1.90133,-0.40383 2.70899,0 1.14222,0.57111 1.56678,2.13789 2.709,2.709 8.27352,4.13676 11.81224,2.70899 21.67195,2.70899 3.21449,0 19.04283,0.52583 21.67196,0 1.97996,-0.39599 3.77493,-1.53537 5.41799,-2.70899 8.70006,-0.80466 10.74678,-9.13922 16.25397,-13.54497 3.52562,-2.8205 7.6434,-4.93441 10.83598,-8.12699 4.95447,-4.95447 12.08579,-15.00288 16.25397,-21.67196 2.79062,-4.46499 5.51464,-8.97337 8.12698,-13.54497 1.00179,-1.75313 2.313,-3.43803 2.70899,-5.41799 2.35101,-11.75502 -3.02382,-5.10316 2.709,-10.83598 0.903,-0.90299 2.30516,-3.92049 2.70899,-2.70899 1.14222,3.42664 0,7.22398 0,10.83598 0,2.70899 0,5.41799 0,8.12698 0,1.806 -1.08359,3.97319 0,5.41799 1.95349,2.60465 5.07848,4.2748 8.12699,5.41799 10.52971,3.94864 21.58898,2.70899 32.50793,2.70899 12.64198,0 25.28395,0 37.92593,0 2.70899,0 5.41799,0 8.12698,0 1.806,0 4.00775,1.1282 5.41799,0 7.45478,-5.96381 8.20796,-11.0789 10.83598,-18.96296 0.903,-2.70899 2.14898,-5.3269 2.709,-8.12698 0.35418,-1.77093 0,-3.61199 0,-5.41799 0,-6.32099 0,-12.64198 0,-18.96296 0,-3.612 1.61533,-7.60532 0,-10.83598 -1.45604,-2.91208 -5.13443,-4.13547 -8.12699,-5.41799 -9.81618,-4.20694 -26.70858,-2.709 -37.92592,-2.709 -3.612,0 -7.83062,-2.00357 -10.83598,0 -1.50268,1.00179 0.80766,3.80266 0,5.41799 -0.40383,0.80767 -2.07048,-0.63851 -2.709,0 -0.63851,0.63852 0,1.806 0,2.709 0,1.80599 0,3.61199 0,5.41799 0,0.90299 -0.63851,2.07048 0,2.70899 4.20827,4.20827 11.0392,2.709 16.25397,2.709 4.51499,0 9.02998,0 13.54498,0 1.80599,0 4.26181,1.3874 5.41798,0 18.67161,-22.40593 2.80259,-8.45455 8.12699,-27.08995 0.89444,-3.13054 4.38841,-5.03826 5.41799,-8.12698 0.85666,-2.56998 -0.53128,-5.4706 0,-8.12699 0.39599,-1.97995 2.313,-3.43803 2.70899,-5.41799 0.53128,-2.65639 0,-5.41799 0,-8.126982 0,-5.417989 0,-10.835979 0,-16.253968 0,-5.417989 0,-10.835979 0,-16.253968 0,-2.708995 1.0061,-5.611746 0,-8.126984 -1.40367,-3.509178 -11.34489,-9.36926 -13.54497,-10.835979 -2.709,-1.805996 -5.2149,-3.961948 -8.12698,-5.417989 -0.80767,-0.403833 -1.83296,0.219009 -2.709,0 -2.77027,-0.692568 -5.35671,-2.016427 -8.12698,-2.708995 -0.87604,-0.219009 -1.806,0 -2.709,0 -8.12698,0 -16.25397,0 -24.38095,0 -1.51537,0 -23.92247,-0.527912 -27.08995,0 -2.81668,0.469447 -5.75104,1.125031 -8.12698,2.708995 -3.18767,2.12511 -5.41799,5.417989 -8.12699,8.126984 -2.70899,2.708995 -6.00187,4.939318 -8.12698,8.126984 -6.26934,9.404016 -7.68913,14.940418 -10.83598,24.380952 -0.903,2.708995 -1.43196,5.572919 -2.70899,8.126984 -0.57111,1.142212 -2.13789,1.566782 -2.709,2.708995 -0.40383,0.807666 0,1.805996 0,2.708994 0,0.902999 0,1.805997 0,2.708995 0,2.772362 -0.53305,19.539752 0,21.671962 0.30973,1.2389 1.806,1.80599 2.709,2.70899 3.59813,3.59813 5.70103,6.84325 10.83598,8.12698 2.80622,0.70156 7.72967,0 10.83597,0 3.43387,0 8.59007,0.28556 10.83598,-2.70899 1.6254,-2.1672 0,-5.41799 0,-8.12698 0,-4.515 0,-9.02999 0,-13.54498 0,-6.32099 0,-12.641973 0,-18.962961 0,-2.708994 0.85666,-5.557006 0,-8.126984 -0.77487,-2.324626 -6.88239,-5.003124 -8.12698,-5.417989 -0.85666,-0.285553 -1.82353,0.177092 -2.709,0 -3.65085,-0.730171 -7.18512,-1.978824 -10.83597,-2.708995 -0.88547,-0.177092 -1.82354,0.177093 -2.709,0 -3.65085,-0.730171 -7.18512,-1.978823 -10.83598,-2.708994 -1.77092,-0.354185 -3.61199,0 -5.41799,0 -4.51499,0 -9.02998,0 -13.54497,0 -7.92846,0 -17.16081,-1.623091 -24.38095,2.708994 -3.67503,2.205019 -6.78246,6.802389 -8.12699,10.835979 -0.28555,0.856659 0.40384,1.901328 0,2.708995 -5.28,10.56 -0.13799,-5.142011 -5.41799,5.417989 -0.41221,0.824439 0,6.906968 0,8.126984"
       id="path3079"
       inkscape:connector-curvature="0" />
    <path
       style="fill:none;stroke:#000000;stroke-width:1px;stroke-linecap:butt;stroke-linejoin:miter;stroke-opacity:1"
       d="m 677.24867,125.886 c 0,-4.51499 -1.42777,-9.26167 0,-13.54497 0.63851,-1.91555 4.37914,-0.97757 5.41799,-2.70899 0.12179,-0.20298 5.14208,-20.84425 5.41799,-21.671961 0.63851,-1.915548 2.21927,-3.459111 2.70899,-5.417989 0.43802,-1.752074 0,-3.611993 0,-5.417989 0,-6.320988 0,-12.641976 0,-18.962963 0,-1.805997 0.80767,-3.802657 0,-5.417989 -0.18558,-0.371164 -8.02153,0 -10.83598,0 -8.12698,0 -16.25397,0 -24.38095,0 -2.70899,0 -5.41799,0 -8.12698,0 -2.709,0 -5.61175,-1.006096 -8.12699,0 -2.37139,0.948555 -3.61199,3.611992 -5.41799,5.417989 -2.70899,2.708995 -6.00187,4.939319 -8.12698,8.126984 -1.58396,2.375945 -1.806,5.417989 -2.709,8.126984 -0.90299,2.708995 -2.23954,5.310305 -2.70899,8.126984 -0.44536,2.672136 0,5.417989 0,8.126984 0,7.223986 0,14.447976 0,21.671956 0,2.709 0,5.41799 0,8.12699 0,1.80599 -1.27703,4.14095 0,5.41798 2.20272,2.20272 14.91551,7.3175 18.96296,8.12699 3.54185,0.70837 7.22399,0 10.83598,0 0.903,0 -1.82353,-0.17709 -2.70899,0 -3.65086,0.73017 -7.25608,1.68616 -10.83598,2.70899 -2.74566,0.78448 -5.57292,1.43197 -8.12699,2.709 -1.14221,0.5711 -1.64644,2.00062 -2.70899,2.70899 -1.68005,1.12003 -3.61199,1.806 -5.41799,2.709 -18.5265,9.26325 9.70129,-5.56453 -10.83598,8.12698 -0.75134,0.50089 -1.806,0 -2.70899,0 -1.806,0.903 -3.99023,1.28123 -5.41799,2.709 -3.2801,6.5602 -1.28123,3.99022 -5.41799,8.12698 -1.05105,1.05105 -7.77212,7.23981 -8.12699,8.12698 -3.85779,9.64448 -2.70899,19.71225 -2.70899,29.79895 0,3.61199 0,7.22398 0,10.83597 0,1.806 -1.27703,4.14096 0,5.41799 2.01916,2.01917 5.47569,1.64848 8.12698,2.709 15.98689,6.39475 -4.60948,0.13475 10.83598,2.70899 3.6725,0.61209 7.14157,2.2472 10.83598,2.709 3.5841,0.44801 7.22399,0 10.83598,0 8.12698,0 16.25397,0 24.38095,0 1.54511,0 10.51738,0.4779 10.83598,0 1.50268,-2.25402 0,-5.41799 0,-8.12699 0,-1.80599 1.50268,-4.4162 0,-5.41799 -2.25402,-1.50268 -5.41799,0 -8.12698,0 -2.709,0 -5.41799,0 -8.12699,0 -0.903,0 -1.90133,-0.40383 -2.70899,0 -0.71927,0.35964 -7.76735,7.40772 -8.12699,8.12699 -0.28131,0.56262 0,18.49318 0,18.96296 0,1.93669 -0.46223,14.86727 0,16.25397 0.78406,2.35218 11.34501,7.39366 13.54498,8.12698 0.85666,0.28556 2.07048,-0.63851 2.70899,0 0.63852,0.63852 -0.63851,2.07048 0,2.709 0.63852,0.63851 1.806,0 2.709,0 2.70899,0 5.41799,0 8.12698,0 2.29898,0 14.76056,0.4978 16.25397,0 1.2115,-0.40384 1.64644,-2.00063 2.70899,-2.709 1.68005,-1.12003 3.73794,-1.58896 5.41799,-2.70899 1.06256,-0.70837 1.56678,-2.13789 2.709,-2.709 0.80766,-0.40383 2.07048,0.63852 2.70899,0 0.63852,-0.63851 -0.40383,-1.90132 0,-2.70899 0.57111,-1.14221 2.00063,-1.64644 2.709,-2.709 1.12003,-1.68004 1.28123,-3.99022 2.70899,-5.41799 0.63852,-0.63851 1.85234,0.28556 2.709,0 1.91554,-0.63851 3.99022,-1.28122 5.41798,-2.70899 1.42777,-1.42777 2.07048,-3.50244 2.709,-5.41799 0.28555,-0.85666 -0.63852,-2.07048 0,-2.70899 0.63852,-0.63852 2.07048,0.63851 2.70899,0 0.63852,-0.63852 -0.80766,-2.30517 0,-2.709 1.61534,-0.80766 5.41799,-1.80599 5.41799,0 0,1.806 -3.61199,0 -5.41799,0"
       id="path3081"
       inkscape:connector-curvature="0" />
  </g>
</svg>
