<?xml version="1.0" encoding="UTF-8" standalone="no"?>
<!-- Created with Inkscape (http://www.inkscape.org/) -->

<svg
   xmlns:dc="http://purl.org/dc/elements/1.1/"
   xmlns:cc="http://creativecommons.org/ns#"
   xmlns:rdf="http://www.w3.org/1999/02/22-rdf-syntax-ns#"
   xmlns:svg="http://www.w3.org/2000/svg"
   xmlns="http://www.w3.org/2000/svg"
   xmlns:sodipodi="http://sodipodi.sourceforge.net/DTD/sodipodi-0.dtd"
   xmlns:inkscape="http://www.inkscape.org/namespaces/inkscape"
   width="210mm"
   height="297mm"
   id="svg2985"
   version="1.1"
   inkscape:version="0.48.5 r10040"
   sodipodi:docname="de-um-grande-baobá.svg"
   inkscape:export-filename="/home/fredm/projetos/o-rato-anderson/de-um-grande-baobá.png"
   inkscape:export-xdpi="90"
   inkscape:export-ydpi="90">
  <defs
     id="defs3" />
  <sodipodi:namedview
     inkscape:document-units="mm"
     id="base"
     pagecolor="#ffffff"
     bordercolor="#666666"
     borderopacity="1.0"
     inkscape:pageopacity="0.0"
     inkscape:pageshadow="2"
     inkscape:zoom="0.59480854"
     inkscape:cx="350"
     inkscape:cy="549.11964"
     inkscape:current-layer="layer1"
     showgrid="false"
     inkscape:window-width="732"
     inkscape:window-height="739"
     inkscape:window-x="546"
     inkscape:window-y="2"
     inkscape:window-maximized="0"
     units="mm" />
  <metadata
     id="metadata4">
    <rdf:RDF>
      <cc:Work
         rdf:about="">
        <dc:format>image/svg+xml</dc:format>
        <dc:type
           rdf:resource="http://purl.org/dc/dcmitype/StillImage" />
        <dc:title></dc:title>
      </cc:Work>
    </rdf:RDF>
  </metadata>
  <g
     inkscape:label="Layer 1"
     inkscape:groupmode="layer"
     id="layer1">
    <path
       style="fill:none;stroke:#000000;stroke-width:0.18520024px;stroke-linecap:butt;stroke-linejoin:miter;stroke-opacity:1"
       d="m 189.59693,801.98976 c 0.45488,-1.21017 0.33529,-2.42801 0.33529,-3.68829 0,-0.3353 -0.0657,-0.67711 0,-1.0059 0.049,-0.24506 0.27469,-0.42814 0.33531,-0.6706 0.0542,-0.21686 0,-0.44706 0,-0.67059 0,-0.3353 0,-0.6706 0,-1.0059 0,-1.11766 0,-2.23533 0,-3.35299 0,-0.6706 0,-1.3412 0,-2.01179 0,-0.6706 0.18422,-1.367 0,-2.0118 -0.25566,-0.89478 -1.95247,-3.87301 -2.6824,-4.69418 -0.37126,-0.41768 -0.90007,-0.66281 -1.34119,-1.0059 -0.5649,-0.43937 -1.08104,-0.94422 -1.6765,-1.34119 -0.74975,-0.49984 -1.56473,-0.89413 -2.34709,-1.3412 -0.78236,-0.44707 -1.55201,-0.91715 -2.34709,-1.3412 -1.4493,-0.77296 -3.74017,-1.94094 -5.36478,-2.34709 -0.87419,-0.21855 -1.79674,-0.16924 -2.68239,-0.3353 -0.89413,-0.22353 -1.78826,-0.44706 -2.6824,-0.67059 -0.33529,0 -0.67515,0.0551 -1.00589,0 -0.34863,-0.0581 -0.6706,-0.22354 -1.0059,-0.3353 -0.3353,-0.11177 -0.67774,-0.20404 -1.0059,-0.3353 -0.23204,-0.0928 -0.42553,-0.28629 -0.67059,-0.3353 -0.65758,-0.13152 -1.34794,0.0948 -2.0118,0 -0.45619,-0.0652 -0.885,-0.27013 -1.34119,-0.3353 -0.33193,-0.0474 -0.6706,0 -1.0059,0 -0.24174,0 -3.644,0 -3.68829,0 -1.00589,0 -2.01179,0 -3.01769,0 -1.22804,0 -1.49911,-0.10843 -2.68239,0.3353 -1.79622,0.67358 -1.09139,0.54681 -2.34709,2.01179 -0.3086,0.36003 -0.70233,0.64162 -1.0059,1.0059 -0.25798,0.30958 -0.43637,0.67798 -0.6706,1.0059 -0.32481,0.45474 -0.70971,0.8673 -1.00589,1.34119 -0.26491,0.42386 -0.42786,0.90426 -0.6706,1.3412 -0.49249,0.88647 -1.30545,2.02823 -1.6765,3.01769 -0.1618,0.43148 -0.15376,0.91763 -0.33529,1.34119 -0.15874,0.3704 -0.49038,0.64546 -0.6706,1.0059 -1.04947,2.09893 -0.36558,1.09674 -1.0059,3.01769 -0.15806,0.47418 -0.54937,0.85628 -0.6706,1.3412 -0.0542,0.21685 0.0707,0.45853 0,0.67059 -0.05,0.14995 -0.28531,0.18535 -0.3353,0.3353 -0.0707,0.21206 0.0438,0.45141 0,0.6706 -0.0693,0.34657 -0.22353,0.6706 -0.33529,1.0059 0,0.44706 0.0445,0.89635 0,1.34119 -0.0676,0.67648 -0.27884,1.3343 -0.3353,2.0118 -0.0557,0.66828 0,1.34119 0,2.01179 0,1.67649 0,3.35299 0,5.02948 0,1.22943 0,2.45886 0,3.68829 0,1.20578 -0.0416,2.55763 0.3353,3.68829 0.28495,0.85485 0.85392,1.58912 1.34119,2.34709 0.51991,0.80875 1.12514,1.55944 1.6765,2.34709 0.23109,0.33014 0.41262,0.69632 0.67059,1.0059 0.64676,0.77611 3.00966,2.78 3.35299,3.01769 0.61644,0.42677 1.36889,0.62015 2.0118,1.0059 0.47919,0.28752 0.8673,0.70971 1.34119,1.00589 1.25899,0.78688 1.31208,0.63218 2.68239,1.0059 0.785,0.21409 1.56774,0.43679 2.3471,0.6706 0.33853,0.10156 0.65601,0.28531 1.00589,0.3353 0.44258,0.0632 0.89413,0 1.3412,0 0.3353,0 0.6706,0 1.00589,0 1.45297,0 2.90593,0 4.35889,0 1.22943,0 2.45886,0 3.68829,0 0.79982,0 1.59717,0.0813 2.34709,-0.3353 0.62559,-0.34755 1.06962,-0.9619 1.6765,-1.3412 0.29971,-0.18732 0.70282,-0.15345 1.00589,-0.3353 0.27108,-0.16264 0.40757,-0.49524 0.6706,-0.6706 2.57598,-1.71731 0.11964,0.52016 2.68239,-1.67649 0.98074,-0.84063 1.21673,-1.28701 2.0118,-2.34709 0.33529,-0.44707 0.61074,-0.94604 1.00589,-1.3412 0.39515,-0.39515 0.89413,-0.67059 1.3412,-1.00589 0.3353,-0.55884 0.60579,-1.16208 1.00589,-1.6765 0.38817,-0.49906 0.94624,-0.84749 1.3412,-1.3412 0.50348,-0.62934 0.85762,-1.36702 1.3412,-2.01179 0.18967,-0.2529 0.47312,-0.42374 0.67059,-0.67059 0.25174,-0.31468 0.44707,-0.6706 0.6706,-1.0059 0.3353,-0.3353 0.70233,-0.64162 1.0059,-1.0059 0.51596,-0.61915 0.83772,-1.38244 1.34119,-2.01179 1.81028,-2.26285 -0.89153,1.93296 1.6765,-2.34709 z"
       id="path2991"
       inkscape:connector-curvature="0" />
    <path
       style="fill:none;stroke:#000000;stroke-width:0.18520024px;stroke-linecap:butt;stroke-linejoin:miter;stroke-opacity:1"
       d="m 163.44361,795.61908 c -0.44706,-0.3353 -0.862,-0.71838 -1.34119,-1.0059 -0.10988,-0.0659 -1.14874,0 -1.3412,0 -0.11176,0 -0.22353,0 -0.3353,0 -0.11176,0 -0.25626,-0.079 -0.3353,0 -0.079,0.079 0,0.22353 0,0.3353 0,0.6706 0,1.3412 0,2.01179 0,0.11177 -0.079,0.25627 0,0.3353 0.079,0.079 0.25627,-0.079 0.3353,0 0.079,0.079 -0.079,0.25627 0,0.3353 0.079,0.079 0.22354,0 0.3353,0 0.11177,0 0.22353,0 0.3353,0 0.89413,0 1.78826,0 2.68239,0 0.11177,0 0.25627,0.079 0.3353,0 0.079,-0.079 0.0353,-0.22927 0,-0.3353 -0.19033,-0.57099 -0.44707,-1.11766 -0.6706,-1.67649 z"
       id="path2993"
       inkscape:connector-curvature="0" />
    <path
       style="fill:none;stroke:#000000;stroke-width:0.18520024px;stroke-linecap:butt;stroke-linejoin:miter;stroke-opacity:1"
       d="m 171.15549,795.95438 c -0.44707,-0.3353 -1.6765,-0.55884 -1.3412,-1.0059 0.3353,-0.44707 1.90003,1.0059 1.3412,1.0059 -0.6517,0 -1.09359,-0.71445 -1.6765,-1.0059 -0.19993,-0.1 -0.67059,0.22353 -0.67059,0 0,-0.11177 0.33529,-0.11177 0.33529,0 0,0.11177 -0.25626,-0.079 -0.33529,0 -0.079,0.079 0,0.22353 0,0.3353 0,1.11766 0,2.23532 0,3.35299 0,0.11176 0,0.22353 0,0.3353 0,0.11176 -0.1,0.28531 0,0.3353 0.1049,0.0524 1.80402,0 2.01179,0 0.15809,0 1.6613,0.0152 1.67649,0 0.079,-0.079 0,-0.22354 0,-0.3353 0,-0.20473 0.0314,-1.28624 0,-1.3412 -0.35506,-0.62136 -1.34119,-0.96084 -1.34119,-1.67649 0,-0.71566 0.89413,-1.11767 1.34119,-1.6765"
       id="path2995"
       inkscape:connector-curvature="0" />
    <path
       style="fill:none;stroke:#000000;stroke-width:0.18520024px;stroke-linecap:butt;stroke-linejoin:miter;stroke-opacity:1"
       d="m 161.09652,788.5778 c -0.23607,-0.0966 0.13128,-1.95325 0,-2.34709 -0.05,-0.14995 -0.26461,-0.19393 -0.3353,-0.3353 -0.05,-0.1 0.05,-0.23534 0,-0.3353 -0.0707,-0.14137 -0.24762,-0.20379 -0.3353,-0.3353 -0.0416,-0.0625 -0.64911,-1.31971 -0.6706,-1.34119 -0.17671,-0.17672 -0.46265,-0.19668 -0.67059,-0.3353 -0.13152,-0.0877 -0.22353,-0.22354 -0.3353,-0.3353 -0.22353,-0.22354 -0.44707,-0.44707 -0.6706,-0.6706 -0.11177,-0.11177 -0.19392,-0.26461 -0.3353,-0.3353 -0.1,-0.05 -0.22353,0 -0.3353,0 -0.22353,-0.11177 -0.46265,-0.19667 -0.6706,-0.3353 -0.13151,-0.0877 -0.19392,-0.26461 -0.33529,-0.3353 -0.19994,-0.1 -0.45854,0.0707 -0.6706,0 -0.23709,-0.079 -0.46265,-0.19667 -0.6706,-0.3353 -0.13151,-0.0877 -0.18196,-0.29696 -0.3353,-0.33529 -0.32529,-0.0813 -0.6706,0 -1.0059,0 -0.78236,0 -1.56472,0 -2.34709,0 -0.53184,0 -2.38447,-0.0851 -2.68239,0 -0.78969,0.22562 -1.43961,1.21875 -2.01179,1.67649 -0.19516,0.15612 -0.49388,0.15858 -0.6706,0.3353 -0.17672,0.17671 -0.22353,0.44706 -0.3353,0.6706 -0.11177,0.22353 -0.27468,0.42814 -0.3353,0.67059 -0.0868,0.34734 0,0.95673 0,1.3412 0,0.90025 0,1.78214 0,2.68239 0,1.6765 0,3.35299 0,5.02948 0,0.44707 0,0.89413 0,1.3412 0,0.11177 0,0.22353 0,0.3353 0,0.11177 -0.05,0.23533 0,0.3353 0.0707,0.14137 0.22353,0.22353 0.3353,0.3353 0.11177,0.11176 0.18535,0.28531 0.3353,0.3353 0.21206,0.0707 0.46305,-0.083 0.6706,0 0.37416,0.14966 0.6355,0.51185 1.00589,0.67059 1.81304,0.77702 0.77374,0.0731 2.3471,0.3353 0.34862,0.0581 0.65932,0.26599 1.00589,0.3353 0.37304,0.0746 1.23969,0 1.6765,0 1.45296,0 2.90592,0 4.35888,0"
       id="path2997"
       inkscape:connector-curvature="0" />
    <path
       style="fill:none;stroke:#000000;stroke-width:0.18520024px;stroke-linecap:butt;stroke-linejoin:miter;stroke-opacity:1"
       d="m 167.4672,790.25429 c 0.10093,-1.77981 -0.14799,-3.58889 0,-5.36478 0.0473,-0.56793 0.21167,-1.12016 0.3353,-1.67649 0.16355,-0.73598 0.25523,-1.38874 0.6706,-2.0118 0.17535,-0.26303 0.44706,-0.44706 0.67059,-0.67059 0.11177,-0.11177 0.19393,-0.26462 0.3353,-0.3353 0.1,-0.05 0.22927,0.0353 0.3353,0 0.23709,-0.079 0.42554,-0.28629 0.6706,-0.3353 0.54798,-0.1096 1.11766,0 1.67649,0 0.89414,0 1.78827,0 2.6824,0 0.67059,0 1.34119,0 2.01179,0 0.94065,0 1.12913,-0.10603 2.01179,0.3353 0.14138,0.0707 0.22353,0.22353 0.3353,0.3353 0.22354,0.22353 0.44707,0.44706 0.6706,0.67059 0.11177,0.11177 0.22353,0.22354 0.3353,0.3353 0.11177,0.11177 0.26461,0.19393 0.3353,0.3353 0.05,0.1 -0.079,0.25627 0,0.3353 0.69374,0.69375 -0.0271,-1.06013 0.6706,0.3353 0.05,0.1 -0.062,0.2423 0,0.3353 0.89488,1.34233 0.73341,-0.11543 1.34119,2.01179 0.0921,0.3224 -0.0813,0.68061 0,1.0059 0.0383,0.15334 0.28532,0.18535 0.3353,0.3353 0.0512,0.15348 0,1.48934 0,1.67649 0,1.11766 0,2.23533 0,3.35299 0,0.19093 0.006,3.01447 0,3.01769 -0.19993,0.1 -0.45374,-0.0542 -0.6706,0 -0.88325,0.22081 -1.46384,1.12038 -2.34709,1.3412 -0.21686,0.0542 -0.45853,-0.0707 -0.6706,0 -0.14995,0.05 -0.19392,0.26461 -0.3353,0.3353 -0.19993,0.1 -0.45853,-0.0707 -0.67059,0 -0.2371,0.079 -0.43351,0.25626 -0.6706,0.3353 -0.21104,0.0703 -1.37427,0 -1.6765,0"
       id="path2999"
       inkscape:connector-curvature="0" />
    <path
       style="fill:none;stroke:#000000;stroke-width:0.18520024px;stroke-linecap:butt;stroke-linejoin:miter;stroke-opacity:1"
       d="m 176.85557,770.47166 c -0.44706,-0.22353 -0.89413,-0.44706 -1.3412,-0.6706 -0.11176,-0.11177 -0.20378,-0.24762 -0.33529,-0.3353 -1.69387,-1.12924 -0.008,-0.003 -1.0059,-0.3353 -0.23709,-0.079 -0.44707,-0.22353 -0.6706,-0.3353 -1.87953,-0.93976 -0.87711,-0.48496 -3.01769,-1.34119 -0.55883,-0.22354 -1.1,-0.49765 -1.67649,-0.6706 -0.54587,-0.16376 -1.12017,-0.21167 -1.6765,-0.3353 -0.8997,-0.19993 -1.76786,-0.55628 -2.68239,-0.6706 -0.44361,-0.0555 -0.90478,0.097 -1.3412,0 -0.58754,-0.13056 -1.11085,-0.46491 -1.67649,-0.67059 -0.66431,-0.24157 -1.32603,-0.49916 -2.01179,-0.6706 -0.21686,-0.0542 -0.45854,0.0707 -0.6706,0 -0.14995,-0.05 -0.18535,-0.28532 -0.3353,-0.3353 -0.21206,-0.0707 -0.44707,0 -0.6706,0 -0.88415,0 -1.79823,0 -2.68239,0 -0.55883,0 -1.11766,0 -1.67649,0 -0.3353,0 -0.71478,-0.16636 -1.0059,0 -1.36596,0.78055 -1.68541,2.25631 -2.68239,3.35299 -0.58719,0.64591 -1.45903,1.00089 -2.0118,1.67649 -0.47477,0.58028 -0.64687,1.35359 -1.00589,2.0118 -0.90226,1.65413 -1.70587,2.62285 -2.68239,4.35888 -0.4901,0.87129 -0.87076,1.80033 -1.3412,2.68239 -0.42404,0.79508 -0.91399,1.55371 -1.3412,2.3471 -0.35545,0.66013 -0.64687,1.35359 -1.00589,2.01179 -1.01567,1.86206 -0.90419,1.27999 -1.6765,3.01769 -0.75867,0.86288 -0.58821,2.04311 -1.00589,3.01769 -0.21635,0.50481 -0.85807,1.08518 -1.0059,1.67649 -0.0542,0.21686 0.1,0.47067 0,0.6706 -0.24991,0.49984 -0.70972,0.86731 -1.00589,1.3412 -0.26492,0.42386 -0.40569,0.91734 -0.6706,1.34119 -0.29619,0.47389 -0.70972,0.86731 -1.0059,1.3412 -0.26491,0.42386 -0.3707,0.94133 -0.6706,1.3412 -0.0118,0.0157 -2.6551,2.65121 -2.68239,2.68239 -0.36799,0.42056 -0.64221,0.91689 -1.00589,1.34119 -0.3086,0.36003 -0.67061,0.6706 -1.0059,1.0059 -0.44707,0.44706 -0.89413,0.89413 -1.3412,1.34119 -1.0059,1.0059 -2.01179,2.0118 -3.01769,3.01769 -0.22353,0.22354 -0.42774,0.46823 -0.6706,0.6706 -1.06827,0.89023 -1.78829,1.30928 -3.01769,2.0118 -0.91739,0.52422 -0.53155,0.21262 -1.67649,0.67059 -0.23204,0.0928 -0.44707,0.22354 -0.6706,0.3353 -0.3353,0.11177 -0.67774,0.20404 -1.00589,0.3353 -0.23205,0.0928 -0.4563,0.20672 -0.67061,0.3353 -0.34554,0.20733 -0.62857,0.5291 -1.00589,0.6706 -0.53361,0.2001 -1.13063,0.17154 -1.6765,0.33529 -0.57649,0.17296 -1.11293,0.45927 -1.67649,0.67061 -0.33093,0.12409 -0.67774,0.20403 -1.0059,0.33529 -0.46408,0.18564 -0.85628,0.54937 -1.34119,0.6706 -0.21686,0.0542 -0.45374,-0.0542 -0.6706,0 -0.24245,0.0606 -0.42814,0.27469 -0.6706,0.3353 -0.21686,0.0542 -0.45374,-0.0542 -0.6706,0 -2.38946,0.59736 1.98127,0.17146 -2.01179,0.6706 -0.44361,0.0554 -0.89686,-0.0494 -1.3412,0 -0.56641,0.0629 -1.10942,0.27859 -1.67649,0.3353 -0.88969,0.089 -1.78826,0 -2.68239,0 -0.3353,0 -0.6706,0 -1.0059,0 -0.11176,0 -0.3353,0.11176 -0.3353,0 0,-0.11177 0.22354,0 0.3353,0"
       id="path3001"
       inkscape:connector-curvature="0" />
    <path
       style="fill:none;stroke:#000000;stroke-width:0.18520024px;stroke-linecap:butt;stroke-linejoin:miter;stroke-opacity:1"
       d="m 94.37204,792.26609 c 1.19182,-0.23837 1.65136,-0.25819 2.68239,-0.6706 0.23204,-0.0928 0.43855,-0.24248 0.6706,-0.3353 0.32815,-0.13126 0.68103,-0.19607 1.00589,-0.3353 0.45942,-0.19689 0.88445,-0.46759 1.3412,-0.6706 0.55,-0.24444 1.15036,-0.3783 1.67649,-0.67059 4.45643,-2.4758 -0.67314,0.11346 2.0118,-1.6765 0.41588,-0.27726 0.94132,-0.3707 1.34119,-0.6706 0.5058,-0.37934 0.86865,-0.92115 1.3412,-1.34119 0.53488,-0.47546 1.13791,-0.86993 1.67649,-1.3412 1.52586,-1.33512 0.5743,-0.70424 2.0118,-2.34709 0.41633,-0.47581 0.92115,-0.86865 1.34119,-1.34119 1.08475,-1.22034 1.57727,-1.94165 2.34709,-3.35299 0.35903,-0.65821 0.60338,-1.37926 1.0059,-2.0118 0.35864,-0.56358 2.74667,-3.31563 3.01769,-3.68829 0.38332,-0.52705 0.6706,-1.11766 1.0059,-1.67649 0.55883,-0.78237 1.09029,-1.58503 1.67649,-2.34709 0.53223,-0.6919 1.13719,-1.3254 1.6765,-2.0118 0.69051,-0.87884 1.29628,-1.82377 2.01179,-2.68239 0.40476,-0.4857 0.95304,-0.84213 1.3412,-1.34119 0.80021,-1.02885 1.26433,-2.2852 2.01179,-3.35299 0.4104,-0.58629 0.90647,-1.10801 1.34119,-1.6765 1.01839,-1.33174 1.79687,-2.87457 3.0177,-4.02358 0.72795,-0.68514 1.84149,-0.80062 2.68239,-1.3412 0.73428,-0.47204 1.33015,-1.13118 2.01179,-1.67649 0.43638,-0.3491 0.90482,-0.6568 1.3412,-1.0059 0.12342,-0.0987 0.20378,-0.24762 0.33529,-0.3353 0.87893,-0.58595 0.58596,-0.12533 1.6765,-0.6706 3.07067,-1.53533 -2.22983,0.31738 3.35299,-1.67649 3.6088,-1.28886 1.05419,-0.1659 4.69418,-1.0059 0.68877,-0.15895 1.31454,-0.55439 2.0118,-0.6706 0.66147,-0.11024 1.34119,0 2.01179,0 1.0059,0 2.01179,0 3.01769,0 1.39029,0 2.6333,0 4.02359,0 0.78236,0 1.62491,-0.30091 2.34709,0 0.72952,0.30397 1.06483,1.17605 1.67649,1.6765 0.62378,0.51036 1.29093,0.98076 2.0118,1.34119 0.63224,0.31613 1.40121,0.31443 2.01179,0.6706 0.75401,0.43984 1.33619,1.12373 2.01179,1.6765 0.55389,0.45318 1.13792,0.86993 1.6765,1.34119 0.71372,0.62451 1.27124,1.41935 2.01179,2.0118 0.19516,0.15612 0.47067,0.18534 0.6706,0.33529 0.2529,0.18968 0.4177,0.48093 0.6706,0.6706 1.42588,1.06941 -0.13445,-0.83194 1.67649,1.3412 0.25798,0.30957 0.54317,0.62359 0.6706,1.00589 0.10603,0.3181 -0.23709,0.76881 0,1.0059 0.23709,0.23709 0.6706,0 1.0059,0 1.8718,0 3.15601,-0.097 5.02948,0.3353 0.58647,0.13534 1.1,0.49765 1.6765,0.6706 0.54586,0.16376 1.13063,0.17154 1.67649,0.3353 0.5765,0.17295 1.08895,0.54003 1.67649,0.67059 0.43643,0.097 0.89687,-0.0494 1.3412,0 0.56641,0.0629 1.11008,0.27237 1.6765,0.3353 0.44433,0.0494 0.89412,0 1.34119,0 1.22943,0 2.45886,0 3.68829,0 0.22353,0 0.44706,0 0.6706,0 0.22353,0 0.45374,-0.0542 0.67059,0 0.24246,0.0606 0.43856,0.24248 0.6706,0.3353 0.32816,0.13126 0.67774,0.20404 1.0059,0.3353 0.23204,0.0928 0.42814,0.27469 0.6706,0.3353 0.21685,0.0542 0.45374,-0.0542 0.67059,0 0.24246,0.0606 0.43351,0.25627 0.6706,0.3353 0.10603,0.0353 0.23533,-0.05 0.3353,0 0.14138,0.0707 0.19392,0.26461 0.3353,0.3353 0.1,0.05 0.23533,-0.05 0.3353,0 0.14137,0.0707 0.19392,0.26461 0.3353,0.3353 0.1,0.05 0.22927,-0.0353 0.33529,0 0.2371,0.079 0.45361,0.2113 0.67061,0.3353 0.56583,0.32333 1.13424,0.64439 1.67649,1.00589 0.45563,0.30376 1.74728,1.37659 2.34709,1.6765 0.31613,0.15806 0.6706,0.22353 1.0059,0.3353 0.3353,0.11176 0.66606,0.2382 1.0059,0.33529 0.44309,0.1266 0.94108,0.10667 1.34119,0.3353 0.41171,0.23527 0.64587,0.6973 1.0059,1.0059 0.42429,0.36368 0.88645,0.68108 1.34119,1.0059 0.65584,0.46845 1.32069,0.92653 2.01179,1.34119 0.21431,0.12858 0.46266,0.19667 0.6706,0.3353 0.26304,0.17535 0.44707,0.44707 0.6706,0.6706 0.44707,0.44706 0.89413,0.89413 1.3412,1.3412 0.22353,0.22353 0.40757,0.49524 0.6706,0.67059 0.20794,0.13863 0.49388,0.15858 0.67059,0.3353 0.079,0.079 -0.05,0.23533 0,0.3353 0.0707,0.14138 0.22354,0.22353 0.3353,0.3353 0.42301,0.42301 0.99085,0.87406 1.3412,1.3412 0.14995,0.19993 0.15858,0.49387 0.3353,0.67059 0.079,0.079 0.25627,-0.079 0.33529,0 0.079,0.079 -0.05,0.23534 0,0.3353 0.14138,0.28275 0.52923,0.38785 0.6706,0.6706 0.05,0.1 -0.079,0.25627 0,0.3353 0.079,0.079 0.25627,-0.079 0.3353,0 0.079,0.079 -0.079,0.25627 0,0.3353 0.079,0.079 0.25627,-0.079 0.3353,0 0.079,0.079 -0.05,0.23533 0,0.3353 0.0707,0.14137 0.26461,0.19392 0.3353,0.3353 0.05,0.1 -0.079,0.25626 0,0.33529 0.44706,0.44707 0.3353,-0.55883 0.3353,0.3353"
       id="path3003"
       inkscape:connector-curvature="0" />
    <path
       style="fill:none;stroke:#000000;stroke-width:0.18520024px;stroke-linecap:butt;stroke-linejoin:miter;stroke-opacity:1"
       d="m 177.19087,770.80696 c 0.22353,0.44706 0.26112,1.05456 0.6706,1.34119 0.78231,0.54762 1.77646,0.70392 2.68239,1.0059 1.44217,0.48072 2.94397,0.78534 4.35888,1.3412 4.47392,1.7576 4.56906,2.04014 8.04718,4.35888 0.75825,0.5055 2.5586,1.65201 3.35299,2.34709 0.47581,0.41634 0.89413,0.89413 1.34119,1.3412 0.3353,0.3353 0.6973,0.64587 1.0059,1.0059 0.36368,0.42429 0.64221,0.91689 1.0059,1.34119 0.30859,0.36003 0.73028,0.62004 1.00589,1.0059 0.008,0.0107 1.32298,2.6505 1.3412,2.68239 0.70749,1.2381 0.78852,0.87328 1.34119,2.34709 0.32361,0.86297 0.37915,1.80804 0.6706,2.68239 0.079,0.2371 0.25627,0.43351 0.3353,0.6706 0.0353,0.10603 -0.05,0.23533 0,0.3353 0.0707,0.14137 0.24046,0.20885 0.3353,0.3353 0.24179,0.32238 0.44707,0.6706 0.6706,1.0059 0.55883,0.67059 1.13118,1.33015 1.67649,2.01179 0.3491,0.43637 0.64222,0.9169 1.0059,1.3412 0.21849,0.2549 1.97314,2.04792 2.34709,2.34709 0.31467,0.25174 0.6706,0.44706 1.0059,0.6706 0.5904,0.3936 1.0321,0.74813 1.67649,1.00589 0.32816,0.13126 0.68978,0.17724 1.0059,0.3353 0.14137,0.0707 0.18854,0.2766 0.3353,0.3353 0.42786,0.17114 0.8981,0.2087 1.34119,0.3353 0.33984,0.0971 0.65727,0.27719 1.0059,0.3353 0.33074,0.0551 0.6706,0 1.0059,0 1.11766,0 2.23532,0 3.35298,0"
       id="path3005"
       inkscape:connector-curvature="0" />
    <path
       style="fill:none;stroke:#000000;stroke-width:0.18520024px;stroke-linecap:butt;stroke-linejoin:miter;stroke-opacity:1"
       d="m 165.45541,799.97796 c -0.3353,0.44707 -0.75598,0.84136 -1.0059,1.3412 -0.0263,0.0525 0,1.58275 0,1.67649 0,1.11766 0,2.23533 0,3.35299 0,0.78237 0,1.56473 0,2.34709 0,0.11177 -0.079,0.25627 0,0.3353 0.079,0.079 0.3353,-0.11176 0.3353,0 0,0.11177 -0.44706,0 -0.3353,0 0.6706,0 1.3412,0 2.01179,0 0.15101,0 0.90386,0.051 1.0059,0 0.14137,-0.0707 0.22353,-0.22353 0.3353,-0.3353 0.11177,-0.11176 0.26461,-0.19392 0.3353,-0.33529 0.1,-0.19994 -0.1,-0.47067 0,-0.6706 0.0707,-0.14138 0.26461,-0.19393 0.3353,-0.3353 0.0892,-0.17846 -0.0892,-0.49214 0,-0.6706 0.0707,-0.14137 0.26461,-0.19392 0.3353,-0.3353 0.13412,-0.26824 -0.13412,-0.73766 0,-1.00589 0.0707,-0.14138 0.26461,-0.19393 0.33529,-0.3353 0.0433,-0.0867 0,-1.77414 0,-2.0118"
       id="path3007"
       inkscape:connector-curvature="0" />
    <path
       style="fill:none;stroke:#000000;stroke-width:0.32285571px;stroke-linecap:butt;stroke-linejoin:miter;stroke-opacity:1"
       d="m 125.50534,804.86751 c -4.61371,0 -9.22742,0 -13.84113,0 -12.6877,0 -25.375395,0 -38.063095,0 -4.229232,0 -8.458466,0 -12.687699,0 -0.321816,0 -7.16263,0 -3.460282,0 1.922379,-0.38448 3.844757,-0.76896 5.767136,-1.15343 0.384476,-0.38448 0.6671,-0.91026 1.153427,-1.15343 0.343886,-0.17194 0.809542,0.17194 1.153428,0 0.972655,-0.48633 1.275198,-1.96297 2.306854,-2.30685 0.729493,-0.24317 1.577363,0.24316 2.306856,0 1.031656,-0.34389 1.334198,-1.82053 2.306852,-2.30686 0.343887,-0.17194 0.881564,0.27187 1.153428,0 0.271867,-0.27186 -0.271864,-0.88156 0,-1.15343 0.271867,-0.27186 0.809541,0.17195 1.153428,0 0.486327,-0.24316 0.701017,-0.85182 1.153428,-1.15342 0.715325,-0.47688 1.591527,-0.67654 2.306852,-1.15343 2.110469,-1.40698 0.115076,-1.47055 3.460284,-2.30685 1.029761,-0.25744 4.432011,0 5.767136,0 4.229227,0 8.458467,0 12.687697,0"
       id="path2992"
       inkscape:connector-curvature="0" />
    <path
       style="fill:none;stroke:#000000;stroke-width:0.32285571px;stroke-linecap:butt;stroke-linejoin:miter;stroke-opacity:1"
       d="m 154.34103,741.42901 c 0,-6.77673 -0.63375,-8.27319 2.30685,-14.99456 1.58661,-3.62653 4.07259,-6.80347 5.76713,-10.38084 1.77268,-3.74232 2.66504,-7.88051 4.61371,-11.53427 0.31619,-0.59285 5.07133,-6.68707 6.92057,-8.074 0.68777,-0.51583 1.5379,-0.76895 2.30685,-1.15342 0.76895,-0.38448 1.45884,-1.0121 2.30686,-1.15343 1.51697,-0.25283 3.0758,0 4.6137,0 1.53791,0 3.07581,0 4.61371,0 0.28867,0 10.0618,0 11.53428,0 2.30685,0 4.61371,0 6.92056,0 0.96587,0 4.88999,0.21929 5.76714,0 0.83404,-0.20851 1.61908,-0.6376 2.30685,-1.15343 0.86997,-0.65247 1.47144,-1.61068 2.30686,-2.30685 1.47681,-1.23068 3.25438,-2.10096 4.6137,-3.46029 1.35933,-1.35932 2.20922,-3.15412 3.46029,-4.6137 1.06156,-1.2385 2.41601,-2.20717 3.46028,-3.46028 0.88745,-1.06495 1.5379,-2.30686 2.30685,-3.46029 1.51618,-2.27427 3.09753,-4.64629 4.61371,-6.92056 0.76895,-1.15343 1.44087,-2.3778 2.30686,-3.46028 1.01899,-1.27375 2.55546,-2.10305 3.46028,-3.46028 0.38447,-0.76896 0.76895,-1.5379 1.15343,-2.30686 0.38447,0 0.88156,0.27187 1.15342,0 1.53791,-1.5379 -1.92238,-1.15342 1.15343,-1.15342"
       id="path2994"
       inkscape:connector-curvature="0" />
    <path
       style="fill:none;stroke:#000000;stroke-width:0.32285571px;stroke-linecap:butt;stroke-linejoin:miter;stroke-opacity:1"
       d="m 208.5521,763.34413 c 0.22671,-6.70611 -0.78493,-14.30048 1.15343,-20.7617 1.23519,-4.11728 3.92698,-7.64949 5.76714,-11.53427 1.62101,-3.42214 3.17194,-6.87941 4.61371,-10.38084 1.25075,-3.03754 1.69666,-6.45603 3.46028,-9.22742 1.03208,-1.62184 3.13689,-2.22961 4.61371,-3.46028 0.83541,-0.69618 1.40203,-1.70364 2.30685,-2.30686 0.17186,-0.11457 3.0815,0 3.46028,0 3.84476,0 7.68952,0 11.53428,0 0.38447,0 0.76895,0 1.15342,0 0.38448,0 0.88157,0.27187 1.15343,0 0.98023,-0.98022 1.68691,-2.22038 2.30686,-3.46028 0.54373,-1.08746 0.70188,-2.33142 1.15342,-3.46028 0.63858,-1.59645 1.88983,-2.94562 2.30686,-4.61371 0.1865,-0.74599 -0.15081,-1.55284 0,-2.30685 -0.26469,-2.31625 1.80469,-3.7585 2.30685,-5.76714 0.1865,-0.74599 -0.24316,-1.57736 0,-2.30686 0.17195,-0.51583 0.91027,-0.6671 1.15343,-1.15342 0.3103,-0.6206 -0.3103,-1.68626 0,-2.30686 0.24316,-0.48633 0.91026,-0.6671 1.15343,-1.15342 0.76895,-1.53791 -1.15343,-1.15343 1.15342,-1.15343"
       id="path2996"
       inkscape:connector-curvature="0" />
    <path
       style="fill:none;stroke:#000000;stroke-width:0.32285571px;stroke-linecap:butt;stroke-linejoin:miter;stroke-opacity:1"
       d="m 222.39323,780.64553 c 2.92954,0.98464 4.56153,-1.71709 6.92057,-2.30685 0.74599,-0.1865 1.57736,0.24316 2.30685,0 0.51583,-0.17194 0.76895,-0.76895 1.15343,-1.15343 7.06715,-7.06715 -0.37507,0.62982 8.07399,-9.22742 0.70771,-0.82566 1.70364,-1.40203 2.30685,-2.30685 0.95377,-1.43065 1.45378,-3.12083 2.30686,-4.61371 0.68777,-1.2036 1.6869,-2.22038 2.30685,-3.46028 1.08746,-2.17492 1.34899,-4.68554 2.30686,-6.92057 0.67731,-1.5804 1.62953,-3.0333 2.30685,-4.6137 0.47894,-1.11752 0.6097,-2.37282 1.15343,-3.46029 2.63939,-5.27878 -0.47806,4.89447 2.30685,-3.46028 1.46328,-4.38982 0.64066,-4.18619 2.30686,-8.07399 0.67731,-1.5804 1.62954,-3.0333 2.30685,-4.61371 1.12544,-2.62603 0.82172,-3.53944 2.30686,-5.76713 0.3016,-0.45242 0.91026,-0.66711 1.15342,-1.15343 0.34389,-0.68777 -0.24316,-1.57737 0,-2.30685 3.26748,-6.53496 -0.42985,1.71942 1.15343,-4.61372 0.20851,-0.83404 0.88156,-1.49125 1.15343,-2.30685 0.24316,-0.72949 0,-1.5379 0,-2.30685"
       id="path2998"
       inkscape:connector-curvature="0" />
    <path
       style="fill:none;stroke:#000000;stroke-width:0.32285571px;stroke-linecap:butt;stroke-linejoin:miter;stroke-opacity:1"
       d="m 218.93295,808.32779 c 3.84476,0 7.68951,0 11.53427,0 2.30686,0 4.61371,0 6.92057,0 1.15342,0 2.36604,0.36474 3.46028,0 0.51583,-0.17194 0.76895,-0.76895 1.15343,-1.15343 0.38447,-0.38447 0.76895,-0.76895 1.15342,-1.15343 1.15343,-1.15342 2.30686,-2.30685 3.46028,-3.46028 0.38448,-0.38448 0.85182,-0.70101 1.15343,-1.15342 0.47689,-0.71533 0.54552,-1.69895 1.15343,-2.30686 0.60791,-0.60791 1.69894,-0.54552 2.30685,-1.15343 0.60791,-0.60791 0.54552,-1.69894 1.15343,-2.30685 0.60791,-0.60791 1.69895,-0.54552 2.30686,-1.15343 0.98022,-0.98022 1.44087,-2.3778 2.30685,-3.46028 0.67933,-0.84917 1.65438,-1.43689 2.30685,-2.30685 0.51583,-0.68778 0.67655,-1.59153 1.15343,-2.30686 0.30161,-0.45241 0.98149,-0.6376 1.15343,-1.15343 0.24316,-0.72949 -0.1865,-1.56086 0,-2.30685 1.39246,-5.56984 0.54813,0.0572 2.30685,-3.46028 0.17194,-0.34389 -0.27186,-0.88156 0,-1.15343 0.27187,-0.27187 0.88157,0.27187 1.15343,0 0.27187,-0.27187 -0.27186,-0.88156 0,-1.15343 0.27187,-0.27186 0.88156,0.27187 1.15343,0 0.27186,-0.27186 -0.27187,-0.88156 0,-1.15342 0.27186,-0.27187 0.76895,0 1.15343,0 2.30685,0 4.6137,0 6.92056,0"
       id="path3000"
       inkscape:connector-curvature="0" />
    <path
       style="fill:none;stroke:#000000;stroke-width:0.32285571px;stroke-linecap:butt;stroke-linejoin:miter;stroke-opacity:1"
       d="m 246.6152,650.30825 c 0,-14.61008 0,-29.22015 0,-43.83023 0,-2.30686 0,-4.61371 0,-6.92056 0,-0.38448 0,-0.76896 0,-1.15343 0,-0.38448 0.27187,-0.88156 0,-1.15343 -0.27186,-0.27186 -0.88156,0.27187 -1.15342,0 -0.27187,-0.27186 0,-0.76895 0,-1.15343 0,-0.38447 0,-0.76895 0,-1.15342"
       id="path3002"
       inkscape:connector-curvature="0" />
    <path
       style="fill:none;stroke:#000000;stroke-width:1px;stroke-linecap:butt;stroke-linejoin:miter;stroke-opacity:1"
       d="m 243.77592,590.02854 c 0,-56.04045 0,-112.08089 0,-168.12133 0,-11.20809 0,-22.41618 0,-33.62426 0,-4.48324 0,-8.96648 0,-13.44971 0,-1.12081 0,-2.24162 0,-3.36243 0,-0.5604 0.25062,-1.17997 0,-1.68121 -0.35443,-0.70886 -1.24159,-1.02179 -1.68121,-1.68121 -3.70399,-0.84665 -0.88868,-3.45858 -1.68121,-5.04364 -0.35443,-0.70887 -1.32679,-0.97236 -1.68122,-1.68122 -0.22747,-0.45494 0,-9.3631 0,-10.08728 0,-8.40606 0,-16.81213 0,-25.2182 0,-13.4497 0,-26.89941 0,-40.34911 0,-19.05375 0,-38.1075 0,-57.16125 0,-2.24162 0,-4.48324 0,-6.72486 0,-0.5604 0.39627,-1.28494 0,-1.68121 -0.39626,-0.39627 -1.12081,0 -1.68121,0 -3.36243,0 -6.72485,0 -10.08728,0 -9.52688,0 -19.05375,0 -28.58063,0 -2.80202,0 -5.89986,1.2531 -8.40606,0 -7.75939,-3.87969 -7.11861,-6.57333 -10.08728,-11.76849 -0.24561,-0.42982 -5.66948,-8.95417 -6.72485,-11.7685 -1.24449,-3.31864 -2.24162,-6.72485 -3.36243,-10.08728 -0.56041,-1.68121 -1.33367,-3.3059 -1.68121,-5.04364 -0.55405,-2.77022 1.63285,-6.74903 -1.68122,-8.40606 -5.29362,-2.64681 -10.90602,-4.45303 -16.81213,-5.04364 -2.78812,-0.27881 -5.60404,0 -8.40607,0 -2.24161,0 -4.48323,0 -6.72485,0 -5.04364,0 -10.08728,0 -15.13092,0 -1.68121,0 -3.36243,0 -5.04364,0 -1.68121,0 -3.3853,0.27639 -5.04364,0 -4.30117,-0.71686 -7.871,-3.37329 -11.768491,-5.04364 -1.628867,-0.69809 -3.458577,-0.88868 -5.04364,-1.68121 -4.241661,-2.12084 -5.278599,-3.59739 -8.406066,-6.72486 -0.560404,-0.5604 -1.326782,-0.97235 -1.681213,-1.68121 -0.250621,-0.50124 0.25062,-1.17997 0,-1.68121 -0.903625,-1.80725 -2.241618,-3.36243 -3.362427,-5.04364 -3.784762,-5.67715 -4.481482,-5.97181 -6.724853,-13.44971 -3.148528,-10.49509 0.703206,-6.02165 -3.362426,-10.08728"
       id="path3004"
       inkscape:connector-curvature="0" />
    <path
       style="fill:none;stroke:#000000;stroke-width:1px;stroke-linecap:butt;stroke-linejoin:miter;stroke-opacity:1"
       d="m 156.35283,67.171213 c 2.24162,2.241617 4.18876,4.822777 6.72486,6.724853 2.00496,1.503723 4.38569,2.462751 6.72485,3.362426 4.9621,1.908499 9.94106,3.890337 15.13092,5.04364 4.95383,1.100852 10.09543,1.051777 15.13092,1.681213 3.93206,0.491507 7.86975,0.972352 11.76849,1.681214 4.41227,0.80223 13.76892,2.920835 16.81213,6.724853 0.16915,0.211433 3.07718,9.516788 3.36243,10.087278 0.90362,1.80725 2.78182,3.10829 3.36243,5.04364 1.13866,3.79554 1.12081,7.84566 1.68121,11.76849 0.5604,3.92283 1.32245,7.82211 1.68121,11.7685 0.20295,2.23241 -0.36852,4.51373 0,6.72485 0.20601,1.23605 1.28495,2.17363 1.68122,3.36243 0.4845,1.45349 -0.5349,7.33627 0,8.40606 1.67286,3.34573 7.33887,3.66944 10.08728,5.04364 1.41772,0.70886 1.9447,2.65357 3.36242,3.36243 0.50124,0.25062 1.28495,-0.39627 1.68122,0 0.39626,0.39626 -0.39627,1.28495 0,1.68121 0.39626,0.39627 1.28494,-0.39626 1.68121,0 0.39626,0.39627 -0.39627,1.28495 0,1.68122 0.79253,0.79253 2.35994,-0.50125 3.36243,0 0.70886,0.35443 0.97235,1.32678 1.68121,1.68121 2.24162,1.12081 1.68121,-1.68121 1.68121,1.68121"
       id="path3006"
       inkscape:connector-curvature="0" />
    <path
       style="fill:none;stroke:#000000;stroke-width:1px;stroke-linecap:butt;stroke-linejoin:miter;stroke-opacity:1"
       d="m 344.64872,52.040293 c -0.52571,6.57853 -4.36745,10.91861 -6.72485,16.812133 -11.77214,29.430326 4.30191,-7.23578 -6.72486,18.493346 -0.98724,2.303565 -2.07299,4.5758 -3.36242,6.724853 -1.03958,1.732622 -2.45881,3.23639 -3.36243,5.04364 -7.42586,14.851705 -2.01715,9.817925 -13.44971,23.536985 -2.53683,3.0442 -5.60404,5.60404 -8.40606,8.40607 -1.68122,1.68121 -3.18705,3.55836 -5.04364,5.04364 -1.95702,1.56561 -4.63957,1.97223 -6.72486,3.36242 -0.65942,0.43962 -1.04718,1.2057 -1.68121,1.68122 -3.23291,2.42468 -6.85437,4.30017 -10.08728,6.72485 -1.86357,1.39768 -3.10747,3.75286 -5.04364,5.04364 -2.08529,1.39019 -4.63956,1.97223 -6.72485,3.36243 -0.56041,0.5604 -1.12081,1.1208 -1.68122,1.68121 0,0.5604 0.39627,1.28495 0,1.68121 -0.39626,0.39627 -1.28494,-0.39626 -1.68121,0 -0.39626,0.39627 0.39627,1.28495 0,1.68122 -2.24162,2.24161 -1.68121,-2.80203 -1.68121,1.68121"
       id="path3008"
       inkscape:connector-curvature="0" />
    <path
       style="fill:none;stroke:#000000;stroke-width:1px;stroke-linecap:butt;stroke-linejoin:miter;stroke-opacity:1"
       d="m 390.04148,68.852426 c 0.5604,2.241618 1.12081,4.483235 1.68121,6.724853 0,0.560404 -0.1099,1.131691 0,1.681213 0.45315,2.265736 1.39462,4.432089 1.68121,6.724853 0.48657,3.892539 0,7.845662 0,11.768493 0,6.164452 0,12.328902 0,18.493342 0,1.68122 0,3.36243 0,5.04364 0,2.24162 0.64413,4.57778 0,6.72486 -3.25403,10.84677 -5.09007,9.17964 -11.76849,16.81213 -15.09713,17.25386 4.25788,-2.57667 -10.08728,11.76849 -1.12081,1.12081 -2.09438,2.41139 -3.36243,3.36243 -2.00496,1.50372 -4.95269,1.59027 -6.72485,3.36243 -0.39627,0.39626 0.39627,1.28494 0,1.68121 -0.39627,0.39626 -1.12081,0 -1.68121,0 -0.56041,0 -1.12081,0 -1.68122,0 -1.57835,0 -7.44274,-0.32111 -8.40606,0 -0.75186,0.25062 -1.32678,0.97235 -1.68122,1.68121 -0.25582,0.51165 0,4.28649 0,5.04364 33.62427,0 67.24853,0 100.8728,0 5.04364,0 10.08728,0 15.13092,0 4.48323,0 9.17055,1.33724 13.44971,0 9.24559,-2.88925 19.0595,-13.54212 25.21819,-20.17456 3.51567,-3.7861 7.16021,-7.51093 10.08728,-11.76849 9.02379,-13.1255 9.00308,-16.82451 13.44971,-31.94305 1.15118,-3.91403 2.37293,-7.810502 3.36243,-11.768495 0.27183,-1.087344 -0.50124,-2.359945 0,-3.362427 0.35443,-0.708861 1.43059,-0.929352 1.68121,-1.681213 0.30894,-0.926817 0,-8.660524 0,-10.08728 0,-0.560404 -0.39627,-1.284947 0,-1.681213 0.39627,-0.396266 1.12081,0 1.68121,0 2.80203,0 5.60405,0 8.40607,0"
       id="path3010"
       inkscape:connector-curvature="0" />
    <path
       style="fill:none;stroke:#000000;stroke-width:1px;stroke-linecap:butt;stroke-linejoin:miter;stroke-opacity:1"
       d="m 632.13619,89.026985 c -12.23022,9.78417 -6.95242,4.040483 -16.81214,20.174555 -5.11181,8.36479 -10.26723,16.70675 -15.13092,25.2182 -1.24342,2.176 -1.8587,4.71989 -3.36242,6.72486 -0.95104,1.26805 -2.37225,2.1247 -3.36243,3.36242 -2.52448,3.1556 -4.48323,6.72486 -6.72485,10.08728 -2.2058,3.3087 -3.53073,6.01048 -6.72486,8.40607 -1.00248,0.75186 -2.31978,0.98612 -3.36242,1.68121 -0.65943,0.43962 -0.97235,1.32678 -1.68122,1.68121 -0.50124,0.25063 -1.17997,-0.25062 -1.68121,0 -0.70886,0.35444 -1.00162,1.27346 -1.68121,1.68122 -2.14905,1.28943 -4.68547,1.90572 -6.72485,3.36242 -3.97088,2.83634 -3.94946,5.6107 -8.40607,6.72486 -0.0562,0.014 -5.03471,-0.009 -5.04364,0 -0.39627,0.39626 0,1.12081 0,1.68121 -4.85067,26.67869 -0.64192,10.5114 -10.08728,35.30548 -2.3351,6.12965 -4.17945,12.448 -6.72485,18.49335 -1.9451,4.61961 -4.92551,8.77139 -6.72486,13.4497 -1.02578,2.66705 -0.98816,5.63387 -1.68121,8.40607 -0.9895,3.95799 -2.37293,7.8105 -3.36243,11.76849 -1.6389,6.55561 -2.41347,13.5319 -3.36242,20.17456 -0.56041,3.92283 -1.24361,7.83007 -1.68122,11.76849 -0.29894,2.69053 0,5.68043 0,8.40607 5.04364,-1.12081 10.45602,-1.16247 15.13092,-3.36243 5.07065,-2.38618 8.66788,-7.16505 13.44971,-10.08728 60.048,-36.69599 -27.56144,21.27736 33.62426,-18.49334 5.73547,-3.72805 11.20809,-7.84567 16.81214,-11.7685 5.60404,-3.92283 11.44305,-7.52975 16.81213,-11.76849 5.29652,-4.18146 9.94684,-9.12964 15.13092,-13.4497 4.90862,-4.09052 10.42862,-7.44238 15.13092,-11.7685 9.33197,-8.58542 17.93294,-17.93294 26.89941,-26.89941 3.92283,-3.92283 7.69201,-8.00558 11.76849,-11.76849 3.21616,-2.96877 7.31567,-5.01854 10.08728,-8.40607 2.38054,-2.90954 3.01077,-6.92503 5.04364,-10.08728 3.03043,-4.714 6.85552,-8.87138 10.08728,-13.4497 3.49568,-4.95222 6.78373,-10.04853 10.08728,-15.13092 12.83621,-19.74802 5.16538,-15.19179 15.13092,-20.17456"
       id="path3012"
       inkscape:connector-curvature="0" />
    <path
       style="fill:none;stroke:#000000;stroke-width:1px;stroke-linecap:butt;stroke-linejoin:miter;stroke-opacity:1"
       d="m 687.61622,255.4671 c -1.12081,2.24162 -1.92521,4.67169 -3.36242,6.72485 -2.50999,3.5857 -5.88199,6.51149 -8.40607,10.08728 -4.2137,5.9694 -7.78638,12.36702 -11.76849,18.49335 -9.21655,14.17929 -9.38314,14.14511 -18.49335,26.89941 -2.80202,3.92283 -5.46678,7.94742 -8.40606,11.76849 -2.66865,3.46924 -5.73743,6.61805 -8.40607,10.08728 -2.93928,3.82107 -5.13623,8.22617 -8.40607,11.76849 -3.50445,3.79649 -8.38468,6.18288 -11.76849,10.08728 -3.96999,4.58076 -6.45026,10.28156 -10.08728,15.13092 -2.46209,3.28279 -12.37835,14.79853 -16.81213,18.49335 -0.96266,0.80221 -2.31978,0.98612 -3.36243,1.68121 -0.65942,0.43962 -1.04719,1.2057 -1.68121,1.68121 -1.61646,1.21234 -3.36243,2.24162 -5.04364,3.36243 -1.68122,1.12081 -3.2893,2.35995 -5.04364,3.36243 -2.176,1.24342 -4.5758,2.07299 -6.72485,3.36242 -0.67959,0.40776 -0.97236,1.32679 -1.68122,1.68122 -0.51165,0.25582 -4.28649,0 -5.04364,0 -4.48323,0 -8.96647,0 -13.4497,0 -0.56041,0 -1.12081,0 -1.68122,0 -0.5604,0 -1.28494,-0.39627 -1.68121,0 -0.39627,0.39626 0.39627,1.28495 0,1.68121 -0.55866,0.55866 -2.80376,-0.55866 -3.36243,0 -0.39626,0.39627 0,1.12081 0,1.68121 0,0.56041 0,1.12081 0,1.68122 0,2.24162 0,4.48323 0,6.72485 0,4.48324 0,8.96647 0,13.44971 0,31.94305 0,63.8861 0,95.82915 0,8.40607 0,16.81213 0,25.2182 0,12.3289 1.70381,24.77609 0,36.98669 -1.69144,12.12198 -7.20367,23.4106 -10.08728,35.30548 -1.60623,6.6257 -1.60578,13.58714 -3.36242,20.17456 -0.52063,1.95234 -2.4588,3.23639 -3.36243,5.04364 -0.50124,1.00248 0.27184,2.27508 0,3.36243 -4.74181,14.22541 0.0303,-1.8631 -1.68121,8.40606 -0.37986,2.27917 -1.35445,4.43747 -1.68122,6.72486 -0.23776,1.66431 0,3.36242 0,5.04364 0,0.5604 0.39627,1.28494 0,1.68121 -0.39626,0.39626 -1.68121,0.5604 -1.68121,0 0,-0.56041 1.68121,-0.56041 1.68121,0 0,0.5604 -1.1208,0 -1.68121,0 2.24162,2.80202 4.05766,6.00559 6.72485,8.40607 3.00376,2.70337 6.9828,4.13778 10.08728,6.72485 3.65304,3.0442 6.72486,6.72485 10.08728,10.08728 2.80203,2.80202 6.02847,5.23594 8.40607,8.40606 0.15239,0.20319 3.11589,9.59422 3.36243,10.08728 1.80725,3.6145 5.08359,6.39445 6.72485,10.08728 2.87896,6.47766 3.55473,13.83431 6.72485,20.17456 1.2531,2.50621 3.415,4.44476 5.04364,6.72486 1.17443,1.6442 2.15009,3.42718 3.36243,5.04364 0.47552,0.63402 0.92935,1.43059 1.68121,1.68121 1.06329,0.35443 2.29914,-0.35443 3.36243,0 0.75186,0.25062 0.97235,1.32678 1.68121,1.68121 1.58506,0.79253 3.43033,0.94789 5.04364,1.68122 4.56313,2.07414 8.81484,4.81637 13.44971,6.72485 4.91601,2.02424 10.16882,3.13514 15.13092,5.04364 2.33915,0.89967 4.34725,2.56989 6.72485,3.36242 1.06329,0.35444 2.24162,0 3.36243,0 1.68121,0 3.36242,0 5.04364,0 1.61046,0 10.92849,0 11.76849,0 1.12081,0 2.24162,0 3.36243,0 0.5604,0 1.28494,-0.39626 1.68121,0 0.39626,0.39627 0,1.12081 0,1.68122"
       id="path3014"
       inkscape:connector-curvature="0" />
    <path
       style="fill:none;stroke:#000000;stroke-width:1px;stroke-linecap:butt;stroke-linejoin:miter;stroke-opacity:1"
       d="m 593.46828,822.03597 c -4.59951,-4.23977 -9.36133,-7.77945 -15.13092,-10.08728 -1.6454,-0.65817 -3.39823,-1.02306 -5.04364,-1.68122 -2.32695,-0.93078 -4.42129,-2.37518 -6.72485,-3.36242 -2.77386,-1.1888 -5.6483,-2.13676 -8.40607,-3.36243 -2.2902,-1.01787 -4.34726,-2.56989 -6.72485,-3.36243 -5.42175,-1.80725 -11.26774,-1.97633 -16.81213,-3.36242 -1.71925,-0.42981 -3.2956,-1.38988 -5.04364,-1.68122 -1.65834,-0.27639 -3.3853,0.27639 -5.04364,0 -1.74805,-0.29134 -3.2893,-1.43059 -5.04364,-1.68121 -2.21909,-0.31701 -4.48324,0 -6.72486,0 -3.36242,0 -6.72485,0 -10.08728,0 -2.24161,0 -4.50576,0.31701 -6.72485,0 -2.67347,-0.38192 -10.17292,-3.84696 -11.76849,-5.04364 -4.81107,-3.6083 -9.78282,-10.64917 -13.44971,-15.13092 -2.77161,-3.38753 -5.63445,-6.69975 -8.40606,-10.08728 -2.27228,-2.77722 -4.52183,-5.5736 -6.72486,-8.40606 -3.89499,-5.00785 -7.5214,-10.41194 -11.76849,-15.13092 -5.30176,-5.89084 -11.20809,-11.20809 -16.81213,-16.81214 -2.98464,-2.98463 -5.48183,-5.48183 -8.40607,-8.40606 -3.0571,-3.05711 -5.82262,-6.98452 -10.08728,-8.40607 -0.97388,-0.32463 -5.26794,0 -6.72485,0 5.25601,8.76001 5.50272,7.03504 6.72485,16.81213 0.20853,1.66823 -0.27639,3.38531 0,5.04364 0.29134,1.74805 1.38987,3.2956 1.68122,5.04364 0.27639,1.65834 0,3.36243 0,5.04364 0,1.68122 0,3.36243 0,5.04364 0,7.28526 0,14.57052 0,21.85578 0,2.24161 -0.24755,4.49694 0,6.72485 0.31555,2.84003 1.2771,5.57727 1.68121,8.40606 0.1585,1.10955 -0.27184,2.27509 0,3.36243 0.30392,1.21569 1.12081,2.24162 1.68121,3.36243 1.6412,3.2824 2.50769,5.36292 5.04364,8.40606 1.5221,1.82652 3.36243,3.36243 5.04364,5.04364 3.36243,3.36243 6.72485,6.72486 10.08728,10.08728 1.12081,1.12081 2.24162,2.24162 3.36243,3.36243 1.12081,1.12081 2.54692,2.00325 3.36242,3.36243 0.91177,1.51961 0.88869,3.45857 1.68122,5.04364 0.70886,1.41772 2.65356,1.9447 3.36242,3.36242 2.47375,4.94749 -3.89467,-2.21345 1.68122,3.36243"
       id="path3016"
       inkscape:connector-curvature="0" />
    <path
       style="fill:none;stroke:#000000;stroke-width:1px;stroke-linecap:butt;stroke-linejoin:miter;stroke-opacity:1"
       d="m 406.85361,825.39839 c 0,-3.92283 0,-7.84566 0,-11.76849 0,-1.68121 0.40775,-3.41262 0,-5.04364 -0.73194,-2.92776 -2.24162,-5.60404 -3.36243,-8.40607 -4.29321,-10.73302 -2.01279,-5.7068 -6.72485,-15.13092 -1.12081,-2.24161 -2.03414,-4.59959 -3.36243,-6.72485 -1.48507,-2.37611 -3.41499,-4.44475 -5.04364,-6.72485 -2.54515,-3.56322 -3.26452,-5.81082 -6.72485,-8.40607 -1.00248,-0.75186 -2.24162,-1.12081 -3.36243,-1.68121 -1.12081,-0.56041 -2.17363,-1.28495 -3.36242,-1.68121 -4.38407,-1.46136 -9.0063,-2.09289 -13.44971,-3.36243 -4.24688,-1.21339 -7.0106,-1.96696 -10.08728,-5.04364 -0.5604,-0.56041 -1.32678,-0.97235 -1.68121,-1.68121 -0.25062,-0.50125 0.25062,-1.17998 0,-1.68122 -8.06565,-16.1313 1.44359,9.25559 -5.04364,-13.4497 1.01331,-3.0429 -2.72347,-3.12677 -3.36243,-5.04364 -0.35443,-1.0633 0.35443,-2.29914 0,-3.36243 -0.25062,-0.75186 -1.43059,-0.92935 -1.68121,-1.68121 -0.35443,-1.0633 0.41626,-2.32178 0,-3.36243 -3.83672,-9.59179 -2.59574,-1.06237 -5.04364,-8.40607 -6.99792,-20.99376 3.82126,5.96132 -5.04364,-11.76849 -2.47375,-4.94749 3.89467,2.21346 -1.68121,-3.36243"
       id="path3018"
       inkscape:connector-curvature="0" />
  </g>
</svg>
