<?xml version="1.0" encoding="UTF-8" standalone="no"?>
<!-- Created with Inkscape (http://www.inkscape.org/) -->

<svg
   xmlns:dc="http://purl.org/dc/elements/1.1/"
   xmlns:cc="http://creativecommons.org/ns#"
   xmlns:rdf="http://www.w3.org/1999/02/22-rdf-syntax-ns#"
   xmlns:svg="http://www.w3.org/2000/svg"
   xmlns="http://www.w3.org/2000/svg"
   xmlns:sodipodi="http://sodipodi.sourceforge.net/DTD/sodipodi-0.dtd"
   xmlns:inkscape="http://www.inkscape.org/namespaces/inkscape"
   width="210mm"
   height="297mm"
   id="svg2"
   version="1.1"
   inkscape:version="0.48.5 r10040"
   sodipodi:docname="depois-de-um-tempo-o-bucho-da-rata.svg"
   inkscape:export-filename="/home/fredm/projetos/o-rato-anderson/um-dia-este-rato-encontrou-uma-rata.png"
   inkscape:export-xdpi="90"
   inkscape:export-ydpi="90">
  <defs
     id="defs4" />
  <sodipodi:namedview
     id="base"
     pagecolor="#ffffff"
     bordercolor="#666666"
     borderopacity="1.0"
     inkscape:pageopacity="0.0"
     inkscape:pageshadow="2"
     inkscape:zoom="0.52204368"
     inkscape:cx="353.8311"
     inkscape:cy="673.24388"
     inkscape:document-units="px"
     inkscape:current-layer="layer1"
     showgrid="false"
     inkscape:window-width="694"
     inkscape:window-height="735"
     inkscape:window-x="579"
     inkscape:window-y="31"
     inkscape:window-maximized="0" />
  <metadata
     id="metadata7">
    <rdf:RDF>
      <cc:Work
         rdf:about="">
        <dc:format>image/svg+xml</dc:format>
        <dc:type
           rdf:resource="http://purl.org/dc/dcmitype/StillImage" />
        <dc:title />
      </cc:Work>
    </rdf:RDF>
  </metadata>
  <g
     inkscape:label="Camada 1"
     inkscape:groupmode="layer"
     id="layer1">
    <path
       style="fill:none;stroke:#000000;stroke-width:1px;stroke-linecap:butt;stroke-linejoin:miter;stroke-opacity:1"
       d="m 340.96764,422.14672 c -4.46961,0 -8.93923,0 -13.40884,0 -0.63852,0 -1.27703,0 -1.91555,0 -0.63852,0 -1.34444,-0.28556 -1.91555,0 -0.80766,0.40383 -1.10788,1.51171 -1.91555,1.91555 -0.5711,0.28555 -1.46405,-0.4515 -1.91554,0 -0.4515,0.45149 0.28555,1.34444 0,1.91554 -0.40384,0.80767 -1.51172,1.10789 -1.91555,1.91555 -0.28556,0.57111 0.28555,1.34444 0,1.91555 -0.40384,0.80767 -1.51172,1.10788 -1.91555,1.91555 -0.76622,1.53244 0.76622,4.21421 0,5.74665 -0.40383,0.80766 -1.51172,1.10788 -1.91555,1.91554 -0.40905,0.8181 0,8.82051 0,9.57775 0,0.90317 -0.0868,9.49092 0,9.57774 0.0616,0.0616 5.28207,0 5.74665,0 1.27703,0 2.55406,0 3.83109,0 0.63852,0 1.38427,0.35418 1.91555,0 1.50268,-1.00179 2.55407,-2.55407 3.8311,-3.8311 1.27703,-1.27703 2.7475,-2.3863 3.8311,-3.8311 0.85665,-1.14221 1.12356,-2.64312 1.91554,-3.83109 1.16251,-1.74375 4.89774,-4.04882 5.74665,-5.74665 0.28555,-0.5711 -0.4515,-1.46405 0,-1.91555 0.4515,-0.4515 1.34444,0.28556 1.91555,0 7.97205,-3.98602 -2.04779,0.13224 1.91555,-3.83109 0.4515,-0.4515 1.46405,0.4515 1.91554,0 0.4515,-0.4515 0,-1.27704 0,-1.91555 0,-5.63871 0.32852,-1.36803 -5.74664,-11.49329 z"
       id="path3022"
       inkscape:connector-curvature="0" />
    <path
       style="fill:none;stroke:#000000;stroke-width:1px;stroke-linecap:butt;stroke-linejoin:miter;stroke-opacity:1"
       d="m 308.40331,387.66684 c -2.55406,0 -7.66219,2.55407 -7.66219,0 0,-2.55406 9.46819,-1.80599 7.66219,0 -2.3022,2.30221 -6.78591,0.24045 -9.57774,1.91555 -0.26904,0.16142 0,9.18316 0,9.57774 0,5.10813 0,10.21626 0,15.32439 0,0.63852 0,1.27704 0,1.91555 0,0.63852 -0.4515,1.46405 0,1.91555 0.4515,0.4515 1.27703,0 1.91555,0 4.46961,0 8.93923,0 13.40884,0 1.27703,0 2.9281,0.903 3.8311,0 0.903,-0.903 -0.30973,-2.59219 0,-3.8311 0.34628,-1.38513 1.46405,-2.4766 1.91555,-3.83109 0.20191,-0.60575 0,-1.27704 0,-1.91555 0.63851,-0.63852 1.51171,-1.10789 1.91554,-1.91555 0.28556,-0.57111 -0.28555,-1.34444 0,-1.91555 0.40384,-0.80767 1.51172,-1.10788 1.91555,-1.91555 0.24764,-0.49526 0,-10.13554 0,-11.49329"
       id="path3024"
       inkscape:connector-curvature="0" />
    <path
       style="fill:none;stroke:#000000;stroke-width:1px;stroke-linecap:butt;stroke-linejoin:miter;stroke-opacity:1"
       d="m 363.95422,391.49794 c -7.47518,0 -7.26547,-1.806 -11.49329,3.8311 -0.85666,1.14221 -1.12357,2.64312 -1.91555,3.83109 -0.50089,0.75134 -1.51171,1.10789 -1.91555,1.91555 -2.73895,5.47791 -1.91555,11.35074 -1.91555,17.23994 0,4.46961 0,8.93923 0,13.40884 0,0.63852 -0.45149,1.46405 0,1.91555 0.18593,0.18593 8.84779,0 9.57775,0 0.63851,0 1.34444,0.28555 1.91555,0 0.50859,-0.2543 5.49234,-5.23805 5.74664,-5.74665 0.28555,-0.5711 -0.28555,-1.34444 0,-1.91555 0.80767,-1.61533 3.02343,-2.21576 3.8311,-3.83109 0.5711,-1.14222 -0.903,-2.9281 0,-3.8311 0.4515,-0.4515 1.46405,0.4515 1.91555,0 0.4515,-0.4515 -0.28556,-1.34444 0,-1.91555 0.40383,-0.80766 1.51171,-1.10788 1.91555,-1.91555 0.24763,-0.49526 0,-10.13554 0,-11.49329 0,-2.55406 0,-5.10813 0,-7.66219 0,-0.63852 0.5711,-1.63 0,-1.91555 -2.35474,-1.17737 -5.10813,-1.27703 -7.6622,-1.91555 z"
       id="path3026"
       inkscape:connector-curvature="0" />
    <path
       style="fill:none;stroke:#000000;stroke-width:1px;stroke-linecap:butt;stroke-linejoin:miter;stroke-opacity:1"
       d="m 308.40331,358.93362 c 2.55407,-3.19259 5.39431,-6.17591 7.6622,-9.57775 0.35418,-0.53127 0,-1.27703 0,-1.91555 0,-3.83109 0,-7.66219 0,-11.49329 0,-1.91555 0.85666,-4.03332 0,-5.74664 -0.63852,-1.27703 -2.82152,-0.90597 -3.8311,-1.91555 -1.00958,-1.00958 -0.90596,-2.82152 -1.91555,-3.8311 -7.47587,-7.47588 -1.02874,0.44341 -5.74664,-1.91555 -0.80767,-0.40383 -1.05889,-1.62999 -1.91555,-1.91555 -1.02981,-0.34327 -6.0404,0 -7.6622,0 -5.10812,0 -10.21625,0 -15.32438,0 -3.8311,0 -7.6622,0 -11.49329,0 -0.63852,0 -1.46405,-0.45149 -1.91555,0 -0.0478,0.0478 0,8.85812 0,9.57775 0,7.02368 0,14.04735 0,21.07103 0,0.45519 -0.21467,7.23286 0,7.6622 0.40383,0.80766 1.51171,1.10788 1.91555,1.91554 0.28555,0.57111 -0.4515,1.46405 0,1.91555 0.45149,0.4515 1.46404,-0.4515 1.91554,0 0.4515,0.4515 -0.4515,1.46405 0,1.91555 0.4515,0.4515 1.46405,-0.4515 1.91555,0 0.4515,0.4515 -0.4515,1.46405 0,1.91555 0.4515,0.4515 1.27703,0 1.91555,0 5.10813,0 10.21626,0 15.32439,0 0.63852,0 1.27703,0 1.91555,0 0.63851,0 1.46405,-0.4515 1.91555,0 0.4515,0.4515 -0.4515,1.46405 0,1.91555 0.4515,0.4515 1.91554,-0.63852 1.91554,0 0,0.63851 -1.27703,0 -1.91554,0"
       id="path3028"
       inkscape:connector-curvature="0" />
    <path
       style="fill:none;stroke:#000000;stroke-width:1px;stroke-linecap:butt;stroke-linejoin:miter;stroke-opacity:1"
       d="m 352.46093,355.10252 c 0,-14.04736 0,-28.09471 0,-42.14207 0,-3.19258 0,-6.38516 0,-9.57774 0,-0.63852 -0.4515,-1.46405 0,-1.91555 0.4515,-0.4515 1.27703,0 1.91555,0 1.27703,0 2.55406,0 3.8311,0 10.21625,0 20.43251,0 30.64877,0 7.02368,0 14.04736,0 21.07104,0 0.63851,0 1.27703,0 1.91554,0 0.63852,0 1.46405,-0.4515 1.91555,0 0.4515,0.4515 0,1.27703 0,1.91555 0,0.63851 0,1.27703 0,1.91555 0,6.38516 0,12.77032 0,19.15548 0,6.38516 0,12.77033 0,19.15549 0,1.62562 0.352,10.43729 0,11.49329 -0.28555,0.85666 -1.51171,1.10788 -1.91555,1.91555 -0.28555,0.5711 0.28556,1.34444 0,1.91555 -0.40383,0.80766 -1.51171,1.10788 -1.91554,1.91554 -0.28556,0.57111 0.28555,1.34445 0,1.91555 -0.2543,0.5086 -5.23805,5.49235 -5.74665,5.74665 -0.57111,0.28555 -1.34444,-0.28555 -1.91555,0 -0.80766,0.40383 -1.10788,1.51171 -1.91555,1.91555 -0.50367,0.25184 -6.66051,0 -7.66219,0 -5.10813,0 -10.21626,0 -15.32439,0"
       id="path3030"
       inkscape:connector-curvature="0" />
    <path
       style="fill:none;stroke:#000000;stroke-width:1px;stroke-linecap:butt;stroke-linejoin:miter;stroke-opacity:1"
       d="m 390.7719,414.48452 c 10.21626,0 20.43252,0 30.64878,0 4.46961,0 8.93922,0 13.40884,0 0.45519,0 7.23286,-0.21466 7.66219,0 1.72519,0.86259 5.53115,7.33896 5.74665,7.6622 1.27703,1.91555 2.80152,3.68749 3.83109,5.74664 0.903,1.806 0.8767,4.01523 1.91555,5.74665 10.23362,17.05603 -3.90726,-15.50211 7.6622,11.49329 0.79538,1.85591 1.27703,3.8311 1.91554,5.74664 1.27227,3.8168 3.35005,9.56042 3.8311,13.40884 0.31679,2.53435 -0.28205,5.12376 0,7.6622 0.35955,3.23589 1.55601,6.34185 1.91555,9.57774 0.28205,2.53844 -0.28205,5.12375 0,7.6622 0.35954,3.23589 1.62078,6.3353 1.91555,9.57774 0.34685,3.81536 0,7.66219 0,11.49329 0,10.21626 0,20.43252 0,30.64878 0,1.91554 0,3.83109 0,5.74664 0,0.63852 0,1.27703 0,1.91555 0,0.63852 0.4515,1.46405 0,1.91555 -0.4515,0.4515 -1.27703,0 -1.91555,0 -3.67299,0 -2.96566,0.86544 -5.74665,-1.91555"
       id="path3032"
       inkscape:connector-curvature="0" />
    <path
       style="fill:none;stroke:#000000;stroke-width:1px;stroke-linecap:butt;stroke-linejoin:miter;stroke-opacity:1"
       d="m 471.22494,552.40402 c 6.35501,0 6.90665,-1.14222 11.49329,1.91555 1.50268,1.00178 2.21576,3.02343 3.8311,3.83109 0.5711,0.28556 1.46405,-0.4515 1.91555,0 0.45149,0.4515 -0.4515,1.46405 0,1.91555 0.45149,0.4515 1.46405,-0.4515 1.91554,0 0.4515,0.4515 -0.45149,1.46405 0,1.91555 0.4515,0.4515 1.46405,-0.4515 1.91555,0 0.4515,0.4515 -0.28555,1.34444 0,1.91555 0.80767,1.61533 3.02343,2.21576 3.8311,3.8311 0.28555,0.5711 -0.20192,1.30979 0,1.91554 0.4515,1.3545 1.46405,2.4766 1.91555,3.8311 0.34557,1.03671 0,7.00962 0,7.66219 0,5.10813 0,10.21626 0,15.32439 0,4.46962 0,8.93923 0,13.40884 0,1.91555 1.01524,4.12227 0,5.74665 -6.64338,10.6294 -9.63695,7.7214 -17.23994,15.32439 -7.53976,7.53976 -0.0797,3.8909 -7.66219,9.57774 -1.14221,0.85666 -2.68889,1.05889 -3.8311,1.91555 -2.1672,1.62539 -3.8311,3.83109 -5.74665,5.74664 -6.90211,6.90212 -9.53854,8.97445 -15.32438,17.23994 -2.13509,3.05013 -3.77338,6.42051 -5.74665,9.57774 -1.22016,1.95227 -2.64662,3.77253 -3.8311,5.74665 -0.73458,1.2243 -1.12356,2.64312 -1.91554,3.8311 -0.5009,0.75134 -1.51172,1.10788 -1.91555,1.91554 -0.28556,0.57111 0,1.27704 0,1.91555 0,0.63852 0,1.27703 0,1.91555 0,3.19258 0,6.38516 0,9.57774 0,3.19258 0,6.38517 0,9.57775 0,1.27703 0,2.55406 0,3.83109 0,0.63852 -0.35419,1.38427 0,1.91555 3.27286,4.90929 4.3382,3.65083 9.57774,5.74665 1.27703,0.63851 2.55406,1.27703 3.8311,1.91555 0.63851,0.63851 1.10788,1.51171 1.91555,1.91554 1.53243,0.76622 4.2142,-0.76621 5.74664,0 0.57111,0.28556 -0.57111,1.63 0,1.91555 1.20397,0.60199 6.45823,-0.60198 7.66219,0 0.80767,0.40384 1.10789,1.51172 1.91555,1.91555 1.04759,0.52379 4.44303,-0.3259 5.74665,0 10.89286,2.72322 0.28285,1.91555 13.40884,1.91555 10.89372,0 1.26112,-0.85666 9.57774,1.91555 0.36838,0.12279 5.74665,-0.0982 5.74665,0 0,0.63851 -1.91555,0.63851 -1.91555,0 0,-0.63852 2.55406,0 1.91555,0 -14.04736,0 -28.09471,0 -42.14207,0 -4.46961,0 -8.93923,0 -13.40884,0 -0.63852,0 -1.27703,0 -1.91555,0 -0.63852,0 -1.34444,0.28555 -1.91555,0 -0.80766,-0.40383 -1.27703,-1.27703 -1.91555,-1.91555 -0.63851,-0.63852 -1.41465,-1.16421 -1.91554,-1.91555 -0.79199,-1.18797 -0.90597,-2.82151 -1.91555,-3.8311 -1.00959,-1.00958 -2.68889,-1.05888 -3.8311,-1.91554 -13.7785,-10.33388 4.04253,2.12698 -5.74665,-7.6622 -0.45149,-0.4515 -1.46405,0.4515 -1.91554,0 -0.4515,-0.4515 0.45149,-1.46405 0,-1.91555 -0.4515,-0.4515 -1.63,0.57111 -1.91555,0 -0.60199,-1.20396 0.60198,-6.45823 0,-7.66219 -0.40384,-0.80767 -1.51172,-1.10788 -1.91555,-1.91555 -0.62717,-1.25433 0.56664,-7.87782 0,-9.57774 -0.4515,-1.3545 -1.56927,-2.44596 -1.91555,-3.8311 -0.61945,-2.47781 0.80767,-5.23919 0,-7.66219 -0.28555,-0.85666 -1.63,-1.05889 -1.91555,-1.91555 -0.36323,-1.08968 0,-7.77361 0,-9.57774 0,-2.55407 0,-5.10813 0,-7.6622 0,-1.27703 -0.30972,-2.59219 0,-3.8311 1.02163,-4.0865 3.55378,-10.11954 5.74665,-13.40884 1.42785,-2.14177 5.57724,-5.57724 7.66219,-7.66219 0.63852,-0.63852 1.51172,-1.10788 1.91555,-1.91555 0.28555,-0.5711 -0.4515,-1.46405 0,-1.91555 0.4515,-0.4515 1.34444,0.28556 1.91555,0 0.80766,-0.40383 1.27703,-1.27703 1.91555,-1.91554 0.63851,-0.63852 1.41465,-1.16421 1.91555,-1.91555 0.79198,-1.18798 1.12356,-2.64313 1.91554,-3.8311 1.87912,-2.81868 5.78308,-4.84352 7.6622,-7.66219 0.79198,-1.18798 0.90596,-2.82152 1.91555,-3.8311 0.4515,-0.4515 1.34444,0.28555 1.91555,0 0.80766,-0.40383 1.10788,-1.51172 1.91554,-1.91555 0.57111,-0.28555 1.46405,0.4515 1.91555,0 0.4515,-0.4515 -0.4515,-1.46405 0,-1.91555 0.903,-0.903 2.68889,0.57111 3.8311,0 0.80767,-0.40383 1.16421,-1.41465 1.91555,-1.91555 1.01757,-0.67838 6.64462,-3.15271 7.66219,-3.83109 1.50268,-1.00179 2.21577,-3.02344 3.8311,-3.8311 0.57111,-0.28555 1.46405,0.4515 1.91555,0 0.4515,-0.4515 -0.28556,-1.34444 0,-1.91555 0.80766,-1.61533 2.7475,-2.3863 3.83109,-3.8311 1.27704,-1.91555 2.55407,-3.83109 3.8311,-5.74664 0,-0.63852 -0.28555,-1.34444 0,-1.91555 0.40383,-0.80767 1.51172,-1.10788 1.91555,-1.91555 0.21467,-0.42933 0,-7.207 0,-7.66219 0,-1.35775 0.24763,-10.99803 0,-11.49329 -0.40383,-0.80767 -1.10788,-1.51172 -1.91555,-1.91555 -0.5711,-0.28556 -1.27703,0 -1.91555,0 -1.27703,-0.63852 -2.64312,-1.12357 -3.83109,-1.91555 -0.75134,-0.5009 -1.10789,-1.51172 -1.91555,-1.91555 -0.57111,-0.28555 -1.79033,0.62612 -1.91555,0 -0.62612,-3.13058 3.13058,-8.95163 0,-9.57774 -4.0091,-0.80182 -6.38516,5.10813 -9.57774,7.66219"
       id="path3034"
       inkscape:connector-curvature="0" />
    <path
       style="fill:none;stroke:#000000;stroke-width:1px;stroke-linecap:butt;stroke-linejoin:miter;stroke-opacity:1"
       d="m 467.39384,592.63054 c 0,-5.08853 0.80767,-8.87015 -1.91555,-13.40884 -0.92918,-1.54863 -2.55406,-2.55407 -3.8311,-3.8311 -6.73255,-6.73256 -1.24792,-1.60913 -11.49329,-9.57774 -3.22726,-2.5101 -6.35047,-5.1521 -9.57774,-7.6622 -11.0439,-8.5897 -3.51629,-3.70517 -13.40884,-7.66219 -2.65129,-1.06052 -4.89192,-3.13853 -7.66219,-3.8311 -1.23891,-0.30972 -2.55407,0 -3.8311,0 -3.19258,0 -6.38516,0 -9.57774,0 -1.91555,0 -3.8311,0 -5.74665,0 -0.63851,0 -1.46405,-0.4515 -1.91555,0 -0.4515,0.4515 0.20192,1.3098 0,1.91555 -0.63851,1.27703 -1.27703,2.55406 -1.91555,3.8311 0,0.63851 0.20192,1.3098 0,1.91555 -0.45149,1.35449 -1.46404,2.47659 -1.91554,3.83109 -0.37681,1.13042 0,8.50748 0,9.57774 0,5.74665 0,11.4933 0,17.23994 0,1.27703 0,2.55407 0,3.8311 0,0.63851 -0.28556,1.34444 0,1.91555 0.18333,0.36667 7.29551,7.47885 7.66219,7.66219 0.57111,0.28555 1.34444,-0.28555 1.91555,0 1.61533,0.80767 2.32842,2.82931 3.8311,3.8311 1.18797,0.79198 2.4766,1.46405 3.83109,1.91555 0.60575,0.20191 1.46405,-0.4515 1.91555,0 0.4515,0.4515 -0.4515,1.46405 0,1.91555 0.903,0.90299 2.68889,-0.57111 3.8311,0 6.35307,6.35307 -1.806,-0.903 3.8311,1.91554 0.80766,0.40384 1.10788,1.51172 1.91554,1.91555 1.14222,0.57111 2.9281,-0.903 3.8311,0 2.55407,2.55407 -3.19258,1.91555 1.91555,1.91555"
       id="path3038"
       inkscape:connector-curvature="0" />
    <path
       style="fill:none;stroke:#000000;stroke-width:1px;stroke-linecap:butt;stroke-linejoin:miter;stroke-opacity:1"
       d="m 294.99447,466.20433 c -1.17061,0.81847 0.67449,12.62644 0,15.32439 -0.48972,1.95888 -1.51956,3.76669 -1.91555,5.74665 -0.25044,1.25223 0.47428,2.6454 0,3.8311 -0.85501,2.13754 -2.80152,3.68749 -3.83109,5.74664 -0.63852,1.91555 -1.27704,3.8311 -1.91555,5.74665 0,0.63851 0.20191,1.3098 0,1.91555 -0.4515,1.35449 -1.63554,2.43105 -1.91555,3.83109 -0.37567,1.87835 0.31491,3.85716 0,5.74665 -0.33195,1.99169 -1.5836,3.75495 -1.91555,5.74664 -0.7348,4.4088 0.6321,8.98415 0,13.40884 -0.28555,1.99887 -1.5836,3.75496 -1.91555,5.74665 -0.31491,1.88948 0,3.8311 0,5.74664 0,0.63852 0.28556,1.34445 0,1.91555 -0.40383,0.80767 -1.51171,1.10788 -1.91555,1.91555 -0.34636,0.69273 0,8.2454 0,9.57774 0,3.8311 0,7.6622 0,11.49329 0,2.55407 -0.50089,5.15773 0,7.6622 0.396,1.97995 1.01255,3.94065 1.91555,5.74664 0.40384,0.80767 1.41466,1.16421 1.91555,1.91555 0.79198,1.18798 1.46405,2.4766 1.91555,3.8311 0.20192,0.60575 -0.4515,1.46405 0,1.91555 1.00958,1.00958 2.64312,1.12357 3.8311,1.91555 1.74375,1.1625 4.04882,4.89773 5.74664,5.74664 1.14221,0.57111 2.68889,-0.5711 3.8311,0 0.80767,0.40384 1.10788,1.51172 1.91555,1.91555 1.14221,0.57111 2.68888,-0.5711 3.8311,0 0.80766,0.40383 1.05888,1.63 1.91554,1.91555 2.423,0.80767 5.2392,-0.80767 7.6622,0 0.85666,0.28555 1.10788,1.51172 1.91555,1.91555 0.5711,0.28555 1.3098,-0.20192 1.91554,0 1.3545,0.4515 2.4766,1.46405 3.8311,1.91555 1.2023,0.40076 6.12011,0 7.6622,0 5.74664,0 11.49329,0 17.23993,0 4.46962,0 8.93923,0 13.40884,0 1.27703,0 2.55407,0 3.8311,0 0.63852,0 1.34444,0.28555 1.91555,0 8.76671,-4.38336 -8.12847,0.79394 5.74664,-3.8311 0.60575,-0.20192 1.27704,0 1.91555,0 0.63852,-0.63852 1.10788,-1.51172 1.91555,-1.91555 0.57111,-0.28555 1.34444,0.28555 1.91555,0 2.19602,-1.09801 2.66454,-3.99681 3.8311,-5.74664 1.00178,-1.50268 2.55406,-2.55407 3.83109,-3.8311 0.63852,-0.63852 1.41466,-1.16421 1.91555,-1.91555 0.79198,-1.18797 0.90597,-2.82151 1.91555,-3.8311 3.00161,-3.00161 5.74665,-0.40304 5.74665,-5.74664"
       id="path3049"
       inkscape:connector-curvature="0" />
  </g>
</svg>
