<?xml version="1.0" encoding="UTF-8" standalone="no"?>
<!-- Created with Inkscape (http://www.inkscape.org/) -->

<svg
   xmlns:dc="http://purl.org/dc/elements/1.1/"
   xmlns:cc="http://creativecommons.org/ns#"
   xmlns:rdf="http://www.w3.org/1999/02/22-rdf-syntax-ns#"
   xmlns:svg="http://www.w3.org/2000/svg"
   xmlns="http://www.w3.org/2000/svg"
   xmlns:sodipodi="http://sodipodi.sourceforge.net/DTD/sodipodi-0.dtd"
   xmlns:inkscape="http://www.inkscape.org/namespaces/inkscape"
   width="210mm"
   height="297mm"
   id="svg2"
   version="1.1"
   inkscape:version="0.48.5 r10040"
   sodipodi:docname="diferente-das-macacas-e-das-mulheres.svg"
   inkscape:export-filename="/home/fredm/projetos/o-rato-anderson/um-dia-este-rato-encontrou-uma-rata.png"
   inkscape:export-xdpi="90"
   inkscape:export-ydpi="90">
  <defs
     id="defs4" />
  <sodipodi:namedview
     id="base"
     pagecolor="#ffffff"
     bordercolor="#666666"
     borderopacity="1.0"
     inkscape:pageopacity="0.0"
     inkscape:pageshadow="2"
     inkscape:zoom="0.52204368"
     inkscape:cx="559.79747"
     inkscape:cy="446.35904"
     inkscape:document-units="px"
     inkscape:current-layer="layer1"
     showgrid="false"
     inkscape:window-width="1366"
     inkscape:window-height="715"
     inkscape:window-x="0"
     inkscape:window-y="31"
     inkscape:window-maximized="1" />
  <metadata
     id="metadata7">
    <rdf:RDF>
      <cc:Work
         rdf:about="">
        <dc:format>image/svg+xml</dc:format>
        <dc:type
           rdf:resource="http://purl.org/dc/dcmitype/StillImage" />
        <dc:title />
      </cc:Work>
    </rdf:RDF>
  </metadata>
  <g
     inkscape:label="Camada 1"
     inkscape:groupmode="layer"
     id="layer1">
    <path
       style="fill:none;stroke:#000000;stroke-width:1px;stroke-linecap:butt;stroke-linejoin:miter;stroke-opacity:1"
       d="m 197.3015,249.74735 c 0,3.8311 0,7.66219 0,11.49329 0,4.46961 -0.49359,8.96656 0,13.40884 0.31534,2.83807 3.13853,4.89192 3.8311,7.66219 0.30972,1.23891 -0.40384,2.6196 0,3.8311 0.5711,1.71332 3.02343,2.21577 3.83109,3.8311 0.28556,0.5711 -0.20191,1.3098 0,1.91555 0.4515,1.35449 1.27703,2.55406 1.91555,3.83109 0.63852,1.27704 1.12357,2.64313 1.91555,3.8311 0.50089,0.75134 1.69654,1.03951 1.91555,1.91555 0.46459,1.85835 -0.46459,3.88829 0,5.74665 0.21901,0.87603 1.69654,1.03951 1.91555,1.91554 0.34414,1.37659 0,9.38117 0,11.4933 0,1.54208 0.40076,6.45989 0,7.66219 -1.08736,3.26206 -2.74375,6.31568 -3.8311,9.57774 -0.20192,0.60575 0.4515,1.46405 0,1.91555 -0.4515,0.4515 -1.42503,-0.40877 -1.91555,0 -3.46851,2.89043 -6.38516,6.38516 -9.57774,9.57774 -0.63852,0.63852 -1.10788,1.51172 -1.91555,1.91555 -0.57111,0.28555 -1.3227,-0.23714 -1.91555,0 -2.65129,1.06052 -5.10813,2.55407 -7.66219,3.8311 -1.27704,0.63851 -2.4766,1.46405 -3.8311,1.91555 -1.2115,0.40383 -2.59219,-0.30973 -3.8311,0 -4.46961,1.27703 -8.93922,2.55406 -13.40884,3.83109 -1.27703,0 -2.57144,-0.20994 -3.83109,0 -9.59864,1.59978 -6.59208,2.76632 -17.23994,3.8311 -5.08278,0.50828 -10.21626,0 -15.32439,0 -0.63851,0 -1.28572,-0.10497 -1.91555,0 -3.2115,0.53525 -6.36623,1.3803 -9.57774,1.91555 -1.25966,0.20994 -2.55406,0 -3.8311,0 -6.38516,0 -12.77032,0 -19.155482,0 -1.915549,0 -3.831097,0 -5.746646,0 -0.638516,0 -1.277032,0 -1.915548,0 -0.638516,0 -1.46405,-0.4515 -1.915549,0 -0.902998,0.903 0.571106,2.68888 0,3.8311 -1.029576,2.05915 -2.449775,3.90488 -3.831097,5.74664 -0.541799,0.7224 -1.629995,1.05889 -1.915548,1.91555 -0.403833,1.2115 0.277027,2.58448 0,3.8311 -1.277033,4.46961 -2.554065,8.93922 -3.831097,13.40884 -0.638517,0.63851 -1.629996,1.05889 -1.915549,1.91555 -0.403833,1.2115 0.1806,2.5669 0,3.83109 -0.460441,3.22309 -1.380297,6.36624 -1.915548,9.57775 -0.104972,0.62982 0,1.27703 0,1.91554 0,3.8311 0.423073,7.68563 0,11.4933 -0.22298,2.00681 -1.5836,3.75495 -1.915549,5.74664 -0.314914,1.88949 0.270899,3.85035 0,5.74665 -0.372316,2.60621 -1.48274,5.06534 -1.915549,7.66219 -0.209942,1.25966 0.1806,2.5669 0,3.8311 -0.46044,3.22308 -1.620781,6.33531 -1.915548,9.57774 -0.346851,3.81536 0.346851,7.67793 0,11.49329 -1.293197,14.22517 -2.046629,4.74866 -3.831097,17.23994 -0.632099,4.42469 0.444743,8.96141 0,13.40884 -0.386467,3.86467 -1.638829,7.61922 -1.915549,11.49329 -0.545908,7.64272 0,15.32439 0,22.98658 0,8.30071 0,16.60142 0,24.90213 0,34.47988 0,68.95975 0,103.43962 0,5.10813 0,10.21626 0,15.32439 0,0.63852 -0.451499,1.46405 0,1.91555 0.451499,0.4515 1.277033,0 1.915549,0"
       id="path3082"
       inkscape:connector-curvature="0" />
    <path
       style="fill:none;stroke:#000000;stroke-width:1px;stroke-linecap:butt;stroke-linejoin:miter;stroke-opacity:1"
       d="m 306.48776,255.494 c -2.55406,0 -5.61894,-1.53244 -7.66219,0 -3.68352,2.76264 -4.71453,7.95608 -7.66219,11.49329 -0.40877,0.49052 -1.46405,-0.4515 -1.91555,0 -0.903,0.90299 0.40383,2.61959 0,3.83109 -0.4515,1.3545 -1.27703,2.55407 -1.91555,3.8311 -1.91555,3.8311 -3.62154,7.77435 -5.74665,11.49329 -0.44801,0.78402 -1.51171,1.10788 -1.91554,1.91555 -0.28556,0.57111 0.13851,1.29224 0,1.91555 -1.14222,5.13995 -2.4457,10.24458 -3.8311,15.32439 -1.06256,3.89603 -2.85166,7.57553 -3.8311,11.49329 -0.31881,1.27526 0,11.19337 0,11.49329 0,4.46961 0,8.93923 0,13.40884 0,0.63852 -0.4515,1.46405 0,1.91555 1.00958,1.00958 2.55407,1.27703 3.8311,1.91555 1.27703,0.63851 2.4766,1.46405 3.8311,1.91554 1.21149,0.40384 2.68888,-0.5711 3.83109,0 0.80767,0.40384 1.10788,1.51172 1.91555,1.91555 0.57111,0.28556 1.27703,0 1.91555,0 0.63852,0 1.27703,0 1.91555,0 3.19258,0 6.38516,0 9.57774,0 16.60142,0 33.20284,0 49.80426,0 8.30071,0 16.60142,0 24.90213,0 0.64064,0 7.59553,-0.0533 7.6622,0 2.82049,2.2564 5.34985,4.88739 7.66219,7.6622 0.91403,1.09684 1.27703,2.55406 1.91555,3.83109 1.27703,2.55407 3.04662,4.91654 3.8311,7.6622 0.52624,1.84184 -0.37567,3.86829 0,5.74664 0.28,1.40004 1.63554,2.43106 1.91555,3.8311 0.62342,3.11713 -0.35008,6.42704 0,9.57774 0.56848,5.1164 1.44948,10.19765 1.91554,15.32439 0.28905,3.17947 0,6.38516 0,9.57774 0,7.6622 0,15.32439 0,22.98659 0,17.87845 0,35.7569 0,53.63536 0,5.10812 0,10.21625 0,15.32438 0,3.8311 0.31816,7.67543 0,11.49329 -0.32254,3.87053 -1.56391,7.6253 -1.91554,11.4933 -0.28905,3.17947 0.35256,6.40468 0,9.57774 -0.29073,2.61657 -1.51524,5.06014 -1.91555,7.66219 -2.96961,19.30246 -0.95687,16.27578 -3.8311,36.39542 -0.37232,2.60621 -1.27703,5.10813 -1.91555,7.6622 -0.63852,2.55406 -1.14132,5.14594 -1.91555,7.66219 -1.78142,5.78963 -4.35924,11.34347 -5.74664,17.23994 -1.17907,5.01104 -0.96686,10.26468 -1.91555,15.32439 -0.97034,5.17515 -3.17801,10.09971 -3.8311,15.32439 -0.63358,5.06868 0,10.21626 0,15.32438 -0.63851,7.6622 -0.77499,15.3829 -1.91555,22.98659 -0.78106,5.20708 -2.16605,10.32925 -3.83109,15.32439 -3.78459,11.35376 -3.8311,3.99413 -3.8311,11.49329"
       id="path3084"
       inkscape:connector-curvature="0" />
    <path
       style="fill:none;stroke:#000000;stroke-width:1px;stroke-linecap:butt;stroke-linejoin:miter;stroke-opacity:1"
       d="m 107.27072,680.74577 c 0,-22.98658 0,-45.97317 0,-68.95975 0,-12.13181 0,-24.26361 0,-36.39542 0,-6.96038 -0.47599,-16.32278 0,-22.98658 0.36677,-5.1348 1.34706,-10.208 1.91555,-15.32439 0.0705,-0.63461 -0.15487,-1.2961 0,-1.91555 1.12742,-4.50968 3.12426,-8.81443 3.83109,-13.40884 0.58255,-3.78655 -0.38121,-7.68121 0,-11.49329 2.07041,-20.70412 1.91555,-2.01663 1.91555,-9.57774 0,-1.27704 -0.40383,-2.6196 0,-3.8311 0.4515,-1.3545 1.46405,-2.4766 1.91555,-3.8311 2.74636,-8.23908 4.43676,-16.83853 7.66219,-24.90213 1.91555,-4.78887 3.8311,-5.74664 5.74665,-11.49329 1.02958,-3.08873 0.88597,-6.48901 1.91555,-9.57774 0.28555,-0.85666 1.51171,-1.10788 1.91555,-1.91555 0.28555,-0.57111 -0.63852,-1.91555 0,-1.91555 0.63851,0 -0.63852,1.91555 0,1.91555 1.12029,0 2.61187,-4.35399 3.83109,-1.91555 1.17737,2.35473 1.08303,5.16463 1.91555,7.6622 0.4515,1.35449 1.46405,2.47659 1.91555,3.83109 0.20192,0.60575 -0.20192,1.3098 0,1.91555 0.4515,1.3545 1.63554,2.43106 1.91555,3.8311 0,10.89372 -0.85666,1.26112 1.91555,9.57774 0.20191,0.60575 0,1.27703 0,1.91555 0,3.19258 0,6.38516 0,9.57774 0,5.74665 0,11.49329 0,17.23994 0,11.49329 0,22.98658 0,34.47987 0,3.44204 0.49331,12.85782 0,15.32439 -0.17709,0.88546 -1.69654,1.03951 -1.91555,1.91555 -0.46459,1.85835 0.23759,3.84589 0,5.74664 -0.40383,3.23067 -1.45511,6.35466 -1.91555,9.57775 -0.1806,1.26419 0,2.55406 0,3.83109 0,3.19258 0,6.38517 0,9.57775 0,1.27703 0.20994,2.57144 0,3.83109 -0.43281,2.59685 -1.54323,5.05599 -1.91555,7.6622 -0.2709,1.89629 0,3.83109 0,5.74664 0,6.38516 0,12.77033 0,19.15549 0,3.8311 0.47519,7.69178 0,11.49329 -0.32654,2.61234 -1.54323,5.05598 -1.91555,7.66219 -0.2709,1.8963 0,3.8311 0,5.74665 0,2.55406 0,5.10813 0,7.66219 0,3.19258 0,6.38517 0,9.57775 0,0.63851 0,1.27703 0,1.91554 0,0.63852 0.28556,1.34445 0,1.91555 -0.40383,0.80767 -1.69654,1.03951 -1.91554,1.91555 -0.46459,1.85836 0,3.8311 0,5.74665 0,7.02368 0,14.04735 0,21.07103"
       id="path3086"
       inkscape:connector-curvature="0" />
    <path
       style="fill:none;stroke:#000000;stroke-width:1px;stroke-linecap:butt;stroke-linejoin:miter;stroke-opacity:1"
       d="m 333.30544,692.23906 c -0.63851,-2.55407 -1.54323,-5.05598 -1.91554,-7.66219 -0.4515,-3.1605 0,-6.38517 0,-9.57775 0,-5.10813 0,-10.21626 0,-15.32439 0,-13.40884 0,-26.81767 0,-40.22651 0,-10.85478 0,-21.70955 0,-32.56433 0,-5.10813 0,-10.21626 0,-15.32439 0,-1.27703 -0.20995,-2.57144 0,-3.83109 0.4328,-2.59685 1.48274,-5.06535 1.91554,-7.6622 1.0642,-6.38516 -1.59629,-1.59629 0,-9.57774 0.56002,-2.80008 3.36165,-4.84552 3.8311,-7.6622 0.41989,-2.51931 -0.3612,-5.13379 0,-7.66219 0.28555,-1.99887 1.63,-3.74777 1.91555,-5.74665 0.3612,-2.52839 -0.41989,-5.14288 0,-7.66219 0.23472,-1.40834 1.38529,-2.50545 1.91555,-3.8311 0.7499,-1.87474 1.51956,-3.76669 1.91555,-5.74664 0.62611,-3.13059 -0.4515,-6.41725 0,-9.57774 0.37231,-2.60621 1.19229,-5.13082 1.91554,-7.6622 0.55471,-1.94147 1.5836,-3.75495 1.91555,-5.74664 0.31492,-1.88949 0,-3.8311 0,-5.74665 0,-5.10813 0,-10.21626 0,-15.32439 0,-0.7982 0.35343,-10.96316 0,-11.49329 -1.00178,-1.50268 -2.21576,-3.02343 -3.83109,-3.8311 -0.45045,-0.22522 -6.40383,0 -7.6622,0 -0.43483,0 -5.73801,-0.0115 -5.74664,0 -11.08883,14.78511 -2.27207,3.34164 -3.8311,9.57775 -3.98603,15.9441 0.13224,-2.31228 -3.8311,9.57774 -0.36025,1.08075 0,4.48792 0,5.74664 0,4.46962 0.55439,8.97375 0,13.40884 -0.112,0.89603 -1.62999,1.05889 -1.91555,1.91555 -0.40383,1.2115 0,2.55407 0,3.8311 0,3.8311 0.25484,7.67068 0,11.49329 -0.38461,5.7692 -0.70405,11.58627 -1.91554,17.23994 -0.72047,3.36219 -2.99714,6.24189 -3.8311,9.57774 -0.46459,1.85836 0.31491,3.85716 0,5.74665 -0.33195,1.99169 -1.51956,3.76669 -1.91555,5.74664 -0.50089,2.50447 0,5.10813 0,7.6622 0,5.74664 0,11.49329 0,17.23993 0,2.55407 0.3612,5.1338 0,7.6622 -0.28555,1.99887 -1.63,3.74777 -1.91555,5.74664 -0.3612,2.5284 0.25414,5.12081 0,7.6622 -0.38647,3.86466 -1.40223,7.64342 -1.91555,11.49329 -0.76417,5.73129 -1.03635,11.52516 -1.91555,17.23993 -0.40031,2.60206 -1.54323,5.05599 -1.91554,7.6622 -0.2709,1.89629 0.37567,3.86829 0,5.74664 -0.56002,2.80008 -3.27109,4.86212 -3.8311,7.6622 -0.75134,3.7567 0.5418,7.7007 0,11.49329 -0.37232,2.60621 -1.54323,5.05598 -1.91555,7.66219 -0.2709,1.8963 0,3.8311 0,5.74665 0,4.46961 0.44474,8.96141 0,13.40884 -0.38647,3.86467 -1.15384,7.68477 -1.91555,11.49329 -0.51631,2.58154 -1.1923,5.13082 -1.91555,7.66219 -0.5547,1.94148 -1.51955,3.76669 -1.91555,5.74665 -0.25044,1.25223 0.57111,2.68888 0,3.8311 -2.55406,5.10813 -1.91554,-5.74665 -1.91554,1.91554"
       id="path3088"
       inkscape:connector-curvature="0" />
    <path
       style="fill:none;stroke:#000000;stroke-width:1px;stroke-linecap:butt;stroke-linejoin:miter;stroke-opacity:1"
       d="m 151.32833,443.21775 c 0,19.794 0,39.588 0,59.38201 0,3.83109 0,7.66219 0,11.49329 0,0.63851 0,1.27703 0,1.91554 0,0.63852 -0.28555,1.34445 0,1.91555 0.78789,1.57578 6.71772,6.24549 7.6622,7.6622 0.35418,0.53128 -0.51082,1.53244 0,1.91555 2.28442,1.71331 5.37777,2.11777 7.66219,3.83109 0.51081,0.38311 0,1.27704 0,1.91555 0.63852,0.63852 1.10788,1.51172 1.91555,1.91555 0.57111,0.28555 1.34444,-0.28555 1.91555,0 6.35307,6.35307 -1.806,-0.903 3.8311,1.91555 0.80766,0.40383 1.10788,1.51171 1.91554,1.91555 0.57111,0.28555 1.46405,-0.4515 1.91555,0 0.4515,0.4515 -0.4515,1.46405 0,1.91555 0.4515,0.45149 1.27704,0 1.91555,0 3.19258,0 6.38516,0 9.57774,0 5.74665,0 11.4933,0 17.23994,0 1.32273,0 7.0798,0.29119 7.6622,0 0.50859,-0.2543 5.49234,-5.23805 5.74664,-5.74665 1.02163,-2.04325 -1.8963,-2.56048 1.91555,-3.8311 1.2115,-0.40383 2.6196,0.40384 3.8311,0 1.71331,-0.5711 2.21576,-3.02343 3.83109,-3.83109 0.57111,-0.28556 1.34445,0.28555 1.91555,0 0.62377,-0.31189 6.98878,-6.82043 7.6622,-7.6622 1.99439,-2.49298 4.62565,-4.67289 5.74664,-7.66219 0.89679,-2.39145 -0.31679,-5.12785 0,-7.6622 0.32654,-2.61234 1.48274,-5.06534 1.91555,-7.66219 0.20994,-1.25966 -0.30973,-2.59219 0,-3.8311 0.34628,-1.38513 1.46405,-2.4766 1.91555,-3.83109 0.16264,-0.48793 0,-7.14416 0,-1.91555"
       id="path3090"
       inkscape:connector-curvature="0" />
    <path
       style="fill:none;stroke:#000000;stroke-width:1px;stroke-linecap:butt;stroke-linejoin:miter;stroke-opacity:1"
       d="m 264.3457,473.86653 c -2.82068,17.10339 -1.91555,34.4622 -1.91555,51.71981 0,0.75724 -0.40905,8.75964 0,9.57774 0.40383,0.80767 1.51171,1.10788 1.91555,1.91555 0.28555,0.5711 -0.4515,1.46405 0,1.91555 7.47587,7.47587 1.02874,-0.44341 5.74664,1.91555 0.80767,0.40383 1.10788,1.51171 1.91555,1.91554 0.57111,0.28556 1.27703,0 1.91555,0 1.27703,0 2.6196,-0.40383 3.8311,0 0.85666,0.28556 1.05889,1.63 1.91555,1.91555 1.21149,0.40384 2.55406,0 3.83109,0 1.27703,0 2.55407,0 3.8311,0 5.74664,0 11.49329,0 17.23994,0 6.38516,0 12.77032,0 19.15548,0 1.91555,0 3.8311,0 5.74665,0 1.27703,0 2.68888,0.57111 3.83109,0 3.36926,-1.68463 10.14136,-13.18412 11.49329,-17.23993 0.20192,-0.60575 -0.20191,-1.3098 0,-1.91555 0.4515,-1.3545 1.46405,-2.4766 1.91555,-3.8311 0.20192,-0.60575 -0.20191,-1.3098 0,-1.91555 0.4515,-1.3545 1.68083,-2.42276 1.91555,-3.8311 0.41989,-2.51931 -0.3612,-5.13379 0,-7.66219 0.28556,-1.99887 1.36084,-3.80517 1.91555,-5.74664 0.72325,-2.53138 1.48274,-5.06535 1.91555,-7.6622 0.20994,-1.25966 0,-2.55406 0,-3.8311 0,-3.19258 0,-6.38516 0,-9.57774 0,-9.57774 0,-19.15548 0,-28.73323"
       id="path3092"
       inkscape:connector-curvature="0" />
    <path
       style="fill:none;stroke:#000000;stroke-width:1px;stroke-linecap:butt;stroke-linejoin:miter;stroke-opacity:1"
       d="m 195.38595,491.10646 c -2.55406,-1.91554 -9.57774,-3.19258 -7.66219,-5.74664 1.91554,-2.55407 10.85477,5.74664 7.66219,5.74664 -3.72316,0 -6.24765,-4.0816 -9.57774,-5.74664 -0.50368,-0.25184 -6.66052,0 -7.6622,0 -0.63851,0 -1.27703,0 -1.91555,0 -0.63851,0 -1.46404,-0.4515 -1.91554,0 -0.4515,0.4515 0,1.27703 0,1.91555 0,2.55406 0,5.10813 0,7.66219 0,0.63852 0.63851,1.91555 0,1.91555 -0.63852,0 0,-2.55407 0,-1.91555 0,1.91555 0,3.8311 0,5.74665 0,0.46457 -0.0616,5.68504 0,5.74664 0.4515,0.4515 1.27703,0 1.91554,0 3.19259,0 6.38517,0 9.57775,0 3.83109,0 7.66219,0 11.49329,0 0.63851,0 1.34444,0.28556 1.91555,0 0.80766,-0.40383 1.27703,-2.55406 1.91555,-1.91555 0.63851,0.63852 -1.91555,2.81855 -1.91555,1.91555 0,-1.42776 1.46405,-2.4766 1.91555,-3.83109 1.1243,-3.37292 -5.49848,-11.07968 -5.74665,-11.4933 z"
       id="path3094"
       inkscape:connector-curvature="0" />
    <path
       style="fill:none;stroke:#000000;stroke-width:1px;stroke-linecap:butt;stroke-linejoin:miter;stroke-opacity:1"
       d="m 306.48776,494.93756 c -5.74664,0 -11.49329,0 -17.23993,0 -0.63852,0 -1.27703,0 -1.91555,0 -0.63852,0 -1.34444,-0.28555 -1.91555,0 -2.93381,1.46691 -1.49799,3.41354 -3.8311,5.74665 -0.4515,0.4515 -1.46405,-0.4515 -1.91554,0 -0.4515,0.4515 0,1.27703 0,1.91555 0,1.91554 0,3.83109 0,5.74664 0,0.46457 -0.0616,5.68504 0,5.74665 0.56677,0.56677 6.47567,-0.59326 7.66219,0 0.80767,0.40383 1.10788,1.51171 1.91555,1.91554 0.5711,0.28556 1.27703,0 1.91555,0 3.83109,0 7.66219,0 11.49329,0 0.63851,0 1.46405,0.4515 1.91555,0 0.45149,-0.45149 -0.20192,-1.30979 0,-1.91554 0.45149,-1.3545 1.46405,-2.4766 1.91554,-3.8311 0.36025,-1.08075 0,-4.48792 0,-5.74665 0,-3.19258 0,-6.38516 0,-9.57774 z"
       id="path3096"
       inkscape:connector-curvature="0" />
    <path
       style="fill:none;stroke:#000000;stroke-width:1px;stroke-linecap:butt;stroke-linejoin:miter;stroke-opacity:1"
       d="m 429.08287,621.36376 c 0,-12.1318 0,-24.26361 0,-36.39542 0,-2.55406 -0.25414,-5.1208 0,-7.66219 0.38647,-3.86467 1.48664,-7.63311 1.91555,-11.49329 0.21154,-1.90384 0,-3.8311 0,-5.74665 0,-2.55406 0,-5.10813 0,-7.66219 0,-1.27704 -0.1806,-2.5669 0,-3.8311 2.02133,-14.14932 2.53633,-6.1546 3.8311,-22.98658 0.29383,-3.81981 0,-7.6622 0,-11.49329 0,-3.8311 0,-7.6622 0,-11.49329 0,-19.15549 0,-38.31098 0,-57.46646 0,-8.93923 0,-17.87845 0,-26.81768 0,-3.8311 -0.38121,-7.68121 0,-11.49329 0.44925,-4.49259 1.50678,-8.91239 1.91554,-13.40884 0.23124,-2.54358 0,-5.10813 0,-7.66219 0.63852,-4.46962 1.35554,-8.92872 1.91555,-13.40884 0.46591,-3.72728 0,-7.72525 0,-11.4933 0,-0.63851 -0.20191,-1.30979 0,-1.91554 1.85467,-5.564 2.00461,-2.67281 5.74665,-7.6622 0.85666,-1.14221 0.90596,-2.82151 1.91555,-3.8311 1.6279,-1.6279 3.97804,-2.35726 5.74664,-3.83109 13.65079,-13.65079 -1.84115,1.08981 11.49329,-9.57775 3.46945,-2.77556 3.29982,-4.65605 7.6622,-5.74664 1.85835,-0.46459 3.83109,0 5.74664,0 5.74665,0 11.49329,0 17.23994,0 1.27703,0 2.9281,-0.903 3.8311,0 1.42776,1.42776 0.70405,4.13131 1.91555,5.74664 0.85665,1.14222 2.64312,1.12357 3.83109,1.91555 0.75134,0.5009 1.51172,1.10789 1.91555,1.91555 0.28555,0.57111 -0.5711,1.63 0,1.91555 0.45044,0.22522 6.40383,0 7.6622,0 1.00167,0 7.15851,0.25184 7.66219,0 3.05826,-1.52913 5.63875,-10.37368 7.66219,-13.40884 0.5009,-0.75134 1.27704,-1.27703 1.91555,-1.91555 0.63852,-0.63851 1.10788,-1.51171 1.91555,-1.91555 0.57111,-0.28555 1.34444,0.28556 1.91555,0 0.92326,-0.46163 7.62277,-7.60962 7.66219,-7.66219 0.85666,-1.14221 1.12357,-2.64312 1.91555,-3.8311 1.77093,-2.65639 4.48903,-4.72775 5.74665,-7.66219 0.75457,-1.76067 -0.37567,-3.8683 0,-5.74665 0.56001,-2.80008 3.13853,-4.89192 3.83109,-7.66219 0.30973,-1.2389 0,-2.55407 0,-3.8311 0,-1.27703 0,-2.55406 0,-3.8311 0,-5.74664 0,-11.49329 0,-17.23993 0,-5.74665 0,-11.49329 0,-17.23994 0,-0.63852 0.20192,-1.3098 0,-1.91555 -1.27703,-3.19258 -2.55406,-6.38516 -3.83109,-9.57774 -0.63852,-0.63852 -1.51172,-1.10788 -1.91555,-1.91555 -0.25918,-0.51835 0,-10.66817 0,-11.49329 0,-2 0,-7.57774 0,-9.57774 0,-1.91555 -0.37567,-3.8683 0,-5.74665 0.28001,-1.40004 1.38529,-2.50545 1.91555,-3.8311 0.7499,-1.87474 0.79551,-4.06659 1.91555,-5.74664 0.35418,-0.53128 1.38427,0.35418 1.91554,0 1.50268,-1.00179 2.32842,-2.82931 3.8311,-3.8311 0.53128,-0.35418 1.27703,0 1.91555,0 0.63852,0 1.27703,0 1.91555,0 1.91555,0 3.8311,0 5.74664,0 8.30071,0 16.60142,0 24.90213,0 8.30072,0 16.60143,0 24.90214,0 2.55406,0 5.10813,0 7.66219,0 0.63852,0 1.3098,-0.20191 1.91555,0 13.87511,4.62504 -3.02007,-0.55226 5.74664,3.8311 0.57111,0.28555 1.34445,-0.28555 1.91555,0 0.77372,0.38686 7.60478,7.60478 7.6622,7.66219 1.53828,1.53829 8.47135,7.91816 9.57774,9.57775 0.35418,0.53127 0,1.27703 0,1.91554 0.63852,1.27704 0.90597,2.82152 1.91555,3.8311 1.00958,1.00958 2.82151,0.90597 3.83109,1.91555 0.4515,0.4515 -0.15486,1.2961 0,1.91555 0.48972,1.95888 1.5836,3.75495 1.91555,5.74664 0.31492,1.88949 0,3.8311 0,5.74665 0,1.91555 0,3.8311 0,5.74665 0,4.46961 0,8.93922 0,13.40884 0,2.55406 0.61946,5.18438 0,7.66219 -0.21901,0.87604 -1.27703,1.27703 -1.91555,1.91555 -0.63851,0.63851 -1.19315,1.37375 -1.91554,1.91555 -1.84177,1.38132 -4.11875,2.20319 -5.74665,3.83109 -0.4515,0.4515 0.4515,1.46405 0,1.91555 -0.4515,0.4515 -1.34444,-0.28555 -1.91555,0 -1.61533,0.80767 -2.21576,3.02343 -3.83109,3.8311 -0.57111,0.28555 -1.46405,-0.4515 -1.91555,0 -0.4515,0.4515 0.4515,1.46405 0,1.91555 -0.4515,0.4515 -1.46405,-0.4515 -1.91555,0 -0.4515,0.4515 0.4515,1.46405 0,1.91555 -0.4515,0.4515 -1.46405,-0.4515 -1.91555,0 -0.4515,0.4515 0,1.27703 0,1.91554 0,1.27704 0,2.55407 0,3.8311 0,6.38516 0,12.77033 0,19.15549 0,0.63851 0,1.27703 0,1.91555 0,0.63851 -0.53128,1.56136 0,1.91554 5.38592,3.59062 6.42804,0.9025 11.49329,1.91555 1.97996,0.39599 3.75495,1.5836 5.74665,1.91555 3.14914,0.52486 6.38516,0 9.57774,0 6.38516,0 12.77032,0 19.15548,0 3.19259,0 6.38517,0 9.57775,0 1.27703,0 2.9281,-0.903 3.83109,0 1.42777,1.42777 1.27704,3.8311 1.91555,5.74665 6.61424,19.84272 -1.96735,-7.92124 1.91555,11.49329 0.28001,1.40004 1.63554,2.43106 1.91555,3.83109 0.37567,1.87835 0,3.8311 0,5.74665 0,2.78879 -0.38991,9.15383 0,11.49329 0.33195,1.99169 1.62999,3.74778 1.91555,5.74665 0.6321,4.42469 -0.87657,9.02602 0,13.40884 0.28001,1.40004 1.38529,2.50545 1.91555,3.83109 0.63851,1.91555 1.27703,3.8311 1.91555,5.74665 0,0.63852 -0.20192,1.3098 0,1.91555 0.45149,1.3545 1.63554,2.43106 1.91554,3.8311 0.37567,1.87834 0,3.83109 0,5.74664 0,3.19258 0,6.38516 0,9.57774 0,8.30071 0,16.60142 0,24.90213 0,10.85478 0,21.70955 0,32.56433 0,7.52941 0,3.96388 0,11.49329 0,1.91555 0.2376,3.84589 0,5.74665 -1.24689,9.97511 -2.69767,10.90779 -5.74664,21.07103 -0.75649,2.52164 -0.87849,5.24239 -1.91555,7.66219 -0.90688,2.11606 -2.80152,3.6875 -3.8311,5.74665 -1.80599,3.61199 -2.0251,7.8813 -3.83109,11.49329 -1.02958,2.05915 -2.92422,3.63059 -3.8311,5.74665 -1.03706,2.4198 -1.1923,5.13082 -1.91555,7.66219 -1.10941,3.88295 -2.85166,7.57553 -3.8311,11.49329 -0.63851,2.55407 1.27704,2.55407 0,5.74665 -0.85501,2.13754 -2.80152,3.68749 -3.83109,5.74664 -0.903,1.806 -1.16565,3.8719 -1.91555,5.74665 -0.53026,1.32565 -1.38529,2.50545 -1.91555,3.8311 -0.7499,1.87474 -1.12016,3.89073 -1.91555,5.74664 -1.12485,2.62465 -2.70625,5.03755 -3.8311,7.66219 -0.79539,1.85591 -1.01255,3.94065 -1.91555,5.74665 -0.40383,0.80767 -1.41465,1.16421 -1.91554,1.91555 -0.79199,1.18797 -1.12357,2.64312 -1.91555,3.8311 -0.5009,0.75134 -1.63,1.05889 -1.91555,1.91554 -0.40383,1.2115 0.57111,2.68889 0,3.8311 -0.80767,1.61533 -3.02343,2.21577 -3.8311,3.8311 -0.0983,0.19658 -3.68553,14.9362 -3.8311,15.32439 -4.68775,12.50068 -3.83109,2.71023 -3.83109,13.40884 0,5.27391 0.20191,-2.92513 -1.91555,7.66219 -0.25045,1.25223 0.30973,2.59219 0,3.8311 -2.31252,9.25007 -0.91031,-0.0949 -3.8311,5.74664 -1.27703,2.55407 1.91555,1.91555 -1.91555,1.91555"
       id="path3098"
       inkscape:connector-curvature="0" />
    <path
       style="fill:none;stroke:#000000;stroke-width:1px;stroke-linecap:butt;stroke-linejoin:miter;stroke-opacity:1"
       d="m 505.70481,431.72446 c 0,7.66219 0,15.32439 0,22.98658 0,9.57774 0,19.15549 0,28.73323 0,0.63852 0,1.27703 0,1.91555 0,0.63851 -0.4515,1.46405 0,1.91555 0.4515,0.4515 1.27703,0 1.91555,0 5.74665,0 11.49329,0 17.23994,0 3.19258,0 6.38516,0 9.57774,0 0.63852,0 1.27703,0 1.91555,0 0.63851,0 1.34444,0.28555 1.91555,0 4.75678,-2.3784 -0.82554,-1.63503 1.91554,-5.74665 0.79199,-1.18797 2.82152,-0.90596 3.8311,-1.91555 1.00958,-1.00958 1.05889,-2.68888 1.91555,-3.83109 0.33707,-0.44944 7.54644,-7.43069 7.66219,-7.6622 1.17737,-2.35473 0.99116,-5.19715 1.91555,-7.66219 1.00265,-2.67372 2.9281,-4.9532 3.8311,-7.6622 0.40383,-1.2115 0,-2.55406 0,-3.83109 0.63852,-1.27704 1.46405,-2.4766 1.91555,-3.8311 0.37179,-1.11538 0,-10.17526 0,-11.49329 0,-0.63852 -0.4515,-1.46405 0,-1.91555 0.4515,-0.4515 1.27703,0 1.91555,0"
       id="path3100"
       inkscape:connector-curvature="0" />
    <path
       style="fill:none;stroke:#000000;stroke-width:1px;stroke-linecap:butt;stroke-linejoin:miter;stroke-opacity:1"
       d="m 614.89108,443.21775 c 0,3.8311 0.34685,7.67793 0,11.49329 -0.29477,3.24244 -1.59159,6.3381 -1.91555,9.57774 -0.31767,3.17674 0,6.38517 0,9.57775 0,4.46961 0,8.93922 0,13.40884 0,1.60523 -0.40707,8.7636 0,9.57774 0.28555,0.57111 1.3098,-0.20192 1.91555,0 1.35449,0.4515 2.44596,1.56926 3.83109,1.91555 1.23891,0.30972 2.55407,0 3.8311,0 5.10813,0 10.21626,0 15.32439,0 1.44665,0 8.95457,0.41545 9.57774,0 1.18798,-0.79198 0.90597,-2.82152 1.91555,-3.8311 1.00958,-1.00958 2.64313,-1.12357 3.8311,-1.91555 1.0197,-0.6798 4.97939,-4.72364 5.74664,-5.74664 7.06041,-9.41388 1.28996,-2.14992 5.74665,-9.57775 1.18447,-1.97412 3.19863,-3.53302 3.8311,-5.74664 0.44975,-1.57413 0,-10.42527 0,-13.40884 0,-0.63852 0,-1.27703 0,-1.91555 0,-0.63852 -0.63852,-1.91555 0,-1.91555 0.63851,0 0,1.27703 0,1.91555 1.27703,-0.63852 2.55406,-1.27703 3.83109,-1.91555"
       id="path3102"
       inkscape:connector-curvature="0" />
    <path
       style="fill:none;stroke:#000000;stroke-width:1px;stroke-linecap:butt;stroke-linejoin:miter;stroke-opacity:1"
       d="m 551.67798,224.84522 c -2.55407,-0.63852 -8.30071,0.63851 -7.6622,-1.91555 0.63852,-2.55406 10.29487,1.91555 7.6622,1.91555 -3.25581,0 -6.36624,-1.3803 -9.57775,-1.91555 -1.25965,-0.20994 -2.55406,0 -3.83109,0 -3.19258,0 -6.38517,0 -9.57775,0 -1.79835,0 -8.48014,-0.36586 -9.57774,0 -0.85666,0.28555 -1.58018,1.07714 -1.91555,1.91555 -0.97775,2.44437 -1.08302,5.16462 -1.91555,7.66219 -0.4515,1.3545 -1.46405,2.4766 -1.91554,3.8311 -0.20192,0.60575 0.15486,1.2961 0,1.91555 -0.48972,1.95888 -1.42583,3.78777 -1.91555,5.74664 -0.30973,1.23891 0,2.55407 0,3.8311 0,3.8311 0,7.6622 0,11.49329 0,2.62837 -1.00562,6.20161 1.91555,7.6622 0.5711,0.28555 1.34444,-0.28556 1.91554,0 0.80767,0.40383 1.10789,1.51171 1.91555,1.91554 0.57111,0.28556 1.27703,0 1.91555,0 0.63852,0 1.27703,0 1.91555,0 3.8311,0 7.66219,0 11.49329,0 8.93923,0 17.87845,0 26.81768,0"
       id="path3104"
       inkscape:connector-curvature="0" />
    <path
       style="fill:none;stroke:#000000;stroke-width:1px;stroke-linecap:butt;stroke-linejoin:miter;stroke-opacity:1"
       d="m 658.94869,224.84522 c -0.63851,-3.19258 -1.91555,-6.32194 -1.91555,-9.57774 0,-1.46402 5.73293,-3.82195 5.74665,-3.8311 1.50268,-1.00179 2.11778,-3.25999 3.8311,-3.8311 1.02981,-0.34327 6.04039,0 7.66219,0 3.8311,0 7.6622,0 11.49329,0 1.27704,0 2.55407,0 3.8311,0 1.27703,0 2.59219,-0.30972 3.8311,0 3.63095,0.90774 5.11793,3.20238 7.66219,5.74665 4.39204,4.39203 -0.80767,-1.2115 3.8311,5.74664 0.50089,0.75134 1.51171,1.10789 1.91555,1.91555 0.28555,0.57111 -0.20192,1.3098 0,1.91555 0.4515,1.3545 1.46405,2.4766 1.91555,3.8311 0.20191,0.60575 0,1.27703 0,1.91555 0,1.27703 0,2.55406 0,3.83109 0,6.38516 0,12.77033 0,19.15549 0,5.74664 0,11.49329 0,17.23993 0,0.63852 0.45149,1.46405 0,1.91555 -0.4515,0.4515 -1.34445,-0.28555 -1.91555,0 -0.80767,0.40384 -1.16421,1.41466 -1.91555,1.91555 -2.37595,1.58397 -5.28625,2.24714 -7.6622,3.8311 -1.74375,1.1625 -4.04882,4.89773 -5.74664,5.74664 -0.57111,0.28556 -1.27703,0 -1.91555,0 -1.91555,0 -3.8311,0 -5.74665,0 -5.10813,0 -10.21625,0 -15.32438,0 -2.75005,0 -7.30185,0.56898 -9.57775,0 -0.87603,-0.219 -1.10788,-1.51171 -1.91555,-1.91554 -1.14221,-0.57111 -2.92809,0.90299 -3.83109,0 -0.4515,-0.4515 -0.63852,-1.91555 0,-1.91555 0.63851,0 0,2.55406 0,1.91555 0,-2.55407 0,-5.10813 0,-7.6622"
       id="path3106"
       inkscape:connector-curvature="0" />
    <path
       style="fill:none;stroke:#000000;stroke-width:1px;stroke-linecap:butt;stroke-linejoin:miter;stroke-opacity:1"
       d="m 515.28255,489.19092 c 0,2.55406 0,5.10812 0,7.66219 0,0.63852 0,1.27703 0,1.91555 0,0.63851 0.63852,1.91555 0,1.91555 -0.63851,0 -0.63851,-1.91555 0,-1.91555 0.63852,0 -0.4515,1.46405 0,1.91555 0.4515,0.4515 1.27704,0 1.91555,0 0.75724,0 8.75965,0.40905 9.57775,0 0.80766,-0.40384 1.69653,-1.03951 1.91554,-1.91555 0,-10.89372 -0.85666,-1.26112 1.91555,-9.57774 0.4996,-1.49879 -0.80178,-3.8311 0,-3.8311 2.81855,0 -4.43752,6.35307 1.91555,0"
       id="path3108"
       inkscape:connector-curvature="0" />
    <path
       style="fill:none;stroke:#000000;stroke-width:1px;stroke-linecap:butt;stroke-linejoin:miter;stroke-opacity:1"
       d="m 628.29992,494.93756 c 0,6.38516 0,12.77032 0,19.15549 0,0.63851 0.63851,1.91554 0,1.91554 -0.63852,0 -0.63852,-1.91554 0,-1.91554 0.903,0 1.10788,1.51171 1.91555,1.91554 0.5711,0.28556 1.27703,0 1.91554,0 0.63852,0 1.27704,0 1.91555,0 1.27703,0 2.55407,0 3.8311,0 0.63852,0 1.91555,-0.63851 1.91555,0 0,0.63852 -2.55407,0 -1.91555,0 1.27703,0 2.68888,0.57111 3.8311,0 0.5711,-0.28555 0,-1.27703 0,-1.91554 0,-0.63852 0,-1.27704 0,-1.91555 0,-4.46962 0,-8.93923 0,-13.40884 0,-0.63852 -0.57111,-1.63 0,-1.91555 1.14221,-0.57111 2.55406,0 3.83109,0"
       id="path3110"
       inkscape:connector-curvature="0" />
  </g>
</svg>
