<?xml version="1.0" encoding="UTF-8" standalone="no"?>
<!-- Created with Inkscape (http://www.inkscape.org/) -->

<svg
   xmlns:dc="http://purl.org/dc/elements/1.1/"
   xmlns:cc="http://creativecommons.org/ns#"
   xmlns:rdf="http://www.w3.org/1999/02/22-rdf-syntax-ns#"
   xmlns:svg="http://www.w3.org/2000/svg"
   xmlns="http://www.w3.org/2000/svg"
   xmlns:sodipodi="http://sodipodi.sourceforge.net/DTD/sodipodi-0.dtd"
   xmlns:inkscape="http://www.inkscape.org/namespaces/inkscape"
   width="210mm"
   height="297mm"
   id="svg2"
   version="1.1"
   inkscape:version="0.48.5 r10040"
   sodipodi:docname="e-das-vacas-e-das-cabras.svg"
   inkscape:export-filename="/home/fredm/projetos/o-rato-anderson/um-dia-este-rato-encontrou-uma-rata.png"
   inkscape:export-xdpi="90"
   inkscape:export-ydpi="90">
  <defs
     id="defs4" />
  <sodipodi:namedview
     id="base"
     pagecolor="#ffffff"
     bordercolor="#666666"
     borderopacity="1.0"
     inkscape:pageopacity="0.0"
     inkscape:pageshadow="2"
     inkscape:zoom="0.73828125"
     inkscape:cx="400.06826"
     inkscape:cy="586.22964"
     inkscape:document-units="px"
     inkscape:current-layer="layer1"
     showgrid="false"
     inkscape:window-width="1366"
     inkscape:window-height="715"
     inkscape:window-x="0"
     inkscape:window-y="31"
     inkscape:window-maximized="1" />
  <metadata
     id="metadata7">
    <rdf:RDF>
      <cc:Work
         rdf:about="">
        <dc:format>image/svg+xml</dc:format>
        <dc:type
           rdf:resource="http://purl.org/dc/dcmitype/StillImage" />
        <dc:title />
      </cc:Work>
    </rdf:RDF>
  </metadata>
  <g
     inkscape:label="Camada 1"
     inkscape:groupmode="layer"
     id="layer1">
    <path
       style="fill:none;stroke:#000000;stroke-width:1px;stroke-linecap:butt;stroke-linejoin:miter;stroke-opacity:1"
       d="m 165.24868,177.35689 c -2.2575,0 -4.5824,-0.54752 -6.77249,0 -0.38262,0.0957 -7.54456,5.18502 -8.12698,5.41799 -0.83842,0.33537 -1.87059,-0.33536 -2.709,0 -2.42768,0.97107 -4.1429,3.4061 -6.77249,4.06349 -0.87603,0.21901 -1.85233,-0.28555 -2.70899,0 -0.60575,0.20192 -0.78339,1.06895 -1.3545,1.3545 -1.27703,0.63852 -2.73784,0.82424 -4.06349,1.3545 -9.96507,3.98603 6.70442,-1.78331 -6.77249,2.70899 -1.35449,0.4515 -2.66345,1.07449 -4.06349,1.3545 -0.88546,0.17709 -1.90133,-0.40383 -2.70899,0 -1.14222,0.57111 -1.64644,2.00062 -2.709,2.709 -0.29624,0.19749 -6.28937,-0.12078 -6.77248,0 -0.97944,0.24485 -1.71902,1.1565 -2.709,1.35449 -2.21366,0.44273 -4.51499,0 -6.77249,0 -6.320983,0 -12.641971,0 -18.962959,0 -11.717189,0 0.146537,0.57111 -9.481481,-1.35449 -0.885463,-0.1771 -1.832958,0.219 -2.708995,0 -0.979439,-0.24486 -1.729556,-1.10964 -2.708995,-1.3545 -3.252768,-0.81319 -2.137471,1.21353 -4.063492,-1.3545 -3.751168,-5.00156 -2.562221,-4.17252 -5.417989,-10.83598 -0.397694,-0.92795 -1.035239,-1.75122 -1.354497,-2.70899 -0.244355,-0.73307 0,-4.95655 0,-5.41799 0,-2.96927 -0.317309,-20.48799 0,-23.02646 0.250446,-2.00357 3.737942,-1.58896 5.417989,-2.70899 5.075879,-3.38392 2.587544,-4.55671 8.126984,-6.77249 0.838413,-0.33536 1.852335,0.28555 2.708995,0 0.605749,-0.20192 0.748747,-1.15258 1.354497,-1.3545 0.856659,-0.28555 1.852335,0.28556 2.708995,0 0.605749,-0.20191 0.902998,-0.90299 1.354497,-1.35449 0.902998,-0.4515 1.729556,-1.10964 2.708995,-1.3545 2.190092,-0.54752 4.55883,0.44273 6.772487,0 0.989977,-0.198 1.719017,-1.1565 2.708994,-1.3545 1.430334,-0.28607 7.522617,0 9.481482,0 0.902998,0 1.832953,0.21901 2.708993,0 0.97944,-0.24486 1.72956,-1.10964 2.709,-1.3545 2.35174,-0.58793 5.77524,0.58794 8.12698,0 0.97944,-0.24486 1.75122,-1.03524 2.709,-1.35449 1.21904,-0.40635 2.84444,0.40635 4.06349,0 0.60575,-0.20192 0.74874,-1.15258 1.35449,-1.3545 6.16606,0 0.0775,0.63852 4.0635,-1.3545 0.40383,-0.20191 1.03524,0.31926 1.35449,0 0.71389,-0.71388 0.903,-1.80599 1.3545,-2.70899 1.33399,-2.66798 2.95611,-5.35852 4.06349,-8.12699 0.53026,-1.32564 0.61992,-2.83919 1.3545,-4.06349 0.65703,-1.09505 1.94278,-1.68737 2.709,-2.70899 0.60575,-0.80767 0.83507,-1.84329 1.35449,-2.709 0.83755,-1.39591 1.73226,-2.76117 2.709,-4.06349 0.76622,-1.02163 2.00062,-1.64644 2.70899,-2.709 0.71455,-1.07181 3.66489,-6.931164 4.06349,-8.126979 0.14278,-0.42833 0,-0.902998 0,-1.354498 0,-4.249011 0.45829,-3.246722 -5.41799,-6.772486 -0.38715,-0.232295 -0.92616,0.142776 -1.35449,0 -0.95778,-0.319258 -1.78104,-0.956804 -2.709,-1.354498 -2.2348,-0.957774 -4.46586,-1.940119 -6.77248,-2.708994 -0.42833,-0.142777 -0.95067,0.201916 -1.3545,0 -2.9134,0.436421 -0.47794,-2.208102 -1.3545,-2.708995 -2.98547,-1.705981 -6.2619,-2.856149 -9.48148,-4.063492 -0.42275,-0.158532 -0.92617,0.142776 -1.3545,0 -0.95777,-0.319258 -1.75122,-1.035239 -2.70899,-1.354497 -0.42833,-0.142777 -1.03524,0.319258 -1.3545,0 -0.31926,-0.319259 0.31926,-1.03524 0,-1.354498 -0.31926,-0.319258 -1.03524,0.319258 -1.3545,0 -0.0708,-0.07082 0.0586,-2.181316 0,-2.708995 -0.40198,-3.617838 -0.47164,-7.30456 -1.35449,-10.835978 -0.10951,-0.438019 -0.903,0 -1.3545,0 0,-0.451499 0.0499,-0.90576 0,-1.354498 -0.4515,-3.611993 -0.903,-7.223986 -1.3545,-10.835979 -0.4515,-1.354497 -1.07449,-2.663452 -1.3545,-4.063492 -0.17709,-0.885462 0,-1.805996 0,-2.708994 0,-3.611993 0,-7.223986 0,-10.835979 0,-2.670112 -0.40383,-3.073549 1.3545,-5.41799 0.76622,-1.021625 2.00063,-1.646439 2.709,-2.708994 0.25044,-0.37567 0,-1.805997 0,-1.354498 0,5.41799 0,10.835979 0,16.253969 0,1.777149 -0.26715,9.233121 0,10.835978 0.23472,1.40834 0.96226,2.690662 1.35449,4.063493 0.51142,1.789952 0.98941,3.592561 1.3545,5.417989 0.17709,0.885463 -0.28555,1.852335 0,2.708995 0.31926,0.957774 1.03524,1.75122 1.3545,2.708994 0.14277,0.42833 -0.31926,1.03524 0,1.354498 0.31926,0.319258 1.03524,-0.319258 1.3545,0 0.31925,0.319258 -0.31926,1.035239 0,1.354497 0.31925,0.319258 0.95066,-0.201916 1.35449,0 3.08303,3.083029 -0.28052,0.357991 2.709,1.354497 1.91555,0.638517 3.50244,2.070479 5.41799,2.708995 0.42833,0.142777 0.92616,-0.142776 1.35449,0 0.95778,0.319258 1.75122,1.035239 2.709,1.354497 0.42833,0.142777 0.95066,-0.201916 1.3545,0 0.5711,0.285554 0.78339,1.068945 1.35449,1.354498 0.40384,0.201916 0.903,0 1.3545,0 0.903,0 1.806,0 2.709,0 1.60724,0 9.52141,-0.262913 10.83597,0 0.98998,0.197995 1.72956,1.109637 2.709,1.354497 1.31405,0.328514 2.70899,0 4.06349,0 3.16049,0 6.32099,0 9.48148,0 2.18828,0 5.10194,0.65016 6.77249,-1.354497 7.04003,-8.448036 2.0151,-4.030192 5.41799,-10.835979 0.72802,-1.456041 2.10441,-2.552022 2.70899,-4.063492 0.33537,-0.838413 -0.21901,-1.832958 0,-2.708995 0.24486,-0.979439 0.903,-1.805996 1.3545,-2.708994 1.10537,-2.210742 2.29056,-4.261854 2.709,-6.772487 0.22267,-1.336068 0,-2.708995 0,-4.063492 0,-3.611993 0,-7.223986 0,-10.835979 0,-0.451499 0,-0.902998 0,-1.354497 0,-0.4515 -0.40384,-1.152581 0,-1.354498 0.0759,-0.03793 7.97243,-0.05152 8.12698,0 2.69538,0.898461 0.6321,1.264198 1.3545,2.708995 1.67375,3.347511 1.35449,-0.467543 1.35449,2.708995 0,4.202701 -0.14277,-3.565654 1.3545,5.417989 0.22268,1.336068 0,2.708995 0,4.063492 0,2.257496 0,4.514991 0,6.772487 0,5.417989 0,10.835979 0,16.253968 0,2.708995 0,5.417989 0,8.126984 0,0.451499 0,0.902998 0,1.354498 0,0.451499 0.20192,0.950664 0,1.354497 -0.72802,1.456041 -1.73225,2.761169 -2.70899,4.063492 -0.38311,0.510813 -1.06895,0.783391 -1.3545,1.354497 -0.20192,0.403833 0.31926,1.03524 0,1.354498 -0.31926,0.319258 -1.03524,-0.319258 -1.3545,0 -0.71388,0.713882 -0.79448,1.868971 -1.3545,2.708994 -0.35418,0.531278 -1.06894,0.783391 -1.35449,1.354498 -0.20192,0.403833 0.31926,1.035239 0,1.354497 -0.63852,0.638516 -1.90133,-0.403833 -2.709,0 -0.5711,0.285553 -0.903,0.902998 -1.35449,1.354497 -1.806,0.902999 -3.54325,1.959096 -5.41799,2.708995 -0.41921,0.167683 -1.806,0 -1.3545,0 5.29127,0 0.143,-0.403833 5.41799,1.354497 0.85666,0.285554 1.83296,-0.219009 2.70899,0 1.38514,0.346285 2.67836,1.008214 4.06349,1.354498 0.43802,0.109504 0.92617,-0.142777 1.3545,0 0.95778,0.319258 1.72956,1.109637 2.709,1.354497 0.87603,0.219009 1.83295,-0.219009 2.70899,0 0.97944,0.24486 1.75122,1.035239 2.709,1.354498 0.42833,0.142776 0.95066,-0.201917 1.35449,0 0.57111,0.285553 0.82322,1.000312 1.3545,1.354494 0.84002,0.56002 1.99511,0.64062 2.709,1.3545 0.31925,0.31926 -0.25045,0.97883 0,1.3545 0.70837,1.06255 2.05196,1.61395 2.70899,2.70899 0.73458,1.2243 0.903,2.709 1.3545,4.06349 1.07355,3.22067 2.14207,6.07992 2.70899,9.48149 0.14845,0.89071 -0.17709,1.82353 0,2.70899 0.89846,4.4923 1.2642,3.16049 2.709,6.77249 0.53026,1.32564 0.96226,2.69066 1.35449,4.06349 1.02283,3.5799 1.68617,7.25607 2.709,10.83598 0.39224,1.37283 1.00821,2.67835 1.3545,4.06349 0.21901,0.87604 -0.28556,1.85234 0,2.70899 1.54387,4.63163 1.12346,1.00796 4.06349,5.41799 0.25045,0.37567 0,0.903 0,1.3545 1.3545,1.3545 2.59193,2.83719 4.06349,4.06349 1.25059,1.04216 2.91239,1.5579 4.06349,2.709 1.1511,1.1511 1.806,2.70899 2.709,4.06349 0.903,1.3545 1.87144,2.66758 2.70899,4.06349 2.04176,3.40293 0.4937,2.56215 4.06349,5.41799 4.09882,3.27905 7.38513,3.81621 12.19048,5.41799 1.3545,0.4515 2.66345,1.07449 4.06349,1.3545 0.88547,0.17709 1.83296,-0.21901 2.709,0 0.97944,0.24486 1.72955,1.10964 2.70899,1.3545 2.1247,0.53117 4.64779,-0.53118 6.77249,0 0.97944,0.24486 1.72955,1.10963 2.70899,1.35449 0.87604,0.21901 1.806,0 2.709,0 2.25749,0 4.51499,0 6.77248,0 5.41799,0 10.83598,0 16.25397,0 8.57849,0 17.15697,0 25.73545,0 2.709,0 5.46169,0.4846 8.12699,0 2.39218,-0.43494 4.41368,-2.11929 6.77248,-2.70899 1.31406,-0.32852 2.74125,0.29383 4.0635,0 14.0788,-3.12862 2.26344,-2.3882 17.60846,-6.77249 3.06974,-0.87707 6.30475,-1.03682 9.48148,-1.3545 1.34778,-0.13477 2.76612,0.38922 4.06349,0 3.2935,-0.98805 6.17527,-3.11885 9.48149,-4.06349 6.52858,-1.86531 13.67515,-1.35449 20.31746,-1.35449 1.35449,0 2.71571,0.13477 4.06349,0 3.17674,-0.31768 6.2983,-1.10964 9.48148,-1.3545 2.70102,-0.20777 5.41799,0 8.12698,0 2.709,0 5.41799,0 8.12699,0 11.73898,0 23.47795,0 35.21693,0 4.0527,0 11.66764,-0.80006 14.89947,1.3545 5.74043,3.82695 4.15263,6.95075 6.77249,12.19047 3.89129,7.7826 3.55599,0.51102 5.41799,13.54498 0.97824,6.84773 -0.8385,10.90047 0,17.60846 0.12522,1.00179 0.903,1.806 1.35449,2.709 0.4515,1.35449 1.19683,2.64445 1.3545,4.06349 0.29916,2.69242 0,5.41799 0,8.12698 0,2.2575 0,4.51499 0,6.77249 0,1.80599 -0.2554,3.63014 0,5.41799 0.20192,1.41341 1.00821,2.67835 1.3545,4.06349 0.1095,0.43802 0,0.903 0,1.3545 0,0.903 0,1.80599 0,2.70899 0,3.61199 0,7.22399 0,10.83598 0,7.67549 0,15.35097 0,23.02646 0,1.80599 0,3.61199 0,5.41799 0,1.35449 -0.14958,2.71727 0,4.06349 0.30328,2.72956 0.48602,5.52155 1.3545,8.12698 0.51478,1.54437 1.80599,2.709 2.70899,4.06349 0.903,1.3545 1.69205,2.79232 2.709,4.0635 0.79775,0.99719 1.80599,1.80599 2.70899,2.70899 1.3545,1.3545 2.709,2.70899 4.06349,4.06349 0.903,0.903 1.806,1.806 2.709,2.709 0.903,0.903 1.94277,1.68737 2.70899,2.70899 1.2115,1.61533 1.67014,3.68657 2.709,5.41799 5.00282,8.33804 0.31415,0.3927 5.41799,6.77249 1.01694,1.27118 1.55789,2.91239 2.70899,4.06349 0.71388,0.71388 1.84329,0.83507 2.709,1.3545 1.39591,0.83755 2.66757,1.87144 4.06349,2.70899 0.86571,0.51943 1.99511,0.64062 2.70899,1.3545 0.31926,0.31926 0,0.903 0,1.3545 0,0.4515 0.40384,1.15258 0,1.35449 -0.80766,0.40384 -1.80599,0 -2.70899,0 -9.62478,0 -3.33576,0.21832 -17.60847,-4.06349 -0.86491,-0.25947 -1.90133,0.40383 -2.70899,0 -0.57111,-0.28555 -0.903,-0.903 -1.3545,-1.3545 -2.2575,-0.90299 -4.46586,-1.94011 -6.77249,-2.70899 -0.42833,-0.14278 -1.03524,0.31926 -1.35449,0 -1.15111,-1.1511 -1.66684,-2.8129 -2.709,-4.06349 -1.2263,-1.47157 -2.70899,-2.709 -4.06349,-4.06349 -0.4515,-0.4515 -1.00031,-0.82322 -1.3545,-1.3545 -0.56001,-0.84003 -0.64061,-1.99511 -1.3545,-2.709 -3.39376,-3.39376 -7.26853,-6.27078 -10.83597,-9.48148 -0.94922,-0.85429 -1.806,-1.80599 -2.709,-2.70899 -0.4515,-0.4515 -1.19963,-0.73505 -1.3545,-1.3545 -0.32851,-1.31406 0,-2.70899 0,-4.06349 0,-3.1605 0,-6.32099 0,-9.48148 0,-4.96649 0,-9.93298 0,-14.89947 0,-15.80247 0,-31.60494 0,-47.40741 0,-3.01 0.4515,-0.1505 -1.35449,-1.3545 -2.40547,-1.60364 -4.2624,-3.98365 -6.77249,-5.41799 -0.19003,-0.10859 -4.81755,0.10008 -5.41799,0 -1.83625,-0.30604 -3.57079,-1.1236 -5.41799,-1.3545 -1.79205,-0.224 -3.61199,0 -5.41799,0 -2.70899,0 -5.41799,0 -8.12698,0 -2.2575,0 -4.51499,0 -6.77249,0 -0.4515,0 -1.18681,-0.4192 -1.3545,0 -1.74264,4.35661 -1.35449,9.01069 -1.35449,13.54498 0,4.96649 0,9.93298 0,14.89947 0,4.06349 0,8.12698 0,12.19047 0,1.10893 -0.29254,5.89489 0,6.77249 1.29549,3.88648 4.79773,6.12943 8.12698,8.12699 0.86571,0.51942 1.99511,0.64061 2.70899,1.35449 0.71389,0.71389 0.83508,1.84329 1.3545,2.709 0.83755,1.39591 1.87145,2.66757 2.709,4.06349 0.51942,0.86571 0.83507,1.84328 1.35449,2.70899 0.83755,1.39592 1.806,2.709 2.709,4.0635 0.903,1.35449 1.66683,2.8129 2.70899,4.06349 3.23293,3.87951 6.12252,4.8044 8.12699,9.48148 0.903,2.2575 1.80599,4.51499 2.70899,6.77249 0.4515,1.80599 0.70086,3.67494 1.3545,5.41799 0.70898,1.8906 1.91361,3.56208 2.70899,5.41799 0.56243,1.31232 0.61992,2.83919 1.3545,4.06349 0.65703,1.09504 1.806,1.80599 2.709,2.70899 0.4515,0.4515 1.15258,0.74875 1.35449,1.3545 0.72802,2.18406 0.79613,4.53902 1.3545,6.77249 0.69257,2.77027 2.30516,5.30015 2.709,8.12698 0.2554,1.78785 0,3.61199 0,5.41799 0,4.06349 0,8.12698 0,12.19048 0,1.1626 0.26416,7.33449 0,8.12698 -0.20192,0.60575 -1.15259,0.74875 -1.3545,1.3545 -0.28556,0.85666 0.50089,1.95765 0,2.70899 -0.56002,0.84003 -1.86897,0.79448 -2.709,1.3545 -1.06255,0.70837 -1.56678,2.13789 -2.70899,2.70899 -0.62372,0.31186 -6.72314,0 -8.12699,0 -0.3525,0 -3.98493,0.0687 -4.06349,0 -3.36372,-2.94326 -6.14085,-6.51203 -9.48148,-9.48148 -0.75457,-0.67073 -1.86897,-0.79448 -2.70899,-1.35449 -0.53128,-0.35419 -0.903,-0.903 -1.3545,-1.3545 -0.4515,-0.4515 -1.06895,-0.78339 -1.3545,-1.3545 -0.20192,-0.40383 0,-0.903 0,-1.3545 0,-0.4515 0,-0.90299 0,-1.35449 0,-4.0635 0,-8.12699 0,-12.19048 0,-2.2575 0.2493,-4.5288 0,-6.77249 -0.30328,-2.72956 -1.01385,-5.40183 -1.3545,-8.12698 -0.224,-1.79205 0,-3.61199 0,-5.41799 0,-3.61199 0,-7.22399 0,-10.83598 0,-0.903 0,-1.806 0,-2.70899 0,-1.3545 0.42833,-2.77851 0,-4.0635 -0.14277,-0.42833 -1.03524,0.31926 -1.35449,0 -1.1511,-1.1511 -1.69205,-2.79231 -2.709,-4.06349 -0.79775,-0.99719 -1.80599,-1.80599 -2.70899,-2.70899 -0.4515,-0.4515 -0.78339,-1.06895 -1.3545,-1.3545 -0.35615,-0.17808 -4.70969,0 -5.41799,0 -0.4515,0 -0.903,0 -1.3545,0 -0.4515,0 -1.26595,-0.44273 -1.35449,0 -0.44274,2.21366 0,4.51499 0,6.77249 0,5.41799 0,10.83598 0,16.25397 0,1.35449 0,2.70899 0,4.06349 0,0.903 -0.1771,1.82353 0,2.70899 1.9297,9.64851 1.02578,-2.30096 2.70899,9.48148 0.19156,1.34089 -0.26564,2.7353 0,4.0635 0.0128,0.0639 2.6341,5.23074 2.709,5.41798 0.53025,1.32565 1.00821,2.67836 1.35449,4.0635 0.21901,0.87603 -0.40383,1.90133 0,2.70899 0.28556,0.57111 1.06895,0.78339 1.3545,1.3545 0.20192,0.40383 0,0.903 0,1.3545 0,0.4515 0,0.90299 0,1.35449 0,2.709 0,5.41799 0,8.12699 0,0.61276 0.18049,7.76601 0,8.12698 -0.28555,0.57111 -0.78339,1.06895 -1.3545,1.3545 -0.40383,0.20192 -0.903,0 -1.35449,0 -2.2575,0 -4.515,0 -6.77249,0 -1.40606,0 -5.30356,0.19071 -5.41799,0 -1.25094,-2.08491 -1.85528,-4.4959 -2.709,-6.77249 -0.50132,-1.33686 -0.56251,-2.87552 -1.35449,-4.06349 -0.25045,-0.37567 -0.903,0 -1.3545,0 -0.4515,-1.3545 -0.96226,-2.69066 -1.3545,-4.06349 -0.51141,-1.78995 -0.52197,-3.75294 -1.3545,-5.41799 -0.20191,-0.40383 -1.03523,0.31926 -1.35449,0 -0.31926,-0.31926 0,-0.903 0,-1.3545 0,-4.06349 0,-8.12698 0,-12.19047 0,-13.99648 0,-27.99295 0,-41.98942 0,-7.22399 0,-14.44797 0,-21.67196 0,-1.14949 0.2489,-7.38028 0,-8.12698 -1.40928,-4.22782 -0.903,0.45149 -2.709,-1.3545 -0.31926,-0.31926 0.31926,-1.03524 0,-1.3545 -1.11991,-1.11991 -3.02222,1.46032 -4.06349,4.06349 -0.33536,0.83842 0.21901,1.83296 0,2.709 -0.24486,0.97944 -1.03524,1.75122 -1.3545,2.70899 -0.14277,0.42833 0.31926,1.03524 0,1.3545 -0.31925,0.31926 -1.03524,-0.31926 -1.35449,0 -0.71389,0.71388 -1.03524,1.75122 -1.3545,2.70899 -0.14278,0.42833 0.31926,1.03524 0,1.3545 -0.31926,0.31926 -1.03524,-0.31926 -1.3545,0 -0.31926,0.31926 0.20192,0.95067 0,1.3545 -0.28555,0.57111 -1.06894,0.78339 -1.3545,1.3545 -0.20191,0.40383 0.20192,0.95066 0,1.35449 -2.81854,5.6371 0.0935,-1.448 -2.70899,1.3545 -0.31926,0.31926 0.31926,1.03524 0,1.3545 -0.31926,0.31926 -0.903,0 -1.3545,0 -2.25749,0 -4.51499,0 -6.77248,0 -0.4515,0 -0.903,0 -1.3545,0 -0.4515,0 -1.15258,-0.40383 -1.3545,0 -0.10596,0.21192 0,6.3938 0,6.77249 0,3.61199 0,7.22398 0,10.83597 0,1.806 0,3.612 0,5.41799 0,0.4515 0.4515,1.3545 0,1.3545 -0.4515,0 0,-0.903 0,-1.3545 -0.4515,0.4515 -0.78339,1.06895 -1.3545,1.3545 -0.40383,0.20192 -0.903,0 -1.35449,0 -1.3545,0 -2.709,0 -4.0635,0 -0.3285,0 -4.01993,0.0436 -4.06349,0 -0.31926,-0.31926 0.31926,-1.03524 0,-1.3545 -0.31926,-0.31925 -1.03524,0.31926 -1.3545,0 -0.63851,-0.63851 0.40384,-1.90132 0,-2.70899 -3.27004,-6.54009 -1.35449,13.15765 -1.35449,-9.48148 0,-2.2575 0,-4.51499 0,-6.77249 0,-0.4515 0,-1.806 0,-1.3545 0,4.0635 0,8.12699 0,12.19048 0,0.4515 0,0.903 0,1.3545 0,0.4515 0.31926,1.03524 0,1.35449 -0.31926,0.31926 -1.03524,-0.31925 -1.3545,0 -0.31926,0.31926 0.20192,0.95067 0,1.3545 -0.57111,1.14221 -2.13789,1.56678 -2.709,2.709 -0.20191,0.40383 0.31926,1.03524 0,1.35449 -0.31925,0.31926 -1.35449,0.4515 -1.35449,0 0,-0.63851 1.99301,-1.35449 1.35449,-1.35449 -1.00958,0 -1.75122,1.03524 -2.70899,1.35449 -0.42833,0.14278 -0.903,0 -1.3545,0 -0.4515,0 -1.24499,0.43802 -1.35449,0 -0.43802,-1.75207 0,-3.61199 0,-5.41799 0,-2.25749 0.44273,-4.55883 0,-6.77248 -0.0885,-0.44273 -1.15259,0.40383 -1.3545,0 -0.60575,-1.2115 0,-2.709 0,-4.06349 0,-0.4515 0,-0.903 0,-1.3545 0,-0.4515 -0.4515,-1.3545 0,-1.3545 0.4515,0 0,0.903 0,1.3545 0,2.25749 0,4.51499 0,6.77248 0,3.17654 0.31926,-0.63851 -1.3545,2.709 -0.20192,0.40383 0.20192,0.95066 0,1.3545 -0.57111,1.14221 -2.13789,1.56678 -2.70899,2.70899 -0.20192,0.40383 0.31925,1.03524 0,1.3545 -0.31926,0.31926 -1.03524,-0.31926 -1.3545,0 -0.31926,0.31926 0.31926,1.03524 0,1.3545 -0.31926,0.31925 -0.903,0 -1.3545,0 -1.806,0 -3.61199,0 -5.41799,0 -1.80599,0 -3.61199,0 -5.41799,0 -0.4515,0 -1.03524,0.31925 -1.35449,0 -0.31926,-0.31926 0,-0.903 0,-1.3545 0,-3.16049 0,-6.32099 0,-9.48148 0,-0.61001 -0.20611,-3.65128 0,-4.06349 0.28555,-0.57111 1.06894,-0.7834 1.35449,-1.3545 0.20192,-0.40384 -0.31926,-1.03524 0,-1.3545 0.31926,-0.31926 1.03524,0.31926 1.3545,0 0.31926,-0.31926 0.31926,-1.03524 0,-1.3545 -0.31926,-0.31925 -0.903,0 -1.3545,0 -2.25749,0 -4.51499,0 -6.77248,0 -0.4515,0 -1.03524,0.31926 -1.3545,0 -0.63852,-0.63851 0.40383,-1.90133 0,-2.70899 -0.72802,-1.45604 -1.73225,-2.76117 -2.709,-4.06349 -0.38311,-0.51082 -1.06894,-0.78339 -1.35449,-1.3545 -0.20192,-0.40383 0.31925,-1.03524 0,-1.3545 -0.31926,-0.31926 -1.03524,0.31926 -1.3545,0 -0.31926,-0.31926 0.14278,-0.92617 0,-1.3545 -0.31926,-0.95777 -0.94447,-1.78642 -1.3545,-2.70899 -1.39651,-3.14215 -2.3936,-6.47568 -4.06349,-9.48148 -0.62018,-1.11633 -1.806,-1.806 -2.709,-2.709 -0.45149,-0.4515 -1.06894,-0.78339 -1.35449,-1.35449 -0.20192,-0.40384 -0.4515,-1.3545 0,-1.3545 0.4515,0 0,1.806 0,1.3545 0,-0.80644 0.25406,-7.61886 0,-8.12699 -0.20192,-0.40383 -0.903,0 -1.3545,0 -3.45148,0 -1.80535,1.57993 -4.06349,2.709 -0.40383,0.20191 -1.03524,-0.31926 -1.3545,0 0,1.99301 0.31926,1.03524 -1.3545,2.70899 -0.4515,0.4515 -0.90299,0.903 -1.35449,1.3545 -0.4515,0.4515 -0.7834,1.06894 -1.3545,1.3545 -1.27703,0.63851 -2.78646,0.71598 -4.06349,1.35449 -2.35473,1.17737 -4.36673,2.99427 -6.77249,4.0635 -1.6009,4.4657 -4.58843,0.62647 -6.77249,1.35449 -0.95777,0.31926 -1.86897,0.79448 -2.70899,1.3545 -0.53128,0.35419 -0.74875,1.15258 -1.3545,1.3545 -5.86446,1.95482 0.49784,-2.58939 -5.41799,1.3545 -0.53128,0.35418 -0.74875,1.15258 -1.3545,1.35449 -1.28498,0.42833 -2.70899,0 -4.06349,0 -3.16049,0 -6.32099,0 -9.48148,0 -8.57848,0 -17.15697,0 -25.73545,0 -2.25749,0 -4.51499,0 -6.77249,0 -0.45149,0 -1.03524,0.31926 -1.35449,0 -0.31926,-0.31926 0.31925,-1.03524 0,-1.35449 -0.31926,-0.31926 -0.903,0 -1.3545,0 -0.4515,0 -0.903,0 -1.3545,0 -4.51499,0 -9.02998,0 -13.54497,0 -0.4515,0 -1.03524,-0.31926 -1.3545,0 -0.31926,0.31925 0,0.90299 0,1.35449 0,2.2575 0,4.51499 0,6.77249 0,2.05431 -0.3031,9.01739 0,10.83598 0.23472,1.40834 1.07449,2.66345 1.3545,4.06349 0.17709,0.88546 -0.17709,1.82353 0,2.70899 0.28001,1.40004 0.903,2.709 1.3545,4.0635 0.4515,1.35449 0.71598,2.78646 1.35449,4.06349 0.28556,0.57111 1.06895,0.78339 1.3545,1.3545 0.6,1.2 2.109,6.92698 2.709,8.12698 0.28555,0.57111 1.19963,0.73505 1.35449,1.3545 0.32852,1.31405 -0.26564,2.7353 0,4.06349 0.198,0.98998 1.03524,1.75122 1.3545,2.70899 0.34356,1.03069 -0.2069,4.38349 0,5.41799 0.28001,1.40004 0.903,2.709 1.3545,4.0635 0.4515,1.35449 0.903,2.70899 1.35449,4.06349 0.4515,1.3545 1.15259,2.65007 1.3545,4.06349 0.25541,1.78785 0,3.61199 0,5.41799 0,2.70899 0,5.41799 0,8.12698 0,3.1605 0,6.32099 0,9.48149 0,0.90299 0,3.61199 0,2.70899 0,-2.2575 0.37113,-4.54571 0,-6.77249 -0.10497,-0.62983 -1.06894,-0.78339 -1.3545,-1.35449 -0.20191,-0.40384 0,-0.903 0,-1.3545 -1.80599,-2.709 -3.52559,-5.47763 -5.41798,-8.12699 -0.37113,-0.51958 -0.7834,-1.06894 -1.3545,-1.35449 -0.40384,-0.20192 -1.15258,0.40383 -1.3545,0 -0.40383,-0.80767 0.21901,-1.83296 0,-2.709 -0.24486,-0.97944 -1.0644,-1.74199 -1.3545,-2.70899 -1.06984,-3.56614 -1.43663,-7.33698 -2.70899,-10.83598 -0.55633,-1.52989 -1.87145,-2.66758 -2.709,-4.06349 -2.98418,-0.68212 -0.71598,-2.78646 -1.35449,-4.0635 -0.72802,-1.45604 -1.87145,-2.66757 -2.709,-4.06349 -0.51942,-0.86571 -0.903,-1.80599 -1.3545,-2.70899 -0.45149,-0.903 -1.10963,-1.72956 -1.35449,-2.709 -0.4515,-2.70899 -0.903,-5.41799 -1.3545,-8.12698 0,-0.4515 0.0742,-0.90914 0,-1.3545 -0.37848,-2.27088 -1.02892,-4.49342 -1.3545,-6.77249 -0.1277,-0.89392 0,-1.80599 0,-2.70899 -0.4515,-1.3545 -1.00821,-2.67836 -1.35449,-4.06349 -0.10951,-0.43802 0.31925,-1.03524 0,-1.3545 -0.31926,-0.31926 -1.12221,0.38716 -1.3545,0 -1.25095,-2.08491 -1.45805,-4.68758 -2.709,-6.77249 -0.23229,-0.38715 -1.35449,0.4515 -1.35449,0 0,-0.4515 1.80599,0 1.35449,0 -0.903,0 -1.80599,0 -2.70899,0 -0.4515,0 -0.903,0 -1.3545,0 -0.4515,0 -1.03524,-0.31925 -1.3545,0 -2.10106,2.10107 -1.04794,2.96556 -1.35449,5.41799 -0.34065,2.72516 -1.05122,5.39742 -1.3545,8.12699 -0.14958,1.34621 0,2.70899 0,4.06349 0,3.16049 0,6.32099 0,9.48148 0,15.80247 0,31.60494 0,47.40741 0,4.06349 0,8.12698 0,12.19047 0,0.4515 0.31926,1.03524 0,1.3545 -0.0436,0.0436 -3.73499,0 -4.06349,0 -1.806,0 -3.80266,0.80767 -5.41799,0 -2.06233,-1.03116 -1.08259,-3.9225 -1.3545,-5.41799 -0.74463,-4.09547 -1.56544,-8.18802 -2.70899,-12.19047 -0.66796,-2.33785 -1.94012,-4.46586 -2.709,-6.77249 -0.28555,-0.85666 0,-1.806 0,-2.709 0,-1.35449 0,-2.70899 0,-4.06349 0,-4.06349 0,-8.12698 0,-12.19047 0,-14.89947 0,-29.79895 0,-44.69842 0,-5.41799 0,-10.83597 0,-16.25396 0,-0.4515 0,-0.903 0,-1.3545 0,-0.4515 0.31926,-1.03524 0,-1.3545 -0.31926,-0.31926 -0.95066,0.20192 -1.3545,0 -0.5711,-0.28555 -0.82322,-1.00031 -1.35449,-1.3545 -0.84003,-0.56001 -1.86898,-0.79448 -2.709,-1.35449 -1.06255,-0.70837 -1.56678,-2.13789 -2.70899,-2.709 -0.53705,-0.26852 -3.78659,0.27691 -4.0635,0 -0.71388,-0.71388 -0.79448,-1.86897 -1.35449,-2.70899 -1.06256,-1.59384 -2.91417,-2.53106 -4.06349,-4.0635 -0.5035,-0.67132 -3.91871,-7.40305 -4.0635,-8.12698 -0.44273,-2.21366 0.54753,-4.58239 0,-6.77249 -0.48972,-1.95887 -2.21927,-3.45911 -2.70899,-5.41799 -0.21901,-0.87603 0.21901,-1.83295 0,-2.70899 -0.24486,-0.97944 -1.10964,-1.72956 -1.3545,-2.70899 -0.21901,-0.87604 0,-1.806 0,-2.709 0,-0.903 0,-1.806 0,-2.70899 0,-2.709 0,-5.41799 0,-8.12699 0,-10.83598 0,-21.67196 0,-32.50793 0,-2.60739 -0.74964,-6.02285 1.3545,-8.12699 0.31926,-0.31926 1.03524,0.31926 1.3545,0 0.71388,-0.71388 0.64061,-1.99511 1.35449,-2.70899 0.31926,-0.31926 1.03524,0.31925 1.3545,0 0.31926,-0.31926 0,-0.903 0,-1.3545 0,-3.61199 0,-7.22399 0,-10.83598 0,-0.4515 -0.31926,-1.03524 0,-1.3545 0.31926,-0.31926 0.903,0 1.3545,0"
       id="path3082"
       inkscape:connector-curvature="0" />
    <path
       style="fill:none;stroke:#000000;stroke-width:1px;stroke-linecap:butt;stroke-linejoin:miter;stroke-opacity:1"
       d="m 376.55026,568.80663 c 7.56084,-6.04867 4.1867,-4.1251 9.48149,-6.77249 0.90299,-0.4515 1.72955,-1.10964 2.70899,-1.3545 0.87604,-0.21901 1.806,0 2.709,0 0.90299,0 1.80599,0 2.70899,0 3.61199,0 7.22399,0 10.83598,0 1.806,0 3.61199,0 5.41799,0 0.903,0 1.80599,0 2.70899,0 0.4515,0 0.97883,-0.25044 1.3545,0 1.06256,0.70837 1.806,1.806 2.70899,2.709 3.09951,3.0995 3.77794,3.20683 5.41799,8.12698 0.28556,0.85666 0,1.806 0,2.709 0.4515,1.35449 0.82424,2.73784 1.3545,4.06349 0.7499,1.87475 1.806,3.61199 2.709,5.41799 0.4515,0.903 1.10963,1.72955 1.35449,2.70899 1.54975,6.19901 -2.73592,-1.40835 1.3545,6.77249 0.72831,1.45661 3.55665,4.74513 4.06349,6.77249 0.21901,0.87603 -0.40383,1.90132 0,2.70899 0.57111,1.14221 1.806,1.806 2.709,2.709 0.903,0.90299 1.7118,1.91123 2.70899,2.70899 1.27118,1.01694 2.79232,1.69205 4.06349,2.709 6.36422,5.09137 -1.46041,0.77033 6.77249,4.06349 0.93738,0.37495 1.70721,1.22927 2.709,1.35449 2.68807,0.33601 5.43455,-0.29915 8.12698,0 1.41903,0.15768 2.66345,1.07449 4.06349,1.3545 0.88546,0.17709 1.806,0 2.709,0 1.35449,0 2.70899,0 4.06349,0 3.61199,0 7.22399,0 10.83598,0 3.61199,0 7.22398,0 10.83598,0 0.903,0 1.85233,0.28556 2.70899,0 0.95778,-0.31926 1.72956,-1.10964 2.709,-1.3545 0.87603,-0.219 1.85233,0.28556 2.70899,0 0.60575,-0.20191 0.82322,-1.00031 1.3545,-1.35449 0.84002,-0.56002 1.90133,-0.74875 2.70899,-1.3545 2.04325,-1.53244 3.20044,-4.15082 5.41799,-5.41799 2.11105,-1.20631 4.4959,-1.85527 6.77249,-2.70899 8.28296,-3.10612 -0.6496,0.2863 10.83598,-1.3545 0.99943,-0.14278 1.72955,-1.10964 2.70899,-1.3545 0.87604,-0.21901 1.806,0 2.709,0 0.903,0 1.80599,0 2.70899,0 4.06349,0 8.12699,0 12.19048,0 3.61199,0 7.22398,0 10.83598,0 1.80599,0 3.70467,-0.57111 5.41799,0 0.16939,0.0565 4.89171,4.99697 5.41799,5.41799 1.27117,1.01694 2.8129,1.66684 4.06349,2.709 1.47156,1.2263 2.5677,2.86685 4.06349,4.06349 2.55899,2.04719 3.62965,0.48681 5.41799,4.06349 0.40383,0.80767 -0.33537,1.87058 0,2.70899 -0.75093,3.35461 3.05391,3.39883 4.06349,5.41799 0.63852,1.27704 0.61992,2.8392 1.3545,4.0635 0.65703,1.09504 1.91124,1.7118 2.70899,2.70899 1.01695,1.27118 1.69206,2.79231 2.709,4.06349 0.79775,0.9972 1.80599,1.806 2.70899,2.709 0.4515,0.4515 1.06895,0.78339 1.3545,1.35449 0.20192,0.40384 -0.20192,0.95067 0,1.3545 0.28555,0.57111 1.06894,0.78339 1.3545,1.3545 0.20191,0.40383 0,0.903 0,1.3545 0,0.4515 0,0.90299 0,1.35449 0,3.1605 0,6.32099 0,9.48149 0,2.70899 0,5.41798 0,8.12698 0,1.3545 0,2.70899 0,4.06349 0,0.4515 0.31926,1.03524 0,1.3545 -0.31926,0.31926 -0.903,0 -1.3545,0 -0.4515,0 -0.903,0 -1.3545,0 -8.37135,0 -0.8585,0.8651 -12.19047,-9.48148 -7.34294,-6.70442 -15.26209,-12.75147 -23.02646,-18.96297 -1.27118,-1.01694 -2.60745,-1.98097 -4.06349,-2.70899 -0.80767,-0.40383 -2.07048,0.63852 -2.70899,0 -0.63852,-0.63852 0.63851,-2.07048 0,-2.70899 -0.31926,-0.31926 -1.15259,0.40383 -1.3545,0 -0.40384,-0.80767 0,-1.806 0,-2.709 0,-2.2575 0,-4.51499 0,-6.77249 0,-0.90299 0,-1.80599 0,-2.70899 0,-0.4515 -0.4515,-1.3545 0,-1.3545 0.4515,0 0,0.903 0,1.3545 0,0.903 0,1.806 0,2.70899 0,5.86949 0,11.73898 0,17.60847 0,3.67718 -0.63418,8.87602 1.3545,12.19048 0.51942,0.86571 1.90132,0.74874 2.70899,1.35449 1.02163,0.76622 1.806,1.806 2.70899,2.709 0.4515,0.4515 1.06895,0.78339 1.3545,1.35449 0.40383,0.80767 -0.50089,1.95766 0,2.709 0.70837,1.06255 2.00063,1.64644 2.709,2.70899 0.50089,0.75134 -0.40384,1.90133 0,2.709 0.28555,0.57111 1.06894,0.78339 1.35449,1.3545 0.40384,0.80766 -0.63851,2.07047 0,2.70899 0.31926,0.31926 1.03524,-0.31926 1.3545,0 0.0436,0.0436 0,3.73499 0,4.06349 0,3.1605 0,6.32099 0,9.48148 0,0.46145 -0.24435,4.68493 0,5.41799 1.55642,4.66925 1.3545,1.00337 1.3545,4.0635 0,2.70899 0,5.41799 0,8.12698 0,0.4515 0.40383,1.15258 0,1.3545 -2.23168,1.11583 -2.8595,-0.1505 -4.06349,-1.3545 -0.4515,-0.4515 -1.06895,-0.78339 -1.3545,-1.3545 -0.20192,-0.40383 0.20192,-0.95066 0,-1.35449 -0.28555,-0.57111 -1.06895,-0.7834 -1.3545,-1.3545 -0.28924,-0.57849 0,-6.23704 0,-6.77249 0,-5.86949 0,-11.73898 0,-17.60846 0,-0.77098 0.0924,-5.27933 0,-5.41799 -0.56001,-0.84003 -1.80599,-0.903 -2.70899,-1.3545 -0.4515,-1.3545 -0.71598,-2.78646 -1.3545,-4.06349 -0.28555,-0.57111 -1.06894,-0.78339 -1.3545,-1.3545 -0.20191,-0.40383 0.31926,-1.03524 0,-1.3545 -0.31926,-0.31926 -1.03524,0.31926 -1.35449,0 -0.31926,-0.31926 0.20191,-0.95066 0,-1.3545 -0.57111,-1.14221 -2.13789,-1.56678 -2.709,-2.70899 -0.20192,-0.40383 0.31926,-1.03524 0,-1.3545 -0.31926,-0.31926 -0.903,0 -1.3545,0 -0.4515,0 -0.903,0 -1.35449,0 -0.36038,0 -3.95166,-0.22368 -4.0635,0 -0.40383,0.80767 0.28556,1.85234 0,2.709 -0.20191,0.60575 -1.06894,0.78339 -1.35449,1.35449 -0.20192,0.40384 0,0.903 0,1.3545 0,0.903 0,1.806 0,2.709 0,3.16049 0,6.32098 0,9.48148 0,10.38448 0,20.76896 0,31.15344 0,2.25749 0,4.51499 0,6.77248 0,0.903 0,1.806 0,2.709 0,0.4515 0.4515,1.3545 0,1.3545 -0.4515,0 0.14277,-0.92617 0,-1.3545 -0.77405,-2.32215 -2.90433,-4.84054 -4.0635,-6.77249 -0.51942,-0.86571 -1.03524,-1.75122 -1.35449,-2.70899 -0.14278,-0.42833 0.31925,-1.03524 0,-1.3545 -0.31926,-0.31926 -1.03524,0.31926 -1.3545,0 -0.31926,-0.31926 0.20192,-0.95066 0,-1.3545 -0.28555,-0.5711 -1.06894,-0.78339 -1.3545,-1.35449 -0.20191,-0.40384 0.20192,-0.95067 0,-1.3545 -2.06531,-4.13062 -1.07379,2.4773 -2.70899,-4.06349 -0.21901,-0.87604 0,-1.806 0,-2.709 0,-0.903 0,-1.806 0,-2.70899 0,-3.1605 0,-6.32099 0,-9.48148 0,-0.903 0,-1.806 0,-2.709 0,-0.903 0.21901,-1.83296 0,-2.70899 -0.24486,-0.97944 -1.1565,-1.71902 -1.3545,-2.709 -0.26564,-1.32819 0.32851,-2.74944 0,-4.06349 -0.15486,-0.61945 -1.06894,-0.78339 -1.3545,-1.3545 -0.15179,-0.30358 0,-5.09612 0,-5.41799 0,-4.06349 0,-8.12698 0,-12.19047 0,-0.4515 0,-0.903 0,-1.3545 0,-0.4515 0.31926,-1.03524 0,-1.3545 -0.31926,-0.31926 -1.03524,-0.31926 -1.35449,0 -0.27691,0.27691 0.26852,3.52645 0,4.06349 -0.28556,0.57111 -1.15259,0.74875 -1.3545,1.3545 -0.42833,1.28499 0,2.709 0,4.06349 0,0.4515 0,0.903 0,1.3545 0,0.4515 0.31926,1.03524 0,1.3545 -0.31926,0.31926 -1.03524,-0.31926 -1.3545,0 -0.63852,0.63851 0.63852,2.07048 0,2.70899 -0.31926,0.31926 -1.03524,-0.31926 -1.3545,0 -0.31925,0.31926 0.31926,1.03524 0,1.3545 -0.63851,0.63852 -2.07048,-0.63852 -2.70899,0 -0.31926,0.31926 0.31926,1.03524 0,1.3545 -0.63852,0.63851 -1.90133,-0.40384 -2.709,0 -0.5711,0.28555 -0.78339,1.06894 -1.35449,1.35449 -0.40384,0.20192 -0.95067,-0.20191 -1.3545,0 -0.57111,0.28556 -0.78339,1.06895 -1.3545,1.3545 -0.80766,0.40383 -2.30516,-0.80766 -2.70899,0 -0.40384,0.80767 0,1.806 0,2.709 0,2.70899 0,5.41799 0,8.12698 0,1.3545 0,2.709 0,4.06349 0,0.4515 -0.14278,0.92617 0,1.3545 1.55641,4.66924 1.35449,1.00336 1.35449,4.06349 0,0.4515 0,0.903 0,1.3545 0,0.4515 0.4515,1.3545 0,1.3545 -0.43674,0 -1.95638,-2.3327 -2.70899,-2.709 -0.40383,-0.20191 -1.03524,0.31926 -1.3545,0 -2.8025,-2.8025 4.2826,0.10955 -1.35449,-2.70899 -0.80767,-0.40384 -2.07048,0.63851 -2.709,0 -0.31926,-0.31926 0,-0.903 0,-1.3545 0,-1.3545 0,-2.70899 0,-4.06349 0,-1.806 0,-3.612 0,-5.41799 0,-0.4515 -0.4515,-1.3545 0,-1.3545 0.4515,0 0,0.903 0,1.3545 0,0.4515 0,0.903 0,1.3545 0,0.45149 0.20192,0.95066 0,1.35449 -0.28555,0.57111 -1.06894,0.78339 -1.3545,1.3545 -0.20191,0.40383 0.20192,0.95066 0,1.3545 -0.28555,0.5711 -1.06894,0.78339 -1.35449,1.3545 -0.40384,0.80766 0.40383,1.90132 0,2.70899 -0.28556,0.57111 -1.06895,0.78339 -1.3545,1.3545 -0.20192,0.40383 0.20191,0.95066 0,1.35449 -0.28555,0.57111 -1.06895,0.7834 -1.3545,1.3545 -0.20192,0.40383 0.31926,1.03524 0,1.3545 -0.31926,0.31926 -1.03524,-0.31926 -1.3545,0 -0.31925,0.31926 0.4515,1.3545 0,1.3545 -0.4515,0 0,-0.903 0,-1.3545 0,-0.4515 0,-0.903 0,-1.3545 0,-4.96649 0,-9.93298 0,-14.89947 0,-0.4515 0,-0.903 0,-1.3545 0,-0.4515 0.31926,-1.03524 0,-1.35449 -0.27691,-0.27691 -3.52644,0.26852 -4.06349,0 -2.22611,-1.11306 -1.46108,-3.54612 -2.70899,-5.41799 -0.25045,-0.37567 -1.03524,0.31925 -1.3545,0 -0.63852,-0.63852 0.63852,-2.07048 0,-2.709 -0.31926,-0.31926 -0.903,0 -1.3545,0 0,-1.3545 0.26564,-2.7353 0,-4.06349 -0.19799,-0.98998 -1.03524,-1.75122 -1.3545,-2.70899 -0.28338,-0.85016 0,-4.32758 0,-5.41799 0,-0.4515 0,-0.903 0,-1.3545 0,-0.4515 -0.45149,-1.3545 0,-1.3545 0.4515,0 0.4515,1.3545 0,1.3545 -0.63851,0 -0.78339,-1.06895 -1.35449,-1.3545 -0.35616,-0.17808 -4.7097,0 -5.41799,0 -0.7083,0 -5.06184,-0.17808 -5.41799,0 -0.57111,0.28555 -0.78339,1.06895 -1.3545,1.3545 -0.40383,0.20192 -0.95066,-0.20192 -1.3545,0 -0.5711,0.28555 -0.78339,1.06894 -1.35449,1.3545 -0.40384,0.20191 -0.95067,-0.20192 -1.3545,0 -0.57111,0.28555 -0.78339,1.06894 -1.3545,1.35449 -0.80766,0.40384 -1.90133,-0.40383 -2.70899,0 -0.57111,0.28556 -0.78339,1.06895 -1.3545,1.3545 -0.80767,0.40383 -1.90133,-0.40383 -2.709,0 -1.45604,0.72802 -2.55202,2.10441 -4.06349,2.709 -6.77248,2.70899 0,-1.3545 -4.06349,0 -0.95777,0.31925 -1.75122,1.03523 -2.70899,1.35449 -0.42833,0.14278 -0.95067,-0.20191 -1.3545,0 -0.57111,0.28556 -0.78339,1.06895 -1.3545,1.3545 -0.7348,0.3674 -5.04737,-0.37062 -5.41799,0 -0.31926,0.31926 0,0.903 0,1.3545 0,1.80599 0,3.61199 0,5.41799 0,5.41799 0,10.83598 0,16.25397 0,3.16049 0,6.32098 0,9.48148 0,0.90299 0,1.80599 0,2.70899 0,0.4515 0.20192,0.95067 0,1.3545 -0.28555,0.5711 -1.06894,0.78339 -1.3545,1.3545 -0.40383,0.80766 0.63852,2.07047 0,2.70899 -0.31925,0.31926 -1.03523,-0.31926 -1.35449,0 -2.80251,2.8025 4.28259,-0.10955 -1.3545,2.709 -0.40383,0.20191 -0.903,0 -1.3545,0 -0.4515,0 -1.35449,0.45149 -1.35449,0 0,-0.4515 1.80599,0 1.35449,0 -0.903,0 -1.80599,0 -2.70899,0 -0.4515,0 -0.95067,0.20191 -1.3545,0 -0.57111,-0.28556 -1.00031,-0.82322 -1.3545,-1.3545 -2.36408,-3.54612 -1.35449,-4.34254 -1.35449,-9.48148 0,-4.51499 0,-9.02999 0,-13.54498 0,-3.61199 0,-7.22398 0,-10.83598 0,-0.45149 0,-0.90299 0,-1.35449 0,-0.903 0.80766,-3.11283 0,-2.709 -0.79502,0.39751 -3.51528,5.40196 -4.0635,6.77249 -0.53026,1.32565 -0.71598,2.78646 -1.35449,4.06349 -0.28556,0.57111 -1.06895,0.78339 -1.3545,1.3545 -0.40383,0.80766 0.40383,1.90133 0,2.70899 -0.28555,0.57111 -1.15258,0.74875 -1.3545,1.3545 -0.61647,1.84942 0.61648,6.27756 0,8.12698 -0.20191,0.60575 -1.06894,0.7834 -1.3545,1.3545 -0.41124,0.82248 0.41124,7.3045 0,8.12699 -0.28555,0.5711 -1.06894,0.78339 -1.35449,1.35449 -0.20611,0.41222 0,3.45349 0,4.0635 0,0.45149 0,0.90299 0,1.35449 0,0.4515 0.31926,1.03524 0,1.3545 -0.31926,0.31926 -1.03524,-0.31926 -1.3545,0 -0.31926,0.31926 0.31926,1.03524 0,1.3545 -0.19102,0.19102 -3.78565,0.13892 -4.06349,0 -0.57111,-0.28556 -0.78339,-1.06895 -1.3545,-1.3545 -0.40383,-0.20192 -1.03524,0.31926 -1.3545,0 -0.63851,-0.63852 0.28556,-1.85234 0,-2.70899 -0.31926,-0.95778 -1.10963,-1.72956 -1.35449,-2.709 -0.21901,-0.87604 0,-1.806 0,-2.70899 0,-1.806 0,-3.612 0,-5.41799 0,-5.86949 0,-11.73898 0,-17.60847 0,-4.51499 0,-9.02998 0,-13.54497 0,-0.61001 -0.20611,-3.65128 0,-4.06349 0.28555,-0.57111 0.90299,-0.903 1.35449,-1.3545 1.54975,-1.54975 1.88897,-1.60342 2.709,-4.06349 0.35326,-1.0598 -0.56695,-2.709 0,-2.709 0.4515,0 0.4515,1.3545 0,1.3545 -0.4515,0 0.31926,-1.03524 0,-1.3545 -0.31926,-0.31926 -0.95067,0.20192 -1.3545,0 -0.57111,-0.28555 -0.78339,-1.06894 -1.3545,-1.3545 -0.40383,-0.20191 -0.903,0 -1.35449,0 -0.4515,0 -0.903,0 -1.3545,0 -2.709,0 -5.41799,0 -8.12699,0 -0.4515,0 -1.03524,0.31926 -1.35449,0 -0.31926,-0.31925 0,-0.90299 0,-1.35449 0,-0.903 0,-1.806 0,-2.709 0,-7.67548 0,-15.35097 0,-23.02645 0,-3.1605 0,-6.32099 0,-9.48148 0,-0.4515 0,-0.903 0,-1.3545 0,-0.4515 -0.4515,-1.3545 0,-1.3545 0.4515,0 0.4515,1.3545 0,1.3545 -0.63852,0 -0.78339,-1.06895 -1.3545,-1.3545 -0.40383,-0.20192 -0.903,0 -1.3545,0 -4.06349,0 -8.12698,0 -12.19047,0 -4.0635,0 -8.12699,0 -12.19048,0 -0.70829,0 -5.06184,0.17808 -5.41799,0 -2.46642,-1.23321 -0.794,-1.02749 -1.3545,-2.70899 -0.31926,-0.95778 -0.79448,-1.86898 -1.35449,-2.709 -0.35419,-0.53128 -1.06895,-0.78339 -1.3545,-1.3545 -0.39922,-0.79844 0.39329,-7.3404 0,-8.12698 -0.20192,-0.40383 -1.03524,0.31926 -1.3545,0 -0.31926,-0.31926 0.31926,-1.03524 0,-1.3545 -0.31926,-0.31926 -1.03524,0.31926 -1.3545,0 -0.0436,-0.0436 0,-3.73499 0,-4.06349 0,-4.51499 0,-9.02998 0,-13.54497 0,-1.4935 -0.24334,-7.1536 0,-8.12699 0.023,-0.0918 3.86453,-3.96401 4.0635,-4.06349 0.40383,-0.20192 0.95066,0.20192 1.35449,0 0.57111,-0.28555 0.78339,-1.06894 1.3545,-1.3545 0.40383,-0.20191 0.95066,0.20192 1.3545,0 0.5711,-0.28555 0.78339,-1.06894 1.35449,-1.35449 0.40384,-0.20192 0.903,0 1.3545,0 0.4515,0 0.903,0 1.3545,0 2.70899,0 5.41799,0 8.12698,0 0.4515,0 0.903,0 1.3545,0 0.4515,0 1.03524,0.31925 1.3545,0 0.31926,-0.31926 -0.31926,-1.03524 0,-1.3545 0.47545,-0.47546 5.83689,0.4678 6.77249,0 0.5711,-0.28555 0.78339,-1.06895 1.35449,-1.3545 0.40384,-0.20192 0.92617,0.14278 1.3545,0 4.66924,-1.55641 1.00336,-1.3545 4.06349,-1.3545"
       id="path3084"
       inkscape:connector-curvature="0" />
  </g>
</svg>
