<?xml version="1.0" encoding="UTF-8" standalone="no"?>
<!-- Created with Inkscape (http://www.inkscape.org/) -->

<svg
   xmlns:dc="http://purl.org/dc/elements/1.1/"
   xmlns:cc="http://creativecommons.org/ns#"
   xmlns:rdf="http://www.w3.org/1999/02/22-rdf-syntax-ns#"
   xmlns:svg="http://www.w3.org/2000/svg"
   xmlns="http://www.w3.org/2000/svg"
   xmlns:sodipodi="http://sodipodi.sourceforge.net/DTD/sodipodi-0.dtd"
   xmlns:inkscape="http://www.inkscape.org/namespaces/inkscape"
   width="210mm"
   height="297mm"
   id="svg2"
   version="1.1"
   inkscape:version="0.48.5 r10040"
   sodipodi:docname="e-os-peitos-das-ratas.svg"
   inkscape:export-filename="/home/fredm/projetos/o-rato-anderson/um-dia-este-rato-encontrou-uma-rata.png"
   inkscape:export-xdpi="90"
   inkscape:export-ydpi="90">
  <defs
     id="defs4" />
  <sodipodi:namedview
     id="base"
     pagecolor="#ffffff"
     bordercolor="#666666"
     borderopacity="1.0"
     inkscape:pageopacity="0.0"
     inkscape:pageshadow="2"
     inkscape:zoom="0.52204368"
     inkscape:cx="498.54663"
     inkscape:cy="528.27252"
     inkscape:document-units="px"
     inkscape:current-layer="layer1"
     showgrid="false"
     inkscape:window-width="710"
     inkscape:window-height="693"
     inkscape:window-x="560"
     inkscape:window-y="31"
     inkscape:window-maximized="0" />
  <metadata
     id="metadata7">
    <rdf:RDF>
      <cc:Work
         rdf:about="">
        <dc:format>image/svg+xml</dc:format>
        <dc:type
           rdf:resource="http://purl.org/dc/dcmitype/StillImage" />
        <dc:title />
      </cc:Work>
    </rdf:RDF>
  </metadata>
  <g
     inkscape:label="Camada 1"
     inkscape:groupmode="layer"
     id="layer1">
    <path
       style="fill:none;stroke:#000000;stroke-width:1px;stroke-linecap:butt;stroke-linejoin:miter;stroke-opacity:1"
       d="m 214.53789,369.33003 c -4.46961,0 -8.93923,0 -13.40884,0 -0.63852,0 -1.27703,0 -1.91555,0 -0.63852,0 -1.34444,-0.28556 -1.91555,0 -0.80766,0.40383 -1.10788,1.51171 -1.91555,1.91555 -0.5711,0.28555 -1.46405,-0.4515 -1.91554,0 -0.4515,0.45149 0.28555,1.34444 0,1.91554 -0.40384,0.80767 -1.51172,1.10789 -1.91555,1.91555 -0.28556,0.57111 0.28555,1.34444 0,1.91555 -0.40384,0.80767 -1.51172,1.10788 -1.91555,1.91555 -0.76622,1.53244 0.76622,4.21421 0,5.74665 -0.40383,0.80766 -1.51172,1.10788 -1.91555,1.91554 -0.40905,0.8181 0,8.82051 0,9.57775 0,0.90317 -0.0868,9.49092 0,9.57774 0.0616,0.0616 5.28207,0 5.74665,0 1.27703,0 2.55406,0 3.83109,0 0.63852,0 1.38427,0.35418 1.91555,0 1.50268,-1.00179 2.55407,-2.55407 3.8311,-3.8311 1.27703,-1.27703 2.7475,-2.3863 3.8311,-3.8311 0.85665,-1.14221 1.12356,-2.64312 1.91554,-3.83109 1.16251,-1.74375 4.89774,-4.04882 5.74665,-5.74665 0.28555,-0.5711 -0.4515,-1.46405 0,-1.91555 0.4515,-0.4515 1.34444,0.28556 1.91555,0 7.97205,-3.98602 -2.04779,0.13224 1.91555,-3.83109 0.4515,-0.4515 1.46405,0.4515 1.91554,0 0.4515,-0.4515 0,-1.27704 0,-1.91555 0,-5.63871 0.32852,-1.36803 -5.74664,-11.49329 z"
       id="path3022"
       inkscape:connector-curvature="0" />
    <path
       style="fill:none;stroke:#000000;stroke-width:1px;stroke-linecap:butt;stroke-linejoin:miter;stroke-opacity:1"
       d="m 181.97356,334.85015 c -2.55406,0 -7.66219,2.55407 -7.66219,0 0,-2.55406 9.46819,-1.80599 7.66219,0 -2.3022,2.30221 -6.78591,0.24045 -9.57774,1.91555 -0.26904,0.16142 0,9.18316 0,9.57774 0,5.10813 0,10.21626 0,15.32439 0,0.63852 0,1.27704 0,1.91555 0,0.63852 -0.4515,1.46405 0,1.91555 0.4515,0.4515 1.27703,0 1.91555,0 4.46961,0 8.93923,0 13.40884,0 1.27703,0 2.9281,0.903 3.8311,0 0.903,-0.903 -0.30973,-2.59219 0,-3.8311 0.34628,-1.38513 1.46405,-2.4766 1.91555,-3.83109 0.20191,-0.60575 0,-1.27704 0,-1.91555 0.63851,-0.63852 1.51171,-1.10789 1.91554,-1.91555 0.28556,-0.57111 -0.28555,-1.34444 0,-1.91555 0.40384,-0.80767 1.51172,-1.10788 1.91555,-1.91555 0.24764,-0.49526 0,-10.13554 0,-11.49329"
       id="path3024"
       inkscape:connector-curvature="0" />
    <path
       style="fill:none;stroke:#000000;stroke-width:1px;stroke-linecap:butt;stroke-linejoin:miter;stroke-opacity:1"
       d="m 237.52447,338.68125 c -7.47518,0 -7.26547,-1.806 -11.49329,3.8311 -0.85666,1.14221 -1.12357,2.64312 -1.91555,3.83109 -0.50089,0.75134 -1.51171,1.10789 -1.91555,1.91555 -2.73895,5.47791 -1.91555,11.35074 -1.91555,17.23994 0,4.46961 0,8.93923 0,13.40884 0,0.63852 -0.45149,1.46405 0,1.91555 0.18593,0.18593 8.84779,0 9.57775,0 0.63851,0 1.34444,0.28555 1.91555,0 0.50859,-0.2543 5.49234,-5.23805 5.74664,-5.74665 0.28555,-0.5711 -0.28555,-1.34444 0,-1.91555 0.80767,-1.61533 3.02343,-2.21576 3.8311,-3.83109 0.5711,-1.14222 -0.903,-2.9281 0,-3.8311 0.4515,-0.4515 1.46405,0.4515 1.91555,0 0.4515,-0.4515 -0.28556,-1.34444 0,-1.91555 0.40383,-0.80766 1.51171,-1.10788 1.91555,-1.91555 0.24763,-0.49526 0,-10.13554 0,-11.49329 0,-2.55406 0,-5.10813 0,-7.66219 0,-0.63852 0.5711,-1.63 0,-1.91555 -2.35474,-1.17737 -5.10813,-1.27703 -7.6622,-1.91555 z"
       id="path3026"
       inkscape:connector-curvature="0" />
    <path
       style="fill:none;stroke:#000000;stroke-width:1px;stroke-linecap:butt;stroke-linejoin:miter;stroke-opacity:1"
       d="m 181.97356,306.11693 c 2.55407,-3.19259 5.39431,-6.17591 7.6622,-9.57775 0.35418,-0.53127 0,-1.27703 0,-1.91555 0,-3.83109 0,-7.66219 0,-11.49329 0,-1.91555 0.85666,-4.03332 0,-5.74664 -0.63852,-1.27703 -2.82152,-0.90597 -3.8311,-1.91555 -1.00958,-1.00958 -0.90596,-2.82152 -1.91555,-3.8311 -7.47587,-7.47588 -1.02874,0.44341 -5.74664,-1.91555 -0.80767,-0.40383 -1.05889,-1.62999 -1.91555,-1.91555 -1.02981,-0.34327 -6.0404,0 -7.6622,0 -5.10812,0 -10.21625,0 -15.32438,0 -3.8311,0 -7.6622,0 -11.49329,0 -0.63852,0 -1.46405,-0.45149 -1.91555,0 -0.0478,0.0478 0,8.85812 0,9.57775 0,7.02368 0,14.04735 0,21.07103 0,0.45519 -0.21467,7.23286 0,7.6622 0.40383,0.80766 1.51171,1.10788 1.91555,1.91554 0.28555,0.57111 -0.4515,1.46405 0,1.91555 0.45149,0.4515 1.46404,-0.4515 1.91554,0 0.4515,0.4515 -0.4515,1.46405 0,1.91555 0.4515,0.4515 1.46405,-0.4515 1.91555,0 0.4515,0.4515 -0.4515,1.46405 0,1.91555 0.4515,0.4515 1.27703,0 1.91555,0 5.10813,0 10.21626,0 15.32439,0 0.63852,0 1.27703,0 1.91555,0 0.63851,0 1.46405,-0.4515 1.91555,0 0.4515,0.4515 -0.4515,1.46405 0,1.91555 0.4515,0.4515 1.91554,-0.63852 1.91554,0 0,0.63851 -1.27703,0 -1.91554,0"
       id="path3028"
       inkscape:connector-curvature="0" />
    <path
       style="fill:none;stroke:#000000;stroke-width:1px;stroke-linecap:butt;stroke-linejoin:miter;stroke-opacity:1"
       d="m 226.03118,302.28583 c 0,-14.04736 0,-28.09471 0,-42.14207 0,-3.19258 0,-6.38516 0,-9.57774 0,-0.63852 -0.4515,-1.46405 0,-1.91555 0.4515,-0.4515 1.27703,0 1.91555,0 1.27703,0 2.55406,0 3.8311,0 10.21625,0 20.43251,0 30.64877,0 7.02368,0 14.04736,0 21.07104,0 0.63851,0 1.27703,0 1.91554,0 0.63852,0 1.46405,-0.4515 1.91555,0 0.4515,0.4515 0,1.27703 0,1.91555 0,0.63851 0,1.27703 0,1.91555 0,6.38516 0,12.77032 0,19.15548 0,6.38516 0,12.77033 0,19.15549 0,1.62562 0.352,10.43729 0,11.49329 -0.28555,0.85666 -1.51171,1.10788 -1.91555,1.91555 -0.28555,0.5711 0.28556,1.34444 0,1.91555 -0.40383,0.80766 -1.51171,1.10788 -1.91554,1.91554 -0.28556,0.57111 0.28555,1.34445 0,1.91555 -0.2543,0.5086 -5.23805,5.49235 -5.74665,5.74665 -0.57111,0.28555 -1.34444,-0.28555 -1.91555,0 -0.80766,0.40383 -1.10788,1.51171 -1.91555,1.91555 -0.50367,0.25184 -6.66051,0 -7.66219,0 -5.10813,0 -10.21626,0 -15.32439,0"
       id="path3030"
       inkscape:connector-curvature="0" />
    <path
       style="fill:none;stroke:#000000;stroke-width:1px;stroke-linecap:butt;stroke-linejoin:miter;stroke-opacity:1"
       d="m 287.33228,391.49794 c 14.04735,0 28.09471,0 42.14207,0 5.10813,0 10.21626,0 15.32438,0 3.8311,0 7.6622,0 11.4933,0 0.63851,0 1.30979,-0.20192 1.91554,0 2.709,0.903 5.0109,2.77058 7.6622,3.8311 1.87475,0.7499 3.8719,1.16565 5.74664,1.91555 1.32565,0.53026 2.55407,1.27703 3.8311,1.91554 7.41134,3.70567 13.73902,6.90908 19.15549,13.40884 10.38006,12.45608 -1.65842,-0.84848 5.74664,11.4933 0.92918,1.54862 2.55407,2.55406 3.8311,3.83109 1.27703,1.27704 2.55406,2.55407 3.8311,3.8311 1.27703,1.27703 2.28246,2.90192 3.83109,3.8311 1.73142,1.03885 4.13132,0.70405 5.74665,1.91555 1.14221,0.85665 0.90596,2.82151 1.91555,3.83109 1.6279,1.62791 4.11874,2.2032 5.74664,3.8311 1.00959,1.00958 1.18097,2.6068 1.91555,3.8311 3.39021,5.65034 4.4721,5.12054 5.74665,11.49329 0.25044,1.25223 -0.30973,2.59219 0,3.83109 0.69257,2.77028 2.77058,5.0109 3.83109,7.6622 0.7499,1.87475 1.01255,3.94065 1.91555,5.74664 0.80767,1.61534 3.02343,2.21577 3.8311,3.8311 1.806,3.61199 2.24032,7.78148 3.8311,11.49329 1.12485,2.62465 2.82845,4.98848 3.83109,7.6622 0.9244,2.46504 0.87849,5.24239 1.91555,7.66219 7.19588,16.79038 1.1343,-4.64991 5.74665,11.49329 1.65816,5.80358 3.25217,13.36619 3.8311,19.15549 0.50827,5.08278 -0.7224,10.2676 0,15.32439 0.28555,1.99887 1.58359,3.75495 1.91554,5.74664 0.31492,1.88949 0,3.8311 0,5.74665 0,3.83109 0,7.66219 0,11.49329 0,5.10813 0,10.21626 0,15.32439 0,1.91554 0.60575,3.92939 0,5.74664 -0.28555,0.85666 -1.27703,1.27703 -1.91554,1.91555 -1.27704,1.27703 -2.67493,2.44369 -3.8311,3.8311 -2.04384,2.45261 -3.70281,5.20958 -5.74665,7.66219 -2.31234,2.77481 -5.10813,5.10813 -7.66219,7.6622 -1.91555,1.91554 -3.8311,3.83109 -5.74665,5.74664 -0.63851,0.63852 -1.16421,1.41466 -1.91555,1.91555 -1.18797,0.79198 -2.82151,0.90597 -3.83109,1.91555 -0.4515,0.4515 0.4515,1.46405 0,1.91555 -0.4515,0.4515 -1.27704,0 -1.91555,0 -0.63852,0 -1.27703,0 -1.91555,0"
       id="path3080"
       inkscape:connector-curvature="0" />
    <path
       style="fill:none;stroke:#000000;stroke-width:1px;stroke-linecap:butt;stroke-linejoin:miter;stroke-opacity:1"
       d="m 423.33622,699.90125 c 3.65917,-6.561 6.42082,-13.62275 7.6622,-21.07103 0.20994,-1.25966 0,-2.55406 0,-3.8311 0,-1.91555 0,-3.83109 0,-5.74664 0,-4.46962 0,-8.93923 0,-13.40884 0,-15.96291 0,-31.92581 0,-47.88872 0,-7.66219 0,-15.32438 0,-22.98658 0,-1.15443 0.20142,-7.39363 0,-7.66219 -4.12791,-5.50388 -14.69941,-12.53934 -19.15549,-15.32439 -0.54146,-0.33841 -1.3098,0.20192 -1.91555,0 -1.35449,-0.4515 -2.50545,-1.38529 -3.83109,-1.91555 -3.25336,-1.30134 -10.29505,-3.31213 -13.40884,-3.8311 -1.25966,-0.20994 -2.55407,0 -3.8311,0 -3.19258,0 -6.38516,0 -9.57774,0 -1.27703,0 -2.5922,0.30973 -3.8311,0 -1.38513,-0.34628 -2.55406,-1.27703 -3.8311,-1.91554 -3.19258,-0.63852 -6.35465,-1.45511 -9.57774,-1.91555 -1.2642,-0.1806 -2.55406,0 -3.8311,0 -1.91554,0 -3.83109,0 -5.74664,0 -4.46961,0 -8.93923,0 -13.40884,0 -7.66219,0 -15.32439,0 -22.98658,0 -1.27704,0 -2.55407,0 -3.8311,0 -1.27703,0 -2.59219,-0.30973 -3.8311,0 -1.83131,0.45783 -6.70678,3.83582 -7.66219,5.74664 -0.28555,0.57111 0.28555,1.34444 0,1.91555 -0.40383,0.80767 -1.27703,1.27703 -1.91555,1.91555 -2.46579,2.46579 -4.57848,4.15771 -5.74665,7.66219 -0.60574,1.81725 0.37567,3.8683 0,5.74665 -0.39599,1.97995 -1.51955,3.76669 -1.91554,5.74664 -0.5009,2.50447 0.61945,5.18439 0,7.6622 -0.34629,1.38514 -1.46405,2.4766 -1.91555,3.8311 -0.20192,0.60575 0,1.27703 0,1.91554 0,1.27704 0,2.55407 0,3.8311 0,4.46961 0,8.93923 0,13.40884 0,3.8311 0,7.6622 0,11.49329 0,0.63852 0,1.27703 0,1.91555 0,0.63852 -0.28556,1.34444 0,1.91555 0.40383,0.80767 1.37375,1.19315 1.91555,1.91555 7.24932,9.66577 0.30758,2.22313 7.66219,9.57774 0.63852,0.63852 1.16421,1.41466 1.91555,1.91555 1.18797,0.79198 2.64312,1.12357 3.8311,1.91555 0.63851,0.63851 1.27703,1.27703 1.91554,1.91555 0,0.63851 -0.45149,1.46405 0,1.91554 1.00959,1.00959 2.55407,1.27704 3.8311,1.91555 1.27703,0.63852 2.44596,1.56927 3.8311,1.91555 1.2389,0.30973 2.59219,-0.30972 3.8311,0 8.89303,4.44652 -1.10258,0.1626 7.66219,1.91555 10.60222,2.12044 0.7133,2.24416 13.40884,3.8311 2.53434,0.31679 5.1338,-0.3612 7.66219,0 5.22854,0.74693 8.68297,4.17135 13.40884,5.74664 0.60575,0.20192 1.3098,-0.20191 1.91555,0 1.3545,0.4515 2.43106,1.63554 3.8311,1.91555 1.87835,0.37567 3.86829,-0.37567 5.74664,0 1.40004,0.28001 2.50545,1.38529 3.8311,1.91555 1.87475,0.7499 3.8719,1.16565 5.74665,1.91555 1.32564,0.53026 2.4766,1.46405 3.83109,1.91555 0.60575,0.20191 1.34445,-0.28556 1.91555,0 3.85196,1.92597 0.76796,4.02525 1.91555,5.74664 1.00179,1.50268 3.02343,2.21577 3.8311,3.8311 0.5711,1.14221 -0.40383,2.6196 0,3.8311 0.28555,0.85666 1.51171,1.10788 1.91555,1.91555 2.11896,4.23792 1.91555,7.17489 1.91555,11.49329"
       id="path3082"
       inkscape:connector-curvature="0" />
    <path
       style="fill:none;stroke:#000000;stroke-width:1px;stroke-linecap:butt;stroke-linejoin:miter;stroke-opacity:1"
       d="m 289.24783,452.79549 c -5.67157,0.0952 -8.8076,-1.15194 -13.40884,1.91555 -0.75134,0.5009 -1.16421,1.41466 -1.91555,1.91555 -1.18797,0.79198 -2.64312,1.12357 -3.8311,1.91555 -0.75134,0.50089 -1.27703,1.27703 -1.91555,1.91555 -0.63851,0.63851 -1.51171,1.10788 -1.91554,1.91555 -0.28556,0.5711 0.45149,1.46405 0,1.91554 -0.4515,0.4515 -1.81058,-0.62982 -1.91555,0 -0.62983,3.77898 0,7.6622 0,11.4933 0,1.91554 0,3.83109 0,5.74664 0,0.63852 -0.4515,1.46405 0,1.91555 0.4515,0.4515 1.27703,0 1.91555,0 0.63851,0 1.27703,0 1.91554,0 4.65326,0 6.61189,-2.78079 9.57775,-5.74665 0.63851,-0.63851 1.27703,-1.27703 1.91555,-1.91554 0.63851,-0.63852 1.51171,-1.10789 1.91554,-1.91555 0.28556,-0.57111 -0.4515,-1.46405 0,-1.91555 0.4515,-0.4515 1.34445,0.28555 1.91555,0 1.61533,-0.80767 2.21577,-3.02343 3.8311,-3.8311 1.53244,-0.76622 4.21421,0.76622 5.74664,0 0.80767,-0.40383 1.10789,-1.51171 1.91555,-1.91555 0.57111,-0.28555 1.27704,0 1.91555,0 1.27703,0 2.55407,0 3.8311,0 0.63851,0 1.27703,0 1.91555,0 0.63851,0 1.91555,-0.63851 1.91555,0 0,0.63852 -1.27704,0 -1.91555,0"
       id="path3090"
       inkscape:connector-curvature="0" />
    <path
       style="fill:none;stroke:#000000;stroke-width:1px;stroke-linecap:butt;stroke-linejoin:miter;stroke-opacity:1"
       d="m 302.65667,485.35982 c -1.27704,3.19258 -2.55407,6.38516 -3.8311,9.57774 0,0.63852 0.15486,1.2961 0,1.91555 -0.48972,1.95888 -1.42583,3.78777 -1.91555,5.74665 -0.60095,2.40382 0.60096,5.25836 0,7.66219 -2.2011,8.80441 -1.91555,0.43461 -1.91555,5.74664 0,1.91555 0,3.8311 0,5.74665 0,0.63852 -0.5711,1.63 0,1.91555 1.71332,0.85666 3.8311,0 5.74665,0 0.45519,0 7.23286,0.21467 7.66219,0 8.76672,-4.38336 -8.12847,0.79394 5.74665,-3.8311 1.2115,-0.40383 2.9281,0.903 3.8311,0 0.45149,-0.4515 -0.4515,-1.46405 0,-1.91555 0.45149,-0.4515 1.46404,0.4515 1.91554,0 0.4515,-0.4515 -0.4515,-1.46405 0,-1.91555 0.903,-0.90299 2.68889,0.57111 3.8311,0 0.80767,-0.40383 1.27703,-1.27703 1.91555,-1.91554"
       id="path3092"
       inkscape:connector-curvature="0" />
    <path
       style="fill:none;stroke:#000000;stroke-width:1px;stroke-linecap:butt;stroke-linejoin:miter;stroke-opacity:1"
       d="m 340.96764,523.67079 c -2.55407,0 -7.6622,2.55406 -7.6622,0 0,-2.55407 10.21626,0 7.6622,0 -3.19258,0 -6.44716,-0.62612 -9.57774,0 -0.19156,0.0383 0.15324,5.74664 0,5.74664 -0.63852,0 0,-2.55406 0,-1.91554 0,2.55406 0,5.10813 0,7.66219 0,7.97084 0,4.76576 0,11.49329 0,0.46457 -0.0616,5.68504 0,5.74665 0.0771,0.0771 6.95873,0 7.66219,0 5.74664,0 11.49329,0 17.23994,0 1.27703,0 2.55406,0 3.83109,0 0.63852,0 1.34445,0.28555 1.91555,0 0.80767,-0.40384 1.10788,-1.51172 1.91555,-1.91555 5.63709,-2.81855 -2.52198,4.43752 3.8311,-1.91555"
       id="path3094"
       inkscape:connector-curvature="0" />
    <path
       style="fill:none;stroke:#000000;stroke-width:1px;stroke-linecap:butt;stroke-linejoin:miter;stroke-opacity:1"
       d="m 239.44357,471.95098 c -2.24559,0.5614 -7.95898,0.59356 -9.57775,3.8311 -0.5711,1.14221 0.903,2.92809 0,3.83109 -0.4515,0.4515 -1.46405,-0.4515 -1.91555,0 -0.45149,0.4515 0.20192,1.3098 0,1.91555 -0.45149,1.3545 -1.46404,2.4766 -1.91554,3.8311 -0.20192,0.60575 0.4515,1.46405 0,1.91555 -0.4515,0.4515 -1.46405,-0.4515 -1.91555,0 -0.4515,0.4515 0,1.27703 0,1.91555 0,3.83109 0,7.66219 0,11.49329 0,0.63851 0,1.27703 0,1.91555 0,0.63851 -0.4515,1.46404 0,1.91554 0.4515,0.4515 1.27703,0 1.91555,0 0.63851,0 1.27703,0 1.91554,0 7.6622,0 15.32439,0 22.98659,0 0.63851,0 1.27703,0 1.91555,0 0.63851,0 1.46405,0.4515 1.91554,0 0.4515,-0.4515 0,-1.27703 0,-1.91554"
       id="path3096"
       inkscape:connector-curvature="0" />
    <path
       style="fill:none;stroke:#000000;stroke-width:1px;stroke-linecap:butt;stroke-linejoin:miter;stroke-opacity:1"
       d="m 266.26125,521.75524 c -2.55407,0 -7.6622,2.55407 -7.6622,0 0,-2.55406 10.21626,0 7.6622,0 -3.19259,0 -6.38517,0 -9.57775,0 -1.27703,0 -2.6196,-0.40383 -3.83109,0 -0.85666,0.28555 -1.51172,1.10788 -1.91555,1.91555 -1.97879,3.95756 -1.91555,5.80388 -1.91555,9.57774 0,1.27703 0.47428,2.6454 0,3.8311 -0.85502,2.13754 -2.80152,3.68749 -3.8311,5.74664 -0.29148,0.58297 0,4.88397 0,5.74665 0,0.63852 -0.4515,1.46405 0,1.91555 0.4515,0.4515 1.27703,0 1.91555,0 0.63852,0 1.27703,0 1.91555,0 9.57774,0 19.15548,0 28.73323,0"
       id="path3098"
       inkscape:connector-curvature="0" />
    <path
       style="fill:none;stroke:#000000;stroke-width:1px;stroke-linecap:butt;stroke-linejoin:miter;stroke-opacity:1"
       d="m 283.50118,563.89731 c -2.55406,0 -7.66219,2.55406 -7.66219,0 0,-2.55407 9.94662,-1.14221 7.66219,0 -3.4739,1.73695 -8.01939,0.17859 -11.49329,1.91555 -2.05915,1.02957 -2.44977,3.90488 -3.8311,5.74664 -1.62539,2.1672 -3.83109,3.8311 -5.74664,5.74665 -0.63852,0.63851 -1.51172,1.10788 -1.91555,1.91555 -0.28555,0.5711 0,1.27703 0,1.91554 0,3.8311 0,7.6622 0,11.4933 0,0.63851 -0.57111,1.62999 0,1.91554 0.45044,0.22523 6.40383,0 7.66219,0 6.38517,0 12.77033,0 19.15549,0 0.63852,0 1.27703,0 1.91555,0 0.63851,0 1.91555,-0.63851 1.91555,0 0,0.63852 -1.27704,0 -1.91555,0"
       id="path3100"
       inkscape:connector-curvature="0" />
    <path
       style="fill:none;stroke:#000000;stroke-width:1px;stroke-linecap:butt;stroke-linejoin:miter;stroke-opacity:1"
       d="m 162.82162,402.99123 c 0,32.56433 0,65.12865 0,97.69298 0,7.02367 0,14.04735 0,21.07103 0,1.06918 -0.29228,8.70087 0,9.57774 0.57111,1.71332 2.82932,2.32842 3.8311,3.8311 2.3576,3.5364 3.38905,7.95689 5.74665,11.49329 1.00178,1.50268 2.82931,2.32842 3.83109,3.8311 0.79199,1.18797 1.12357,2.64312 1.91555,3.8311 0.5009,0.75134 1.37375,1.19315 1.91555,1.91554 1.38132,1.84177 2.39292,3.94893 3.8311,5.74665 8.2853,8.2853 0.30021,-0.50745 5.74664,7.66219 1.87912,2.81868 5.78308,4.84352 7.6622,7.6622 0.79198,1.18797 1.12357,2.64312 1.91555,3.83109 0.50089,0.75134 1.62999,1.05889 1.91555,1.91555 0.40383,1.2115 -0.40384,2.6196 0,3.8311 0.28555,0.85666 1.27703,1.27703 1.91554,1.91555 1.91555,1.91555 3.63128,4.05435 5.74665,5.74664 1.79772,1.43818 4.11874,2.2032 5.74665,3.8311 1.00958,1.00958 0.90596,2.82152 1.91554,3.8311 1.00959,1.00958 2.82152,0.90596 3.8311,1.91555 1.6279,1.6279 2.44978,3.90488 3.8311,5.74664 0.5418,0.7224 1.27703,1.27704 1.91555,1.91555 6.35307,6.35308 -1.806,-0.903 3.83109,1.91555 2.93381,1.46691 1.49799,3.41354 3.8311,5.74665 4.65249,4.65248 2.81283,-0.56962 5.74665,3.83109 0.79198,1.18798 1.12356,2.64313 1.91554,3.8311 0.5009,0.75134 1.27704,1.27703 1.91555,1.91555 1.91555,1.91555 4.05435,3.63127 5.74665,5.74664 0.89192,1.1149 1.05889,2.68889 1.91555,3.8311 1.08359,1.4448 2.55406,2.55407 3.83109,3.8311 0.63852,0.63851 1.16421,1.41465 1.91555,1.91555 1.18798,0.79198 2.64313,1.12356 3.8311,1.91554 0.75134,0.5009 1.16421,1.41466 1.91555,1.91555 1.18797,0.79199 2.64312,1.12357 3.8311,1.91555 0.75134,0.5009 1.27703,1.27703 1.91554,1.91555 0.63852,0.63852 1.51172,1.10788 1.91555,1.91555 0.28556,0.57111 -0.28555,1.34444 0,1.91555 3.98603,7.97205 -0.13224,-2.04779 3.8311,1.91555 0.4515,0.4515 -0.4515,1.46405 0,1.91554 0.4515,0.4515 1.46405,-0.45149 1.91555,0 0.4515,0.4515 -0.28556,1.34445 0,1.91555 0.40383,0.80767 1.51171,1.10789 1.91555,1.91555 0.28555,0.57111 0,1.27703 0,1.91555 1.27703,1.27703 2.55406,2.55406 3.83109,3.8311"
       id="path3102"
       inkscape:connector-curvature="0" />
    <path
       style="fill:none;stroke:#000000;stroke-width:1px;stroke-linecap:butt;stroke-linejoin:miter;stroke-opacity:1"
       d="m 185.80821,558.15066 c -15.96291,0 -31.92581,0 -47.88872,0 -3.83109,0 -7.66219,0 -11.49329,0 -0.63851,0 -1.46405,-0.4515 -1.91555,0 -2.8639,2.86391 -1.91554,8.06279 -1.91554,11.49329 0,2.55407 0,5.10813 0,7.6622 0,5.10813 0,10.21626 0,15.32439 0,4.01268 -0.52649,7.83024 1.91554,11.49329 0.35419,0.53127 1.34445,-0.28556 1.91555,0 0.80767,0.40383 1.27704,1.27703 1.91555,1.91555 1.27703,1.27703 2.55407,2.55406 3.8311,3.83109 1.27703,1.27704 2.82931,2.32842 3.8311,3.8311 0.79198,1.18797 1.12356,2.64312 1.91554,3.8311 1.16251,1.74375 4.89774,4.04882 5.74665,5.74664 0.28555,0.57111 -0.28555,1.34444 0,1.91555 0.40383,0.80767 1.41465,1.16421 1.91555,1.91555 0.79198,1.18797 0.90596,2.82151 1.91555,3.8311 1.00958,1.00958 2.68888,1.05889 3.83109,1.91555 4.29083,3.21812 7.20247,8.27516 11.49329,11.49329 2.28443,1.71331 5.28625,2.24713 7.6622,3.83109 1.25846,0.83898 4.70987,5.40106 5.74664,5.74665 1.2115,0.40383 2.6196,-0.40383 3.8311,0 0.85666,0.28555 1.27703,1.27703 1.91555,1.91555 1.27703,0.63851 2.44596,1.56926 3.8311,1.91555 2.77441,0.6936 8.72169,-0.55432 11.49329,0 1.40004,0.28 2.44596,1.56926 3.8311,1.91554 1.85835,0.46459 3.83109,0 5.74664,0 11.49329,0 22.98658,0 34.47987,0 2.09838,0 7.56549,0.19342 7.6622,0 0.5711,-1.14221 0,-2.55406 0,-3.83109"
       id="path3104"
       inkscape:connector-curvature="0" />
    <path
       style="fill:none;stroke:#000000;stroke-width:1px;stroke-linecap:butt;stroke-linejoin:miter;stroke-opacity:1"
       d="m 452.06945,627.11041 c 1.90214,1.34331 12.34775,-0.85047 15.32439,0 3.30622,0.94463 6.31568,2.74374 9.57774,3.8311 2.49757,0.83252 5.13082,1.1923 7.6622,1.91555 1.94147,0.5547 3.80517,1.36084 5.74664,1.91554 2.53138,0.72325 5.16463,1.08303 7.6622,1.91555 3.26206,1.08736 6.28424,2.84305 9.57774,3.8311 15.18214,4.55464 3.97485,-0.5906 17.23994,3.8311 6.84588,-0.88964 9.97695,5.6569 15.32438,7.66219 3.04851,1.14319 6.58519,0.63302 9.57775,1.91555 1.65997,0.71142 2.32841,2.82931 3.83109,3.8311 2.37595,1.58396 5.10813,2.55406 7.6622,3.83109 1.27703,0.63852 2.82151,0.90597 3.8311,1.91555 4.30546,4.30546 3.66936,6.30009 5.74664,11.49329 0.53026,1.32565 1.27703,2.55407 1.91555,3.8311 0.63852,1.27703 1.12357,2.64312 1.91555,3.8311 0.50089,0.75134 1.51171,1.10788 1.91555,1.91555 0.90299,1.80599 1.27703,3.83109 1.91555,5.74664 0.63851,1.91555 1.62999,3.74777 1.91554,5.74665 0.3612,2.52839 0,5.10813 0,7.66219 0,5.74665 0,11.49329 0,17.23994 0,7.66219 0,15.32439 0,22.98658 0,6.19601 0.61946,9.40939 -1.91554,15.32439 -2.22649,5.19513 -6.67037,8.81389 -11.4933,11.49329 -3.0058,1.66989 -6.57194,2.16121 -9.57774,3.8311 -16.48326,9.15737 2.43073,3.1909 -19.15548,11.49329 -4.33863,1.6687 -8.99892,2.36112 -13.40884,3.83109 -5.17553,1.72518 -10.07881,4.24791 -15.32439,5.74665 -3.73451,1.067 -7.72532,0.97355 -11.49329,1.91555 -3.91776,0.97944 -7.6622,2.55406 -11.49329,3.8311 -5.74665,1.91554 -11.53534,3.70928 -17.23994,5.74664 -8.56033,3.05726 -9.54894,3.8167 -17.23994,7.6622 -2.55406,1.27703 -5.33855,2.17135 -7.66219,3.83109 -4.4088,3.14914 -7.33108,8.02478 -11.49329,11.49329 -1.7686,1.47384 -3.77253,2.64663 -5.74665,3.8311 -1.2243,0.73458 -2.82151,0.90597 -3.8311,1.91555 -3.32085,3.32085 -1.91554,12.24005 -1.91554,15.32439 0,3.83109 0,7.66219 0,11.49329 0,3.8311 0,7.66219 0,11.49329 0,1.91555 0,3.8311 0,5.74665 0,1.27703 -0.30973,2.59219 0,3.83109 1.42436,5.69745 7.2078,8.43223 11.49329,11.49329 2.59791,1.85565 4.89025,4.16269 7.66219,5.74665 1.75313,1.00179 3.8311,1.27703 5.74665,1.91555 3.83109,1.27703 7.74379,2.3313 11.49329,3.83109 1.32565,0.53026 2.43106,1.63555 3.8311,1.91555 2.66048,0.5321 6.73989,-0.35473 9.57774,0 3.85395,0.48175 7.72531,0.97356 11.49329,1.91555 1.38513,0.34629 2.41436,1.73846 3.8311,1.91555 5.06868,0.63359 10.21625,0 15.32438,0 11.4933,0 22.98659,0 34.47988,0 3.83109,0 7.68562,-0.42307 11.49329,0 3.23589,0.35954 6.34185,1.556 9.57774,1.91555 2.53844,0.28205 5.10813,0 7.6622,0 7.66219,0 15.32438,0 22.98658,0 7.66219,0 15.32439,0 22.98658,0 1.27703,0 2.55406,0 3.8311,0 0.63851,0 1.91555,-0.63852 1.91555,0 0,0.903 -1.21043,1.35145 -1.91555,1.91555 -2.49299,1.99439 -4.95489,4.05458 -7.6622,5.74664 -3.63223,2.27015 -7.92937,3.3707 -11.49329,5.74665 -0.75134,0.50089 -1.03951,1.69654 -1.91555,1.91555 -1.85835,0.46459 -3.84589,-0.2376 -5.74664,0 -6.46133,0.80766 -12.6837,3.11201 -19.15549,3.83109 -0.94695,0.10522 -11.35887,-0.40999 -13.40884,0 -1.97995,0.39599 -3.75495,1.5836 -5.74664,1.91555 -1.88949,0.31492 -3.85716,-0.31491 -5.74665,0 -1.99169,0.33195 -3.76669,1.51956 -5.74664,1.91555 -1.25224,0.25045 -2.57887,-0.25045 -3.8311,0 -1.97996,0.39599 -3.76669,1.51956 -5.74665,1.91555 -1.25223,0.25045 -2.55406,0 -3.83109,0 -3.8311,0 -7.6622,0 -11.49329,0 -8.93923,0 -17.87846,0 -26.81768,0 -6.38517,0 -12.77033,0 -19.15549,0 -10.04192,0 -11.73692,0.75134 -21.07103,-1.91555 -5.8025,-1.65786 -2.78462,-3.19922 -9.57775,-5.74664 -16.1873,-6.07024 -4.22062,-0.38418 -13.40884,-1.91555 -2.59684,-0.43281 -5.10812,-1.27704 -7.66219,-1.91555 -2.55406,-0.63852 -5.16462,-1.08303 -7.66219,-1.91555 -1.3545,-0.4515 -2.44596,-1.56926 -3.8311,-1.91555 -2.47781,-0.61945 -5.2392,0.80767 -7.66219,0 -0.85666,-0.28555 -1.10789,-1.51171 -1.91555,-1.91555 -4.71791,-2.35895 1.72923,5.56033 -5.74665,-1.91555 -1.00958,-1.00958 -1.05889,-2.68888 -1.91555,-3.83109 -1.0836,-1.4448 -2.7475,-2.3863 -3.83109,-3.8311 -1.28138,-1.7085 -3.63794,-8.03247 -3.8311,-9.57774 -0.39599,-3.16793 0,-6.38516 0,-9.57775 0,-5.10812 0,-10.21625 0,-15.32438 0,-8.93923 0,-17.87846 0,-26.81768 0,-3.19258 0,-6.38516 0,-9.57775 0,-1.27703 0,-2.55406 0,-3.83109 0,-0.63852 -0.20192,-1.3098 0,-1.91555 0.4515,-1.3545 1.27703,-2.55407 1.91555,-3.8311 0.63851,-1.27703 0.90596,-2.82151 1.91555,-3.8311 1.6279,-1.6279 4.11874,-2.20319 5.74664,-3.83109 2.01917,-2.01917 2.11778,-5.37777 3.8311,-7.6622 1.0836,-1.44479 2.55406,-2.55406 3.8311,-3.83109 1.27703,-1.27704 2.3863,-2.7475 3.83109,-3.8311 1.14221,-0.85666 2.64313,-1.12357 3.8311,-1.91555 8.26073,-5.50715 -9.93678,3.2085 7.66219,-3.8311 2.6513,-1.06051 4.89193,-3.13852 7.6622,-3.83109 1.2389,-0.30973 2.57886,0.25044 3.83109,0 1.97996,-0.39599 3.74778,-1.63 5.74665,-1.91555 2.5284,-0.3612 5.10813,0 7.66219,0 1.27704,0 2.5922,0.30972 3.8311,0 7.20486,-1.80122 16.44284,-5.6515 22.98658,-9.57774 0.77432,-0.46459 1.16421,-1.41466 1.91555,-1.91555 11.62943,-7.75295 -5.99783,5.51425 9.57774,-3.8311 11.07742,-6.64645 -2.7148,-1.59584 7.6622,-5.74665 11.83524,-4.73409 0.59314,0.66121 9.57774,-3.83109 1.27703,-0.63852 2.55407,-1.27703 3.8311,-1.91555 1.27703,-0.63852 2.44596,-1.56927 3.8311,-1.91555 1.2389,-0.30973 2.61959,0.40383 3.83109,0 0.85666,-0.28555 1.16421,-1.41465 1.91555,-1.91555 0.96466,-4.22027 3.94065,-1.01255 5.74665,-1.91555 0.80766,-0.40383 1.05889,-1.62999 1.91555,-1.91555 1.21149,-0.40383 2.61959,0.40384 3.83109,0 0.85666,-0.28555 1.27703,-1.27703 1.91555,-1.91554 1.27703,-0.63852 2.44596,-1.56927 3.8311,-1.91555 1.2389,-0.30973 2.76854,0.70837 3.8311,0 1.18797,-0.79198 0.77333,-2.97444 1.91554,-3.8311 1.61534,-1.2115 4.31888,-0.48778 5.74665,-1.91555 0.903,-0.903 -0.57111,-2.68888 0,-3.83109 7.39145,-7.39145 1.95207,-0.14607 3.8311,-7.6622 0.34628,-1.38513 1.38529,-2.50545 1.91554,-3.8311 2.43038,-6.07593 1.91555,-7.60431 1.91555,-13.40884 0,-1.27703 0.40384,-2.61959 0,-3.83109 -1.27703,-3.8311 -1.91555,-4.46962 -5.74664,-5.74665 -1.2115,-0.40383 -2.9281,0.903 -3.8311,0 -0.4515,-0.4515 0.4515,-1.46405 0,-1.91555 -0.4515,-0.4515 -1.46405,0.4515 -1.91555,0 -0.4515,-0.4515 0.4515,-1.46405 0,-1.91555 -0.903,-0.90299 -2.9281,0.903 -3.83109,0 -0.4515,-0.45149 0.45149,-1.46404 0,-1.91554 -1.62791,-1.62791 -3.94893,-2.39293 -5.74665,-3.8311 -2.28042,-1.82433 -7.75341,-8.43754 -9.57774,-9.57774 -2.91586,-1.82241 -6.50224,-2.29335 -9.57775,-3.8311 -0.80766,-0.40383 -1.10788,-1.51172 -1.91554,-1.91555 -0.57111,-0.28555 -1.27704,0 -1.91555,0 -0.63852,0 -1.27704,0 -1.91555,0 -3.19258,0 -6.38516,0 -9.57774,0 -1.91555,0 -3.9294,0.60575 -5.74665,0 -0.85666,-0.28555 -1.10788,-1.51171 -1.91555,-1.91555 -1.20396,-0.60198 -6.45823,0.60198 -7.66219,0 -6.88174,-3.44087 6.85327,-1.41185 -7.6622,-3.83109 -1.88948,-0.31492 -3.83109,0 -5.74664,0 -0.63852,0 -1.46405,0.45149 -1.91555,0 -0.4515,-0.4515 0.4515,-1.46405 0,-1.91555 -0.4515,-0.4515 -1.27703,0 -1.91555,0 -0.63852,0 -1.27703,0 -1.91555,0 -0.63851,0 -1.91555,0.63851 -1.91555,0 0,-0.63852 1.91555,-0.63852 1.91555,0 0,0.63851 -1.27703,0 -1.91555,0 -1.91554,0 -3.83109,0 -5.74664,0"
       id="path3106"
       inkscape:connector-curvature="0" />
  </g>
</svg>
