<?xml version="1.0" encoding="UTF-8" standalone="no"?>
<!-- Created with Inkscape (http://www.inkscape.org/) -->

<svg
   xmlns:dc="http://purl.org/dc/elements/1.1/"
   xmlns:cc="http://creativecommons.org/ns#"
   xmlns:rdf="http://www.w3.org/1999/02/22-rdf-syntax-ns#"
   xmlns:svg="http://www.w3.org/2000/svg"
   xmlns="http://www.w3.org/2000/svg"
   xmlns:sodipodi="http://sodipodi.sourceforge.net/DTD/sodipodi-0.dtd"
   xmlns:inkscape="http://www.inkscape.org/namespaces/inkscape"
   width="210mm"
   height="297mm"
   id="svg2"
   version="1.1"
   inkscape:version="0.48.5 r10040"
   sodipodi:docname="e-os-três-falaram.svg"
   inkscape:export-filename="/home/fredm/projetos/o-rato-anderson/um-dia-este-rato-encontrou-uma-rata.png"
   inkscape:export-xdpi="90"
   inkscape:export-ydpi="90">
  <defs
     id="defs4" />
  <sodipodi:namedview
     id="base"
     pagecolor="#ffffff"
     bordercolor="#666666"
     borderopacity="1.0"
     inkscape:pageopacity="0.0"
     inkscape:pageshadow="2"
     inkscape:zoom="0.73952369"
     inkscape:cx="433.55668"
     inkscape:cy="660.73905"
     inkscape:document-units="px"
     inkscape:current-layer="layer1"
     showgrid="false"
     inkscape:window-width="1366"
     inkscape:window-height="715"
     inkscape:window-x="0"
     inkscape:window-y="31"
     inkscape:window-maximized="1" />
  <metadata
     id="metadata7">
    <rdf:RDF>
      <cc:Work
         rdf:about="">
        <dc:format>image/svg+xml</dc:format>
        <dc:type
           rdf:resource="http://purl.org/dc/dcmitype/StillImage" />
        <dc:title />
      </cc:Work>
    </rdf:RDF>
  </metadata>
  <g
     inkscape:label="Camada 1"
     inkscape:groupmode="layer"
     id="layer1">
    <path
       style="fill:none;stroke:#000000;stroke-width:1px;stroke-linecap:butt;stroke-linejoin:miter;stroke-opacity:1"
       d="m 603.09089,383.01243 c -15.32518,0 -30.65036,0 -45.97554,0 -4.05666,0 -8.11333,0 -12.16999,0 -0.45074,0 -0.90149,0 -1.35223,0 -0.45074,0 -0.94906,-0.20158 -1.35222,0 -0.57014,0.28507 -0.90148,0.90148 -1.35222,1.35222 -3.72296,3.72296 1.92237,-2.20744 -4.05666,6.76111 -0.70718,1.06077 -1.80297,1.80296 -2.70445,2.70444 -0.90148,0.90148 -1.68453,1.93951 -2.70444,2.70445 -0.80631,0.60473 -1.99176,0.63953 -2.70444,1.35222 -1.14917,1.14916 -1.97765,2.60307 -2.70445,4.05666 -2.10508,4.21018 -2.61528,11.14964 -5.40889,14.87444 -0.76493,1.01991 -1.93951,1.68453 -2.70444,2.70444 -0.60473,0.80631 -0.79315,1.86584 -1.35222,2.70445 -0.35359,0.53038 -0.90148,0.90148 -1.35222,1.35222 -0.45074,0.90148 -0.79315,1.86583 -1.35222,2.70444 -0.70718,1.06077 -1.80297,1.80297 -2.70445,2.70445 -1.35222,1.35222 -2.70444,2.70444 -4.05666,4.05666 -0.45074,0.45074 -0.99863,0.82184 -1.35222,1.35222 -0.55908,0.83862 -0.79315,1.86583 -1.35223,2.70445 -0.35359,0.53038 -1.06714,0.78207 -1.35222,1.35222 -1.27488,2.54977 -1.42955,5.56356 -2.70444,8.11333 -0.28507,0.57015 -0.96976,0.84227 -1.35222,1.35222 -0.9751,1.30014 -1.72935,2.75653 -2.70445,4.05667 -0.38246,0.50995 -0.96975,0.84226 -1.35222,1.35222 -0.9751,1.30013 -1.80296,2.70444 -2.70444,4.05666 -0.90148,1.35222 -1.97765,2.60307 -2.70444,4.05667 -0.63745,1.27488 -0.71478,2.78178 -1.35223,4.05666 -0.28507,0.57015 -0.99863,0.82184 -1.35222,1.35222 -0.55907,0.83862 -0.83367,1.84019 -1.35222,2.70445 -0.83614,1.39357 -2.10087,2.54773 -2.70444,4.05666 -2.92731,7.31826 3.67597,-2.13341 -1.35223,5.40889 -0.35359,0.53039 -1.06714,0.78208 -1.35222,1.35222 -0.63744,1.27489 -0.90148,2.70445 -1.35222,4.05667 -1.49373,4.4812 -2.56293,9.04101 -4.05666,13.52221 -0.45074,1.35223 -0.71478,2.78178 -1.35223,4.05667 -0.28507,0.57015 -1.06714,0.78207 -1.35222,1.35222 -0.20157,0.40316 0.31872,1.0335 0,1.35222 -0.31872,0.31872 -1.0335,-0.31872 -1.35222,0 -0.63744,0.63745 0.28507,1.84923 0,2.70445 -0.45488,1.36462 -2.13186,3.27702 -1.35222,4.05666 0.0544,0.0544 4.9123,0 5.40889,0 7.21185,0 14.42369,0 21.63554,0 2.25371,0 4.50741,0 6.76111,0 0.90148,0 1.89814,0.40316 2.70445,0 4.86325,-2.43162 0.99103,-2.34326 4.05666,-5.40889 1.14917,-1.14916 2.6631,-1.8683 4.05667,-2.70444 0.86425,-0.51855 2.09971,-0.54591 2.70444,-1.35222 0.85522,-1.14029 0.497,-2.91637 1.35222,-4.05667 1.20947,-1.61261 3.98352,-1.27907 5.40889,-2.70444 0.71268,-0.71268 0.51361,-2.14537 1.35222,-2.70444 0.75008,-0.50005 1.84922,0.28507 2.70444,0 0.60474,-0.20158 0.78208,-1.06715 1.35223,-1.35222 0.40315,-0.20158 1.0335,0.31872 1.35222,0 0.31872,-0.31873 -0.31872,-1.0335 0,-1.35223 0.31872,-0.31872 1.0335,0.31873 1.35222,0 0.31872,-0.31872 -0.20158,-0.94906 0,-1.35222 0.28507,-0.57014 1.06715,-0.78207 1.35222,-1.35222 0.20158,-0.40315 -0.31872,-1.0335 0,-1.35222 0.31872,-0.31872 1.0335,0.31872 1.35222,0 0.31872,-0.31872 -0.20158,-0.94907 0,-1.35222 0.81134,-1.62267 3.24533,-2.434 4.05667,-4.05667 0.9326,-1.86519 -1.63762,-1.20952 1.35222,-2.70444 0.40315,-0.20158 0.92461,0.14254 1.35222,0 0.95617,-0.31872 1.74828,-1.0335 2.70444,-1.35222 1.08841,-0.3628 4.54479,0.43205 5.40889,0 0.57015,-0.28508 0.78208,-1.06715 1.35222,-1.35222 0.35556,-0.17778 4.70179,0 5.40889,0 3.60592,0 7.21185,0 10.81777,0 13.97296,0 27.94592,0 41.91888,0"
       id="path3035"
       inkscape:connector-curvature="0" />
    <path
       style="fill:none;stroke:#000000;stroke-width:1px;stroke-linecap:butt;stroke-linejoin:miter;stroke-opacity:1"
       d="m 536.83203,392.47798 c -2.70445,0 -5.40889,0 -8.11333,0 -0.45075,0 -0.94907,0.20158 -1.35223,0 -3.60273,-1.80137 -4.22006,-13.41801 -5.40888,-17.57888 -0.27689,-0.96911 -1.10778,-1.72665 -1.35223,-2.70445 -0.25707,-1.02832 0,-5.62877 0,-6.7611 0,-4.50741 0,-9.01482 0,-13.52222 0,-3.15519 0,-6.31037 0,-9.46555 0,-0.90149 0,-1.80297 0,-2.70445 0,-0.90148 -0.50005,-1.95436 0,-2.70444 0.55908,-0.83861 1.86584,-0.79315 2.70445,-1.35222 5.8314,-3.88761 -7.01456,2.26493 5.40889,-2.70445 0.93579,-0.37432 1.71612,-1.15455 2.70444,-1.35222 1.32596,-0.26519 2.70444,0 4.05666,0 1.80297,0 3.60593,0 5.40889,0 3.60593,0 7.21185,0 10.81777,0 1.35223,0 2.75648,-0.37148 4.05667,0 1.93821,0.55378 3.68038,1.66734 5.40889,2.70445 0.5466,0.32796 0.95401,0.85446 1.35222,1.35222 5.89039,7.36298 2.72512,2.75614 5.40889,9.46555 2.02394,5.05987 0.88194,0.41167 4.05666,6.76111 0.63744,1.27488 0.90148,2.70444 1.35222,4.05666 0.45074,1.35223 1.07269,2.65898 1.35222,4.05667 0.1768,0.88397 0,1.80296 0,2.70444 0,3.60593 0,7.21185 0,10.81778 0,2.70444 0,5.40888 0,8.11333 0,0.45074 0,0.90148 0,1.35222 0,0.45074 0.25003,0.97718 0,1.35222 -2.79213,4.1882 -1.81829,2.10601 -5.40888,2.70444 -1.83317,0.30553 -3.74664,0.5211 -5.40889,1.35222 -1.14029,0.57015 -1.64367,1.99727 -2.70444,2.70445 -0.37504,0.25002 -0.92462,-0.14254 -1.35223,0 -4.66139,1.5538 -1.00167,1.35222 -4.05666,1.35222"
       id="path3037"
       inkscape:connector-curvature="0" />
    <path
       style="fill:none;stroke:#000000;stroke-width:1px;stroke-linecap:butt;stroke-linejoin:miter;stroke-opacity:1"
       d="m 582.80756,392.47798 c -6.74316,-11.12801 -6.7611,-14.90117 -6.7611,-27.04443 0,-12.48716 0.2964,2.96405 -1.35223,-13.52222 -0.1794,-1.79402 0,-3.60593 0,-5.40889 0,-2.2537 0,-4.5074 0,-6.76111 0,-5.85962 0,-11.71925 0,-17.57888 0,-2.2537 0,-4.50741 0,-6.76111 0,-0.45074 -0.31872,-1.0335 0,-1.35222 2.02169,-2.02168 5.69168,-1.35222 8.11333,-1.35222 2.70445,0 5.40889,0 8.11333,0 2.70445,0 5.40889,0 8.11334,0 1.80296,0 3.62404,-0.25498 5.40888,0 1.41104,0.20158 2.70445,0.90148 4.05667,1.35222 1.35222,0.45074 2.87069,0.56157 4.05666,1.35222 5.35944,3.57296 8.13866,10.86843 10.81778,16.22666 0.45074,0.90148 0.63953,1.99176 1.35222,2.70445 10.55472,10.55472 1.45242,0.4132 8.11333,5.40888 1.01991,0.76493 1.80296,1.80296 2.70444,2.70445 0.45074,0.45074 1.02426,0.80561 1.35222,1.35222 1.03711,1.72851 2.067,3.49655 2.70445,5.40888 1.61741,4.85225 1.35222,6.36598 1.35222,10.81778 0,4.5074 0,9.01481 0,13.52222 0,4.60327 0.67309,14.88047 -1.35222,18.9311 -0.7268,1.45359 -2.78763,1.68921 -4.05667,2.70444 -0.99552,0.79642 -1.70892,1.90803 -2.70444,2.70445 -3.36499,2.69199 -5.03927,3.50338 -9.46555,4.05666 -1.78904,0.22363 -3.62405,-0.25498 -5.40889,0 -1.41104,0.20158 -2.64562,1.15065 -4.05667,1.35222 -1.78484,0.25498 -3.60592,0 -5.40888,0 -4.05667,0 -8.11333,0 -12.17,0"
       id="path3039"
       inkscape:connector-curvature="0" />
    <path
       style="fill:none;stroke:#000000;stroke-width:1px;stroke-linecap:butt;stroke-linejoin:miter;stroke-opacity:1"
       d="m 118.99551,562.85792 c -1.35222,-2.25371 -3.41922,-4.21134 -4.05666,-6.76111 -0.76525,-3.06098 0,-6.31037 0,-9.46555 0,-6.76111 0,-13.52222 0,-20.28333 0,-8.56407 0,-17.12814 0,-25.69221 0,-2.2537 0,-4.50741 0,-6.76111 0,-0.90148 -0.40316,-1.89813 0,-2.70444 0.57014,-1.1403 1.80296,-1.80297 2.70444,-2.70445 2.2537,-2.2537 4.66231,-4.36248 6.76111,-6.76111 1.90054,-2.17204 3.73135,-4.41255 5.40889,-6.7611 1.66278,-2.32791 1.46429,-4.81684 4.05666,-6.76111 8.37959,-6.28469 5.89249,-3.20892 13.52222,-4.05667 2.28428,-0.25381 4.47683,-1.09841 6.76111,-1.35222 3.13588,-0.34843 6.33473,0.39135 9.46555,0 2.28059,-0.28507 4.47683,-1.09841 6.76111,-1.35222 1.79193,-0.19911 3.60592,0 5.40888,0 3.15519,0 6.31037,0 9.46556,0 0.133,0 7.97388,-0.0697 8.11333,0 1.14029,0.57014 1.70892,1.90803 2.70444,2.70444 10.65387,8.5231 -2.0898,-3.56495 6.76111,6.76111 1.80296,1.80296 3.60592,3.60592 5.40889,5.40889 0.90148,0.45074 1.99176,0.63954 2.70444,1.35222 1.75538,1.75538 1.35222,3.26661 1.35222,5.40889 0,0.45074 -0.31872,1.0335 0,1.35222 0.31872,0.31872 1.27812,-0.44461 1.35222,0 0.44461,2.66764 0,5.40888 0,8.11333 0,5.06697 0.74904,12.67595 -1.35222,17.57888 -1.08521,2.53216 -7.40794,9.7597 -8.11333,10.81777 -1.11815,1.67723 -1.70434,3.65871 -2.70444,5.40889 -0.80631,1.41104 -1.8683,2.6631 -2.70445,4.05667 -2.03832,3.3972 -0.49286,2.55784 -4.05666,5.40888 -1.10212,0.88169 -4.95549,3.4548 -6.76111,4.05667 -4.13712,1.37904 3.37462,-4.50345 -5.40889,1.35222 -0.37504,0.25003 0.31872,1.0335 0,1.35222 -0.31872,0.31872 -1.0335,-0.31872 -1.35222,0 -0.31872,0.31872 0.31872,1.0335 0,1.35222 -0.31872,0.31873 -1.0335,-0.31872 -1.35222,0 -0.31872,0.31873 0,0.90148 0,1.35223 0,1.80296 0,3.60592 0,5.40888 0,0.45074 -0.31872,1.0335 0,1.35222 0.31872,0.31873 0.90148,0 1.35222,0 2.70444,0 5.40889,0 8.11333,0 7.66259,0 15.32518,0 22.98777,0 3.15519,0 6.31037,0 9.46555,0 1.35222,0 2.72285,-0.2223 4.05667,0 1.40597,0.23433 2.70444,0.90148 4.05666,1.35223 1.35223,0.45074 2.78178,0.71477 4.05667,1.35222 0.55948,0.27974 3.67456,3.48351 4.05666,4.05666 0.55908,0.83861 0.79315,1.86583 1.35223,2.70445 0.70718,1.06077 2.13429,1.56415 2.70444,2.70444 0.20158,0.40315 0,0.90148 0,1.35222 0,0.45074 0,0.90148 0,1.35222 0,1.35222 0,2.70445 0,4.05667 0,4.5074 0,9.01481 0,13.52222 0,2.49405 0.0486,8.09712 0,8.11333 -2.56566,0.85522 -5.40889,0 -8.11333,0 -5.85963,0 -11.71926,0 -17.57888,0 -6.31037,0 -12.62074,0 -18.93111,0 -6.99976,0 -11.5587,0.12225 -18.9311,-1.35223 -3.64472,-0.72894 -7.36672,-1.32402 -10.81778,-2.70444 -1.1837,-0.47348 -1.68453,-1.93951 -2.70444,-2.70444 -0.80631,-0.60474 -1.86583,-0.79315 -2.70444,-1.35222 -0.53039,-0.35359 -0.78208,-1.06715 -1.35222,-1.35223 -0.687,-0.34349 -3.16982,0.17737 -4.05667,0 -3.64472,-0.72894 -7.13823,-2.17879 -10.81777,-2.70444 -1.993,-0.28471 -7.13539,0 -9.46556,0 -6.31036,0 -12.62073,0 -18.9311,0"
       id="path3041"
       inkscape:connector-curvature="0" />
    <path
       style="fill:none;stroke:#000000;stroke-width:1px;stroke-linecap:butt;stroke-linejoin:miter;stroke-opacity:1"
       d="m 213.65103,477.66795 c -0.90148,-1.80296 -2.37305,-3.42054 -2.70444,-5.40889 -0.59281,-3.55686 0,-7.21185 0,-10.81777 0,-2.70445 0,-5.40889 0,-8.11333 0,-4.50741 0,-9.01481 0,-13.52222 0,-1.35222 -0.53267,-2.81378 0,-4.05666 0.88778,-2.07148 2.46306,-3.81528 4.05666,-5.40889 0.71269,-0.71269 1.89814,-0.74749 2.70445,-1.35222 1.01991,-0.76494 1.68453,-1.93951 2.70444,-2.70445 0.80631,-0.60473 1.89814,-0.74749 2.70444,-1.35222 1.01991,-0.76493 1.68454,-1.93951 2.70445,-2.70444 0.99384,-0.74538 10.60726,-5.31867 10.81777,-5.40889 1.31012,-0.56148 2.74655,-0.79074 4.05667,-1.35222 2.77918,-1.19108 5.30593,-2.93371 8.11333,-4.05667 1.32342,-0.52936 2.87069,-0.56157 4.05666,-1.35222 1.59116,-1.06077 2.5268,-2.90926 4.05667,-4.05666 2.1026,-1.57695 4.47915,-2.75269 6.76111,-4.05667 0.87509,-0.50005 1.89813,-0.74749 2.70444,-1.35222 1.01991,-0.76493 1.68453,-1.93951 2.70444,-2.70444 0.68097,-2.97917 2.78178,-0.71478 4.05667,-1.35222 0.57015,-0.28508 0.90148,-0.90149 1.35222,-1.35223 0.45074,-0.45074 0.90148,-0.90148 1.35222,-1.35222 0.7119,-0.71189 3.69557,-3.33446 4.05667,-4.05666 0.20157,-0.40316 -0.20158,-0.94907 0,-1.35223 0.57014,-1.14029 2.13429,-1.56415 2.70444,-2.70444 0.40316,-0.80631 -0.24766,-1.83765 0,-2.70444 0.78316,-2.74105 2.01304,-5.34771 2.70444,-8.11333 0.21865,-0.87457 -0.28507,-1.84923 0,-2.70445 0.20158,-0.60473 0.90149,-0.90148 1.35223,-1.35222 0.45074,-1.35222 1.07268,-2.65898 1.35222,-4.05666 0.17679,-0.88398 -0.40316,-1.89814 0,-2.70445 0.20158,-0.40315 1.0335,0.31873 1.35222,0 0.31872,-0.31872 0,-0.90148 0,-1.35222 0,-0.45074 0,-0.90148 0,-1.35222"
       id="path3043"
       inkscape:connector-curvature="0" />
    <path
       style="fill:none;stroke:#000000;stroke-width:1px;stroke-linecap:butt;stroke-linejoin:miter;stroke-opacity:1"
       d="m 288.02323,345.15022 c 1.52982,1.02777 11.00098,-0.63031 13.52222,0 0.61841,0.1546 0.90148,0.90148 1.35222,1.35222 1.35222,1.35222 2.86204,2.56339 4.05666,4.05667 1.01524,1.26904 1.70669,2.77383 2.70445,4.05666 2.16131,2.77883 4.69051,5.26626 6.7611,8.11333 1.54586,2.12556 2.47972,4.65851 4.05667,6.76111 2.2948,3.05973 5.72408,5.12677 8.11333,8.11333 0.62962,0.78703 0.79315,1.86583 1.35222,2.70444 0.70718,1.06077 2.1343,1.56415 2.70444,2.70445 0.63745,1.27488 0.90149,2.70444 1.35223,4.05666 0.45074,1.35222 0.90148,2.70445 1.35222,4.05667 0.45074,1.35222 0.61887,2.83442 1.35222,4.05666 0.65592,1.09321 1.70892,1.90803 2.70444,2.70445 1.10212,0.88169 4.95549,3.45479 6.76111,4.05666 0.42761,0.14254 0.92461,-0.14253 1.35222,0 0.95617,0.31872 1.74828,1.0335 2.70445,1.35222 0.84872,0.28291 4.3203,0 5.40888,0 3.60593,0 7.21185,0 10.81778,0 1.06435,0 6.65253,0.10858 6.76111,0 1.38649,-1.38649 2.57709,-7.22185 2.70444,-8.11333 0.19123,-1.33863 0,-2.70444 0,-4.05666 0,-3.15519 0,-6.31037 0,-9.46555 0,-4.95815 0,-9.9163 0,-14.87444 0,-2.70445 0,-5.40889 0,-8.11333 0,-0.90148 0.21864,-1.82988 0,-2.70445 -0.79587,-3.18346 -1.58303,-6.38167 -2.70444,-9.46555 -0.68888,-1.89441 -1.80297,-3.60592 -2.70445,-5.40889 -0.45074,-0.90148 -1.10777,-1.72665 -1.35222,-2.70444 -0.66497,-2.65989 0.1009,-5.78833 -1.35222,-8.11333 -1.06836,-1.70937 -3.60592,-1.80296 -5.40889,-2.70444 -1.80296,-0.90148 -3.6587,-1.70434 -5.40888,-2.70445 -1.41105,-0.80631 -2.50004,-2.23745 -4.05667,-2.70444 -3.0528,-0.91584 -6.34023,-0.72716 -9.46555,-1.35222 -1.39769,-0.27954 -2.68614,-0.96064 -4.05667,-1.35222 -1.78694,-0.51056 -3.59469,-0.94907 -5.40888,-1.35223 -2.24361,-0.49857 -4.49985,-0.94108 -6.76111,-1.35222 -2.69753,-0.49046 -5.51228,-0.4852 -8.11333,-1.35222 -14.58737,-4.86246 5.68097,-0.99126 -8.11333,-4.05666 -2.67646,-0.59477 -5.53666,-0.41525 -8.11333,-1.35223 -14.02449,-5.09981 0.44431,-3.66307 -13.52222,-5.40888 -2.43128,-0.30391 -6.82751,0 -9.46555,0 -0.45074,0 -0.90148,0 -1.35222,0 -0.45074,0 -1.0335,0.31872 -1.35223,0 -0.31872,-0.31872 0,-0.90148 0,-1.35222"
       id="path3045"
       inkscape:connector-curvature="0" />
    <path
       style="fill:none;stroke:#000000;stroke-width:1px;stroke-linecap:butt;stroke-linejoin:miter;stroke-opacity:1"
       d="m 293.43211,282.94802 c 2.82024,-0.84821 9.20779,0.74055 12.17,0 0.61841,-0.1546 0.90148,-0.90148 1.35222,-1.35222 0.90148,-0.90148 1.80296,-1.80296 2.70445,-2.70445 1.35222,-1.35222 2.90926,-2.5268 4.05666,-4.05666 0.60473,-0.80631 0.9552,-1.77805 1.35222,-2.70444 5.04413,-11.76963 0.82127,-1.65911 4.05667,-13.52222 0.75008,-2.75029 2.01304,-5.34771 2.70444,-8.11333 0.21864,-0.87457 -0.21864,-1.82988 0,-2.70444 0.24445,-0.9778 1.10777,-1.72665 1.35222,-2.70445 0.30647,-1.22585 0,-5.19027 0,-6.76111 0,-0.8883 0.15899,-5.09091 0,-5.40888 -2.04418,-4.08837 -5.57443,-2.88933 -9.46555,-4.05667 -2.32494,-0.69748 -4.40627,-2.11573 -6.76111,-2.70444 -3.09205,-0.77302 -6.31037,-0.90148 -9.46555,-1.35222 -12.14281,-1.73469 -6.27834,-1.35223 -17.57888,-1.35223 -6.76111,0 -13.52222,0 -20.28333,0 -1.35222,0 -2.70444,0 -4.05666,0 -0.45074,0 -1.0335,-0.31872 -1.35223,0 -1.14916,1.14917 -1.89813,2.64563 -2.70444,4.05667 -6.21745,10.88053 -5.37757,17.29702 -6.76111,29.74888 -0.35197,3.16772 -1.03508,6.29415 -1.35222,9.46555 -0.30002,3.00018 0,7.73195 0,10.81777 0,1.35222 0,2.70445 0,4.05667 0,1.80296 -0.2964,3.63045 0,5.40889 0.44149,2.64893 3.9902,5.34242 5.40889,6.7611 8.4225,8.4225 -3.77115,-2.96484 6.76111,4.05667 0.37504,0.25002 -0.31873,1.0335 0,1.35222 0.31872,0.31872 0.90148,0 1.35222,0 0.45074,0 0.90148,0 1.35222,0"
       id="path3047"
       inkscape:connector-curvature="0" />
    <path
       style="fill:none;stroke:#000000;stroke-width:1px;stroke-linecap:butt;stroke-linejoin:miter;stroke-opacity:1"
       d="m 255.56991,220.74582 c -3.24168,-6.5889 -6.74482,-12.83796 -13.52222,-16.22666 -1.27489,-0.63744 -2.73325,-0.82285 -4.05667,-1.35222 -0.9358,-0.37432 -1.74827,-1.0335 -2.70444,-1.35222 -0.85522,-0.28508 -1.80296,0 -2.70444,0 -2.70445,0 -5.40889,0 -8.11333,0 -2.70445,0 -5.40889,0 -8.11333,0 -0.90148,0 -1.95437,-0.50006 -2.70445,0 -0.83861,0.55907 -0.83367,1.84018 -1.35222,2.70444 -0.83614,1.39357 -1.89813,2.64562 -2.70444,4.05667 -1.00011,1.75018 -2.067,3.49655 -2.70445,5.40888 -0.72679,2.18039 -0.94108,4.49985 -1.35222,6.76111 -0.49046,2.69752 -1.07941,5.38519 -1.35222,8.11333 -0.1794,1.79402 0,3.60593 0,5.40889 0,5.85963 0,11.71925 0,17.57888 0,5.40889 0,10.81777 0,16.22666 0,0.90148 0,1.80296 0,2.70444 0,1.35223 -0.67089,2.88261 0,4.05667 1.26504,2.21382 3.74952,3.47295 5.40889,5.40889 1.05764,1.23392 1.66403,2.80817 2.70444,4.05666 1.22425,1.46909 2.81214,2.60472 4.05667,4.05667 1.46669,1.71114 2.2777,4.02524 4.05666,5.40888 2.38673,1.85635 5.54927,2.45413 8.11333,4.05667 1.0811,0.67569 1.56415,2.1343 2.70445,2.70444 4.12944,2.06473 9.07122,1.35222 13.52221,1.35222 0.3036,0 5.24129,0.10056 5.40889,0 1.93253,-1.15952 3.60592,-2.70444 5.40889,-4.05666"
       id="path3049"
       inkscape:connector-curvature="0" />
    <path
       style="fill:none;stroke:#000000;stroke-width:1px;stroke-linecap:butt;stroke-linejoin:miter;stroke-opacity:1"
       d="m 201.48104,309.99245 c -12.62074,0 -25.24147,0 -37.86221,0 -4.59235,0 -9.14434,-0.52401 -13.52222,1.35223 -4.61237,1.97673 -4.1259,3.65977 -8.11333,6.7611 -2.56566,1.99552 -5.35705,3.68622 -8.11333,5.40889 -0.85469,0.53418 -1.93016,0.70699 -2.70444,1.35222 -3.18798,2.65665 -10.27981,10.68693 -12.17,13.52222 -1.67722,2.51584 -2.47197,5.53821 -4.05666,8.11333 -6.43489,10.45669 -5.80578,6.33497 -9.46556,14.87444 -0.56147,1.31012 -0.94264,2.69141 -1.35222,4.05667 -0.94291,3.14305 -1.85894,6.2949 -2.70444,9.46555 -3.594043,13.47766 -2.235374,7.97586 -4.056666,21.63555 -1.145881,8.59411 -3.023656,17.0838 -4.056665,25.69221 -0.700209,5.83507 -0.864168,11.72224 -1.352222,17.57888 -0.413449,4.9614 -0.901481,9.91629 -1.352221,14.87444 -3.030508,33.33558 0.250166,-0.89928 -2.704444,25.69221 -0.305312,2.74781 0,6.71062 0,9.46555 0,4.95815 0,9.9163 0,14.87444 0,3.60593 0,7.21185 0,10.81778 0,0.45074 0,0.90148 0,1.35222 0,0.45074 0.450741,1.35222 0,1.35222 -0.45074,0 -0.45074,-1.35222 0,-1.35222 0.637444,0 0.901481,0.90148 1.352222,1.35222"
       id="path3051"
       inkscape:connector-curvature="0" />
    <path
       style="fill:none;stroke:#000000;stroke-width:1px;stroke-linecap:butt;stroke-linejoin:miter;stroke-opacity:1"
       d="m 75.724417,518.2346 c -1.010347,0.25259 -8.079898,1.87305 -9.465552,2.70444 -1.093207,0.65593 -1.684534,1.93952 -2.704444,2.70445 -0.806309,0.60473 -2.074822,0.56519 -2.704443,1.35222 -1.259244,1.57405 -1.885761,3.56685 -2.704444,5.40889 -2.802396,6.30539 -3.34492,7.75698 -4.056665,14.87444 -0.179401,1.79401 0.179402,3.61487 0,5.40888 -0.272814,2.72814 -1.15688,5.37855 -1.352222,8.11333 -0.256911,3.59676 0,7.21185 0,10.81778 0,4.95814 0,9.91629 0,14.87444 0,9.01481 0,18.02962 0,27.04443 0,1.35222 0,2.70444 0,4.05666 0,1.35223 -0.42761,2.77384 0,4.05667 1.802963,5.40889 3.155184,3.15518 6.761109,6.76111 1.149167,1.14917 1.455955,3.01626 2.704443,4.05666 1.388854,1.15738 7.240631,3.61168 9.465553,4.05667 0.883975,0.17679 1.812022,-0.12749 2.704443,0 2.275236,0.32503 4.531396,0.79479 6.761109,1.35222 2.765618,0.69141 5.372281,1.92129 8.11333,2.70444 1.786945,0.51056 3.668765,0.69968 5.408887,1.35223 5.943699,2.22888 4.47241,2.55566 9.465549,5.40888 4.85833,2.77619 5.34746,2.11442 9.46556,5.40889 0.99551,0.79642 1.90802,1.70892 2.70444,2.70444 1.01523,1.26905 1.40431,3.08157 2.70444,4.05667 2.41893,1.81419 5.48806,2.55651 8.11333,4.05666 0.55346,0.31626 0.82184,0.99864 1.35222,1.35223 0.83862,0.55907 1.86584,0.79314 2.70445,1.35222 3.75417,2.50278 -0.12085,0.12658 1.35222,2.70444 8.77964,15.36436 3.31409,0.71509 6.76111,16.22666 1.87249,8.42622 1.4057,-0.87094 2.70444,10.81777 0,11.69751 -0.57015,-0.14629 1.35222,9.46556 0.1768,0.88397 0,1.80296 0,2.70444 0,2.30491 -0.14253,2.41937 1.35222,5.40889 0.28508,0.57014 1.06715,0.78207 1.35223,1.35222 0.40315,0.80631 -0.63745,2.067 0,2.70444 0.31872,0.31872 0.90148,0 1.35222,0 1.35222,0 2.70444,0 4.05666,0 1.80297,0 3.62405,-0.25497 5.40889,0 1.41104,0.20158 2.65069,1.1179 4.05667,1.35222 1.33382,0.22231 2.7307,-0.26519 4.05666,0 0.98831,0.19767 1.71613,1.15456 2.70444,1.35223 2.20994,0.44198 4.50741,0 6.76111,0 4.95815,0 9.9163,0 14.87444,0 2.2537,0 4.55117,0.44198 6.76111,0 0.98831,-0.19767 1.78343,-0.94288 2.70444,-1.35223 3.13688,-1.39416 6.27834,-2.78177 9.46556,-4.05666 13.61183,-5.44473 -2.87103,1.05581 6.7611,-1.35222 0.9778,-0.24445 1.74828,-1.0335 2.70445,-1.35222 0.42761,-0.14254 0.94907,0.20157 1.35222,0 0.57015,-0.28508 0.82184,-0.99864 1.35222,-1.35223 0.83861,-0.55907 1.86583,-0.79314 2.70444,-1.35222 0.53039,-0.35359 0.78208,-1.06715 1.35223,-1.35222 1.27488,-0.63744 2.73324,-0.82285 4.05666,-1.35222 0.9358,-0.37432 1.74828,-1.0335 2.70445,-1.35222 0.85522,-0.28508 1.84922,0.28507 2.70444,0 9.7947,-3.2649 -2.13192,0.38985 4.05666,-2.70445 0.40316,-0.20157 0.94907,0.20158 1.35223,0 0.57014,-0.28507 0.78207,-1.06714 1.35222,-1.35222 0.40315,-0.20158 1.0335,0.31872 1.35222,0 1.5538,-1.5538 1.35222,-2.39144 1.35222,-4.05666 0,-0.45074 0.31872,-1.0335 0,-1.35223 -0.31872,-0.31872 -0.90148,0 -1.35222,0 -1.80296,0 -3.60593,0 -5.40889,0 -3.15518,0 -6.31037,0 -9.46555,0 -1.35222,0 -2.74482,-0.32796 -4.05667,0 -0.97779,0.24445 -1.74827,1.03351 -2.70444,1.35223 -0.42761,0.14253 -1.0335,-0.31872 -1.35222,0 -0.31872,0.31872 0.31872,1.0335 0,1.35222 -0.31872,0.31872 -0.92461,-0.14254 -1.35222,0 -0.95617,0.31872 -1.72665,1.10777 -2.70445,1.35222 -0.87456,0.21864 -1.84922,-0.28507 -2.70444,0 -0.60473,0.20158 -0.82184,0.99863 -1.35222,1.35222 -0.68097,2.97917 -2.78178,0.71478 -4.05667,1.35222 -0.57014,0.28508 -0.78207,1.06715 -1.35222,1.35223 -0.40315,0.20157 -0.90148,0 -1.35222,0 -0.90148,0 -1.80296,0 -2.70444,0 -2.70445,0 -5.40889,0 -8.11333,0 -9.46556,0 -18.93111,0 -28.39666,0 -0.81494,0 -5.2193,0.14218 -5.40889,0 -5.26396,-3.94798 -5.40888,-6.18496 -5.40888,-12.17 0,-3.60592 0,-7.21185 0,-10.81777 0,-9.46556 0,-18.93111 0,-28.39666 0,-3.15518 0,-6.31037 0,-9.46555 0,-0.45074 0.31872,-1.0335 0,-1.35222 -0.31872,-0.31873 -0.94907,0.20157 -1.35222,0 -0.57015,-0.28508 -0.78208,-1.06715 -1.35223,-1.35223 -0.40315,-0.20157 -1.0335,0.31873 -1.35222,0 -0.31872,-0.31872 0.40316,-1.15064 0,-1.35222 -0.80631,-0.40315 -1.82988,0.21864 -2.70444,0 -0.9778,-0.24445 -1.76865,-0.9779 -2.70445,-1.35222 -1.32342,-0.52937 -2.74654,-0.79074 -4.05666,-1.35222 -1.85279,-0.79405 -3.49656,-2.067 -5.40889,-2.70444 -0.85522,-0.28508 -1.89813,0.40315 -2.70444,0 -2.70444,-1.35223 -2.02833,-2.70445 -4.05667,-4.05667 -0.83861,-0.55907 -1.86583,-0.79315 -2.70444,-1.35222 -4.33446,-2.88964 2.80641,0.23687 -4.05666,-2.70444 -2.85773,-1.22474 -7.52765,-3.11663 -10.81778,-4.05667 -1.78694,-0.51056 -3.58652,-0.98775 -5.40889,-1.35222 -0.44198,-0.0884 -0.94906,0.20158 -1.35222,0 -0.57014,-0.28508 -0.74749,-1.15065 -1.35222,-1.35222 -0.85522,-0.28508 -1.82988,0.21864 -2.70444,0 -1.955589,-0.4889 -3.537291,-1.95581 -5.408889,-2.70445 -1.32342,-0.52936 -2.781778,-0.71478 -4.056665,-1.35222 -0.570147,-0.28507 -0.74749,-1.15064 -1.352222,-1.35222 -0.85522,-0.28507 -1.829878,0.21864 -2.704443,0 -6.529804,-1.63245 0.06702,-0.6426 -4.056666,-2.70444 -0.403154,-0.20158 -1.263824,0.44198 -1.352221,0 -0.441988,-2.20994 0.248879,-4.52119 0,-6.76111 -0.205232,-1.84709 -1.167299,-3.55966 -1.352222,-5.40889 -0.269102,-2.69102 0,-5.40889 0,-8.11333 0,-4.05666 0,-8.11333 0,-12.17 0,-1.50453 -0.252162,-8.70906 0,-9.46555 0.513923,-1.54177 1.977646,-2.60307 2.704443,-4.05666 0.637444,-1.27489 0.618877,-2.83443 1.352222,-4.05667 0.655924,-1.0932 1.939511,-1.68453 2.704444,-2.70444 0.604731,-0.80631 1.0335,-1.74828 1.352221,-2.70444 0.142537,-0.42761 -0.318721,-1.0335 0,-1.35223 0.318722,-0.31872 0.949067,0.20158 1.352222,0 0.570147,-0.28507 0.782075,-1.06714 1.352222,-1.35222 0.403154,-0.20158 0.949067,0.20158 1.352221,0 0.570147,-0.28507 0.782075,-1.06715 1.352222,-1.35222 0.403155,-0.20158 0.901481,0 1.352222,0 0.901481,-0.45074 1.802962,-0.90148 2.704443,-1.35222 0.901481,-0.45074 1.748279,-1.0335 2.704446,-1.35222 0.42761,-0.14254 0.94906,0.20157 1.35222,0 0.57015,-0.28508 0.74749,-1.15065 1.35222,-1.35222 0.85522,-0.28508 2.70444,-0.90149 2.70444,0 0,0.90148 -1.80296,0 -2.70444,0"
       id="path3053"
       inkscape:connector-curvature="0" />
    <path
       style="fill:none;stroke:#000000;stroke-width:1px;stroke-linecap:butt;stroke-linejoin:miter;stroke-opacity:1"
       d="m 339.40765,115.27253 c 9.73344,-7.30008 2.8276,-0.86084 6.76111,-6.76111 0.35359,-0.53039 1.06715,-0.78208 1.35222,-1.35222 0.17778,-0.35556 0,-4.70179 0,-5.40889 0,-0.90148 0.54089,-1.98326 0,-2.704445 -3.64997,-4.866633 -3.07315,-1.782455 -6.7611,-2.704443 -1.95559,-0.488897 -3.43226,-2.309118 -5.40889,-2.704444 -1.32596,-0.265192 -2.7307,0.265193 -4.05667,0 -0.98831,-0.197663 -1.71613,-1.154559 -2.70444,-1.352221 -1.31236,-0.262472 -9.21323,0 -10.81777,0 -6.76111,0 -13.52222,0 -20.28333,0 -2.70444,0 -5.40889,0 -8.11333,0 -0.45074,0 -0.90148,0 -1.35222,0 -0.45074,0 -1.0335,-0.318722 -1.35222,0 -0.71269,0.712683 -1.0335,1.748278 -1.35223,2.704443 -0.2543,0.762921 0,3.16811 0,4.056665 0,3.155185 0,6.310365 0,9.465555 0,3.15518 0,6.31037 0,9.46555 0,0.90148 -0.21864,1.82988 0,2.70444 0.69895,2.7958 3.51278,4.865 5.40889,6.76111 0.45074,0.45074 0.90148,0.90148 1.35222,1.35222 0.45074,0.45074 0.78208,1.06715 1.35222,1.35222 0.40316,0.20158 0.94907,-0.20157 1.35223,0 0.57014,0.28508 0.90148,0.90149 1.35222,1.35223 0.90148,0.90148 1.61124,2.04852 2.70444,2.70444 1.96629,1.17977 9.54538,2.52267 10.81778,2.70444 0.89242,0.12749 1.82046,-0.17679 2.70444,0 1.39769,0.27954 2.67386,1.00652 4.05666,1.35223 0.87457,0.21864 1.80297,0 2.70445,0"
       id="path3055"
       inkscape:connector-curvature="0" />
    <path
       style="fill:none;stroke:#000000;stroke-width:1px;stroke-linecap:butt;stroke-linejoin:miter;stroke-opacity:1"
       d="m 366.45209,107.1592 c -1.73344,-5.80139 -1.35222,-11.654866 -1.35222,-17.578887 0,-1.352222 0,-2.704443 0,-4.056665 0,-0.901481 -0.28508,-1.849223 0,-2.704444 0.20157,-0.604731 0.99863,-0.821836 1.35222,-1.352221 0.55907,-0.838613 0.63954,-1.99176 1.35222,-2.704444 0.31872,-0.318721 0.92461,0.142537 1.35222,0 0.95617,-0.318721 1.89814,-0.74749 2.70444,-1.352221 1.01991,-0.764933 1.61124,-2.04852 2.70445,-2.704444 1.22224,-0.733345 2.70444,-0.901481 4.05666,-1.352222 1.35223,-0.45074 2.65898,-1.072684 4.05667,-1.352221 0.88397,-0.176795 1.80296,0 2.70444,0 3.15519,0 6.31037,0 9.46555,0 1.80297,0 3.60593,0 5.40889,0 1.35222,0 2.72284,-0.222304 4.05667,0 1.40597,0.234329 2.73324,0.822853 4.05666,1.352221 4.67587,1.870347 0.94046,0.705342 5.40889,4.056666 0.80631,0.604731 1.74828,1.0335 2.70444,1.352221 0.42761,0.142537 1.0335,-0.318721 1.35222,0 0.13043,0.130428 -0.10942,2.157311 0,2.704444 0.36448,1.822361 0.98775,3.586525 1.35223,5.408887 0.17679,0.883975 0,1.802962 0,2.704443 0,2.704444 0,5.408887 0,8.11333 0,0.901482 0,1.802963 0,2.704447 0,0.90148 0.28507,1.84922 0,2.70444 -0.61569,1.84705 -6.38113,4.25408 -8.11334,5.40889 -0.53038,0.35359 -0.78207,1.06715 -1.35222,1.35222 -0.40315,0.20158 -0.90148,0 -1.35222,0 -0.90148,0.45074 -1.86583,0.79315 -2.70444,1.35222 -0.53039,0.35359 -0.74749,1.15065 -1.35222,1.35222 -0.85522,0.28508 -1.80297,0 -2.70445,0 -1.35222,0.45074 -2.73324,0.82286 -4.05666,1.35222 -0.90148,0.45074 -1.80296,0.90149 -2.70445,1.35223 -0.45074,0.45074 -0.78207,1.06714 -1.35222,1.35222 -0.80631,0.40315 -2.067,-0.63745 -2.70444,0 -0.31872,0.31872 0.45074,1.35222 0,1.35222 -0.45074,0 0,-0.90148 0,-1.35222"
       id="path3057"
       inkscape:connector-curvature="0" />
    <path
       style="fill:none;stroke:#000000;stroke-width:1px;stroke-linecap:butt;stroke-linejoin:miter;stroke-opacity:1"
       d="m 365.09987,134.20363 c 4.02404,0.45896 8.1541,-0.5737 12.16999,0 1.94388,0.2777 8.10621,5.4039 8.11333,5.40889 2.66278,1.86394 5.32619,3.7366 8.11333,5.40888 3.45702,2.07422 7.39903,3.27218 10.81778,5.40889 1.91113,1.19446 3.67754,2.61388 5.40888,4.05667 0.9794,0.81616 2.04852,1.61123 2.70445,2.70444 0.73334,1.22224 0.82285,2.73324 1.35222,4.05666 0.37432,0.9358 1.15456,1.71613 1.35222,2.70445 0.26519,1.32596 -0.42761,2.77383 0,4.05666 1.80296,5.40889 3.15518,3.15519 6.76111,6.76111 1.14917,1.14917 1.80296,2.70445 2.70444,4.05667 9.3553,14.03295 -4.88483,-7.69065 5.40889,9.46555 0.32796,0.5466 0.99863,0.82184 1.35222,1.35222 0.55908,0.83861 1.15456,1.71613 1.35222,2.70444 0.2652,1.32597 0,2.70445 0,4.05667 0,3.15518 0,6.31037 0,9.46555 0,0.45074 0,0.90148 0,1.35222 0,0.45074 0.37504,1.1022 0,1.35223 -4.20188,2.80125 -3.08034,0.61606 -6.76111,1.35222 -1.39768,0.27953 -2.6423,1.17542 -4.05666,1.35222 -2.2363,0.27954 -4.50741,0 -6.76111,0 -1.80296,0 -3.60592,0 -5.40889,0 -9.01481,0 -18.02962,0 -27.04443,0 -2.2537,0 -4.50741,0 -6.76111,0 -0.45074,0 -0.97718,0.25002 -1.35222,0 -2.56285,-1.70856 -2.80967,-2.91489 -4.05667,-5.40889 -0.45074,-0.90148 -1.0335,-1.74828 -1.35222,-2.70444 -0.14254,-0.42761 0.20158,-0.94907 0,-1.35222 -0.28507,-0.57015 -1.06715,-0.78208 -1.35222,-1.35223 -0.20158,-0.40315 0,-0.90148 0,-1.35222 -1.35222,-4.05666 -1.85663,-8.50327 -4.05667,-12.16999 -1.96777,-3.27962 -5.76521,-5.09433 -8.11333,-8.11333 -0.87509,-1.12512 -0.71477,-2.78178 -1.35222,-4.05667 -0.28507,-0.57014 -1.06715,-0.78207 -1.35222,-1.35222 -0.20158,-0.40315 0.31872,-1.0335 0,-1.35222 -0.31872,-0.31872 -1.0335,0.31872 -1.35222,0 -0.31872,-0.31872 0.31872,-1.0335 0,-1.35222 -0.67611,-0.67611 -3.38056,0.67611 -4.05667,0 -0.31872,-0.31873 0.14254,-0.92461 0,-1.35223 -0.31872,-0.95616 -0.90148,-1.80296 -1.35222,-2.70444 -0.45074,-0.90148 -0.90148,-1.80296 -1.35222,-2.70444 -0.45074,0 -1.0335,0.31872 -1.35222,0 -0.31872,-0.31872 0,-0.90148 0,-1.35222 0,-0.45074 0,-0.90148 0,-1.35223"
       id="path3059"
       inkscape:connector-curvature="0" />
    <path
       style="fill:none;stroke:#000000;stroke-width:1px;stroke-linecap:butt;stroke-linejoin:miter;stroke-opacity:1"
       d="m 116.29107,119.32919 c -1.80296,-2.2537 -4.23671,-4.12371 -5.40889,-6.76111 -0.73225,-1.64757 0,-3.60592 0,-5.40888 0,-3.60593 0,-7.211854 0,-10.817778 0,-2.704444 0,-5.408887 0,-8.113331 0,-0.901481 -0.21864,-1.829878 0,-2.704443 0.60556,-2.422236 3.6789,-5.772543 5.40889,-6.761109 1.61359,-0.92205 3.6458,-0.764528 5.40889,-1.352221 0.95616,-0.318722 1.71027,-1.186527 2.70444,-1.352222 1.77843,-0.296405 3.60592,0 5.40889,0 3.15518,0 6.31036,0 9.46555,0 2.70444,0 5.40888,0 8.11333,0 0.90148,0 1.84922,-0.285074 2.70444,0 0.60473,0.201577 0.90148,0.901481 1.35222,1.352222 4.49736,4.497358 1.4236,0.617291 4.05667,6.761108 0.79405,1.852788 1.88576,3.56685 2.70444,5.408887 1.81633,4.086728 3.32417,7.775023 4.05667,12.169997 0.1482,0.88921 0,1.80296 0,2.70444 0,2.2537 0,4.50741 0,6.76111 0,0.90148 0,1.80296 0,2.70444 0,0.90149 0.50005,1.95437 0,2.70445 -1.48397,2.22594 -4.95667,0.99133 -6.76111,1.35222 -0.98832,0.19766 -1.74828,1.0335 -2.70444,1.35222 -0.78331,0.2611 -4.23708,0 -5.40889,0 -0.32795,0 -4.01318,-0.0435 -4.05667,0 -0.31872,0.31872 0,0.90148 0,1.35222 0,0.45074 0,0.90148 0,1.35222"
       id="path3061"
       inkscape:connector-curvature="0" />
    <path
       style="fill:none;stroke:#000000;stroke-width:1px;stroke-linecap:butt;stroke-linejoin:miter;stroke-opacity:1"
       d="m 110.88218,84.171426 c -1.35222,-1.802962 -2.32532,-3.966101 -4.05666,-5.408887 -1.095,-0.912497 -2.70445,-0.901481 -4.05667,-1.352221 -1.35222,-0.450741 -2.70444,-0.901482 -4.056664,-1.352222 -1.352222,-0.450741 -2.658978,-1.072684 -4.056665,-1.352222 -1.325963,-0.265192 -2.704444,0 -4.056665,0 -1.802963,0 -3.605925,0 -5.408887,0 -0.450741,0 -1.278121,-0.444608 -1.352222,0 -0.518709,3.112254 0,6.310368 0,9.465552 0,6.310368 0,12.620736 0,18.931104 0,1.80296 0,3.60592 0,5.40889 0,0.45074 -0.318722,1.0335 0,1.35222 0.712683,0.71268 1.865831,0.79315 2.704444,1.35222 2.474209,1.64947 0.134907,1.724 4.056665,2.70444 0.874565,0.21865 1.849223,-0.28507 2.704443,0 1.209464,0.40316 1.56415,2.1343 2.704444,2.70445 0.806309,0.40315 2.067,-0.63745 2.704443,0 0.318722,0.31872 -0.318722,1.0335 0,1.35222 0.318722,0.31872 0.949067,-0.20158 1.352224,0 0.57014,0.28507 0.78207,1.06715 1.35222,1.35222 0.40315,0.20158 0.90148,0 1.35222,0 0.90148,0 1.80296,0 2.70444,0"
       id="path3063"
       inkscape:connector-curvature="0" />
    <path
       style="fill:none;stroke:#000000;stroke-width:1px;stroke-linecap:butt;stroke-linejoin:miter;stroke-opacity:1"
       d="m 139.27884,136.90807 c 9.46555,0 18.9311,0 28.39665,0 3.95757,0 8.56599,-0.81018 12.17,1.35223 3.76381,2.25828 1.86022,2.48029 4.05666,5.40888 3.19343,4.2579 2.88145,0.88502 4.05667,6.76111 0.1768,0.88398 -0.40315,1.89813 0,2.70444 0.20158,0.40316 1.0335,-0.31872 1.35222,0 0.63745,0.63745 -0.63744,2.067 0,2.70445 0.71269,0.71268 1.99176,0.63954 2.70445,1.35222 1.14916,1.14917 1.72934,2.75653 2.70444,4.05666 0.21089,0.28119 2.66685,2.59168 2.70444,2.70445 0.28508,0.85522 -0.28507,1.84922 0,2.70444 0.20158,0.60473 1.06715,0.78208 1.35222,1.35222 0.20158,0.40316 0,0.90148 0,1.35222 0,0.45075 0,0.90149 0,1.35223 0,4.5074 0,9.01481 0,13.52221 0,2.25371 0,4.50741 0,6.76111 0,0.90148 0.50006,1.95437 0,2.70445 -0.55907,0.83861 -1.99176,0.63953 -2.70444,1.35222 -4.92157,4.92157 1.43762,0.95011 -2.70444,4.05666 -3.15313,2.36485 -6.88274,4.62188 -10.81778,5.40889 -0.88397,0.17679 -1.80296,0 -2.70444,0 -3.15518,0 -6.31037,0 -9.46555,0 -5.40889,0 -10.81778,0 -16.22666,0 -1.35222,0 -2.70445,0 -4.05667,0 -1.35222,0 -2.74482,0.32796 -4.05666,0 -1.23683,-0.30921 -1.56415,-2.1343 -2.70445,-2.70444 -0.40315,-0.20158 -1.0335,0.31872 -1.35222,0 -0.31872,-0.31873 0.31872,-1.0335 0,-1.35223 -0.31872,-0.31872 -0.97718,0.25003 -1.35222,0 -1.98976,-1.3265 -3.41913,-4.08238 -5.40889,-5.40888 0.15399,-2.56169 -3.15518,-0.90148 -4.05666,-1.35222 -5.62763,-2.81382 1.44557,0.0933 -1.35222,-2.70445 -0.31873,-0.31872 -0.90149,0 -1.35223,0 -1.80296,-2.70444 -3.32807,-5.61635 -5.40888,-8.11333 -0.57712,-0.69253 -2.41937,0.85522 -2.70445,0 -0.42761,-1.28283 0.22231,-2.72284 0,-4.05666 -0.23433,-1.40598 -0.90148,-2.70445 -1.35222,-4.05667"
       id="path3065"
       inkscape:connector-curvature="0" />
    <path
       style="fill:none;stroke:#000000;stroke-width:1px;stroke-linecap:butt;stroke-linejoin:miter;stroke-opacity:1"
       d="m 105.47329,180.17917 c -0.29145,4.42949 3.52628,7.92691 4.05667,12.16999 0.27954,2.2363 -0.27954,4.52481 0,6.76111 0.17679,1.41436 1.15064,2.64563 1.35222,4.05667 0.25498,1.78484 0,3.60592 0,5.40889 0,1.80296 0,3.60592 0,5.40888 0,3.60593 0,7.21185 0,10.81778 0,0.45074 0,0.90148 0,1.35222 0,0.45074 0.20158,0.94906 0,1.35222 -2.14744,4.29489 -6.1444,7.49662 -9.46555,10.81777 -4.867721,4.86772 -9.153455,9.56154 -14.874439,13.52222 -1.488739,1.03067 -10.640269,5.71171 -13.522218,8.11333 -1.469093,1.22424 -2.563386,2.86204 -4.056665,4.05667 -1.990468,1.59237 -5.381951,1.64313 -6.761109,4.05666 -4.434269,7.75997 -7.207018,16.21579 -10.817773,24.33999 -0.818683,1.84204 -2.282081,3.43786 -2.704444,5.40889 -0.949143,4.42933 -0.607513,9.05396 -1.352222,13.52222 -0.611054,3.66633 -1.802962,7.21185 -2.704443,10.81777 -1.461542,5.84617 -1.352222,3.55044 -1.352222,6.76111"
       id="path3067"
       inkscape:connector-curvature="0" />
    <path
       style="fill:none;stroke:#000000;stroke-width:1px;stroke-linecap:butt;stroke-linejoin:miter;stroke-opacity:1"
       d="m 98.712186,131.49919 c -9.014811,0 -18.029623,0 -27.044434,0 -1.145976,0 -7.373757,-0.29583 -8.113331,0 -4.09466,1.63786 -4.735096,4.05852 -8.11333,6.76111 -0.787027,0.62962 -1.865831,0.79314 -2.704444,1.35222 -0.530385,0.35359 -0.821836,0.99863 -1.352221,1.35222 -1.970568,1.31371 -2.816497,0.84419 -4.056666,2.70444 -0.559074,0.83861 -0.747489,1.89814 -1.352221,2.70445 -0.764932,1.01991 -1.997264,1.64367 -2.704444,2.70444 -5.627623,8.44143 -0.45074,2.2537 -4.056665,9.46555 -0.726797,1.4536 -1.977646,2.60307 -2.704443,4.05667 -8.573312,1.07986 -1.645708,5.46649 -2.704444,8.11333 -0.748639,1.8716 -2.067,3.49655 -2.704443,5.40888 -0.285074,0.85522 0,1.80297 0,2.70445 0,1.80296 0,3.60592 0,5.40888 0,5.85963 0,11.71926 0,17.57889 0,0.49658 0.05442,5.35447 0,5.40888 -0.318722,0.31873 -1.102196,-0.37504 -1.352222,0 -0.790651,1.18598 -0.497002,2.91638 -1.352222,4.05667 -0.604732,0.80631 -1.99176,0.63954 -2.704443,1.35222 -0.318722,0.31872 0.318722,1.0335 0,1.35222 -0.318722,0.31872 -1.0335,-0.31872 -1.352222,0 -0.318722,0.31872 0.142537,0.92461 0,1.35222 -0.318722,0.95617 -0.639538,1.99176 -1.352222,2.70445 -1.802962,1.80296 -1.352221,-2.25371 -1.352221,1.35222"
       id="path3069"
       inkscape:connector-curvature="0" />
    <path
       style="fill:none;stroke:#000000;stroke-width:1px;stroke-linecap:butt;stroke-linejoin:miter;stroke-opacity:1"
       d="m 269.09212,391.12576 c 4.05667,0 8.11333,0 12.17,0 1.78264,0 5.29339,-0.60473 6.76111,1.35222 0.85522,1.14029 0.94264,2.69141 1.35222,4.05667 0.94291,3.14305 1.76153,6.3225 2.70444,9.46555 0.81916,2.7305 2.14537,5.31795 2.70445,8.11333 0.17679,0.88397 -0.1768,1.82047 0,2.70444 0.27953,1.39769 1.11789,2.65069 1.35222,4.05667 0.2223,1.33382 0,2.70444 0,4.05666 0,4.95815 0,9.91629 0,14.87444 0,2.70444 0,5.40889 0,8.11333 0,0.90148 0,1.80296 0,2.70444 0,0.45074 0.31872,1.67095 0,1.35223 -6.79444,-6.79444 -4.2877,-9.92763 -9.46555,-20.28333 -0.45074,-0.90148 -1.99176,-0.63954 -2.70445,-1.35222 -0.71268,-0.71269 -1.0335,-1.74828 -1.35222,-2.70445 -0.14254,-0.42761 0.31872,-1.0335 0,-1.35222 -0.63744,-0.63744 -2.067,0.63745 -2.70444,0 -0.31872,-0.31872 0.14253,-0.92461 0,-1.35222 -0.31872,-0.95616 -0.90148,-1.80296 -1.35222,-2.70444 -0.45074,-0.90148 -0.90149,-1.80296 -1.35223,-2.70445 0,-0.45074 0.12383,-0.91882 0,-1.35222 -0.78315,-2.74105 -1.80296,-5.40888 -2.70444,-8.11333 -0.45074,-1.35222 -1.00652,-2.67385 -1.35222,-4.05666 -0.10932,-0.43729 0.31872,-1.0335 0,-1.35222 -0.31872,-0.31873 -1.0335,0.31872 -1.35222,0 -0.31872,-0.31873 0.31872,-1.0335 0,-1.35223 -0.0435,-0.0435 -3.72872,0 -4.05667,0"
       id="path3071"
       inkscape:connector-curvature="0" />
    <path
       style="fill:none;stroke:#000000;stroke-width:1px;stroke-linecap:butt;stroke-linejoin:miter;stroke-opacity:1"
       d="m 252.86546,407.35242 c 1.80297,0.90148 3.98352,1.27908 5.40889,2.70444 1.00789,1.00789 0.71478,2.78178 1.35222,4.05667 0.28507,0.57014 1.06715,0.78207 1.35222,1.35222 0.40316,0.80631 -0.17679,1.82047 0,2.70444 0.36448,1.82236 0.98775,3.58653 1.35223,5.40889 0.3312,1.65603 0,6.59478 0,8.11333 0,5.40889 0,10.81777 0,16.22666 0,4.05667 0,8.11333 0,12.17 0,1.35222 0.32796,2.74481 0,4.05666 -0.15461,0.61841 -0.99864,0.82184 -1.35223,1.35222 -0.55907,0.83862 -1.0335,1.74828 -1.35222,2.70445 -0.14254,0.42761 0.31872,1.0335 0,1.35222 -0.16391,0.16391 -2.14927,-0.1388 -2.70444,0 -1.38281,0.3457 -2.73325,0.82285 -4.05667,1.35222 -0.9358,0.37432 -1.71613,1.15456 -2.70444,1.35222 -1.32596,0.26519 -2.70444,0 -4.05667,0 -1.80296,0 -3.60592,0 -5.40888,0 -0.45074,0 -0.90148,0 -1.35222,0 -0.45074,0 -1.0335,0.31872 -1.35223,0 -0.31872,-0.31872 0,-0.90148 0,-1.35222 0,-1.14486 -0.24232,-4.68192 0,-5.40889 0.20158,-0.60473 0.99864,-0.82183 1.35223,-1.35222 0.43461,-0.65192 3.94198,-7.53991 4.05666,-8.11333 0.26519,-1.32596 -0.26519,-2.7307 0,-4.05666 0.19766,-0.98832 0.9779,-1.76865 1.35222,-2.70445 0.52937,-1.32342 0.82286,-2.73324 1.35222,-4.05666 0.74864,-1.8716 2.067,-3.49656 2.70445,-5.40889 0.31003,-0.9301 -0.39892,-3.25883 0,-4.05666 0.28507,-0.57015 1.06715,-0.78208 1.35222,-1.35223 0.20158,-0.40315 0,-0.90148 0,-1.35222 0,-0.45074 0,-0.90148 0,-1.35222 0,-4.05667 0,-8.11333 0,-12.17 0,-1.08858 -0.28291,-4.56016 0,-5.40888 0.76758,-2.30275 1.80296,-4.50741 2.70444,-6.76111 z"
       id="path3073"
       inkscape:connector-curvature="0" />
  </g>
</svg>
