<?xml version="1.0" encoding="UTF-8" standalone="no"?>
<!-- Created with Inkscape (http://www.inkscape.org/) -->

<svg
   xmlns:dc="http://purl.org/dc/elements/1.1/"
   xmlns:cc="http://creativecommons.org/ns#"
   xmlns:rdf="http://www.w3.org/1999/02/22-rdf-syntax-ns#"
   xmlns:svg="http://www.w3.org/2000/svg"
   xmlns="http://www.w3.org/2000/svg"
   xmlns:sodipodi="http://sodipodi.sourceforge.net/DTD/sodipodi-0.dtd"
   xmlns:inkscape="http://www.inkscape.org/namespaces/inkscape"
   width="210mm"
   height="297mm"
   id="svg2"
   version="1.1"
   inkscape:version="0.48.5 r10040"
   sodipodi:docname="e-voce-sabe-o-que-acontece.svg"
   inkscape:export-filename="/home/fredm/projetos/o-rato-anderson/um-dia-este-rato-encontrou-uma-rata.png"
   inkscape:export-xdpi="90"
   inkscape:export-ydpi="90">
  <defs
     id="defs4" />
  <sodipodi:namedview
     id="base"
     pagecolor="#ffffff"
     bordercolor="#666666"
     borderopacity="1.0"
     inkscape:pageopacity="0.0"
     inkscape:pageshadow="2"
     inkscape:zoom="0.52204368"
     inkscape:cx="353.8311"
     inkscape:cy="749.86582"
     inkscape:document-units="px"
     inkscape:current-layer="layer1"
     showgrid="false"
     inkscape:window-width="694"
     inkscape:window-height="735"
     inkscape:window-x="579"
     inkscape:window-y="31"
     inkscape:window-maximized="0" />
  <metadata
     id="metadata7">
    <rdf:RDF>
      <cc:Work
         rdf:about="">
        <dc:format>image/svg+xml</dc:format>
        <dc:type
           rdf:resource="http://purl.org/dc/dcmitype/StillImage" />
        <dc:title />
      </cc:Work>
    </rdf:RDF>
  </metadata>
  <g
     inkscape:label="Camada 1"
     inkscape:groupmode="layer"
     id="layer1">
    <path
       style="fill:none;stroke:#000000;stroke-width:1px;stroke-linecap:butt;stroke-linejoin:miter;stroke-opacity:1"
       d="m 172.39937,498.76866 c -1.91555,-2.55407 -4.16268,-4.89026 -5.74665,-7.66219 -1.00179,-1.75313 -1.16565,-3.8719 -1.91555,-5.74665 -1.80599,-4.51499 -3.77167,-8.96516 -5.74664,-13.40884 -1.9933,-4.48491 -4.90145,-8.33764 -5.74665,-13.40884 -0.7348,-4.4088 0,-8.93923 0,-13.40884 0,-5.10813 0,-10.21626 0,-15.32439 0,-3.7367 -0.61945,-11.94439 1.91555,-15.32439 4.33439,-5.77918 10.38361,-10.05422 15.32439,-15.32438 4.64226,-4.95175 8.93922,-10.21626 13.40884,-15.32439 7.66219,-8.30071 15.24436,-16.67602 22.98658,-24.90213 10.18627,-10.82291 9.2198,-8.36323 22.98658,-21.07104 37.62262,-34.72857 -16.02055,14.10501 17.23994,-19.15548 5.43677,-5.43677 11.59021,-10.10926 17.23994,-15.32439 2.6541,-2.44994 4.8417,-5.4058 7.66219,-7.66219 10.08199,-8.0656 15.01948,-9.03202 26.81768,-15.32439 4.54225,-2.42253 8.86659,-5.23966 13.40884,-7.6622 5.03917,-2.68755 10.39129,-4.78455 15.32439,-7.66219 16.27525,-9.4939 -0.6853,-6.85693 28.73323,-17.23994 3.61268,-1.27506 7.66219,0 11.49329,0 5.74664,-1.91555 11.56812,-3.61971 17.23993,-5.74664 40.43131,-15.16174 -15.32793,3.38142 28.73323,-9.57775 5.81135,-1.70922 11.27461,-4.69394 17.23994,-5.74664 5.0304,-0.88772 10.21626,0 15.32439,0 18.51696,0 37.03393,0 55.5509,0 14.68587,0 29.37175,0 44.05762,0 4.46961,0 9.07268,-1.08404 13.40884,0 3.61199,0.903 6.24765,4.0816 9.57774,5.74664 4.34942,2.17471 9.05943,3.57194 13.40884,5.74665 3.33009,1.66505 6.3092,3.9638 9.57774,5.74665 3.76029,2.05106 7.8204,3.5429 11.49329,5.74664 2.73762,1.64257 4.69796,4.56095 7.6622,5.74665 3.60615,1.44246 7.84319,0.58824 11.49329,1.91555 0.66325,0.24118 13.21283,7.81811 15.32439,9.57774 2.08111,1.73425 3.8311,3.8311 5.74664,5.74664 1.91555,1.91555 4.24397,3.49263 5.74665,5.74665 1.12003,1.68005 1.01255,3.94065 1.91555,5.74665 1.02957,2.05915 2.68888,3.74777 3.83109,5.74664 1.41674,2.4793 2.55407,5.10813 3.8311,7.66219 0.63852,1.27704 1.56927,2.44597 1.91555,3.8311 0.30973,1.23891 -0.50305,2.65732 0,3.8311 1.46662,3.42212 4.84365,5.96575 5.74665,9.57774 1.08404,4.33616 -0.59072,8.97844 0,13.40884 0.96018,7.20136 3.45479,14.19548 5.74664,21.07103 1.36451,4.09352 3.22978,9.19963 3.8311,13.40884 0.2709,1.8963 0,3.8311 0,5.74665 0,3.8311 0,7.66219 0,11.49329 0,8.93923 0,17.87845 0,26.81768 0,6.38516 0,12.77032 0,19.15549 0,1.91554 0,3.83109 0,5.74664 0,1.27703 0.70837,2.76854 0,3.8311 -0.79198,1.18797 -2.82152,0.90596 -3.8311,1.91555 -1.6279,1.6279 -2.44977,3.90488 -3.8311,5.74664 -0.54179,0.7224 -1.51171,1.10788 -1.91554,1.91555 -0.903,1.806 -1.01255,3.94065 -1.91555,5.74665 -2.96473,5.92945 -6.10705,7.33511 -9.57775,13.40884 -1.00178,1.75312 -1.27703,3.83109 -1.91554,5.74664 -4.59283,13.77849 0.97944,-3.42804 -3.8311,13.40884 -0.55471,1.94148 -1.51956,3.76669 -1.91555,5.74665 -0.21329,1.06643 0.18654,7.47565 0,7.66219 -0.4515,0.4515 -1.91555,0.63852 -1.91555,0 0,-0.63852 1.27703,0 1.91555,0"
       id="path3097"
       inkscape:connector-curvature="0" />
    <path
       style="fill:none;stroke:#000000;stroke-width:1px;stroke-linecap:butt;stroke-linejoin:miter;stroke-opacity:1"
       d="m 68.959747,422.14672 c 3.192581,-1.91555 6.599217,-3.51275 9.577742,-5.74665 7.466129,-5.59959 8.560706,-11.71543 15.324389,-19.15548 2.750221,-3.02525 6.538782,-4.92714 9.577742,-7.6622 3.35597,-3.02037 6.10923,-6.68731 9.57774,-9.57774 4.21963,-3.51635 9.32613,-5.9033 13.40884,-9.57774 2.37303,-2.13573 3.58934,-5.30877 5.74665,-7.6622 9.76285,-10.65038 21.13472,-19.77557 30.64877,-30.64877 4.20466,-4.80533 6.6681,-11.14255 11.4933,-15.32439 4.96784,-4.30547 11.77009,-5.93118 17.23993,-9.57774 2.25402,-1.50268 3.7497,-3.91611 5.74665,-5.74665 5.66779,-5.19548 11.30475,-10.43659 17.23993,-15.32439 4.9289,-4.05909 10.45005,-7.36884 15.32439,-11.49329 3.44669,-2.91642 6.22178,-6.55737 9.57775,-9.57774 7.79304,-7.01374 13.33648,-10.49934 22.98658,-15.32439 4.34941,-2.17471 8.98191,-3.73441 13.40884,-5.74664 2.59958,-1.18163 4.99699,-2.80603 7.66219,-3.8311 5.65374,-2.17452 11.6484,-3.41684 17.23994,-5.74665 2.12511,-0.88546 3.8311,-2.55406 5.74664,-3.83109 5.74665,-3.8311 11.56138,-7.56198 17.23994,-11.49329 11.53074,-7.98282 5.96863,-5.71377 21.07103,-15.32439 2.40911,-1.53307 5.2136,-2.36194 7.6622,-3.8311 11.30068,-6.78041 10.24109,-8.94419 22.98658,-11.49329 2.50447,-0.50089 5.12375,0.28205 7.66219,0 3.2359,-0.35954 6.37446,-1.33313 9.57775,-1.91555 3.82129,-0.69478 7.6331,-1.48664 11.49329,-1.91555 1.90383,-0.21154 3.8311,0 5.74664,0 6.38517,0 12.77033,0 19.15549,0 3.8311,0 7.67793,0.34685 11.49329,0 3.24244,-0.29477 6.34185,-1.556 9.57774,-1.91555 2.53845,-0.28205 5.11862,0.23124 7.6622,0 4.49645,-0.40876 8.91239,-1.50678 13.40884,-1.91555 2.54357,-0.23123 5.10813,0 7.66219,0 6.38516,0 12.77032,0 19.15549,0 15.9629,0 31.9258,0 47.88871,0 17.87845,0 35.7569,0 53.63536,0 7.66219,0 15.32439,0 22.98658,0 1.91555,0 3.8311,0 5.74665,0 1.27703,0 2.59219,-0.30972 3.83109,0 1.38514,0.34629 2.44596,1.56927 3.8311,1.91555 1.2389,0.30973 2.68888,-0.5711 3.8311,0 0.5711,0.28556 -0.4515,1.46405 0,1.91555 0.4515,0.4515 1.3098,-0.20191 1.91555,0 1.35449,0.4515 2.47659,1.46405 3.83109,1.91555 0.60575,0.20192 1.34444,-0.28555 1.91555,0 0.80767,0.40383 1.10788,1.51172 1.91555,1.91555 5.57554,2.78777 6.73586,0.65948 11.49329,3.8311 0.75134,0.50089 1.51172,1.10788 1.91555,1.91554 0.28555,0.57111 -0.60575,1.71364 0,1.91555 1.81725,0.60575 3.86829,-0.37567 5.74664,0 1.40004,0.28001 2.55407,1.27704 3.8311,1.91555 1.27703,0.63852 2.55407,1.27703 3.8311,1.91555 1.27703,0.63852 2.4766,1.46405 3.8311,1.91555 3.53842,1.17947 0.90815,-2.92294 5.74664,1.91555 0.4515,0.4515 -0.4515,1.46405 0,1.91555 0.4515,0.45149 1.91555,0.63851 1.91555,0 0,-0.903 -2.72322,-2.31939 -1.91555,-1.91555 2.05915,1.02957 3.68749,2.80152 5.74665,3.83109 0.5711,0.28556 1.27703,0 1.91555,0 0.63851,0.63852 1.10788,1.51172 1.91554,1.91555 0.57111,0.28556 1.34445,-0.28555 1.91555,0 0.80767,0.40384 1.51172,1.10788 1.91555,1.91555 0.28555,0.57111 0,2.55407 0,1.91555 0,-37.03394 0,-74.06788 0,-111.10181 0,-13.408844 0,-26.817684 0,-40.226524 0,-5.108129 0,-10.216258 0,-15.324388 0,-0.638516 0,-1.277032 0,-1.915548 0,-0.638516 -0.63852,-1.915549 0,-1.915549 0.63852,0 0.63852,1.915549 0,1.915549 -0.903,0 -1.10788,-1.511716 -1.91555,-1.915549 -0.51049,-0.255246 -10.62671,0 -11.49329,0 -12.77032,0 -25.54065,0 -38.31097,0 -4.46961,0 -8.93923,0 -13.40884,0 -1.91555,0 -3.8311,0 -5.74664,0 -1.27704,0 -2.57887,-0.250446 -3.8311,0 -1.97996,0.395991 -3.80517,1.360841 -5.74665,1.915549 -10.55522,3.015776 -4.48969,0.329299 -11.49329,3.831097 -1.27703,0.638516 -2.68888,1.058889 -3.8311,1.915548 -1.44479,1.083598 -2.28246,2.90192 -3.83109,3.831097 -16.18078,9.708464 2.10542,-2.757717 -9.57775,1.915549 -2.14168,0.856675 -12.5878,9.030388 -13.40883,9.577742 -1.18798,0.791982 -2.64313,1.123567 -3.8311,1.915549 -0.75134,0.500893 -1.27703,1.277032 -1.91555,1.915548 -1.27703,1.277033 -2.55406,2.554065 -3.8311,3.831098 -0.63851,0.638516 -1.27703,1.277032 -1.91555,1.915548 -0.63851,0.638516 -1.51171,1.107882 -1.91554,1.915549 -0.28556,0.571106 0.35418,1.384271 0,1.915548 -1.00179,1.50268 -2.7029,2.420851 -3.8311,3.831097 -1.43818,1.797719 -2.35726,3.978045 -3.8311,5.746646 -1.73425,2.081107 -4.17207,3.542246 -5.74664,5.746645 -1.65975,2.323642 -2.24714,5.286249 -3.8311,7.662199 -6.88925,10.33387 -0.59623,-1.31932 -7.6622,5.74664 -1.00958,1.00958 -0.90596,2.82152 -1.91554,3.8311 -1.49744,1.49743 -8.33097,3.33238 -9.57775,3.8311 -1.32564,0.53025 -2.51877,1.35312 -3.83109,1.91554 -2.46083,1.05465 -11.59577,4.81449 -15.32439,5.74665 -3.1586,0.78965 -6.41915,1.1259 -9.57774,1.91555 -1.95888,0.48972 -3.7667,1.51956 -5.74665,1.91555 -2.50447,0.50089 -5.10813,0 -7.66219,0 -5.74665,0 -11.49329,0 -17.23994,0 -3.8311,0 -7.69178,-0.47519 -11.49329,0 -1.41674,0.17709 -2.4766,1.46405 -3.8311,1.91554 -2.49757,0.83253 -5.06534,1.48274 -7.66219,1.91555 -2.44194,0.40699 -5.22491,-0.48745 -7.6622,0 -6.64271,1.32855 -12.68687,3.89847 -19.15548,5.74665 -2.53138,0.72325 -5.19715,0.99116 -7.6622,1.91555 -2.67371,1.00264 -5.03754,2.70625 -7.66219,3.83109 -1.85591,0.79539 -3.8311,1.27704 -5.74665,1.91555 -1.91554,0.63852 -3.75495,1.5836 -5.74664,1.91555 -8.06085,1.34348 -3.6184,-2.02189 -11.49329,1.91555 -2.05916,1.02958 -3.59103,3.02274 -5.74665,3.8311 -23.98553,8.99457 1.2184,-3.25867 -15.32439,3.83109 -2.62464,1.12485 -4.89192,3.13853 -7.66219,3.8311 -2.47781,0.61945 -5.1338,-0.3612 -7.66219,0 -1.99888,0.28555 -3.74308,1.6651 -5.74665,1.91555 -3.16793,0.39599 -6.38516,0 -9.57774,0 -3.8311,0 -7.6622,0 -11.49329,0 -10.21626,0 -20.43252,0 -30.64878,0 -1.91555,0 -3.8311,0 -5.74665,0 -2.55406,0 -5.13379,-0.3612 -7.66219,0 -3.99774,0.57111 -7.53338,3.03911 -11.49329,3.8311 -10.23362,2.04672 4.3111,-3.63999 -9.57774,1.91555 -2.05848,0.82338 -8.55039,3.69194 -9.57775,5.74664 -0.28555,0.57111 0,1.27703 0,1.91555 0,1.27703 0,2.55406 0,3.8311 0,3.83109 0.34686,7.67792 0,11.49329 -0.29476,3.24243 -1.51171,6.34708 -1.91554,9.57774 -0.2376,1.90076 0.31491,3.85716 0,5.74665 -0.59177,3.55057 -2.26787,6.45128 -3.8311,9.57774 -0.63852,1.27703 -1.56927,2.44596 -1.91555,3.8311 -1.01158,4.0463 1.70208,4.04456 -1.91555,7.66219 -1.00958,1.00958 -2.55406,1.27703 -3.8311,1.91555 -1.91554,1.91555 -4.01239,3.66554 -5.74664,5.74664 -5.01713,6.02056 -3.48586,8.4042 -11.49329,13.40884 -2.2325,1.39532 -5.13082,1.1923 -7.6622,1.91555 -2.72572,0.77878 -7.03453,2.13563 -9.57774,3.8311 -0.75134,0.50089 -1.16421,1.41465 -1.91555,1.91555 -2.79149,1.86099 -3.98983,1.19587 -5.74664,3.83109 -3.57497,5.36246 0.17143,2.92774 -5.74665,7.6622 -1.79772,1.43817 -3.94893,2.39292 -5.74664,3.8311 -1.41025,1.12819 -2.28247,2.90191 -3.8311,3.83109 -1.73142,1.03885 -3.94065,1.01255 -5.74665,1.91555 -2.19602,1.09801 -2.66454,3.99682 -3.83109,5.74665 -1.75682,2.63522 -2.95516,1.9701 -5.74665,3.83109 -0.75134,0.5009 -1.27703,1.27704 -1.91555,1.91555 -0.63851,0.63852 -1.41465,1.16421 -1.91555,1.91555 -0.79198,1.18797 -1.12356,2.64312 -1.91555,3.8311 -0.50089,0.75134 -1.51171,1.10788 -1.91554,1.91555 -0.903,1.80599 -1.27704,3.83109 -1.91555,5.74664 -0.63852,1.91555 -1.27703,3.8311 -1.91555,5.74665 -0.63852,1.91555 -1.01255,3.94065 -1.91555,5.74664 -1.02958,2.05916 -2.80152,3.6875 -3.8311,5.74665 -5.52331,11.04663 2.4879,0.5139 -5.74664,11.49329 -0.43788,0.58383 -5.26027,5.50346 -5.74665,5.74665 -0.5711,0.28555 -1.27703,0 -1.91555,0 -1.91554,1.27703 -3.97804,2.35726 -5.74664,3.83109 -3.46851,2.89043 -6.05213,6.75725 -9.57774,9.57774 -3.59544,2.87635 -7.80977,4.89956 -11.493295,7.6622 -2.660789,1.99559 -1.929678,2.57761 -3.831097,5.74664 0.395675,3.92352 -4.057537,5.12854 -5.746646,7.6622 -0.791982,1.18797 -1.058889,2.68888 -1.915548,3.8311 -10.333874,13.77849 2.126986,-4.04254 -7.662195,5.74664 -5.393682,0.11891 -0.487783,4.31888 -1.915548,5.74665 -0.902998,0.90299 -2.688885,-0.57111 -3.831097,0 -0.807666,0.40383 -1.164209,1.41465 -1.915549,1.91555 -1.187972,0.79198 -2.606798,1.18096 -3.831097,1.91554 -6.041104,3.62467 -5.066549,3.151 -9.577742,7.6622 -1.277033,1.27703 -2.554065,2.55406 -3.831097,3.83109 -0.638517,0.63852 -1.511716,1.10789 -1.915549,1.91555 -0.285553,0.57111 0,1.27704 0,1.91555 0,1.98167 -0.451499,2.64758 1.915549,3.8311 0.571106,0.28555 1.464049,-0.4515 1.915548,0 0.451499,0.4515 -0.451499,1.46405 0,1.91555 0.451499,0.4515 1.46405,-0.4515 1.915549,0 0.451499,0.4515 -0.451499,1.46405 0,1.91555 0.902998,0.90299 2.928098,-0.903 3.831097,0 2.891005,2.891 5.108129,6.38516 7.662194,9.57774 z"
       id="path3099"
       inkscape:connector-curvature="0" />
    <text
       xml:space="preserve"
       style="font-size:200px;font-style:normal;font-variant:normal;font-weight:normal;font-stretch:normal;text-align:start;line-height:125%;letter-spacing:0px;word-spacing:0px;writing-mode:lr-tb;text-anchor:start;fill:#000000;fill-opacity:1;stroke:none;font-family:Sans;-inkscape-font-specification:Sans"
       x="348.62982"
       y="623.2793"
       id="text3004"
       sodipodi:linespacing="125%"><tspan
         sodipodi:role="line"
         id="tspan3006"
         x="348.62982"
         y="623.2793">?</tspan></text>
  </g>
</svg>
