<?xml version="1.0" encoding="UTF-8" standalone="no"?>
<!-- Created with Inkscape (http://www.inkscape.org/) -->

<svg
   xmlns:dc="http://purl.org/dc/elements/1.1/"
   xmlns:cc="http://creativecommons.org/ns#"
   xmlns:rdf="http://www.w3.org/1999/02/22-rdf-syntax-ns#"
   xmlns:svg="http://www.w3.org/2000/svg"
   xmlns="http://www.w3.org/2000/svg"
   xmlns:sodipodi="http://sodipodi.sourceforge.net/DTD/sodipodi-0.dtd"
   xmlns:inkscape="http://www.inkscape.org/namespaces/inkscape"
   width="210mm"
   height="297mm"
   id="svg2993"
   version="1.1"
   inkscape:version="0.48.5 r10040"
   sodipodi:docname="EraUmaVez.svg"
   inkscape:export-filename="/home/fredm/projetos/o-rato-anderson/EraUmaVez.png"
   inkscape:export-xdpi="90"
   inkscape:export-ydpi="90">
  <defs
     id="defs3" />
  <sodipodi:namedview
     inkscape:document-units="mm"
     id="base"
     pagecolor="#ffffff"
     bordercolor="#666666"
     borderopacity="1.0"
     inkscape:pageopacity="0.0"
     inkscape:pageshadow="2"
     inkscape:zoom="0.411503"
     inkscape:cx="350"
     inkscape:cy="401.64543"
     inkscape:current-layer="layer1"
     showgrid="false"
     inkscape:window-width="626"
     inkscape:window-height="577"
     inkscape:window-x="629"
     inkscape:window-y="13"
     inkscape:window-maximized="0" />
  <metadata
     id="metadata4">
    <rdf:RDF>
      <cc:Work
         rdf:about="">
        <dc:format>image/svg+xml</dc:format>
        <dc:type
           rdf:resource="http://purl.org/dc/dcmitype/StillImage" />
        <dc:title></dc:title>
      </cc:Work>
    </rdf:RDF>
  </metadata>
  <g
     inkscape:label="Layer 1"
     inkscape:groupmode="layer"
     id="layer1">
    <path
       style="fill:none;stroke:#000000;stroke-width:1px;stroke-linecap:butt;stroke-linejoin:miter;stroke-opacity:1"
       d="m 473.58974,254.36218 c 11.43752,-1.49746 10.90834,-3.21602 17.94872,-10.25641 0.8547,-0.8547 1.7094,-1.7094 2.5641,-2.5641 0.8547,-0.8547 2.02355,-1.48298 2.56411,-2.5641 0.38223,-0.76447 -0.60437,-1.95974 0,-2.56411 0.60436,-0.60436 1.95973,0.60437 2.5641,0 0.60436,-0.60436 -0.2073,-1.73492 0,-2.5641 0.65552,-2.6221 1.35537,-5.27485 2.5641,-7.69231 1.37817,-2.75632 3.91428,-4.8598 5.12821,-7.6923 4.92925,-11.50159 0.13848,-7.96928 5.1282,-17.94872 0.54056,-1.08112 2.02354,-1.48298 2.5641,-2.5641 0.45793,-0.91585 0,-14.79111 0,-15.38462 0,-4.2735 0,-8.54701 0,-12.82051 0,-0.8547 0.60437,-1.95974 0,-2.5641 -0.60436,-0.60437 -1.79963,0.38223 -2.5641,0 -1.08112,-0.54056 -1.48298,-2.02355 -2.5641,-2.56411 -2.05128,-1.02564 -5.64103,1.02564 -7.69231,0 -1.08112,-0.54056 -1.4174,-2.18187 -2.5641,-2.5641 -1.62168,-0.54056 -3.4188,0 -5.12821,0 -2.5641,0 -5.16309,0.42154 -7.6923,0 -2.66603,-0.44434 -5.01667,-2.18187 -7.69231,-2.5641 -5.07667,-0.72524 -10.25641,0 -15.38462,0 -8.54701,0 -17.09401,0 -25.64102,0 -8.54701,0 -17.09402,0 -25.64103,0 -1.7094,0 -3.70589,-0.94821 -5.1282,0 -1.59019,1.06012 -1.50398,3.53801 -2.56411,5.1282 -3.91163,5.86745 -2.02966,-1.60331 -5.1282,7.69231 -0.27028,0.81084 0.20729,1.73492 0,2.5641 -1.31105,5.24421 -4.06808,10.08399 -5.12821,15.38462 -0.67048,3.35241 1.08112,7.01305 0,10.25641 -0.38223,1.1467 -2.02354,1.48298 -2.5641,2.5641 -0.39017,0.78034 0,6.53755 0,7.69231 0,6.83761 0,13.67521 0,20.51282"
       id="path2999"
       inkscape:connector-curvature="0" />
    <path
       style="fill:none;stroke:#000000;stroke-width:1px;stroke-linecap:butt;stroke-linejoin:miter;stroke-opacity:1"
       d="m 345.38462,226.15705 c 0,-25.55512 2.41745,-2.85739 -2.56411,-12.82051 -0.38223,-0.76447 0,-1.7094 0,-2.5641 0,-3.81645 0.38224,-3.2728 -2.5641,-7.69231 -0.67048,-1.00572 -2.02354,-1.48298 -2.5641,-2.5641 -0.38224,-0.76447 0.60436,-1.95974 0,-2.5641 -0.60437,-0.60437 -1.95974,0.60436 -2.5641,0 -0.60437,-0.60437 0.60436,-1.95974 0,-2.56411 -1.35141,-1.3514 -3.4894,-1.58081 -5.12821,-2.5641 -2.64251,-1.5855 -5.28593,-3.2031 -7.69231,-5.1282 -1.88772,-1.51018 -3.24048,-3.61803 -5.1282,-5.12821 -2.40638,-1.9251 -5.28593,-3.2031 -7.69231,-5.1282 -4.02859,-3.22288 -4.90366,-6.62176 -10.25641,-7.69231 -2.51431,-0.50286 -5.16309,0.42153 -7.69231,0 -2.66603,-0.44434 -5.02628,-2.11977 -7.69231,-2.5641 -2.52921,-0.42154 -5.1282,0 -7.6923,0 -7.69231,0 -15.38462,0 -23.07693,0 -6.8376,0 -13.67521,0 -20.51282,0 -0.8547,0 -1.95974,-0.60437 -2.5641,0 -2.94634,2.94633 -2.5641,4.53467 -2.5641,7.6923 0,0.8547 0.27028,1.75327 0,2.56411 -0.60437,1.81309 -2.18929,3.25415 -2.56411,5.1282 -0.4977,2.48851 0,17.47026 0,20.51282 0,7.69231 0,15.38462 0,23.07692 0,1.70941 0,3.41881 0,5.12821 0,1.7094 -0.41459,3.46984 0,5.1282 0.86302,3.45206 7.30557,13.9092 10.25642,15.38462 0.76446,0.38223 1.79963,-0.38223 2.5641,0 2.16224,1.08112 2.96596,4.04708 5.1282,5.12821 2.05128,1.02564 5.64103,-1.02565 7.69231,0 1.08112,0.54056 1.48298,2.02354 2.5641,2.5641 0.76447,0.38223 1.7094,0 2.56411,0 0.8547,0 1.7094,0 2.5641,0 5.1282,0 10.25641,0 15.38461,0"
       id="path3001"
       inkscape:connector-curvature="0" />
    <path
       style="fill:none;stroke:#000000;stroke-width:1px;stroke-linecap:butt;stroke-linejoin:miter;stroke-opacity:1"
       d="m 360.76923,313.33654 c -3.4188,-2.5641 -6.43407,-5.78114 -10.25641,-7.69231 -2.2934,-1.1467 -5.1282,0 -7.69231,0 -5.1282,0 -10.25641,0 -15.38461,0 -0.8547,0 -1.7094,0 -2.56411,0 -0.8547,0 -1.95973,-0.60436 -2.5641,0 -0.60436,0.60437 0,1.70941 0,2.56411 0,0.8547 0,1.7094 0,2.5641 0,0.8547 0,1.7094 0,2.5641 0,0.8547 -0.60436,1.95974 0,2.5641 0.60437,0.60437 1.75326,-0.27028 2.5641,0 1.8131,0.60437 3.31512,1.95974 5.12821,2.56411 0.81084,0.27028 1.79963,-0.38224 2.5641,0 6.33694,3.16846 -0.88507,2.5641 5.12821,2.5641 2.5641,0 5.1282,0 7.69231,0 0.8547,0 2.5641,-0.8547 2.5641,0 0,0.8547 -1.7094,0 -2.5641,0"
       id="path3003"
       inkscape:connector-curvature="0" />
    <path
       style="fill:none;stroke:#000000;stroke-width:1px;stroke-linecap:butt;stroke-linejoin:miter;stroke-opacity:1"
       d="m 430,308.20834 c -8.96776,5.04335 -10.50926,5.1282 -17.94872,5.1282 -0.8547,0 -1.95974,-0.60436 -2.5641,0 -0.60437,0.60437 0,1.7094 0,2.5641 0,5.12821 0,10.25641 0,15.38462 0,0.8547 0,1.7094 0,2.5641 0,0.8547 -0.60437,1.95974 0,2.5641 0.60436,0.60437 1.7094,0 2.5641,0 0.8547,0 1.7094,0 2.5641,0 1.78344,0 11.89325,0.46364 12.82052,0 1.08112,-0.54056 1.48298,-2.02354 2.5641,-2.5641 0.76447,-0.38223 1.95974,0.60437 2.5641,0 0.60437,-0.60436 -0.38223,-1.79963 0,-2.5641 0.54056,-1.08112 2.02354,-1.48298 2.56411,-2.5641 0.38223,-0.76447 0,-1.7094 0,-2.56411 0,-8.70079 -0.004,-5.13729 -5.12821,-17.94871 z"
       id="path3005"
       inkscape:connector-curvature="0" />
    <path
       style="fill:none;stroke:#000000;stroke-width:1px;stroke-linecap:butt;stroke-linejoin:miter;stroke-opacity:1"
       d="m 386.41026,356.92629 c 0.8547,3.4188 1.7094,6.8376 2.5641,10.25641 0.8547,0.8547 2.02354,1.48298 2.5641,2.5641 0.38224,0.76447 -0.38223,1.79963 0,2.5641 1.08112,2.16224 4.04709,2.96596 5.12821,5.12821 0.38223,0.76446 -0.38224,1.79963 0,2.5641 1.08112,2.16224 3.78724,3.11676 5.1282,5.1282 2.12025,3.18038 3.00796,7.07604 5.12821,10.25641 1.34096,2.01145 4.04708,2.96597 5.1282,5.12821 0.38224,0.76447 -0.38223,1.79963 0,2.5641 0.54056,1.08112 2.02354,1.48298 2.5641,2.5641 0.38224,0.76447 -0.38223,1.79964 0,2.56411 0.54056,1.08112 2.02355,1.48298 2.56411,2.5641 0.3371,0.67421 0,8.91559 0,10.25641 0,0.62186 0.0825,7.60985 0,7.69231 -0.60437,0.60436 -1.7094,0 -2.56411,0 -5.1282,0 -10.25641,0 -15.38461,0 -5.12821,0 -10.25641,0 -15.38462,0 -0.8547,0 -1.7094,0 -2.5641,0 -0.8547,0 -1.79963,0.38223 -2.5641,0 -2.93953,-1.46977 -3.56669,-5.35004 -5.12821,-7.69231 -0.67048,-1.00572 -2.02354,-1.48298 -2.5641,-2.5641 -0.38223,-0.76447 0.38223,-1.79964 0,-2.56411 -0.54056,-1.08112 -2.02354,-1.48298 -2.5641,-2.5641 -0.75644,-1.51287 0.58789,-5.92863 0,-7.69231 -0.60437,-1.81309 -1.95974,-3.31511 -2.5641,-5.1282 -0.27028,-0.81084 0.38223,-1.79964 0,-2.5641 -0.54056,-1.08112 -2.18187,-1.4174 -2.56411,-2.56411 -0.6185,-1.85551 0.84523,-9.41118 0,-10.25641 -0.60436,-0.60436 -1.95973,0.60437 -2.5641,0 -0.60436,-0.60436 0,-1.7094 0,-2.5641 0,-0.8547 0,-1.7094 0,-2.5641"
       id="path3007"
       inkscape:connector-curvature="0" />
    <path
       style="fill:none;stroke:#000000;stroke-width:1px;stroke-linecap:butt;stroke-linejoin:miter;stroke-opacity:1"
       d="m 483.84615,303.08013 c 16.03314,16.03314 5.66402,3.50178 15.38462,20.51282 11.52636,20.17113 -0.14293,-4.20348 7.69231,15.38462 0.70979,1.77447 1.50397,3.53801 2.5641,5.1282 0.67048,1.00573 2.18187,1.4174 2.5641,2.5641 0.54056,1.62169 -0.28102,3.44207 0,5.12821 3.85458,23.12744 2.87161,-5.33632 5.12821,30.76923 0.58646,9.3834 0,18.80342 0,28.20513 0,30.76923 0,61.53846 0,92.30769 0,12.82051 0,25.64103 0,38.46154 0,5.84499 0.50476,12.39635 0,17.94872 -3.19959,35.19546 -0.82068,1.53929 -5.12821,23.07692 -0.33524,1.67621 0.76447,3.59927 0,5.12821 -0.38223,0.76446 -1.79963,-0.38224 -2.5641,0 -1.08112,0.54056 -1.55838,1.89362 -2.5641,2.5641 -4.77057,3.18038 -10.40654,4.84769 -15.38462,7.69231 -2.67564,1.52893 -4.93598,3.75004 -7.69231,5.1282 -2.41746,1.20873 -5.18282,1.56031 -7.6923,2.5641 -1.77448,0.70979 -3.35373,1.85432 -5.12821,2.56411 -0.33229,0.13291 -15.30017,5.07754 -15.38461,5.1282 -2.07296,1.24377 -2.96597,4.04709 -5.12821,5.12821 -1.65885,0.82942 -9.33535,-0.92107 -10.25641,0 -3.4188,3.4188 4.2735,2.5641 -2.5641,2.5641"
       id="path3009"
       inkscape:connector-curvature="0" />
    <path
       style="fill:none;stroke:#000000;stroke-width:1px;stroke-linecap:butt;stroke-linejoin:miter;stroke-opacity:1"
       d="m 268.46154,308.20834 c -4.27351,3.4188 -9.25889,6.10118 -12.82051,10.25641 -1.75896,2.05212 -1.35538,5.27485 -2.56411,7.6923 -13.61535,27.23072 1.97511,-10.39514 -7.6923,15.38462 -4.89813,13.06166 -5.97597,11.91027 -7.69231,25.64103 -0.31804,2.5443 0.50286,5.17799 0,7.6923 -0.37481,1.87406 -2.10058,3.2741 -2.5641,5.12821 -0.4146,1.65836 0,3.4188 0,5.1282 0,2.56411 0,5.12821 0,7.69231 0,5.12821 0,10.25641 0,15.38462 0,16.23931 0,32.47863 0,48.71795 0,23.93162 0,47.86324 0,71.79487 0,10.25641 -0.73074,20.53888 0,30.76923 0.21117,2.95641 3.52001,25.94465 5.1282,30.76923 4.16981,12.50943 5.45186,6.74649 7.69231,17.94872 0.33524,1.6762 0,3.4188 0,5.1282 0,0.8547 -0.38224,1.79964 0,2.5641 0.54056,1.08112 2.02354,1.48299 2.5641,2.56411 1.7094,3.4188 -2.5641,2.5641 2.5641,2.5641"
       id="path3011"
       inkscape:connector-curvature="0" />
    <path
       style="fill:none;stroke:#000000;stroke-width:1px;stroke-linecap:butt;stroke-linejoin:miter;stroke-opacity:1"
       d="m 247.94872,510.77244 c -3.41881,-0.8547 -6.98444,-1.25531 -10.25641,-2.5641 -1.12228,-0.44891 -1.48298,-2.02355 -2.5641,-2.56411 -0.76447,-0.38223 -1.79964,0.38224 -2.56411,0 -8.50406,-8.50405 2.41746,1.20873 -5.1282,-2.5641 -1.08112,-0.54056 -1.4174,-2.18187 -2.56411,-2.5641 -1.62168,-0.54056 -3.46984,0.41459 -5.1282,0 -1.85411,-0.46353 -3.31511,-1.95974 -5.12821,-2.5641 -0.81084,-0.27028 -1.7094,0 -2.5641,0 -4.2735,0 -8.54701,0 -12.82051,0 -10.25641,0 -20.51282,0 -30.76923,0 -5.98291,0 -11.96581,0 -17.94872,0 -0.8547,0 -1.95974,-0.60437 -2.5641,0 -1.3514,1.3514 -1.50398,3.53801 -2.5641,5.1282 -0.67049,1.00573 -1.89362,1.55838 -2.56411,2.5641 -1.08935,1.63403 -7.27651,13.72143 -7.6923,15.38462 -1.26093,5.04371 -1.82887,10.23792 -2.56411,15.38461 C 129.36392,558.81471 130,552.41707 130,572.3109 c 0,12.82051 0,25.64103 0,38.46154 0,6.44077 -1.24377,18.97724 2.5641,25.64102 1.7991,3.14842 5.12821,5.12821 7.69231,7.69231 1.7094,1.7094 3.19424,3.67773 5.12821,5.12821 1.52893,1.1467 3.59927,1.4174 5.1282,2.5641 1.93397,1.45048 3.19424,3.67773 5.12821,5.12821 1.52893,1.1467 3.48939,1.58081 5.1282,2.5641 2.64251,1.5855 4.93598,3.75004 7.69231,5.1282 2.41746,1.20873 5.1282,1.7094 7.69231,2.56411 5.26065,1.75355 10.12396,3.37465 15.38461,5.1282 2.5641,0.8547 5.18282,1.56031 7.69231,2.5641 1.77448,0.70979 3.2741,2.10058 5.1282,2.56411 2.96079,0.74019 7.29563,-0.7402 10.25641,0 1.85411,0.46352 3.2741,2.10057 5.12821,2.5641 1.65836,0.41459 3.4188,0 5.1282,0 1.70941,0 3.41881,0 5.12821,0 7.69231,0 15.38462,0 23.07692,0 1.15477,0 6.91197,-0.39017 7.69231,0 1.08112,0.54056 1.4174,2.18187 2.5641,2.5641 2.43252,0.81084 5.12821,0 7.69231,0 5.12821,0 10.25641,0 15.38462,0 11.11111,0 22.22222,0 33.33333,0"
       id="path3013"
       inkscape:connector-curvature="0" />
    <path
       style="fill:none;stroke:#000000;stroke-width:1px;stroke-linecap:butt;stroke-linejoin:miter;stroke-opacity:1"
       d="m 496.66667,546.66987 c 7.77171,-3.33073 20.16591,-8.22667 28.20512,-12.82051 2.67564,-1.52893 4.93599,-3.75004 7.69231,-5.1282 2.41746,-1.20873 5.18282,-1.56031 7.69231,-2.56411 1.77448,-0.70979 3.2741,-2.10057 5.12821,-2.5641 1.65836,-0.41459 3.45199,0.33524 5.1282,0 2.65032,-0.53006 5.02628,-2.11976 7.69231,-2.5641 2.52921,-0.42154 5.1282,0 7.69231,0 8.547,0 17.09401,0 25.64102,0 5.12821,0 10.25641,0 15.38462,0 3.46677,0 7.59355,-0.76447 10.25641,2.5641 7.03937,8.79922 5.1282,12.33677 5.1282,23.07692 0,5.12821 0,10.25642 0,15.38462 0,10.25641 0,20.51282 0,30.76923 0,12.74165 0.84307,18.27626 -2.5641,30.76923 -2.39059,8.7655 -9.51456,23.43167 -15.38462,30.76923 -4.16073,5.20092 -6.09567,5.05549 -10.25641,10.25641 -1.9251,2.40638 -2.94913,5.51324 -5.1282,7.69231 -4.35814,4.35814 -10.57186,6.40621 -15.38462,10.25641 -1.88771,1.51018 -3.05525,3.88443 -5.1282,5.12821 -5.62491,3.37494 -9.25851,2.5641 -15.38462,2.5641 -8.77841,0 -16.86261,0 -25.64102,0 -23.93163,0 -47.86325,0 -71.79487,0"
       id="path3015"
       inkscape:connector-curvature="0" />
    <path
       style="fill:none;stroke:#000000;stroke-width:1px;stroke-linecap:butt;stroke-linejoin:miter;stroke-opacity:1"
       d="m 322.30769,454.36218 c 0,5.98291 0,11.96581 0,17.94872 0,0.8547 -0.38223,1.79964 0,2.5641 0.54056,1.08112 1.7094,1.7094 2.5641,2.56411 0.85471,0.8547 1.70941,1.7094 2.56411,2.5641 1.7094,1.7094 3.4188,3.4188 5.1282,5.1282 0.8547,0.8547 1.55838,1.89362 2.56411,2.56411 1.59018,1.06012 3.59926,1.4174 5.1282,2.5641 1.93397,1.45047 3.11676,3.78724 5.12821,5.1282 0.71115,0.47411 1.75326,-0.27028 2.5641,0 18.57286,6.19096 -4.04259,-0.73924 7.69231,5.12821 0.76446,0.38223 1.75326,-0.27028 2.5641,0 18.57286,6.19095 -4.04258,-0.73924 7.69231,5.1282 0.76446,0.38224 1.79963,-0.38223 2.5641,0 1.08112,0.54056 1.55838,1.89362 2.5641,2.56411 18.59124,9.29561 -4.0542,-2.7028 7.69231,5.1282 1.59019,1.06013 3.53801,1.50398 5.1282,2.5641 1.08683,0.72456 7.16186,6.63141 7.69231,7.69231 0.38224,0.76447 -0.27028,1.75326 0,2.5641 6.19096,18.57287 -0.73924,-4.04258 5.12821,7.69231 0.38223,0.76447 0,1.7094 0,2.5641 0,0.85471 0,1.70941 0,2.56411"
       id="path3017"
       inkscape:connector-curvature="0" />
    <path
       style="fill:none;stroke:#000000;stroke-width:1px;stroke-linecap:butt;stroke-linejoin:miter;stroke-opacity:1"
       d="m 471.02564,464.61859 c -11.96725,15.95634 -4.66283,3.96478 -10.25641,17.94872 -0.70979,1.77448 -2.10058,3.2741 -2.5641,5.12821 -0.41459,1.65836 0.54056,3.50652 0,5.1282 -0.38224,1.1467 -2.18187,1.4174 -2.5641,2.5641 -0.54056,1.62168 0.41459,3.46985 0,5.12821 -0.92706,3.70821 -3.91948,6.63022 -5.12821,10.25641 -0.58789,1.76367 0.75644,6.17943 0,7.69231 -1.08112,2.16224 -3.78724,3.11675 -5.1282,5.1282 -1.06013,1.59019 -1.21271,3.77681 -2.56411,5.12821 -2.17907,2.17907 -5.28593,3.2031 -7.6923,5.1282 -0.65051,0.52041 -9.00804,9.63223 -10.25642,10.25641 -0.0435,0.0217 -16.26009,0 -7.6923,0"
       id="path3019"
       inkscape:connector-curvature="0" />
  </g>
</svg>
