<?xml version="1.0" encoding="UTF-8" standalone="no"?>
<!-- Created with Inkscape (http://www.inkscape.org/) -->

<svg
   xmlns:dc="http://purl.org/dc/elements/1.1/"
   xmlns:cc="http://creativecommons.org/ns#"
   xmlns:rdf="http://www.w3.org/1999/02/22-rdf-syntax-ns#"
   xmlns:svg="http://www.w3.org/2000/svg"
   xmlns="http://www.w3.org/2000/svg"
   xmlns:sodipodi="http://sodipodi.sourceforge.net/DTD/sodipodi-0.dtd"
   xmlns:inkscape="http://www.inkscape.org/namespaces/inkscape"
   width="210mm"
   height="297mm"
   id="svg2985"
   version="1.1"
   inkscape:version="0.48.5 r10040"
   sodipodi:docname="esse-rato-morava-num-buraco.svg"
   inkscape:export-filename="/home/fredm/projetos/o-rato-anderson/esse-rato-morava-num-buraco.png"
   inkscape:export-xdpi="90"
   inkscape:export-ydpi="90">
  <defs
     id="defs3" />
  <sodipodi:namedview
     inkscape:document-units="mm"
     id="base"
     pagecolor="#ffffff"
     bordercolor="#666666"
     borderopacity="1.0"
     inkscape:pageopacity="0.0"
     inkscape:pageshadow="2"
     inkscape:zoom="0.55234375"
     inkscape:cx="350"
     inkscape:cy="520"
     inkscape:current-layer="layer1"
     showgrid="false"
     inkscape:window-width="684"
     inkscape:window-height="599"
     inkscape:window-x="590"
     inkscape:window-y="110"
     inkscape:window-maximized="0" />
  <metadata
     id="metadata4">
    <rdf:RDF>
      <cc:Work
         rdf:about="">
        <dc:format>image/svg+xml</dc:format>
        <dc:type
           rdf:resource="http://purl.org/dc/dcmitype/StillImage" />
        <dc:title></dc:title>
      </cc:Work>
    </rdf:RDF>
  </metadata>
  <g
     inkscape:label="Layer 1"
     inkscape:groupmode="layer"
     id="layer1">
    <path
       style="fill:none;stroke:#000000;stroke-width:1px;stroke-linecap:butt;stroke-linejoin:miter;stroke-opacity:1"
       d="m 532.27723,601.55596 c 2.45618,-6.53437 1.81046,-13.11018 1.81046,-19.91514 0,-1.81046 -0.35506,-3.65609 0,-5.4314 0.26465,-1.32323 1.48318,-2.31178 1.81047,-3.62093 0.29274,-1.17094 0,-2.41395 0,-3.62093 0,-1.81047 0,-3.62094 0,-5.4314 0,-6.03489 0,-12.06978 0,-18.10467 0,-3.62093 0,-7.24187 0,-10.8628 0,-3.62093 0.99475,-7.38119 0,-10.8628 -1.38041,-4.83144 -10.54245,-20.91259 -14.48373,-25.34654 -2.00468,-2.25526 -4.86004,-3.57886 -7.24187,-5.4314 -3.05023,-2.37239 -5.83711,-5.09838 -9.05233,-7.24186 -4.04833,-2.69889 -8.44885,-4.82791 -12.67327,-7.24187 -4.22442,-2.41396 -8.38019,-4.95223 -12.67327,-7.24187 -7.82561,-4.17366 -20.19528,-10.48022 -28.96747,-12.67326 -4.72021,-1.18006 -9.70158,-0.91382 -14.48373,-1.81047 -4.82791,-1.20698 -9.65582,-2.41396 -14.48373,-3.62094 -1.81047,0 -3.64557,0.29764 -5.4314,0 -1.88244,-0.31373 -3.62094,-1.20697 -5.43141,-1.81046 -1.81046,-0.60349 -3.65949,-1.10171 -5.4314,-1.81047 -1.25292,-0.50117 -2.29769,-1.54582 -3.62093,-1.81047 -3.55062,-0.71012 -7.27826,0.51208 -10.8628,0 -2.46324,-0.35189 -4.77863,-1.45857 -7.24187,-1.81046 -1.79227,-0.25604 -3.62093,0 -5.4314,0 -1.30528,0 -19.67601,0 -19.91513,0 -5.4314,0 -10.8628,0 -16.2942,0 -6.63092,0 -8.09457,-0.58547 -14.48374,1.81046 -9.69881,3.63706 -5.89303,2.95253 -12.67326,10.86281 -1.66628,1.94399 -3.79228,3.46445 -5.4314,5.4314 -1.39299,1.67158 -2.35622,3.66078 -3.62094,5.4314 -1.75385,2.45539 -3.83216,4.68307 -5.4314,7.24186 -1.4304,2.28865 -2.31024,4.88262 -3.62093,7.24187 -2.65921,4.78657 -7.04885,10.95158 -9.05234,16.2942 -0.87368,2.32982 -0.83029,4.95481 -1.81046,7.24187 -0.85713,1.99997 -2.64784,3.4852 -3.62094,5.4314 -5.66664,11.33329 -1.97397,5.92193 -5.4314,16.2942 -0.85346,2.56039 -2.96635,4.62356 -3.62093,7.24187 -0.29273,1.17094 0.38168,2.47589 0,3.62093 -0.26989,0.80966 -1.54058,1.0008 -1.81047,1.81047 -0.38168,1.14504 0.23671,2.43739 0,3.62093 -0.37426,1.87134 -1.20697,3.62093 -1.81046,5.4314 0,2.41396 0.24019,4.83989 0,7.24187 -0.36527,3.65266 -1.50562,7.2046 -1.81047,10.8628 -0.3007,3.60842 0,7.24186 0,10.8628 0,9.05233 0,18.10467 0,27.157 0,6.63838 0,13.27676 0,19.91513 0,6.51068 -0.22456,13.81006 1.81047,19.91514 1.5386,4.6158 4.61082,8.58053 7.24186,12.67327 2.8073,4.3669 6.07526,8.4203 9.05234,12.67326 1.2478,1.78258 2.22795,3.75982 3.62093,5.4314 3.49222,4.19066 16.25082,15.01077 18.10467,16.2942 3.3285,2.30435 7.39139,3.34856 10.8628,5.4314 2.58744,1.55247 4.68308,3.83216 7.24187,5.4314 6.798,4.24876 7.08464,3.41347 14.48373,5.4314 4.23866,1.156 8.46509,2.35849 12.67327,3.62094 1.82791,0.54837 3.54218,1.54058 5.4314,1.81047 2.38969,0.34138 4.82791,0 7.24187,0 1.81046,0 3.62093,0 5.4314,0 7.84535,0 15.69071,0 23.53606,0 6.63838,0 13.27676,0 19.91514,0 4.31868,0 8.62404,0.4391 12.67327,-1.81047 3.37793,-1.87663 5.77548,-5.19384 9.05233,-7.24187 1.61832,-1.01145 3.79496,-0.8286 5.4314,-1.81047 1.46368,-0.8782 2.20069,-2.6741 3.62093,-3.62093 13.90914,-9.27276 0.64598,2.80861 14.48374,-9.05233 5.29554,-4.53904 6.56982,-6.9493 10.8628,-12.67327 1.81046,-2.41396 3.29774,-5.10821 5.4314,-7.24187 2.13365,-2.13365 4.82791,-3.62093 7.24187,-5.4314 1.81046,-3.01744 3.27099,-6.27467 5.4314,-9.05233 2.0959,-2.69473 5.10925,-4.5761 7.24186,-7.24187 2.71856,-3.3982 4.63078,-7.38134 7.24187,-10.8628 1.02415,-1.36554 2.55463,-2.28805 3.62093,-3.62093 1.35928,-1.6991 2.41396,-3.62094 3.62094,-5.4314 1.81046,-1.81047 3.79228,-3.46446 5.4314,-5.4314 2.78596,-3.34316 4.5233,-7.4646 7.24186,-10.8628 9.7747,-12.21837 -4.81391,10.43714 9.05234,-12.67327 z"
       id="path2991"
       inkscape:connector-curvature="0" />
    <path
       style="fill:none;stroke:#000000;stroke-width:1px;stroke-linecap:butt;stroke-linejoin:miter;stroke-opacity:1"
       d="m 391.06082,567.15709 c -2.41396,-1.81047 -4.65443,-3.87894 -7.24187,-5.4314 -0.5933,-0.35598 -6.20268,0 -7.24186,0 -0.60349,0 -1.20698,0 -1.81047,0 -0.60349,0 -1.38374,-0.42673 -1.81047,0 -0.42673,0.42673 0,1.20698 0,1.81047 0,3.62093 0,7.24186 0,10.8628 0,0.60349 -0.42673,1.38373 0,1.81046 0.42673,0.42674 1.38374,-0.42673 1.81047,0 0.42673,0.42674 -0.42673,1.38374 0,1.81047 0.42673,0.42673 1.20698,0 1.81047,0 0.60349,0 1.20697,0 1.81046,0 4.82791,0 9.65583,0 14.48374,0 0.60349,0 1.38373,0.42673 1.81046,0 0.42673,-0.42673 0.19084,-1.23795 0,-1.81047 -1.0277,-3.08311 -2.41395,-6.03488 -3.62093,-9.05233 z"
       id="path2993"
       inkscape:connector-curvature="0" />
    <path
       style="fill:none;stroke:#000000;stroke-width:1px;stroke-linecap:butt;stroke-linejoin:miter;stroke-opacity:1"
       d="m 432.70156,568.96756 c -2.41396,-1.81047 -9.05234,-3.01745 -7.24187,-5.4314 1.81047,-2.41396 10.25931,5.4314 7.24187,5.4314 -3.51892,0 -5.90492,-3.8577 -9.05234,-5.4314 -1.07955,-0.53978 -3.62093,1.20697 -3.62093,0 0,-0.60349 1.81047,-0.60349 1.81047,0 0,0.60349 -1.38374,-0.42673 -1.81047,0 -0.42673,0.42673 0,1.20697 0,1.81046 0,6.03489 0,12.06978 0,18.10467 0,0.60349 0,1.20698 0,1.81047 0,0.60349 -0.53978,1.54058 0,1.81047 0.56646,0.28323 9.74094,0 10.8628,0 0.85363,0 8.97028,0.082 9.05233,0 0.42673,-0.42674 0,-1.20698 0,-1.81047 0,-1.10543 0.16957,-6.94513 0,-7.24187 -1.91718,-3.35508 -7.24186,-5.18812 -7.24186,-9.05233 0,-3.86422 4.82791,-6.03489 7.24186,-9.05234"
       id="path2995"
       inkscape:connector-curvature="0" />
    <path
       style="fill:none;stroke:#000000;stroke-width:1px;stroke-linecap:butt;stroke-linejoin:miter;stroke-opacity:1"
       d="m 378.38755,529.13729 c -1.27465,-0.52137 0.70887,-10.54668 0,-12.67327 -0.26989,-0.80966 -1.42878,-1.04711 -1.81046,-1.81047 -0.26989,-0.53977 0.26988,-1.27069 0,-1.81046 -0.38168,-0.76336 -1.33705,-1.10035 -1.81047,-1.81047 -0.22483,-0.33724 -3.50492,-7.12585 -3.62093,-7.24187 -0.9542,-0.9542 -2.49813,-1.06193 -3.62094,-1.81046 -0.71012,-0.47342 -1.20698,-1.20698 -1.81046,-1.81047 -1.20698,-1.20698 -2.41396,-2.41396 -3.62094,-3.62093 -0.60349,-0.60349 -1.0471,-1.42879 -1.81046,-1.81047 -0.53978,-0.26989 -1.20698,0 -1.81047,0 -1.20698,-0.60349 -2.49813,-1.06193 -3.62093,-1.81047 -0.71013,-0.47341 -1.04711,-1.42878 -1.81047,-1.81046 -1.07956,-0.53978 -2.4759,0.38168 -3.62094,0 -1.28019,-0.42673 -2.49812,-1.06193 -3.62093,-1.81047 -0.71012,-0.47342 -0.98249,-1.60347 -1.81047,-1.81047 -1.75641,-0.4391 -3.62093,0 -5.4314,0 -4.22442,0 -8.44884,0 -12.67326,0 -2.87171,0 -12.8751,-0.45961 -14.48374,0 -4.26399,1.21829 -7.77329,6.58073 -10.8628,9.05234 -1.05374,0.84299 -2.66673,0.85626 -3.62093,1.81046 -0.9542,0.9542 -1.20698,2.41396 -1.81047,3.62094 -0.60349,1.20698 -1.48318,2.31178 -1.81046,3.62093 -0.46887,1.87545 0,5.16587 0,7.24187 0,4.86094 0,9.62279 0,14.48373 0,9.05234 0,18.10467 0,27.157 0,2.41396 0,4.82791 0,7.24187 0,0.60349 0,1.20698 0,1.81047 0,0.60349 -0.26989,1.27069 0,1.81046 0.38168,0.76336 1.20697,1.20698 1.81046,1.81047 0.60349,0.60349 1.0008,1.54058 1.81047,1.81047 1.14504,0.38168 2.50028,-0.44826 3.62093,0 2.02028,0.80811 3.43143,2.7638 5.4314,3.62093 9.7896,4.19554 4.17785,0.39456 12.67327,1.81047 1.88243,0.31374 3.56006,1.4362 5.4314,1.81046 2.01422,0.40285 6.69377,0 9.05233,0 7.84536,0 15.69072,0 23.53607,0"
       id="path2997"
       inkscape:connector-curvature="0" />
    <path
       style="fill:none;stroke:#000000;stroke-width:1px;stroke-linecap:butt;stroke-linejoin:miter;stroke-opacity:1"
       d="m 412.78642,538.18962 c 0.54498,-9.61018 -0.79908,-19.37846 0,-28.96747 0.25555,-3.06657 1.14293,-6.0484 1.81047,-9.05233 0.88309,-3.97393 1.37812,-7.49858 3.62093,-10.8628 0.94683,-1.42025 2.41396,-2.41396 3.62094,-3.62093 0.60348,-0.60349 1.0471,-1.42879 1.81046,-1.81047 0.53978,-0.26989 1.23795,0.19084 1.81047,0 1.28019,-0.42673 2.2977,-1.54582 3.62093,-1.81047 2.95885,-0.59177 6.03489,0 9.05234,0 4.82791,0 9.65582,0 14.48373,0 3.62093,0 7.24187,0 10.8628,0 5.0791,0 6.09683,-0.57252 10.8628,1.81047 0.76336,0.38168 1.20698,1.20698 1.81047,1.81047 1.20698,1.20697 2.41395,2.41395 3.62093,3.62093 0.60349,0.60349 1.20698,1.20698 1.81047,1.81047 0.60349,0.60349 1.42879,1.0471 1.81047,1.81046 0.26988,0.53978 -0.42674,1.38374 0,1.81047 3.74592,3.74592 -0.14644,-5.72426 3.62093,1.81047 0.26989,0.53977 -0.33476,1.30833 0,1.81046 4.83201,7.24802 3.96013,-0.62327 7.24187,10.8628 0.49737,1.74081 -0.43911,3.67499 0,5.4314 0.20699,0.82798 1.54057,1.00081 1.81046,1.81047 0.27626,0.82877 0,8.04181 0,9.05234 0,6.03488 0,12.06977 0,18.10466 0,1.03096 0.0348,16.27681 0,16.2942 -1.07955,0.53978 -2.44999,-0.29273 -3.62093,0 -4.76917,1.1923 -7.9041,6.04958 -12.67327,7.24187 -1.17094,0.29274 -2.47589,-0.38168 -3.62093,0 -0.80967,0.26989 -1.04711,1.42879 -1.81047,1.81047 -1.07955,0.53977 -2.47589,-0.38168 -3.62093,0 -1.2802,0.42673 -2.34074,1.38373 -3.62094,1.81046 -1.1395,0.37984 -7.42044,0 -9.05233,0"
       id="path2999"
       inkscape:connector-curvature="0" />
    <path
       style="fill:none;stroke:#000000;stroke-width:1px;stroke-linecap:butt;stroke-linejoin:miter;stroke-opacity:1"
       d="m 463.47949,431.37208 c -2.41395,-1.20697 -4.82791,-2.41395 -7.24187,-3.62093 -0.60349,-0.60349 -1.10034,-1.33705 -1.81046,-1.81047 -9.14613,-6.09741 -0.042,-0.014 -5.4314,-1.81046 -1.2802,-0.42673 -2.41396,-1.20698 -3.62094,-1.81047 -10.14865,-5.07433 -4.73601,-2.61859 -16.2942,-7.24187 -3.01744,-1.20698 -5.9395,-2.68708 -9.05233,-3.62093 -2.94743,-0.88423 -6.04841,-1.14293 -9.05234,-1.81047 -4.85799,-1.07955 -9.54566,-3.00367 -14.48373,-3.62093 -2.39531,-0.29942 -4.88539,0.52366 -7.24187,0 -3.17249,-0.705 -5.99811,-2.51031 -9.05233,-3.62093 -3.587,-1.30437 -7.15996,-2.69523 -10.8628,-3.62094 -1.17094,-0.29273 -2.47589,0.38168 -3.62093,0 -0.80967,-0.26989 -1.00081,-1.54058 -1.81047,-1.81046 -1.14504,-0.38168 -2.41396,0 -3.62093,0 -4.77404,0 -9.7097,0 -14.48374,0 -3.01744,0 -6.03489,0 -9.05233,0 -1.81047,0 -3.85948,-0.89825 -5.4314,0 -7.37556,4.2146 -9.10047,12.18307 -14.48374,18.10466 -3.17057,3.48764 -7.87809,5.40437 -10.8628,9.05234 -2.56355,3.13323 -3.49285,7.30879 -5.4314,10.8628 -4.87178,8.9316 -9.21095,14.16224 -14.48373,23.53607 -2.64632,4.70456 -4.70174,9.72099 -7.24187,14.48373 -2.28964,4.29307 -4.93514,8.38935 -7.24187,12.67327 -1.91931,3.56443 -3.49285,7.30879 -5.4314,10.8628 -5.48416,10.05429 -4.8822,6.91141 -9.05233,16.2942 -4.09651,4.65917 -3.17613,11.03191 -5.4314,16.2942 -1.16817,2.72573 -4.6332,5.85952 -5.4314,9.05233 -0.29274,1.17094 0.53978,2.54138 0,3.62094 -1.34944,2.69888 -3.83216,4.68308 -5.4314,7.24186 -1.43041,2.28865 -2.19053,4.95322 -3.62093,7.24187 -1.59925,2.55879 -3.83216,4.68308 -5.4314,7.24187 -1.43041,2.28865 -2.00161,5.08276 -3.62094,7.24186 -0.0635,0.0847 -14.33641,14.31537 -14.48373,14.48374 -1.987,2.27086 -3.46768,4.95085 -5.4314,7.24187 -1.66628,1.94399 -3.62094,3.62093 -5.4314,5.4314 -2.41396,2.41395 -4.82791,4.82791 -7.24187,7.24186 -5.4314,5.4314 -10.8628,10.8628 -16.2942,16.2942 -1.20698,1.20698 -2.30964,2.52819 -3.62093,3.62094 -5.76821,4.80684 -9.65598,7.06953 -16.29421,10.8628 -4.95351,2.83058 -2.87014,1.14806 -9.05233,3.62093 -1.25292,0.50117 -2.41395,1.20698 -3.62093,1.81047 -1.81047,0.60349 -3.6595,1.1017 -5.4314,1.81046 -1.25293,0.50117 -2.4638,1.11619 -3.62094,1.81047 -1.86582,1.1195 -3.39403,2.85692 -5.4314,3.62093 -2.88127,1.08048 -6.10491,0.92624 -9.05233,1.81047 -3.11283,0.93385 -6.00937,2.47982 -9.05233,3.62094 -1.78689,0.67008 -3.6595,1.1017 -5.4314,1.81046 -2.50586,1.00234 -4.62357,2.96636 -7.24187,3.62094 -1.17094,0.29273 -2.449994,-0.29274 -3.620935,0 -1.309151,0.32728 -2.311782,1.48317 -3.620933,1.81046 -1.170941,0.29274 -2.449993,-0.29273 -3.620934,0 -12.902031,3.22551 10.697992,0.92584 -10.862801,3.62094 -2.395314,0.29941 -4.842675,-0.26658 -7.241867,0 -3.05838,0.33982 -5.990403,1.50427 -9.052333,1.81046 -4.803952,0.4804 -9.655823,0 -14.483734,0 -1.810467,0 -3.620934,0 -5.431401,0 -0.603489,0 -1.810466,0.60349 -1.810466,0 0,-0.60349 1.206977,0 1.810466,0"
       id="path3001"
       inkscape:connector-curvature="0" />
    <path
       style="fill:none;stroke:#000000;stroke-width:1px;stroke-linecap:butt;stroke-linejoin:miter;stroke-opacity:1"
       d="m 18.104668,549.05242 c 6.435312,-1.28706 8.916607,-1.39408 14.483734,-3.62093 1.252925,-0.50117 2.368008,-1.3093 3.620933,-1.81047 1.771905,-0.70876 3.677305,-1.05871 5.431401,-1.81046 2.480666,-1.06315 4.775595,-2.52482 7.241867,-3.62094 2.969784,-1.3199 6.211421,-2.04265 9.052333,-3.62093 24.062763,-13.3682 -3.634658,0.61264 10.862801,-9.05233 2.245608,-1.49708 5.082759,-2.00161 7.241867,-3.62094 2.731079,-2.04831 4.690325,-4.97383 7.241867,-7.24187 2.88815,-2.56724 6.144216,-4.69726 9.052334,-7.24186 8.238955,-7.20908 3.100976,-3.80261 10.862805,-12.67327 2.24803,-2.56918 4.97382,-4.69032 7.24186,-7.24187 5.85714,-6.58928 8.51656,-10.48403 12.67327,-18.10466 1.93855,-3.55401 3.25795,-7.44739 5.4314,-10.8628 1.93649,-3.04307 14.83081,-17.90298 16.2942,-19.91514 2.06973,-2.84587 3.62093,-6.03489 5.4314,-9.05233 3.01745,-4.22443 5.88708,-8.55844 9.05233,-12.67327 2.87382,-3.73595 6.1403,-7.15657 9.05234,-10.8628 3.72848,-4.74535 6.99936,-9.8476 10.8628,-14.48374 2.18549,-2.62259 5.14597,-4.54713 7.24187,-7.24186 4.32081,-5.55533 6.82687,-12.33906 10.8628,-18.10467 2.21598,-3.16569 4.89455,-5.98276 7.24186,-9.05233 5.49885,-7.1908 9.7023,-15.52145 16.2942,-21.7256 3.93066,-3.69945 9.94325,-4.32299 14.48374,-7.24187 3.96481,-2.54881 7.18225,-6.1079 10.8628,-9.05234 2.35623,-1.88498 4.88564,-3.54641 7.24187,-5.4314 0.66644,-0.53315 1.10034,-1.33705 1.81046,-1.81046 4.74582,-3.16388 3.16388,-0.67671 9.05234,-3.62094 16.58026,-8.29013 -12.04013,1.71367 18.10466,-9.05233 19.48596,-6.95927 5.6922,-0.89578 25.34654,-5.4314 3.71905,-0.85824 7.09793,-2.99346 10.8628,-3.62093 3.57167,-0.59528 7.24187,0 10.8628,0 5.4314,0 10.8628,0 16.2942,0 7.50695,0 14.21866,0 21.7256,0 4.22442,0 8.7738,-1.62478 12.67327,0 3.93906,1.64127 5.74962,6.35011 9.05233,9.05233 3.36813,2.75574 6.97042,5.29567 10.8628,7.24187 3.41385,1.70692 7.56593,1.69776 10.8628,3.62093 4.07134,2.37495 7.21484,6.06763 10.86281,9.05233 2.99073,2.44697 6.14421,4.69727 9.05233,7.24187 3.85377,3.37205 6.86415,7.66388 10.8628,10.8628 1.05374,0.84299 2.54138,1.0008 3.62093,1.81047 1.36554,1.02415 2.2554,2.59678 3.62094,3.62093 7.69912,5.77435 -0.72598,-4.4921 9.05233,7.24187 1.39298,1.67158 2.93285,3.36715 3.62093,5.4314 0.57252,1.71756 -1.28019,4.15121 0,5.4314 1.2802,1.28019 3.62094,0 5.4314,0 10.10692,0 17.04109,-0.52398 27.15701,1.81047 3.16666,0.73076 5.9395,2.68708 9.05233,3.62093 2.94742,0.88423 6.10491,0.92624 9.05233,1.81047 3.11283,0.93385 5.87984,2.91593 9.05234,3.62093 2.35647,0.52366 4.84267,-0.26658 7.24186,0 3.05838,0.33982 5.99396,1.47065 9.05234,1.81047 2.39919,0.26657 4.82791,0 7.24187,0 6.63837,0 13.27675,0 19.91513,0 1.20698,0 2.41396,0 3.62093,0 1.20698,0 2.45,-0.29274 3.62094,0 1.30915,0.32729 2.368,1.30929 3.62093,1.81046 1.7719,0.70877 3.6595,1.10171 5.4314,1.81047 1.25293,0.50117 2.31178,1.48318 3.62093,1.81047 1.17094,0.29273 2.45,-0.29274 3.62094,0 1.30915,0.32729 2.34074,1.38373 3.62093,1.81046 0.57252,0.19084 1.27069,-0.26988 1.81047,0 0.76336,0.38168 1.0471,1.42879 1.81046,1.81047 0.53978,0.26989 1.27069,-0.26989 1.81047,0 0.76336,0.38168 1.04711,1.42879 1.81047,1.81047 0.53977,0.26989 1.23794,-0.19084 1.81046,0 1.2802,0.42673 2.44929,1.14095 3.62094,1.81046 3.05527,1.74588 6.12442,3.47946 9.05233,5.4314 2.46023,1.64016 9.43455,7.43298 12.67327,9.05234 1.70692,0.85346 3.62093,1.20698 5.4314,1.81047 1.81047,0.60348 3.59643,1.28618 5.4314,1.81046 2.39251,0.68358 5.08146,0.57595 7.24187,1.81047 2.22304,1.27031 3.48741,3.76512 5.4314,5.4314 2.29101,1.96373 4.78647,3.67755 7.24186,5.4314 3.54123,2.52944 7.13115,5.00287 10.8628,7.24187 1.15714,0.69428 2.49813,1.06193 3.62094,1.81046 1.42025,0.94683 2.41395,2.41396 3.62093,3.62094 2.41396,2.41395 4.82791,4.82791 7.24187,7.24186 1.20698,1.20698 2.20069,2.67411 3.62093,3.62094 1.12281,0.74853 2.66674,0.85626 3.62094,1.81046 0.42673,0.42674 -0.26989,1.27069 0,1.81047 0.38168,0.76336 1.20697,1.20698 1.81046,1.81047 2.28409,2.28409 5.35013,4.71955 7.24187,7.24186 0.80967,1.07956 0.85627,2.66674 1.81047,3.62094 0.42673,0.42673 1.38373,-0.42673 1.81046,0 0.42673,0.42673 -0.26989,1.27069 0,1.81047 0.76336,1.52671 2.85758,2.09421 3.62094,3.62093 0.26989,0.53978 -0.42673,1.38373 0,1.81047 0.42673,0.42673 1.38373,-0.42674 1.81046,0 0.42673,0.42673 -0.42673,1.38373 0,1.81046 0.42673,0.42673 1.38374,-0.42673 1.81047,0 0.42673,0.42673 -0.26989,1.27069 0,1.81047 0.38168,0.76336 1.42879,1.04711 1.81047,1.81047 0.26989,0.53977 -0.42673,1.38373 0,1.81046 2.41395,2.41396 1.81046,-3.01744 1.81046,1.81047"
       id="path3003"
       inkscape:connector-curvature="0" />
    <path
       style="fill:none;stroke:#000000;stroke-width:1px;stroke-linecap:butt;stroke-linejoin:miter;stroke-opacity:1"
       d="m 465.28996,433.18255 c 1.20698,2.41396 1.40992,5.69416 3.62093,7.24187 4.22413,2.95689 9.59212,3.80086 14.48374,5.4314 7.78711,2.5957 15.89614,4.24047 23.53606,7.24186 24.15718,9.49032 24.6709,11.01587 43.45121,23.53607 4.09422,2.72949 13.81533,8.92011 18.10466,12.67327 2.56919,2.24804 4.82791,4.82791 7.24187,7.24187 1.81047,1.81046 3.76512,3.48741 5.4314,5.4314 1.96373,2.29101 3.46767,4.95085 5.4314,7.24186 1.66628,1.94399 3.94321,3.34793 5.4314,5.4314 0.0413,0.0579 7.14349,14.31157 7.24187,14.48374 3.82013,6.68523 4.25765,4.71535 7.24186,12.67327 1.74737,4.65964 2.04723,9.76261 3.62094,14.48373 0.42673,1.28019 1.38373,2.34074 1.81047,3.62093 0.19084,0.57252 -0.26989,1.27069 0,1.81047 0.38168,0.76336 1.29838,1.1277 1.81046,1.81047 1.30555,1.74073 2.41396,3.62093 3.62094,5.4314 3.01744,3.62093 6.10789,7.18225 9.05233,10.8628 1.88498,2.35623 3.46767,4.95085 5.4314,7.24187 1.17977,1.37639 10.65408,11.05791 12.67327,12.67326 1.6991,1.35928 3.62093,2.41396 5.4314,3.62094 3.18793,2.12528 5.57288,4.03961 9.05233,5.4314 1.77191,0.70876 3.72448,0.957 5.4314,1.81046 0.76336,0.38168 1.01805,1.4935 1.81047,1.81047 2.31028,0.92411 4.84935,1.12689 7.24187,1.81047 1.83497,0.52427 3.54896,1.49672 5.4314,1.81046 1.78583,0.29764 3.62093,0 5.4314,0 6.03488,0 12.06977,0 18.10466,0"
       id="path3005"
       inkscape:connector-curvature="0" />
    <path
       style="fill:none;stroke:#000000;stroke-width:1px;stroke-linecap:butt;stroke-linejoin:miter;stroke-opacity:1"
       d="m 401.92362,590.69316 c -1.81047,2.41395 -4.08196,4.54298 -5.4314,7.24187 -0.14163,0.28326 0,8.54617 0,9.05233 0,6.03489 0,12.06978 0,18.10467 0,4.22442 0,8.44884 0,12.67326 0,0.60349 -0.42673,1.38374 0,1.81047 0.42673,0.42673 1.81047,-0.60349 1.81047,0 0,0.60349 -2.41396,0 -1.81047,0 3.62093,0 7.24187,0 10.8628,0 0.81536,0 4.88041,0.27549 5.4314,0 0.76336,-0.38168 1.20698,-1.20698 1.81047,-1.81047 0.60349,-0.60348 1.42879,-1.0471 1.81047,-1.81046 0.53977,-1.07956 -0.53978,-2.54138 0,-3.62094 0.38167,-0.76336 1.42878,-1.0471 1.81046,-1.81046 0.48181,-0.96361 -0.4818,-2.65733 0,-3.62094 0.38168,-0.76336 1.42879,-1.0471 1.81047,-1.81046 0.72419,-1.44838 -0.72419,-3.98303 0,-5.4314 0.38168,-0.76336 1.42879,-1.04711 1.81047,-1.81047 0.23404,-0.4681 0,-9.57954 0,-10.8628"
       id="path3007"
       inkscape:connector-curvature="0" />
  </g>
</svg>
