<?xml version="1.0" encoding="UTF-8" standalone="no"?>
<!-- Created with Inkscape (http://www.inkscape.org/) -->

<svg
   xmlns:dc="http://purl.org/dc/elements/1.1/"
   xmlns:cc="http://creativecommons.org/ns#"
   xmlns:rdf="http://www.w3.org/1999/02/22-rdf-syntax-ns#"
   xmlns:svg="http://www.w3.org/2000/svg"
   xmlns="http://www.w3.org/2000/svg"
   xmlns:sodipodi="http://sodipodi.sourceforge.net/DTD/sodipodi-0.dtd"
   xmlns:inkscape="http://www.inkscape.org/namespaces/inkscape"
   width="210mm"
   height="297mm"
   id="svg2"
   version="1.1"
   inkscape:version="0.92.1 r15371"
   sodipodi:docname="fiufiu-pulou-e-correu.svg"
   inkscape:export-filename="/home/fredm/projetos/o-rato-anderson/um-dia-este-rato-encontrou-uma-rata.png"
   inkscape:export-xdpi="90"
   inkscape:export-ydpi="90"
   viewBox="0 0 744.09449 1052.3622">
  <defs
     id="defs4" />
  <sodipodi:namedview
     id="base"
     pagecolor="#ffffff"
     bordercolor="#666666"
     borderopacity="1.0"
     inkscape:pageopacity="0.0"
     inkscape:pageshadow="2"
     inkscape:zoom="0.36914063"
     inkscape:cx="269.24216"
     inkscape:cy="730.43969"
     inkscape:document-units="mm"
     inkscape:current-layer="layer1"
     showgrid="false"
     inkscape:window-width="782"
     inkscape:window-height="707"
     inkscape:window-x="107"
     inkscape:window-y="31"
     inkscape:window-maximized="0" />
  <metadata
     id="metadata7">
    <rdf:RDF>
      <cc:Work
         rdf:about="">
        <dc:format>image/svg+xml</dc:format>
        <dc:type
           rdf:resource="http://purl.org/dc/dcmitype/StillImage" />
        <dc:title />
      </cc:Work>
    </rdf:RDF>
  </metadata>
  <g
     inkscape:label="Camada 1"
     inkscape:groupmode="layer"
     id="layer1">
    <path
       style="fill:none;fill-rule:evenodd;stroke:#000000;stroke-width:0.9375px;stroke-linecap:butt;stroke-linejoin:miter;stroke-opacity:1"
       d="m 53.333333,798.39396 c 3.65197,-2.34897 0.624466,-12.26817 5.079364,-15.2381 1.408763,-0.93918 3.670603,0.93918 5.079366,0 1.542096,-3.0842 2.170705,-5.67994 5.079365,-7.61904 1.575044,-1.05004 3.50432,-1.48966 5.079364,-2.53969 0.996146,-0.6641 1.543538,-1.87558 2.539683,-2.53968 1.575044,-1.05004 3.740835,-1.20115 5.079366,-2.53969 1.338529,-1.33852 1.403901,-3.56499 2.539682,-5.07936 2.154991,-2.87333 5.626756,-4.63062 7.619047,-7.61905 1.05003,-1.57504 1.201152,-3.74084 2.53968,-5.07936 0.598613,-0.59861 1.782497,0.37859 2.539688,0 1.070821,-0.53542 1.693115,-1.69313 2.539678,-2.53969 0.846562,-0.84655 1.875594,-1.54354 2.539684,-2.53968 1.05003,-1.57504 1.20116,-3.74083 2.53968,-5.07936 1.33854,-1.33854 3.50432,-1.48965 5.07937,-2.53968 2.31191,-1.54128 5.36803,-6.49355 7.61904,-7.61905 0.75719,-0.3786 1.94108,0.59861 2.53969,0 0.59861,-0.59861 -0.37859,-1.7825 0,-2.53968 0.53541,-1.07083 1.69312,-1.69313 2.53968,-2.53969 0.84656,-0.84656 1.54353,-1.87558 2.53968,-2.53968 1.57505,-1.05003 3.74084,-1.20115 5.07937,-2.53969 0.5986,-0.5986 -0.2677,-1.73656 0,-2.53967 0.5986,-1.79583 1.48965,-3.50432 2.53968,-5.07937 1.32819,-1.99229 3.75117,-3.08707 5.07936,-5.07937 1.05003,-1.57504 1.20116,-3.74083 2.53969,-5.07936 0.5986,-0.59861 1.94108,0.59861 2.53968,0 0.59861,-0.59861 0,-1.69313 0,-2.53968 0,-0.84656 0,-1.69312 0,-2.53969 0,-10.15873 0,-20.31746 0,-30.47619 0,-15.23809 0,-30.47618 0,-45.71428 0,-9.4133 -0.52408,-18.7452 2.53969,-27.93651 0.96522,-2.89568 3.71432,-4.88897 5.07936,-7.61904 0.37859,-0.75719 -0.20532,-1.7184 0,-2.53969 0.64928,-2.59713 1.34246,-5.22461 2.53968,-7.61904 0.53542,-1.07083 1.87558,-1.54354 2.53969,-2.53969 1.05003,-1.57505 1.48965,-3.50432 2.53968,-5.07937 0.66409,-0.99614 2.00427,-1.46885 2.53967,-2.53967 0.3786,-0.75719 -0.37859,-1.7825 0,-2.53969 0.53542,-1.07082 1.69313,-1.69312 2.53969,-2.53968 0.84656,-0.84656 1.69313,-1.69312 2.53968,-2.53969 1.98371,-1.9837 5.42756,-6.15805 7.61905,-7.61904 1.57504,-1.05003 3.50432,-1.48965 5.07937,-2.53968 0.99614,-0.6641 1.54354,-1.87559 2.53968,-2.53969 1.57504,-1.05002 3.50432,-1.48965 5.07936,-2.53967 0.99615,-0.6641 1.54354,-1.8756 2.53969,-2.53969 1.57504,-1.05003 3.38624,-1.69313 5.07937,-2.53968 1.69311,-0.84656 3.28353,-1.94108 5.07935,-2.53969 1.59404,-0.53134 8.1142,0 10.15873,0 5.41382,0 16.33323,-1.44454 20.31747,2.53969 0.59861,0.5986 -0.3786,1.7825 0,2.53968 1.1255,2.25102 6.07777,5.30714 7.61904,7.61905 1.05004,1.57504 2.08057,3.24292 2.53969,5.07936 0.41064,1.64257 0,3.38625 0,5.07936 0,3.38625 0,6.77249 0,10.15873 0,8.46561 0,16.93123 0,25.39683 0,0.93266 -0.1022,10.05653 0,10.15873 0.59861,0.59861 1.69312,0 2.53967,0 1.69313,0 3.67061,0.93917 5.07937,0 1.57505,-1.05002 1.83666,-3.32178 2.53969,-5.07936 0.99424,-2.4856 1.80423,-5.04499 2.53968,-7.61906 0.9589,-3.35615 1.16472,-6.95048 2.53968,-10.15872 1.20237,-2.80552 3.71433,-4.88898 5.07937,-7.61905 1.19721,-2.39443 1.16234,-5.32348 2.53968,-7.61904 1.23193,-2.05321 3.6427,-3.16382 5.07936,-5.07937 1.13578,-1.51437 1.69313,-3.38624 2.53969,-5.07937 0.84655,-1.69312 1.69312,-3.38624 2.53968,-5.07936 1.69312,-3.38624 3.6733,-6.64358 5.07936,-10.15873 2.06505,-5.16263 2.10136,-8.23141 5.07937,-12.69841 0.6641,-0.99615 1.69312,-1.69313 2.53968,-2.53969 0.84656,-1.69311 1.48966,-3.50432 2.53968,-5.07936 1.3282,-1.9923 4.00854,-2.93772 5.07937,-5.07937 0.37859,-0.75718 -0.3786,-1.78249 0,-2.53968 0.6782,-1.3564 6.28199,-6.28199 7.61904,-7.61904 4.23281,-4.23281 8.46561,-8.46562 12.69841,-12.69842 1.69313,-1.69312 3.64272,-3.16382 5.07937,-5.07937 1.13578,-1.51437 1.69312,-3.38624 2.53969,-5.07936 2.53967,-2.53968 5.37536,-4.81444 7.61904,-7.61905 2.36506,-2.95632 2.40231,-7.48167 5.07937,-10.15873 1.33853,-1.33852 3.50431,-1.48965 5.07936,-2.53968 3.73707,-2.49138 6.42166,-7.66735 10.15873,-10.15873 1.57505,-1.05002 3.74083,-1.20115 5.07937,-2.53968 0.59861,-0.59861 -0.59861,-1.94108 0,-2.53968 0.59861,-0.59861 1.94107,0.5986 2.53968,0 1.33853,-1.33854 1.48966,-3.50432 2.53968,-5.07937 0.6641,-0.99615 2.00428,-1.46885 2.53968,-2.53969 0.3786,-0.75718 -0.37859,-1.78248 0,-2.53967 0.53542,-1.07083 1.82136,-1.58191 2.53969,-2.53969 1.83139,-2.44185 3.24797,-5.17719 5.07937,-7.61904 0.71833,-0.95777 1.87558,-1.54354 2.53967,-2.53968 3.1501,-4.72514 4.69728,-10.36848 7.61906,-15.2381 0.84655,-0.84656 1.69311,-1.69312 2.53967,-2.53969 0.84657,0 1.94108,0.59862 2.53969,0 0.59861,-0.5986 -0.26771,-1.73656 0,-2.53968 0.59861,-1.79582 1.48965,-3.50431 2.53968,-5.07936 -0.25352,-5.03126 3.74083,-1.20115 5.07937,-2.53969 9.91171,-9.9117 -0.58788,-1.36393 2.53967,-7.61904 0.53542,-1.07082 1.87559,-1.54354 2.53969,-2.53968 1.05003,-1.57505 1.20115,-3.74084 2.53968,-5.07937 1.33853,-1.33853 3.50433,-1.48966 5.07937,-2.53968 1.99229,-1.3282 3.08707,-3.75118 5.07936,-5.07937 1.57505,-1.05003 3.74084,-1.20115 5.07937,-2.53968 1.33853,-1.33853 1.48965,-3.50432 2.53968,-5.07936 0.6641,-0.99615 2.00427,-1.46886 2.53968,-2.53969 0.37859,-0.75718 -0.2677,-1.73656 0,-2.53968 0.59861,-1.79583 1.94108,-3.28354 2.53969,-5.07936 0.2677,-0.80312 -0.3786,-1.7825 0,-2.53968 0.53541,-1.07083 1.69312,-1.69313 2.53968,-2.53969 0.84656,-0.84656 1.69312,-1.69312 2.53968,-2.53968 0.84656,-0.84656 1.4039,-2.16109 2.53968,-2.53969 1.60624,-0.5354 3.565,0.7572 5.07937,0 0.75719,-0.37859 -0.75719,-2.16108 0,-2.53967 5.22246,-2.61124 7.61904,4.31597 7.61904,-2.53969 0,-0.84656 0,-1.69312 0,-2.53968"
       id="path60"
       inkscape:connector-curvature="0" />
    <path
       style="fill:none;fill-rule:evenodd;stroke:#000000;stroke-width:0.9375px;stroke-linecap:butt;stroke-linejoin:miter;stroke-opacity:1"
       d="m 279.36507,651.09237 c 5.4836,-3.59312 12.02879,1.43725 17.77779,0 1.83644,-0.45911 3.28353,-1.94107 5.07936,-2.53969 0.80312,-0.2677 1.78249,0.3786 2.53968,0 1.07082,-0.5354 1.46886,-2.00427 2.53969,-2.53967 0.75718,-0.3786 1.78248,0.37859 2.53968,0 1.3564,-0.67821 6.28199,-6.282 7.61904,-7.61906 1.69312,-1.69311 4.1901,-2.85618 5.07936,-5.07936 0.94322,-2.35803 -0.49806,-5.12868 0,-7.61905 2.04401,-10.21998 1.85328,-1.16686 5.07937,-7.61904 0.45356,-0.90712 0,-14.65024 0,-15.2381 0,-5.07936 0,-10.15873 0,-15.23809 0,-0.84657 0.59861,-1.94108 0,-2.53968 -0.5986,-0.59861 -1.69312,0 -2.53968,0 -0.84656,0 -1.69312,0 -2.53969,0 -10.15873,0 -20.31745,0 -30.47618,0 -1.76646,0 -11.77998,-0.45923 -12.69842,0 -10.56954,5.28477 2.71502,-0.17533 -2.53968,5.07935 -0.59861,0.59862 -1.69312,0 -2.53968,0 0,1.69313 0.41064,3.4368 0,5.07937 -0.45911,1.83645 -1.69312,3.38625 -2.53968,5.07937 -0.84656,1.69312 -1.48965,3.50432 -2.53968,5.07936 -0.6641,0.99615 -2.00427,1.46886 -2.53969,2.53969 -0.75719,1.51437 1.19722,3.88214 0,5.07936 -0.59861,0.59861 -2.16109,-0.75719 -2.53968,0 -0.75719,1.51438 0,3.38625 0,5.07937 0,1.69312 0,3.38624 0,5.07937 0,4.2328 0,8.4656 0,12.69841 0,0.84656 0.59861,1.94107 0,2.53967 -0.59861,0.59862 -1.8353,-0.46958 -2.53968,0 -11.56136,11.56137 1.05197,1.34248 -10.15873,5.07937 -9.41488,3.13829 3.09575,2.53969 -5.07937,2.53969 -5.07937,0 -10.15873,0 -15.23809,0 -2.53969,0 -5.07936,0 -7.61905,0 -0.84656,0 -1.73656,-0.26772 -2.53968,0 -1.79583,0.5986 -3.38625,1.69311 -5.07936,2.53967 -1.69313,0.84657 -3.50433,1.48966 -5.07937,2.53969 -0.99615,0.6641 -1.69313,1.69312 -2.53969,2.53968 -0.84656,0.84656 -2.00427,1.46886 -2.53968,2.53969 -0.36343,0.72686 0,11.34168 0,12.69841 0,0.84656 -0.75719,2.16108 0,2.53968 6.33175,3.16587 8.56924,-5.55446 12.69841,-7.61905 0.75719,-0.37859 1.7825,0.37859 2.53969,0 1.07082,-0.53541 1.46886,-2.00427 2.53968,-2.53968 0.66779,-0.3339 8.83068,0 10.15873,0 12.66185,0 10.65646,0 22.85714,0 0.61595,0 7.53737,-0.0816 7.61905,0 0.59861,0.59861 -0.26771,1.73656 0,2.53968 0.59861,1.79583 1.94107,3.28354 2.53968,5.07937 0.26771,0.80312 0,1.69312 0,2.53968 0,7.5 0,6.40873 0,10.15873 0,1.69312 0,3.38625 0,5.07936 0,0.84656 -0.75719,2.16109 0,2.53969 2.27156,1.13578 5.07937,0 7.61905,0 0.84656,0 2.53968,-0.84656 2.53968,0 0,0.84656 -3.38624,0 -2.53968,0 3.38625,0 6.77249,0 10.15873,0 9.31217,0 18.62433,0 27.9365,0 13.54498,0 27.08996,0 40.63493,0 3.38624,0 6.77249,0 10.15873,0 0.84656,0 2.53968,-0.84656 2.53968,0 0,0.84656 -3.38624,0 -2.53968,0 1.69312,0 3.38624,0 5.07937,0 0.84656,0 1.94107,0.5986 2.53967,0 0.59862,-0.59861 0,-1.69313 0,-2.53969 0,-0.84656 0,-1.69311 0,-2.53968 0,-14.39153 -1.69311,-0.84656 2.53969,-5.07936 1.37837,-1.37837 -2.86886,-7.45447 2.53968,-10.15873 0.75719,-0.37859 1.69312,0 2.53969,0 0.84655,0 1.94106,-0.59862 2.53968,0 1.72527,1.72527 -2.59678,5.05082 2.53968,7.61904 0.75718,0.3786 1.73656,-0.2677 2.53968,0 18.39598,6.132 -4.00408,-0.7322 7.61904,5.07937 1.51439,0.75719 3.88215,-1.19722 5.07937,0 0.59861,0.59861 -0.5986,1.94107 0,2.53968 0.20393,0.20393 10.6994,0 12.69842,0 0.84656,0 1.94107,-0.59861 2.53968,0 0.59861,0.59861 -0.37859,1.7825 0,2.53968 2.80769,5.61538 1.57623,0.78812 5.07936,2.53969 10.56956,5.28477 -2.71501,-0.17533 2.53969,5.07937 0.5986,0.5986 1.94107,-0.59862 2.53968,0 1.19721,1.19721 -0.75719,3.56498 0,5.07936 0.53541,1.07082 2.00427,1.46886 2.53968,2.53968 0.3786,0.75719 -0.59861,1.94107 0,2.53968 0.59861,0.59861 1.78249,-0.37859 2.53968,0 1.07083,0.53541 1.46886,2.00427 2.53968,2.53968 0.94362,0.47181 15.61111,0 17.77779,0 0.9678,0 12.4519,0.24651 12.69841,0 0.0634,-0.0634 0,-11.7443 0,-12.69841 0,-6.77249 0,-13.54498 0,-20.31746 0,-0.84656 0.59861,-1.94107 0,-2.53969 -0.59862,-0.5986 -1.7825,0.3786 -2.53968,0 -1.07083,-0.5354 -1.46887,-2.00426 -2.53969,-2.53967 -1.54215,-0.77108 -13.69594,0.77107 -15.2381,0 -1.07082,-0.53542 -1.46885,-2.00427 -2.53968,-2.53969 -0.75719,-0.37859 -1.94107,0.59861 -2.53968,0 -0.59861,-0.5986 0.3786,-1.78249 0,-2.53968 -0.53541,-1.07082 -1.69312,-1.69312 -2.53968,-2.53968 -0.84656,-2.53968 -1.34246,-5.22461 -2.53969,-7.61905 -0.5354,-1.07082 -1.69311,-1.69312 -2.53968,-2.53968 -0.84656,-0.84656 -1.46885,-2.00427 -2.53968,-2.53969 -0.75719,-0.37859 -1.94107,0.59862 -2.53968,0 -0.59861,-0.5986 0,-1.69311 0,-2.53967 0,-0.93267 -0.1022,-10.05654 0,-10.15873 0.59861,-0.59862 1.73657,0.2677 2.53968,0 1.79582,-0.59862 3.28354,-1.94108 5.07936,-2.53969 2.28572,-0.7619 5.33334,0.7619 7.61905,0 1.13579,-0.37859 1.46886,-2.00426 2.53968,-2.53968 1.49847,-0.74923 5.87217,0.58229 7.61906,0 1.79582,-0.59861 3.28353,-1.94108 5.07936,-2.53969 1.60624,-0.5354 3.56499,0.75719 5.07937,0 1.07082,-0.5354 1.46885,-2.00426 2.53968,-2.53968 1.51437,-0.75719 3.56499,0.75719 5.07936,0 1.07082,-0.53541 1.46886,-2.00427 2.53968,-2.53967 0.75719,-0.3786 1.7825,0.37859 2.53969,0 2.25101,-1.12552 5.30713,-6.07778 7.61904,-7.61906 2.2889,-5.0421 7.03677,-0.9787 10.15873,-2.53968 3.21248,-1.60623 5.07937,-5.07936 7.61905,-7.61905 4.23281,-4.2328 8.46561,-8.4656 12.69841,-12.69841 0.84657,-0.84656 1.87559,-1.54354 2.53968,-2.53969 1.05004,-1.57503 1.69313,-3.38624 2.53969,-5.07935 0.84656,-1.69313 1.94107,-3.28355 2.53968,-5.07937 0.53541,-1.60623 0,-3.38625 0,-5.07936 0,-4.23281 0,-8.46562 0,-12.69842 0,-2.16667 0.47181,-16.83415 0,-17.77778 -0.53541,-1.07082 -2.00427,-1.46885 -2.53968,-2.53967 -3.88436,-7.76872 14.70963,5.77815 -7.61905,-7.61906 -1.62321,-0.97392 -3.74083,-1.20115 -5.07936,-2.53968 -1.33853,-1.33853 -1.20115,-3.74084 -2.53969,-5.07936 -1.19721,-1.19722 -3.88215,1.19721 -5.07936,0 -5.2547,-5.2547 8.02986,0.2054 -2.53968,-5.07937 -0.92478,-0.46239 -10.15873,0.4453 -10.15873,0 0,-1.00432 3.56746,-0.48412 5.07936,2.53968 0.37859,0.75719 -0.3786,1.7825 0,2.53969 0.53541,1.07082 2.00428,1.46885 2.53968,2.53968 0.37859,0.75719 -0.5986,1.94107 0,2.53968 0.59861,0.59861 1.94108,-0.59861 2.53969,0 0.5986,0.59861 -0.3786,1.7825 0,2.53968 0.53541,1.07082 1.69311,1.69313 2.53968,2.53969 0,1.69312 -0.53542,3.47313 0,5.07937 0.37859,1.13578 2.00427,1.46885 2.53968,2.53967 0.75719,1.51438 -0.75719,3.565 0,5.07937 0.53541,1.07082 2.00427,1.46886 2.53968,2.53968 0.38646,0.77291 0,6.47528 0,7.61905 0,5.92593 0,11.85185 0,17.77778 0,1.14376 0.38646,6.84614 0,7.61905 -0.53541,1.07082 -2.00427,1.46885 -2.53968,2.53968 -0.3786,0.75719 0.59861,1.94107 0,2.53967 -0.59861,0.59862 -1.78249,-0.37859 -2.53968,0 -2.14165,1.07084 -2.93772,4.00855 -5.07937,5.07937 -0.75718,0.3786 -1.69311,0 -2.53968,0 -0.84656,0 -1.69312,0 -2.53968,0 -4.23281,0 -8.46561,0 -12.69841,0 -0.84657,0 -1.7825,-0.37859 -2.53969,0 -1.07082,0.53542 -1.46886,2.00427 -2.53968,2.53969 -1.51437,0.75718 -3.88215,-1.19722 -5.07936,0 -0.59862,0.5986 0.59861,1.94107 0,2.53968 -1.33854,1.33853 -3.74084,1.20115 -5.07937,2.53968 -0.59861,0.59861 0.37859,1.7825 0,2.53968 -1.07082,2.14165 -3.75117,3.08708 -5.07937,5.07937 -1.05002,1.57504 -1.48965,3.50432 -2.53967,5.07936 -0.6641,0.99615 -2.00428,1.46886 -2.53969,2.53969 -0.37859,0.75718 0.59861,1.94107 0,2.53968 -0.5986,0.59861 -1.94108,-0.59861 -2.53968,0 -0.59861,0.59861 0.37859,1.7825 0,2.53969 -1.52381,3.04761 -6.09524,4.57142 -7.61905,7.61904 -0.37859,0.75719 0.59861,1.94107 0,2.53968 -0.59861,0.59861 -1.69312,0 -2.53968,0 -0.84656,0 -2.53969,0.84656 -2.53969,0 0,-0.84656 3.38625,0 2.53969,0 -7.5,0 -6.40873,0 -10.15873,0 -13.32345,0 -13.3272,0 -27.93651,0 -4.00755,0 -15.04822,0.54591 -17.77777,0 -1.85622,-0.37124 -3.3218,-1.83665 -5.07937,-2.53968 -2.48559,-0.99424 -5.02192,-1.8904 -7.61905,-2.53969 -0.82128,-0.20531 -1.69312,0 -2.53968,0 -1.69313,0 -3.38624,0 -5.07937,0 -3.38624,0 -6.77249,0 -10.15873,0 -1.14377,0 -6.84613,-0.38644 -7.61904,0 -0.67432,0.33716 -7.28189,6.94474 -7.61905,7.61906 -0.37859,0.75718 0.59861,1.94107 0,2.53967 -0.59861,0.59862 -1.7825,-0.37859 -2.53968,0 -1.07083,0.53542 -1.40391,2.1611 -2.53969,2.53969 -2.40936,0.80312 -5.07937,0 -7.61904,0 -3.38624,0 -6.77249,0 -10.15873,0 -0.84657,0 -2.53968,0.84656 -2.53968,0 0,-0.84656 2.53968,-0.84656 2.53968,0 0,0.84656 -1.69313,0 -2.53968,0 -1.69313,0 -3.38625,0 -5.07937,0 -0.84656,0 -1.94107,-0.59861 -2.53969,0 -0.5986,0.5986 0.59862,1.94108 0,2.53968 -0.5986,0.59861 -1.94107,-0.5986 -2.53967,0 -0.59862,0.59861 0.5986,1.94107 0,2.53969 -0.59862,0.5986 -1.7825,-0.3786 -2.53969,0 -1.07082,0.5354 -1.46886,2.00427 -2.53968,2.53967 -5.91021,2.95511 1.14281,-7.36499 -5.07936,5.07937"
       id="path62"
       inkscape:connector-curvature="0" />
    <path
       style="fill:none;fill-rule:evenodd;stroke:#000000;stroke-width:0.9375px;stroke-linecap:butt;stroke-linejoin:miter;stroke-opacity:1"
       d="m 581.58729,524.10824 c 11.67311,5.83656 6.3728,5.07937 15.2381,5.07937 0.84656,0 1.73656,0.26771 2.53968,0 7.25624,-2.41874 3.74905,-1.81406 7.61905,-7.61905 0.6641,-0.99615 1.87558,-1.54353 2.53968,-2.53968 1.05003,-1.57504 1.48965,-3.50432 2.53969,-5.07937 0.66409,-0.99614 2.00426,-1.46886 2.53968,-2.53968 0.37859,-0.75719 -0.26771,-1.73657 0,-2.53968 0.59861,-1.79582 1.94107,-3.28354 2.53968,-5.07936 0.53541,-1.60624 -0.53541,-3.47313 0,-5.07937 0.59861,-1.79583 2.08057,-3.24291 2.53968,-5.07936 0.41064,-1.64258 0,-3.38625 0,-5.07937 0,-5.07937 0,-10.15873 0,-15.2381 0,-4.2328 0,-8.4656 0,-12.69841 0,-0.84656 0.59861,-1.94107 0,-2.53968 -1.19721,-1.19722 -3.47313,0.53541 -5.07936,0 -1.79583,-0.59861 -3.28354,-1.94108 -5.07937,-2.53968 -1.60624,-0.53542 -3.38624,0 -5.07937,0 -5.92592,0 -11.85184,0 -17.77777,0 -1.32805,0 -9.49094,-0.3339 -10.15873,0 -2.14165,1.07082 -2.93771,4.00853 -5.07937,5.07936 -0.75718,0.3786 -1.94107,-0.59861 -2.53968,0 -0.30785,0.30786 0.26068,4.03666 0,5.07937 -0.64928,2.59713 -1.8904,5.02192 -2.53968,7.61904 -0.20533,0.82129 0,1.69313 0,2.53968 0,1.69313 0,3.38625 0,5.07937 0,7.61905 0,15.23809 0,22.85715 0,4.2328 0,8.4656 0,12.69841 0,1.10107 0,6.18044 0,5.07936 0,-2.07617 0.42906,-16.49058 0,-17.77777 -0.37859,-1.13578 -2.00428,-1.46887 -2.53968,-2.53969 -1.19723,-2.39443 -1.05472,-5.3916 -2.53969,-7.61904 -0.46958,-0.70438 -1.94107,0.5986 -2.53968,0 -0.59861,-0.59862 0.26771,-1.73657 0,-2.53969 -0.59861,-1.79583 -1.20115,-3.74083 -2.53968,-5.07937 -0.59861,-0.5986 -1.94108,0.59862 -2.53968,0 -1.33854,-1.33852 -1.20116,-3.74083 -2.53969,-5.07936 -0.5986,-0.59861 -1.78249,0.3786 -2.53968,0 -1.07082,-0.53541 -1.46885,-2.00426 -2.53969,-2.53968 -1.00695,-0.50348 -7.09983,0.51921 -7.61904,0 -4.2328,-4.2328 9.31217,-2.53969 -5.07936,-2.53969 -0.61594,0 -7.53737,0.0817 -7.61905,0 -0.59861,-0.5986 0.5986,-1.94106 0,-2.53968 -3.81026,-3.81026 -10.42084,-2.53967 -15.2381,-2.53967 -1.14376,0 -6.84614,-0.38646 -7.61904,0 -1.07083,0.5354 -1.69312,1.69311 -2.53969,2.53967 -0.84656,0.84657 -2.24931,1.37821 -2.53967,2.53968 -0.82129,3.28514 0,6.77249 0,10.15873 0,6.77249 0,13.54498 0,20.31747 0,0.84656 0,1.69312 0,2.53968 0,0.84656 -0.3786,1.78249 0,2.53968 0.80884,1.6177 10.7028,10.70281 12.6984,12.69841 1.33706,1.33705 6.26265,6.94085 7.61905,7.61905 1.51438,0.75719 3.56499,-0.75719 5.07936,0 1.07083,0.53541 1.46886,2.00428 2.53969,2.53968 1.51437,0.75719 3.56499,-0.75718 5.07937,0 1.07082,0.53542 1.46885,2.00427 2.53968,2.53969 1.75424,0.87711 11.80693,-0.89148 12.6984,0 0.59862,0.5986 0,1.69311 0,2.53968 0,4.2328 0,8.4656 0,12.69841 0,14.22554 0,16.1808 0,33.01588 0,2.64108 0.49945,13.24033 0,15.23809 -0.45911,1.83645 -1.20114,3.74084 -2.53967,5.07936 -0.59862,0.59861 -1.94108,-0.5986 -2.53968,0 -1.19723,1.19723 0.75718,3.56499 0,5.07937 -0.33716,0.67431 -6.94474,7.28189 -7.61905,7.61905 -0.75719,0.37859 -1.94108,-0.59861 -2.53968,0 -0.59862,0.5986 0.5986,1.94107 0,2.53968 -0.59862,0.59861 -2.53969,0.84656 -2.53969,0 0,-0.84656 2.53969,-0.84656 2.53969,0 0,0.99181 -4.7588,2.86025 -2.53969,5.07936 1.19722,1.19722 3.56499,-0.75719 5.07937,0 2.14165,1.07083 2.93772,4.00855 5.07936,5.07937 1.51437,0.75719 3.47313,-0.53542 5.07937,0 1.79582,0.59861 3.28353,1.94107 5.07936,2.53968 1.43289,0.47763 5.9502,0 7.61905,0 0.84656,0 1.69312,0 2.53968,0 0.84657,0 2.16109,0.75719 2.53968,0 0.75719,-1.51437 0,-3.38624 0,-5.07937 0,-3.38624 0,-6.77248 0,-10.15872 0,-1.69313 0,-3.38625 0,-5.07937 0,-0.84656 -0.37859,-1.78249 0,-2.53968 0.53542,-1.07082 2.24932,-1.37821 2.53969,-2.53968 0.61596,-2.46385 0,-5.07937 0,-7.61905 0,-5.92592 0,-11.85185 0,-17.77778 0,-7.5 0,-6.40873 0,-10.15873 0,-0.84656 0,-1.69312 0,-2.53968 0,-0.84656 -0.59861,-1.94107 0,-2.53969 0.5192,-0.51919 6.61208,0.50349 7.61904,0 1.07082,-0.5354 1.46886,-2.00427 2.53969,-2.53967 0.77291,-0.38646 6.47528,0 7.61904,0 5.92593,0 11.85186,0 17.77778,0 0.61595,0 7.53738,0.0817 7.61905,0 0.59861,-0.59862 0,-1.69313 0,-2.53969 0.84656,0 1.7825,0.3786 2.53968,0 2.91154,-1.45577 3.53273,-5.29908 5.07937,-7.61905 0.66409,-0.99615 2.00427,-1.46885 2.53968,-2.53968 0.37859,-0.75718 -0.3786,-1.78249 0,-2.53968 0.53541,-1.07082 2.16109,-1.40391 2.53968,-2.53968 1.60624,-2.27903 -0.80312,-5.2097 0,-7.61905 2.89477,-8.6843 2.1065,-1.88991 7.61905,-10.15873 0.46959,-0.70438 -0.46959,-1.8353 0,-2.53968 1.32819,-1.99229 3.38625,-3.38625 5.07936,-5.07937 0.84656,-0.84656 2.00427,-1.46885 2.53969,-2.53968 0.75718,-1.51438 -1.19722,-3.88215 0,-5.07937 0.5986,-0.5986 1.7825,0.3786 2.53968,0 5.61538,-2.80768 0.78812,-1.57623 2.53968,-5.07936 1.07083,-2.14165 3.64271,-3.16382 5.07937,-5.07936 1.83139,-2.44186 3.24797,-5.1772 5.07937,-7.61906 1.43665,-1.91554 4.00853,-2.93771 5.07936,-5.07936 1.75156,-3.50313 -3.0757,-2.27168 2.53968,-5.07937 0.77291,-0.38645 6.47528,0 7.61904,0 0.84657,0 1.94108,-0.5986 2.53969,0 0.20393,0.20394 0,10.6994 0,12.69842 0,1.69312 0,3.38624 0,5.07937 0,0.84655 0.84656,2.53968 0,2.53968 -0.84656,0 0,-3.38624 0,-2.53968 0,5.07936 0,10.15872 0,15.23809 0,0.84656 0,1.69312 0,2.53968 0,5.07937 0,10.15873 0,15.2381 0,0.84655 -0.59861,1.94107 0,2.53968 0.5986,0.59861 1.69313,0 2.53968,0 1.69312,0 3.38625,0 5.07936,0 1.69313,0 3.38625,0 5.07937,0 1.69312,0 3.56499,0.75719 5.07937,0 6.22073,-3.11036 4.16441,-5.55255 7.61905,-10.15873 1.43665,-1.91555 3.75116,-3.08708 5.07935,-5.07937 2.62736,-3.94101 -4.31423,-1.6524 2.53969,-5.07936 0.75719,-0.3786 1.94108,0.59861 2.53968,0 0.59861,-0.59861 0,-1.69312 0,-2.53968 0,-4.23281 0,-8.46561 0,-12.69841 0,-8.46562 0,-16.93122 0,-25.39683 0,-3.38624 0.82129,-6.87359 0,-10.15873 -0.29036,-1.16147 -2.00426,-1.46886 -2.53968,-2.53968 -3.19872,-6.39744 9.64596,2.19783 -5.07936,-7.61905 -1.40877,-0.93917 -3.67061,0.93918 -5.07937,0 -1.99229,-1.3282 -3.08707,-3.75117 -5.07936,-5.07937 -1.40877,-0.93917 -3.88215,1.19722 -5.07937,0 -0.5986,-0.5986 0.3786,-1.7825 0,-2.53968 -1.5238,-3.04762 -6.09524,-4.57142 -7.61904,-7.61905 -2.03879,-4.07757 -2.73385,-8.78921 -5.07937,-12.69841 -0.43555,-0.72591 -2.16109,0.75719 -2.53969,0 -1.56097,-3.12196 -0.97869,-7.03677 -2.53968,-10.15873 -0.37859,-0.75718 -1.94107,0.59861 -2.53968,0 -0.003,-0.003 0.004,-7.60753 0,-7.61904 -0.37859,-1.13579 -2.00427,-1.46886 -2.53968,-2.53969 -0.37859,-0.75718 0,-1.69312 0,-2.53968 0,-0.84656 0,-1.69312 0,-2.53969 0,-6.77248 0,-13.54497 0,-20.31745 0,-2.53969 0.80312,-5.2097 0,-7.61905 -0.2677,-0.80312 -2.41996,0.83805 -2.53968,0 -1.05453,-7.38166 2.35032,-18.06181 -2.53969,-25.39682 -0.46958,-0.70438 -1.78249,0.37859 -2.53967,0 -10.56956,-5.28478 2.715,0.17532 -2.53969,-5.07937 -5.25469,-5.25469 0.20541,8.02987 -5.07937,-2.53969 -1.19721,-2.39443 -1.05471,-5.3916 -2.53968,-7.61904 -0.46959,-0.70438 -2.33436,0.82128 -2.53968,0 -0.82128,-3.28514 0,-6.77249 0,-10.15873 0,-0.84656 0.59861,-1.94108 0,-2.53969 -0.59861,-0.5986 -1.69312,0 -2.53968,0 -1.69313,-2.53968 -3.71433,-4.88897 -5.07937,-7.61904 -0.75719,-1.51437 1.19722,-3.88215 0,-5.07937 -0.59861,-0.59861 -1.69312,0 -2.53968,0 -0.84656,0 -2.16109,-0.75719 -2.53968,0 -1.13578,2.27157 0,5.07937 0,7.61905 0,2.98485 -0.57391,12.94247 0,15.23809 0.64928,2.59713 1.8904,5.02192 2.53968,7.61906 0.41064,1.64256 0,3.38624 0,5.07936 0,3.38624 0,6.77248 0,10.15872 0,2.53969 0,5.07937 0,7.61906 0,0.84656 -0.3786,1.78249 0,2.53968 0.53541,1.07083 2.16109,1.4039 2.53968,2.53968 0.21104,0.63312 -0.26162,12.43679 0,12.69841 0.59861,0.59861 1.94108,-0.5986 2.53968,0 1.69811,1.69811 -1.69811,3.38126 0,5.07937 1.33854,1.33853 3.74084,1.20115 5.07937,2.53969 0.59861,0.5986 -0.37859,1.78248 0,2.53967 1.07083,2.14166 3.75117,3.08708 5.07936,5.07937 2.10188,3.15281 4.25335,9.39433 5.07937,12.69841 0.41064,1.64257 0,3.38625 0,5.07936 0,5.07937 0,10.15874 0,15.2381 0,1.19746 0.1151,12.58331 0,12.69841 -0.59861,0.59861 -1.94108,-0.5986 -2.53968,0 -1.33853,1.33853 -1.48966,3.50433 -2.53969,5.07937 -3.88971,5.83458 -1.45066,-1.08902 -7.61904,5.07936 -0.59861,0.59861 0.5986,1.94108 0,2.53969 -1.26985,1.26983 -6.34921,-1.26984 -7.61905,0 -0.59861,0.5986 0.59861,1.94107 0,2.53968 -0.59861,0.59861 -1.94107,-0.59861 -2.53968,0 -0.59862,0.59861 0.59861,1.94107 0,2.53968 -0.59862,0.59861 -1.94108,-0.59861 -2.53969,0 -0.5986,0.59861 0.59861,1.94107 0,2.53968 -0.5986,0.59862 -1.94107,-0.59861 -2.53968,0 -0.59861,0.59862 0.37859,1.7825 0,2.53969 -1.56915,3.13829 -2.45202,2.53968 -5.07936,2.53968"
       id="path66"
       inkscape:connector-curvature="0" />
    <path
       style="fill:none;fill-rule:evenodd;stroke:#000000;stroke-width:0.9375px;stroke-linecap:butt;stroke-linejoin:miter;stroke-opacity:1"
       d="m 500.31745,211.7273 c -15.01967,-3.75492 -6.95748,0.99234 -12.69841,-7.61906 -1.32819,-1.99229 -4.00854,-2.93771 -5.07936,-5.07935 -0.3786,-0.75719 0,-1.69313 0,-2.53969 0,-2.53968 0.61596,-5.15519 0,-7.61904 -0.29037,-1.16148 -2.16109,-1.40391 -2.53969,-2.53969 0,-11.56135 1.19723,-0.14525 -2.53968,-7.61905 -0.38645,-0.77291 0,-6.47528 0,-7.61905 0,-4.2328 0,-8.4656 0,-12.69841 0,-3.38624 0,-6.77249 0,-10.15873 0,-0.84656 -0.75719,-2.16109 0,-2.53968 1.51437,-0.75719 3.38624,0 5.07937,0 0.6035,0 9.58951,-0.28461 10.15873,0 1.07082,0.53541 1.46886,2.00427 2.53968,2.53968 0.75719,0.37859 1.69312,0 2.53968,0 0.84656,0.84656 1.54354,1.87559 2.53968,2.53969 1.57505,1.05003 3.50432,1.48965 5.07937,2.53968 0.99614,0.66409 1.69312,1.69312 2.53968,2.53968 0.84656,0.84656 2.00427,1.46886 2.53968,2.53968 0.37859,0.75719 -0.59861,1.94108 0,2.53969 0.59862,0.5986 1.7825,-0.3786 2.53968,0 1.07083,0.53541 1.69313,1.69312 2.53969,2.53968 0.84656,0.84656 2.00427,1.46885 2.53968,2.53968 1.19722,2.39444 1.54545,5.13346 2.53969,7.61905 1.40606,3.51515 3.88214,6.56707 5.07936,10.15873 0.2677,0.80312 -0.3786,1.7825 0,2.53968 0.53541,1.07082 2.00427,1.46885 2.53968,2.53969 0.37859,0.75718 -0.37859,1.78248 0,2.53967 0.53541,1.07083 2.00427,1.46886 2.53969,2.53969 1.69311,3.38624 -2.53969,2.53968 2.53967,2.53968 5.92593,0 11.85186,0 17.77778,0 1.14377,0 6.84614,0.38646 7.61905,0 2.91154,-1.45577 3.53272,-5.29908 5.07937,-7.61904 1.32819,-1.99229 3.75117,-3.08708 5.07936,-5.07937 1.05003,-1.57505 1.20116,-3.74084 2.53968,-5.07937 9.91171,-9.9117 1.36393,0.58787 7.61906,-2.53968 1.07082,-0.53541 1.40389,-2.16109 2.53967,-2.53968 1.09539,-0.36513 16.78474,0 17.77778,0 10.15873,0 20.31746,0 30.47619,0 5.07937,0 0.84656,-0.84656 2.53968,2.53968 0.53542,1.07083 1.69313,1.69312 2.53969,2.53968 0.84656,0.84657 1.54354,1.87559 2.53968,2.53968 2.31997,1.54665 6.16328,2.16783 7.61905,5.07937 0.75718,1.51437 -1.19723,3.88215 0,5.07936 1.69311,0.84657 3.38624,1.69313 5.07936,2.53969 0,0.84655 -0.59861,1.94107 0,2.53968 0.1022,0.1022 9.22606,0 10.15873,0 0.84656,0 1.69312,0 2.53968,0 1.69313,0 3.88215,1.19722 5.07937,0 1.89296,-1.89296 1.34246,-5.22461 2.53968,-7.61904 0.53541,-1.07084 1.87559,-1.54354 2.53969,-2.53969 1.05002,-1.57505 1.20115,-3.74083 2.53967,-5.07937 1.33854,-1.33852 3.50433,-1.48965 5.07937,-2.53968 1.99229,-1.32819 2.93772,-4.00854 5.07936,-5.07936 0.7572,-0.37859 1.69313,0 2.53969,0 1.69312,-0.84656 3.50432,-1.48965 5.07937,-2.53969 2.3119,-1.54127 5.36802,-6.49354 7.61904,-7.61904 0.66779,-0.33389 8.83068,0 10.15873,0 3.38624,0 6.77248,0 10.15873,0 0.84657,0 2.53968,-0.84656 2.53968,0 0,0.84656 -2.53968,-0.84656 -2.53968,0 0,1.19721 2.00428,1.46885 2.53968,2.53968 0.33841,0.67682 0,14.08917 0,15.23809 0,2.07873 0.37155,14.495 0,15.2381 -0.37859,0.75719 -1.94107,-0.59861 -2.53968,0 -1.33853,1.33853 -1.48966,3.50432 -2.53968,5.07937 -0.84657,0.84656 -1.69312,1.69312 -2.53968,2.53967 -0.84656,0 -1.94108,-0.5986 -2.53969,0 -0.5986,0.59862 0.59861,1.94108 0,2.53969 -1.19721,1.19722 -3.56498,-0.75719 -5.07936,0 -1.07083,0.53542 -1.46886,2.00427 -2.53968,2.53968 -0.72687,0.36343 -11.34168,0 -12.69841,0 -0.84656,0 -1.94108,-0.5986 -2.53969,0 -0.59861,0.59861 0.59861,1.94107 0,2.53969 -0.59861,0.5986 -1.94107,-0.59862 -2.53968,0 -0.59861,0.5986 0,1.69311 0,2.53967 0,5.07937 0,10.15874 0,15.2381 0,17.77778 0,35.55556 0,53.33334 0,7.61904 0,15.23809 0,22.85714 0,0.84656 0,1.69312 0,2.53968 0,0.84656 0.59861,1.94107 0,2.53968 -0.59861,0.59862 -1.94107,-0.59861 -2.53969,0 -0.5986,0.59862 0.3786,1.7825 0,2.53969 -0.5354,1.07082 -2.00427,1.46886 -2.53967,2.53968 -0.3786,0.75719 0.5986,1.94107 0,2.53968 -0.59862,0.59861 -1.7825,-0.37859 -2.53969,0 -1.07082,0.53541 -1.46886,2.00427 -2.53968,2.53968 -0.75719,0.37859 -1.94107,-0.59861 -2.53969,0 -5.25468,5.2547 8.02988,-0.2054 -2.53967,5.07937 -1.51438,0.75718 -3.565,-0.75719 -5.07937,0 -1.07082,0.53541 -1.69313,1.69312 -2.53969,2.53968 -1.69311,0 -3.47313,-0.53541 -5.07936,0 -1.13578,0.3786 -1.46886,2.00427 -2.53968,2.53968 -1.60221,0.80111 -11.0962,-0.8011 -12.69841,0 -1.07083,0.53541 -1.46887,2.00428 -2.53969,2.53968 -1.51437,0.75719 -3.88214,-1.19721 -5.07936,0 -1.19722,1.19723 1.19722,3.88215 0,5.07937 -0.59861,0.59861 -1.94108,-0.5986 -2.53968,0 -0.59861,0.59861 0.37859,1.7825 0,2.53969 -1.24957,2.49912 -8.90918,7.65961 -10.15873,10.15873 -0.37859,0.75718 0.59861,1.94106 0,2.53968 -0.59862,0.59861 -1.7184,-0.20533 -2.53969,0 -2.59713,0.64928 -5.02192,1.8904 -7.61904,2.53967 -0.82129,0.20533 -1.7825,-0.37859 -2.53968,0 -1.07083,0.53542 -1.40391,2.1611 -2.53969,2.53969 -1.60624,0.53542 -3.47313,-0.53541 -5.07937,0 -1.13578,0.37859 -1.46885,2.00427 -2.53967,2.53968 -0.75719,0.3786 -1.69313,0 -2.53969,0 -0.84656,0.84656 -1.46886,2.00427 -2.53968,2.53969 -0.77215,0.38607 -8.40502,0 -10.15873,0 -7.61904,0 -15.2381,0 -22.85714,0 -7.16616,0 -13.62902,0.80454 -20.31746,-2.53969 -1.07083,-0.53541 -1.69313,-1.69312 -2.53968,-2.53968 -0.84656,-0.84656 -1.69313,-1.69312 -2.53969,-2.53969 -0.0761,-0.0761 -9.64582,-9.13291 -10.15873,-10.15872 -0.37859,-0.75719 0.37859,-1.78249 0,-2.53969 -1.07082,-2.14164 -4.00854,-2.93771 -5.07937,-5.07936 -0.37859,-0.75718 0.26772,-1.73656 0,-2.53968 -1.44164,-4.32492 -3.63772,-8.37349 -5.07936,-12.69842 -0.26771,-0.80312 0.29725,-1.74702 0,-2.53968 -2.26376,-6.03671 -4.42033,-12.18002 -7.61905,-17.77777 -0.42001,-0.73503 -1.69312,0 -2.53968,0 -1.69312,-3.38625 -3.67331,-6.64359 -5.07936,-10.15873 -0.31441,-0.78601 0,-1.69313 0,-2.53969 0,-1.69312 0,-3.38624 0,-5.07937 0,-5.92591 0,-11.85184 0,-17.77777 0,-10.15873 0,-20.31746 0,-30.47618 0,-1.69313 0,-3.38625 0,-5.07937 0,-0.84656 -0.84656,-2.53969 0,-2.53969 0.84655,0 0,3.38624 0,2.53969 0,-2.73095 0.57211,-7.29817 0,-10.15873 -0.68454,-3.42268 -1.69312,-6.77249 -2.53969,-10.15873 z"
       id="path68"
       inkscape:connector-curvature="0" />
    <path
       style="fill:none;fill-rule:evenodd;stroke:#000000;stroke-width:0.9375px;stroke-linecap:butt;stroke-linejoin:miter;stroke-opacity:1"
       d="m 497.77777,148.23523 c 6.77249,3.38624 12.97167,8.32228 20.31746,10.15873 1.64257,0.41065 0,-3.38624 0,-5.07936 0,-2.53968 0,-5.07937 0,-7.61905 0,-5.92592 0,-11.85185 0,-17.77778 0,-3.38624 -0.6641,-6.83824 0,-10.15872 0.52502,-2.62508 1.69312,-5.07937 2.53969,-7.61906 1.69311,-5.07936 2.90485,-10.345431 5.07936,-15.238093 1.23967,-2.789241 3.71433,-4.888968 5.07937,-7.619044 1.19721,-2.394436 1.34246,-5.224612 2.53967,-7.619047 0.53542,-1.070825 2.00428,-1.468859 2.53969,-2.539683 0.37859,-0.757187 -0.3786,-1.782496 0,-2.539683 1.55359,-3.107173 5.14441,-3.22339 7.61905,-5.079365 1.91554,-1.436661 3.20962,-3.583573 5.07936,-5.079364 2.38346,-1.906769 5.07937,-3.386244 7.61905,-5.079366 2.53968,-1.693121 5.00171,-3.50896 7.61905,-5.079365 1.6232,-0.973923 3.89683,-1.061523 5.07936,-2.539683 2.36505,-2.956318 3.38624,-6.772486 5.07937,-10.15873 1.69312,-3.386242 3.38624,-6.772486 5.07937,-10.158729 0.84655,-1.693122 1.48965,-3.504321 2.53967,-5.079366 2.15584,-3.233762 4.19217,-3.023236 7.61905,-5.079365 2.61734,-1.570404 4.78504,-3.945762 7.61905,-5.079364 2.35804,-0.943215 5.07937,0 7.61904,0 5.07937,0 10.15874,0 15.2381,0"
       id="path70"
       inkscape:connector-curvature="0" />
    <path
       style="fill:none;fill-rule:evenodd;stroke:#000000;stroke-width:0.9375px;stroke-linecap:butt;stroke-linejoin:miter;stroke-opacity:1"
       d="m 688.25396,173.63206 c 16.23233,-40.58083 10.91317,-25.12047 17.77778,-45.71429 0.84656,-2.53968 2.09958,-4.97841 2.53968,-7.61905 0.41752,-2.50513 -0.49807,-5.12868 0,-7.61904 0.37124,-1.85621 2.16844,-3.22316 2.53968,-5.07936 0.49808,-2.49037 -0.25271,-5.09198 0,-7.619058 4.10442,-41.044101 0.97496,5.488558 5.07937,-35.555551 0.49075,-4.907549 0,-10.2671 0,-15.238096 0,-0.846561 -0.84656,-2.539682 0,-2.539682 0.84656,0 0,3.386243 0,2.539682 0,-1.693122 -0.93918,-3.670603 0,-5.079365 1.05003,-1.575044 3.28354,-1.941073 5.07936,-2.539683 10.15874,-3.386242 -4.2328,4.232805 2.53968,-2.539682 0.59861,-0.598608 1.69313,0 2.53969,0 0,-5.079365 0,-10.15873 0,-15.238095"
       id="path72"
       inkscape:connector-curvature="0" />
    <path
       style="fill:none;fill-rule:evenodd;stroke:#000000;stroke-width:0.9375px;stroke-linecap:butt;stroke-linejoin:miter;stroke-opacity:1"
       d="m 568.88888,242.20348 c -3.38625,-1.69311 -6.77249,-3.38624 -10.15873,-5.07936 -0.84656,0 -1.78249,0.3786 -2.53968,0 -1.07083,-0.53541 -1.46886,-2.00427 -2.53968,-2.53968 -0.77216,-0.38608 -8.40503,0 -10.15873,0 -0.84657,0 -1.94108,-0.59862 -2.53968,0 -0.10221,0.10219 0,9.22607 0,10.15873 0,0.84656 -0.59861,1.94107 0,2.53968 0.5986,0.59861 1.94106,-0.59861 2.53968,0 0.59861,0.59861 -0.59862,1.94107 0,2.53968 1.19721,1.19722 3.56499,-0.75719 5.07936,0 1.07082,0.53541 1.46886,2.00428 2.53968,2.53968 0.75719,0.3786 1.69313,0 2.53969,0 0.84656,0 1.69312,0 2.53968,0 4.2328,0 8.46561,0 12.69841,0 1.69312,0 3.38625,0 5.07937,0 0.84655,0 2.91827,0.75719 2.53968,0 -1.89296,-3.78593 -5.07937,-6.77248 -7.61905,-10.15873 z"
       id="path74"
       inkscape:connector-curvature="0" />
    <path
       style="fill:none;fill-rule:evenodd;stroke:#000000;stroke-width:0.9375px;stroke-linecap:butt;stroke-linejoin:miter;stroke-opacity:1"
       d="m 650.15872,193.94952 c -4.23281,12.69841 -6.39945,26.28468 -12.69841,38.09524 -0.15994,0.29988 -16.47522,0 -22.85714,0 -0.84657,0 -1.94108,-0.59861 -2.53968,0 -0.59862,0.5986 0.37859,1.78249 0,2.53968 -0.53542,1.07082 -2.00427,1.46885 -2.53969,2.53968 -0.79812,1.59625 0.79812,8.56248 0,10.15873 -0.37859,0.75719 -1.94108,-0.59861 -2.53968,0 -0.59861,0.59861 -0.59861,1.94107 0,2.53968 0.0817,0.0817 7.00311,0 7.61905,0 9.31216,0 18.62433,0 27.9365,0 0.84656,0 1.69313,0 2.53969,0 0.84655,0 1.94107,0.59861 2.53968,0 0.59861,-0.59861 0,-1.69312 0,-2.53968 0,-3.38624 0,-6.77248 0,-10.15873 0,-0.61594 0.0816,-7.53737 0,-7.61905 -0.37348,-0.37348 -7.61905,0.29879 -7.61905,0 0,-0.84656 2.53968,-0.84656 2.53968,0 0,0.84656 -2.71706,0.82778 -2.53968,0 2.58268,-12.0525 6.77248,-23.7037 10.15873,-35.55555"
       id="path76"
       inkscape:connector-curvature="0" />
    <path
       style="fill:none;fill-rule:evenodd;stroke:#000000;stroke-width:0.9375px;stroke-linecap:butt;stroke-linejoin:miter;stroke-opacity:1"
       d="m 573.33333,255.53682 c 0.3608,2.88041 1.84377,5.47031 2.53968,8.25397 0.15399,0.61596 -0.0898,1.27622 0,1.90475 0.75944,5.31608 0.63492,1.20182 0.63492,5.07937 0,1.48148 0,2.96297 0,4.44444 0,0.63493 0,1.26985 0,1.90477 0,0.21164 -0.0514,0.4296 0,0.63492 0.16232,0.64928 0.52489,1.24461 0.63492,1.90477 0.20876,1.25255 -0.17958,2.55243 0,3.80952 0.1234,0.86384 0.51152,1.67584 0.63492,2.53968 0.0898,0.62853 -0.12452,1.28217 0,1.90476 0.0928,0.46405 0.37241,0.87608 0.63492,1.26985 0.16603,0.24902 0.45534,0.39547 0.63493,0.63491 0.45784,0.61047 0.73025,1.36519 1.26983,1.90476 0.33463,0.33463 0.93521,0.30029 1.26984,0.63493 0.33463,0.33463 0.30029,0.9352 0.63493,1.26984 0.66926,0.66926 1.78249,0.70194 2.53967,1.26983 0.4789,0.35917 0.73444,1.00214 1.26985,1.26985 0.23819,0.11909 3.43151,0 3.80952,0 1.26984,0 2.53969,0 3.80953,0 0.63491,0 1.28879,0.15399 1.90476,0 0.81362,-0.20341 1.19886,-2.37407 1.26984,-2.53968 0.42328,-0.84656 0.84656,-1.69313 1.26984,-2.53969 0,-0.42328 -0.11628,-0.86285 0,-1.26984 0.3131,-1.09586 0.82089,-2.12704 1.26984,-3.1746 0.18642,-0.43498 0.52014,-0.81073 0.63492,-1.26985 0.10267,-0.41064 -0.10266,-0.8592 0,-1.26983 0.46036,-1.84142 0.49535,-0.74303 1.26984,-1.90477 0.52547,-0.7882 1.06334,-2.34858 1.26985,-3.1746 1.46619,-1.34218 0.34143,-2.97698 0.63492,-4.44444 0.2625,-1.31254 1.00732,-2.49699 1.26983,-3.80953 0.16604,-0.83012 -0.16602,-1.70956 0,-2.53968 0.13126,-0.65627 0.45106,-1.26125 0.63493,-1.90476 0.23972,-0.83904 0.35897,-1.71185 0.63492,-2.53968 0.14965,-0.44896 0.52014,-0.81073 0.63492,-1.26985 0.15399,-0.61596 -0.20078,-1.30242 0,-1.90475 0.42105,-1.26316 0.84878,-1.27653 1.26984,-2.53969 0.1194,-0.35822 0,-1.48755 0,-1.90477"
       id="path78"
       inkscape:connector-curvature="0" />
    <path
       style="fill:none;fill-rule:evenodd;stroke:#000000;stroke-width:0.9375px;stroke-linecap:butt;stroke-linejoin:miter;stroke-opacity:1"
       d="m 594.92062,303.79078 c -2.75131,0 -5.50264,0 -8.25396,0 -0.42328,0 -0.8592,0.10267 -1.26984,0 -0.45912,-0.11478 -0.83045,-0.45916 -1.26984,-0.63491 -1.2428,-0.49712 -2.53969,-0.84656 -3.80953,-1.26984 -0.63492,-0.21165 -1.24222,-0.54028 -1.90476,-0.63493 -0.83806,-0.11972 -1.69312,0 -2.53968,0 -0.84657,0 -1.69312,0 -2.53968,0 -0.84656,0 -1.7184,0.20533 -2.53969,0 -0.91822,-0.22955 -1.66089,-0.91832 -2.53968,-1.26984 -0.1965,-0.0786 -0.43414,0.0669 -0.63492,0 -2.30177,-0.76726 -0.45187,-0.30125 -1.90476,-1.26983 -1.22626,-0.81752 -1.72907,-0.65034 -3.1746,-1.26985 -0.86996,-0.37284 -1.69313,-0.84656 -2.53968,-1.26984 -0.42328,-0.21164 -0.87609,-0.37241 -1.26985,-0.63492 -0.88048,-0.58698 -1.6592,-1.31778 -2.53968,-1.90476 -0.39376,-0.26251 -0.82089,-0.48527 -1.26984,-0.63492 -1.17284,-0.39095 -0.30102,0.96882 -1.90476,-0.63492 -0.0407,-0.0407 -1.191,-2.42142 -1.26985,-2.53969 -0.16602,-0.24903 -0.42328,-0.42328 -0.63492,-0.63491 -0.42327,-0.42329 -0.84655,-0.84657 -1.26983,-1.26985 -0.39191,-0.3919 -0.99599,-1.18263 -1.26985,-0.63492 -0.1893,0.37859 0,0.84656 0,1.26984 0,1.26984 0,2.53968 0,3.80953 0,2.11639 0,4.2328 0,6.34921 0,0.53755 -0.11377,2.19834 0,2.53967 0.0947,0.28394 0.39548,0.45534 0.63492,0.63493 0.61047,0.45784 1.25043,0.87723 1.90476,1.26984 0.40581,0.24348 0.89125,0.35097 1.26984,0.63491 0.94489,0.70867 2.03986,2.17496 2.53969,3.17461 1.03707,2.07415 1.41976,3.53179 1.90476,5.71429 0.2341,1.05346 0.45751,2.11012 0.63492,3.1746 0.0348,0.20876 -0.0786,0.43841 0,0.63492 0.35151,0.87878 0.897,1.66972 1.26984,2.53968 0.91719,2.14009 0.46437,2.02801 1.26985,4.44444 0.3604,1.08124 0.90943,2.09337 1.26983,3.17461 0.27595,0.82783 0.29119,1.73762 0.63492,2.53968 1.12224,2.61855 1.67807,1.67807 3.80953,3.80952 0.53957,0.53958 0.77324,1.32539 1.26984,1.90477 0.77914,0.90899 1.82136,1.58191 2.53969,2.53967 0.56789,0.7572 0.74482,1.75217 1.26983,2.53969 0.0896,0.13441 2.96984,3.07222 3.17461,3.1746 0.16694,0.0834 2.20766,0 2.53968,0 0.73757,0 2.59902,0.1439 3.1746,0 1.52177,-0.38044 1.98103,-1.54503 3.17461,-2.53968 1.17243,-0.97702 2.61779,-1.58629 3.80952,-2.53968 0.46744,-0.37395 0.77177,-0.93779 1.26984,-1.26984 0.78752,-0.52502 1.71791,-0.80026 2.53968,-1.26984 0.66254,-0.3786 1.25043,-0.87724 1.90477,-1.26984 1.95472,-1.17284 1.4762,-0.20637 3.80952,-2.53968 0.53958,-0.53958 0.73026,-1.36519 1.26984,-1.90477 0.53958,-0.53958 1.2943,-0.812 1.90476,-1.26984 0.23945,-0.17958 0.39548,-0.45534 0.63492,-0.63492 0.61046,-0.45785 1.2943,-0.81199 1.90477,-1.26984 0.23943,-0.17959 0.35097,-0.54027 0.63492,-0.63492 0.40156,-0.13386 0.86827,0.13385 1.26983,0 0.28395,-0.0947 0.38589,-0.4689 0.63492,-0.63492 0.97739,-0.65158 1.56231,-0.61826 2.53969,-1.26985 0.24904,-0.16602 0.38589,-0.46889 0.63492,-0.63492 0.92526,-0.61684 1.32245,-0.39637 1.90476,-1.26983 0.26251,-0.39377 0.42328,-0.84656 0.63492,-1.26985 0.42328,-0.42328 0.91068,-0.79096 1.26985,-1.26984 0.28394,-0.37859 0.35097,-0.89124 0.63492,-1.26984 0.35916,-0.47889 0.96185,-0.75654 1.26983,-1.26984 0.34434,-0.57389 0.42328,-1.26984 0.63492,-1.90476 0.67062,-2.01183 0.49813,-2.05123 1.90477,-3.80953 0.37395,-0.46743 0.89589,-0.8024 1.26984,-1.26984 1.87217,-2.34021 0.71783,-1.19638 1.90476,-3.1746 2.42479,-4.04131 0.1149,0.23179 2.53969,-3.80952 0.24348,-0.40581 0.52014,-0.81073 0.63492,-1.26984 0.54979,-2.19917 -0.80399,-0.38133 0.63491,-2.53969 0.27809,-0.41712 1.79022,-1.56112 1.90477,-1.90476 0.13385,-0.40156 -0.1893,-0.89125 0,-1.26984 0.0947,-0.1893 0.44562,0.0947 0.63492,0 0.2677,-0.13386 0.38588,-0.4689 0.63492,-0.63492 0.57999,-0.38667 1.54082,-0.54196 1.90476,-1.26985 0.0947,-0.18929 0,-0.42327 0,-0.63491 0,-0.21164 0.14965,-0.48527 0,-0.63492 -0.14966,-0.14966 -0.42328,0 -0.63493,0 -0.63491,0 -1.26983,0 -1.90475,0 -2.32805,0 -4.65609,0 -6.98413,0 -1.0582,0 -2.13695,-0.20754 -3.1746,0 -1.52355,0.3047 -4.46612,3.09628 -5.71429,3.80952 -0.58108,0.33204 -1.33087,0.29059 -1.90476,0.63492 -0.51331,0.30798 -0.79096,0.91068 -1.26984,1.26985 -0.37859,0.28394 -0.93521,0.30028 -1.26984,0.63491 -0.84657,0.84656 1.34686,0.60924 -0.63493,1.26984 -0.40156,0.13386 -0.86827,-0.13385 -1.26983,0 -1.98179,0.6606 0.21163,0.42328 -0.63492,1.26985 -0.14966,0.14965 -0.44563,-0.0947 -0.63492,0 -0.26772,0.13385 -0.39548,0.45533 -0.63493,0.63492 -0.61046,0.45784 -1.36518,0.73025 -1.90476,1.26983 -0.2993,0.29931 0.41902,1.3297 0,1.26985 -1.52528,-0.2179 -2.96296,-0.84657 -4.44445,-1.26985 z"
       id="path80"
       inkscape:connector-curvature="0" />
    <path
       style="fill:none;fill-rule:evenodd;stroke:#000000;stroke-width:0.9375px;stroke-linecap:butt;stroke-linejoin:miter;stroke-opacity:1"
       d="m 571.42856,301.88602 c 0,2.96296 0,5.92593 0,8.88889 0,0.21164 0.21164,0.63492 0,0.63492 -0.21164,0 0,-0.42328 0,-0.63492 0,-1.489 -0.14965,0.29931 0.63492,-1.26984 0.29931,-0.5986 0.47261,-1.25548 0.63493,-1.90476 0.0652,-0.26068 -0.077,-1.19288 0,-1.26984 0.33463,-0.33463 0.89124,-0.35097 1.26984,-0.63492 0.47888,-0.35917 0.77177,-0.93779 1.26983,-1.26985 0.1761,-0.11739 0.44564,0.0947 0.63493,0 0.64637,-0.32318 1.01206,-1.3892 1.26984,-1.90475"
       id="path82"
       inkscape:connector-curvature="0" />
    <path
       style="fill:none;fill-rule:evenodd;stroke:#000000;stroke-width:0.9375px;stroke-linecap:butt;stroke-linejoin:miter;stroke-opacity:1"
       d="m 563.80952,331.09237 c 0,-1.90476 0,-3.80952 0,-5.71428 0,-0.15088 -0.0712,-2.39738 0,-2.53969 0.13385,-0.2677 0.42328,-0.42327 0.63492,-0.63491 0.92177,-0.92178 0.68732,-0.63492 1.90476,-0.63492 0.21164,0 0.48527,-0.14966 0.63492,0 0.14965,0.14965 0,0.42328 0,0.63492 0,0.63491 0,1.26983 0,1.90475 0,3.59789 0,7.19578 0,10.79366"
       id="path88"
       inkscape:connector-curvature="0" />
    <path
       style="fill:none;fill-rule:evenodd;stroke:#000000;stroke-width:0.9375px;stroke-linecap:butt;stroke-linejoin:miter;stroke-opacity:1"
       d="m 594.92062,303.79078 c 0.42329,1.0582 0.90944,2.09337 1.26985,3.17461 0.11941,0.35822 0,1.48755 0,1.90476 0,1.69312 0,3.38625 0,5.07936 0,0.63492 0,1.26985 0,1.90477 0,0.21164 -0.14965,0.48527 0,0.63492 0.14965,0.14965 0.42328,0 0.63492,0 0.41709,0 2.39038,0.0746 2.53968,0 0.1893,-0.0947 -0.0669,-0.43415 0,-0.63492 0.14965,-0.44896 0.48527,-0.82089 0.63492,-1.26985 0.14824,-0.44469 -0.14823,-1.46006 0,-1.90475 0.0947,-0.28395 0.50107,-0.36722 0.63492,-0.63492 0.0947,-0.1893 -0.21164,-0.63493 0,-0.63493 0.21164,0 0,0.84657 0,0.63493 0,-1.69313 0,-3.38625 0,-5.07937 0,-1.489 -0.14965,0.29931 0.63492,-1.26984 0.25397,-0.50794 -0.25396,-1.39683 0,-1.90477 0.78458,-1.56914 0.63493,0.21917 0.63493,-1.26983 0,-1.69313 -0.21164,0.21164 0.63492,-0.63492 0.14965,-0.14966 0.20532,-0.68626 0,-0.63493 -2.59714,0.64929 -5.07938,1.69312 -7.61906,2.53968"
       id="path90"
       inkscape:connector-curvature="0" />
    <path
       style="fill:none;fill-rule:evenodd;stroke:#000000;stroke-width:0.9375px;stroke-linecap:butt;stroke-linejoin:miter;stroke-opacity:1"
       d="m 596.19047,330.45745 c 0,-4.26762 0.46958,-0.96558 -1.26985,-4.44444 0,-1.69313 0.21165,0.21164 -0.63492,-0.63492 -0.33463,-0.33463 -0.30028,-0.93522 -0.63491,-1.26985 -0.14965,-0.14965 -0.44563,0.0947 -0.63492,0 -0.26771,-0.13384 -0.33562,-0.63492 -0.63492,-0.63492 -0.21164,0 0,0.42328 0,0.63492 0,0.21164 0,0.42328 0,0.63493 0,0.21164 0,0.42328 0,0.63492 0,0.21164 0.0947,0.44562 0,0.63492 -0.13386,0.2677 -0.50107,0.36721 -0.63492,0.63492 -0.0947,0.18929 0,0.42328 0,0.63492 0,0.0994 0.10567,3.38683 0,3.80953 -0.16232,0.64928 -0.47261,1.25548 -0.63493,1.90475 -0.0514,0.20532 0.0947,0.44563 0,0.63492 -0.13385,0.26772 -0.50106,0.36722 -0.63492,0.63493 -0.42328,0.84656 0.63492,0.63492 -0.63492,0.63492"
       id="path92"
       inkscape:connector-curvature="0" />
  </g>
</svg>
