<?xml version="1.0" encoding="UTF-8" standalone="no"?>
<!-- Created with Inkscape (http://www.inkscape.org/) -->

<svg
   xmlns:dc="http://purl.org/dc/elements/1.1/"
   xmlns:cc="http://creativecommons.org/ns#"
   xmlns:rdf="http://www.w3.org/1999/02/22-rdf-syntax-ns#"
   xmlns:svg="http://www.w3.org/2000/svg"
   xmlns="http://www.w3.org/2000/svg"
   xmlns:sodipodi="http://sodipodi.sourceforge.net/DTD/sodipodi-0.dtd"
   xmlns:inkscape="http://www.inkscape.org/namespaces/inkscape"
   width="210mm"
   height="297mm"
   id="svg2"
   version="1.1"
   inkscape:version="0.92.1 r15371"
   sodipodi:docname="fiufiu-pulou-pela-janela.svg"
   inkscape:export-filename="/home/fredm/projetos/o-rato-anderson/um-dia-este-rato-encontrou-uma-rata.png"
   inkscape:export-xdpi="90"
   inkscape:export-ydpi="90"
   viewBox="0 0 744.09449 1052.3622">
  <defs
     id="defs4" />
  <sodipodi:namedview
     id="base"
     pagecolor="#ffffff"
     bordercolor="#666666"
     borderopacity="1.0"
     inkscape:pageopacity="0.0"
     inkscape:pageshadow="2"
     inkscape:zoom="0.73828126"
     inkscape:cx="407.00864"
     inkscape:cy="350.9685"
     inkscape:document-units="mm"
     inkscape:current-layer="layer1"
     showgrid="false"
     inkscape:window-width="782"
     inkscape:window-height="707"
     inkscape:window-x="135"
     inkscape:window-y="47"
     inkscape:window-maximized="0" />
  <metadata
     id="metadata7">
    <rdf:RDF>
      <cc:Work
         rdf:about="">
        <dc:format>image/svg+xml</dc:format>
        <dc:type
           rdf:resource="http://purl.org/dc/dcmitype/StillImage" />
        <dc:title />
      </cc:Work>
    </rdf:RDF>
  </metadata>
  <g
     inkscape:label="Camada 1"
     inkscape:groupmode="layer"
     id="layer1">
    <path
       style="fill:none;fill-rule:evenodd;stroke:#000000;stroke-width:0.9375px;stroke-linecap:butt;stroke-linejoin:miter;stroke-opacity:1"
       d="m 708.57142,874.58443 c -9.02999,-4.51499 -11.60011,-4.46152 -17.77778,-12.69842 -2.96175,-3.949 -4.45894,-8.90627 -7.61904,-12.69841 -1.21185,-1.45421 -3.74084,-1.20115 -5.07937,-2.53968 -1.33853,-1.33853 -1.4039,-3.56499 -2.53969,-5.07936 -1.43666,-1.91555 -3.84743,-3.02616 -5.07936,-5.07937 -1.37734,-2.29556 -1.34246,-5.22461 -2.53968,-7.61905 -5.96261,-11.92522 -3.81776,-3.19519 -7.61905,-12.69841 -2.37962,-5.94906 -3.9991,-12.34785 -7.61905,-17.77777 -1.32819,-1.99229 -4.00854,-2.93773 -5.07936,-5.07937 -0.37859,-0.75719 0.59861,-1.94107 0,-2.53969 -0.59861,-0.5986 -1.69313,0 -2.53968,0 -1.69313,-1.69311 -3.6427,-3.16381 -5.07937,-5.07936 -1.13578,-1.51437 -1.56576,-3.45615 -2.53968,-5.07936 -1.57041,-2.61735 -3.56499,-4.9689 -5.07937,-7.61905 -1.87835,-3.28711 -3.07281,-6.94826 -5.07936,-10.15873 -2.24339,-3.58941 -5.27111,-6.63683 -7.61905,-10.15873 -4.43822,-6.65732 -0.94926,-4.43821 -5.07936,-12.69841 -0.53542,-1.07083 -1.82135,-1.58191 -2.53968,-2.53968 -2.2512,-3.00161 -4.29084,-7.66257 -7.61906,-10.15873 -2.44185,-1.8314 -5.92592,-2.53969 -7.61904,-5.07937 -1.93616,-2.90424 -0.9787,-7.03677 -2.53969,-10.15873 -1.07082,-2.14165 -3.84743,-3.02616 -5.07936,-5.07937 -5.1219,-8.5365 0.0602,-5.8457 -5.07937,-12.6984 -2.37109,-3.16146 -9.80066,-9.80068 -12.69841,-12.69842 -0.84656,-0.84657 -2.16108,-1.4039 -2.53968,-2.53968 -0.53541,-1.60624 0.53541,-3.47313 0,-5.07937 -2.64239,-7.92716 -1.69312,0.84657 -5.07936,-2.53968 -0.0817,-0.0817 0,-7.00311 0,-7.61905 0,-5.07936 0,-10.15873 0,-15.2381 0,-11.85184 0,-23.7037 0,-35.55555 0,-4.2328 0,-8.46561 0,-12.69841 0,-1.69312 0.93917,-3.67061 0,-5.07937 -9.71186,-4.85593 -2.29044,0.74776 -5.07937,-7.61904 -0.28461,-0.85383 -9.55522,-9.55523 -10.15873,-10.15873 -1.98371,-1.98372 -6.15805,-5.42756 -7.61904,-7.61905 -1.54665,-2.31997 -2.16784,-6.16328 -5.07937,-7.61905 -0.77291,-0.38646 -6.47528,0 -7.61905,0 -2.39197,0 -11.25368,-0.48158 -12.69841,0 -5.05384,1.68461 -1.18519,2.37037 -2.53969,5.07936 -0.5354,1.07084 -2.00426,1.46886 -2.53968,2.53969 -0.75719,1.51437 0.7572,3.56499 0,5.07937 -1.36503,2.73007 -3.71432,4.88897 -5.07936,7.61904 -0.7466,1.49319 0.5212,8.07393 0,10.15873 -2.80739,11.22956 -2.53968,4.05421 -2.53968,10.15873 0,11.56136 1.19722,0.14525 -2.53969,7.61905 -0.37859,0.75719 0.84657,2.53968 0,2.53968 -0.84656,0 0,-1.69312 0,-2.53968 0,-2.53968 0.61597,-5.15519 0,-7.61905 -0.29037,-1.16148 -1.69312,-1.69312 -2.53967,-2.53968 -0.84657,-0.84656 -1.69313,-1.69312 -2.53969,-2.53968 -4.23281,-4.23281 -8.46561,-8.46561 -12.69841,-12.69841 -0.84656,-0.84656 -1.69313,-1.69313 -2.53969,-2.53969 -0.84656,-0.84656 -1.46886,-2.00427 -2.53968,-2.53968 -0.75719,-0.3786 -1.78249,0.37859 -2.53968,0 -1.35641,-0.6782 -6.282,-6.282 -7.61905,-7.61905 -4.1348,-4.13481 -2.9794,-3.31145 -10.15873,-7.61904 -3.24641,-1.94786 -7.00864,-2.97931 -10.15873,-5.07937 -2.19149,-1.461 -5.63533,-5.63534 -7.61904,-7.61905 -1.98372,-1.98371 -6.15806,-5.42756 -7.61906,-7.61905 -2.10005,-3.15008 -2.9793,-7.00863 -5.07936,-10.15873 -0.6641,-0.99614 -2.16109,-1.40389 -2.53968,-2.53968 -0.53542,-1.60623 0.75719,-3.56499 0,-5.07936 -0.37859,-0.75719 -1.94108,0.5986 -2.53968,0 -0.59861,-0.59861 0.37859,-1.7825 0,-2.53969 -0.33716,-0.67431 -6.94474,-7.28189 -7.61905,-7.61904 -0.75718,-0.37859 -1.94108,0.59861 -2.53968,0 -9.91171,-9.91171 0.58787,-1.36393 -2.53969,-7.61905 -0.5354,-1.07083 -1.69311,-1.69312 -2.53968,-2.53968 -0.84656,-0.84657 -1.69312,-1.69313 -2.53968,-2.53968 -3.38624,-3.38625 -6.77249,-6.77249 -10.15874,-10.15873 -0.84655,-0.84657 -1.69311,-1.69313 -2.53967,-2.53969 -0.84657,-0.84656 -2.00428,-1.46886 -2.53969,-2.53968 -0.37859,-0.75719 0.3786,-1.7825 0,-2.53969 -0.53541,-1.07082 -1.87558,-1.54353 -2.53968,-2.53967 -1.05003,-1.57505 -1.40391,-3.565 -2.53968,-5.07937 -1.43666,-1.91555 -4.00854,-2.93772 -5.07936,-5.07937 -0.75719,-1.51437 0.5354,-3.47312 0,-5.07936 -2.64239,-7.92716 -1.69313,0.84656 -5.07937,-2.53968 -1.33853,-1.33853 -1.48966,-3.50433 -2.53969,-5.07937 -0.66409,-0.99615 -1.69311,-1.69312 -2.53967,-2.53968 -1.69313,-1.69312 -3.38625,-3.38624 -5.07937,-5.07937 -1.69312,-1.69311 -3.6427,-3.16382 -5.07937,-5.07936 -3.32865,-4.43821 -2.51841,-7.5765 -5.07936,-12.69841 -0.53542,-1.07083 -1.87559,-1.54354 -2.53969,-2.53969 -1.33977,-2.00965 -6.87166,-12.99594 -7.61904,-15.23809 -0.26771,-0.80312 0.37859,-1.7825 0,-2.53969 -1.07082,-2.14164 -4.32218,-2.8078 -5.07937,-5.07936 -0.5354,-1.60624 1.19722,-3.88214 0,-5.07937 -1.19721,-1.19721 -3.6706,0.93918 -5.07936,0 -0.2758,-0.18386 -4.40488,-9.14699 -5.07937,-10.15873 -1.32819,-1.99229 -4.32217,-2.8078 -5.07936,-5.07935 -0.53541,-1.60624 0.75719,-3.565 0,-5.07937 -0.3786,-0.75719 -1.94108,0.5986 -2.53968,0 -0.59862,-0.59861 0.37859,-1.7825 0,-2.53969 -0.53542,-1.07082 -1.87559,-1.54354 -2.53969,-2.53968 -1.05003,-1.57504 -1.48965,-3.50432 -2.53968,-5.07936 -1.32819,-1.99229 -4.00854,-2.93772 -5.07936,-5.07937 -0.37859,-0.75719 0.37859,-1.78249 0,-2.53968 -1.07083,-2.14165 -3.75118,-3.08708 -5.07937,-5.07937 -2.10006,-3.15008 -2.97931,-7.00864 -5.07937,-10.15872 -2.49137,-3.73708 -7.66734,-6.42166 -10.15873,-10.15873 -1.05002,-1.57505 -1.48965,-3.50433 -2.53967,-5.07937 -0.6641,-0.99615 -1.69313,-1.69312 -2.53969,-2.53969 -0.84656,-0.84656 -1.46886,-2.00427 -2.53968,-2.53967 -0.75719,-0.3786 -1.94108,0.5986 -2.53969,0 -4.68043,-4.68045 -4.61293,-7.68823 -7.61904,-12.69842 -1.57041,-2.61734 -3.24798,-5.17719 -5.07937,-7.61905 -2.13333,-2.84444 -5.48571,-4.7746 -7.61904,-7.61904 -1.13578,-1.51438 -1.20115,-3.74084 -2.53969,-5.07937 -1.33852,-1.33853 -3.74083,-1.20115 -5.07936,-2.53968 -1.33853,-1.33853 -1.20116,-3.74084 -2.53968,-5.07937 -1.33854,-1.33852 -3.74084,-1.20115 -5.07937,-2.53968 -1.33853,-1.33853 -1.4039,-3.56499 -2.53969,-5.07936 -1.43665,-1.91555 -3.84743,-3.02616 -5.07936,-5.07937 -1.37733,-2.29556 -1.69312,-5.07936 -2.53968,-7.61904 -0.84656,-2.53969 -1.69312,-5.07937 -2.53968,-7.61906 -0.84656,-0.84656 -2.00427,-1.46885 -2.53968,-2.53967 -0.3786,-0.75719 0.2677,-1.73657 0,-2.53969 -0.59862,-1.79583 -1.69313,-3.38624 -2.53968,-5.07937 -0.84657,-1.69311 -1.40391,-3.56498 -2.53969,-5.07936 -1.43666,-1.91555 -3.38624,-3.38624 -5.07937,-5.07937 -2.53967,-2.53968 -5.07936,-5.07935 -7.61904,-7.61904 -2.53969,-2.53968 -4.85987,-5.31972 -7.61905,-7.61905 -2.34486,-1.95405 -5.00171,-3.50896 -7.61905,-5.07936 -1.6232,-0.97392 -3.74083,-1.20115 -5.07936,-2.53969 -0.0911,-0.0911 -4.81547,-9.7189 -5.07937,-10.15873 -1.5704,-2.61734 -3.50896,-5.0017 -5.07936,-7.61904 -0.97393,-1.62321 -1.20116,-3.74084 -2.53968,-5.07937 -1.33854,-1.33853 -3.50433,-1.48965 -5.07937,-2.53968 -0.99615,-0.66409 -1.46885,-2.00427 -2.53968,-2.53969 -0.75719,-0.37859 -1.69312,0 -2.53968,0 -1.69313,-0.84656 -3.565,-1.40389 -5.07937,-2.53967 -1.91555,-1.43667 -3.16382,-3.64271 -5.07936,-5.07937 -3.02875,-2.27156 -7.12998,-2.8078 -10.15874,-5.07936 -3.83109,-2.87333 -6.17415,-7.50235 -10.15873,-10.15874 -0.70438,-0.46958 -1.94107,0.59862 -2.53967,0 -1.19722,-1.19721 0.5354,-3.47312 0,-5.07936 -0.17946,-0.53837 -5.36708,-14.39981 -7.61906,-17.77778 -2.32923,-3.49384 -3.91801,-2.61201 -7.61904,-5.07936 -0.99615,-0.6641 -1.46886,-2.00427 -2.53969,-2.53969 -0.75718,-0.37859 -1.94106,0.59861 -2.53968,0 -0.59861,-0.5986 0.50794,-1.86243 0,-2.53968 -4.26666,-5.68889 -10.97143,-9.5492 -15.238094,-15.23809 -1.135782,-1.51438 -1.48965,-3.50432 -2.539678,-5.07937 -2.491266,-3.7369 -3.104059,-2.53968 -7.61905,-2.53968 -0.846561,0 -2.43468,0.84002 -2.539683,0 -0.840023,-6.72019 0,-13.54498 0,-20.317462"
       id="path154"
       inkscape:connector-curvature="0" />
    <path
       style="fill:none;fill-rule:evenodd;stroke:#000000;stroke-width:0.9375px;stroke-linecap:butt;stroke-linejoin:miter;stroke-opacity:1"
       d="m 546.03173,97.441584 c 7.78246,2.404575 10.3059,5.226526 15.2381,10.158736 0.84656,0.84656 1.54354,1.87558 2.53969,2.53967 1.57504,1.05003 3.74083,1.20116 5.07936,2.53969 1.33853,1.33853 1.48965,3.50432 2.53968,5.07937 0.6641,0.99614 1.69313,1.69311 2.53969,2.53968 0.84655,1.69312 1.48965,3.50431 2.53968,5.07936 0.66409,0.99614 1.69312,1.69313 2.53969,2.53968 2.53967,2.53969 5.07935,5.07936 7.61904,7.61905 0.84656,0.84656 2.00427,1.46886 2.53968,2.53968 0.3786,0.75719 -0.59861,1.94108 0,2.53969 0.59861,0.5986 1.94107,-0.59861 2.53968,0 0.59861,0.5986 -0.59861,1.94107 0,2.53968 0.59861,0.59861 1.7825,-0.37859 2.53968,0 0.48615,0.24307 9.91566,9.67258 10.15873,10.15873 0.3786,0.75719 -0.5986,1.94107 0,2.53968 0.59862,0.59861 1.94108,-0.59861 2.53969,0 1.19722,1.19722 -0.75719,3.56499 0,5.07937 1.07082,2.14164 4.00854,2.93771 5.07937,5.07936 0.81145,1.62291 -0.68141,8.11455 0,10.15873 0.5986,1.79583 1.94106,3.28354 2.53968,5.07936 0.5485,1.64551 0,10.61918 0,12.69842 0,11.00529 0,22.01058 0,33.01587 0,16.08465 0,32.16931 0,48.25397 0,10 0,5.2381 0,15.23809 0,0.84656 0.20532,1.7184 0,2.53969 -0.64929,2.59713 -1.89041,5.02191 -2.53968,7.61904 -0.61597,2.46385 0.61595,5.1552 0,7.61905 -0.45912,1.83645 -2.16845,3.22316 -2.53969,5.07937 -0.99614,4.98072 0.83504,10.22783 0,15.23809 -0.44011,2.64064 -2.09958,4.97841 -2.53968,7.61905 -0.69587,4.17521 0,8.46561 0,12.69841 0,1.69312 0.41065,3.4368 0,5.07937 -0.45911,1.83645 -2.16845,3.22315 -2.53969,5.07936 -0.49807,2.49037 0.61597,5.15519 0,7.61904 -0.29036,1.16148 -2.24931,1.37821 -2.53967,2.53969 -0.61597,2.46386 0,5.07937 0,7.61905 0,1.69312 0.5354,3.47312 0,5.07936 -0.3786,1.13578 -2.16109,1.40391 -2.53969,2.53969 -0.80312,2.40935 0,5.07936 0,7.61904 0,1.76645 0.45921,11.77998 0,12.69841 -0.53541,1.07083 -2.16109,1.40391 -2.53968,2.53969 -0.4663,1.3989 0.14539,14.36578 0,15.2381 -2.06389,12.38328 -3.01549,2.8548 -5.07937,15.23808 0,18.01328 1.79583,1.48772 -2.53968,10.15874 -0.75718,1.51438 1.19722,3.88215 0,5.07936 -0.0817,0.0817 -7.00311,0 -7.61905,0 -1.69312,0 -3.88215,1.19722 -5.07936,0 -4.31663,-4.31662 -6.1388,-10.64389 -10.15873,-15.2381 -2.00997,-2.2971 -5.27419,-3.12531 -7.61905,-5.07936 -8.24356,-6.86963 -14.61358,-15.98751 -22.85714,-22.85714 -2.34485,-1.95404 -5.23559,-3.1726 -7.61905,-5.07937 -1.86974,-1.49579 -3.38624,-3.38624 -5.07937,-5.07936 -3.38624,-3.38624 -6.77248,-6.77248 -10.15873,-10.15872 -1.69311,-1.69313 -4.00853,-2.93773 -5.07936,-5.07937 -4.02352,-8.04705 5.25562,-2.36343 -2.53968,-10.15873 -0.59861,-0.59861 -1.7825,0.37859 -2.53968,0 -1.07083,-0.53542 -1.69312,-1.69313 -2.53969,-2.53969 -0.84656,-0.84656 -1.87558,-1.54354 -2.53967,-2.53968 -1.05004,-1.57504 -1.48966,-3.50432 -2.53969,-5.07936 -1.99229,-2.98844 -5.46405,-4.74573 -7.61905,-7.61906 -1.13578,-1.51437 -1.20115,-3.74083 -2.53968,-5.07935 -1.33853,-1.33854 -3.74083,-1.20116 -5.07937,-2.53969 -1.33852,-1.33852 -1.20115,-3.74083 -2.53968,-5.07937 -2.15831,-2.15831 -5.665,-2.7345 -7.61905,-5.07936 -2.42369,-2.90844 -2.9793,-7.00864 -5.07936,-10.15873 -1.3282,-1.99229 -3.64271,-3.16381 -5.07936,-5.07937 -1.13578,-1.51437 -1.48966,-3.50432 -2.53969,-5.07936 -0.6641,-0.99614 -1.69312,-1.69312 -2.53968,-2.53968 -3.27218,-3.27218 -7.31029,-6.59818 -10.15873,-10.15873 -4.60891,-2.96933 -4.65729,-8.74941 -7.61905,-12.69841 -1.43666,-1.91555 -3.64271,-3.16382 -5.07937,-5.07937 -1.13577,-1.51437 -1.48965,-3.50432 -2.53968,-5.07936 -0.66409,-0.99615 -1.87558,-1.54354 -2.53968,-2.53969 -2.10006,-3.15009 -2.9793,-7.00864 -5.07936,-10.15872 -0.6641,-0.99615 -1.69312,-1.69313 -2.53969,-2.53969 -1.69312,-1.69313 -3.38624,-3.38624 -5.07936,-5.07937 -0.84657,-0.84656 -1.54354,-1.87558 -2.53968,-2.53967 -1.57505,-1.05003 -3.74084,-1.20116 -5.07937,-2.53969 -4.92226,-4.92226 -6.68195,-11.98315 -10.15873,-17.77778 -1.5704,-2.61734 -3.24798,-5.17719 -5.07936,-7.61904 -2.60654,-3.47539 -6.87574,-4.99266 -10.15873,-7.61905 -2.80387,-2.24309 -7.13323,-8.14172 -10.15874,-10.15873 -1.57504,-1.05003 -3.50431,-1.48965 -5.07936,-2.53968 -0.99614,-0.6641 -1.69312,-1.69313 -2.53968,-2.53969 -0.84656,-0.84655 -1.87559,-1.54354 -2.53969,-2.53968 -2.10005,-3.15009 -2.9793,-7.00865 -5.07936,-10.15873 -0.6641,-0.99614 -1.87558,-1.54354 -2.53968,-2.53968 -1.05003,-1.57504 -1.48965,-3.50433 -2.53969,-5.07936 -1.32819,-1.99229 -3.75116,-3.08708 -5.07935,-5.07937 -1.05004,-1.57505 -1.20116,-3.74084 -2.53969,-5.07936 0.48101,-13.12083 -7.00864,-2.97931 -10.15873,-5.07937 -1.69312,-1.69313 -3.38624,-3.38624 -5.07937,-5.07937 -0.84656,0 -1.7825,0.37859 -2.53968,0 -3.04762,-1.52381 -4.57143,-6.09524 -7.61905,-7.61904 -0.75718,-0.3786 -1.94107,0.5986 -2.53968,0 -0.59861,-0.59861 0,-1.69312 0,-2.53969 -0.84656,0 -1.94107,0.59862 -2.53969,0 -1.19721,-1.19721 1.19723,-3.88215 0,-5.07936 -0.5986,-0.59862 -1.94106,0.59861 -2.53967,0 -1.33854,-1.33853 -1.94108,-3.28354 -2.53968,-5.07937 -0.26771,-0.80312 0.5986,-1.94107 0,-2.53968 -0.59861,-0.59861 -1.94108,0.59861 -2.53969,0 -1.19722,-1.19722 0.75719,-3.56499 0,-5.07936 -0.53542,-1.07082 -2.00427,-1.46886 -2.53968,-2.53969 -0.3786,-0.75718 0.37859,-1.7825 0,-2.53968 -1.52381,-3.04762 -6.09524,-4.57143 -7.61905,-7.61905 -0.37859,-0.75718 0.3786,-1.78249 0,-2.53968 -0.53541,-1.07082 -1.69312,-1.69312 -2.53968,-2.53969 -0.84656,-0.84655 -1.69312,-1.69311 -2.53969,-2.53967 -1.33705,-1.33706 -6.26264,-6.94085 -7.61904,-7.61905 -0.75719,-0.3786 -1.94108,0.5986 -2.53969,0 -0.5986,-0.59861 0.59861,-1.94107 0,-2.53969 -0.5986,-0.5986 -1.94106,0.59862 -2.53968,0 -0.10219,-0.10219 0,-9.22606 0,-10.158727 0,-11.851849 0,-23.703701 0,-35.555552"
       id="path156"
       inkscape:connector-curvature="0" />
    <path
       style="fill:none;fill-rule:evenodd;stroke:#000000;stroke-width:0.9375px;stroke-linecap:butt;stroke-linejoin:miter;stroke-opacity:1"
       d="m 495.23809,247.28285 c 0,-7.61905 0,-15.23809 0,-22.85714 0,-0.84657 0.2677,-1.73656 0,-2.53968 -0.59861,-1.79583 -1.94108,-3.28354 -2.53968,-5.07937 -0.26771,-0.80312 0.37859,-1.78249 0,-2.53969 -0.41041,-0.8208 -9.00242,-9.38784 -10.15873,-10.15873 -1.57505,-1.05002 -3.50432,-1.48965 -5.07937,-2.53967 -1.99229,-1.3282 -2.93772,-4.00855 -5.07936,-5.07937 -1.1301,-0.56505 -8.99712,0.38721 -10.15873,0 -1.13579,-0.37859 -1.46886,-2.00427 -2.53968,-2.53968 -0.75719,-0.3786 -1.7825,0.37859 -2.53969,0 -2.14164,-1.07083 -2.93771,-4.00854 -5.07937,-5.07936 -0.75718,-0.3786 -1.69311,0 -2.53967,0 -0.84657,0 -1.69313,0 -2.53969,0 -2.53968,0 -5.07937,0 -7.61904,0 -9.31217,0 -18.62434,0 -27.93651,0 -1.69313,0 -3.38625,0 -5.07937,0 -0.84656,0 -1.94107,-0.59862 -2.53968,0 -0.59861,0.5986 0.59861,1.94106 0,2.53967 -0.59861,0.59862 -1.69312,0 -2.53968,0 -0.84656,0.84657 -1.87559,1.54354 -2.53969,2.53969 -4.81124,-0.28923 -1.69312,5.92592 -2.53968,7.61905 -0.53541,1.07082 -1.69312,1.69312 -2.53969,2.53967 0,1.69313 0.53542,3.47314 0,5.07937 -0.37859,1.13578 -2.16108,1.40391 -2.53967,2.53969 -0.53542,1.60623 0,3.38624 0,5.07936 0,5.07937 0,10.15873 0,15.2381 0,13.54497 0,27.08994 0,40.63492 0,5.92592 0,11.85185 0,17.77777 0,0.84656 0,1.69313 0,2.53969 0,0.84656 -0.75719,2.16109 0,2.53968 1.51437,0.75719 3.47312,-0.53541 5.07936,0 1.13578,0.3786 1.4039,2.16108 2.53968,2.53968 1.60624,0.53541 3.38625,0 5.07937,0 4.2328,0 8.46561,0 12.69841,0 15.23809,0 30.47619,0 45.71429,0 1.69312,0 3.38624,0 5.07936,0 0.84656,0 1.94108,0.59861 2.53968,0 0.0817,-0.0817 0,-7.0031 0,-7.61905 0,-8.46561 0,-16.93121 0,-25.39682 0,-2.77309 -0.54747,-11.05598 0,-12.69842 0.59861,-1.79583 1.48966,-3.50432 2.53969,-5.07936 0.66409,-0.99614 2.16108,-1.4039 2.53968,-2.53968 0.53541,-1.60624 -0.53541,-3.47313 0,-5.07937 0.10516,-0.31549 7.18334,-7.40119 7.61905,-7.61904 0.75718,-0.3786 1.7825,0.37859 2.53968,0 2.49912,-1.24957 7.65961,-8.90918 10.15873,-10.15873 1.51437,-0.75719 3.56499,0.75718 5.07936,0 1.07083,-0.53542 1.46886,-2.00427 2.53969,-2.53969 1.51437,-0.75718 3.56498,0.75719 5.07936,0 1.07083,-0.53541 1.4039,-2.16109 2.53968,-2.53968 1.51024,-0.50342 12.2382,0 15.2381,0 0.84656,0 1.7825,0.37859 2.53968,0 5.61538,-2.80769 0.78812,-1.57623 2.53969,-5.07936 0.5354,-1.07083 2.00426,-1.46886 2.53967,-2.53969 0.3786,-0.75718 -0.37859,-1.78249 0,-2.53968 0.53542,-1.07082 2.00428,-1.46886 2.53969,-2.53969 0.37859,-0.75718 -0.3786,-1.78248 0,-2.53967 0.53541,-1.07083 2.09504,-1.4281 2.53968,-2.53968 1.29633,-3.24082 1.4359,-6.8474 2.53969,-10.15873 0.5986,-1.79583 1.94106,-3.28354 2.53968,-5.07937 0.7619,-2.28572 -0.76191,-5.33333 0,-7.61905 5.64374,-16.93122 -1.41094,5.92593 7.61904,-7.61905 0.93918,-1.40876 -0.41063,-3.4368 0,-5.07936 4.27667,-17.10665 0.0392,-0.0392 5.07937,-5.07937 0.59861,-0.59861 -0.3786,-1.78249 0,-2.53968 0.53541,-1.07083 2.00427,-1.46886 2.53968,-2.53968 0.37859,-0.75719 0,-1.69313 0,-2.53968 0,-1.69313 0,-3.38625 0,-5.07937 0,-5.07936 0,-10.15873 0,-15.23809 0,-0.9678 0.24651,-12.45191 0,-12.69841 -0.59861,-0.59862 -1.94107,0.5986 -2.53968,0 -0.59861,-0.59862 0.59861,-1.94108 0,-2.53969 -0.1022,-0.1022 -9.22606,0 -10.15874,0 -4.2328,0 -8.4656,0 -12.69841,0 -0.84656,0 -1.94107,-0.59861 -2.53967,0 -1.33854,1.33853 -1.20116,3.74083 -2.53969,5.07936 -2.67706,2.67706 -7.48167,2.40231 -10.15873,5.07937 -1.33853,1.33853 -1.48965,3.50432 -2.53968,5.07937 -4.21153,6.31729 -0.58357,0.29178 -5.07937,2.53967 -2.49912,1.24957 -7.65961,8.90918 -10.15873,10.15874 -0.75719,0.3786 -1.78249,-0.3786 -2.53968,0 -1.07083,0.53541 -1.69312,1.69312 -2.53968,2.53968 -0.84657,0.84657 -2.00427,1.46886 -2.53968,2.53968 -0.3786,0.75719 0.70438,2.07009 0,2.53969 -2.22745,1.48496 -5.13346,1.54544 -7.61905,2.53968 -1.75758,0.70303 -3.32179,1.83665 -5.07937,2.53968 -2.48558,0.99423 -5.32348,1.16234 -7.61904,2.53968 -2.05321,1.23193 -2.93773,4.00855 -5.07937,5.07937 -2.03175,1.01587 -5.5873,-1.01588 -7.61904,0 -1.07083,0.53541 -1.46887,2.00427 -2.53969,2.53968 -2.03174,1.01587 -5.5873,-1.01587 -7.61904,0 -3.52519,1.76259 -2.53969,4.51891 -2.53969,7.61905 0,0.84656 0.3786,1.7825 0,2.53968 -1.07082,2.14165 -4.00854,2.93772 -5.07937,5.07936 -0.37859,0.75719 0.59862,1.94108 0,2.53969 -0.5986,0.5986 -1.94107,-0.59861 -2.53968,0 -0.59861,0.5986 0.59861,1.94108 0,2.53968 -0.59861,0.59861 -1.78249,-0.37859 -2.53968,0 -1.07082,0.53541 -1.46886,2.00427 -2.53968,2.53969 -0.66779,0.33389 -8.83068,0 -10.15873,0 -0.84656,0 -2.53968,0.84655 -2.53968,0 0,-0.84657 2.53968,0.84655 2.53968,0 0,-1.19723 -2.00427,-1.46887 -2.53968,-2.53969 -0.3786,-0.75718 0.5986,-1.94108 0,-2.53968 -1.19723,-1.19722 -3.88215,1.19722 -5.07937,0 -1.33853,-1.33853 -1.48966,-3.50433 -2.53968,-5.07937 -1.54127,-2.31191 -6.49354,-5.36803 -7.61905,-7.61905 -0.3786,-0.75718 0.59861,-1.94106 0,-2.53968 -0.1151,-0.1151 -11.50096,0 -12.69842,0 -2.53967,0 -5.07936,0 -7.61904,0 -0.84656,0 -1.94107,-0.59861 -2.53968,0 -2.04379,2.04378 2.29173,4.33551 2.53968,5.07937 0,11.56135 -1.19722,0.14525 2.53968,7.61904 0.75719,1.51437 -1.19722,3.88215 0,5.07937 1.26984,1.26984 6.34921,-1.26985 7.61905,0 0.59861,0.59861 -0.59861,1.94107 0,2.53969 0.59861,0.5986 1.69313,0 2.53968,0 0.84656,0 1.69312,0 2.53969,0"
       id="path158"
       inkscape:connector-curvature="0" />
    <path
       style="fill:none;fill-rule:evenodd;stroke:#000000;stroke-width:0.9375px;stroke-linecap:butt;stroke-linejoin:miter;stroke-opacity:1"
       d="m 401.26984,191.40983 c 18.62433,-3.38625 37.24867,-6.77249 55.87301,-10.15873 0.84656,0 1.7825,0.3786 2.53969,0 1.07082,-0.5354 1.46885,-2.00427 2.53968,-2.53968 1.51437,-0.75719 3.47312,0.53541 5.07936,0 1.79583,-0.59861 3.28354,-1.94107 5.07937,-2.53968 0.80312,-0.26771 1.69312,0 2.53967,0 1.69313,0 3.38625,0 5.07937,0 0.61595,0 7.53738,-0.0817 7.61905,0 0.59861,0.59861 0,1.69312 0,2.53968 0,5.7506 1.79583,7.2684 -2.53968,10.15874 -1.57504,1.05002 -3.28354,1.94106 -5.07937,2.53967 -1.60624,0.53542 -3.88214,-1.19721 -5.07936,0 -0.59861,0.59862 0.59861,1.94108 0,2.53969 -0.1022,0.1022 -9.22606,0 -10.15873,0"
       id="path160"
       inkscape:connector-curvature="0" />
    <path
       style="fill:none;fill-rule:evenodd;stroke:#000000;stroke-width:0.9375px;stroke-linecap:butt;stroke-linejoin:miter;stroke-opacity:1"
       d="m 495.23809,247.28285 c -25.72872,-8.8432 -1.90155,-26.34761 5.07936,-22.85714 0.27903,0.13951 12.06107,11.42372 12.69841,12.69842 0.3786,0.75718 -0.5986,1.94106 0,2.53967 5.2547,5.2547 -0.2054,-8.02986 5.07937,2.53968 0.3786,0.75719 -0.37859,1.7825 0,2.53969 0.53541,1.07082 2.00427,1.46886 2.53969,2.53968 0.37859,0.75719 -0.3786,1.78249 0,2.53968 0.5354,1.07083 2.00427,1.46886 2.53967,2.53968 0.3786,0.75719 0,1.69313 0,2.53969 0,2.53968 0,5.07937 0,7.61904 0,8.46561 0,16.93123 0,25.39683 0,5.07937 0,10.15873 0,15.2381 0,0.84655 -0.5986,1.94107 0,2.53968 0.59862,0.59861 1.69313,0 2.53969,0 1.32805,0 9.49094,0.33389 10.15873,0 1.07082,-0.53541 2.00426,-1.46886 2.53968,-2.53968 0.33389,-0.66779 0,-8.83068 0,-10.15873 0,-6.77249 0,-13.54497 0,-20.31747 0,-2.91215 0.65771,-7.52789 0,-10.15873 -0.45911,-1.83645 -1.94107,-3.28353 -2.53968,-5.07936 -0.26771,-0.80312 0.37859,-1.7825 0,-2.53968 -0.53541,-1.07082 -2.00427,-1.46886 -2.53969,-2.53969 -0.75718,-1.51437 1.19722,-3.88214 0,-5.07936 -0.5986,-0.59861 -1.94107,0.59861 -2.53967,0 -0.59862,-0.59861 0,-1.69312 0,-2.53968 0,-0.84656 0,-1.69313 0,-2.53969 0,-1.69311 0,-3.38624 0,-5.07935 0,-1.69313 0.5354,-3.47314 0,-5.07937 -0.3786,-1.13578 -2.00427,-1.46887 -2.53969,-2.53969 -0.37859,-0.75718 0.37859,-1.7825 0,-2.53968 -0.53541,-1.07083 -1.69312,-1.69312 -2.53968,-2.53968 -0.84656,-0.84657 -1.46886,-2.00428 -2.53969,-2.53968 -0.75718,-0.3786 -1.69311,0 -2.53967,0 -15.32784,0 -4.97084,-0.13568 -25.39683,25.39682"
       id="path162"
       inkscape:connector-curvature="0" />
    <path
       style="fill:none;fill-rule:evenodd;stroke:#000000;stroke-width:0.9375px;stroke-linecap:butt;stroke-linejoin:miter;stroke-opacity:1"
       d="m 535.87301,206.64793 c 3.38624,-0.84656 6.84739,-1.4359 10.15872,-2.53969 14.38905,-7.19451 -3.78593,0.94649 10.15874,-2.53967 12.26399,-3.066 -0.12587,-1.20691 7.61905,-5.07937 1.59624,-0.79812 8.56248,0.79812 10.15873,0 1.07082,-0.53542 1.4039,-2.16109 2.53968,-2.53968 1.48591,-0.49531 13.05821,0 15.23809,0 1.69313,0 3.47313,0.53541 5.07937,0 1.13578,-0.3786 1.46886,-2.00427 2.53968,-2.53969 0.75719,-0.37859 1.94107,0.59862 2.53969,0 0.5986,-0.59861 -0.26772,-1.73655 0,-2.53967 4.38332,-13.15002 1.55934,5.88198 5.07936,-15.2381 0.27835,-1.67009 -0.75719,-3.56499 0,-5.07937 0.37859,-0.75719 1.94108,0.59862 2.53968,0 0.59861,-0.59861 0,-1.69312 0,-2.53968 0,-0.84656 0,-1.69312 0,-2.53968 0,-12.58667 -0.21,-0.64963 2.53969,-25.39683 0.0604,-0.54378 0.23938,-7.53925 0,-7.61904 -1.79402,-0.59801 -14.7439,0 -17.77779,0 -0.84655,0 -1.69311,0 -2.53968,0 -0.84656,0 -1.94107,-0.59862 -2.53968,0 -0.59861,0.59861 0.46959,1.83529 0,2.53967 -1.3282,1.99229 -3.38624,3.38625 -5.07937,5.07937 -0.84655,0.84656 -2.00426,1.46887 -2.53968,2.53969 -0.37859,0.75718 0.50794,1.86243 0,2.53968 -2.15499,2.87332 -5.37536,4.81443 -7.61904,7.61905 -1.18253,1.47815 -1.94108,3.28354 -2.53969,5.07936 -0.2677,0.80312 0.59861,1.94107 0,2.53968 -0.5986,0.59861 -1.94107,-0.59861 -2.53968,0 -5.25469,5.2547 8.02987,-0.2054 -2.53968,5.07937 -0.75718,0.37859 -1.94108,-0.59861 -2.53968,0 -0.59861,0.59861 0.5986,1.94107 0,2.53968 -1.19723,1.19722 -3.565,-0.75719 -5.07937,0 -1.07082,0.53541 -1.46885,2.00427 -2.53968,2.53968 -0.77292,0.38646 -6.47528,0 -7.61905,0"
       id="path164"
       inkscape:connector-curvature="0" />
    <path
       style="fill:none;fill-rule:evenodd;stroke:#000000;stroke-width:0.9375px;stroke-linecap:butt;stroke-linejoin:miter;stroke-opacity:1"
       d="m 546.03173,97.441584 c -10.15873,2.539678 -20.04098,8.488646 -30.47618,7.619046 -3.37455,-0.28121 0.5567,-6.818561 0,-10.158733 -0.3112,-1.867209 -1.69312,-3.38624 -2.53969,-5.079362 -1.69311,-3.386243 -3.38624,-6.772487 -5.07936,-10.158729 -0.84656,-1.693123 -2.08057,-3.242918 -2.53968,-5.079366 -0.41065,-1.642569 0.53541,-3.473128 0,-5.079365 -0.75719,-2.271561 -3.75117,-3.087074 -5.07937,-5.079364 -1.05003,-1.575045 -1.40389,-3.564992 -2.53967,-5.079366 -1.43667,-1.915549 -3.75118,-3.087074 -5.07937,-5.079365 -0.46959,-0.704381 0.5986,-1.941074 0,-2.539683 -0.90558,-6.23876 -5.3916,-1.054716 -7.61905,-2.539682 -1.99229,-1.328194 -3.38624,-3.386243 -5.07937,-5.079365 -0.84656,-0.846561 -1.46886,-2.00427 -2.53968,-2.539683 -0.66779,-0.333893 -8.83068,0 -10.15873,0 -8.4656,0 -16.93121,0 -25.39683,0 -4.2328,0 -8.4656,0 -12.69841,0 -0.84656,0 -1.94107,-0.598609 -2.53968,0 -0.59861,0.59861 0,1.693122 0,2.539683 0,2.539683 0,5.079365 0,7.619047 0,5.079365 0,10.158731 0,15.238095 0,0.846561 -0.59861,1.941075 0,2.539683 0.59861,0.598609 1.94107,-0.598608 2.53968,0 0.59862,0.598609 -0.59861,1.941073 0,2.539683 0.59862,0.598609 1.69313,0 2.53968,0 1.69313,0 3.38625,0 5.07937,0 8.46561,0 16.93122,0 25.39683,0 1.32805,0 9.49094,-0.333894 10.15873,0 1.07082,0.535412 1.46885,2.00427 2.53968,2.539682 0.75719,0.378593 1.78249,-0.378593 2.53968,0 1.07082,0.535412 1.46886,2.004271 2.53968,2.539683 0.75719,0.378593 1.94108,-0.598609 2.53969,0 0.5986,0.598609 -0.59861,1.941073 0,2.539683 0.5986,0.598608 1.94107,-0.59861 2.53968,0 1.19721,1.197217 -0.75718,3.564991 0,5.079364 1.07082,2.141649 4.00854,2.937717 5.07936,5.079365 0.37859,0.757187 -0.37859,1.782496 0,2.539683 1.07082,2.141644 4.00855,2.937713 5.07937,5.079366 0.75719,1.514372 -0.75719,3.564996 0,5.079366 0.53541,1.07082 2.00427,1.46886 2.53969,2.53968 0.37859,0.75719 -0.3786,1.7825 0,2.53969 0.5354,1.07082 2.00426,1.46885 2.53967,2.53967 1.01588,2.03175 -1.01587,5.58731 0,7.61906 0.53542,1.07082 2.00428,1.46885 2.53969,2.53968 0.75718,1.51437 -1.19722,3.88215 0,5.07936 1.26984,1.26984 6.3492,-1.26984 7.61904,0 1.19722,1.19722 -1.28551,6.18124 0,5.07937 12.27986,-10.5256 23.7037,-22.01058 35.55555,-33.015876"
       id="path166"
       inkscape:connector-curvature="0" />
    <path
       style="fill:#5a675c;fill-rule:evenodd;stroke:#000000;stroke-width:0.9375px;stroke-linecap:butt;stroke-linejoin:miter;stroke-opacity:1;fill-opacity:1"
       d="m 460.62955,665.36154 c 0.59862,1.19722 0.99271,2.52084 1.79583,3.59166 0.17958,0.23945 0.59861,0 0.89791,0 0.59861,0 1.19723,0 1.79583,0 4.19027,0 8.38053,0 12.57079,0 0.32974,0 3.55552,0.0361 3.59165,0 0.42328,-0.42328 -0.2677,-1.26041 0,-1.79583 0.1893,-0.37859 0.66312,-0.54572 0.89791,-0.89791 0.37124,-0.55686 0.42468,-1.32259 0.89792,-1.79583 0.47324,-0.47324 1.23896,-0.52667 1.79583,-0.89791 0.70438,-0.46959 1.09144,-1.32624 1.79582,-1.79582 0.55686,-0.37125 1.23897,-0.52668 1.79583,-0.89792 0.35219,-0.2348 0.51931,-0.70862 0.89791,-0.89791 0.53541,-0.26771 1.22794,0.18929 1.79583,0 0.63491,-0.21164 1.16091,-0.68628 1.79582,-0.89792 0.53541,-0.17846 4.51752,0 5.38749,0 0.2993,0 0.68626,-0.21164 0.8979,0 0.21165,0.21164 -0.13384,0.63021 0,0.89792 0.1893,0.37859 0.59862,0.5986 0.89792,0.89791 0,0.59861 -0.1893,1.22794 0,1.79583 0.13386,0.40156 0.76407,0.49635 0.89791,0.89791 0.26938,0.80812 -0.26937,1.88562 0,2.69374 0.21164,0.63492 0.68628,1.16091 0.89792,1.79583 0.0947,0.28394 -0.13385,0.63021 0,0.89791 0.18929,0.37859 0.70861,0.51932 0.89791,0.89791 0.35917,0.71833 -0.35916,1.97542 0,2.69375 0.1893,0.37859 0.70862,0.51932 0.89792,0.89791 0.13385,0.2677 0,0.59861 0,0.89791 0,0.59861 -0.1893,1.22793 0,1.79582 0.13385,0.40156 0.70861,0.51932 0.89791,0.89792 0.46386,0.92772 -0.81579,2.1225 0.89791,2.69374 0.56789,0.1893 1.29775,-0.33204 1.79583,0 0.55686,0.37124 0.42467,1.32259 0.89792,1.79583 0.21164,0.21164 0.68626,-0.21164 0.8979,0 0.21165,0.21164 -0.21164,0.68627 0,0.89791 0.21165,0.21164 0.59862,0 0.89792,0 0.2993,0 0.59861,0 0.89791,0 0.29931,0 0.68627,0.21164 0.89791,0 0.21164,-0.21164 0,-0.59861 0,-0.89791 0,-0.89792 0,-1.79583 0,-2.69374 0,-3.29235 0,-6.5847 0,-9.87705 0,-2.39444 0,-4.78887 0,-7.1833 0,-0.29931 0,-0.59862 0,-0.89792 0,-0.29931 -0.29929,-0.89791 0,-0.89791 0.29931,0 0,1.19721 0,0.89791 0,-0.0883 0.0463,-5.29488 0,-5.38748 -0.13384,-0.26771 -0.68627,0.21164 -0.89791,0 -0.47324,-0.47325 -0.52667,-1.23897 -0.89791,-1.79582 -0.23479,-0.3522 -0.70862,-0.51932 -0.89792,-0.89792 -0.13385,-0.26771 0.21165,-0.68627 0,-0.89791 -0.47324,-0.47324 -1.23896,-0.52667 -1.79582,-0.89792 -0.35219,-0.23479 -0.59861,-0.5986 -0.89791,-0.89791 -0.29931,-0.29931 -0.66312,-0.54572 -0.89792,-0.89791 -0.54682,-0.82024 -0.76645,-2.17905 -1.79582,-2.69375 -0.53542,-0.2677 -1.37255,0.42328 -1.79583,0 -1.85781,-1.85781 2.83899,0.0727 -0.89792,-1.79583 -0.2677,-0.13384 -0.5986,0 -0.89791,0 -0.2993,0 -0.59861,0 -0.89792,0 -1.49652,0 -2.99304,0 -4.48956,0 -1.79583,0 -3.59165,0 -5.38748,0 -0.2993,0 -0.59861,0 -0.89791,0 -0.2993,0 -0.63021,-0.13384 -0.89791,0 -0.37859,0.1893 -0.51932,0.70862 -0.89792,0.89792 -0.18418,0.0921 -2.56711,0.12663 -2.69374,0 -0.21164,-0.21164 0.0947,-0.61397 0,-0.89792 -0.21164,-0.63491 -0.68627,-1.1609 -0.89791,-1.79581 -0.1893,-0.56789 0.2677,-1.26043 0,-1.79583 -0.1893,-0.3786 -0.70862,-0.51932 -0.89792,-0.89792 -0.178,-0.35602 0.18357,-2.51018 0,-2.69374 -0.21164,-0.21164 -0.68627,0.21164 -0.89791,0 -0.21164,-0.21164 0.0726,-0.60755 0,-0.89791 -0.22955,-0.91822 -0.71229,-1.76564 -0.89792,-2.69374 -0.23478,-1.17397 0.29038,-2.43018 0,-3.59165 -0.16231,-0.64929 -0.68626,-1.16091 -0.89791,-1.79583 -0.0947,-0.28395 0.13386,-0.63021 0,-0.89792 -0.1893,-0.37859 -0.59861,-0.5986 -0.8979,-0.89791 -0.29931,-0.2993 -0.51932,-0.70862 -0.89792,-0.89791 -0.26771,-0.13385 -0.68627,0.21163 -0.89791,0 -0.21164,-0.21164 0.13384,-0.63021 0,-0.89792 -0.5147,-1.02938 -1.87351,-1.249 -2.69374,-1.79582 -0.35219,-0.23479 -0.54573,-0.66313 -0.89792,-0.89791 -0.55686,-0.37124 -1.23896,-0.52668 -1.79583,-0.89792 -0.35219,-0.23479 -0.49635,-0.76406 -0.89791,-0.89791 -2.69373,-0.89791 -0.89792,0.44896 -2.69373,0 -0.91823,-0.22956 -1.77553,-0.66835 -2.69375,-0.89791 -0.47095,-0.11774 -3.43796,0.15368 -3.59165,0 -0.21164,-0.21164 0,-0.59861 0,-0.89792 0,-1.70941 -0.23229,-2.98263 0.89791,-4.48957 0.50794,-0.67725 1.28789,-1.11857 1.79583,-1.79582 0.80312,-1.07083 0.84934,-2.64517 1.79583,-3.59166 0.21164,-0.21164 0.68627,0.21164 0.89791,0 0.47324,-0.47324 0.52667,-1.23896 0.89792,-1.79582 0.23478,-0.35219 0.70861,-0.51933 0.89791,-0.89792 0.13385,-0.2677 -0.16603,-0.64887 0,-0.89791 0.46958,-0.70438 1.19721,-1.19721 1.79582,-1.79582 0.29931,-0.29931 0.51932,-0.70862 0.89791,-0.89792 0.84657,-0.42328 1.79583,-0.59861 2.69375,-0.89791 0.89791,-0.29931 1.76563,-0.7123 2.69374,-0.89791 0.58698,-0.11741 1.21508,0.14518 1.79583,0 0.64927,-0.16233 1.13955,-0.76666 1.79581,-0.89792 1.46747,-0.29349 2.99306,0 4.48958,0 3.29235,0 6.58469,0 9.87704,0 0.89792,0 1.80486,0.12698 2.69375,0 1.22165,-0.17453 2.37437,-0.69504 3.59164,-0.89791 2.03324,-0.33888 4.26515,0.40404 6.2854,0 0.65627,-0.13126 1.1609,-0.68628 1.79583,-0.89792 1.17074,-0.39024 2.40507,-0.55889 3.59165,-0.89791 0.89791,-0.2993 1.79583,-0.59861 2.69374,-0.89792 0.59861,-0.29929 1.16091,-0.68627 1.79583,-0.89791 2.26721,-0.75573 -0.93513,1.82374 2.69373,-0.89791 0.67725,-0.50793 1.11858,-1.28789 1.79583,-1.79582 0.53542,-0.40156 1.26042,-0.49636 1.79583,-0.89792 0.67725,-0.50794 1.11858,-1.28789 1.79583,-1.79582 0.53541,-0.40156 1.26041,-0.49636 1.79583,-0.89792 0.67724,-0.50794 1.11858,-1.28789 1.79582,-1.79583 0.53541,-0.40156 1.23897,-0.52667 1.79582,-0.89791 0.70439,-0.46959 1.11858,-1.28789 1.79583,-1.79583 0.86333,-0.64749 1.83041,-1.14833 2.69374,-1.79582 0.77434,-0.58076 3.12233,-3.43521 3.59166,-3.59166 0.56789,-0.18929 1.22793,0.1893 1.79582,0 3.32866,-1.10955 -1.09451,-0.89791 1.79583,-0.89791 0.29931,0 0.89791,-0.29931 0.89791,0 0,0.29931 -0.5986,0 -0.89791,0 -1.49652,0 -2.99304,0 -4.48956,0 -6.2854,0 -12.57079,0 -18.85618,0 -1.52768,0 -3.25865,-0.33301 -4.48957,0.89791 -0.21164,0.21164 0.13385,0.63022 0,0.89792 -0.7805,1.56097 -1.91325,2.92858 -2.69375,4.48956 -0.13384,0.26771 0.21164,0.68627 0,0.89791 -0.21164,0.21164 -0.68627,-0.21164 -0.89791,0 -1.85781,1.85782 2.83899,-0.0727 -0.89791,1.79583 -0.89791,0.29931 -1.79582,0.59861 -2.69374,0.89792 -0.29931,0 -0.61397,-0.0947 -0.89791,0 -6.50396,2.16799 1.41565,-0.25887 -2.69374,1.79583 -0.26771,0.13385 -0.68628,-0.21164 -0.89792,0 -0.21164,0.21163 0.21164,0.68627 0,0.89791 -0.21164,0.21164 -0.5986,0 -0.89791,0 -0.2993,0 -0.59861,0 -0.89792,0 -1.49652,0 -2.99304,0 -4.48956,0 -3.29235,0 -6.5847,0 -9.87705,0 -0.47967,0 -4.23258,-0.1285 -4.48957,0 -2.44767,1.22384 -3.83771,3.26572 -6.28539,4.48956 -0.95364,0.47683 -0.84219,-0.47682 -1.79582,0 -0.3786,0.1893 -0.59861,0.59862 -0.89792,0.89791 -0.89791,0.29931 -1.84717,0.47464 -2.69374,0.89792 -0.37859,0.1893 -0.55929,0.64394 -0.89792,0.89791 -0.86332,0.64749 -1.7285,1.31321 -2.69373,1.79583 -0.26771,0.13386 -0.59861,0 -0.89791,0 -0.29931,0.29931 -0.51932,0.70862 -0.89792,0.89792 -0.2677,0.13384 -0.64126,-0.154 -0.89791,0 -1.19722,0.89791 -2.39444,1.79582 -3.59166,2.69374 0,0.2993 0.21164,0.68626 0,0.8979 -0.21164,0.21165 -0.68627,-0.21164 -0.89791,0 -0.47324,0.47325 -0.42467,1.32259 -0.89791,1.79583 -1.85782,1.85782 0.0727,-2.83898 -1.79583,0.89792 -0.13385,0.2677 0.16603,0.64887 0,0.89791 -1.79582,2.69374 -1.34687,0.89791 -2.69374,2.69374 -0.61474,0.81965 -2.27592,3.23613 -2.69374,4.48956 -0.0947,0.28395 0.0726,0.60755 0,0.89792 -0.22955,0.91823 -0.66836,1.77552 -0.89792,2.69374 -0.0726,0.29037 0.0947,0.61397 0,0.89792 -0.5436,1.63081 -0.76847,1.66639 -1.79582,2.69374 -0.2993,0.2993 -0.70861,0.51932 -0.89791,0.89791 -0.13385,0.26771 0.21164,0.68627 0,0.89791 -0.21164,0.21165 -0.63021,-0.13385 -0.89791,0 -0.96523,0.48261 -1.83042,1.14833 -2.69375,1.79583 -1.70182,1.27636 -0.44163,1.64373 -3.59165,2.69374 -0.85184,0.28394 -1.82264,-0.21778 -2.69373,0 -1.56369,0.39092 -2.94575,1.33268 -4.48958,1.79583 -1.42875,3.20813 -3.62123,0.45635 -5.38747,0.89791 -0.91823,0.22955 -1.77553,0.66836 -2.69374,0.89791 -0.29037,0.0726 -0.59861,0 -0.89792,0 -0.89791,0.2993 -1.81495,0.5464 -2.69374,0.89792 -0.62139,0.24856 -1.13567,0.78788 -1.79583,0.89791 -1.18093,0.19682 -2.39443,0 -3.59165,0 -2.09513,0 -4.19026,0 -6.2854,0 -0.76022,0 -3.10892,-0.16091 -3.59164,0 -0.40156,0.13385 -0.51932,0.70861 -0.89792,0.89791 -0.26771,0.13385 -0.61397,-0.0947 -0.89791,0 -0.63492,0.21164 -1.16091,0.68627 -1.79583,0.89791 -0.28395,0.0947 -0.60755,-0.0726 -0.89791,0 -0.91822,0.22956 -1.76014,0.74232 -2.69375,0.89792 -0.45746,0.0762 -4.92353,-0.23197 -5.38747,0 -0.3786,0.18929 -0.49636,0.76406 -0.89792,0.89791 -0.80812,0.26937 -1.88561,-0.26937 -2.69374,0 -0.63492,0.21164 -1.1609,0.68628 -1.79583,0.89791 -0.28394,0.0947 -0.6302,-0.13385 -0.8979,0 -0.3786,0.1893 -0.51932,0.70862 -0.89792,0.89792 -0.26771,0.13386 -0.59861,0 -0.89791,0 -0.59862,0.29931 -1.26042,0.49635 -1.79583,0.89791 -0.67725,0.50794 -1.11858,1.28789 -1.79583,1.79583 -0.53541,0.40156 -1.26041,0.49636 -1.79583,0.89792 -0.67725,0.50792 -1.19721,1.19721 -1.79583,1.79581 -0.8979,0.89792 -1.98935,1.63718 -2.69373,2.69375 -1.05003,1.57504 -0.94927,3.69436 -1.79583,5.38748 -0.18929,0.3786 -0.70861,0.51932 -0.89791,0.89792 -0.2677,0.5354 0.42328,1.37254 0,1.79582 -0.21164,0.21164 -0.73189,-0.24903 -0.89792,0 -2.16636,1.08397 -0.21539,3.12453 -0.89791,4.48957 -0.13385,0.2677 -0.68627,-0.21164 -0.89791,0 -0.21164,0.21164 0.11116,0.62001 0,0.89791 -0.49712,1.2428 -1.10716,2.44387 -1.79583,3.59165 -0.21778,0.36297 -0.59861,0.59861 -0.89791,0.89791 -0.59861,0.89792 -1.31322,1.72852 -1.79583,2.69375 -0.42327,0.84655 -0.66836,1.77551 -0.89791,2.69374 -0.0726,0.29036 0.21164,0.68627 0,0.89791 -0.21164,0.21164 -0.59861,0 -0.89791,0 -0.89792,0.89792 -1.90048,1.70216 -2.69375,2.69374 -0.41809,0.5226 -0.52667,1.23897 -0.89791,1.79582 -0.63138,0.94708 -3.17074,2.48329 -3.59165,2.69375 -0.26711,0.13355 -5.00976,0 -5.38748,0 -3.29235,0 -6.5847,0 -9.87705,0 -0.59861,0 -1.19721,0 -1.79583,0 -0.2993,0 -0.68627,0.21164 -0.89791,0 -0.42328,-0.42328 0.42328,-1.37255 0,-1.79583 -0.21164,-0.21164 -0.68627,0.21164 -0.89792,0 -0.2756,-0.27561 0.16663,-2.92517 0,-3.59165 -0.16231,-0.64929 -0.68626,-1.16091 -0.8979,-1.79583 -0.21398,-0.64193 0,-5.27709 0,-6.2854 0,-0.2993 0.13385,-0.6302 0,-0.89791 -0.1893,-0.3786 -0.76407,-0.49635 -0.89792,-0.89791 -0.18929,-0.56789 0.26771,-1.26042 0,-1.79582 -0.26771,-0.53542 -1.37254,0.42327 -1.79582,0 -0.21164,-0.21164 0.21164,-0.68628 0,-0.89792 -0.42328,-0.42328 -1.37255,0.42328 -1.79583,0 -0.21164,-0.21164 0.21164,-0.68627 0,-0.89791 -0.0289,-0.0289 -2.47598,0 -2.69375,0 -2.09512,0 -4.19026,0 -6.28538,0 -0.89792,0 -1.79583,0 -2.69375,0 -0.5986,0 -1.22794,-0.1893 -1.79583,0 -0.63491,0.21164 -1.1609,0.68627 -1.79582,0.89791 -0.28395,0.0947 -0.63021,-0.13386 -0.89791,0 -0.15404,0.0771 -2.65656,2.58219 -2.69374,2.69374 -0.1893,0.56789 0.18929,1.22793 0,1.79582 -0.13386,0.40156 -0.59861,0.59862 -0.89792,0.89792 -0.2993,0.89791 -0.76405,1.75677 -0.89791,2.69374 -0.2963,2.07407 0.34444,4.21877 0,6.28539 -0.1556,0.93361 -0.71229,1.76564 -0.89791,2.69374 -0.1761,0.88048 0.28394,1.84191 0,2.69374 -0.21164,0.63492 -0.7356,1.14655 -0.89792,1.79583 -0.14518,0.58073 0,1.19722 0,1.79583 0,0.59861 0,1.19721 0,1.79582 0,2.99305 0,5.98609 0,8.97913 0,1.79583 0,3.59166 0,5.38749 0,0.29931 -0.21164,0.68627 0,0.89791 0.21164,0.21164 0.59861,0 0.89792,0 1.19722,0 2.39443,0 3.59165,0 2.39444,0 4.78887,0 7.18331,0 0.72285,0 3.02807,0.18786 3.59165,0 1.26984,-0.42328 2.39444,-1.19722 3.59165,-1.79583 0.59862,-0.2993 1.14655,-0.73559 1.79583,-0.89791 0.58074,-0.14518 1.19722,0 1.79583,0 1.49652,0 2.99304,0 4.48957,0 1.49652,0 2.99304,0 4.48956,0 0.29931,0 0.76406,-0.2677 0.89791,0 0.26771,0.53542 -0.18929,1.22794 0,1.79583 0.13386,0.40156 0.70862,0.51932 0.89792,0.89791 0.26489,0.52979 -0.20588,2.07613 0,2.69375 0.21164,0.63491 0.68627,1.1609 0.89791,1.79581 0.16199,0.48597 0,3.28576 0,3.59166 0,1.79583 0,3.59166 0,5.38748 0,1.49653 0.29349,3.02211 0,4.48957 -0.13125,0.65627 -0.5986,1.19722 -0.89791,1.79583 -0.29931,0.5986 -0.52667,1.23896 -0.89792,1.79582 -0.23479,0.35219 -0.70861,0.51933 -0.89791,0.89792 -0.13386,0.2677 0.21164,0.68626 0,0.89791 -0.21164,0.21164 -0.74392,-0.25665 -0.89791,0 -0.82926,1.3821 -1.22989,2.98038 -1.79583,4.48956 -0.33233,0.88623 -0.80373,1.75195 -0.89792,2.69375 -0.20847,2.08473 0.174,4.19749 0,6.28539 -0.12674,1.52089 -0.55473,3.00249 -0.8979,4.48957 -0.83248,3.60738 -1.96769,7.14466 -2.69374,10.77496 -0.0898,0.44902 0.12905,3.4626 0,3.59165 -0.0289,0.0289 -2.47598,0 -2.69375,0 -0.2993,0 -0.68627,0.21164 -0.89791,0 -0.21164,-0.21164 0,-0.59861 0,-0.89792 0,-0.5986 0,-1.19721 0,-1.79582 0,-0.89791 0,-1.79583 0,-2.69374 0,-2.5799 -0.33205,-1.82972 1.79583,-4.48957 4.62772,-5.78465 0.0229,-0.46038 2.69374,-1.79583 0.37859,-0.1893 0.59861,-0.59861 0.89791,-0.8979 0.59861,-0.59862 1.11857,-1.2879 1.79582,-1.79583 0.53542,-0.40156 1.23898,-0.52668 1.79583,-0.89792 0.70438,-0.46959 1.03864,-1.41723 1.79583,-1.79582 0.2677,-0.13386 0.68627,0.21163 0.89791,0 0.19334,-0.19334 -0.20491,-2.42052 0,-2.69375 0.89792,-0.89791 1.79583,-1.79583 2.69375,-2.69373 0.2993,0 0.6302,0.13385 0.89791,0 0.37859,-0.1893 0.54572,-0.66313 0.89792,-0.89791 0.55685,-0.37125 1.32257,-0.42468 1.79581,-0.89792 1.85782,-1.85782 -2.83898,0.0726 0.89792,-1.79583 0.26771,-0.13385 0.68627,0.21164 0.89791,0 0.0374,-0.0374 -0.0254,-4.36249 0,-4.48957 0.18563,-0.9281 0.66836,-1.77551 0.89792,-2.69373 0.0726,-0.29038 -0.11116,-0.62002 0,-0.89792 0.49712,-1.24279 1.19722,-2.39443 1.79583,-3.59165 0.2993,-0.59861 0.52667,-1.23896 0.89791,-1.79583 0.2348,-0.35219 0.59861,-0.59861 0.89791,-0.89792 0.2993,-0.29929 0.51933,-0.70861 0.89792,-0.89791 0.2677,-0.13385 0.6302,0.13386 0.89791,0 0.75719,-0.37859 1.03863,-1.41722 1.79582,-1.79582 0.26771,-0.13385 0.64889,0.16602 0.89792,0 0.70438,-0.46959 1.19722,-1.19722 1.79582,-1.79583 0.29931,-0.2993 0.51932,-0.70861 0.89792,-0.89791 0.2677,-0.13386 0.61397,0.0947 0.89791,0 1.26984,-0.42328 2.32181,-1.37255 3.59166,-1.79583 0.48595,-0.16198 3.28576,0 3.59165,0 3.29235,0 6.58469,0 9.87704,0 0.89792,0 1.79583,0 2.69375,0 0.2993,0 0.68627,0.21164 0.89791,0 0.21164,-0.21164 -0.29931,-0.89791 0,-0.89791 0.29931,0 0,0.5986 0,0.89791 0.59861,-0.59861 1.09145,-1.32623 1.79583,-1.79583 0.24903,-0.16602 0.5986,0 0.89791,0 0.62453,0 4.16485,-0.16235 4.48956,0 0.78236,0.39118 1.6396,2.0688 1.79583,2.69374 0.14519,0.58074 -0.14518,1.21509 0,1.79583 0.16232,0.64928 0.59861,1.19722 0.89792,1.79583 0.2993,0.89791 0.66835,1.77552 0.89791,2.69373 0.14518,0.58075 0,1.19723 0,1.79583 0,1.79583 0,3.59166 0,5.38749 0,0.5986 0,1.19721 0,1.79582 0,0.29931 0.2993,0.89791 0,0.89791 -0.29931,0 -0.29931,-0.89791 0,-0.89791 0.42328,0 0.59861,0.59861 0.89792,0.89791 0.29929,0.29931 0.70861,0.51932 0.89791,0.89792 0.13385,0.26771 -0.21164,0.68627 0,0.89791 0.21164,0.21164 0.68627,-0.21164 0.89791,0 0.0289,0.0289 0,2.47598 0,2.69374 0,0.59861 0.33205,1.29775 0,1.79583 -0.37124,0.55686 -1.26042,0.49636 -1.79582,0.89792 -0.67725,0.50792 -1.11858,1.28789 -1.79583,1.79581 -0.53542,0.40156 -1.23897,0.52668 -1.79583,0.89792 -0.35219,0.23479 -0.59861,0.59861 -0.89792,0.89791 -0.29929,0.29931 -0.70861,0.51932 -0.89791,0.89792 -0.13385,0.2677 0,0.5986 0,0.89791 0,0.59861 0,1.19722 0,1.79583 0,0.29931 0,0.59861 0,0.89791 0,0.2993 -0.2677,0.76406 0,0.89792 0.53542,0.2677 1.19722,0 1.79583,0 0.5986,0 1.19722,0 1.79583,0 0.50118,0 4.07853,0.137 4.48956,0 0.40156,-0.13386 0.54572,-0.66312 0.89791,-0.89792 0.55687,-0.37124 1.32259,-0.42467 1.79583,-0.89791 0.47324,-0.47324 0.55359,-1.22194 0.89792,-1.79583 0.55522,-0.92537 1.12168,-1.85106 1.79582,-2.69374 0.52884,-0.66105 1.28789,-1.11857 1.79583,-1.79582 1.97825,-0.45219 0.47464,-1.84718 0.89792,-2.69374 0.18929,-0.3786 0.70861,-0.51932 0.89791,-0.89792 0.35916,-0.71833 -0.35917,-1.97541 0,-2.69374 0.1893,-0.37859 0.70861,-0.51932 0.89791,-0.89791 0.13385,-0.26771 0,-0.59861 0,-0.89792 0,-0.73512 -0.19393,-3.90779 0,-4.48956 0.21164,-0.63492 0.68627,-1.16091 0.89791,-1.79583 0.1893,-0.56789 -0.2677,-1.26041 0,-1.79583 0.1893,-0.37859 0.76407,-0.49635 0.89791,-0.89791 0.28395,-0.85184 0,-1.79583 0,-2.69374 0,-2.09513 0,-4.19026 0,-6.28539 0,-2.39444 0,-4.78887 0,-7.18331 0,-0.29931 0.21164,-0.68627 0,-0.89791 -0.21164,-0.21164 -0.68627,0.21164 -0.89791,0 -0.42328,-0.42328 0.42329,-1.37255 0,-1.79583 -0.21164,-0.21164 -0.68627,0.21164 -0.89791,0 -0.21164,-0.21164 0,-0.59861 0,-0.89791 0,-0.40621 -0.11965,-5.14819 0,-5.38748 0.2079,-0.4158 3.06355,-3.06356 3.59165,-3.59166 0.59861,-0.5986 1.28789,-1.11858 1.79583,-1.79583 1.09042,-1.45389 0.42263,-1.77828 1.79583,-2.69373 0.55686,-0.37125 1.23896,-0.52667 1.79583,-0.89791 0.35219,-0.2348 0.54571,-0.66313 0.89791,-0.89792 0.55686,-0.37124 1.19721,-0.59861 1.79582,-0.89791 1.19722,-0.59861 2.32182,-1.37255 3.59166,-1.79583 0.56789,-0.1893 1.21508,0.14518 1.79583,0 0.64927,-0.16232 1.14654,-0.73559 1.79582,-0.89791 0.79216,-0.19805 2.82245,0.2564 3.59165,0 0.63492,-0.21164 1.16091,-0.68628 1.79583,-0.89792 0.28394,-0.0947 0.63021,0.13386 0.89791,0 0.3786,-0.18929 0.49636,-0.76406 0.89792,-0.89791 0.56789,-0.1893 1.21508,0.14518 1.79583,0 4.33597,-1.08399 -0.0445,-0.42671 2.69373,-1.79583 0.26771,-0.13385 0.64888,0.16603 0.89791,0 0.70439,-0.46958 1.11858,-1.28789 1.79583,-1.79582 0.53542,-0.40156 1.23896,-0.52667 1.79583,-0.89791 1.32126,-0.88084 2.2704,-2.71082 3.59166,-3.59166 0.55685,-0.37124 1.23896,-0.52667 1.79582,-0.89791 0.3522,-0.2348 0.51932,-0.70862 0.89791,-0.89792 0.26771,-0.13385 0.61397,0.0947 0.89791,0 1.26985,-0.42328 2.2931,-1.47118 3.59166,-1.79583 0.58073,-0.14518 1.19722,0 1.79583,0 1.49652,0 2.99304,0 4.48956,0 z"
       id="path168"
       inkscape:connector-curvature="0" />
    <path
       style="fill:#33da98;fill-rule:evenodd;stroke:#000000;stroke-width:0.9375px;stroke-linecap:butt;stroke-linejoin:miter;stroke-opacity:1;fill-opacity:1"
       d="m 353.37502,643.38504 c 0.59862,1.19722 0.99271,2.52084 1.79583,3.59166 0.17958,0.23945 0.59861,0 0.89791,0 0.59861,0 1.19723,0 1.79583,0 4.19027,0 8.38054,0 12.5708,0 0.32973,0 3.55551,0.0361 3.59164,0 0.42328,-0.42328 -0.2677,-1.26041 0,-1.79583 0.1893,-0.37859 0.66312,-0.54572 0.89791,-0.89791 0.37124,-0.55686 0.42468,-1.32259 0.89792,-1.79583 0.47324,-0.47324 1.23896,-0.52667 1.79583,-0.89791 0.70438,-0.46959 1.09145,-1.32624 1.79583,-1.79582 0.55685,-0.37125 1.23896,-0.52668 1.79582,-0.89792 0.3522,-0.2348 0.51931,-0.70862 0.89791,-0.89791 0.53541,-0.26771 1.22794,0.18929 1.79583,0 0.63491,-0.21164 1.16091,-0.68628 1.79582,-0.89792 0.53542,-0.17846 4.51752,0 5.38749,0 0.2993,0 0.68626,-0.21164 0.8979,0 0.21165,0.21164 -0.13383,0.63021 0,0.89792 0.1893,0.37859 0.59863,0.5986 0.89792,0.89791 0,0.59861 -0.1893,1.22794 0,1.79583 0.13386,0.40156 0.76408,0.49635 0.89791,0.89791 0.26938,0.80812 -0.26937,1.88562 0,2.69374 0.21164,0.63492 0.68628,1.16091 0.89792,1.79583 0.0947,0.28394 -0.13385,0.63021 0,0.89791 0.18929,0.37859 0.70861,0.51932 0.89791,0.89791 0.35918,0.71833 -0.35916,1.97543 0,2.69375 0.1893,0.37859 0.70862,0.51933 0.89792,0.89792 0.13386,0.26769 0,0.5986 0,0.89791 0,0.5986 -0.1893,1.22792 0,1.79582 0.13386,0.40155 0.70861,0.51931 0.89791,0.89791 0.46386,0.92772 -0.81579,2.1225 0.89791,2.69374 0.56789,0.1893 1.29775,-0.33204 1.79584,0 0.55685,0.37124 0.42466,1.32258 0.89791,1.79583 0.21165,0.21164 0.68626,-0.21165 0.8979,0 0.21165,0.21164 -0.21164,0.68627 0,0.8979 0.21165,0.21165 0.59863,0 0.89792,0 0.2993,0 0.59862,0 0.89791,0 0.29931,0 0.68627,0.21165 0.89791,0 0.21164,-0.21163 0,-0.5986 0,-0.8979 0,-0.89792 0,-1.79583 0,-2.69374 0,-3.29235 0,-6.5847 0,-9.87705 0,-2.39444 0,-4.78887 0,-7.1833 0,-0.29931 0,-0.59862 0,-0.89792 0,-0.29931 -0.29929,-0.89791 0,-0.89791 0.29932,0 0,1.19721 0,0.89791 0,-0.0883 0.0463,-5.29488 0,-5.38748 -0.13384,-0.26771 -0.68627,0.21164 -0.89791,0 -0.47324,-0.47325 -0.52667,-1.23897 -0.89791,-1.79582 -0.23478,-0.3522 -0.70862,-0.51932 -0.89792,-0.89792 -0.13385,-0.26771 0.21165,-0.68627 0,-0.89791 -0.47324,-0.47324 -1.23896,-0.52667 -1.79581,-0.89792 -0.35219,-0.23479 -0.59862,-0.5986 -0.89791,-0.89791 -0.29932,-0.29931 -0.66313,-0.54572 -0.89793,-0.89791 -0.54682,-0.82024 -0.76645,-2.17905 -1.79582,-2.69375 -0.53542,-0.2677 -1.37255,0.42328 -1.79583,0 -1.8578,-1.85781 2.839,0.0727 -0.89792,-1.79583 -0.2677,-0.13384 -0.5986,0 -0.89791,0 -0.29929,0 -0.59861,0 -0.89792,0 -1.49652,0 -2.99304,0 -4.48956,0 -1.79583,0 -3.59165,0 -5.38748,0 -0.2993,0 -0.59861,0 -0.89791,0 -0.2993,0 -0.63021,-0.13384 -0.8979,0 -0.3786,0.1893 -0.51932,0.70862 -0.89792,0.89792 -0.18418,0.0921 -2.56712,0.12663 -2.69375,0 -0.21164,-0.21164 0.0947,-0.61397 0,-0.89792 -0.21164,-0.63491 -0.68627,-1.1609 -0.89791,-1.79581 -0.1893,-0.56789 0.2677,-1.26043 0,-1.79583 -0.1893,-0.3786 -0.70862,-0.51932 -0.89792,-0.89792 -0.178,-0.35602 0.18357,-2.51018 0,-2.69374 -0.21164,-0.21164 -0.68627,0.21164 -0.89791,0 -0.21164,-0.21164 0.0726,-0.60755 0,-0.89791 -0.22954,-0.91822 -0.71229,-1.76564 -0.89792,-2.69374 -0.23477,-1.17397 0.29038,-2.43018 0,-3.59165 -0.16231,-0.64929 -0.68626,-1.16091 -0.89791,-1.79583 -0.0947,-0.28395 0.13386,-0.63021 0,-0.89792 -0.1893,-0.37859 -0.59861,-0.5986 -0.8979,-0.89791 -0.29931,-0.2993 -0.51931,-0.70862 -0.89791,-0.89791 -0.26772,-0.13385 -0.68627,0.21163 -0.89791,0 -0.21164,-0.21164 0.13383,-0.63021 0,-0.89792 -0.51471,-1.02938 -1.87351,-1.249 -2.69375,-1.79582 -0.35219,-0.23479 -0.54573,-0.66313 -0.89792,-0.89791 -0.55686,-0.37124 -1.23896,-0.52668 -1.79583,-0.89792 -0.35219,-0.23479 -0.49635,-0.76406 -0.89791,-0.89791 -2.69373,-0.89791 -0.89792,0.44896 -2.69373,0 -0.91823,-0.22956 -1.77553,-0.66835 -2.69375,-0.89791 -0.47095,-0.11774 -3.43795,0.15368 -3.59165,0 -0.21164,-0.21164 0,-0.59861 0,-0.89792 0,-1.70941 -0.23229,-2.98263 0.89791,-4.48957 0.50794,-0.67725 1.28789,-1.11857 1.79583,-1.79582 0.80312,-1.07083 0.84935,-2.64517 1.79583,-3.59166 0.21164,-0.21164 0.68628,0.21164 0.89792,0 0.47323,-0.47324 0.52666,-1.23896 0.89791,-1.79582 0.23478,-0.35219 0.70861,-0.51933 0.89791,-0.89792 0.13385,-0.2677 -0.16603,-0.64887 0,-0.89791 0.46958,-0.70438 1.19721,-1.19721 1.79582,-1.79582 0.29931,-0.29931 0.51932,-0.70862 0.89791,-0.89792 0.84657,-0.42328 1.79583,-0.59861 2.69375,-0.89791 0.89791,-0.29931 1.76563,-0.7123 2.69375,-0.89791 0.58697,-0.11741 1.21507,0.14518 1.79582,0 0.64927,-0.16233 1.13955,-0.76666 1.79581,-0.89792 1.46747,-0.29349 2.99307,0 4.48958,0 3.29235,0 6.58469,0 9.87704,0 0.89793,0 1.80486,0.12698 2.69376,0 1.22164,-0.17453 2.37436,-0.69504 3.59163,-0.89791 2.03324,-0.33888 4.26515,0.40404 6.28541,0 0.65626,-0.13126 1.16089,-0.68628 1.79582,-0.89792 1.17074,-0.39024 2.40508,-0.55889 3.59165,-0.89791 0.89791,-0.2993 1.79583,-0.59861 2.69375,-0.89792 0.5986,-0.29929 1.1609,-0.68627 1.79583,-0.89791 2.2672,-0.75573 -0.93513,1.82374 2.69372,-0.89791 0.67725,-0.50793 1.11858,-1.28789 1.79583,-1.79582 0.53543,-0.40156 1.26042,-0.49636 1.79583,-0.89792 0.67725,-0.50794 1.11859,-1.28789 1.79584,-1.79582 0.5354,-0.40156 1.2604,-0.49636 1.79583,-0.89792 0.67724,-0.50794 1.11857,-1.28789 1.79581,-1.79583 0.53541,-0.40156 1.23898,-0.52667 1.79582,-0.89791 0.70439,-0.46959 1.11858,-1.28789 1.79583,-1.79583 0.86334,-0.64749 1.83041,-1.14833 2.69375,-1.79582 0.77434,-0.58076 3.12232,-3.43521 3.59165,-3.59166 0.5679,-0.18929 1.22793,0.1893 1.79582,0 3.32866,-1.10955 -1.09451,-0.89791 1.79583,-0.89791 0.29932,0 0.89791,-0.29931 0.89791,0 0,0.29931 -0.59859,0 -0.89791,0 -1.49652,0 -2.99303,0 -4.48955,0 -6.28541,0 -12.57079,0 -18.85619,0 -1.52768,0 -3.25864,-0.33301 -4.48957,0.89791 -0.21163,0.21164 0.13386,0.63022 0,0.89792 -0.7805,1.56097 -1.91325,2.92858 -2.69375,4.48956 -0.13384,0.26771 0.21164,0.68627 0,0.89791 -0.21164,0.21164 -0.68627,-0.21164 -0.89791,0 -1.8578,1.85782 2.839,-0.0727 -0.89791,1.79583 -0.89791,0.29931 -1.79582,0.59861 -2.69373,0.89792 -0.29932,0 -0.61397,-0.0947 -0.89791,0 -6.50397,2.16799 1.41564,-0.25887 -2.69375,1.79583 -0.2677,0.13385 -0.68628,-0.21164 -0.89792,0 -0.21164,0.21163 0.21164,0.68627 0,0.89791 -0.21164,0.21164 -0.59859,0 -0.89791,0 -0.2993,0 -0.59861,0 -0.89792,0 -1.49652,0 -2.99304,0 -4.48955,0 -3.29235,0 -6.5847,0 -9.87705,0 -0.47968,0 -4.23259,-0.1285 -4.48958,0 -2.44767,1.22384 -3.83771,3.26572 -6.28539,4.48956 -0.95364,0.47683 -0.84219,-0.47682 -1.79582,0 -0.3786,0.1893 -0.5986,0.59862 -0.89792,0.89791 -0.89791,0.29931 -1.84717,0.47464 -2.69374,0.89792 -0.37859,0.1893 -0.55929,0.64394 -0.89792,0.89791 -0.86332,0.64749 -1.7285,1.31321 -2.69372,1.79583 -0.26772,0.13386 -0.59862,0 -0.89792,0 -0.29931,0.29931 -0.51932,0.70862 -0.89792,0.89792 -0.2677,0.13384 -0.64126,-0.154 -0.89791,0 -1.19722,0.89791 -2.39444,1.79582 -3.59166,2.69374 0,0.2993 0.21164,0.68626 0,0.8979 -0.21164,0.21165 -0.68627,-0.21164 -0.89791,0 -0.47324,0.47325 -0.42467,1.32259 -0.89791,1.79583 -1.85782,1.85782 0.0727,-2.83898 -1.79582,0.89792 -0.13386,0.2677 0.16602,0.64887 0,0.89791 -1.79583,2.69374 -1.34688,0.89791 -2.69375,2.69374 -0.61474,0.81965 -2.27592,3.23613 -2.69374,4.48956 -0.0947,0.28395 0.0726,0.60755 0,0.89792 -0.22955,0.91823 -0.66836,1.77552 -0.89792,2.69374 -0.0726,0.29037 0.0947,0.61397 0,0.89792 -0.5436,1.63081 -0.76847,1.66639 -1.79582,2.69374 -0.2993,0.2993 -0.70861,0.51932 -0.89791,0.89791 -0.13385,0.26771 0.21165,0.68627 0,0.89791 -0.21164,0.21165 -0.63021,-0.13385 -0.8979,0 -0.96524,0.48261 -1.83043,1.14833 -2.69376,1.79583 -1.70182,1.27636 -0.44163,1.64373 -3.59165,2.69374 -0.85184,0.28394 -1.82264,-0.21778 -2.69373,0 -1.56369,0.39092 -2.94575,1.33268 -4.48958,1.79583 -1.42875,3.20813 -3.62123,0.45635 -5.38747,0.89791 -0.91823,0.22955 -1.77553,0.66836 -2.69374,0.89791 -0.29037,0.0726 -0.59861,0 -0.89792,0 -0.89791,0.2993 -1.81495,0.5464 -2.69374,0.89792 -0.62139,0.24856 -1.13567,0.78788 -1.79583,0.89791 -1.18093,0.19682 -2.39443,0 -3.59165,0 -2.09513,0 -4.19026,0 -6.2854,0 -0.76021,0 -3.10891,-0.16091 -3.59164,0 -0.40156,0.13385 -0.51932,0.70861 -0.89792,0.89791 -0.2677,0.13385 -0.61397,-0.0947 -0.89791,0 -0.63492,0.21164 -1.16091,0.68627 -1.79583,0.89791 -0.28395,0.0947 -0.60755,-0.0726 -0.89791,0 -0.91822,0.22956 -1.76014,0.74232 -2.69375,0.89792 -0.45746,0.0762 -4.92353,-0.23197 -5.38747,0 -0.3786,0.18929 -0.49636,0.76406 -0.89792,0.89791 -0.80812,0.26937 -1.88561,-0.26937 -2.69374,0 -0.63492,0.21164 -1.1609,0.68628 -1.79583,0.89791 -0.28394,0.0947 -0.6302,-0.13385 -0.8979,0 -0.3786,0.1893 -0.51932,0.70862 -0.89792,0.89792 -0.26771,0.13386 -0.59861,0 -0.89791,0 -0.59862,0.29931 -1.26042,0.49635 -1.79583,0.89791 -0.67725,0.50794 -1.11858,1.28789 -1.79583,1.79583 -0.53541,0.40156 -1.26041,0.49636 -1.79583,0.89792 -0.67725,0.50792 -1.19721,1.19721 -1.79583,1.79581 -0.8979,0.89792 -1.98935,1.63718 -2.69373,2.69375 -1.05003,1.57504 -0.94927,3.69436 -1.79583,5.38748 -0.18929,0.3786 -0.70861,0.51932 -0.89791,0.89792 -0.2677,0.5354 0.42328,1.37254 0,1.79582 -0.21164,0.21164 -0.73189,-0.24903 -0.89792,0 -2.16636,1.08397 -0.21539,3.12453 -0.89791,4.48957 -0.13385,0.2677 -0.68627,-0.21164 -0.89791,0 -0.21164,0.21164 0.11116,0.62001 0,0.89791 -0.49712,1.2428 -1.10716,2.44387 -1.79583,3.59165 -0.21778,0.36297 -0.59861,0.59861 -0.89791,0.89791 -0.59861,0.89792 -1.31322,1.72852 -1.79583,2.69375 -0.42327,0.84655 -0.66836,1.77551 -0.89791,2.69374 -0.0726,0.29036 0.21164,0.68627 0,0.89791 -0.21164,0.21164 -0.59861,0 -0.89791,0 -0.89792,0.89792 -1.90048,1.70216 -2.69375,2.69375 -0.41809,0.5226 -0.52667,1.23896 -0.89791,1.79582 -0.63138,0.94708 -3.17074,2.48328 -3.59165,2.69374 -0.26711,0.13354 -5.00976,0 -5.38748,0 -3.29235,0 -6.5847,0 -9.87705,0 -0.59861,0 -1.19721,0 -1.79583,0 -0.2993,0 -0.68627,0.21164 -0.89791,0 -0.42328,-0.42328 0.42328,-1.37254 0,-1.79583 -0.21164,-0.21164 -0.68627,0.21164 -0.89792,0 -0.2756,-0.2756 0.16663,-2.92516 0,-3.59164 -0.16231,-0.6493 -0.68626,-1.16092 -0.8979,-1.79584 -0.21398,-0.64193 0,-5.27709 0,-6.2854 0,-0.2993 0.13385,-0.6302 0,-0.89791 -0.1893,-0.3786 -0.76407,-0.49635 -0.89792,-0.89791 -0.18929,-0.56789 0.26771,-1.26042 0,-1.79582 -0.26771,-0.53542 -1.37254,0.42327 -1.79582,0 -0.21164,-0.21164 0.21164,-0.68628 0,-0.89792 -0.42328,-0.42328 -1.37255,0.42328 -1.79583,0 -0.21164,-0.21164 0.21164,-0.68627 0,-0.89791 -0.0289,-0.0289 -2.47598,0 -2.69375,0 -2.09512,0 -4.19026,0 -6.28538,0 -0.89792,0 -1.79583,0 -2.69375,0 -0.5986,0 -1.22794,-0.1893 -1.79583,0 -0.63491,0.21164 -1.1609,0.68627 -1.79582,0.89791 -0.28395,0.0947 -0.63021,-0.13386 -0.89791,0 -0.15404,0.0771 -2.65656,2.58219 -2.69374,2.69374 -0.1893,0.56789 0.18929,1.22793 0,1.79582 -0.13386,0.40156 -0.59861,0.59862 -0.89792,0.89792 -0.2993,0.89791 -0.76405,1.75677 -0.89791,2.69374 -0.2963,2.07407 0.34444,4.21877 0,6.2854 -0.1556,0.93361 -0.71229,1.76564 -0.89791,2.69373 -0.1761,0.88048 0.28394,1.84191 0,2.69374 -0.21164,0.63492 -0.7356,1.14655 -0.89792,1.79582 -0.14518,0.58074 0,1.19723 0,1.79584 0,0.59861 0,1.19721 0,1.79582 0,2.99304 0,5.98609 0,8.97913 0,1.79583 0,3.59166 0,5.38749 0,0.29931 -0.21164,0.68627 0,0.89791 0.21164,0.21164 0.59861,0 0.89792,0 1.19722,0 2.39443,0 3.59165,0 2.39444,0 4.78887,0 7.18331,0 0.72285,0 3.02807,0.18786 3.59165,0 1.26984,-0.42328 2.39444,-1.19722 3.59165,-1.79583 0.59862,-0.2993 1.14655,-0.73559 1.79583,-0.89791 0.58074,-0.14518 1.19722,0 1.79583,0 1.49652,0 2.99304,0 4.48957,0 1.49652,0 2.99304,0 4.48956,0 0.29931,0 0.76406,-0.2677 0.89791,0 0.26771,0.53542 -0.18929,1.22794 0,1.79583 0.13386,0.40156 0.70862,0.51932 0.89792,0.89791 0.26489,0.52979 -0.20588,2.07613 0,2.69375 0.21164,0.63491 0.68627,1.1609 0.89791,1.79581 0.16199,0.48597 0,3.28576 0,3.59166 0,1.79583 0,3.59166 0,5.38748 0,1.49653 0.29349,3.02211 0,4.48957 -0.13125,0.65627 -0.5986,1.19722 -0.89791,1.79583 -0.29931,0.5986 -0.52667,1.23896 -0.89792,1.79582 -0.23479,0.35219 -0.70861,0.51933 -0.89791,0.89792 -0.13386,0.2677 0.21164,0.68626 0,0.89791 -0.21164,0.21164 -0.74392,-0.25665 -0.89791,0 -0.82926,1.3821 -1.22989,2.98038 -1.79583,4.48956 -0.33233,0.88623 -0.80373,1.75195 -0.89792,2.69375 -0.20847,2.08473 0.174,4.19749 0,6.28539 -0.12674,1.52089 -0.55473,3.00249 -0.8979,4.48957 -0.83248,3.60738 -1.96769,7.14466 -2.69374,10.77496 -0.0898,0.44902 0.12905,3.4626 0,3.59165 -0.0289,0.0289 -2.47598,0 -2.69375,0 -0.2993,0 -0.68627,0.21164 -0.89791,0 -0.21164,-0.21164 0,-0.59861 0,-0.89792 0,-0.5986 0,-1.1972 0,-1.79582 0,-0.89791 0,-1.79583 0,-2.69373 0,-2.57991 -0.33205,-1.82973 1.79583,-4.48958 4.62772,-5.78465 0.0229,-0.46038 2.69374,-1.79583 0.37859,-0.1893 0.59861,-0.59861 0.89791,-0.8979 0.59861,-0.59862 1.11857,-1.2879 1.79582,-1.79583 0.53542,-0.40156 1.23898,-0.52668 1.79583,-0.89791 0.70438,-0.4696 1.03864,-1.41724 1.79583,-1.79583 0.2677,-0.13386 0.68627,0.21163 0.89791,0 0.19334,-0.19334 -0.20491,-2.42052 0,-2.69375 0.89792,-0.89791 1.79583,-1.79583 2.69375,-2.69373 0.2993,0 0.6302,0.13385 0.89791,0 0.37859,-0.1893 0.54572,-0.66313 0.89792,-0.89791 0.55685,-0.37125 1.32257,-0.42468 1.79581,-0.89792 1.85782,-1.85782 -2.83898,0.0726 0.89792,-1.79583 0.26771,-0.13385 0.68627,0.21164 0.89791,0 0.0374,-0.0374 -0.0254,-4.36249 0,-4.48957 0.18563,-0.9281 0.66836,-1.77551 0.89792,-2.69373 0.0726,-0.29038 -0.11116,-0.62002 0,-0.89792 0.49712,-1.24279 1.19722,-2.39443 1.79583,-3.59165 0.2993,-0.59861 0.52667,-1.23896 0.89791,-1.79583 0.2348,-0.35219 0.59861,-0.59861 0.89791,-0.89792 0.2993,-0.29929 0.51933,-0.70861 0.89792,-0.89791 0.2677,-0.13385 0.6302,0.13386 0.89791,0 0.75719,-0.37859 1.03863,-1.41722 1.79582,-1.79582 0.26771,-0.13385 0.64889,0.16602 0.89792,0 0.70438,-0.46959 1.19722,-1.19722 1.79582,-1.79583 0.29931,-0.2993 0.51932,-0.70861 0.89792,-0.89791 0.2677,-0.13386 0.61397,0.0947 0.89791,0 1.26984,-0.42328 2.32181,-1.37255 3.59166,-1.79583 0.48595,-0.16198 3.28576,0 3.59165,0 3.29235,0 6.58469,0 9.87704,0 0.89792,0 1.79583,0 2.69375,0 0.2993,0 0.68627,0.21164 0.89791,0 0.21164,-0.21164 -0.29931,-0.89791 0,-0.89791 0.29931,0 0,0.5986 0,0.89791 0.59861,-0.59861 1.09145,-1.32623 1.79583,-1.79583 0.24903,-0.16602 0.5986,0 0.89791,0 0.62453,0 4.16485,-0.16235 4.48956,0 0.78236,0.39118 1.6396,2.0688 1.79583,2.69374 0.14519,0.58074 -0.14518,1.21509 0,1.79583 0.16232,0.64928 0.59861,1.19722 0.89792,1.79583 0.2993,0.89791 0.66835,1.77552 0.89791,2.69373 0.14518,0.58075 0,1.19723 0,1.79583 0,1.79583 0,3.59166 0,5.38749 0,0.5986 0,1.19721 0,1.79582 0,0.29931 0.2993,0.89791 0,0.89791 -0.29931,0 -0.29931,-0.89791 0,-0.89791 0.42328,0 0.59861,0.59861 0.89792,0.89791 0.29929,0.29931 0.70861,0.51932 0.89791,0.89792 0.13385,0.26771 -0.21164,0.68627 0,0.89791 0.21164,0.21164 0.68627,-0.21164 0.89791,0 0.0289,0.0289 0,2.47598 0,2.69374 0,0.59861 0.33205,1.29775 0,1.79583 -0.37124,0.55686 -1.26042,0.49636 -1.79582,0.89792 -0.67725,0.50792 -1.11858,1.28789 -1.79583,1.79581 -0.53542,0.40156 -1.23897,0.52668 -1.79583,0.89792 -0.35219,0.23479 -0.59861,0.59861 -0.89792,0.89791 -0.29929,0.29931 -0.70861,0.51932 -0.89791,0.89792 -0.13385,0.2677 0,0.5986 0,0.89791 0,0.59861 0,1.19722 0,1.79583 0,0.29931 0,0.59861 0,0.89792 0,0.29929 -0.2677,0.76405 0,0.89791 0.53542,0.2677 1.19722,0 1.79583,0 0.5986,0 1.19722,0 1.79583,0 0.50118,0 4.07853,0.137 4.48956,0 0.40156,-0.13386 0.54572,-0.66312 0.89791,-0.89791 0.55687,-0.37125 1.32259,-0.42468 1.79583,-0.89792 0.47324,-0.47323 0.55359,-1.22194 0.89792,-1.79583 0.55522,-0.92537 1.12168,-1.85106 1.79582,-2.69374 0.52885,-0.66105 1.28789,-1.11857 1.79583,-1.79582 1.97826,-0.45219 0.47465,-1.84718 0.89792,-2.69374 0.18929,-0.3786 0.70861,-0.51932 0.89791,-0.89792 0.35916,-0.71833 -0.35917,-1.97541 0,-2.69374 0.1893,-0.37859 0.70862,-0.51932 0.89792,-0.89791 0.13384,-0.26771 0,-0.59861 0,-0.89792 0,-0.73512 -0.19393,-3.90779 0,-4.48956 0.21163,-0.63492 0.68627,-1.16091 0.89791,-1.79583 0.1893,-0.56789 -0.26771,-1.26041 0,-1.79583 0.1893,-0.37859 0.76406,-0.49635 0.8979,-0.89791 0.28395,-0.85184 0,-1.79583 0,-2.69374 0,-2.09513 0,-4.19026 0,-6.28539 0,-2.39444 0,-4.78887 0,-7.18331 0,-0.29931 0.21164,-0.68627 0,-0.89791 -0.21164,-0.21164 -0.68626,0.21164 -0.8979,0 -0.42329,-0.42328 0.42329,-1.37255 0,-1.79583 -0.21164,-0.21164 -0.68628,0.21164 -0.89791,0 -0.21164,-0.21164 0,-0.59861 0,-0.89791 0,-0.40621 -0.11966,-5.14819 0,-5.38749 0.2079,-0.4158 3.06354,-3.06355 3.59164,-3.59165 0.59861,-0.5986 1.28789,-1.11858 1.79583,-1.79583 1.09042,-1.45389 0.42263,-1.77828 1.79583,-2.69373 0.55686,-0.37125 1.23896,-0.52667 1.79583,-0.89791 0.35219,-0.2348 0.54571,-0.66313 0.89791,-0.89793 0.55686,-0.37123 1.19721,-0.5986 1.79582,-0.8979 1.19722,-0.59861 2.32182,-1.37255 3.59166,-1.79583 0.56789,-0.1893 1.21508,0.14518 1.79583,0 0.64927,-0.16232 1.14654,-0.73559 1.79582,-0.89791 0.79216,-0.19805 2.82245,0.25639 3.59165,0 0.63492,-0.21164 1.16091,-0.68628 1.79583,-0.89792 0.28394,-0.0947 0.63021,0.13386 0.89791,0 0.3786,-0.18929 0.49636,-0.76406 0.89792,-0.89791 0.56789,-0.1893 1.21508,0.14519 1.79583,0 4.33597,-1.08399 -0.0445,-0.42671 2.69373,-1.79582 0.26771,-0.13386 0.64889,0.16603 0.89791,0 0.70439,-0.46959 1.11858,-1.28789 1.79583,-1.79582 0.53542,-0.40157 1.23896,-0.52668 1.79583,-0.89792 1.32127,-0.88084 2.2704,-2.71082 3.59167,-3.59166 0.55684,-0.37124 1.23895,-0.52667 1.79581,-0.89791 0.3522,-0.2348 0.51932,-0.70862 0.89791,-0.89792 0.26772,-0.13385 0.61397,0.0947 0.89791,0 1.26986,-0.42328 2.2931,-1.47118 3.59166,-1.79583 0.58073,-0.14518 1.19722,0 1.79583,0 1.49652,0 2.99304,0 4.48956,0 z"
       id="path168-3"
       inkscape:connector-curvature="0" />
    <path
       style="fill:none;fill-rule:evenodd;stroke:#000000;stroke-width:0.9375px;stroke-linecap:butt;stroke-linejoin:miter;stroke-opacity:1"
       d="m 151.3445,713.42229 c 0.59862,1.19722 0.99271,2.52084 1.79583,3.59166 0.17958,0.23945 0.59861,0 0.89791,0 0.59861,0 1.19723,0 1.79583,0 4.19027,0 8.38054,0 12.5708,0 0.32973,0 3.55551,0.0361 3.59164,0 0.42328,-0.42328 -0.2677,-1.26041 0,-1.79583 0.1893,-0.37859 0.66312,-0.54572 0.89791,-0.89791 0.37124,-0.55686 0.42468,-1.32259 0.89792,-1.79583 0.47324,-0.47324 1.23896,-0.52667 1.79583,-0.89791 0.70438,-0.46959 1.09145,-1.32624 1.79583,-1.79582 0.55685,-0.37125 1.23896,-0.52668 1.79582,-0.89792 0.3522,-0.2348 0.51931,-0.70862 0.89791,-0.89791 0.53541,-0.26771 1.22794,0.18929 1.79583,0 0.63491,-0.21164 1.16091,-0.68628 1.79582,-0.89792 0.53542,-0.17846 4.51752,0 5.38749,0 0.2993,0 0.68626,-0.21164 0.8979,0 0.21165,0.21164 -0.13383,0.63021 0,0.89792 0.1893,0.37859 0.59863,0.5986 0.89792,0.89791 0,0.59861 -0.1893,1.22794 0,1.79583 0.13386,0.40156 0.76408,0.49635 0.89791,0.89791 0.26938,0.80812 -0.26937,1.88562 0,2.69374 0.21164,0.63492 0.68628,1.16091 0.89792,1.79583 0.0947,0.28394 -0.13385,0.63021 0,0.89791 0.18929,0.37859 0.70861,0.51932 0.89791,0.89791 0.35918,0.71833 -0.35916,1.97543 0,2.69375 0.1893,0.37859 0.70862,0.51933 0.89792,0.89792 0.13386,0.26769 0,0.5986 0,0.89791 0,0.5986 -0.1893,1.22792 0,1.79581 0.13386,0.40156 0.70861,0.51932 0.89791,0.89792 0.46386,0.92772 -0.81579,2.1225 0.89791,2.69374 0.56789,0.1893 1.29775,-0.33204 1.79584,0 0.55685,0.37124 0.42466,1.32258 0.89791,1.79583 0.21165,0.21164 0.68626,-0.21165 0.8979,0 0.21165,0.21164 -0.21164,0.68627 0,0.8979 0.21165,0.21165 0.59863,0 0.89792,0 0.2993,0 0.59862,0 0.89791,0 0.29931,0 0.68627,0.21165 0.89791,0 0.21164,-0.21163 0,-0.5986 0,-0.8979 0,-0.89792 0,-1.79583 0,-2.69374 0,-3.29235 0,-6.5847 0,-9.87705 0,-2.39444 0,-4.78887 0,-7.1833 0,-0.29931 0,-0.59862 0,-0.89792 0,-0.29931 -0.29929,-0.89791 0,-0.89791 0.29932,0 0,1.19721 0,0.89791 0,-0.0883 0.0463,-5.29488 0,-5.38748 -0.13384,-0.26771 -0.68627,0.21164 -0.89791,0 -0.47324,-0.47325 -0.52667,-1.23897 -0.89791,-1.79582 -0.23478,-0.3522 -0.70862,-0.51932 -0.89792,-0.89792 -0.13385,-0.26771 0.21165,-0.68627 0,-0.89791 -0.47324,-0.47324 -1.23896,-0.52667 -1.79581,-0.89792 -0.35219,-0.23479 -0.59862,-0.5986 -0.89791,-0.89791 -0.29932,-0.29931 -0.66313,-0.54572 -0.89793,-0.89791 -0.54682,-0.82024 -0.76645,-2.17905 -1.79582,-2.69375 -0.53542,-0.2677 -1.37255,0.42328 -1.79583,0 -1.8578,-1.85781 2.839,0.0727 -0.89792,-1.79583 -0.2677,-0.13384 -0.5986,0 -0.89791,0 -0.29929,0 -0.59861,0 -0.89792,0 -1.49652,0 -2.99304,0 -4.48956,0 -1.79583,0 -3.59165,0 -5.38748,0 -0.2993,0 -0.59861,0 -0.89791,0 -0.2993,0 -0.63021,-0.13384 -0.8979,0 -0.3786,0.1893 -0.51932,0.70862 -0.89792,0.89792 -0.18418,0.0921 -2.56712,0.12663 -2.69375,0 -0.21164,-0.21164 0.0947,-0.61397 0,-0.89792 -0.21164,-0.63491 -0.68627,-1.1609 -0.89791,-1.79581 -0.1893,-0.56789 0.2677,-1.26043 0,-1.79583 -0.1893,-0.3786 -0.70862,-0.51932 -0.89792,-0.89792 -0.178,-0.35602 0.18357,-2.51018 0,-2.69374 -0.21164,-0.21164 -0.68627,0.21164 -0.89791,0 -0.21164,-0.21164 0.0726,-0.60755 0,-0.89791 -0.22954,-0.91822 -0.71229,-1.76564 -0.89792,-2.69374 -0.23477,-1.17397 0.29038,-2.43018 0,-3.59165 -0.16231,-0.64929 -0.68626,-1.16091 -0.89791,-1.79583 -0.0947,-0.28395 0.13386,-0.63021 0,-0.89792 -0.1893,-0.37859 -0.59861,-0.5986 -0.8979,-0.89791 -0.29931,-0.2993 -0.51931,-0.70862 -0.89791,-0.89791 -0.26772,-0.13385 -0.68627,0.21163 -0.89791,0 -0.21164,-0.21164 0.13383,-0.63021 0,-0.89792 -0.51471,-1.02938 -1.87351,-1.249 -2.69375,-1.79582 -0.35219,-0.23479 -0.54573,-0.66313 -0.89792,-0.89791 -0.55686,-0.37124 -1.23896,-0.52668 -1.79583,-0.89792 -0.35219,-0.23479 -0.49635,-0.76406 -0.89791,-0.89791 -2.69373,-0.89791 -0.89792,0.44896 -2.69373,0 -0.91823,-0.22956 -1.77553,-0.66835 -2.69375,-0.89791 -0.47095,-0.11774 -3.43795,0.15368 -3.59165,0 -0.21164,-0.21164 0,-0.59861 0,-0.89792 0,-1.70941 -0.23229,-2.98263 0.89791,-4.48957 0.50794,-0.67725 1.28789,-1.11857 1.79583,-1.79582 0.80312,-1.07083 0.84935,-2.64517 1.79583,-3.59166 0.21164,-0.21164 0.68628,0.21164 0.89792,0 0.47323,-0.47324 0.52666,-1.23896 0.89791,-1.79582 0.23478,-0.35219 0.70861,-0.51933 0.89791,-0.89792 0.13385,-0.2677 -0.16603,-0.64887 0,-0.89791 0.46958,-0.70438 1.19721,-1.19721 1.79582,-1.79582 0.29931,-0.29931 0.51932,-0.70862 0.89791,-0.89792 0.84657,-0.42328 1.79583,-0.59861 2.69375,-0.89791 0.89791,-0.29931 1.76563,-0.7123 2.69375,-0.89791 0.58697,-0.11741 1.21507,0.14518 1.79582,0 0.64927,-0.16233 1.13955,-0.76666 1.79581,-0.89792 1.46747,-0.29349 2.99307,0 4.48958,0 3.29235,0 6.58469,0 9.87704,0 0.89793,0 1.80486,0.12698 2.69376,0 1.22164,-0.17453 2.37436,-0.69504 3.59163,-0.89791 2.03324,-0.33888 4.26515,0.40404 6.28541,0 0.65626,-0.13126 1.16089,-0.68628 1.79582,-0.89792 1.17074,-0.39024 2.40508,-0.55889 3.59165,-0.89791 0.89791,-0.2993 1.79583,-0.59861 2.69375,-0.89792 0.5986,-0.29929 1.1609,-0.68627 1.79583,-0.89791 2.2672,-0.75573 -0.93513,1.82374 2.69372,-0.89791 0.67725,-0.50793 1.11858,-1.28789 1.79583,-1.79582 0.53543,-0.40156 1.26042,-0.49636 1.79583,-0.89792 0.67725,-0.50794 1.11859,-1.28789 1.79584,-1.79582 0.5354,-0.40156 1.2604,-0.49636 1.79583,-0.89792 0.67724,-0.50794 1.11857,-1.28789 1.79581,-1.79583 0.53541,-0.40156 1.23898,-0.52667 1.79582,-0.89791 0.70439,-0.46959 1.11858,-1.28789 1.79583,-1.79583 0.86334,-0.64749 1.83041,-1.14833 2.69375,-1.79582 0.77434,-0.58076 3.12232,-3.43521 3.59165,-3.59166 0.5679,-0.18929 1.22793,0.1893 1.79582,0 3.32866,-1.10955 -1.09451,-0.89791 1.79583,-0.89791 0.29932,0 0.89791,-0.29931 0.89791,0 0,0.29931 -0.59859,0 -0.89791,0 -1.49652,0 -2.99303,0 -4.48955,0 -6.28541,0 -12.57079,0 -18.85619,0 -1.52768,0 -3.25864,-0.33301 -4.48957,0.89791 -0.21163,0.21164 0.13386,0.63022 0,0.89792 -0.7805,1.56097 -1.91325,2.92858 -2.69375,4.48956 -0.13384,0.26771 0.21164,0.68627 0,0.89791 -0.21164,0.21164 -0.68627,-0.21164 -0.89791,0 -1.8578,1.85782 2.839,-0.0727 -0.89791,1.79583 -0.89791,0.29931 -1.79582,0.59861 -2.69373,0.89792 -0.29932,0 -0.61397,-0.0947 -0.89791,0 -6.50397,2.16799 1.41564,-0.25887 -2.69375,1.79583 -0.2677,0.13385 -0.68628,-0.21164 -0.89792,0 -0.21164,0.21163 0.21164,0.68627 0,0.89791 -0.21164,0.21164 -0.59859,0 -0.89791,0 -0.2993,0 -0.59861,0 -0.89792,0 -1.49652,0 -2.99304,0 -4.48955,0 -3.29235,0 -6.5847,0 -9.87705,0 -0.47968,0 -4.23259,-0.1285 -4.48958,0 -2.44767,1.22384 -3.83771,3.26572 -6.28539,4.48956 -0.95364,0.47683 -0.84219,-0.47682 -1.79582,0 -0.3786,0.1893 -0.5986,0.59862 -0.89792,0.89791 -0.89791,0.29931 -1.84717,0.47464 -2.69374,0.89792 -0.37859,0.1893 -0.55929,0.64394 -0.89792,0.89791 -0.86332,0.64749 -1.7285,1.31321 -2.69372,1.79583 -0.26772,0.13386 -0.59862,0 -0.89792,0 -0.29931,0.29931 -0.51932,0.70862 -0.89792,0.89792 -0.2677,0.13384 -0.64126,-0.154 -0.89791,0 -1.19722,0.89791 -2.39444,1.79582 -3.59166,2.69374 0,0.2993 0.21164,0.68626 0,0.8979 -0.21164,0.21165 -0.68627,-0.21164 -0.89791,0 -0.47324,0.47325 -0.42467,1.32259 -0.89791,1.79583 -1.85782,1.85782 0.0727,-2.83898 -1.79582,0.89792 -0.13386,0.2677 0.16602,0.64887 0,0.89791 -1.79583,2.69374 -1.34688,0.89791 -2.69375,2.69374 -0.61474,0.81965 -2.27592,3.23613 -2.69374,4.48956 -0.0947,0.28395 0.0726,0.60755 0,0.89792 -0.22955,0.91823 -0.66836,1.77552 -0.89792,2.69374 -0.0726,0.29037 0.0947,0.61397 0,0.89792 -0.5436,1.63081 -0.76847,1.66639 -1.79582,2.69374 -0.2993,0.2993 -0.70861,0.51932 -0.89791,0.89791 -0.13385,0.26771 0.21165,0.68627 0,0.89791 -0.21164,0.21165 -0.63021,-0.13385 -0.8979,0 -0.96524,0.48261 -1.83043,1.14833 -2.69376,1.79583 -1.70182,1.27636 -0.44163,1.64373 -3.59165,2.69374 -0.85184,0.28394 -1.82264,-0.21778 -2.69373,0 -1.56369,0.39092 -2.94575,1.33268 -4.48958,1.79583 -1.42875,3.20813 -3.62123,0.45635 -5.38747,0.89791 -0.91823,0.22955 -1.77553,0.66836 -2.69374,0.89791 -0.29037,0.0726 -0.59861,0 -0.89792,0 -0.89791,0.2993 -1.81495,0.5464 -2.69374,0.89792 -0.62139,0.24856 -1.13567,0.78788 -1.79583,0.89791 -1.18093,0.19682 -2.39443,0 -3.59165,0 -2.09513,0 -4.19026,0 -6.2854,0 -0.76022,0 -3.10892,-0.16091 -3.59165,0 -0.40156,0.13385 -0.51932,0.70861 -0.89792,0.89791 -0.2677,0.13385 -0.61396,-0.0947 -0.8979,0 -0.63493,0.21164 -1.16091,0.68627 -1.79583,0.89791 -0.28395,0.0947 -0.60755,-0.0726 -0.89791,0 -0.91822,0.22956 -1.76014,0.74232 -2.69375,0.89792 -0.45746,0.0762 -4.92353,-0.23197 -5.38747,0 -0.3786,0.18929 -0.49636,0.76406 -0.89792,0.89791 -0.80812,0.26937 -1.88561,-0.26937 -2.69374,0 -0.63492,0.21164 -1.1609,0.68628 -1.79583,0.89791 -0.28394,0.0947 -0.6302,-0.13385 -0.8979,0 -0.3786,0.1893 -0.51932,0.70862 -0.89792,0.89792 -0.26771,0.13386 -0.59861,0 -0.89791,0 -0.59862,0.29931 -1.26042,0.49635 -1.79583,0.89791 -0.67725,0.50794 -1.11858,1.28789 -1.79583,1.79583 -0.53541,0.40156 -1.26041,0.49636 -1.79583,0.89792 -0.67725,0.50792 -1.19721,1.19721 -1.79583,1.79581 -0.8979,0.89792 -1.98935,1.63718 -2.69373,2.69375 -1.05003,1.57504 -0.94927,3.69436 -1.79583,5.38748 -0.18929,0.3786 -0.70861,0.51932 -0.89791,0.89792 -0.2677,0.5354 0.42328,1.37254 0,1.79582 -0.21164,0.21164 -0.73189,-0.24903 -0.89792,0 -2.16636,1.08397 -0.21539,3.12453 -0.89791,4.48957 -0.13385,0.2677 -0.68627,-0.21164 -0.89791,0 -0.21164,0.21164 0.11116,0.62001 0,0.89791 -0.49712,1.2428 -1.10716,2.44387 -1.79583,3.59165 -0.21778,0.36297 -0.59861,0.59861 -0.89791,0.89791 -0.59861,0.89792 -1.31322,1.72852 -1.79583,2.69375 -0.42327,0.84655 -0.66836,1.77551 -0.89791,2.69374 -0.0726,0.29036 0.21164,0.68627 0,0.89791 -0.21164,0.21164 -0.59861,0 -0.89791,0 -0.89792,0.89792 -1.90048,1.70216 -2.69375,2.69375 -0.41809,0.5226 -0.52667,1.23896 -0.89791,1.79581 -0.63138,0.94709 -3.17074,2.48329 -3.59165,2.69375 -0.26711,0.13354 -5.00976,0 -5.38748,0 -3.29235,0 -6.5847,0 -9.87706,0 -0.5986,0 -1.19721,0 -1.79583,0 -0.29929,0 -0.68626,0.21164 -0.8979,0 -0.42328,-0.42328 0.42327,-1.37255 0,-1.79583 -0.21165,-0.21164 -0.68628,0.21164 -0.89793,0 -0.27559,-0.2756 0.16664,-2.92517 0,-3.59164 -0.1623,-0.6493 -0.68625,-1.16092 -0.8979,-1.79584 -0.21397,-0.64193 0,-5.27709 0,-6.2854 0,-0.2993 0.13386,-0.6302 0,-0.89791 -0.1893,-0.3786 -0.76407,-0.49635 -0.89791,-0.89791 -0.18929,-0.56789 0.2677,-1.26042 0,-1.79582 -0.26771,-0.53542 -1.37255,0.42327 -1.79582,0 -0.21165,-0.21164 0.21164,-0.68628 0,-0.89792 -0.42328,-0.42328 -1.37256,0.42328 -1.79584,0 -0.21164,-0.21164 0.21165,-0.68627 0,-0.89791 -0.0289,-0.0289 -2.47598,0 -2.69375,0 -2.09512,0 -4.19026,0 -6.28538,0 -0.89792,0 -1.79583,0 -2.69375,0 -0.5986,0 -1.22794,-0.1893 -1.79583,0 -0.63491,0.21164 -1.1609,0.68627 -1.79582,0.89791 -0.28395,0.0947 -0.63021,-0.13386 -0.89791,0 -0.15404,0.0771 -2.65656,2.58219 -2.69374,2.69374 -0.1893,0.56789 0.18929,1.22793 0,1.79582 -0.13386,0.40156 -0.59861,0.59862 -0.89792,0.89792 -0.2993,0.89791 -0.76405,1.75677 -0.89791,2.69374 -0.2963,2.07407 0.34444,4.21877 0,6.28539 -0.1556,0.93361 -0.71229,1.76565 -0.89791,2.69374 -0.1761,0.88048 0.28394,1.84191 0,2.69374 -0.21164,0.63492 -0.7356,1.14655 -0.89792,1.79582 -0.14518,0.58074 0,1.19723 0,1.79584 0,0.59861 0,1.19721 0,1.79582 0,2.99304 0,5.98609 0,8.97913 0,1.79583 0,3.59166 0,5.38749 0,0.29931 -0.21164,0.68627 0,0.89791 0.21164,0.21164 0.59861,0 0.89792,0 1.19722,0 2.39443,0 3.59165,0 2.39444,0 4.78887,0 7.18331,0 0.72285,0 3.02807,0.18786 3.59165,0 1.26984,-0.42328 2.39444,-1.19722 3.59165,-1.79583 0.59862,-0.2993 1.14655,-0.73559 1.79583,-0.89791 0.58074,-0.14518 1.19722,0 1.79583,0 1.49652,0 2.99305,0 4.48957,0 1.49652,0 2.99304,0 4.48956,0 0.29931,0 0.76407,-0.2677 0.89792,0 0.2677,0.53542 -0.18929,1.22794 0,1.79583 0.13386,0.40156 0.70861,0.51932 0.89791,0.89791 0.2649,0.52979 -0.20587,2.07613 0,2.69375 0.21165,0.63491 0.68628,1.1609 0.89792,1.79581 0.16199,0.48597 0,3.28576 0,3.59166 0,1.79583 0,3.59166 0,5.38748 0,1.49653 0.29349,3.02211 0,4.48957 -0.13125,0.65627 -0.59861,1.19722 -0.89792,1.79583 -0.29931,0.5986 -0.52666,1.23896 -0.89791,1.79582 -0.2348,0.35219 -0.70862,0.51933 -0.89792,0.89792 -0.13386,0.2677 0.21165,0.68626 0,0.89791 -0.21163,0.21164 -0.74391,-0.25665 -0.8979,0 -0.82926,1.3821 -1.22989,2.98038 -1.79583,4.48956 -0.33234,0.88623 -0.80373,1.75195 -0.89793,2.69375 -0.20847,2.08473 0.174,4.19749 0,6.28539 -0.12673,1.52089 -0.55473,3.00249 -0.8979,4.48957 -0.83247,3.60738 -1.96768,7.14466 -2.69373,10.77496 -0.0898,0.44902 0.12905,3.4626 0,3.59165 -0.0289,0.0289 -2.47599,0 -2.69376,0 -0.29929,0 -0.68626,0.21164 -0.89791,0 -0.21164,-0.21164 0,-0.59861 0,-0.89792 0,-0.5986 0,-1.1972 0,-1.79582 0,-0.89791 0,-1.79583 0,-2.69373 0,-2.57991 -0.33204,-1.82973 1.79583,-4.48958 4.62772,-5.78465 0.0229,-0.46038 2.69374,-1.79583 0.3786,-0.1893 0.59862,-0.59861 0.89792,-0.8979 0.5986,-0.59862 1.11856,-1.2879 1.79581,-1.79583 0.53543,-0.40156 1.23899,-0.52668 1.79583,-0.89791 0.70439,-0.4696 1.03865,-1.41724 1.79583,-1.79583 0.26771,-0.13386 0.68628,0.21163 0.89792,0 0.19333,-0.19334 -0.20492,-2.42052 0,-2.69375 0.89791,-0.89791 1.79583,-1.79583 2.69375,-2.69373 0.2993,0 0.6302,0.13385 0.89791,0 0.37859,-0.1893 0.54572,-0.66313 0.89792,-0.89791 0.55685,-0.37125 1.32257,-0.42468 1.79581,-0.89792 1.85782,-1.85782 -2.83898,0.0726 0.89792,-1.79583 0.26771,-0.13385 0.68627,0.21164 0.89791,0 0.0374,-0.0374 -0.0254,-4.36249 0,-4.48957 0.18563,-0.9281 0.66836,-1.77551 0.89792,-2.69373 0.0726,-0.29038 -0.11116,-0.62002 0,-0.89792 0.49712,-1.24279 1.19722,-2.39443 1.79583,-3.59165 0.2993,-0.59861 0.52667,-1.23896 0.89791,-1.79583 0.2348,-0.35219 0.59861,-0.59861 0.89791,-0.89792 0.2993,-0.29929 0.51933,-0.70861 0.89792,-0.89791 0.2677,-0.13385 0.6302,0.13386 0.89791,0 0.75719,-0.37859 1.03863,-1.41722 1.79582,-1.79582 0.26771,-0.13385 0.64889,0.16602 0.89792,0 0.70438,-0.46959 1.19722,-1.19722 1.79582,-1.79583 0.29931,-0.2993 0.51932,-0.70861 0.89792,-0.89791 0.2677,-0.13386 0.61397,0.0947 0.89791,0 1.26984,-0.42328 2.32181,-1.37255 3.59166,-1.79583 0.48595,-0.16198 3.28576,0 3.59165,0 3.29235,0 6.58469,0 9.87704,0 0.89792,0 1.79583,0 2.69375,0 0.2993,0 0.68627,0.21164 0.89791,0 0.21164,-0.21164 -0.29931,-0.89791 0,-0.89791 0.29931,0 0,0.5986 0,0.89791 0.59861,-0.59861 1.09145,-1.32623 1.79583,-1.79583 0.24903,-0.16602 0.5986,0 0.89791,0 0.62453,0 4.16485,-0.16235 4.48956,0 0.78236,0.39118 1.6396,2.0688 1.79583,2.69374 0.14519,0.58074 -0.14518,1.21509 0,1.79583 0.16232,0.64928 0.59861,1.19722 0.89792,1.79583 0.2993,0.89791 0.66835,1.77552 0.89791,2.69373 0.14518,0.58075 0,1.19723 0,1.79583 0,1.79583 0,3.59166 0,5.38749 0,0.5986 0,1.19721 0,1.79582 0,0.29931 0.2993,0.89791 0,0.89791 -0.29931,0 -0.29931,-0.89791 0,-0.89791 0.42328,0 0.59861,0.59861 0.89792,0.89791 0.29929,0.29931 0.70861,0.51932 0.89791,0.89792 0.13385,0.26771 -0.21164,0.68627 0,0.89791 0.21164,0.21164 0.68627,-0.21164 0.89791,0 0.0289,0.0289 0,2.47598 0,2.69374 0,0.59861 0.33205,1.29775 0,1.79583 -0.37124,0.55686 -1.26042,0.49636 -1.79582,0.89792 -0.67725,0.50792 -1.11858,1.28789 -1.79583,1.79581 -0.53542,0.40156 -1.23897,0.52668 -1.79583,0.89792 -0.35219,0.23479 -0.59861,0.59861 -0.89792,0.89791 -0.29929,0.29931 -0.70861,0.51932 -0.89791,0.89792 -0.13385,0.2677 0,0.5986 0,0.89791 0,0.59861 0,1.19722 0,1.79583 0,0.29931 0,0.59861 0,0.89792 0,0.29929 -0.2677,0.76405 0,0.89791 0.53542,0.2677 1.19722,0 1.79583,0 0.5986,0 1.19722,0 1.79583,0 0.50118,0 4.07853,0.137 4.48956,0 0.40156,-0.13386 0.54572,-0.66312 0.89791,-0.89791 0.55687,-0.37125 1.32259,-0.42468 1.79583,-0.89792 0.47324,-0.47323 0.55359,-1.22194 0.89792,-1.79583 0.55522,-0.92537 1.12168,-1.85106 1.79582,-2.69374 0.52884,-0.66105 1.28789,-1.11857 1.79582,-1.79582 1.97826,-0.45219 0.47465,-1.84718 0.89792,-2.69374 0.18929,-0.3786 0.70861,-0.51932 0.89791,-0.89792 0.35917,-0.71833 -0.35916,-1.97541 0,-2.69374 0.1893,-0.37859 0.70862,-0.51932 0.89792,-0.89791 0.13385,-0.26771 0,-0.59861 0,-0.89792 0,-0.73512 -0.19393,-3.90779 0,-4.48956 0.21163,-0.63492 0.68627,-1.16091 0.89791,-1.79583 0.1893,-0.56789 -0.2677,-1.26041 0,-1.79583 0.1893,-0.37859 0.76407,-0.49635 0.89791,-0.89791 0.28395,-0.85184 0,-1.79583 0,-2.69374 0,-2.09513 0,-4.19026 0,-6.28539 0,-2.39444 0,-4.78887 0,-7.18331 0,-0.29931 0.21164,-0.68627 0,-0.89791 -0.21164,-0.21164 -0.68627,0.21164 -0.89791,0 -0.42328,-0.42328 0.42329,-1.37255 0,-1.79583 -0.21164,-0.21164 -0.68628,0.21164 -0.89791,0 -0.21164,-0.21164 0,-0.59861 0,-0.89791 0,-0.40621 -0.11965,-5.14819 0,-5.38749 0.2079,-0.4158 3.06355,-3.06355 3.59165,-3.59165 0.59861,-0.5986 1.28789,-1.11858 1.79583,-1.79583 1.09042,-1.45389 0.42263,-1.77828 1.79583,-2.69373 0.55686,-0.37125 1.23896,-0.52667 1.79583,-0.89791 0.35219,-0.2348 0.54571,-0.66313 0.89791,-0.89793 0.55686,-0.37123 1.19721,-0.5986 1.79582,-0.8979 1.19722,-0.59861 2.32182,-1.37255 3.59166,-1.79583 0.56789,-0.1893 1.21508,0.14518 1.79583,0 0.64927,-0.16232 1.14654,-0.73559 1.79582,-0.89791 0.79216,-0.19805 2.82245,0.25639 3.59165,0 0.63492,-0.21164 1.16091,-0.68628 1.79583,-0.89792 0.28394,-0.0947 0.63021,0.13386 0.89791,0 0.3786,-0.18929 0.49636,-0.76406 0.89792,-0.89791 0.56789,-0.1893 1.21508,0.14518 1.79583,0 4.33597,-1.08399 -0.0445,-0.42671 2.69373,-1.79583 0.26771,-0.13385 0.64889,0.16604 0.89791,0 0.70439,-0.46958 1.11858,-1.28789 1.79583,-1.79581 0.53542,-0.40157 1.23896,-0.52668 1.79583,-0.89792 1.32127,-0.88084 2.2704,-2.71082 3.59167,-3.59166 0.55684,-0.37124 1.23895,-0.52667 1.79581,-0.89791 0.3522,-0.2348 0.51932,-0.70862 0.89791,-0.89792 0.26772,-0.13385 0.61397,0.0947 0.89791,0 1.26986,-0.42328 2.2931,-1.47118 3.59166,-1.79583 0.58073,-0.14518 1.19722,0 1.79583,0 1.49652,0 2.99304,0 4.48956,0 z"
       id="path168-6"
       inkscape:connector-curvature="0" />
    <path
       style="fill:none;fill-rule:evenodd;stroke:#000000;stroke-width:0.9375px;stroke-linecap:butt;stroke-linejoin:miter;stroke-opacity:1"
       d="m 589.92907,622.26169 c 0.59862,1.19722 0.99271,2.52084 1.79583,3.59166 0.17958,0.23945 0.59861,0 0.89791,0 0.59861,0 1.19723,0 1.79583,0 4.19027,0 8.38054,0 12.5708,0 0.32973,0 3.55551,0.0361 3.59164,0 0.42328,-0.42328 -0.2677,-1.26041 0,-1.79583 0.1893,-0.37859 0.66312,-0.54572 0.89791,-0.89791 0.37124,-0.55686 0.42468,-1.32259 0.89792,-1.79583 0.47324,-0.47324 1.23896,-0.52667 1.79583,-0.89791 0.70438,-0.46959 1.09145,-1.32624 1.79583,-1.79582 0.55685,-0.37125 1.23896,-0.52668 1.79582,-0.89792 0.3522,-0.2348 0.51931,-0.70862 0.89791,-0.89791 0.53541,-0.26771 1.22794,0.18929 1.79583,0 0.63491,-0.21164 1.16091,-0.68628 1.79582,-0.89792 0.53542,-0.17846 4.51752,0 5.38749,0 0.2993,0 0.68626,-0.21164 0.8979,0 0.21165,0.21164 -0.13383,0.63021 0,0.89792 0.1893,0.37859 0.59863,0.5986 0.89792,0.89791 0,0.59861 -0.1893,1.22794 0,1.79583 0.13386,0.40156 0.76408,0.49635 0.89791,0.89791 0.26938,0.80812 -0.26937,1.88562 0,2.69374 0.21164,0.63492 0.68628,1.16091 0.89792,1.79583 0.0947,0.28394 -0.13385,0.63021 0,0.89791 0.18929,0.37859 0.70861,0.51932 0.89791,0.89791 0.35918,0.71833 -0.35916,1.97542 0,2.69375 0.1893,0.37859 0.70862,0.51932 0.89792,0.89791 0.13386,0.2677 0,0.59861 0,0.89791 0,0.59861 -0.1893,1.22793 0,1.79582 0.13386,0.40156 0.70861,0.51932 0.89791,0.89792 0.46386,0.92772 -0.81579,2.1225 0.89791,2.69374 0.56789,0.1893 1.29775,-0.33204 1.79584,0 0.55685,0.37124 0.42466,1.32258 0.89791,1.79583 0.21165,0.21164 0.68626,-0.21165 0.8979,0 0.21165,0.21164 -0.21164,0.68627 0,0.8979 0.21165,0.21165 0.59863,0 0.89792,0 0.2993,0 0.59862,0 0.89791,0 0.29931,0 0.68627,0.21165 0.89791,0 0.21164,-0.21163 0,-0.5986 0,-0.8979 0,-0.89792 0,-1.79583 0,-2.69374 0,-3.29235 0,-6.5847 0,-9.87705 0,-2.39444 0,-4.78887 0,-7.1833 0,-0.29931 0,-0.59862 0,-0.89792 0,-0.29931 -0.29929,-0.89791 0,-0.89791 0.29932,0 0,1.19721 0,0.89791 0,-0.0883 0.0463,-5.29488 0,-5.38748 -0.13384,-0.26771 -0.68627,0.21164 -0.89791,0 -0.47324,-0.47325 -0.52667,-1.23897 -0.89791,-1.79582 -0.23478,-0.3522 -0.70862,-0.51932 -0.89792,-0.89792 -0.13385,-0.26771 0.21165,-0.68627 0,-0.89791 -0.47324,-0.47324 -1.23896,-0.52667 -1.79581,-0.89792 -0.35219,-0.23479 -0.59862,-0.5986 -0.89791,-0.89791 -0.29932,-0.29931 -0.66313,-0.54572 -0.89793,-0.89791 -0.54682,-0.82024 -0.76645,-2.17905 -1.79582,-2.69375 -0.53542,-0.2677 -1.37255,0.42328 -1.79583,0 -1.8578,-1.85781 2.839,0.0727 -0.89792,-1.79583 -0.2677,-0.13384 -0.5986,0 -0.89791,0 -0.29929,0 -0.59861,0 -0.89792,0 -1.49652,0 -2.99304,0 -4.48956,0 -1.79583,0 -3.59165,0 -5.38748,0 -0.2993,0 -0.59861,0 -0.89791,0 -0.2993,0 -0.63021,-0.13384 -0.8979,0 -0.3786,0.1893 -0.51932,0.70862 -0.89792,0.89792 -0.18418,0.0921 -2.56712,0.12663 -2.69375,0 -0.21164,-0.21164 0.0947,-0.61397 0,-0.89792 -0.21164,-0.63491 -0.68627,-1.1609 -0.89791,-1.79581 -0.1893,-0.56789 0.2677,-1.26043 0,-1.79583 -0.1893,-0.3786 -0.70862,-0.51932 -0.89792,-0.89792 -0.178,-0.35602 0.18357,-2.51018 0,-2.69374 -0.21164,-0.21164 -0.68627,0.21164 -0.89791,0 -0.21164,-0.21164 0.0726,-0.60755 0,-0.89791 -0.22954,-0.91822 -0.71229,-1.76564 -0.89792,-2.69374 -0.23477,-1.17397 0.29038,-2.43018 0,-3.59165 -0.16231,-0.64929 -0.68626,-1.16091 -0.89791,-1.79583 -0.0947,-0.28395 0.13386,-0.63021 0,-0.89792 -0.1893,-0.37859 -0.59861,-0.5986 -0.8979,-0.89791 -0.29931,-0.2993 -0.51931,-0.70862 -0.89791,-0.89791 -0.26772,-0.13385 -0.68627,0.21163 -0.89791,0 -0.21164,-0.21164 0.13383,-0.63021 0,-0.89792 -0.51471,-1.02938 -1.87351,-1.249 -2.69375,-1.79582 -0.35219,-0.23479 -0.54573,-0.66313 -0.89792,-0.89791 -0.55686,-0.37124 -1.23896,-0.52668 -1.79583,-0.89792 -0.35219,-0.23479 -0.49635,-0.76406 -0.89791,-0.89791 -2.69373,-0.89791 -0.89792,0.44896 -2.69373,0 -0.91823,-0.22956 -1.77553,-0.66835 -2.69375,-0.89791 -0.47095,-0.11774 -3.43795,0.15368 -3.59165,0 -0.21164,-0.21164 0,-0.59861 0,-0.89792 0,-1.70941 -0.23229,-2.98263 0.89791,-4.48957 0.50794,-0.67725 1.28789,-1.11857 1.79583,-1.79582 0.80312,-1.07083 0.84935,-2.64517 1.79583,-3.59166 0.21164,-0.21164 0.68628,0.21164 0.89792,0 0.47323,-0.47324 0.52666,-1.23896 0.89791,-1.79582 0.23478,-0.35219 0.70861,-0.51933 0.89791,-0.89792 0.13385,-0.2677 -0.16603,-0.64887 0,-0.89791 0.46958,-0.70438 1.19721,-1.19721 1.79582,-1.79582 0.29931,-0.29931 0.51932,-0.70862 0.89791,-0.89792 0.84657,-0.42328 1.79583,-0.59861 2.69375,-0.89791 0.89791,-0.29931 1.76563,-0.7123 2.69375,-0.89791 0.58697,-0.11741 1.21507,0.14518 1.79582,0 0.64927,-0.16233 1.13955,-0.76666 1.79581,-0.89792 1.46747,-0.29349 2.99307,0 4.48958,0 3.29235,0 6.58469,0 9.87704,0 0.89793,0 1.80486,0.12698 2.69376,0 1.22164,-0.17453 2.37436,-0.69504 3.59163,-0.89791 2.03324,-0.33888 4.26515,0.40404 6.28541,0 0.65626,-0.13126 1.16089,-0.68628 1.79582,-0.89792 1.17074,-0.39024 2.40508,-0.55889 3.59165,-0.89791 0.89791,-0.2993 1.79583,-0.59861 2.69375,-0.89792 0.5986,-0.29929 1.1609,-0.68627 1.79583,-0.89791 2.2672,-0.75573 -0.93513,1.82374 2.69372,-0.89791 0.67725,-0.50793 1.11858,-1.28789 1.79583,-1.79582 0.53543,-0.40156 1.26042,-0.49636 1.79583,-0.89792 0.67725,-0.50794 1.11859,-1.28789 1.79584,-1.79582 0.5354,-0.40156 1.2604,-0.49636 1.79583,-0.89792 0.67724,-0.50794 1.11857,-1.28789 1.79581,-1.79583 0.53541,-0.40156 1.23898,-0.52667 1.79582,-0.89791 0.70439,-0.46959 1.11858,-1.28789 1.79583,-1.79583 0.86334,-0.64749 1.83041,-1.14833 2.69375,-1.79582 0.77434,-0.58076 3.12232,-3.43521 3.59165,-3.59166 0.5679,-0.18929 1.22793,0.1893 1.79582,0 3.32866,-1.10955 -1.09451,-0.89791 1.79583,-0.89791 0.29932,0 0.89791,-0.29931 0.89791,0 0,0.29931 -0.59859,0 -0.89791,0 -1.49652,0 -2.99303,0 -4.48955,0 -6.28541,0 -12.57079,0 -18.85619,0 -1.52768,0 -3.25864,-0.33301 -4.48957,0.89791 -0.21163,0.21164 0.13386,0.63022 0,0.89792 -0.7805,1.56097 -1.91325,2.92858 -2.69375,4.48956 -0.13384,0.26771 0.21164,0.68627 0,0.89791 -0.21164,0.21164 -0.68627,-0.21164 -0.89791,0 -1.8578,1.85782 2.839,-0.0727 -0.89791,1.79583 -0.89791,0.29931 -1.79582,0.59861 -2.69373,0.89792 -0.29932,0 -0.61397,-0.0947 -0.89791,0 -6.50397,2.16799 1.41564,-0.25887 -2.69375,1.79583 -0.2677,0.13385 -0.68628,-0.21164 -0.89792,0 -0.21164,0.21163 0.21164,0.68627 0,0.89791 -0.21164,0.21164 -0.59859,0 -0.89791,0 -0.2993,0 -0.59861,0 -0.89792,0 -1.49652,0 -2.99304,0 -4.48955,0 -3.29235,0 -6.5847,0 -9.87705,0 -0.47968,0 -4.23259,-0.1285 -4.48958,0 -2.44767,1.22384 -3.83771,3.26572 -6.28539,4.48956 -0.95364,0.47683 -0.84219,-0.47682 -1.79582,0 -0.3786,0.1893 -0.5986,0.59862 -0.89792,0.89791 -0.89791,0.29931 -1.84717,0.47464 -2.69374,0.89792 -0.37859,0.1893 -0.55929,0.64394 -0.89792,0.89791 -0.86332,0.64749 -1.7285,1.31321 -2.69372,1.79583 -0.26772,0.13386 -0.59862,0 -0.89792,0 -0.29931,0.29931 -0.51932,0.70862 -0.89792,0.89792 -0.2677,0.13384 -0.64126,-0.154 -0.89791,0 -1.19722,0.89791 -2.39444,1.79582 -3.59166,2.69374 0,0.2993 0.21164,0.68626 0,0.8979 -0.21164,0.21165 -0.68627,-0.21164 -0.89791,0 -0.47324,0.47325 -0.42467,1.32259 -0.89791,1.79583 -1.85782,1.85782 0.0727,-2.83898 -1.79582,0.89792 -0.13386,0.2677 0.16602,0.64887 0,0.89791 -1.79583,2.69374 -1.34688,0.89791 -2.69375,2.69374 -0.61474,0.81965 -2.27592,3.23613 -2.69374,4.48956 -0.0947,0.28395 0.0726,0.60755 0,0.89792 -0.22955,0.91823 -0.66836,1.77552 -0.89792,2.69374 -0.0726,0.29037 0.0947,0.61397 0,0.89792 -0.5436,1.63081 -0.76847,1.66639 -1.79582,2.69374 -0.2993,0.2993 -0.70861,0.51932 -0.89791,0.89791 -0.13385,0.26771 0.21165,0.68627 0,0.89791 -0.21164,0.21165 -0.63021,-0.13385 -0.8979,0 -0.96524,0.48261 -1.83043,1.14833 -2.69376,1.79583 -1.70182,1.27636 -0.44163,1.64373 -3.59165,2.69374 -0.85184,0.28394 -1.82264,-0.21778 -2.69373,0 -1.56369,0.39092 -2.94575,1.33268 -4.48958,1.79583 -1.42875,3.20813 -3.62123,0.45635 -5.38747,0.89791 -0.91823,0.22955 -1.77553,0.66836 -2.69374,0.89791 -0.29037,0.0726 -0.59861,0 -0.89792,0 -0.89791,0.2993 -1.81495,0.5464 -2.69374,0.89792 -0.62139,0.24856 -1.13567,0.78788 -1.79583,0.89791 -1.18093,0.19682 -2.39443,0 -3.59165,0 -2.09513,0 -4.19026,0 -6.2854,0 -0.76021,0 -3.10891,-0.16091 -3.59164,0 -0.40156,0.13385 -0.51932,0.70861 -0.89792,0.89791 -0.2677,0.13385 -0.61397,-0.0947 -0.89791,0 -0.63492,0.21164 -1.16091,0.68627 -1.79583,0.89791 -0.28395,0.0947 -0.60755,-0.0726 -0.89791,0 -0.91822,0.22956 -1.76014,0.74232 -2.69375,0.89792 -0.45746,0.0762 -4.92353,-0.23197 -5.38747,0 -0.3786,0.18929 -0.49636,0.76406 -0.89792,0.89791 -0.80812,0.26937 -1.88561,-0.26937 -2.69374,0 -0.63492,0.21164 -1.1609,0.68628 -1.79583,0.89791 -0.28394,0.0947 -0.6302,-0.13385 -0.8979,0 -0.3786,0.1893 -0.51932,0.70862 -0.89792,0.89792 -0.26771,0.13386 -0.59861,0 -0.89791,0 -0.59862,0.29931 -1.26042,0.49635 -1.79583,0.89791 -0.67725,0.50794 -1.11858,1.28789 -1.79583,1.79583 -0.53541,0.40156 -1.26041,0.49636 -1.79583,0.89792 -0.67725,0.50792 -1.19721,1.19721 -1.79583,1.79581 -0.8979,0.89792 -1.98935,1.63718 -2.69373,2.69375 -1.05003,1.57504 -0.94927,3.69436 -1.79583,5.38748 -0.18929,0.3786 -0.70861,0.51932 -0.89791,0.89792 -0.2677,0.5354 0.42328,1.37254 0,1.79582 -0.21164,0.21164 -0.73189,-0.24903 -0.89792,0 -2.16636,1.08397 -0.21539,3.12453 -0.89791,4.48957 -0.13385,0.2677 -0.68627,-0.21164 -0.89791,0 -0.21164,0.21164 0.11116,0.62001 0,0.89791 -0.49712,1.2428 -1.10716,2.44387 -1.79583,3.59165 -0.21778,0.36297 -0.59861,0.59861 -0.89791,0.89791 -0.59861,0.89792 -1.31322,1.72852 -1.79583,2.69375 -0.42327,0.84655 -0.66836,1.77551 -0.89791,2.69374 -0.0726,0.29036 0.21164,0.68627 0,0.89791 -0.21164,0.21164 -0.59861,0 -0.89791,0 -0.89792,0.89792 -1.90048,1.70216 -2.69375,2.69374 -0.41809,0.5226 -0.52667,1.23897 -0.89791,1.79582 -0.63138,0.94708 -3.17074,2.48329 -3.59165,2.69375 -0.26711,0.13354 -5.00976,0 -5.38748,0 -3.29235,0 -6.5847,0 -9.87705,0 -0.59861,0 -1.19721,0 -1.79583,0 -0.2993,0 -0.68627,0.21164 -0.89791,0 -0.42328,-0.42328 0.42328,-1.37255 0,-1.79583 -0.21164,-0.21164 -0.68627,0.21164 -0.89792,0 -0.2756,-0.27561 0.16663,-2.92517 0,-3.59165 -0.16231,-0.64929 -0.68626,-1.16091 -0.8979,-1.79583 -0.21398,-0.64193 0,-5.27709 0,-6.2854 0,-0.2993 0.13385,-0.6302 0,-0.89791 -0.1893,-0.3786 -0.76407,-0.49635 -0.89792,-0.89791 -0.18929,-0.56789 0.26771,-1.26042 0,-1.79582 -0.26771,-0.53542 -1.37254,0.42327 -1.79582,0 -0.21164,-0.21164 0.21164,-0.68628 0,-0.89792 -0.42328,-0.42328 -1.37255,0.42328 -1.79583,0 -0.21164,-0.21164 0.21164,-0.68627 0,-0.89791 -0.0289,-0.0289 -2.47598,0 -2.69375,0 -2.09512,0 -4.19026,0 -6.28538,0 -0.89792,0 -1.79583,0 -2.69375,0 -0.5986,0 -1.22794,-0.1893 -1.79583,0 -0.63491,0.21164 -1.1609,0.68627 -1.79582,0.89791 -0.28395,0.0947 -0.63021,-0.13386 -0.89791,0 -0.15404,0.0771 -2.65656,2.58219 -2.69374,2.69374 -0.1893,0.56789 0.18929,1.22793 0,1.79582 -0.13386,0.40156 -0.59861,0.59862 -0.89792,0.89792 -0.2993,0.89791 -0.76405,1.75677 -0.89791,2.69374 -0.2963,2.07407 0.34444,4.21877 0,6.28539 -0.1556,0.93361 -0.71229,1.76564 -0.89791,2.69374 -0.1761,0.88048 0.28394,1.84191 0,2.69374 -0.21164,0.63492 -0.7356,1.14655 -0.89792,1.79582 -0.14518,0.58074 0,1.19723 0,1.79584 0,0.59861 0,1.19721 0,1.79582 0,2.99304 0,5.98609 0,8.97913 0,1.79583 0,3.59166 0,5.38749 0,0.29931 -0.21164,0.68627 0,0.89791 0.21164,0.21164 0.59861,0 0.89792,0 1.19722,0 2.39443,0 3.59165,0 2.39444,0 4.78887,0 7.18331,0 0.72285,0 3.02807,0.18786 3.59165,0 1.26984,-0.42328 2.39444,-1.19722 3.59165,-1.79583 0.59862,-0.2993 1.14655,-0.73559 1.79583,-0.89791 0.58074,-0.14518 1.19722,0 1.79583,0 1.49652,0 2.99304,0 4.48957,0 1.49652,0 2.99304,0 4.48956,0 0.29931,0 0.76406,-0.2677 0.89791,0 0.26771,0.53542 -0.18929,1.22794 0,1.79583 0.13386,0.40156 0.70862,0.51932 0.89792,0.89791 0.26489,0.52979 -0.20588,2.07613 0,2.69375 0.21164,0.63491 0.68627,1.1609 0.89791,1.79581 0.16199,0.48597 0,3.28576 0,3.59166 0,1.79583 0,3.59166 0,5.38748 0,1.49653 0.29349,3.02211 0,4.48957 -0.13125,0.65627 -0.5986,1.19722 -0.89791,1.79583 -0.29931,0.5986 -0.52667,1.23896 -0.89792,1.79582 -0.23479,0.35219 -0.70861,0.51933 -0.89791,0.89792 -0.13386,0.2677 0.21164,0.68626 0,0.89791 -0.21164,0.21164 -0.74392,-0.25665 -0.89791,0 -0.82926,1.3821 -1.22989,2.98038 -1.79583,4.48956 -0.33233,0.88623 -0.80373,1.75195 -0.89792,2.69375 -0.20847,2.08473 0.174,4.19749 0,6.28539 -0.12674,1.52089 -0.55473,3.00249 -0.8979,4.48957 -0.83248,3.60738 -1.96769,7.14466 -2.69374,10.77496 -0.0898,0.44902 0.12905,3.4626 0,3.59165 -0.0289,0.0289 -2.47598,0 -2.69375,0 -0.2993,0 -0.68627,0.21164 -0.89791,0 -0.21164,-0.21164 0,-0.59861 0,-0.89792 0,-0.5986 0,-1.1972 0,-1.79582 0,-0.89791 0,-1.79583 0,-2.69373 0,-2.57991 -0.33205,-1.82973 1.79583,-4.48958 4.62772,-5.78465 0.0229,-0.46038 2.69374,-1.79583 0.37859,-0.1893 0.59861,-0.59861 0.89791,-0.8979 0.59861,-0.59862 1.11857,-1.2879 1.79582,-1.79583 0.53542,-0.40156 1.23898,-0.52668 1.79583,-0.89791 0.70438,-0.4696 1.03864,-1.41724 1.79583,-1.79583 0.2677,-0.13386 0.68627,0.21163 0.89791,0 0.19334,-0.19334 -0.20491,-2.42052 0,-2.69375 0.89792,-0.89791 1.79583,-1.79583 2.69375,-2.69373 0.2993,0 0.6302,0.13385 0.89791,0 0.37859,-0.1893 0.54572,-0.66313 0.89792,-0.89791 0.55685,-0.37125 1.32257,-0.42468 1.79581,-0.89792 1.85782,-1.85782 -2.83898,0.0726 0.89792,-1.79583 0.26771,-0.13385 0.68627,0.21164 0.89791,0 0.0374,-0.0374 -0.0254,-4.36249 0,-4.48957 0.18563,-0.9281 0.66836,-1.77551 0.89792,-2.69373 0.0726,-0.29038 -0.11116,-0.62002 0,-0.89792 0.49712,-1.24279 1.19722,-2.39443 1.79583,-3.59165 0.2993,-0.59861 0.52667,-1.23896 0.89791,-1.79583 0.2348,-0.35219 0.59861,-0.59861 0.89791,-0.89792 0.2993,-0.29929 0.51933,-0.70861 0.89792,-0.89791 0.2677,-0.13385 0.6302,0.13386 0.89791,0 0.75719,-0.37859 1.03863,-1.41722 1.79582,-1.79582 0.26771,-0.13385 0.64889,0.16602 0.89792,0 0.70438,-0.46959 1.19722,-1.19722 1.79582,-1.79583 0.29931,-0.2993 0.51932,-0.70861 0.89792,-0.89791 0.2677,-0.13386 0.61397,0.0947 0.89791,0 1.26984,-0.42328 2.32181,-1.37255 3.59166,-1.79583 0.48595,-0.16198 3.28576,0 3.59165,0 3.29235,0 6.58469,0 9.87704,0 0.89792,0 1.79583,0 2.69375,0 0.2993,0 0.68627,0.21164 0.89791,0 0.21164,-0.21164 -0.29931,-0.89791 0,-0.89791 0.29931,0 0,0.5986 0,0.89791 0.59861,-0.59861 1.09145,-1.32623 1.79583,-1.79583 0.24903,-0.16602 0.5986,0 0.89791,0 0.62453,0 4.16485,-0.16235 4.48956,0 0.78236,0.39118 1.6396,2.0688 1.79583,2.69374 0.14519,0.58074 -0.14518,1.21509 0,1.79583 0.16232,0.64928 0.59861,1.19722 0.89792,1.79583 0.2993,0.89791 0.66835,1.77552 0.89791,2.69373 0.14518,0.58075 0,1.19723 0,1.79583 0,1.79583 0,3.59166 0,5.38749 0,0.5986 0,1.19721 0,1.79582 0,0.29931 0.2993,0.89791 0,0.89791 -0.29931,0 -0.29931,-0.89791 0,-0.89791 0.42328,0 0.59861,0.59861 0.89792,0.89791 0.29929,0.29931 0.70861,0.51932 0.89791,0.89792 0.13385,0.26771 -0.21164,0.68627 0,0.89791 0.21164,0.21164 0.68627,-0.21164 0.89791,0 0.0289,0.0289 0,2.47598 0,2.69374 0,0.59861 0.33205,1.29775 0,1.79583 -0.37124,0.55686 -1.26042,0.49636 -1.79582,0.89792 -0.67725,0.50792 -1.11858,1.28789 -1.79583,1.79581 -0.53542,0.40156 -1.23897,0.52668 -1.79583,0.89792 -0.35219,0.23479 -0.59861,0.59861 -0.89792,0.89791 -0.29929,0.29931 -0.70861,0.51932 -0.89791,0.89792 -0.13385,0.2677 0,0.5986 0,0.89791 0,0.59861 0,1.19722 0,1.79583 0,0.29931 0,0.59861 0,0.89792 0,0.29929 -0.2677,0.76405 0,0.89791 0.53542,0.2677 1.19722,0 1.79583,0 0.5986,0 1.19722,0 1.79583,0 0.50118,0 4.07853,0.137 4.48956,0 0.40156,-0.13386 0.54572,-0.66312 0.89791,-0.89791 0.55687,-0.37125 1.32259,-0.42468 1.79583,-0.89792 0.47324,-0.47323 0.55359,-1.22194 0.89792,-1.79583 0.55522,-0.92537 1.12168,-1.85106 1.79582,-2.69374 0.52885,-0.66105 1.28789,-1.11857 1.79583,-1.79582 1.97826,-0.45219 0.47465,-1.84718 0.89792,-2.69374 0.18929,-0.3786 0.70861,-0.51932 0.89791,-0.89792 0.35916,-0.71833 -0.35917,-1.97541 0,-2.69374 0.1893,-0.37859 0.70862,-0.51932 0.89792,-0.89791 0.13384,-0.26771 0,-0.59861 0,-0.89792 0,-0.73512 -0.19393,-3.90779 0,-4.48956 0.21163,-0.63492 0.68627,-1.16091 0.89791,-1.79583 0.1893,-0.56789 -0.26771,-1.26041 0,-1.79583 0.1893,-0.37859 0.76406,-0.49635 0.8979,-0.89791 0.28395,-0.85184 0,-1.79583 0,-2.69374 0,-2.09513 0,-4.19026 0,-6.28539 0,-2.39444 0,-4.78887 0,-7.18331 0,-0.29931 0.21164,-0.68627 0,-0.89791 -0.21164,-0.21164 -0.68626,0.21164 -0.8979,0 -0.42328,-0.42328 0.42329,-1.37255 0,-1.79583 -0.21164,-0.21164 -0.68628,0.21164 -0.89791,0 -0.21164,-0.21164 0,-0.59861 0,-0.89791 0,-0.40621 -0.11966,-5.14819 0,-5.38749 0.2079,-0.4158 3.06354,-3.06355 3.59164,-3.59165 0.59861,-0.5986 1.28789,-1.11858 1.79583,-1.79583 1.09042,-1.45389 0.42263,-1.77828 1.79583,-2.69373 0.55686,-0.37125 1.23896,-0.52667 1.79583,-0.89791 0.35219,-0.2348 0.54571,-0.66313 0.89791,-0.89793 0.55686,-0.37123 1.19721,-0.5986 1.79582,-0.8979 1.19722,-0.59861 2.32182,-1.37255 3.59166,-1.79583 0.56789,-0.1893 1.21508,0.14518 1.79583,0 0.64927,-0.16232 1.14654,-0.73559 1.79582,-0.89791 0.79216,-0.19805 2.82245,0.25639 3.59165,0 0.63492,-0.21164 1.16091,-0.68628 1.79583,-0.89792 0.28394,-0.0947 0.63021,0.13386 0.89791,0 0.3786,-0.18929 0.49636,-0.76406 0.89792,-0.89791 0.56789,-0.1893 1.21508,0.14518 1.79583,0 4.33597,-1.08399 -0.0445,-0.42671 2.69373,-1.79583 0.26771,-0.13385 0.64889,0.16603 0.89791,0 0.70439,-0.46958 1.11858,-1.28789 1.79583,-1.79582 0.53542,-0.40156 1.23896,-0.52667 1.79583,-0.89791 1.32127,-0.88084 2.2704,-2.71082 3.59167,-3.59166 0.55684,-0.37124 1.23895,-0.52667 1.79581,-0.89791 0.3522,-0.2348 0.51932,-0.70862 0.89791,-0.89792 0.26772,-0.13385 0.61397,0.0947 0.89791,0 1.26986,-0.42328 2.2931,-1.47118 3.59166,-1.79583 0.58073,-0.14518 1.19722,0 1.79583,0 1.49652,0 2.99304,0 4.48956,0 z"
       id="path168-7"
       inkscape:connector-curvature="0" />
  </g>
</svg>
