<?xml version="1.0" encoding="UTF-8" standalone="no"?>
<!-- Created with Inkscape (http://www.inkscape.org/) -->

<svg
   xmlns:dc="http://purl.org/dc/elements/1.1/"
   xmlns:cc="http://creativecommons.org/ns#"
   xmlns:rdf="http://www.w3.org/1999/02/22-rdf-syntax-ns#"
   xmlns:svg="http://www.w3.org/2000/svg"
   xmlns="http://www.w3.org/2000/svg"
   xmlns:sodipodi="http://sodipodi.sourceforge.net/DTD/sodipodi-0.dtd"
   xmlns:inkscape="http://www.inkscape.org/namespaces/inkscape"
   width="210mm"
   height="297mm"
   id="svg2"
   version="1.1"
   inkscape:version="0.48.5 r10040"
   sodipodi:docname="fiufiu-era-um-gato-muito-perigoso.svg"
   inkscape:export-filename="/home/fredm/projetos/o-rato-anderson/um-dia-este-rato-encontrou-uma-rata.png"
   inkscape:export-xdpi="90"
   inkscape:export-ydpi="90">
  <defs
     id="defs4" />
  <sodipodi:namedview
     id="base"
     pagecolor="#ffffff"
     bordercolor="#666666"
     borderopacity="1.0"
     inkscape:pageopacity="0.0"
     inkscape:pageshadow="2"
     inkscape:zoom="0.36914063"
     inkscape:cx="433.55668"
     inkscape:cy="606.65018"
     inkscape:document-units="px"
     inkscape:current-layer="layer1"
     showgrid="false"
     inkscape:window-width="710"
     inkscape:window-height="693"
     inkscape:window-x="560"
     inkscape:window-y="31"
     inkscape:window-maximized="0" />
  <metadata
     id="metadata7">
    <rdf:RDF>
      <cc:Work
         rdf:about="">
        <dc:format>image/svg+xml</dc:format>
        <dc:type
           rdf:resource="http://purl.org/dc/dcmitype/StillImage" />
        <dc:title />
      </cc:Work>
    </rdf:RDF>
  </metadata>
  <g
     inkscape:label="Camada 1"
     inkscape:groupmode="layer"
     id="layer1">
    <path
       style="fill:none;stroke:#000000;stroke-width:1px;stroke-linecap:butt;stroke-linejoin:miter;stroke-opacity:1"
       d="m 422.60317,391.36748 c 0,-3.61199 -3.61199,-10.83598 0,-10.83598 3.61199,0 3.50415,11.71202 0,10.83598 -8.76037,-2.19009 -13.87205,-11.70402 -21.67196,-16.25397 -3.21598,-1.87599 -7.33698,-1.43663 -10.83598,-2.70899 -6.46298,-2.35018 -12.67865,-5.33396 -18.96296,-8.12698 -10.17944,-4.5242 -4.483,-4.1603 -21.67196,-8.12699 -15.05926,-3.47521 -20.44131,-2.70899 -35.21693,-2.70899 -10.83598,0 -21.67196,0 -32.50793,0 -5.41799,0 -10.83598,0 -16.25397,0 -2.709,0 -5.41799,0 -8.12699,0 -1.80599,0 -3.70467,-0.57111 -5.41799,0 -1.21149,0.40383 -1.68736,1.94277 -2.70899,2.70899 -15.41117,11.55838 -1.7458,-1.62539 -13.54497,13.54498 -20.96139,26.95035 -7.81898,4.80198 -24.38096,37.92592 -10.38011,20.76022 -22.88455,41.88623 -27.08994,65.01587 -0.64614,3.55373 0.29996,7.23647 0,10.83598 -0.60459,7.25506 -2.04988,14.42165 -2.709,21.67196 -0.24526,2.69787 0,5.41799 0,8.12698 0,11.73898 0,23.47796 0,35.21693 0,9.93298 0,19.86596 0,29.79894 0,3.612 0,7.22399 0,10.83598 0,3.612 -0.78355,7.31 0,10.83598 3.47033,15.61649 4.63488,11.27685 13.54498,21.67196 2.93831,3.42804 5.41799,7.22399 8.12698,10.83598 3.14915,4.19887 11.10871,15.87581 16.25397,18.96296 16.12452,9.67471 18.47894,7.48838 35.21693,10.83598 8.16356,1.63271 16.12875,4.3177 24.38095,5.41799 5.37046,0.71606 10.83598,0 16.25397,0 9.02998,0 18.05996,0 27.08995,0 17.15696,0 34.31393,0 51.47089,0 9.93299,0 19.86597,0 29.79895,0 11.73897,0 23.6216,1.83084 35.21693,0 5.98337,-0.94474 11.0597,-5.01043 16.25396,-8.12698 23.06287,-13.83772 30.98949,-22.11429 54.1799,-37.92593 9.72772,-6.63253 20.00267,-12.43211 29.79894,-18.96296 3.7567,-2.50447 7.27206,-5.35505 10.83598,-8.12699 10.32624,-8.03152 18.51706,-14.24935 27.08995,-24.38095 21.30948,-25.18393 11.21965,-15.69588 27.08994,-40.63492 6.48782,-10.19514 9.74113,-10.26042 13.54498,-21.67196 1.14221,-3.42663 -0.70837,-7.29412 0,-10.83598 0.56001,-2.80007 2.3548,-5.2935 2.70899,-8.12698 0.56002,-4.48013 0,-9.02998 0,-13.54497 0,-6.32099 0,-12.64198 0,-18.96297 0,-7.40435 0.64771,-35.59418 0,-37.92592 -2.70209,-9.72751 -8.25378,-18.49175 -13.54497,-27.08995 -2.00787,-3.26278 -5.41799,-5.41799 -8.12699,-8.12698 -0.903,-0.903 -1.56678,-2.13789 -2.70899,-2.709 -1.61533,-0.80766 -3.72698,0.63413 -5.41799,0 -67.39118,-28.88193 27.36029,9.78072 -37.92593,-10.83597 -11.19408,-3.53498 -21.24596,-10.23263 -32.50793,-13.54498 -4.33153,-1.27398 -9.09142,0.74226 -13.54498,0 -6.48448,-1.08074 -12.46548,-4.41837 -18.96296,-5.41799 -5.35499,-0.82384 -10.83598,0 -16.25397,0 -4.51499,0 -9.02998,0 -13.54497,0 -14.44797,0 -28.89594,0 -43.34392,0 -14.44797,0 -28.89594,0 -43.34391,0 -4.76826,0 -5.41799,-2.2406 -5.41799,2.709"
       id="path3035"
       inkscape:connector-curvature="0" />
    <path
       style="fill:none;stroke:#000000;stroke-width:1px;stroke-linecap:butt;stroke-linejoin:miter;stroke-opacity:1"
       d="m 284.44444,440.12939 c -5.41799,0 -10.83598,0 -16.25397,0 -4.51499,0 -9.02998,0 -13.54497,0 -1.806,0 -3.66592,-0.43802 -5.41799,0 -1.95888,0.48972 -3.73794,1.58896 -5.41799,2.70899 -3.44935,2.29957 -3.22479,4.47165 -5.41799,8.12699 -1.6751,2.79183 -4.38841,5.03825 -5.41799,8.12698 -0.85666,2.56998 0.65703,5.49887 0,8.12698 -0.30972,1.23891 -2.39927,1.47009 -2.70899,2.709 -0.87604,3.50415 0,7.22398 0,10.83598 0,6.32098 0,12.64197 0,18.96296 0,6.32099 0,12.64197 0,18.96296 0,1.806 -0.57111,3.70467 0,5.41799 0.40383,1.2115 2.13789,1.56678 2.70899,2.709 0.40383,0.80766 -0.40383,1.90132 0,2.70899 0.57111,1.14221 1.806,1.806 2.709,2.709 1.80599,1.80599 3.13356,4.27577 5.41799,5.41798 7.60808,3.80405 16.33897,2.709 24.38095,2.709 9.02998,0 18.05996,0 27.08994,0 3.612,0 7.36297,0.99229 10.83598,0 3.13054,-0.89444 5.52234,-3.46451 8.12699,-5.41799 12.43149,-9.32362 10.8293,-8.12031 18.96296,-16.25397 1.806,-1.80599 4.10393,-3.22789 5.41799,-5.41799 1.46916,-2.44859 1.92452,-5.38132 2.70899,-8.12698 5.56187,-19.46655 -0.16825,-2.03598 5.41799,-24.38095 5.6371,-22.54838 -0.18701,3.27004 5.41799,-13.54498 0.50947,-1.52841 0,-6.34688 0,-8.12698 0,-6.32099 1.53307,-12.8307 0,-18.96296 -0.18025,-0.721 -8.59328,-3.78694 -10.83598,-5.41799 -8.32655,-6.05568 -16.05439,-12.90729 -24.38095,-18.96297 -1.63297,-1.18761 -3.50244,-2.07047 -5.41799,-2.70899 -0.85666,-0.28555 -1.85233,0.28555 -2.70899,0 -1.91555,-0.63852 -3.43804,-2.313 -5.41799,-2.70899 -2.65639,-0.53128 -5.41799,0 -8.12699,0 -10.83597,0 -21.67195,0 -32.50793,0 -3.20962,0 -9.67999,-1.91498 -10.83598,2.70899 -0.65703,2.62811 0,5.41799 0,8.12698 0,2.709 0,5.41799 0,8.12699"
       id="path3037"
       inkscape:connector-curvature="0" />
    <path
       style="fill:none;stroke:#000000;stroke-width:1px;stroke-linecap:butt;stroke-linejoin:miter;stroke-opacity:1"
       d="m 452.40211,448.25637 c -10.83598,0 -21.67196,0 -32.50794,0 -2.70899,0 -5.49887,-0.65703 -8.12698,0 -3.81069,0.95267 -2.38148,3.12537 -2.70899,5.41799 0.40735,9.47969 -3.90407,18.00643 -5.41799,27.08995 -0.44536,2.67213 0,5.41799 0,8.12698 0,6.32099 0,12.64198 0,18.96296 0,6.32099 0,12.64198 0,18.96297 0,1.80599 -0.43802,3.66591 0,5.41799 0.48972,1.95887 2.07047,3.50244 2.70899,5.41798 0.28555,0.85666 -0.63852,2.07048 0,2.709 1.42777,1.42777 3.73794,1.58896 5.41799,2.70899 2.12511,1.41674 2.99499,4.61033 5.41799,5.41799 1.71332,0.57111 3.61199,0 5.41799,0 4.51499,0 9.0576,-0.49859 13.54497,0 4.57625,0.50848 8.96873,2.20053 13.54498,2.709 3.5899,0.39888 7.22398,0 10.83597,0 3.612,0 7.22399,0 10.83598,0 4.29176,0 7.31932,0.80766 10.83598,-2.709 1.42777,-1.42776 1.63884,-3.70574 2.709,-5.41799 3.45114,-5.52183 6.50989,-11.38712 10.83598,-16.25396 2.99959,-3.37455 7.4381,-5.15385 10.83597,-8.12699 3.84426,-3.36372 6.91181,-7.56583 10.83598,-10.83598 10.61712,-8.8476 0.30338,5.03877 10.83598,-8.12698 4.76059,-5.95074 9.21945,-14.39757 10.83598,-21.67196 0.78355,-3.52598 -0.51081,-7.26029 0,-10.83598 0.40383,-2.82683 2.01643,-5.35671 2.70899,-8.12698 0.43802,-1.75207 0,-3.61199 0,-5.41799 0,-3.61199 2.09943,-7.89678 0,-10.83598 -18.11043,-25.35461 -7.62945,-5.25215 -16.25396,-8.12698 -4.51499,-1.806 -9.02999,-3.612 -13.54498,-5.41799 -0.903,-0.903 -1.56678,-2.13789 -2.70899,-2.709 -0.80767,-0.40383 -2.07048,0.63852 -2.709,0 -0.63851,-0.63851 0.63852,-2.07048 0,-2.70899 -0.63851,-0.63852 -1.80599,0 -2.70899,0 -2.709,0 -5.41799,0 -8.12698,0 -9.93299,0 -19.86597,0 -29.79895,0 -2.70899,0 -5.49887,-0.65703 -8.12698,0 -0.38028,0.0951 -4.6313,4.89353 -5.41799,5.41799 -3.32909,2.21939 -8.80368,3.38789 -8.12698,5.41799 1.66504,4.99514 10.48171,8.83551 8.12698,13.54497 -2.45642,4.91284 -10.83598,1.806 -16.25397,2.709"
       id="path3039"
       inkscape:connector-curvature="0" />
    <path
       style="fill:none;stroke:#000000;stroke-width:1px;stroke-linecap:butt;stroke-linejoin:miter;stroke-opacity:1"
       d="m 297.98941,437.42039 c -1.80599,4.51499 -3.24328,9.19556 -5.41799,13.54498 -0.5711,1.14221 -2.13788,1.56678 -2.70899,2.70899 -0.30358,0.60717 0,10.19224 0,10.83598 0,7.22398 0,14.44797 0,21.67196 0,1.80599 0,3.61199 0,5.41799 0,0.90299 0.40383,1.90132 0,2.70899 -0.57111,1.14221 -2.13789,1.56678 -2.70899,2.70899 -0.40384,0.80767 0,1.806 0,2.709 0,0.903 0,1.806 0,2.70899 0,6.32099 0,12.64198 0,18.96297 0,0.903 0,1.80599 0,2.70899 0,0.903 -0.63852,2.07048 0,2.709 0.63851,0.63851 1.80599,0 2.70899,0 0.903,0 1.806,0 2.70899,0 1.806,0 3.80266,0.80766 5.41799,0 0.80767,-0.40384 -0.63851,-2.07048 0,-2.709 0.63852,-0.63851 2.46093,0.86826 2.709,0 3.34751,-11.71629 2.70899,-20.86247 2.70899,-32.50793 0,-3.612 0,-7.22399 0,-10.83598 0,-0.903 -0.19588,-1.8275 0,-2.709 1.61534,-7.26899 3.95765,-14.37024 5.41799,-21.67196 0.60278,-3.01387 0,-10.01585 0,-13.54497 0,-0.903 -0.903,-2.70899 0,-2.70899 0.903,0 0,1.80599 0,2.70899"
       id="path3041"
       inkscape:connector-curvature="0" />
    <path
       style="fill:none;stroke:#000000;stroke-width:1px;stroke-linecap:butt;stroke-linejoin:miter;stroke-opacity:1"
       d="m 465.94708,461.80134 c -11.97819,5.9891 -7.98044,2.56246 -13.54497,8.12699 -0.903,0.903 -2.13789,1.56678 -2.70899,2.70899 -0.40384,0.80767 0.219,1.83296 0,2.709 -3.56566,14.26261 -2.709,1.88877 -2.709,16.25397 0,7.75161 -0.59814,5.6997 -2.70899,16.25396 -0.57929,2.89645 0,10.20549 0,13.54498 0,3.61199 0,7.22398 0,10.83598 0,0.90299 0,1.80599 0,2.70899 0,0.903 0.90299,2.70899 0,2.70899 -0.903,0 -0.903,-2.70899 0,-2.70899 1.27703,0 1.56678,2.13789 2.70899,2.70899 0.82444,0.41222 6.90697,0 8.12698,0 0.903,0 1.806,0 2.709,0 0.903,0 2.07048,0.63852 2.70899,0 0.1736,-0.17359 5.08159,-10.33137 5.41799,-10.83597 0.70837,-1.06256 2.00063,-1.64644 2.709,-2.709 2.24006,-3.36009 3.17792,-7.47588 5.41799,-10.83598 0.70837,-1.06255 2.30516,-1.49749 2.70899,-2.70899 1.10554,-3.31662 -0.84707,-7.44767 0,-10.83598 5.6371,-22.54837 -0.18701,3.27005 5.41799,-13.54497 0.28555,-0.85666 -0.1277,-1.81508 0,-2.709 0.77679,-5.43752 1.87379,-10.82511 2.709,-16.25397 0.97091,-6.31091 1.91701,-12.6271 2.70899,-18.96296 0.112,-0.89602 0,-1.806 0,-2.70899 0,-0.903 0.63852,-2.07048 0,-2.709 -0.63852,-0.63851 -1.806,0 -2.70899,0 -0.903,0 -2.07048,-0.63851 -2.709,0 -1.42776,1.42777 -1.58896,3.73794 -2.70899,5.41799 -0.70837,1.06256 -1.806,1.806 -2.709,2.709 -3.61199,3.61199 -7.22398,7.22398 -10.83598,10.83597 z"
       id="path3043"
       inkscape:connector-curvature="0" />
    <path
       style="fill:none;stroke:#000000;stroke-width:1px;stroke-linecap:butt;stroke-linejoin:miter;stroke-opacity:1"
       d="m 257.35449,635.177 c 7.22399,0 14.44798,0 21.67196,0 2.709,0 5.55701,0.85666 8.12699,0 3.08872,-1.02957 5.2149,-3.96195 8.12698,-5.41799 13.96364,-6.98181 2.29033,1.56383 16.25397,-5.41799 2.91208,-1.45604 5.33515,-3.74289 8.12698,-5.41798 5.19426,-3.11656 10.99459,-5.12163 16.25397,-8.12699 2.82683,-1.61533 5.33515,-3.74289 8.12698,-5.41799 1.73142,-1.03885 3.45911,-2.21927 5.41799,-2.70899 1.75208,-0.43802 4.14096,1.27703 5.41799,0 1.27703,-1.27704 0,-3.612 0,-5.41799 0,-9.93298 0,-19.86596 0,-29.79894 -6.5017,16.53314 -5.41799,31.94302 -5.41799,48.7619 0,0.903 0,1.806 0,2.709 0,1.80599 -1.00178,3.9153 0,5.41798 1.12003,1.68005 3.68657,1.67015 5.41799,2.709 2.79183,1.6751 5.2149,3.96195 8.12699,5.41799 0.80766,0.40383 1.85233,-0.28555 2.70899,0 1.91555,0.63851 3.61199,1.80599 5.41799,2.70899 1.806,0.903 3.68657,1.67015 5.41799,2.709 2.79183,1.6751 5.33515,3.74289 8.12698,5.41799 3.46284,2.0777 7.47589,3.17792 10.83598,5.41799 1.06256,0.70837 1.64644,2.00062 2.709,2.70899 1.68004,1.12003 3.99022,1.28123 5.41799,2.709 0.63851,0.63851 -0.63852,2.07047 0,2.70899 0.63851,0.63852 1.80599,0 2.70899,0 8.12698,0 16.25397,0 24.38095,0"
       id="path3045"
       inkscape:connector-curvature="0" />
    <path
       style="fill:none;stroke:#000000;stroke-width:1px;stroke-linecap:butt;stroke-linejoin:miter;stroke-opacity:1"
       d="m 297.98941,356.15055 c 0,-9.02998 0,-18.05996 0,-27.08994 0,-9.02999 0,-18.05997 0,-27.08995 0,-1.806 1.00179,-3.91531 0,-5.41799 -1.12003,-1.68005 -3.54324,-1.9591 -5.41799,-2.709 -2.65129,-1.06051 -5.41798,-1.80599 -8.12698,-2.70899 -2.70899,-0.903 -5.3103,-2.23955 -8.12698,-2.70899 -2.67214,-0.44536 -5.45485,0.44535 -8.12699,0 -2.81668,-0.46945 -5.3103,-2.23955 -8.12698,-2.709 -3.82947,-0.63824 -9.36093,0 -13.54497,0 -10.83598,0 -21.67196,0 -32.50794,0 -6.32099,0 -12.64198,0 -18.96296,0 -0.903,0 -2.30517,-0.80767 -2.709,0 -0.80766,1.61533 0,3.61199 0,5.41799 0,5.41799 0,10.83598 0,16.25397 0,3.61199 -0.59381,7.27313 0,10.83598 0.75696,4.54175 2.05784,8.98684 2.709,13.54497 0.2554,1.78785 -0.43802,3.66592 0,5.41799 0.48972,1.95888 2.21927,3.45911 2.70899,5.41799 0.43802,1.75207 -0.57111,3.70467 0,5.41799 0.40383,1.2115 2.30516,1.49749 2.709,2.70899 0.5711,1.71332 -0.57111,3.70467 0,5.41799 0.35615,1.06846 9.41939,9.41939 10.83597,10.83598 2.709,2.709 5.41799,5.41799 8.12699,8.12698 0.903,0.903 1.56678,2.13789 2.70899,2.709 0.80767,0.40383 1.90133,-0.40383 2.709,0 2.28442,1.14221 3.13356,4.27578 5.41799,5.41799 0.80766,0.40383 1.80599,0 2.70899,0 2.709,0 5.45485,-0.44536 8.12699,0 2.81667,0.46944 5.35671,2.01643 8.12698,2.70899 0.87604,0.21901 1.806,0 2.70899,0 1.806,0 3.612,0 5.41799,0"
       id="path3047"
       inkscape:connector-curvature="0" />
    <path
       style="fill:none;stroke:#000000;stroke-width:1px;stroke-linecap:butt;stroke-linejoin:miter;stroke-opacity:1"
       d="m 555.34391,361.56854 c -0.903,-4.51499 -3.70783,-9.05021 -2.709,-13.54497 2.86767,-12.90448 8.25358,-9.54478 16.25397,-13.54498 2.91208,-1.45604 5.58463,-3.3841 8.12699,-5.41798 1.99438,-1.59552 3.37473,-3.88556 5.41798,-5.41799 1.61534,-1.2115 3.66487,-1.70721 5.41799,-2.709 4.5716,-2.61234 9.07998,-5.33636 13.54498,-8.12698 2.76092,-1.72558 5.13442,-4.13547 8.12698,-5.41799 9.77349,-4.18864 24.48092,-2.709 35.21693,-2.709 4.51499,0 9.02998,0 13.54498,0 0.90299,0 1.80599,0 2.70899,0 0.903,0 1.90133,-0.40383 2.70899,0 1.14222,0.57111 1.56679,2.13789 2.709,2.709 0.80767,0.40383 2.07048,-0.63852 2.70899,0 0.63852,0.63851 -0.63851,2.07048 0,2.70899 3.29951,3.29951 6.05247,1.26896 8.12699,5.41799 0.40383,0.80767 -0.63852,2.07048 0,2.709 0.63851,0.63851 2.07048,-0.63852 2.70899,0 0.63852,0.63851 -0.21901,1.83295 0,2.70899 0.69257,2.77027 2.01643,5.35671 2.709,8.12699 0.21901,0.87603 0,1.80599 0,2.70899 0,4.51499 0,9.02998 0,13.54497 0,6.32099 0,12.64198 0,18.96297 0,2.70899 1.2115,5.70398 0,8.12698 -1.14222,2.28442 -3.88555,3.37474 -5.41799,5.41799 -1.2115,1.61533 -1.28123,3.99022 -2.709,5.41799 -2.3022,2.3022 -5.82478,3.11579 -8.12698,5.41799 -2.85553,2.85553 -2.56246,7.98045 -5.41799,10.83598 -1.42777,1.42776 -3.73794,1.58896 -5.41799,2.70899 -2.12511,1.41674 -3.13356,4.27578 -5.41799,5.41799 -24.66423,12.33212 3.48915,-6.19814 -10.83598,8.12698 -0.0871,0.0871 -7.46998,0 -8.12698,0 -7.22399,0 -14.52058,-1.02162 -21.67196,0 -0.89392,0.12771 0.63852,2.07048 0,2.709 -0.63851,0.63852 -2.70899,0.903 -2.70899,0 0,-0.903 1.80599,0 2.70899,0"
       id="path3049"
       inkscape:connector-curvature="0" />
  </g>
</svg>
