<?xml version="1.0" encoding="UTF-8" standalone="no"?>
<!-- Created with Inkscape (http://www.inkscape.org/) -->

<svg
   xmlns:dc="http://purl.org/dc/elements/1.1/"
   xmlns:cc="http://creativecommons.org/ns#"
   xmlns:rdf="http://www.w3.org/1999/02/22-rdf-syntax-ns#"
   xmlns:svg="http://www.w3.org/2000/svg"
   xmlns="http://www.w3.org/2000/svg"
   xmlns:sodipodi="http://sodipodi.sourceforge.net/DTD/sodipodi-0.dtd"
   xmlns:inkscape="http://www.inkscape.org/namespaces/inkscape"
   width="210mm"
   height="297mm"
   id="svg2"
   version="1.1"
   inkscape:version="0.48.5 r10040"
   sodipodi:docname="quando-chegaram-perto-da-casa-do-homem.svg"
   inkscape:export-filename="/home/fredm/projetos/o-rato-anderson/um-dia-este-rato-encontrou-uma-rata.png"
   inkscape:export-xdpi="90"
   inkscape:export-ydpi="90">
  <defs
     id="defs4" />
  <sodipodi:namedview
     id="base"
     pagecolor="#ffffff"
     bordercolor="#666666"
     borderopacity="1.0"
     inkscape:pageopacity="0.0"
     inkscape:pageshadow="2"
     inkscape:zoom="0.73828126"
     inkscape:cx="220.0408"
     inkscape:cy="777.32508"
     inkscape:document-units="px"
     inkscape:current-layer="layer1"
     showgrid="false"
     inkscape:window-width="710"
     inkscape:window-height="693"
     inkscape:window-x="560"
     inkscape:window-y="31"
     inkscape:window-maximized="0" />
  <metadata
     id="metadata7">
    <rdf:RDF>
      <cc:Work
         rdf:about="">
        <dc:format>image/svg+xml</dc:format>
        <dc:type
           rdf:resource="http://purl.org/dc/dcmitype/StillImage" />
        <dc:title />
      </cc:Work>
    </rdf:RDF>
  </metadata>
  <g
     inkscape:label="Camada 1"
     inkscape:groupmode="layer"
     id="layer1">
    <path
       style="fill:none;stroke:#000000;stroke-width:1px;stroke-linecap:butt;stroke-linejoin:miter;stroke-opacity:1"
       d="m 535.02645,539.00769 c -1.79286,-6.27499 -3.87381,-14.5201 -6.77249,-20.31746 -0.20192,-0.40383 -0.95066,0.20192 -1.3545,0 -0.5711,-0.28555 -0.73504,-1.19963 -1.35449,-1.3545 -1.31406,-0.32851 -2.709,0 -4.0635,0 -0.45149,0 -0.92616,0.14278 -1.35449,0 -0.95778,-0.31925 -1.72956,-1.10963 -2.709,-1.35449 -0.87603,-0.21901 -1.80599,0 -2.70899,0 -2.2575,0 -4.51499,0 -6.77249,0 -1.29919,0 -9.30363,-0.14228 -9.48148,0 -1.5767,1.26136 -1.9591,3.54324 -2.70899,5.41799 -0.16769,0.4192 0,0.90299 0,1.35449 0,0.903 0,1.806 0,2.709 0,2.70899 0,5.41799 0,8.12698 0,0.3285 -0.0436,4.01993 0,4.06349 0.31925,0.31926 0.92616,-0.14277 1.35449,0 6.28833,3.14417 -0.77964,0.11498 5.41799,1.3545 1.40004,0.28001 2.66345,1.07449 4.06349,1.3545 0.88547,0.17709 1.806,0 2.709,0 3.16049,0 6.32099,0 9.48148,0"
       id="path3035"
       inkscape:connector-curvature="0" />
    <path
       style="fill:none;stroke:#000000;stroke-width:1px;stroke-linecap:butt;stroke-linejoin:miter;stroke-opacity:1"
       d="m 568.88888,526.81722 c -1.3545,-4.515 -2.31283,-9.16833 -4.06349,-13.54498 -0.97775,-2.44437 -2.88613,-4.41775 -4.06349,-6.77248 -0.20192,-0.40384 0,-0.903 0,-1.3545 0,-0.4515 0,-0.903 0,-1.3545 0,-3.61199 0,-7.22398 0,-10.83598 0,-0.903 0,-1.80599 0,-2.70899 0,-0.4515 -0.31926,-1.03524 0,-1.3545 0.71388,-0.71388 1.84328,-0.83507 2.70899,-1.3545 8.9277,-5.35661 -1.30697,-0.46734 9.48148,-4.06349 0.95778,-0.31926 1.71902,-1.1565 2.709,-1.3545 1.32819,-0.26563 2.70899,0 4.06349,0 2.70899,0 5.41799,0 8.12698,0 0.86569,0 7.73627,-0.19536 8.12699,0 4.07749,2.03875 7.62236,6.26787 10.83598,9.48149 0.4515,0.45149 0.82322,1.00031 1.35449,1.35449 1.23732,0.82488 3.28709,1.15618 4.0635,2.709 0.28924,0.57848 0,6.23703 0,6.77248 0,0.91816 0.22727,11.0541 0,12.19048 -0.88636,4.43178 -1.96178,1.75935 -5.41799,4.06349 -0.37567,0.25045 0.31925,1.03524 0,1.3545 -5.28625,5.28624 -0.72743,-0.31353 -4.0635,1.3545 -0.5711,0.28555 -0.74874,1.15258 -1.35449,1.35449 -0.85666,0.28556 -1.85234,-0.28555 -2.709,0 -1.2115,0.40384 -1.56678,2.13789 -2.70899,2.709 -0.41222,0.20611 -3.45349,0 -4.06349,0"
       id="path3037"
       inkscape:connector-curvature="0" />
    <path
       style="fill:none;stroke:#000000;stroke-width:1px;stroke-linecap:butt;stroke-linejoin:miter;stroke-opacity:1"
       d="m 598.68782,545.78018 c -0.25539,-4.27954 -7.26385,-3.75477 -9.48148,-5.41799 -0.80766,-0.60575 -0.64061,-1.99511 -1.3545,-2.709 -0.31925,-0.31925 -0.92616,0.14278 -1.35449,0 -0.903,-0.45149 -1.806,-0.90299 -2.709,-1.35449 0,-0.4515 0.31926,-1.03524 0,-1.3545 -0.63851,-0.63852 -1.90133,0.40383 -2.70899,0 -0.57111,-0.28555 -0.903,-0.903 -1.3545,-1.3545 -3.16049,-1.80599 -6.22567,-3.79008 -9.48148,-5.41799 -1.27703,-0.63851 -2.69594,-0.94423 -4.06349,-1.35449 -3.14834,-0.94451 -6.40381,-1.55487 -9.48148,-2.709 -0.59787,-0.2242 -0.74875,-1.15258 -1.3545,-1.3545 -0.85666,-0.28555 -1.90133,0.40384 -2.709,0 -0.40383,-0.20191 0.31926,-1.03524 0,-1.35449 -0.31925,-0.31926 -0.95066,0.20191 -1.35449,0 -0.57111,-0.28556 -0.74875,-1.15258 -1.3545,-1.3545 -0.85666,-0.28555 -1.806,0 -2.709,0 -1.80599,0 -3.62593,0.22401 -5.41799,0 -1.8472,-0.2309 -3.57078,-1.1236 -5.41798,-1.3545 -2.24007,-0.28001 -4.515,0 -6.77249,0 -2.709,0 -5.41799,0 -8.12699,0 -0.61,0 -3.65127,-0.20611 -4.06349,0 -1.45604,0.72802 -3.08675,1.40667 -4.06349,2.709 -0.5418,0.7224 0.28555,1.85233 0,2.70899 -0.20192,0.60575 -0.97139,0.84369 -1.3545,1.3545 -0.97674,1.30232 -2.1044,2.55202 -2.70899,4.06349 -0.33537,0.83841 0.28555,1.85234 0,2.709 -0.20192,0.60574 -1.19964,0.73504 -1.3545,1.35449 -0.1707,0.6828 0,10.7982 0,10.83598 0,4.51499 0,9.02998 0,13.54497 0,1.27572 -0.25684,6.00197 0,6.77249 0.20192,0.60575 1.00031,0.82322 1.3545,1.3545 0.56001,0.84002 0.97955,1.77162 1.3545,2.70899 0.53025,1.32565 0.49783,2.92128 1.35449,4.0635 0.60575,0.80766 1.99512,0.64061 2.709,1.35449 3.32734,0.48297 0.56251,2.87552 1.3545,4.06349 0.70837,1.06256 2.00062,1.64644 2.70899,2.709 0.25045,0.37567 -0.31926,1.03524 0,1.3545 0.20084,0.20083 7.78478,3.99505 8.12698,4.06349 1.3282,0.26564 2.7353,-0.26564 4.0635,0 0.98997,0.19799 1.72955,1.10964 2.70899,1.3545 2.66436,0.66609 5.40823,0.9661 8.12698,1.35449 0.44697,0.0639 0.95067,-0.20191 1.3545,0 4.13062,2.06531 -2.4773,1.0738 4.06349,2.709 0.87604,0.21901 1.82354,-0.17709 2.709,0 1.40004,0.28001 2.66345,1.07449 4.06349,1.3545 0.88546,0.17709 1.806,0 2.709,0 2.25749,0 4.51499,0 6.77248,0"
       id="path3039"
       inkscape:connector-curvature="0" />
    <path
       style="fill:none;stroke:#000000;stroke-width:1px;stroke-linecap:butt;stroke-linejoin:miter;stroke-opacity:1"
       d="m 414.47619,529.52621 23.02645,9.48148 c 3.16049,0 6.32099,0 9.48148,0 0.4515,0 1.10405,0.37567 1.3545,0 0.79198,-1.18797 0.82424,-2.73784 1.3545,-4.06349 0.37495,-0.93737 0.79448,-1.86897 1.35449,-2.70899 1.06256,-1.59384 2.91417,-2.53106 4.0635,-4.0635 0.60574,-0.80766 0.79448,-1.86897 1.35449,-2.70899 0.35419,-0.53128 1.06895,-0.78339 1.3545,-1.3545 0.20192,-0.40383 -0.20192,-0.95066 0,-1.3545 0.28555,-0.5711 1.15258,-0.74874 1.3545,-1.35449 0.24273,-0.72819 0,-4.27121 0,-5.41799 0,-3.1605 0,-6.32099 0,-9.48148 0,-0.4515 0,-0.903 0,-1.3545 0,-0.4515 0.20191,-0.95067 0,-1.3545 -0.28556,-0.57111 -0.97139,-0.84368 -1.3545,-1.3545 -0.97674,-1.30232 -1.55789,-2.91239 -2.70899,-4.06349 -0.31926,-0.31926 -0.96249,0.22401 -1.3545,0 -10.98892,-6.27938 -4.68146,-5.41799 -13.54498,-5.41799 -4.51499,0 -9.02998,0 -13.54497,0 -0.903,0 -1.806,0 -2.70899,0 -0.4515,0 -1.15258,-0.40383 -1.3545,0 -3.3001,6.60021 -1.80193,7.89107 -4.06349,13.54498 -1.09337,2.73341 -0.98637,2.34086 -2.709,4.06349 -0.4515,0.4515 -1.06894,0.78339 -1.35449,1.3545 -0.40384,0.80766 0.40383,1.90132 0,2.70899 -2.22087,4.44173 -3.97503,-4.53331 -2.709,8.12698 0.24193,2.41933 2.709,4.34109 2.709,6.77249 0,2.01917 -1.9591,3.54324 -2.709,5.41799 -0.33537,0.83841 0,1.806 0,2.70899"
       id="path3041"
       inkscape:connector-curvature="0" />
    <path
       style="fill:none;stroke:#000000;stroke-width:1px;stroke-linecap:butt;stroke-linejoin:miter;stroke-opacity:1"
       d="m 391.44973,520.04473 c -2.17146,-4.78114 4.20079,-8.53888 5.41799,-12.19048 0.82682,-2.48045 -0.63377,-5.59189 0,-8.12698 1.75833,-7.03332 1.3545,1.44598 1.3545,-5.41799 0,-5.41799 0,-10.83598 0,-16.25397 0,-0.903 0,-1.80599 0,-2.70899 0,-0.4515 0.40383,-1.15258 0,-1.3545 -1.0836,-0.5418 -2.9799,0.5418 -4.06349,0 -0.57111,-0.28555 -0.73505,-1.19963 -1.3545,-1.3545 -1.17378,-0.29344 -7.73241,0 -9.48148,0 -1.47898,0 -5.89653,-0.29198 -6.77249,0 -1.80866,0.60289 -5.66852,3.18032 -6.77249,4.06349 -0.99719,0.79776 -1.64644,2.00063 -2.70899,2.709 -0.37567,0.25045 -0.95067,-0.20192 -1.3545,0 -1.45604,0.72802 -2.66758,1.87144 -4.06349,2.70899 -0.86571,0.51943 -1.99511,0.64062 -2.709,1.3545 -0.71388,0.71388 -0.64061,1.99511 -1.35449,2.709 -0.71389,0.71388 -1.99511,0.64061 -2.709,1.35449 -0.31926,0.31926 0,0.903 0,1.3545 0,0.4515 0,0.903 0,1.3545 0,3.61199 0,7.22398 0,10.83598 0,3.16049 0,6.32098 0,9.48148 0,0.4515 -0.25044,0.97883 0,1.3545 0.70837,1.06255 1.806,1.80599 2.709,2.70899 0.4515,0.4515 0.74874,1.15258 1.35449,1.3545 0.85666,0.28555 1.90133,-0.40384 2.709,0 1.33286,0.66643 4.08512,4.75155 5.41799,5.41799 0.40383,0.20191 1.03524,-0.31926 1.3545,0 0.31925,0.31925 -0.31926,1.03524 0,1.35449 0.37062,0.37062 4.68319,-0.3674 5.41798,0 0.57111,0.28556 0.903,0.903 1.3545,1.3545"
       id="path3043"
       inkscape:connector-curvature="0" />
    <path
       style="fill:none;stroke:#000000;stroke-width:1px;stroke-linecap:butt;stroke-linejoin:miter;stroke-opacity:1"
       d="m 423.95767,567.45214 c 0.4515,-1.806 0.90299,-3.612 1.35449,-5.41799 0.4515,-0.903 1.03524,-1.75122 1.3545,-2.709 0.28555,-0.85666 0,-1.80599 0,-2.70899 0,-3.1605 0,-6.32099 0,-9.48148 0,-1.13507 0.28784,-6.19681 0,-6.77249 -1.51413,-3.02825 -1.96729,-2.709 -4.06349,-2.709 -0.4515,0 -0.95067,0.20192 -1.3545,0 -0.5711,-0.28555 -0.78339,-1.06894 -1.3545,-1.35449 -0.40383,-0.20192 -0.95066,0.20191 -1.35449,0 -1.14222,-0.57111 -1.4975,-2.30516 -2.709,-2.709 -0.85666,-0.28555 -1.87058,0.33537 -2.70899,0 -1.51147,-0.60459 -2.51913,-2.1942 -4.06349,-2.70899 -1.28499,-0.42833 -2.7353,0.26564 -4.0635,0 -0.98997,-0.198 -1.72955,-1.10964 -2.70899,-1.3545 -1.75207,-0.43802 -3.70467,0.57111 -5.41799,0 -0.60575,-0.20192 -0.78339,-1.06894 -1.3545,-1.3545 -0.40383,-0.20191 -0.91648,0.10951 -1.35449,0 -1.38514,-0.34628 -2.67836,-1.00821 -4.0635,-1.35449 -0.43802,-0.10951 -0.92616,0.14277 -1.35449,0 -5.48614,-1.82872 0.32105,-1.77033 -8.12699,-2.709 -2.24369,-0.2493 -4.52619,0.22463 -6.77249,0 -2.29077,-0.22908 -4.49342,-1.02892 -6.77248,-1.3545 -0.89392,-0.1277 -1.806,0 -2.709,0 -2.25749,0 -4.51499,0 -6.77248,0 -2.709,0 -5.41799,0 -8.12699,0 -0.4515,0 -1.03524,-0.31925 -1.35449,0 -10e-4,10e-4 0.002,4.05736 0,4.0635 -0.20192,0.60575 -1.15259,0.74874 -1.3545,1.35449 -0.28555,0.85666 0,1.806 0,2.709 0,2.70899 0,5.41799 0,8.12698 0,4.51499 0,9.02998 0,13.54498 0,0.45149 0,0.90299 0,1.35449 0,0.4515 -0.31926,1.03524 0,1.3545 0.71388,0.71388 1.86897,0.79448 2.70899,1.3545 1.06256,0.70837 1.64644,2.00062 2.709,2.70899 0.84002,0.56002 1.86897,0.79448 2.70899,1.3545 0.53128,0.35418 0.78339,1.06894 1.3545,1.3545 0.40383,0.20191 0.95066,-0.20192 1.3545,0 0.5711,0.28555 0.78339,1.06894 1.35449,1.35449 0.80767,0.40384 1.85234,-0.28555 2.709,0 4.42148,1.47383 1.13539,1.76948 6.77249,2.709 2.93175,0.48862 4.44804,-0.96995 6.77248,1.3545 0.31926,0.31925 0,0.90299 0,1.35449 0,0.4515 0,0.903 0,1.3545"
       id="path3045"
       inkscape:connector-curvature="0" />
    <path
       style="fill:none;stroke:#000000;stroke-width:1px;stroke-linecap:butt;stroke-linejoin:miter;stroke-opacity:1"
       d="m 341.33333,608.08706 c 0,-5.54058 -0.43802,-5.45844 1.3545,-10.83598 0.31925,-0.95778 0.9568,-1.78104 1.35449,-2.709 0.95778,-2.2348 1.62164,-4.59778 2.709,-6.77248 0.28555,-0.57111 0.903,-0.903 1.3545,-1.3545 3.84993,-3.84994 2.49232,-2.74773 8.12698,-6.77249 1.32468,-0.9462 2.57589,-2.04784 4.06349,-2.70899 2.60942,-1.15974 5.57292,-1.43196 8.12699,-2.709 1.14221,-0.5711 1.7118,-1.91124 2.70899,-2.70899 2.54236,-2.03389 5.41799,-3.61199 8.12698,-5.41799 1.3545,-0.903 2.709,-1.806 4.0635,-2.709 1.35449,-0.90299 2.56721,-2.06773 4.06349,-2.70899 1.71106,-0.73331 3.61199,-0.903 5.41799,-1.3545 1.80599,-0.4515 3.58174,-1.04845 5.41799,-1.3545 0.89071,-0.14845 1.80599,0 2.70899,0 1.3545,0 2.709,0 4.06349,0 3.612,0 7.22399,0 10.83598,0 4.96649,0 9.93298,0 14.89947,0 0.4515,0 0.9933,-0.27089 1.3545,0 1.53244,1.14933 2.709,2.709 4.06349,4.0635 1.806,1.80599 3.612,3.61199 5.41799,5.41799 0.903,0.90299 1.7118,1.91123 2.709,2.70899 1.59504,1.27604 5.68233,3.23769 6.77248,5.41799 1.27704,2.55406 1.806,5.41799 2.709,8.12698 0.4515,1.3545 0.903,2.709 1.3545,4.0635 0.45149,1.35449 1.11977,2.65515 1.35449,4.06349 0.22268,1.33607 -0.26564,2.7353 0,4.06349 -0.81639,2.45156 2.19421,2.51913 2.709,4.06349 0.28555,0.85666 0,1.806 0,2.709 0,1.35449 0,2.70899 0,4.06349 0,3.16049 0,6.32099 0,9.48148"
       id="path3047"
       inkscape:connector-curvature="0" />
    <path
       style="fill:none;stroke:#000000;stroke-width:1px;stroke-linecap:butt;stroke-linejoin:miter;stroke-opacity:1"
       d="m 197.75661,506.49976 c -4.51499,0 -9.02998,0 -13.54497,0 -0.4515,0 -1.24499,0.43801 -1.3545,0 -0.43802,-1.75208 0,-3.612 0,-5.41799 0,-3.612 0,-7.22399 0,-10.83598 0,-0.4515 -0.25045,-0.97883 0,-1.3545 0.70837,-1.06255 1.5233,-2.23472 2.709,-2.70899 1.25761,-0.50305 2.70899,0 4.06349,0 0.903,0 1.80599,0 2.70899,0 6.77249,0 13.54498,0 20.31746,0 1.3545,0 2.709,0 4.06349,0 0.4515,0 1.03524,-0.31926 1.3545,0 0.31926,0.31925 0,0.90299 0,1.35449 0,0.903 0,1.806 0,2.709 0,5.41799 0,10.83598 0,16.25397"
       id="path3049"
       inkscape:connector-curvature="0" />
    <path
       style="fill:none;stroke:#000000;stroke-width:1px;stroke-linecap:butt;stroke-linejoin:miter;stroke-opacity:1"
       d="m 235.68254,509.20875 c -1.71442,-4.91268 -1.3545,-9.84709 -1.3545,-14.89947 0,-0.4515 0,-0.903 0,-1.3545 0,-0.4515 -0.40383,-1.15258 0,-1.35449 0.80767,-0.40384 1.85233,0.28555 2.70899,0 0.60575,-0.20192 0.74875,-1.15259 1.3545,-1.3545 0.85666,-0.28556 1.806,0 2.709,0 0.90299,0 1.80599,0 2.70899,0 3.61199,0 7.22399,0 10.83598,0 3.61199,0 7.22399,0 10.83598,0 0.903,0 1.95765,-0.5009 2.70899,0 0.84003,0.56001 0.79448,1.86897 1.3545,2.70899 0.35419,0.53128 1.06894,0.78339 1.3545,1.3545 0.15179,0.30358 0,5.09612 0,5.41799 0,2.25749 0,4.51499 0,6.77249 0,0.90299 0.28555,1.85233 0,2.70899 -0.0561,0.16827 -3.83112,3.9473 -4.06349,4.06349 -0.40384,0.20192 -0.903,0 -1.3545,0 -1.806,0 -3.62304,-0.19944 -5.41799,0 -2.28812,0.25424 -4.48806,1.06895 -6.77249,1.3545 -2.54561,0.3182 -6.65422,0 -9.48148,0"
       id="path3051"
       inkscape:connector-curvature="0" />
    <path
       style="fill:none;stroke:#000000;stroke-width:1px;stroke-linecap:butt;stroke-linejoin:miter;stroke-opacity:1"
       d="m 188.27513,532.23521 c 0,-4.515 0,-9.02999 0,-13.54498 0,-2.70899 0,-5.41799 0,-8.12698 0,-0.903 -0.21901,-1.83296 0,-2.709 0.24486,-0.97944 1.10964,-1.72955 1.3545,-2.70899 0.21901,-0.87604 -0.28556,-1.85234 0,-2.709 0.61202,-1.83607 4.66646,-2.33323 5.41799,-2.70899 0.5711,-0.28555 0.78339,-1.06895 1.35449,-1.3545 1.27704,-0.63851 2.8392,-0.61992 4.0635,-1.3545 3.85514,-2.31308 1.22504,-3.01525 5.41799,-4.06349 1.75207,-0.43802 3.70467,0.57111 5.41798,0 0.60575,-0.20191 0.73505,-1.19963 1.3545,-1.35449 1.31406,-0.32852 2.709,0 4.06349,0 3.612,0 7.22399,0 10.83598,0 2.709,0 5.41799,0 8.12699,0 0.90299,0 1.95765,-0.5009 2.70899,0 0.84002,0.56001 0.83507,1.84328 1.3545,2.70899 0.83755,1.39592 1.73225,2.76117 2.70899,4.06349 1.09872,1.46495 2.76713,2.76713 4.0635,4.06349 0.45149,0.4515 1.06894,0.78339 1.35449,1.3545 0.20192,0.40383 -0.14277,0.92617 0,1.3545 0.31926,0.95777 1.03524,1.75122 1.3545,2.70899 0.14278,0.42833 0,0.903 0,1.3545 0,1.3545 0,2.709 0,4.06349 0,4.51499 0,9.02998 0,13.54498 0,1.39541 0.19989,9.08169 0,9.48148 -0.28555,0.5711 -0.903,0.903 -1.3545,1.35449 -0.4515,0.4515 -0.78339,1.06895 -1.35449,1.3545 -1.27704,0.63852 -2.73785,0.82424 -4.0635,1.3545 -0.93737,0.37495 -1.71901,1.1565 -2.70899,1.3545 -1.3282,0.26564 -2.709,0 -4.06349,0 -0.903,0 -1.90133,-0.40384 -2.709,0 -0.40383,0.20191 0,0.90299 0,1.35449"
       id="path3053"
       inkscape:connector-curvature="0" />
    <path
       style="fill:none;stroke:#000000;stroke-width:1px;stroke-linecap:butt;stroke-linejoin:miter;stroke-opacity:1"
       d="m 155.76719,578.28811 c 0,-2.25749 -0.31925,-4.53768 0,-6.77248 0.14278,-0.99944 0.85361,-1.83243 1.3545,-2.709 1.30617,-2.28579 2.66818,-4.53998 4.06349,-6.77248 0.86279,-1.38046 1.98098,-2.60745 2.709,-4.0635 1.08735,-2.1747 1.62164,-4.59777 2.70899,-6.77248 0.28556,-0.57111 1.00031,-0.82322 1.3545,-1.3545 0.56002,-0.84002 0.79448,-1.86897 1.3545,-2.70899 0.35418,-0.53128 0.903,-0.903 1.35449,-1.3545 1.98354,-1.98354 4.0386,-4.39278 6.77249,-5.41799 21.00586,-7.8772 -6.03362,5.04856 12.19048,-4.06349 1.80599,-0.903 3.54324,-1.9591 5.41799,-2.709 0.4192,-0.16768 0.91176,0.0886 1.35449,0 1.82543,-0.36508 3.58174,-1.04845 5.41799,-1.35449 0.89072,-0.14846 1.806,0 2.709,0 2.70899,0 5.41799,0 8.12698,0 6.32099,0 12.64198,0 18.96296,0 0.4515,0 0.903,0 1.3545,0 0.4515,0 1.03524,-0.31926 1.3545,0 0.31926,0.31925 -0.20192,0.95066 0,1.35449 0.57111,1.14222 2.13789,1.56678 2.70899,2.709 0.20192,0.40383 -0.14277,0.92616 0,1.35449 0.31926,0.95778 1.10964,1.72956 1.3545,2.709 1.87408,7.49632 1.3545,9.69398 1.3545,17.60846 0,4.0635 0,8.12699 0,12.19048 0,2.709 0.29916,5.43456 0,8.12698 -0.21767,1.95901 -2.84247,7.64996 -4.06349,9.48149 -0.70837,1.06255 -1.806,1.80599 -2.709,2.70899 -1.3545,1.3545 -2.70899,2.709 -4.06349,4.06349 -1.3545,1.3545 -3.00094,2.46966 -4.06349,4.06349 -1.204,1.806 1.65549,1.3545 -1.3545,1.3545"
       id="path3055"
       inkscape:connector-curvature="0" />
    <path
       style="fill:none;stroke:#000000;stroke-width:1px;stroke-linecap:butt;stroke-linejoin:miter;stroke-opacity:1"
       d="m 52.825396,456.38335 c -3.034674,-1.02204 -6.415352,0.76654 -9.481481,0 -0.619452,-0.15486 -0.902998,-0.90299 -1.354498,-1.35449 -0.451499,-0.4515 -1.15258,-0.74875 -1.354497,-1.3545 -0.248902,-0.74671 0,-6.9775 0,-8.12698 0,-0.75603 -0.20668,-6.15245 0,-6.77249 0.612026,-1.83608 4.66646,-2.33323 5.417989,-2.709 0.571107,-0.28555 0.748748,-1.15258 1.354498,-1.35449 1.284989,-0.42833 2.708994,0 4.063492,0 2.257495,0 4.514991,0 6.772486,0 2.257496,0 4.514992,0 6.772487,0 0.902998,0 1.805997,0 2.708995,0 0.451499,0 0.950664,-0.20192 1.354497,0 0.571106,0.28555 0.82322,1.00031 1.354498,1.35449 0.840023,0.56002 1.995111,0.64062 2.708994,1.3545 0.638516,0.63852 -0.403833,1.90133 0,2.709 0.285553,0.5711 1.068944,0.78339 1.354498,1.35449 0.201916,0.40384 0,0.903 0,1.3545 0,0.4515 0,0.903 0,1.3545 0,2.70899 0,5.41799 0,8.12698"
       id="path3057"
       inkscape:connector-curvature="0" />
    <path
       style="fill:none;stroke:#000000;stroke-width:1px;stroke-linecap:butt;stroke-linejoin:miter;stroke-opacity:1"
       d="m 81.26984,465.86484 c -1.398099,-4.34822 -1.354497,-6.78555 -1.354497,-10.83598 0,-0.4515 -0.201917,-0.95067 0,-1.3545 0.590089,-1.18018 3.120775,-2.47332 4.063492,-2.70899 0.876037,-0.21901 1.823532,0.17709 2.708995,0 1.400039,-0.28001 2.663452,-1.07449 4.063492,-1.3545 0.885462,-0.17709 1.805996,0 2.708994,0 2.708995,0 5.41799,0 8.126984,0 2.2575,0 4.51499,0 6.77249,0 0.903,0 1.85233,-0.28556 2.70899,0 1.16231,0.38744 2.50156,3.44119 2.709,4.06349 0.28555,0.85666 0,1.806 0,2.70899 0,2.2575 0,4.515 0,6.77249 0,3.61199 0,7.22399 0,10.83598 0,0.3285 0.0436,4.01993 0,4.06349 -0.31926,0.31926 -0.97883,-0.25044 -1.3545,0 -1.06256,0.70837 -1.56678,2.13789 -2.709,2.709 -0.44789,0.22394 -5.73005,0 -6.77248,0"
       id="path3059"
       inkscape:connector-curvature="0" />
    <path
       style="fill:none;stroke:#000000;stroke-width:1px;stroke-linecap:butt;stroke-linejoin:miter;stroke-opacity:1"
       d="m 83.978835,513.27224 c 2.321482,-2.01219 5.611745,1.0061 8.126984,0 1.51147,-0.60459 2.607451,-1.98097 4.063492,-2.70899 1.083598,-0.5418 2.979894,0.5418 4.063489,0 0.57111,-0.28556 0.78339,-1.06895 1.3545,-1.3545 0.40383,-0.20192 0.95066,0.20192 1.3545,0 5.41799,-2.70899 -5.417992,0 4.06349,-4.06349 2.60367,-4.10553 6.45273,-0.34492 9.48148,-1.3545 5.97904,-1.99301 -4.92111,-1.3545 4.06349,-1.3545 2.2575,0 4.51499,0 6.77249,0 0.4515,0 0.903,0 1.3545,0 0.4515,0 0.95066,0.20192 1.35449,0 2.54123,-1.27061 0.57921,-1.7376 1.3545,-4.06349 0.20192,-0.60575 1.06895,-0.78339 1.3545,-1.3545 0.21243,-0.42485 0.11268,-6.32177 0,-6.77248 -1.13798,-4.5519 -3.55727,-3.13314 -8.12699,-5.41799 -5.37614,-2.68808 5.98644,-0.42811 -5.41798,-2.709 -0.88547,-0.17709 -1.85234,0.28556 -2.709,0 -0.60575,-0.20191 -0.78339,-1.06894 -1.3545,-1.35449 -0.40383,-0.20192 -0.90299,0 -1.35449,0 -0.903,-0.4515 -1.92065,-0.72382 -2.709,-1.3545 -1.49579,-1.19663 -2.46966,-3.00094 -4.06349,-4.06349 -0.95887,-4.12995 -3.75294,-0.52198 -5.41799,-1.3545 -0.57111,-0.28555 -0.74875,-1.15258 -1.3545,-1.3545 -1.284986,-0.42833 -2.708992,0 -4.063489,0 -3.160494,0 -6.320988,0 -9.481481,0 -1.354498,0 -2.735299,0.26564 -4.063492,0 -1.689462,-0.33789 -5.860714,-3.6076 -6.772487,-4.06349 -0.403833,-0.20192 -0.950664,0.20192 -1.354497,0 -0.571107,-0.28555 -0.783392,-1.06894 -1.354498,-1.3545 -0.799181,-0.39959 -3.131825,0.31056 -4.063492,0 -3.506739,-1.16891 -5.974742,-4.24907 -9.481481,-5.41799 -0.42833,-0.14277 -0.902998,0 -1.354498,0 -0.902998,0 -1.805996,0 -2.708994,0 -2.708995,0 -5.41799,0 -8.126984,0 -2.257496,0 -4.514991,0 -6.772487,0 -0.451499,0 -1.265951,-0.44273 -1.354497,0 -0.442732,2.21366 0,4.51499 0,6.77249 0,3.61199 0,7.22399 0,10.83598 0,1.3545 0,2.70899 0,4.06349 0,0.4515 -0.319258,1.03524 0,1.3545 0.319258,0.31926 1.035239,-0.31926 1.354497,0 0.319258,0.31926 -0.201916,0.95066 0,1.3545 0.285553,0.5711 1.068944,0.78339 1.354497,1.35449 0.201917,0.40384 -0.319258,1.03524 0,1.3545 0.638517,0.63852 2.070479,-0.63852 2.708995,0 0.319258,0.31926 0.451499,1.3545 0,1.3545 -0.451499,0 0,-0.903 0,-1.3545"
       id="path3061"
       inkscape:connector-curvature="0" />
    <path
       style="fill:none;stroke:#000000;stroke-width:1px;stroke-linecap:butt;stroke-linejoin:miter;stroke-opacity:1"
       d="m 24.380952,510.56325 c 22.447219,-7.48241 -4.356565,0.50034 14.899471,-2.709 0.629828,-0.10497 0.748747,-1.15258 1.354497,-1.35449 0.856659,-0.28556 1.805997,0 2.708995,0 0.902998,0 1.805996,0 2.708994,0 1.354498,0 2.749437,0.32851 4.063492,0 0.619452,-0.15487 0.783392,-1.06895 1.354498,-1.3545 0.303584,-0.15179 5.096119,0 5.417989,0 4.96649,0 9.932981,0 14.899471,0 0.32187,0 5.114405,-0.15179 5.417989,0 1.805982,0.90299 3.20414,5.05378 4.063492,6.77249 0.451499,0.90299 0.902998,1.80599 1.354498,2.70899 0.451499,0.903 1.109637,1.72956 1.354497,2.70899 0.219009,0.87604 -0.285553,1.85234 0,2.709 0.201916,0.60575 0.902998,0.903 1.354497,1.3545 0.451499,1.80599 1.169264,3.56565 1.354498,5.41799 0.269555,2.69555 0,5.41799 0,8.12698 0,3.61199 0,7.22399 0,10.83598 0,7.67548 0,15.35097 0,23.02645 0,1.3545 0,2.709 0,4.0635 0,0.45149 0.319258,1.03523 0,1.35449 -0.319259,0.31926 -0.950665,-0.20191 -1.354498,0 -1.625397,0.8127 -2.438095,3.2508 -4.063492,4.06349 -0.740754,0.37038 -3.141694,-0.23044 -4.063492,0 -11.274187,2.81855 1.635023,-0.0935 -6.772486,2.709 -0.85666,0.28555 -1.805997,0 -2.708995,0"
       id="path3063"
       inkscape:connector-curvature="0" />
    <path
       style="fill:none;stroke:#000000;stroke-width:1px;stroke-linecap:butt;stroke-linejoin:miter;stroke-opacity:1"
       d="m 180.14815,314.16113 c 0,-12.19047 0,-24.38095 0,-36.57142 0,-3.612 0.32701,-7.23882 0,-10.83598 -0.12927,-1.4219 -1.19683,-2.64446 -1.3545,-4.06349 -0.29916,-2.69243 0,-5.41799 0,-8.12699 0,-4.06349 0.25347,-8.1349 0,-12.19047 -0.19915,-3.18637 -1.03683,-6.30475 -1.3545,-9.48149 -0.13478,-1.34777 0.22268,-2.72742 0,-4.06349 -1.28287,-7.69723 -1.86915,-0.24318 -2.70899,-9.48148 -0.28614,-3.14751 0,-6.32099 0,-9.48148 0,-3.61199 0,-7.22399 0,-10.83598 0,-2.70899 0,-5.41799 0,-8.12698 0,-0.4515 -0.31926,-1.03524 0,-1.3545 2.05822,-2.05823 3.00387,-1.08626 5.41799,-1.3545 3.17305,-0.35256 6.32602,-0.86904 9.48148,-1.3545 9.415,-1.44846 10.66103,-2.15844 21.67195,-2.70899 4.50936,-0.22547 9.02999,0 13.54498,0 5.41799,0 10.83598,0 16.25397,0 37.47442,0 74.94885,0 112.42327,0 35.21694,0 70.43387,0 105.6508,0 10.83598,0 21.67195,0 32.50793,0 2.2575,0 4.51499,0 6.77249,0 0.903,0 1.90133,-0.40383 2.70899,0 0.40384,0.20192 0,0.903 0,1.3545 0,1.35449 0,2.70899 0,4.06349 0,1.806 0.51895,3.68816 0,5.41799 -0.8703,2.90101 -2.70899,5.41799 -4.06349,8.12698 -0.903,1.806 -1.63884,3.70574 -2.70899,5.41799 -1.19647,1.91435 -3.05391,3.39883 -4.06349,5.41799 -7.23127,14.46253 -4.46947,10.56284 -6.77249,24.38095 -0.30604,1.83625 -1.09123,3.57512 -1.3545,5.41799 -0.19155,1.34089 0,2.709 0,4.06349 0,3.1605 0,6.32099 0,9.48149 0,3.16049 0.26247,6.3319 0,9.48148 -0.19119,2.29425 -1.06894,4.48806 -1.3545,6.77248 -0.28,2.24007 0,4.515 0,6.77249 0,0.4515 0,0.903 0,1.3545 0,0.4515 0.31926,1.03524 0,1.3545 -0.31925,0.31925 -1.24499,-0.43802 -1.35449,0 -0.43802,1.75207 0,3.61199 0,5.41798 0,2.709 0,5.41799 0,8.12699 0,3.16049 0,6.32099 0,9.48148 0,0.31258 0.15629,4.0114 0,4.06349 -1.28499,0.42833 -2.709,0 -4.06349,0 -0.903,0 -1.806,0 -2.709,0 -7.67548,0 -15.35097,0 -23.02645,0 -11.73898,0 -23.47796,0 -35.21693,0 -2.2575,0 -4.53046,0.26377 -6.77249,0 -28.48997,-3.35176 -4.37782,-2.2477 -29.79894,-4.06349 -1.80141,-0.12867 -3.61659,0.12867 -5.41799,0 -4.52598,-0.32328 -9.01215,-1.14846 -13.54498,-1.3545 -5.4124,-0.24602 -10.83597,0 -16.25396,0 -2.709,0 -5.44176,0.35803 -8.12699,0 -4.1261,-0.55014 -8.04351,-2.34839 -12.19047,-2.70899 -6.29723,-0.54759 -12.64198,0 -18.96297,0 -4.51499,0 -9.07536,0.63851 -13.54497,0 -1.99887,-0.28556 -3.44214,-2.29303 -5.41799,-2.709 -27.87028,-5.86742 -11.57337,-0.89026 -35.21693,-2.70899 -1.00661,-0.0774 -1.7157,-1.1739 -2.70899,-1.3545 -4.02256,-0.73137 -8.1204,-0.96687 -12.19048,-1.3545 -5.41228,-0.51545 -10.82398,-1.08299 -16.25397,-1.35449 -4.96029,-0.24802 -9.93298,0 -14.89947,0 -11.28748,0 -22.57496,0 -33.86243,0 -2.2575,0 -4.51499,0 -6.77249,0 -2.2575,0 -4.55883,-0.44273 -6.77249,0 -2.38418,0.47683 -4.49589,1.85527 -6.77248,2.70899 -1.33686,0.50132 -2.65516,1.11978 -4.06349,1.3545 -1.33607,0.22268 -2.709,0 -4.0635,0 -0.4515,0 -1.03524,-0.31926 -1.35449,0 -0.0436,0.0436 0,3.73499 0,4.06349"
       id="path3065"
       inkscape:connector-curvature="0" />
    <path
       style="fill:none;stroke:#000000;stroke-width:1px;stroke-linecap:butt;stroke-linejoin:miter;stroke-opacity:1"
       d="m 148.99471,190.90188 c 3.19218,0 6.59307,0.5711 9.48148,-1.3545 2.93407,-1.95605 5.23811,-4.75028 8.12698,-6.77249 10.6096,-7.42672 0.0623,3.67035 13.54498,-8.12698 1.22512,-1.07198 1.63701,-2.83837 2.70899,-4.06349 2.10233,-2.40267 4.63676,-4.39946 6.77249,-6.77249 16.67785,-18.53095 -6.85827,5.50377 12.19047,-13.54497 1.3545,-1.3545 2.44742,-3.03508 4.0635,-4.0635 27.29132,-17.36721 1.63853,-0.14201 14.89947,-6.77248 4.15771,-2.07886 8.08888,-4.58497 12.19047,-6.77249 2.67243,-1.42529 5.4973,-2.56081 8.12699,-4.06349 1.96562,-1.12322 11.20965,-6.89861 14.89947,-9.48148 3.18185,-2.2273 6.29963,-4.54519 9.48148,-6.77249 1.33363,-0.93354 2.5815,-2.03536 4.06349,-2.70899 3.51184,-1.59629 7.32414,-2.46721 10.83598,-4.0635 2.68065,-1.21847 9.51998,-7.186983 10.83598,-8.12698 0.82153,-0.586808 1.90133,-0.748748 2.70899,-1.354497 2.82106,-2.115793 5.6335,-4.279002 8.12699,-6.772487 1.1511,-1.151101 1.77545,-2.729862 2.70899,-4.063492 2.2273,-3.181849 4.61806,-6.249846 6.77249,-9.481481 0.56001,-0.840024 0.72381,-1.920643 1.35449,-2.708995 1.19664,-1.495792 2.709,-2.708995 4.0635,-4.063492 0.4515,-0.451499 0.903,-0.902998 1.35449,-1.354497 0.4515,-0.451499 0.7834,-1.068945 1.3545,-1.354498 0.40383,-0.201916 0.903,0 1.3545,0 0.903,0 1.806,0 2.70899,0 2.2575,0 4.51499,0 6.77249,0 1.3545,0 2.85199,-0.605749 4.06349,0 4.36812,2.184062 8.08241,5.486081 12.19048,8.126984 2.21454,1.423636 4.53999,2.66818 6.77248,4.063492 4.29795,2.686218 5.83095,4.269968 10.83598,6.772487 9.8208,4.910398 -3.13844,-3.921894 10.83598,4.063492 1.10878,0.633586 1.806,1.805997 2.709,2.708995 1.35449,1.354497 2.59192,2.837188 4.06349,4.063492 1.25059,1.042158 2.72986,1.775453 4.06349,2.708994 3.18185,2.227293 6.15103,4.774213 9.48148,6.772483 3.46284,2.07771 7.429,3.24991 10.83598,5.41799 1.61608,1.02841 2.38184,3.14623 4.06349,4.0635 4.34898,2.37217 15.2766,5.42825 20.31746,6.77248 3.59745,0.95932 7.39922,1.27701 10.83598,2.709 2.08384,0.86826 3.56858,2.7689 5.41799,4.06349 2.66726,1.86708 5.14415,4.113 8.12699,5.41799 4.31857,1.88937 9.32883,1.95542 13.54497,4.06349 4.03833,2.01917 7.18454,5.47139 10.83598,8.12698 1.31654,0.95749 2.82749,1.64957 4.06349,2.709 1.93919,1.66216 3.16921,4.20711 5.41799,5.41799 3.77132,2.03071 8.15671,2.62286 12.19047,4.06349 21.19745,8.47898 -5.3073,-1.7691 12.19048,4.06349 0.95777,0.31926 1.86897,0.79448 2.709,1.3545 0.53127,0.35418 0.74874,1.15258 1.35449,1.3545 0.85666,0.28555 1.85234,-0.28556 2.709,0 0.60575,0.20191 0.903,0.903 1.35449,1.35449 0.4515,0.4515 1.06895,0.7834 1.3545,1.3545 0.20192,0.40383 -0.31926,1.03524 0,1.3545 0.31926,0.31926 1.03524,-0.31926 1.3545,0 0.31926,0.31926 -0.37567,1.10405 0,1.3545 2.52007,1.68004 5.35928,2.8334 8.12698,4.06349 1.30471,0.57987 2.87552,0.56251 4.0635,1.3545 0.75134,0.50089 -0.5418,1.98659 0,2.70899 1.14932,1.53244 2.91416,2.53105 4.06349,4.06349 0.2709,0.3612 -0.14278,0.92617 0,1.3545 0.31926,0.95777 1.03524,1.75122 1.35449,2.70899 0.28556,0.85666 0,1.806 0,2.709 0,0.49742 0.0545,5.36348 0,5.41799 -0.31925,0.31926 -0.90299,0 -1.35449,0 -0.4515,0 -0.903,0 -1.3545,0 -1.3545,0 -2.70899,0 -4.06349,0 -2.18096,0 -8.48778,0.9937 -10.83598,-1.3545 -0.71388,-0.71388 -0.64062,-1.99511 -1.3545,-2.70899 -0.63851,-0.63852 -1.90133,0.40383 -2.70899,0 -1.45604,-0.72802 -2.60745,-1.98098 -4.06349,-2.709 -3.07551,-1.53775 -6.56563,-2.24108 -9.48149,-4.06349 -0.85612,-0.53508 -0.64061,-1.99511 -1.35449,-2.70899 -0.71389,-0.71389 -1.86897,-0.79449 -2.709,-1.3545 -0.53128,-0.35419 -0.78339,-1.06895 -1.3545,-1.3545 -0.40383,-0.20192 -1.03523,0.31926 -1.35449,0 -0.63852,-0.63852 0.6856,-2.12133 0,-2.70899 -2.94891,-2.52764 -6.29963,-4.5452 -9.48148,-6.77249 -9.90307,-6.93215 2.73206,2.38767 -9.48149,-6.77249 -1.80599,-1.3545 -3.4822,-2.90202 -5.41798,-4.06349 -0.38716,-0.23229 -1.03524,0.31926 -1.3545,0 -0.31926,-0.31926 0.26556,-0.98935 0,-1.3545 -3.40082,-4.67612 -6.74748,-9.45647 -10.83598,-13.54497 -1.86158,-1.86158 -4.48669,-2.75732 -6.77249,-4.06349 -4.036,-2.30629 -7.96985,-4.82451 -12.19047,-6.77249 -1.69024,-0.78011 -3.62804,-0.84308 -5.41799,-1.3545 -1.37283,-0.39223 -2.67836,-1.00821 -4.06349,-1.35449 -0.87604,-0.21901 -1.90133,0.40383 -2.709,0 -0.57111,-0.28556 -0.83491,-0.98337 -1.3545,-1.3545 -2.64936,-1.8924 -5.30015,-3.80266 -8.12698,-5.41799 -0.39201,-0.22401 -0.96249,0.22401 -1.3545,0 -2.82683,-1.61533 -5.30015,-3.80266 -8.12698,-5.41799 -1.02843,-0.58767 -3.00053,0.53148 -4.06349,0 -2.01917,-1.00958 -2.46721,-3.8217 -4.0635,-5.41799 -0.31925,-0.31926 -0.98709,0.26243 -1.35449,0 -2.86949,-2.04963 -5.2575,-4.72285 -8.12699,-6.77249 -0.7348,-0.52485 -1.90133,0.40384 -2.70899,0 -3.25581,-1.6279 -6.22568,-3.79008 -9.48148,-5.41799 -0.40384,-0.201912 -0.91648,0.10951 -1.3545,0 -1.38514,-0.346279 -2.78646,-0.715976 -4.06349,-1.354493 -0.57111,-0.285553 -0.82322,-1.000312 -1.3545,-1.354497 -0.84002,-0.560016 -1.806,-0.902998 -2.709,-1.354497 -4.22349,-2.111749 -2.96101,-1.777499 -9.48148,-2.708995 -2.03191,-0.290274 -5.94253,0 -8.12698,0 -0.903,0 -1.85234,0.285553 -2.709,0 -0.95777,-0.319258 -1.75122,-1.035239 -2.70899,-1.354497 -0.42833,-0.142777 -0.95066,0.201916 -1.3545,0 -0.5711,-0.285553 -0.78339,-1.068944 -1.35449,-1.354498 -0.53705,-0.268523 -3.78659,0.276909 -4.0635,0 -0.31925,-0.319258 0,-0.902998 0,-1.354497 -2.70899,-0.902998 -5.3103,-2.239548 -8.12698,-2.708995 -3.11749,-0.519582 -6.32099,0 -9.48148,0 -1.806,0 -3.61199,0 -5.41799,0 -1.3545,0 -2.72743,-0.222678 -4.06349,0 -10.26399,1.710665 -0.55187,0.275932 -5.41799,2.708995 -9.95549,3.318495 -0.68983,-0.443112 -5.41799,2.708995 -0.84003,0.560016 -1.99511,0.640614 -2.709,1.354497 -5.3405,5.340502 -0.10622,3.107358 -5.41799,9.481482 -1.04215,1.25059 -3.02133,1.4584 -4.06349,2.70899 -7.80281,9.36338 2.7385,1.8727 -6.77248,9.48149 -0.78836,0.63068 -1.84329,0.83507 -2.709,1.35449 -1.39591,0.83755 -2.66758,1.87145 -4.06349,2.709 -0.86571,0.51942 -1.99511,0.64061 -2.709,1.35449 -0.71388,0.71389 -0.64061,1.99512 -1.35449,2.709 -1.1511,1.1511 -3.04655,1.43782 -4.0635,2.70899 -9.31725,11.64658 9.52556,-4.68176 -5.41798,8.12699 -1.71402,1.46916 -3.70398,2.59433 -5.41799,4.06349 -1.4544,1.24662 -2.6091,2.81687 -4.0635,4.06349 -1.71401,1.46916 -3.65518,2.65325 -5.41799,4.06349 -0.49859,0.39888 -0.84368,0.97139 -1.35449,1.3545 -1.30233,0.97674 -2.91239,1.55789 -4.06349,2.709 -0.71389,0.71388 -0.83508,1.84328 -1.3545,2.70899 -0.76404,1.27341 -2.45969,4.21514 -4.06349,5.41799 -3.00872,2.25654 -6.15534,3.75491 -9.48149,5.41799 -0.90299,0.4515 -1.80599,0.903 -2.70899,1.3545 -0.903,0.4515 -1.71902,1.1565 -2.70899,1.35449 -1.3282,0.26564 -2.74944,-0.32851 -4.0635,0 -1.2389,0.30973 -1.49749,2.30517 -2.70899,2.709 -5.02127,1.67375 -0.88696,-1.82204 -4.06349,1.3545 -0.4515,0.4515 -1.06895,0.78339 -1.3545,1.35449 -0.20192,0.40384 0.40383,1.15258 0,1.3545 -1.0836,0.5418 -2.97989,-0.5418 -4.06349,0 -0.57111,0.28555 -0.78339,1.06895 -1.3545,1.3545 -1.27703,0.63851 -2.78646,0.71598 -4.06349,1.3545 -0.57111,0.28555 -0.74875,1.15258 -1.3545,1.35449 -0.85666,0.28556 -1.85233,-0.28555 -2.70899,0 -0.60575,0.20192 -0.7834,1.06895 -1.3545,1.3545 -0.40383,0.20192 -0.95067,-0.20192 -1.3545,0 -0.56042,0.28021 -3.68074,3.48937 -4.06349,4.06349 -0.56002,0.84003 -0.64062,1.99511 -1.3545,2.709 -0.71388,0.71388 -1.86897,0.79448 -2.70899,1.35449 -1.06256,0.70837 -1.4975,2.30517 -2.709,2.709 -0.85666,0.28555 -1.85233,-0.28555 -2.70899,0 -2.52977,0.84325 -0.71074,3.63432 -1.3545,4.06349 -1.18797,0.79198 -2.78646,0.71598 -4.06349,1.3545 -1.71332,0.85666 -2.35017,3.20683 -4.06349,4.06349 -0.80767,0.40383 -1.85234,-0.28555 -2.709,0 -1.2115,0.40383 -1.56678,2.13789 -2.70899,2.709 -0.40384,0.20191 -1.03524,-0.31926 -1.3545,0 -0.31926,0.31925 0.31926,1.03523 0,1.35449 -0.31926,0.31926 -0.903,0 -1.3545,0 -1.35449,0 -2.70899,0 -4.06349,0 -3.16049,0 -6.32099,0 -9.48148,0 -0.44482,0 -3.86168,0.13455 -4.06349,0 -1.06256,-0.70837 -2.00063,-1.64644 -2.709,-2.70899 -0.25044,-0.37567 -0.12403,-0.92037 0,-1.3545 0.78448,-2.74566 1.806,-5.41799 2.709,-8.12698 z"
       id="path3067"
       inkscape:connector-curvature="0" />
    <path
       style="fill:none;stroke:#000000;stroke-width:1px;stroke-linecap:butt;stroke-linejoin:miter;stroke-opacity:1"
       d="m 330.49735,70.351613 c 5.86949,0 11.73898,0 17.60847,0 1.80599,0 3.68148,0.496146 5.41798,0 4.6757,-1.335912 8.88727,-4.020675 13.54498,-5.417989 4.41022,-1.323066 9.15429,-1.322464 13.54497,-2.708995 4.24035,-1.339056 7.89014,-4.286321 12.19048,-5.417989 4.38811,-1.154766 9.11551,-0.370173 13.54497,-1.354497 7.76913,-1.726473 16.40423,-6.973013 23.02646,-10.835979 16.20497,-9.4529 -21.63014,9.983141 17.60846,-8.126984 1.9955,-0.921 4.3768,-3.750186 5.41799,-2.708995 1.42777,1.427766 1.4975,3.802657 2.709,5.41799 4.64839,6.197855 1.33624,-1.658254 6.77248,8.126984 1.18079,2.125423 1.75122,4.53768 2.709,6.772486 0.39769,0.927953 0.72381,1.920643 1.35449,2.708995 1.19664,1.495792 2.709,2.708995 4.0635,4.063492 1.35449,1.354497 2.59192,2.837188 4.06349,4.063492 1.25059,1.042158 2.70899,1.805996 4.06349,2.708995 1.3545,0.902998 2.56721,2.067732 4.06349,2.708994 1.71106,0.733312 3.75294,0.521974 5.41799,1.354498 1.14221,0.571106 1.66983,1.966734 2.709,2.708994 2.14229,1.530209 4.41775,2.886127 6.77248,4.063492 3.0755,1.537751 6.59461,2.195515 9.48148,4.063492 13.57152,-0.718618 11.75433,13.676629 18.96297,18.962961 36.75429,26.95315 -5.70033,-11.448211 28.44444,12.19048 2.16456,1.49854 2.60315,4.58197 4.06349,6.77248 2.15443,3.23164 3.91856,6.84709 6.77249,9.48149 3.12985,2.88909 7.22399,4.51499 10.83598,6.77248 28.12098,17.57562 -0.35597,0.25374 16.25397,9.48148 2.30136,1.27854 4.41775,2.88613 6.77248,4.0635 3.88612,1.94306 18.86101,7.67444 21.67196,9.48148 2.68553,1.72641 4.51499,4.51499 6.77249,6.77248 2.25749,2.2575 4.85694,4.21843 6.77248,6.77249 0.85666,1.14221 0.71598,2.78646 1.3545,4.06349 1.12907,2.25814 2.709,0.61202 2.709,4.0635 0,0.45149 0.42833,1.21172 0,1.35449 -1.28499,0.42833 -2.709,0 -4.0635,0 -2.70899,0 -5.41799,0 -8.12698,0 -7.22399,0 -14.44797,0 -21.67196,0 -2.70899,0 -5.41799,0 -8.12698,0 -0.903,0 -1.806,0 -2.709,0 -0.4515,0 -0.92616,-0.14277 -1.35449,0 -3.30868,1.1029 -5.86612,3.61157 -9.48149,4.06349 -2.24006,0.28001 -4.53242,-0.28 -6.77248,0 -1.41674,0.1771 -2.69066,0.96226 -4.06349,1.3545 -1.8046,3.76621 -4.53903,0.79613 -6.77249,1.3545 -5.98974,1.49743 -2.10165,0.84066 -6.77249,2.70899 -1.32564,0.53026 -2.96665,0.44047 -4.06349,1.3545 -9.82574,13.101 1.18073,0.56735 -8.12698,6.77249 -0.37567,0.25044 0.31925,1.03524 0,1.3545 -0.31926,0.31925 -1.03524,-0.31926 -1.3545,0 -1.806,1.80599 2.25749,1.35449 -1.3545,1.35449"
       id="path3069"
       inkscape:connector-curvature="0" />
    <path
       style="fill:none;stroke:#000000;stroke-width:1px;stroke-linecap:butt;stroke-linejoin:miter;stroke-opacity:1"
       d="m 616.29629,188.19288 c 0,20.31746 0,40.63492 0,60.95238 0,4.06349 0,8.12699 0,12.19048 0,0.4515 0,0.903 0,1.3545 0,0.45149 0.40383,1.15258 0,1.35449 -0.80767,0.40384 -1.806,0 -2.709,0 -6.32098,0 -12.64197,0 -18.96296,0 -5.86949,0 -11.73898,0 -17.60846,0 -4.0635,0 -8.14102,-0.33745 -12.19048,0 -2.66756,0.2223 -10.40788,1.6633 -13.54497,2.709 -0.95778,0.31926 -1.77162,0.97954 -2.709,1.35449 -3.87647,1.55059 -3.59595,0.80308 -6.77249,2.709 -1.39591,0.83755 -2.55202,2.10441 -4.06349,2.70899 -0.83841,0.33537 -1.93468,-0.46458 -2.70899,0 -1.64257,0.98555 -2.709,2.709 -4.06349,4.0635 -1.3545,1.35449 -2.709,2.70899 -4.0635,4.06349 -0.90299,0.903 -1.68736,1.94277 -2.70899,2.70899 -0.80767,0.60575 -2.07831,0.56615 -2.709,1.3545 -1.26136,1.5767 -1.80599,3.61199 -2.70899,5.41799 -0.4515,0.903 -0.64061,1.99511 -1.3545,2.70899 -5.94623,5.94624 -4.09783,2.15794 -9.48148,6.77249 -1.93919,1.66216 -3.75582,3.4788 -5.41799,5.41799 -1.05942,1.236 -1.69205,2.79231 -2.70899,4.06349 -0.79776,0.9972 -2.05197,1.61395 -2.709,2.709 -0.73458,1.2243 -0.49784,2.92128 -1.35449,4.06349 -0.60575,0.80766 -1.99512,0.64061 -2.709,1.3545 -0.71388,0.71388 -0.79448,1.86897 -1.3545,2.70899 -0.35418,0.53128 -0.90299,0.903 -1.35449,1.3545 -0.4515,0.4515 -0.7834,1.06894 -1.3545,1.3545 -0.40383,0.20191 -0.903,0 -1.3545,0"
       id="path3071"
       inkscape:connector-curvature="0" />
    <path
       style="fill:none;stroke:#000000;stroke-width:1px;stroke-linecap:butt;stroke-linejoin:miter;stroke-opacity:1"
       d="m 671.83068,131.30399 c 0,2.709 -0.58766,5.4825 0,8.12699 0.35314,1.58914 1.98097,2.60745 2.70899,4.06349 0.63852,1.27703 0.85318,2.72663 1.3545,4.06349 0.85372,2.27659 2.1193,4.41369 2.709,6.77249 0.32851,1.31405 -0.16801,2.71945 0,4.06349 -2.41406,4.23929 2.06436,6.25835 2.70899,9.48148 0.26564,1.3282 0,2.709 0,4.06349 0,2.2575 0,4.51499 0,6.77249 0,6.32099 0,12.64198 0,18.96296 0,14.89947 0,29.79894 0,44.69842 0,7.22398 0,14.44797 0,21.67195 0,1.806 0,3.612 0,5.41799 0,2.2575 0.48972,4.56875 0,6.77249 -0.43802,1.97108 -2.12879,3.48398 -2.70899,5.41799 -1.56069,5.20227 -0.50086,7.7742 -2.709,12.19047 -1.806,3.1605 -3.61199,6.32099 -5.41799,9.48149 -0.903,0.45149 -2.07831,0.56614 -2.70899,1.35449 -1.26137,1.57671 -1.67015,3.68657 -2.709,5.41799 -1.40856,2.34761 -2.88534,1.18941 -5.41799,2.709 -1.09504,0.65702 -1.80599,1.80599 -2.70899,2.70899 -0.903,0.903 -1.94278,1.68737 -2.709,2.709 -0.60575,0.80766 -0.64061,1.99511 -1.35449,2.70899 -1.15111,1.1511 -2.91239,1.55789 -4.0635,2.709 -1.1511,1.1511 -1.66683,2.8129 -2.70899,4.06349 -1.2263,1.47156 -2.83719,2.59192 -4.06349,4.06349 -1.04216,1.25059 -1.5579,2.91239 -2.709,4.06349 -0.71388,0.71388 -1.99511,0.64062 -2.70899,1.3545 -0.71388,0.71388 -0.79448,1.86897 -1.3545,2.70899 -0.35418,0.53128 -0.903,0.903 -1.3545,1.3545 -0.4515,0.4515 -1.9256,1.06894 -1.35449,1.3545 1.2115,0.60575 2.70899,0 4.06349,0 1.3545,0 2.7353,0.26564 4.06349,0 0.98998,-0.198 1.806,-0.903 2.709,-1.3545 0.90299,-0.4515 1.86897,-0.79448 2.70899,-1.3545 0.53128,-0.35418 0.82322,-1.00031 1.3545,-1.35449 0.84002,-0.56002 1.90133,-0.74875 2.70899,-1.3545 1.02163,-0.76622 1.7118,-1.91124 2.709,-2.709 0.45588,-0.36471 5.36575,-3.78214 6.77248,-4.06349 1.3282,-0.26564 2.7353,0.26564 4.0635,0 7.78206,-1.55641 -0.38874,-1.3545 4.06349,-1.3545 0.4515,0 1.26595,-0.44273 1.35449,0 0.44274,2.21366 0,4.515 0,6.77249 0,6.77249 0,13.54497 0,20.31746 0,1.806 0,3.61199 0,5.41799 0,0.4515 -0.40383,1.55641 0,1.3545 1.14222,-0.57111 1.806,-1.806 2.709,-2.709 0.903,-0.90299 1.806,-1.80599 2.70899,-2.70899 0.903,-0.903 2.00063,-1.64644 2.709,-2.709 1.12003,-1.68004 1.63884,-3.70574 2.70899,-5.41799 1.19647,-1.91435 2.90202,-3.4822 4.0635,-5.41798 1.55827,-2.59713 2.20402,-5.73624 4.06349,-8.12699 1.38597,-1.78196 3.8217,-2.4672 5.41799,-4.06349 3.35796,-3.35796 1.92581,-3.56597 4.06349,-6.77249 0.35418,-0.53127 0.903,-0.903 1.3545,-1.35449 0.86095,-0.86096 2.21418,-2.59152 2.70899,-1.3545 2.3583,5.89575 0.82737,9.92839 1.3545,16.25397 -0.17998,4.26214 2.33213,8.04495 2.70899,12.19047 0.44965,4.9461 0,9.93298 0,14.89947 0,3.7581 -0.60575,3.83212 1.3545,6.77249 0.35418,0.53128 0.78339,1.06894 1.3545,1.3545 0.40383,0.20191 0.903,0 1.35449,0 2.14588,0 3.65966,0.40383 5.41799,-1.3545 1.86956,-1.86955 4.30597,-5.34693 5.41799,-8.12698 0.53026,-1.32565 0.71598,-2.78646 1.3545,-4.0635 0.7283,-1.4566 3.55665,-4.74513 4.06349,-6.77248 0.21901,-0.87604 -0.28555,-1.85234 0,-2.709 0.20192,-0.60575 1.06895,-0.78339 1.3545,-1.3545 0.20192,-0.40383 0,-0.90299 0,-1.35449 0,-0.4515 0,-0.903 0,-1.3545"
       id="path3073"
       inkscape:connector-curvature="0" />
    <path
       style="fill:none;stroke:#000000;stroke-width:1px;stroke-linecap:butt;stroke-linejoin:miter;stroke-opacity:1"
       d="m 721.94708,119.11352 c -1.3545,1.80599 -2.4672,3.8217 -4.06349,5.41799 -1.1511,1.1511 -2.79231,1.69205 -4.06349,2.70899 -1.4958,1.19664 -2.53106,2.91416 -4.0635,4.06349 -1.30232,0.97675 -2.70899,1.806 -4.06349,2.709 -1.35449,0.903 -2.56721,2.06773 -4.06349,2.70899 -1.71106,0.73331 -3.62804,0.84309 -5.41799,1.3545 -1.37283,0.39224 -2.65515,1.11977 -4.06349,1.3545 -2.22678,0.37113 -4.51499,0 -6.77249,0 -2.25749,0 -4.51499,0 -6.77248,0 -0.4515,0 -1.15259,0.40383 -1.3545,0 -0.43815,-0.8763 0.48655,-4.93144 0,-5.41799 -0.31926,-0.31926 -0.96249,-0.22401 -1.3545,0 -2.82683,1.61533 -5.17663,4.04115 -8.12698,5.41799 -4.28368,1.99904 -13.41404,4.72437 -18.96297,5.41799 -1.34403,0.168 -2.7226,-0.19156 -4.06349,0 -1.84287,0.26326 -3.57512,1.09123 -5.41799,1.35449 -2.2348,0.31926 -4.51499,0 -6.77248,0 -1.83531,0 -3.92072,0.14278 -5.41799,-1.35449 -0.63852,-0.63852 0,-1.806 0,-2.709 0,-1.80599 0,-3.61199 0,-5.41799 0,-0.72359 -0.19383,-6.38482 0,-6.77248 1.02004,-2.04009 3.7541,-1.87706 5.41799,-2.709 15.84317,-7.92159 -3.68184,-0.0954 6.77248,-2.70899 0.97944,-0.24486 1.75122,-1.03524 2.709,-1.3545 0.42833,-0.14278 1.3545,0.4515 1.3545,0 0,-1.00958 -0.53297,-2.12219 -1.3545,-2.709 -2.4646,-1.76042 -5.33558,-2.88816 -8.12699,-4.06349 -5.79584,-2.44035 -11.82828,-4.29526 -17.60846,-6.77248 -21.98039,-9.42017 -1.64297,-1.49874 -17.60847,-9.48149 -15.68251,-7.841253 -4.39308,-0.671221 -13.54497,-6.772482 -1.3545,-0.902998 -2.76117,-1.732253 -4.06349,-2.708995 -0.51082,-0.383109 -1.15258,-0.748747 -1.3545,-1.354497 -1.88577,-5.657325 -1.3545,-8.908254 -1.3545,-14.899471 0,-3.160493 0,-6.320987 0,-9.481481 0,-0.451499 -0.25044,-0.978827 0,-1.354497 3.03111,-4.546655 2.10619,-1.775735 6.77249,-2.708995 0.98998,-0.197995 1.71902,-1.156502 2.70899,-1.354497 1.24106,-0.248211 8.15542,0 9.48149,0 0.90299,0 1.80599,0 2.70899,0 0.4515,0 1.3545,-0.451499 1.3545,0 0,0.451499 -0.903,0 -1.3545,0 -0.4515,0 -1.03524,0.319258 -1.3545,0 -0.31926,-0.319258 0,-0.902999 0,-1.354498 0,-3.914345 -1.50268,-9.382693 2.709,-12.190476 4.7968,-3.197869 9.60822,-4.095177 14.89947,-5.417989 3.61199,-0.902998 7.14157,-2.247194 10.83598,-2.708995 3.5841,-0.448012 7.22398,0 10.83598,0 3.61199,0 7.22398,0 10.83597,0 0.903,0 1.806,0 2.709,0 0.903,0 1.84074,-0.248072 2.70899,0 2.33785,0.667956 4.59778,1.621641 6.77249,2.708995 0.57111,0.285553 0.903,0.902998 1.3545,1.354497 0.4515,0.451499 1.06894,0.783391 1.3545,1.354498 0.40383,0.807666 -0.63852,2.070478 0,2.708994 0.31925,0.319258 0.90299,0 1.35449,0 9.02998,0 18.05997,0 27.08995,0 8.12698,0 16.25397,0 24.38095,0 0.4515,0 0.903,0 1.3545,0 0.4515,0 1.03524,-0.319258 1.3545,0 0.71388,0.713883 0.97954,1.771621 1.35449,2.708995 2.06838,5.17095 1.3545,4.270925 1.3545,10.835979 0,5.417989 0,10.835978 0,16.253968 0,1.805996 0,3.611993 0,5.417989 0,0.451499 -0.42833,1.211721 0,1.354497 1.71332,0.571107 3.61199,0 5.41799,0 0.4515,0 1.03524,-0.319258 1.3545,0 0.31926,0.319259 0.31926,1.03524 0,1.354498 -0.31926,0.319258 -0.903,0 -1.3545,0"
       id="path3075"
       inkscape:connector-curvature="0" />
    <path
       style="fill:none;stroke:#000000;stroke-width:1px;stroke-linecap:butt;stroke-linejoin:miter;stroke-opacity:1"
       d="m 74.497354,101.50505 c 2.003573,3.50626 3.414416,7.32973 5.417989,10.83598 0.807666,1.41342 1.871445,2.66758 2.708995,4.06349 1.809548,3.01592 3.694354,8.86824 4.063492,12.19048 0.249298,2.24369 0,4.51499 0,6.77249 0,3.61199 0,7.22398 0,10.83597 0,7.0821 0.880517,16.32141 -1.354498,23.02646 -0.514788,1.54436 -1.901328,2.65008 -2.708994,4.06349 -7.29124,12.75967 2.253172,-1.34931 -6.772487,9.48148 -2.557257,3.06871 -5.389048,9.14691 -6.772487,12.19048 -6.432125,14.15067 1.383007,0.64161 -6.772487,10.83598 -2.464928,3.08116 -0.118916,2.12093 -2.708994,4.06349 -13.431836,10.07388 2.681589,-2.23923 -6.772487,4.06349 -2.683338,-0.13521 -0.640614,1.99511 -1.354497,2.709 -0.319258,0.31925 -1.035239,-0.31926 -1.354498,0 -0.319258,0.31925 0.4515,1.35449 0,1.35449 -0.451499,0 -0.451499,-1.35449 0,-1.35449 2.302203,0 4.493423,1.02891 6.772487,1.35449 1.787845,0.25541 3.611993,0 5.417989,0 0.4515,0 0.902999,0 1.354498,0 0.451499,0 0.950664,0.20192 1.354497,0 0.752607,-0.3763 2.272248,-2.70899 2.708995,-2.70899 0.902998,0 -0.638516,2.07048 0,2.70899 0.319258,0.31926 0.902998,0 1.354497,0 3.23614,0 5.155606,0.42833 8.126984,-1.35449 11.80382,-7.0823 7.361168,-4.26927 13.544974,-13.54498 1.252233,-1.87835 2.751349,-3.58099 4.063492,-5.41799 0.946199,-1.32468 1.557893,-2.91239 2.708994,-4.06349 0.319258,-0.31926 1.152581,-0.40383 1.354498,0 0.403833,0.80767 0,1.806 0,2.709 0,1.35449 0,2.70899 0,4.06349 0,3.16049 0,6.32099 0,9.48148 0,0.4515 0,0.903 0,1.3545 0,0.4515 -0.403833,1.15258 0,1.35449 2.297754,1.14888 5.633764,-1.57027 6.772484,-2.70899 1.1511,-1.1511 1.87145,-2.66758 2.709,-4.06349 0.51942,-0.86571 0.4515,-2.2575 1.35449,-2.709 0.57111,-0.28555 1.19964,0.73505 1.3545,1.3545 0.32852,1.31406 0,2.70899 0,4.06349 0,1.806 -0.2969,3.63657 0,5.41799 0.16598,0.99585 1.03524,1.75122 1.3545,2.709 0.26969,0.80907 -0.3575,2.53024 0,2.70899 0.12686,0.0634 8.09746,0.0197 8.12698,0 0.84003,-0.56002 0.64062,-1.99511 1.3545,-2.70899 1.1511,-1.15111 2.60745,-1.98098 4.06349,-2.709 0.40384,-0.20192 1.03524,0.31926 1.3545,0 0.31926,-0.31926 -0.31926,-1.03524 0,-1.3545 0.31926,-0.31925 0.903,0 1.3545,0 2.70899,0 5.41799,0 8.12698,0 1.91231,0 4.47628,0.82557 5.41799,2.709 0.20192,0.40383 -0.31926,1.03524 0,1.3545 0.31926,0.31925 0.903,0 1.3545,0 1.47898,0 5.89652,-0.29199 6.77248,0 0.95778,0.31925 1.86898,0.79448 2.709,1.35449 0.53128,0.35419 0.903,1.806 1.3545,1.3545 0.63851,-0.63852 0.55438,-1.99621 0,-2.70899 -2.74408,-3.5281 -6.50117,-6.15055 -9.48148,-9.48149 -4.70267,-5.25592 -8.72139,-11.1088 -13.54498,-16.25396 -7.26803,-7.75257 -6.72844,-2.63191 -12.19047,-12.19048 -0.44802,-0.78402 0.40383,-1.90133 0,-2.70899 -0.20192,-0.40384 -1.15259,0.40383 -1.3545,0 -0.40383,-0.80767 0,-1.806 0,-2.709 0,-4.06349 0,-8.12698 0,-12.19048 0,-5.41798 0,-10.83597 0,-16.25396 0,-0.903 0,-1.806 0,-2.709 0,-0.903 -0.40383,-1.90133 0,-2.70899 1.00958,-2.01917 2.75135,-3.58099 4.06349,-5.41799 2.25654,-3.15916 4.96485,-7.67262 6.77249,-10.83598 0.50089,-0.87656 0.903,-1.806 1.35449,-2.709 0.4515,-0.90299 1.10964,-1.72955 1.3545,-2.70899 0.21901,-0.87604 -0.28555,-1.85234 0,-2.70899 0.40383,-1.2115 2.00063,-1.64644 2.709,-2.709 0.56001,-0.84002 0.64061,-1.99511 1.35449,-2.70899 0.63852,-0.63852 1.85234,0.28555 2.709,0 9.81119,-3.2704 -2.13551,0.3905 4.06349,-2.709 0.40383,-0.20192 0.95066,0.20192 1.3545,0 0.5711,-0.28555 0.903,-0.903 1.3545,-1.3545 0.45149,-0.45149 0.90299,-0.90299 1.35449,-1.35449 0.32136,3.64721 -1.10639,11.20813 1.3545,14.89947 2.94796,4.42194 8.84821,7.46858 13.54497,9.48148 1.31233,0.56242 2.73785,0.82424 4.0635,1.3545 0.93737,0.37495 1.72955,1.10963 2.70899,1.35449 0.87604,0.21901 1.806,0 2.70899,0 3.612,0 7.22399,0 10.83598,0 0.60822,0 10.50022,0.20146 10.83598,0 1.64257,-0.98554 3.00094,-2.46966 4.06349,-4.06349 1.46649,-2.19973 2.5749,-11.2518 2.709,-12.19047 0.51479,-3.60352 0.903,-7.22399 1.3545,-10.83598 0.45149,-3.612 1.02493,-7.210829 1.35449,-10.835982 0.20439,-2.248224 0,-4.514991 0,-6.772487 0,-0.451499 0.31926,-1.035239 0,-1.354497 -0.31925,-0.319258 -1.80599,0 -1.35449,0 4.51499,0 9.02998,0 13.54497,0 0.4515,0 1.03524,0.319258 1.3545,0 0.71388,-0.713883 1.10963,-1.729555 1.35449,-2.708995 0.23726,-0.949015 0,-7.636547 0,-8.126984 0,-2.708994 0,-5.417989 0,-8.126984 0,-2.708994 1.06713,-5.637025 0,-8.126984 -0.56242,-1.312323 -2.65007,-1.15258 -4.06349,-1.354497 -3.57569,-0.510813 -7.23882,0.327014 -10.83598,0 -3.17947,-0.289043 -6.29993,-1.089368 -9.48148,-1.354497 -2.2497,-0.187475 -4.51499,0 -6.77248,0 -3.1605,0 -6.32099,0 -9.48149,0 -1.35449,0 -2.70899,0 -4.06349,0 -0.4515,0 -1.03524,-0.319258 -1.3545,0 -1.55641,1.556414 -1.35449,2.395461 -1.35449,4.063492 0,0.451499 0,1.805996 0,1.354497 0,-0.902998 -0.21901,-1.832958 0,-2.708995 0.24486,-0.979439 1.03524,-1.75122 1.35449,-2.708994 0.14278,-0.42833 0,-0.902999 0,-1.354498 0,-1.354497 1.0836,-3.250793 0,-4.063492 -1.44479,-1.083598 -3.61731,0.138514 -5.41798,0 -4.07646,-0.313573 -8.10763,-1.13961 -12.19048,-1.354497 -4.50875,-0.237303 -9.02998,0 -13.54497,0 -7.67549,0 -15.35097,0 -23.02646,0 -4.06349,0 -8.60504,-1.912232 -12.19048,0 -10.082302,5.37723 -6.351786,8.640089 -9.481476,14.899471 -0.285554,0.571106 -1.068945,0.783391 -1.354498,1.354497 -0.201916,0.403833 0,0.902998 0,1.354497 0,1.862434 -0.451499,2.144621 2.708995,1.354498 0.979439,-0.24486 1.995112,-0.640615 2.708995,-1.354498 0.04356,-0.04356 0,-3.73499 0,-4.063492 0,-4.610323 2.019164,-7.181352 -2.708995,-8.126984 -11.447083,-2.289416 -23.562846,-3.556792 -35.216931,-4.063492 -4.51073,-0.196118 -9.029982,0 -13.544973,0 -4.063492,0 -8.126984,0 -12.190476,0 -3.160494,0 -6.698758,-1.498389 -9.481482,0 -3.665063,1.973496 -5.665364,6.124727 -8.126984,9.481482 -5.752474,7.844283 -6.616424,8.701167 -8.1269836,16.253968 -0.2438096,1.219047 0,2.817354 0,4.063492 0,1.354497 0,2.708994 0,4.063492 0,0.451499 -0.3871573,1.122203 0,1.354497 2.0849056,1.250944 4.4136846,2.119294 6.7724866,2.708995 7.703022,0 0.891746,-0.60575 6.772487,1.354497 0.428329,0.142777 1.244992,-0.438018 1.354497,0 0.04422,0.176867 -0.04351,10.487926 0,10.835974 0.2309,1.84721 0.843082,3.62804 1.354497,5.41799 0.392238,1.37283 0.497838,2.92128 1.354498,4.0635 0.605749,0.80766 1.901328,0.74874 2.708994,1.35449 2.698599,2.02395 2.139375,3.24384 5.41799,4.0635 1.403112,0.35077 3.864837,0 5.417989,0 3.611993,0 7.223986,0 10.835979,0 4.310531,0 8.320952,0.85665 12.190476,-1.3545 6.479821,-3.70276 6.390835,-5.52276 10.835979,-12.19048 z"
       id="path3077"
       inkscape:connector-curvature="0" />
  </g>
</svg>
