<?xml version="1.0" encoding="UTF-8" standalone="no"?>
<!-- Created with Inkscape (http://www.inkscape.org/) -->

<svg
   xmlns:dc="http://purl.org/dc/elements/1.1/"
   xmlns:cc="http://creativecommons.org/ns#"
   xmlns:rdf="http://www.w3.org/1999/02/22-rdf-syntax-ns#"
   xmlns:svg="http://www.w3.org/2000/svg"
   xmlns="http://www.w3.org/2000/svg"
   xmlns:sodipodi="http://sodipodi.sourceforge.net/DTD/sodipodi-0.dtd"
   xmlns:inkscape="http://www.inkscape.org/namespaces/inkscape"
   width="210mm"
   height="297mm"
   id="svg2"
   version="1.1"
   inkscape:version="0.48.5 r10040"
   sodipodi:docname="mas-janine-precisava-comer.svg"
   inkscape:export-filename="/home/fredm/projetos/o-rato-anderson/um-dia-este-rato-encontrou-uma-rata.png"
   inkscape:export-xdpi="90"
   inkscape:export-ydpi="90">
  <defs
     id="defs4" />
  <sodipodi:namedview
     id="base"
     pagecolor="#ffffff"
     bordercolor="#666666"
     borderopacity="1.0"
     inkscape:pageopacity="0.0"
     inkscape:pageshadow="2"
     inkscape:zoom="0.36914063"
     inkscape:cx="433.55668"
     inkscape:cy="606.65018"
     inkscape:document-units="px"
     inkscape:current-layer="layer1"
     showgrid="false"
     inkscape:window-width="710"
     inkscape:window-height="693"
     inkscape:window-x="560"
     inkscape:window-y="31"
     inkscape:window-maximized="0" />
  <metadata
     id="metadata7">
    <rdf:RDF>
      <cc:Work
         rdf:about="">
        <dc:format>image/svg+xml</dc:format>
        <dc:type
           rdf:resource="http://purl.org/dc/dcmitype/StillImage" />
        <dc:title />
      </cc:Work>
    </rdf:RDF>
  </metadata>
  <g
     inkscape:label="Camada 1"
     inkscape:groupmode="layer"
     id="layer1">
    <path
       style="fill:none;stroke:#000000;stroke-width:1px;stroke-linecap:butt;stroke-linejoin:miter;stroke-opacity:1"
       d="m 395.51322,559.32515 c -10.83598,0 -21.67196,0 -32.50793,0 -1.806,0 -3.612,0 -5.41799,0 -0.903,0 -1.90133,0.40384 -2.709,0 -0.51855,-0.25928 -10.5767,-10.31742 -10.83598,-10.83598 -0.62371,-1.24742 0,-13.44627 0,-16.25396 0,-11.73898 0,-23.47796 0,-35.21694 0,-1.80599 0,-3.61199 0,-5.41798 0,-1.806 -1.00178,-3.91531 0,-5.41799 1.12003,-1.68005 3.80266,-1.4975 5.41799,-2.709 2.04325,-1.53244 3.2279,-4.10393 5.41799,-5.41799 9.35395,-5.61237 6.54555,-0.76731 16.25397,-2.70899 1.97995,-0.39599 3.45911,-2.21928 5.41799,-2.709 0.85761,-0.2144 18.10535,-0.2144 18.96296,0 1.95888,0.48972 3.99023,1.28123 5.41799,2.709 0.0723,0.0723 10.622,15.96866 10.83598,16.25397 2.25212,3.00283 6.04711,5.00717 8.12698,8.12698 5.132,-0.3085 1.806,6.32099 2.709,8.12698 1.14221,2.28443 4.27578,3.13357 5.41799,5.41799 0.40383,0.80767 0,1.806 0,2.709 0,0.903 0,1.80599 0,2.70899 0,4.51499 0,9.02998 0,13.54498 0,7.22398 0,14.44797 0,21.67195 0,0.903 0.63851,2.07048 0,2.709 -0.17359,0.17359 -10.33137,5.08158 -10.83598,5.41799 -1.06256,0.70837 -1.56678,2.13789 -2.709,2.70899 -0.80766,0.40383 -2.07047,-0.63851 -2.70899,0 -0.63852,0.63852 0.63852,2.07048 0,2.709 -0.63852,0.63851 -1.90133,0.40383 -2.70899,0 -4.70947,-2.35474 -9.02999,-5.41799 -13.54498,-8.12699 z"
       id="path3035"
       inkscape:connector-curvature="0" />
    <path
       style="fill:none;stroke:#000000;stroke-width:1px;stroke-linecap:butt;stroke-linejoin:miter;stroke-opacity:1"
       d="m 376.55026,432.0024 c -13.27398,-26.54796 -2.26588,-0.49343 -5.41799,-16.25397 -0.56002,-2.80007 -1.64848,-5.47569 -2.70899,-8.12698 -0.7499,-1.87475 -2.31301,-3.43803 -2.709,-5.41799 -0.53128,-2.65639 0,-5.41799 0,-8.12698 0,-3.612 0,-7.22399 0,-10.83598 0,-8.12699 0,-16.25397 0,-24.38095 0,-2.709 0,-5.41799 0,-8.12699 0,-2.70899 -1.2115,-5.70398 0,-8.12698 3.83951,-7.67903 15.8514,-11.88855 21.67196,-16.25397 3.06488,-2.29866 5.41799,-5.41799 8.12698,-8.12698 1.806,-1.806 3.13357,-4.27578 5.41799,-5.41799 1.61533,-0.80767 3.61199,0 5.41799,0 6.32099,0 12.64198,0 18.96296,0 4.51499,0 9.02999,0 13.54498,0 3.61199,0 7.36296,-0.99229 10.83598,0 3.13053,0.89444 5.41798,3.61199 8.12698,5.41799 10.25209,6.83473 5.82478,3.11578 13.54497,10.83598 2.709,2.70899 5.41799,5.41798 8.12699,8.12698 1.80599,1.806 3.37473,3.88555 5.41799,5.41799 1.61533,1.2115 4.20649,1.09366 5.41799,2.70899 1.71331,2.28443 1.43196,5.57292 2.70899,8.12699 1.45604,2.91208 4.20881,5.10404 5.41799,8.12698 0.67073,1.67683 -0.43802,3.66592 0,5.41799 0.48972,1.95888 2.21927,3.45911 2.70899,5.41799 0.43802,1.75207 0,3.61199 0,5.41799 0,2.70899 0,5.41799 0,8.12698 0,11.73898 0,23.47796 0,35.21693 0,5.41799 0,10.83598 0,16.25397 0,2.709 1.2115,5.70399 0,8.12699 -1.71331,3.42663 -5.82832,5.0621 -8.12698,8.12698 -3.1592,4.21227 -5.51464,8.97338 -8.12698,13.54497 -9.46819,16.56934 5.68247,-8.65594 -5.41799,13.54498 -1.45604,2.91208 -3.74289,5.33515 -5.41799,8.12698 -1.03885,1.73142 -1.28123,3.99022 -2.709,5.41799 -0.63851,0.63852 -1.85233,-0.28555 -2.70899,0 -9.33848,3.11283 -2.00673,2.70899 -8.12699,2.70899"
       id="path3037"
       inkscape:connector-curvature="0" />
    <path
       style="fill:none;stroke:#000000;stroke-width:1px;stroke-linecap:butt;stroke-linejoin:miter;stroke-opacity:1"
       d="m 333.20634,448.25637 c 0,-7.54378 0.89072,-25.30852 -2.70899,-32.50794 -1.45604,-2.91208 -5.36607,-3.69241 -8.12698,-5.41798 -4.465,-2.79063 -8.97338,-5.51465 -13.54498,-8.12699 -3.50625,-2.00357 -7.47588,-3.17793 -10.83598,-5.41799 -4.95674,-3.3045 -0.27027,-3.45381 -8.12698,-5.41799 -1.75207,-0.43802 -3.64706,0.35419 -5.41799,0 -2.80008,-0.56001 -5.3103,-2.23955 -8.12698,-2.70899 -2.67214,-0.44536 -5.41799,0 -8.12699,0 -6.32099,0 -12.64197,0 -18.96296,0 -1.806,0 -3.66592,0.43802 -5.41799,0 -1.95888,-0.48972 -3.43803,-2.31301 -5.41799,-2.709 -2.65639,-0.53127 -5.41799,0 -8.12698,0 -6.32099,0 -12.64198,0 -18.96297,0 -1.05924,0 -17.79455,-0.38947 -18.96296,0 -0.33653,0.11218 -7.89461,7.66223 -8.12698,8.12699 -1.27703,2.55406 -1.806,5.41799 -2.709,8.12698 -0.903,2.709 -2.23955,5.31031 -2.70899,8.12699 -0.44536,2.67213 0,5.41798 0,8.12698 0,4.51499 0,9.02998 0,13.54497 0,13.79101 -1.5331,33.32664 2.70899,46.05291 8.05572,24.16714 13.47641,29.07027 32.50794,43.34392 4.21227,3.1592 9.07997,5.33636 13.54497,8.12698 2.76092,1.72557 5.82478,3.11579 8.12699,5.41799 1.42776,1.42777 2.07047,3.50244 2.70899,5.41799 0.28555,0.85666 -0.63852,2.07048 0,2.70899 0.63852,0.63852 1.806,0 2.709,0 5.41799,0 10.83597,0 16.25396,0 4.51499,0 9.02999,0 13.54498,0 1.80599,0 3.61199,0 5.41799,0 0.90299,0 2.70899,-0.90299 2.70899,0 0,0.903 -1.806,0 -2.70899,0"
       id="path3039"
       inkscape:connector-curvature="0" />
    <path
       style="fill:none;stroke:#000000;stroke-width:1px;stroke-linecap:butt;stroke-linejoin:miter;stroke-opacity:1"
       d="m 314.24338,507.85425 c -6.32099,6.32099 -12.64197,12.64198 -18.96296,18.96297 -1.806,1.80599 -3.88555,3.37473 -5.41799,5.41799 -1.2115,1.61533 -1.67014,3.68656 -2.70899,5.41798 -1.6751,2.79184 -4.13547,5.13443 -5.41799,8.12699 -1.46663,3.42212 -1.68617,7.25607 -2.709,10.83598 -1.56895,5.49132 -3.84904,10.76264 -5.41799,16.25397 -1.02283,3.5799 -1.32625,7.37911 -2.70899,10.83597 -0.47428,1.1857 -2.13789,1.56679 -2.709,2.709 -1.27703,2.55406 -1.80599,5.41799 -2.70899,8.12698 -2.709,3.612 -5.93431,6.88917 -8.12699,10.83598 -11.80606,21.25092 1.87398,6.39218 -13.54497,24.38095 -2.49324,2.90879 -5.41799,5.41799 -8.12698,8.12699 -0.903,0.903 -2.00063,1.64644 -2.709,2.70899 -1.12003,1.68005 -1.80599,3.612 -2.70899,5.41799 -3.3332,6.66639 -4.13851,7.29757 -5.41799,16.25397 -0.38311,2.68177 0.29916,5.43456 0,8.12698 -0.60657,5.45913 -1.51746,10.89205 -2.709,16.25397 -3.2801,14.76046 -2.70899,2.15968 -2.70899,13.54498 0,11.73897 0,23.47795 0,35.21693 0,0.657 -0.0871,8.03986 0,8.12698 1.74366,1.74366 12.31072,5.24167 13.54497,5.41799 3.57569,0.51081 7.27313,-0.59381 10.83598,0 1.99169,0.33195 3.45911,2.21927 5.41799,2.70899 1.75207,0.43802 3.61199,0 5.41799,0 1.806,0 3.61199,0 5.41799,0 5.41799,0 10.83598,0 16.25397,0 13.54497,0 27.08994,0 40.63492,0 5.41799,0 10.94119,1.06256 16.25396,0 21.69393,-4.33878 6.59034,-4.00277 18.96297,-8.12698 3.53209,-1.17737 7.18512,-1.97882 10.83598,-2.70899 0.88546,-0.1771 1.95765,0.50089 2.70899,0 2.12511,-1.41674 3.37474,-3.88556 5.41799,-5.41799 1.61533,-1.2115 3.68657,-1.67015 5.41799,-2.709 2.79183,-1.6751 5.30015,-3.80266 8.12698,-5.41799 3.50626,-2.00357 7.47589,-3.17792 10.83598,-5.41799 2.12511,-1.41674 3.20044,-4.15082 5.41799,-5.41799 4.22209,-2.41262 9.19556,-3.24328 13.54497,-5.41799 1.14222,-0.5711 1.806,-1.80599 2.709,-2.70899 0.903,-0.903 1.806,-1.806 2.70899,-2.709 1.806,-1.80599 3.612,-3.61199 5.41799,-5.41798 0.903,-0.903 2.00063,-1.64644 2.709,-2.709 4.61466,-6.922 0.31552,-4.97738 8.12698,-10.83598 1.61533,-1.2115 3.80266,-1.49749 5.41799,-2.70899 2.04325,-1.53244 3.61199,-3.612 5.41799,-5.41799 1.806,-1.806 3.61199,-3.612 5.41799,-5.41799 0.903,-0.903 1.56678,-2.13789 2.70899,-2.709 0.80767,-0.40383 1.90133,0.40384 2.709,0 0.71927,-0.35963 7.76735,-7.40771 8.12698,-8.12698 0.40384,-0.80767 -0.63851,-2.07048 0,-2.70899 0.63852,-0.63852 2.07048,0.63851 2.709,0 0.63851,-0.63852 0,-1.806 0,-2.709 0,-5.41799 0,-10.83598 0,-16.25397"
       id="path3041"
       inkscape:connector-curvature="0" />
    <path
       style="fill:none;stroke:#000000;stroke-width:1px;stroke-linecap:butt;stroke-linejoin:miter;stroke-opacity:1"
       d="m 506.582,521.39923 c 0,4.51499 -2.39294,9.71627 0,13.54497 2.79063,4.465 9.40474,4.87394 13.54498,8.12698 8.55006,6.71791 15.89014,14.87932 24.38095,21.67196 9.59071,7.67257 20.42295,13.73843 29.79894,21.67196 4.02292,6.03437 5.32156,9.13343 10.83598,13.54497 8.25004,6.60004 9.22995,5.27426 18.96296,10.83598 2.82683,1.61533 5.36607,3.69242 8.12699,5.41799 4.46499,2.79062 9.82181,4.40383 13.54497,8.12698 6.05235,6.05235 13.38376,26.19349 16.25397,32.50794 1.67107,3.67636 3.61199,7.22399 5.41799,10.83598 2.70899,3.61199 6.10782,6.79765 8.12698,10.83598 2.55407,5.10813 2.86393,11.14584 5.41799,16.25397 2.01917,4.03833 5.62252,7.07927 8.12698,10.83597 5.84137,8.76206 9.93557,18.66541 16.25397,27.08995 7.23943,9.65257 7.6501,6.66188 16.25397,13.54497 1.99439,1.59552 3.61199,3.612 5.41799,5.41799 1.806,1.806 3.88555,3.37474 5.41799,5.41799 9.8403,13.12041 -2.86781,-0.15881 5.41799,8.12699"
       id="path3043"
       inkscape:connector-curvature="0" />
    <path
       style="fill:none;stroke:#000000;stroke-width:1px;stroke-linecap:butt;stroke-linejoin:miter;stroke-opacity:1"
       d="m 219.42857,320.93362 c -3.61199,-0.903 -7.30388,-1.53163 -10.83598,-2.70899 -1.91555,-0.63852 -3.50244,-2.07048 -5.41799,-2.709 -1.61529,-0.53843 -13.62931,0 -16.25397,0 -0.903,0 -1.80599,0 -2.70899,0 -0.903,0 -2.07048,-0.63851 -2.709,0 -0.63851,0.63852 0,1.806 0,2.709 0,3.61199 0,7.22398 0,10.83598 0,6.32098 0,12.64197 0,18.96296 0,0.903 -0.63851,2.07048 0,2.70899 0.63852,0.63852 1.90133,-0.40383 2.709,0 1.14221,0.57111 1.80599,1.806 2.70899,2.709 1.806,0 3.70467,-0.57111 5.41799,0 1.2115,0.40383 1.56678,2.13789 2.709,2.70899 0.80766,0.40383 2.07047,-0.63851 2.70899,0 0.63852,0.63852 -0.63852,2.07048 0,2.709 1.27703,1.27703 3.80266,-0.80767 5.41799,0 1.14221,0.5711 1.56678,2.13788 2.709,2.70899 0.80766,0.40383 1.80599,0 2.70899,0 0.903,0 1.806,0 2.70899,0 5.41799,0 10.83598,0 16.25397,0 0.65701,0 8.03987,0.0871 8.12699,0 1.42776,-1.42776 2.07047,-3.50244 2.70899,-5.41799 0.28555,-0.85666 -0.903,-2.70899 0,-2.70899 0.903,0 0,3.61199 0,2.70899 0,-3.61199 0,-7.22398 0,-10.83598 0,-5.41799 0,-10.83598 0,-16.25396 0,-0.65701 0.0871,-8.03987 0,-8.12699 -0.63852,-0.63852 -2.07048,0.63852 -2.70899,0 -1.27704,-1.27703 1.27703,-4.14096 0,-5.41799 -0.63852,-0.63851 -1.85234,-0.28555 -2.709,0 -4.61325,1.53775 -9.02998,3.61199 -13.54497,5.41799 z"
       id="path3045"
       inkscape:connector-curvature="0" />
    <path
       style="fill:none;stroke:#000000;stroke-width:1px;stroke-linecap:butt;stroke-linejoin:miter;stroke-opacity:1"
       d="m 135.44973,258.62674 c -9.55426,12.98284 -8.12698,12.3147 -8.12698,24.38096 0,5.41799 0,10.83597 0,16.25396 0,1.806 0,3.612 0,5.41799 0,0.903 -0.40383,1.90133 0,2.709 2.99487,5.98973 1.68132,0.84066 5.41799,2.70899 1.14221,0.57111 1.56678,2.13789 2.70899,2.709 0.60717,0.30358 10.19224,0 10.83598,0 7.22399,0 14.44797,0 21.67196,0 1.23588,0 13.01548,0.35299 13.54497,0 2.12511,-1.41674 3.88555,-3.37474 5.41799,-5.41799 1.2115,-1.61533 1.67015,-3.68657 2.709,-5.41799 5.67525,-9.45876 5.552,-5.95406 8.12698,-16.25397 0.43802,-1.75207 0,-3.61199 0,-5.41799 0,-3.61199 0,-7.22398 0,-10.83598 0,-0.50985 0.10381,-13.38926 0,-13.54497 -3.35963,-5.03944 -4.68055,-1.84739 -8.12698,-2.709 -27.37063,-6.84265 1.9564,0.97821 -10.83598,-5.41799 -0.82444,-0.41221 -6.90697,0 -8.12699,0 -1.97497,0 -15.06124,-0.5301 -16.25396,0 -6.65274,2.95678 -12.64198,7.22399 -18.96297,10.83598 z"
       id="path3047"
       inkscape:connector-curvature="0" />
    <path
       style="fill:none;stroke:#000000;stroke-width:1px;stroke-linecap:butt;stroke-linejoin:miter;stroke-opacity:1"
       d="m 54.179893,147.55796 c 0,16.25397 0,32.50794 0,48.76191 0,1.77959 -0.318511,10.19895 0,10.83597 0.403834,0.80767 1.901329,-0.40383 2.708995,0 1.142213,0.57111 1.805997,1.806 2.708995,2.709 0.902998,0.903 2.000624,1.64644 2.708994,2.70899 1.120032,1.68005 1.028948,4.29796 2.708995,5.41799 0.881303,0.58754 11.499099,0 13.544973,0 1.904938,0 15.455219,0.5325 16.253969,0 2.12511,-1.41674 3.611992,-3.61199 5.417986,-5.41799 1.806,-1.80599 3.612,-3.61199 5.41799,-5.41799 0.903,-0.90299 1.64644,-2.00062 2.709,-2.70899 1.68004,-1.12003 3.73794,-1.58896 5.41799,-2.70899 5.36667,0.27041 1.28123,-3.99023 2.70899,-5.41799 0.63852,-0.63852 1.806,0 2.709,0 0.90299,0 1.80599,0 2.70899,0 1.806,0 3.91531,-1.00179 5.41799,0 0.29418,0.19612 4.69853,9.75679 5.41799,10.83597 1.41674,2.12512 4.61032,2.995 5.41799,5.41799 0.5711,1.71332 -0.57111,3.70467 0,5.41799 0.40383,1.2115 1.80599,1.806 2.70899,2.709 12.61725,12.61725 -3.71671,-1.85836 16.25397,8.12698 2.28443,1.14221 3.13357,4.27578 5.41799,5.41799 1.01626,0.50813 14.6411,0 16.25397,0 1.51086,0 13.43626,0.10871 13.54497,0 0.63005,-0.63005 4.52483,-14.76536 5.41799,-16.25397 1.31406,-2.19009 3.88555,-3.37473 5.41799,-5.41799 2.423,-3.23066 3.17793,-7.47588 5.41799,-10.83597 1.10136,-1.65204 3.02023,-3.90788 5.41799,-2.709 5.32918,2.66459 1.30774,1.91486 2.70899,5.41799 1.4998,3.7495 3.34029,7.37314 5.41799,10.83598 0.65703,1.09505 1.806,1.806 2.709,2.70899 1.80599,1.806 3.29288,4.00125 5.41799,5.41799 0.75134,0.5009 2.07048,-0.63851 2.70899,0 1.42777,1.42777 1.28123,3.99023 2.709,5.41799 1.42776,1.42777 3.80265,1.4975 5.41799,2.709 2.04325,1.53244 2.96219,4.71633 5.41799,5.41799 4.34127,1.24036 9.06484,-0.56002 13.54497,0 2.83348,0.35418 5.3103,2.23954 8.12698,2.70899 2.67214,0.44536 5.41799,0 8.12699,0 7.22398,0 14.44797,0 21.67195,0 1.55852,0 15.45627,0.53181 16.25397,0 1.68005,-1.12003 1.67014,-3.68657 2.709,-5.41799 4.79447,-7.99079 6.3245,-7.24154 8.12698,-16.25397 0.35419,-1.77092 0,-3.61199 0,-5.41799 0,-0.90299 0,-3.61199 0,-2.70899 0,12.78491 -1.04857,10.39927 2.709,21.67196 0.90299,2.70899 1.43196,5.57292 2.70899,8.12698 1.65716,3.31432 5.48738,3.43828 8.12698,5.41799 2.04326,1.53244 3.612,3.61199 5.41799,5.41799 0.903,0.903 1.806,1.806 2.709,2.70899 1.80599,1.806 3.0466,4.46944 5.41799,5.41799 2.51524,1.0061 5.45485,-0.44535 8.12698,0 5.63336,0.9389 10.65381,4.29796 16.25397,5.41799 1.77092,0.35419 3.61199,0 5.41799,0 3.61199,0 7.22398,0 10.83598,0 7.70567,0 17.50121,1.41885 24.38095,-2.70899 5.35777,-3.21466 11.90356,-15.44566 13.54497,-18.96296 25.24045,-54.08668 0.871,-2.29065 13.54498,-48.76191 0.85666,-3.14108 3.96194,-5.2149 5.41799,-8.12698 1.27703,-2.55407 2.01642,-5.35671 2.70899,-8.12699 0.41039,-1.64155 -0.5554,-5.14029 0,-5.41799 1.61533,-0.80766 3.80266,-0.80766 5.41799,0 4.5036,2.2518 8.10162,10.26374 10.83598,13.54498 5.79127,6.94952 11.57726,10.97847 18.96296,16.25397 2.64936,1.89239 5.13443,4.13546 8.12699,5.41798 19.24297,8.24699 3.88471,0.23515 16.25396,2.709 2.80008,0.56002 5.32691,2.14898 8.12699,2.70899 1.77092,0.35419 3.61199,0 5.41799,0 5.41799,0 10.83598,0 16.25396,0 6.32099,0 12.64198,0 18.96297,0 1.80599,0 3.80265,0.80767 5.41799,0 0.80766,-0.40383 -0.40384,-1.90132 0,-2.70899 0.5711,-1.14221 1.80599,-1.806 2.70899,-2.709 3.40923,-3.40922 6.08487,-5.73067 8.12699,-10.83597 1.00609,-2.51524 0,-5.41799 0,-8.12699 0,-0.903 -0.85666,-2.42344 0,-2.70899 2.56997,-0.85666 5.41798,0 8.12698,0 1.806,0 3.61199,0 5.41799,0 11.73898,0 23.47795,0 35.21693,0 3.61199,0 7.22399,0 10.83598,0 0.903,0 1.80599,0 2.70899,0 0.903,0 1.95766,0.50089 2.709,0 9.40777,-6.27185 3.49978,-3.16315 5.41799,-10.83598 0.48972,-1.95888 1.80599,-3.61199 2.70899,-5.41799 0.903,-1.806 2.21928,-3.45911 2.709,-5.41799 0.43801,-1.75207 0,-3.61199 0,-5.41799 0,-5.41799 0,-10.83598 0,-16.25397 0,-5.41799 0,-10.83598 0,-16.25397 0,-3.61199 0.51081,-7.26028 0,-10.83597 -0.40384,-2.82684 -1.43197,-5.57292 -2.709,-8.12699 -1.45604,-2.91208 -3.74289,-5.33515 -5.41799,-8.126982 -1.03885,-1.73142 -2.07048,-3.502441 -2.70899,-5.417989 -0.28556,-0.85666 0.63851,-2.070479 0,-2.708995 -0.63852,-0.638516 -2.709,0.902998 -2.709,0 0,-0.377547 14.90221,0.450587 16.25397,0 5.60011,-1.866705 8.96927,-5.235865 10.83598,-10.835979 0.28555,-0.856659 0,-1.805996 0,-2.708994 0,-2.708995 0,-5.41799 0,-8.126984"
       id="path3049"
       inkscape:connector-curvature="0" />
    <path
       style="fill:none;stroke:#000000;stroke-width:1px;stroke-linecap:butt;stroke-linejoin:miter;stroke-opacity:1"
       d="m 195.04762,115.05003 c -0.903,-3.612 -0.79345,-7.6434 -2.709,-10.83598 -1.03885,-1.73142 -3.68657,-1.67015 -5.41799,-2.709 -2.79183,-1.675096 -5.33515,-3.742888 -8.12698,-5.417987 -1.73142,-1.038852 -3.73794,-1.588963 -5.41799,-2.708994 -1.06256,-0.70837 -1.56678,-2.137889 -2.709,-2.708995 -0.80766,-0.403833 -2.07047,0.638516 -2.70899,0 -0.63852,-0.638516 0.50089,-1.957655 0,-2.708995 -1.41674,-2.12511 -3.61199,-3.611993 -5.41799,-5.417989 -6.78382,-6.783822 -15.11838,-10.898524 -24.38095,-13.544973 -1.73651,-0.496146 -3.70467,0.571106 -5.41799,0 -1.2115,-0.403834 -1.4975,-2.305162 -2.709,-2.708995 -1.45637,-0.485457 -8.5424,0 -10.83597,0 -0.903,0 -2.07048,-0.638516 -2.709,0 -4.20827,4.208269 -2.70899,11.039201 -2.70899,16.253968 0,5.417989 0,10.835979 0,16.253968 0,1.805992 -1.27704,4.140952 0,5.417992 2.01916,2.01916 5.47569,1.64847 8.12698,2.70899 6.77249,2.709 8.12698,5.41799 16.25397,8.12699 1.71332,0.5711 3.70467,-0.57111 5.41799,0 2.05556,0.68518 8.34626,9.59112 10.83598,10.83597 0.80766,0.40384 1.80599,0 2.70899,0 1.806,0 3.61199,0 5.41799,0 2.50097,0 15.45846,0.45458 16.25397,0 5.65366,-3.23066 10.83598,-7.22398 16.25397,-10.83597 z"
       id="path3051"
       inkscape:connector-curvature="0" />
    <path
       style="fill:none;stroke:#000000;stroke-width:1px;stroke-linecap:butt;stroke-linejoin:miter;stroke-opacity:1"
       d="m 276.31746,120.46802 c -7.20273,-7.31029 -7.23816,-19.20643 -13.54498,-27.089951 -1.26136,-1.576704 -3.61199,-1.805997 -5.41799,-2.708995 -1.80599,-0.902998 -3.61199,-1.805996 -5.41799,-2.708995 -1.80599,-0.902998 -3.73794,-1.588963 -5.41798,-2.708994 -1.06256,-0.70837 -1.56679,-2.137889 -2.709,-2.708995 -0.80767,-0.403833 -2.07048,0.638516 -2.70899,0 -0.63852,-0.638516 0.80766,-2.305162 0,-2.708995 -1.61534,-0.807666 -3.70467,0.571106 -5.41799,0 -2.423,-0.807666 -2.99499,-4.610323 -5.41799,-5.417989 -1.71332,-0.571106 -3.66592,0.438018 -5.41799,0 -1.95888,-0.48972 -3.45911,-2.219275 -5.41799,-2.708995 -0.19596,-0.04899 -13.47558,-0.0347 -13.54497,0 -0.80767,0.403833 0,1.805997 0,2.708995 0,9.93298 0,19.865961 0,29.798944 0,1.80599 -0.57111,3.70467 0,5.41799 0.40383,1.2115 2.13788,1.56678 2.70899,2.70899 0.40383,0.80767 0,1.806 0,2.709 0.903,1.80599 1.58896,3.73794 2.70899,5.41799 1.69201,2.53801 10.87109,7.45851 13.54498,8.12698 3.50415,0.87604 7.33183,-0.87604 10.83598,0 1.95887,0.48972 3.50244,2.07048 5.41799,2.70899 2.59578,0.86527 11.03533,-0.83654 13.54497,0 1.2115,0.40384 1.56678,2.13789 2.70899,2.709 0.80767,0.40383 1.806,0 2.709,0 0.903,0 1.80599,0 2.70899,0 3.612,0 7.22399,0 10.83598,0 0.903,0 2.5319,0.88546 2.709,0 0.88546,-4.42731 0,-9.02998 0,-13.54497 z"
       id="path3053"
       inkscape:connector-curvature="0" />
    <path
       style="fill:none;stroke:#000000;stroke-width:1px;stroke-linecap:butt;stroke-linejoin:miter;stroke-opacity:1"
       d="m 360.29629,158.39394 c 1.12807,-5.64034 1.51678,-13.76135 5.41799,-18.96296 1.53244,-2.04325 4.00125,-3.29288 5.41799,-5.41799 0.50089,-0.75134 -0.40383,-1.90133 0,-2.709 2.99487,-5.98973 1.68132,-0.84066 5.41799,-2.70899 2.28442,-1.14221 3.13356,-4.27578 5.41799,-5.41799 0.80766,-0.40383 1.85233,0.28555 2.70899,0 1.91555,-0.63852 3.50244,-2.07048 5.41799,-2.70899 1.46613,-0.48871 9.9131,0 10.83598,0 8.12699,0 16.25397,0 24.38095,0 0.903,0 1.806,0 2.709,0 0.903,0 2.07048,-0.63852 2.70899,0 1.42777,1.42776 2.07048,3.50244 2.709,5.41798 0.5711,1.71332 0,3.612 0,5.41799 0,4.515 0,9.02999 0,13.54498 0,6.32098 0,12.64197 0,18.96296 0,1.7801 0.50947,6.59857 0,8.12698 -6.54079,19.62238 0.78101,-4.27102 -5.41799,8.12699 -0.40383,0.80766 0.63851,2.07048 0,2.70899 -0.63852,0.63852 -1.90133,-0.40383 -2.709,0 -2.91208,1.45604 -5.2149,3.96195 -8.12698,5.41799 -0.80767,0.40384 -1.83296,-0.21901 -2.709,0 -2.77027,0.69257 -5.47569,1.64848 -8.12698,2.709 -11.33378,-4.9056 -3.13356,4.27577 -5.41799,5.41799 -1.61533,0.80766 -3.66591,-0.43802 -5.41799,0 -1.95888,0.48972 -3.50244,2.07047 -5.41799,2.70899 -0.85666,0.28555 -1.90133,-0.40383 -2.70899,0 -1.14221,0.57111 -1.4975,2.30516 -2.709,2.709 -3.42663,1.14221 -7.33183,-0.87604 -10.83598,0 -14.06664,3.51666 2.89197,2.70899 -10.83597,2.70899 -4.515,0 -9.02999,0 -13.54498,0 -0.903,0 -2.42344,0.85666 -2.70899,0 -0.85666,-2.56998 0,-5.41799 0,-8.12698 0,-6.32099 0,-12.64198 0,-18.96297 0,-0.90299 0,-1.80599 0,-2.70899 0,-0.903 -0.63852,-2.07048 0,-2.709 0.63851,-0.63851 1.80599,0 2.70899,0 3.612,-4.51499 7.22399,-9.02998 10.83598,-13.54497 z"
       id="path3055"
       inkscape:connector-curvature="0" />
    <path
       style="fill:none;stroke:#000000;stroke-width:1px;stroke-linecap:butt;stroke-linejoin:miter;stroke-opacity:1"
       d="m 390.09523,513.27224 c -3.61199,-1.80599 -7.22398,-3.61199 -10.83598,-5.41799 -1.80599,-0.90299 -3.61199,-1.80599 -5.41799,-2.70899 -1.80599,-0.903 -3.45911,-2.21928 -5.41798,-2.709 -2.41855,-0.60463 -10.40924,0 -13.54498,0 -0.903,0 -1.80599,0 -2.70899,0 -0.903,0 -2.07048,-0.63851 -2.709,0 -4.24984,4.24985 -2.70899,15.89722 -2.70899,21.67196 0,0.903 0,1.806 0,2.709 0,0.90299 -0.63852,2.07047 0,2.70899 0.17359,0.17359 10.33137,5.08158 10.83598,5.41799 2.46604,1.64403 5.7259,6.92644 8.12698,8.12698 0.80586,0.40293 15.1144,0 16.25397,0 2.70899,0 5.41799,0 8.12698,0 0.903,0 2.07048,0.63852 2.709,0 0.63851,-0.63851 0,-1.80599 0,-2.70899 0,-3.80948 0.5897,-10.00677 0,-13.54497 -0.75696,-4.54176 -1.806,-9.02999 -2.709,-13.54498 z"
       id="path3057"
       inkscape:connector-curvature="0" />
  </g>
</svg>
