<?xml version="1.0" encoding="UTF-8" standalone="no"?>
<!-- Created with Inkscape (http://www.inkscape.org/) -->

<svg
   xmlns:dc="http://purl.org/dc/elements/1.1/"
   xmlns:cc="http://creativecommons.org/ns#"
   xmlns:rdf="http://www.w3.org/1999/02/22-rdf-syntax-ns#"
   xmlns:svg="http://www.w3.org/2000/svg"
   xmlns="http://www.w3.org/2000/svg"
   xmlns:sodipodi="http://sodipodi.sourceforge.net/DTD/sodipodi-0.dtd"
   xmlns:inkscape="http://www.inkscape.org/namespaces/inkscape"
   width="210mm"
   height="297mm"
   id="svg2985"
   version="1.1"
   inkscape:version="0.48.5 r10040"
   sodipodi:docname="no-meio-da-floresta.svg"
   inkscape:export-filename="/home/fredm/projetos/o-rato-anderson/no-meio-da-floresta.png"
   inkscape:export-xdpi="90"
   inkscape:export-ydpi="90">
  <defs
     id="defs3" />
  <sodipodi:namedview
     inkscape:document-units="mm"
     id="base"
     pagecolor="#ffffff"
     bordercolor="#666666"
     borderopacity="1.0"
     inkscape:pageopacity="0.0"
     inkscape:pageshadow="2"
     inkscape:zoom="0.43852551"
     inkscape:cx="350"
     inkscape:cy="549.11964"
     inkscape:current-layer="layer1"
     showgrid="false"
     inkscape:window-width="732"
     inkscape:window-height="739"
     inkscape:window-x="546"
     inkscape:window-y="2"
     inkscape:window-maximized="0"
     units="mm" />
  <metadata
     id="metadata4">
    <rdf:RDF>
      <cc:Work
         rdf:about="">
        <dc:format>image/svg+xml</dc:format>
        <dc:type
           rdf:resource="http://purl.org/dc/dcmitype/StillImage" />
        <dc:title></dc:title>
      </cc:Work>
    </rdf:RDF>
  </metadata>
  <g
     inkscape:label="Layer 1"
     inkscape:groupmode="layer"
     id="layer1">
    <path
       style="fill:none;stroke:#000000;stroke-width:0.09614346px;stroke-linecap:butt;stroke-linejoin:miter;stroke-opacity:1"
       d="m 187.54561,774.05688 c 0.23614,-0.62824 0.17406,-1.26046 0.17406,-1.91471 0,-0.17407 -0.0341,-0.35151 0,-0.5222 0.0254,-0.12722 0.1426,-0.22226 0.17407,-0.34813 0.0281,-0.11258 0,-0.23208 0,-0.34812 0,-0.17407 0,-0.34813 0,-0.5222 0,-0.58021 0,-1.16043 0,-1.74064 0,-0.34813 0,-0.69626 0,-1.04439 0,-0.34813 0.0956,-0.70965 0,-1.04439 -0.13272,-0.46451 -1.01359,-2.01061 -1.39252,-2.4369 -0.19274,-0.21683 -0.46726,-0.34409 -0.69626,-0.5222 -0.29326,-0.22809 -0.5612,-0.49017 -0.87032,-0.69625 -0.38922,-0.25949 -0.81231,-0.46417 -1.21845,-0.69626 -0.40615,-0.23209 -0.8057,-0.47613 -1.21846,-0.69626 -0.75237,-0.40127 -1.94164,-1.00761 -2.78503,-1.21845 -0.45382,-0.11346 -0.93274,-0.0879 -1.39251,-0.17407 -0.46418,-0.11604 -0.92835,-0.23208 -1.39252,-0.34812 -0.17406,0 -0.3505,0.0286 -0.52219,0 -0.18099,-0.0302 -0.34813,-0.11605 -0.5222,-0.17407 -0.17406,-0.058 -0.35184,-0.10592 -0.5222,-0.17406 -0.12045,-0.0482 -0.2209,-0.14863 -0.34812,-0.17407 -0.34137,-0.0683 -0.69976,0.0492 -1.04439,0 -0.23682,-0.0339 -0.45943,-0.14023 -0.69626,-0.17406 -0.17231,-0.0246 -0.34813,0 -0.52219,0 -0.1255,0 -1.89172,0 -1.91471,0 -0.52219,0 -1.04439,0 -1.56658,0 -0.63752,0 -0.77824,-0.0563 -1.39252,0.17406 -0.93248,0.34968 -0.56658,0.28387 -1.21845,1.04439 -0.1602,0.1869 -0.3646,0.33308 -0.5222,0.52219 -0.13392,0.16071 -0.22653,0.35196 -0.34813,0.5222 -0.16862,0.23607 -0.36843,0.45024 -0.52219,0.69625 -0.13752,0.22004 -0.22211,0.46943 -0.34813,0.69626 -0.25566,0.4602 -0.6777,1.05292 -0.87032,1.56658 -0.084,0.224 -0.0798,0.47637 -0.17406,0.69626 -0.0824,0.19229 -0.25457,0.33508 -0.34813,0.52219 -0.54482,1.08963 -0.18979,0.56936 -0.5222,1.56658 -0.0821,0.24617 -0.28519,0.44453 -0.34813,0.69627 -0.0281,0.11257 0.0367,0.23803 0,0.34812 -0.026,0.0778 -0.14811,0.0962 -0.17406,0.17407 -0.0367,0.11008 0.0227,0.23434 0,0.34813 -0.036,0.17991 -0.11604,0.34813 -0.17406,0.52219 0,0.23208 0.0231,0.46533 0,0.69626 -0.0351,0.35118 -0.14476,0.69267 -0.17407,1.04439 -0.0289,0.34692 0,0.69625 0,1.04438 0,0.87032 0,1.74065 0,2.61097 0,0.63824 0,1.27647 0,1.91471 0,0.62596 -0.0216,1.32775 0.17407,1.91471 0.14792,0.44378 0.44329,0.82497 0.69625,1.21845 0.2699,0.41985 0.5841,0.80956 0.87033,1.21845 0.11996,0.17139 0.2142,0.36149 0.34812,0.5222 0.33576,0.4029 1.56242,1.44319 1.74065,1.56658 0.32001,0.22155 0.71063,0.32194 1.04439,0.52219 0.24876,0.14927 0.45024,0.36844 0.69626,0.5222 0.65358,0.40849 0.68114,0.32818 1.39251,0.52219 0.40752,0.11114 0.81387,0.22675 1.21846,0.34813 0.17574,0.0527 0.34055,0.14811 0.52219,0.17407 0.22975,0.0328 0.46417,0 0.69626,0 0.17406,0 0.34813,0 0.52219,0 0.75428,0 1.50856,0 2.26284,0 0.63824,0 1.27647,0 1.91471,0 0.41521,0 0.82914,0.0422 1.21845,-0.17407 0.32477,-0.18042 0.55528,-0.49935 0.87033,-0.69626 0.15559,-0.0972 0.36485,-0.0797 0.52219,-0.17406 0.14072,-0.0844 0.21158,-0.2571 0.34813,-0.34814 1.33727,-0.89151 0.0621,0.27004 1.39251,-0.87032 0.50914,-0.43639 0.63165,-0.66812 1.04439,-1.21845 0.17406,-0.23208 0.31706,-0.49112 0.52219,-0.69626 0.20514,-0.20513 0.46418,-0.34812 0.69626,-0.52219 0.17407,-0.29011 0.31449,-0.60327 0.52219,-0.87032 0.20152,-0.25908 0.49123,-0.43996 0.69627,-0.69626 0.26137,-0.32671 0.44521,-0.70967 0.69626,-1.04439 0.0985,-0.13129 0.24561,-0.21998 0.34812,-0.34812 0.13069,-0.16336 0.23209,-0.34813 0.34813,-0.5222 0.17407,-0.17406 0.3646,-0.33308 0.5222,-0.52219 0.26785,-0.32143 0.43488,-0.71767 0.69625,-1.04439 0.93978,-1.17472 -0.46282,1.00346 0.87033,-1.21845 z"
       id="path2991"
       inkscape:connector-curvature="0" />
    <path
       style="fill:none;stroke:#000000;stroke-width:0.09614346px;stroke-linecap:butt;stroke-linejoin:miter;stroke-opacity:1"
       d="m 173.96857,770.74965 c -0.23208,-0.17406 -0.44749,-0.37293 -0.69626,-0.52219 -0.057,-0.0342 -0.59634,0 -0.69626,0 -0.058,0 -0.11604,0 -0.17406,0 -0.058,0 -0.13303,-0.041 -0.17407,0 -0.041,0.041 0,0.11604 0,0.17406 0,0.34813 0,0.69626 0,1.04439 0,0.058 -0.041,0.13304 0,0.17406 0.041,0.041 0.13304,-0.041 0.17407,0 0.041,0.041 -0.041,0.13304 0,0.17407 0.041,0.041 0.11605,0 0.17406,0 0.058,0 0.11604,0 0.17407,0 0.46417,0 0.92834,0 1.39251,0 0.058,0 0.13304,0.041 0.17407,0 0.041,-0.041 0.0183,-0.11902 0,-0.17407 -0.0988,-0.29642 -0.23209,-0.58021 -0.34813,-0.87032 z"
       id="path2993"
       inkscape:connector-curvature="0" />
    <path
       style="fill:none;stroke:#000000;stroke-width:0.09614346px;stroke-linecap:butt;stroke-linejoin:miter;stroke-opacity:1"
       d="m 177.97206,770.92372 c -0.23209,-0.17407 -0.87033,-0.29011 -0.69626,-0.5222 0.17406,-0.23209 0.98636,0.5222 0.69626,0.5222 -0.33832,0 -0.56772,-0.3709 -0.87033,-0.5222 -0.10379,-0.0519 -0.34812,0.11604 -0.34812,0 0,-0.058 0.17406,-0.058 0.17406,0 0,0.058 -0.13304,-0.041 -0.17406,0 -0.041,0.041 0,0.11604 0,0.17407 0,0.58021 0,1.16042 0,1.74064 0,0.058 0,0.11604 0,0.17407 0,0.058 -0.0519,0.14811 0,0.17406 0.0545,0.0272 0.93652,0 1.04438,0 0.0821,0 0.86244,0.008 0.87032,0 0.041,-0.041 0,-0.11604 0,-0.17406 0,-0.10628 0.0163,-0.66773 0,-0.69626 -0.18432,-0.32257 -0.69625,-0.49881 -0.69625,-0.87032 0,-0.37153 0.46417,-0.58022 0.69625,-0.87033"
       id="path2995"
       inkscape:connector-curvature="0" />
    <path
       style="fill:none;stroke:#000000;stroke-width:0.09614346px;stroke-linecap:butt;stroke-linejoin:miter;stroke-opacity:1"
       d="m 172.75012,767.09429 c -0.12255,-0.0501 0.0682,-1.01399 0,-1.21845 -0.026,-0.0778 -0.13737,-0.10067 -0.17407,-0.17406 -0.0259,-0.0519 0.026,-0.12217 0,-0.17407 -0.0367,-0.0734 -0.12854,-0.10579 -0.17406,-0.17406 -0.0216,-0.0325 -0.33698,-0.68511 -0.34813,-0.69626 -0.0917,-0.0917 -0.24018,-0.1021 -0.34813,-0.17406 -0.0683,-0.0455 -0.11604,-0.11605 -0.17406,-0.17407 -0.11604,-0.11604 -0.23209,-0.23209 -0.34813,-0.34813 -0.058,-0.058 -0.10067,-0.13736 -0.17407,-0.17406 -0.0519,-0.026 -0.11604,0 -0.17406,0 -0.11604,-0.058 -0.24018,-0.1021 -0.34813,-0.17407 -0.0683,-0.0455 -0.10067,-0.13736 -0.17406,-0.17406 -0.1038,-0.0519 -0.23805,0.0367 -0.34813,0 -0.12308,-0.041 -0.24018,-0.1021 -0.34813,-0.17407 -0.0683,-0.0455 -0.0945,-0.15416 -0.17407,-0.17406 -0.16887,-0.0422 -0.34813,0 -0.52219,0 -0.40615,0 -0.8123,0 -1.21845,0 -0.2761,0 -1.23786,-0.0442 -1.39252,0 -0.40995,0.11713 -0.74735,0.6327 -1.04439,0.87032 -0.10131,0.0811 -0.25639,0.0823 -0.34813,0.17407 -0.0917,0.0917 -0.11604,0.23208 -0.17406,0.34813 -0.058,0.11604 -0.1426,0.22226 -0.17407,0.34812 -0.0451,0.18032 0,0.49667 0,0.69626 0,0.46735 0,0.92517 0,1.39252 0,0.87033 0,1.74065 0,2.61097 0,0.23208 0,0.46417 0,0.69626 0,0.058 0,0.11604 0,0.17406 0,0.058 -0.026,0.12217 0,0.17407 0.0367,0.0734 0.11605,0.11604 0.17407,0.17406 0.058,0.058 0.0962,0.14812 0.17406,0.17407 0.11009,0.0367 0.24039,-0.0431 0.34813,0 0.19424,0.0777 0.32991,0.26572 0.52219,0.34812 0.94121,0.40338 0.40168,0.0379 1.21846,0.17407 0.18098,0.0302 0.34227,0.13808 0.52219,0.17406 0.19366,0.0387 0.64356,0 0.87033,0 0.75427,0 1.50855,0 2.26283,0"
       id="path2997"
       inkscape:connector-curvature="0" />
    <path
       style="fill:none;stroke:#000000;stroke-width:0.09614346px;stroke-linecap:butt;stroke-linejoin:miter;stroke-opacity:1"
       d="m 176.05735,767.96462 c 0.0524,-0.92396 -0.0768,-1.86311 0,-2.78504 0.0245,-0.29483 0.10988,-0.58151 0.17406,-0.87032 0.0849,-0.38207 0.1325,-0.72094 0.34813,-1.04439 0.091,-0.13654 0.23208,-0.23208 0.34813,-0.34812 0.058,-0.058 0.10067,-0.13738 0.17406,-0.17407 0.0519,-0.026 0.11902,0.0183 0.17407,0 0.12308,-0.041 0.22091,-0.14862 0.34813,-0.17406 0.28447,-0.0569 0.58021,0 0.87032,0 0.46417,0 0.92835,0 1.39252,0 0.34812,0 0.69625,0 1.04438,0 0.48833,0 0.58617,-0.055 1.04439,0.17406 0.0734,0.0367 0.11604,0.11604 0.17406,0.17407 0.11605,0.11604 0.23209,0.23208 0.34813,0.34812 0.058,0.058 0.11605,0.11605 0.17407,0.17407 0.058,0.058 0.13737,0.10067 0.17406,0.17406 0.026,0.0519 -0.041,0.13304 0,0.17407 0.36015,0.36015 -0.0141,-0.55035 0.34813,0.17406 0.026,0.0519 -0.0322,0.12579 0,0.17407 0.46457,0.69685 0.38074,-0.0599 0.69626,1.04438 0.0478,0.16737 -0.0422,0.35333 0,0.5222 0.0199,0.0796 0.14812,0.0962 0.17407,0.17406 0.0266,0.0797 0,0.77317 0,0.87032 0,0.58022 0,1.16044 0,1.74065 0,0.0991 0.003,1.56491 0,1.56658 -0.10379,0.0519 -0.23556,-0.0281 -0.34813,0 -0.45853,0.11463 -0.75993,0.58163 -1.21846,0.69626 -0.11257,0.0281 -0.23803,-0.0367 -0.34813,0 -0.0778,0.026 -0.10067,0.13737 -0.17406,0.17407 -0.10379,0.0519 -0.23804,-0.0367 -0.34813,0 -0.12308,0.041 -0.22505,0.13303 -0.34813,0.17406 -0.10955,0.0365 -0.71342,0 -0.87032,0"
       id="path2999"
       inkscape:connector-curvature="0" />
    <path
       style="fill:none;stroke:#000000;stroke-width:0.09614346px;stroke-linecap:butt;stroke-linejoin:miter;stroke-opacity:1"
       d="m 180.93115,757.69481 c -0.23208,-0.11604 -0.46417,-0.23208 -0.69626,-0.34813 -0.058,-0.058 -0.10579,-0.12855 -0.17406,-0.17407 -0.87934,-0.58622 -0.004,-0.002 -0.52219,-0.17406 -0.12308,-0.041 -0.23209,-0.11604 -0.34813,-0.17407 -0.97573,-0.48786 -0.45534,-0.25175 -1.56658,-0.69625 -0.29011,-0.11605 -0.57105,-0.25835 -0.87032,-0.34813 -0.28338,-0.085 -0.58152,-0.10989 -0.87033,-0.17407 -0.46706,-0.10379 -0.91775,-0.28878 -1.39252,-0.34813 -0.23029,-0.0288 -0.4697,0.0504 -0.69626,0 -0.30501,-0.0678 -0.57667,-0.24135 -0.87032,-0.34812 -0.34486,-0.12541 -0.68838,-0.25913 -1.04438,-0.34813 -0.11258,-0.0281 -0.23805,0.0367 -0.34813,0 -0.0778,-0.026 -0.0962,-0.14812 -0.17407,-0.17407 -0.11008,-0.0367 -0.23209,0 -0.34813,0 -0.45899,0 -0.93352,0 -1.39251,0 -0.29011,0 -0.58022,0 -0.87032,0 -0.17407,0 -0.37107,-0.0864 -0.5222,0 -0.70911,0.40521 -0.87495,1.17133 -1.39252,1.74065 -0.30482,0.33531 -0.75742,0.51959 -1.04439,0.87032 -0.24646,0.30124 -0.33581,0.70269 -0.52219,1.04439 -0.46839,0.85871 -0.88557,1.36161 -1.39251,2.26284 -0.25443,0.45231 -0.45204,0.93461 -0.69626,1.39251 -0.22014,0.41275 -0.47448,0.80658 -0.69626,1.21846 -0.18453,0.34269 -0.33581,0.70269 -0.52219,1.04438 -0.52727,0.96666 -0.46939,0.66449 -0.87032,1.56658 -0.39385,0.44795 -0.30536,1.06065 -0.52219,1.56658 -0.11232,0.26207 -0.44546,0.56336 -0.5222,0.87033 -0.0281,0.11257 0.0519,0.24434 0,0.34813 -0.12974,0.25948 -0.36844,0.45024 -0.52219,0.69626 -0.13753,0.22004 -0.21061,0.47622 -0.34813,0.69625 -0.15376,0.24601 -0.36844,0.45025 -0.5222,0.69626 -0.13752,0.22004 -0.19244,0.48868 -0.34813,0.69626 -0.006,0.008 -1.37834,1.37633 -1.39251,1.39252 -0.19104,0.21832 -0.33339,0.47599 -0.52219,0.69625 -0.16021,0.18691 -0.34814,0.34813 -0.5222,0.5222 -0.23209,0.23208 -0.46417,0.46417 -0.69626,0.69625 -0.52219,0.5222 -1.04438,1.04439 -1.56658,1.56659 -0.11604,0.11604 -0.22205,0.24307 -0.34813,0.34813 -0.55457,0.46214 -0.92836,0.67969 -1.56658,1.04439 -0.47625,0.27214 -0.27594,0.11037 -0.87032,0.34812 -0.12046,0.0482 -0.23209,0.11605 -0.34813,0.17407 -0.17407,0.058 -0.35184,0.10592 -0.52219,0.17406 -0.12047,0.0482 -0.23688,0.10732 -0.34814,0.17407 -0.17938,0.10763 -0.32631,0.27467 -0.52219,0.34813 -0.27701,0.10388 -0.58694,0.089 -0.87032,0.17406 -0.29928,0.0898 -0.57776,0.23842 -0.87032,0.34813 -0.1718,0.0644 -0.35184,0.10592 -0.5222,0.17406 -0.24092,0.0964 -0.44452,0.2852 -0.69625,0.34813 -0.11258,0.0281 -0.23555,-0.0281 -0.34813,0 -0.12587,0.0315 -0.22226,0.1426 -0.34813,0.17407 -0.11258,0.0281 -0.23555,-0.0281 -0.34813,0 -1.24045,0.31011 1.02854,0.089 -1.04439,0.34813 -0.23029,0.0288 -0.46559,-0.0256 -0.69626,0 -0.29404,0.0326 -0.57594,0.14462 -0.87032,0.17406 -0.46187,0.0462 -0.92834,0 -1.39252,0 -0.17406,0 -0.34813,0 -0.52219,0 -0.058,0 -0.17407,0.058 -0.17407,0 0,-0.058 0.11605,0 0.17407,0"
       id="path3001"
       inkscape:connector-curvature="0" />
    <path
       style="fill:none;stroke:#000000;stroke-width:0.09614346px;stroke-linecap:butt;stroke-linejoin:miter;stroke-opacity:1"
       d="m 138.11128,769.00901 c 0.61871,-0.12375 0.85727,-0.13404 1.39251,-0.34813 0.12046,-0.0482 0.22767,-0.12588 0.34813,-0.17407 0.17036,-0.0681 0.35355,-0.10179 0.52219,-0.17406 0.2385,-0.10222 0.45915,-0.24275 0.69626,-0.34813 0.28553,-0.1269 0.59719,-0.19639 0.87032,-0.34813 2.31348,-1.28527 -0.34944,0.0589 1.04439,-0.87033 0.2159,-0.14393 0.48867,-0.19244 0.69626,-0.34813 0.26258,-0.19692 0.45094,-0.47819 0.69626,-0.69625 0.27767,-0.24683 0.59073,-0.45161 0.87032,-0.69626 0.79212,-0.69311 0.29814,-0.3656 1.04439,-1.21845 0.21613,-0.24701 0.4782,-0.45095 0.69626,-0.69626 0.56313,-0.63352 0.81881,-1.00797 1.21845,-1.74064 0.18638,-0.3417 0.31323,-0.71602 0.52219,-1.04439 0.18619,-0.29258 1.42589,-1.72126 1.56658,-1.91472 0.199,-0.2736 0.34813,-0.58021 0.5222,-0.87032 0.29011,-0.40615 0.566,-0.82284 0.87032,-1.21845 0.2763,-0.35918 0.59035,-0.68805 0.87033,-1.04439 0.35846,-0.45623 0.67294,-0.94678 1.04438,-1.39251 0.21013,-0.25215 0.49476,-0.43718 0.69626,-0.69626 0.41542,-0.53411 0.65636,-1.18632 1.04439,-1.74064 0.21305,-0.30437 0.47058,-0.57521 0.69625,-0.87033 0.52868,-0.69135 0.93282,-1.49228 1.56659,-2.08877 0.3779,-0.35568 0.95598,-0.41563 1.39251,-0.69626 0.38119,-0.24505 0.69053,-0.58723 1.04439,-0.87032 0.22654,-0.18123 0.46972,-0.34097 0.69626,-0.5222 0.0641,-0.0512 0.10579,-0.12855 0.17406,-0.17406 0.45628,-0.30419 0.30419,-0.0651 0.87032,-0.34813 1.59409,-0.79704 -1.15757,0.16476 1.74065,-0.87032 1.87344,-0.66909 0.54726,-0.0861 2.4369,-0.5222 0.35756,-0.0825 0.68242,-0.2878 1.04439,-0.34813 0.34339,-0.0572 0.69626,0 1.04439,0 0.52219,0 1.04438,0 1.56658,0 0.72174,0 1.36703,0 2.08877,0 0.40615,0 0.84355,-0.15621 1.21845,0 0.37872,0.1578 0.55279,0.61053 0.87032,0.87033 0.32383,0.26494 0.67017,0.50914 1.04439,0.69625 0.32822,0.16412 0.72742,0.16323 1.04439,0.34813 0.39143,0.22834 0.69366,0.58337 1.04439,0.87033 0.28754,0.23526 0.59073,0.45161 0.87032,0.69625 0.37052,0.32421 0.65994,0.73683 1.04439,1.04439 0.10131,0.0811 0.24434,0.0962 0.34813,0.17406 0.13129,0.0985 0.21684,0.24967 0.34813,0.34813 0.74022,0.55517 -0.0698,-0.43188 0.87032,0.69626 0.13392,0.16071 0.28198,0.32373 0.34813,0.52219 0.055,0.16514 -0.12308,0.39912 0,0.5222 0.12308,0.12308 0.34813,0 0.52219,0 0.97172,0 1.63839,-0.0504 2.61097,0.17407 0.30446,0.0702 0.57105,0.25834 0.87033,0.34813 0.28337,0.085 0.58694,0.089 0.87032,0.17406 0.29928,0.0898 0.56531,0.28035 0.87032,0.34813 0.22656,0.0504 0.46559,-0.0256 0.69626,0 0.29404,0.0326 0.57628,0.14139 0.87032,0.17406 0.23067,0.0257 0.46417,0 0.69626,0 0.63824,0 1.27647,0 1.91471,0 0.11604,0 0.23208,0 0.34813,0 0.11604,0 0.23555,-0.0281 0.34812,0 0.12587,0.0315 0.22768,0.12588 0.34813,0.17407 0.17036,0.0681 0.35184,0.10592 0.5222,0.17406 0.12046,0.0482 0.22226,0.1426 0.34813,0.17407 0.11257,0.0281 0.23555,-0.0281 0.34813,0 0.12586,0.0315 0.22504,0.13303 0.34813,0.17406 0.055,0.0183 0.12216,-0.026 0.17406,0 0.0734,0.0367 0.10067,0.13737 0.17407,0.17407 0.0519,0.0259 0.12216,-0.026 0.17406,0 0.0734,0.0367 0.10067,0.13736 0.17407,0.17406 0.0519,0.026 0.11902,-0.0183 0.17406,0 0.12308,0.041 0.23548,0.10969 0.34813,0.17407 0.29374,0.16785 0.58882,0.33452 0.87032,0.52219 0.23653,0.15769 0.90707,0.71463 1.21845,0.87032 0.16412,0.0821 0.34813,0.11604 0.5222,0.17407 0.17406,0.058 0.34577,0.12365 0.52219,0.17406 0.23003,0.0657 0.48855,0.0554 0.69626,0.17406 0.21373,0.12214 0.33529,0.36199 0.52219,0.5222 0.22027,0.1888 0.46019,0.35357 0.69626,0.52219 0.34047,0.24319 0.68561,0.481 1.04439,0.69626 0.11125,0.0668 0.24018,0.1021 0.34813,0.17406 0.13655,0.091 0.23208,0.23209 0.34813,0.34813 0.23208,0.23209 0.46417,0.46418 0.69626,0.69626 0.11604,0.11605 0.21158,0.2571 0.34813,0.34813 0.10794,0.072 0.25639,0.0823 0.34812,0.17406 0.041,0.041 -0.026,0.12217 0,0.17407 0.0367,0.0734 0.11605,0.11604 0.17407,0.17407 0.21959,0.21959 0.51438,0.45375 0.69626,0.69626 0.0778,0.10379 0.0823,0.25638 0.17406,0.34812 0.041,0.041 0.13304,-0.041 0.17406,0 0.041,0.041 -0.0259,0.12217 0,0.17407 0.0734,0.14678 0.27474,0.20134 0.34813,0.34813 0.026,0.0519 -0.041,0.13303 0,0.17406 0.041,0.041 0.13304,-0.041 0.17407,0 0.041,0.041 -0.041,0.13304 0,0.17407 0.041,0.041 0.13304,-0.041 0.17406,0 0.041,0.041 -0.026,0.12216 0,0.17406 0.0367,0.0734 0.13737,0.10067 0.17407,0.17407 0.0259,0.0519 -0.041,0.13303 0,0.17406 0.23208,0.23208 0.17406,-0.29011 0.17406,0.17406"
       id="path3003"
       inkscape:connector-curvature="0" />
    <path
       style="fill:none;stroke:#000000;stroke-width:0.09614346px;stroke-linecap:butt;stroke-linejoin:miter;stroke-opacity:1"
       d="m 181.10522,757.86887 c 0.11604,0.23209 0.13555,0.54746 0.34813,0.69626 0.40612,0.28429 0.92222,0.36543 1.39251,0.5222 0.74868,0.24955 1.52832,0.40769 2.26284,0.69626 2.32256,0.91242 2.37195,1.0591 4.17755,2.26283 0.39364,0.26242 1.32826,0.85761 1.74065,1.21845 0.24701,0.21614 0.46417,0.46417 0.69625,0.69626 0.17407,0.17407 0.362,0.3353 0.5222,0.5222 0.1888,0.22026 0.33339,0.47599 0.5222,0.69625 0.16019,0.18691 0.37911,0.32189 0.52219,0.5222 0.004,0.006 0.6868,1.37596 0.69626,1.39251 0.36728,0.64274 0.40934,0.45335 0.69625,1.21846 0.168,0.44799 0.19683,0.93861 0.34813,1.39251 0.041,0.12309 0.13304,0.22505 0.17407,0.34813 0.0183,0.055 -0.026,0.12217 0,0.17407 0.0367,0.0734 0.12483,0.10842 0.17406,0.17406 0.12552,0.16736 0.23209,0.34813 0.34813,0.5222 0.29011,0.34812 0.58723,0.69052 0.87032,1.04438 0.18123,0.22654 0.3334,0.476 0.5222,0.69626 0.11342,0.13233 1.02432,1.06315 1.21845,1.21845 0.16335,0.13069 0.34813,0.23209 0.52219,0.34813 0.3065,0.20433 0.5358,0.38838 0.87032,0.52219 0.17036,0.0682 0.35809,0.092 0.5222,0.17407 0.0734,0.0367 0.0979,0.14359 0.17407,0.17406 0.22211,0.0889 0.46623,0.10835 0.69625,0.17407 0.17642,0.0504 0.34121,0.1439 0.5222,0.17406 0.17169,0.0286 0.34813,0 0.52219,0 0.58021,0 1.16043,0 1.74064,0"
       id="path3005"
       inkscape:connector-curvature="0" />
    <path
       style="fill:none;stroke:#000000;stroke-width:0.09614346px;stroke-linecap:butt;stroke-linejoin:miter;stroke-opacity:1"
       d="m 175.01296,773.01249 c -0.17407,0.23209 -0.39245,0.43678 -0.5222,0.69626 -0.0136,0.0272 0,0.82166 0,0.87032 0,0.58021 0,1.16043 0,1.74065 0,0.40615 0,0.8123 0,1.21845 0,0.058 -0.041,0.13303 0,0.17406 0.041,0.041 0.17407,-0.058 0.17407,0 0,0.058 -0.23208,0 -0.17407,0 0.34813,0 0.69627,0 1.04439,0 0.0784,0 0.46922,0.0265 0.5222,0 0.0734,-0.0367 0.11604,-0.11604 0.17406,-0.17406 0.058,-0.058 0.13737,-0.10067 0.17407,-0.17406 0.0519,-0.1038 -0.0519,-0.24434 0,-0.34813 0.0367,-0.0734 0.13736,-0.10068 0.17406,-0.17407 0.0463,-0.0926 -0.0463,-0.25549 0,-0.34813 0.0367,-0.0734 0.13737,-0.10067 0.17407,-0.17406 0.0696,-0.13926 -0.0696,-0.38295 0,-0.52219 0.0367,-0.0734 0.13736,-0.10068 0.17406,-0.17407 0.0225,-0.045 0,-0.92101 0,-1.04439"
       id="path3007"
       inkscape:connector-curvature="0" />
    <path
       style="fill:none;stroke:#000000;stroke-width:0.16760489px;stroke-linecap:butt;stroke-linejoin:miter;stroke-opacity:1"
       d="m 154.27358,775.55081 c -2.39512,0 -4.79025,0 -7.18538,0 -6.58659,0 -13.17319,0 -19.75979,0 -2.19553,0 -4.39106,0 -6.58659,0 -0.16707,0 -3.71836,0 -1.79635,0 0.99797,-0.19959 1.99594,-0.39919 2.99391,-0.59878 0.19959,-0.1996 0.34631,-0.47255 0.59878,-0.59878 0.17852,-0.0893 0.42026,0.0893 0.59878,0 0.50494,-0.25247 0.662,-1.01904 1.19757,-1.19756 0.3787,-0.12624 0.81886,0.12623 1.19756,0 0.53557,-0.17853 0.69263,-0.9451 1.19756,-1.19757 0.17853,-0.0893 0.45765,0.14114 0.59878,0 0.14114,-0.14113 -0.14113,-0.45765 0,-0.59878 0.14114,-0.14113 0.42026,0.0893 0.59879,0 0.25246,-0.12624 0.36392,-0.44221 0.59878,-0.59878 0.37135,-0.24756 0.82621,-0.35121 1.19756,-0.59878 1.09561,-0.73041 0.0597,-0.76341 1.79635,-1.19756 0.53458,-0.13365 2.3008,0 2.9939,0 2.19553,0 4.39107,0 6.5866,0"
       id="path2992"
       inkscape:connector-curvature="0" />
    <path
       style="fill:none;stroke:#000000;stroke-width:0.16760489px;stroke-linecap:butt;stroke-linejoin:miter;stroke-opacity:1"
       d="m 169.24312,742.61783 c 0,-3.51803 -0.329,-4.29489 1.19756,-7.78417 0.82367,-1.88265 2.11422,-3.5319 2.99391,-5.38903 0.92026,-1.94276 1.38351,-4.09103 2.39513,-5.98781 0.16414,-0.30777 2.63269,-3.47148 3.59269,-4.19148 0.35704,-0.26778 0.79837,-0.39919 1.19756,-0.59878 0.39919,-0.19959 0.75733,-0.52541 1.19757,-0.59878 0.7875,-0.13125 1.59674,0 2.39512,0 0.79838,0 1.59675,0 2.39512,0 0.14986,0 5.22341,0 5.98782,0 1.19756,0 2.39513,0 3.59269,0 0.50142,0 2.53855,0.11384 2.99391,0 0.43298,-0.10824 0.84052,-0.331 1.19756,-0.59878 0.45163,-0.33872 0.76387,-0.83616 1.19757,-1.19756 0.76666,-0.63889 1.68945,-1.09068 2.39512,-1.79635 0.70567,-0.70567 1.14688,-1.63741 1.79635,-2.39512 0.55109,-0.64295 1.25423,-1.14582 1.79634,-1.79635 0.46071,-0.55285 0.79838,-1.19756 1.19756,-1.79635 0.7871,-1.18064 1.60803,-2.41204 2.39513,-3.59268 0.39919,-0.59879 0.748,-1.2344 1.19757,-1.79635 0.52899,-0.66124 1.32662,-1.09176 1.79634,-1.79634 0.19959,-0.39919 0.39919,-0.79838 0.59878,-1.19757 0.19959,0 0.45765,0.14114 0.59878,0 0.79838,-0.79837 -0.99797,-0.59878 0.59878,-0.59878"
       id="path2994"
       inkscape:connector-curvature="0" />
    <path
       style="fill:none;stroke:#000000;stroke-width:0.16760489px;stroke-linecap:butt;stroke-linejoin:miter;stroke-opacity:1"
       d="m 197.38585,753.99468 c 0.11769,-3.48136 -0.40748,-7.42385 0.59879,-10.77808 0.64122,-2.13741 2.03862,-3.9711 2.9939,-5.98781 0.84152,-1.77654 1.64666,-3.57133 2.39513,-5.38903 0.64931,-1.57689 0.88079,-3.35154 1.79635,-4.79026 0.53578,-0.84195 1.62846,-1.15746 2.39512,-1.79634 0.43369,-0.36141 0.72784,-0.88441 1.19756,-1.19757 0.0892,-0.0595 1.59971,0 1.79635,0 1.99594,0 3.99188,0 5.98782,0 0.19959,0 0.39918,0 0.59877,0 0.1996,0 0.45766,0.14114 0.59879,0 0.50887,-0.50886 0.87573,-1.15267 1.19756,-1.79634 0.28227,-0.56454 0.36437,-1.21032 0.59878,-1.79634 0.33151,-0.82877 0.98107,-1.52917 1.19757,-2.39513 0.0968,-0.38727 -0.0783,-0.80613 0,-1.19756 -0.13741,-1.20244 0.93687,-1.95116 1.19756,-2.99391 0.0968,-0.38727 -0.12623,-0.81886 0,-1.19757 0.0893,-0.26778 0.47255,-0.34631 0.59878,-0.59877 0.16109,-0.32218 -0.16109,-0.8754 0,-1.19757 0.12623,-0.25247 0.47255,-0.34631 0.59878,-0.59878 0.39919,-0.79838 -0.59878,-0.59878 0.59878,-0.59878"
       id="path2996"
       inkscape:connector-curvature="0" />
    <path
       style="fill:none;stroke:#000000;stroke-width:0.16760489px;stroke-linecap:butt;stroke-linejoin:miter;stroke-opacity:1"
       d="m 204.57123,762.9764 c 1.52082,0.51115 2.36804,-0.8914 3.5927,-1.19757 0.38726,-0.0968 0.81885,0.12624 1.19756,0 0.26778,-0.0892 0.39918,-0.39918 0.59878,-0.59878 3.66879,-3.66879 -0.19471,0.32696 4.19147,-4.79025 0.3674,-0.42863 0.88441,-0.72784 1.19756,-1.19756 0.49513,-0.7427 0.75471,-1.62013 1.19757,-2.39513 0.35704,-0.62483 0.87572,-1.15267 1.19756,-1.79634 0.56453,-1.12907 0.7003,-2.43242 1.19756,-3.5927 0.35162,-0.82043 0.84595,-1.57468 1.19756,-2.39512 0.24864,-0.58014 0.31652,-1.23181 0.59879,-1.79635 1.37019,-2.74038 -0.24818,2.54088 1.19756,-1.79634 0.75963,-2.2789 0.33259,-2.17319 1.19756,-4.19147 0.35162,-0.82044 0.84595,-1.57469 1.19756,-2.39513 0.58426,-1.36326 0.42659,-1.83744 1.19757,-2.9939 0.15657,-0.23487 0.47255,-0.34632 0.59878,-0.59879 0.17852,-0.35704 -0.12623,-0.81886 0,-1.19756 1.69625,-3.39251 -0.22315,0.89261 0.59878,-2.39513 0.10825,-0.43298 0.45765,-0.77415 0.59878,-1.19756 0.12624,-0.3787 0,-0.79837 0,-1.19756"
       id="path2998"
       inkscape:connector-curvature="0" />
    <path
       style="fill:none;stroke:#000000;stroke-width:0.16760489px;stroke-linecap:butt;stroke-linejoin:miter;stroke-opacity:1"
       d="m 202.77489,777.34716 c 1.99594,0 3.99187,0 5.98781,0 1.19757,0 2.39513,0 3.5927,0 0.59877,0 1.22828,0.18934 1.79634,0 0.26778,-0.0893 0.39919,-0.39919 0.59878,-0.59879 0.19959,-0.19959 0.39919,-0.39918 0.59878,-0.59878 0.59878,-0.59878 1.19757,-1.19756 1.79634,-1.79634 0.1996,-0.1996 0.44221,-0.36392 0.59879,-0.59878 0.24757,-0.37135 0.28319,-0.88198 0.59878,-1.19757 0.31559,-0.31558 0.88198,-0.28319 1.19756,-0.59878 0.31559,-0.31559 0.2832,-0.88198 0.59878,-1.19756 0.31559,-0.31559 0.88198,-0.2832 1.19757,-0.59878 0.50886,-0.50887 0.748,-1.2344 1.19756,-1.79635 0.35266,-0.44083 0.85884,-0.74593 1.19756,-1.19756 0.26779,-0.35705 0.35122,-0.82621 0.59878,-1.19756 0.15658,-0.23487 0.50953,-0.331 0.59879,-0.59879 0.12623,-0.3787 -0.0968,-0.81029 0,-1.19756 0.72287,-2.89148 0.28455,0.0297 1.19756,-1.79634 0.0893,-0.17853 -0.14113,-0.45765 0,-0.59879 0.14114,-0.14113 0.45765,0.14114 0.59878,0 0.14114,-0.14113 -0.14113,-0.45764 0,-0.59878 0.14114,-0.14113 0.45765,0.14114 0.59878,0 0.14114,-0.14113 -0.14113,-0.45764 0,-0.59878 0.14114,-0.14113 0.39919,0 0.59879,0 1.19756,0 2.39512,0 3.59269,0"
       id="path3000"
       inkscape:connector-curvature="0" />
    <path
       style="fill:none;stroke:#000000;stroke-width:0.16760489px;stroke-linecap:butt;stroke-linejoin:miter;stroke-opacity:1"
       d="m 217.14564,695.31408 c 0,-7.58457 0,-15.16913 0,-22.7537 0,-1.19756 0,-2.39513 0,-3.59269 0,-0.19959 0,-0.39919 0,-0.59878 0,-0.1996 0.14114,-0.45765 0,-0.59878 -0.14113,-0.14113 -0.45764,0.14113 -0.59877,0 -0.14114,-0.14113 0,-0.39919 0,-0.59879 0,-0.19959 0,-0.39918 0,-0.59877"
       id="path3002"
       inkscape:connector-curvature="0" />
    <path
       style="fill:none;stroke:#000000;stroke-width:0.51913249px;stroke-linecap:butt;stroke-linejoin:miter;stroke-opacity:1"
       d="m 215.67168,664.02092 c 0,-29.09242 0,-58.18483 0,-87.27724 0,-5.81849 0,-11.63697 0,-17.45545 0,-2.3274 0,-4.65479 0,-6.98218 0,-0.58185 0,-1.1637 0,-1.74555 0,-0.29092 0.13011,-0.61256 0,-0.87277 -0.18399,-0.36799 -0.64455,-0.53044 -0.87277,-0.87277 -1.92286,-0.43952 -0.46134,-1.79546 -0.87277,-2.61832 -0.184,-0.368 -0.68878,-0.50478 -0.87278,-0.87277 -0.11808,-0.23618 0,-4.86069 0,-5.23664 0,-4.36386 0,-8.72772 0,-13.09159 0,-6.98217 0,-13.96435 0,-20.94653 0,-9.89142 0,-19.78284 0,-29.67426 0,-1.1637 0,-2.3274 0,-3.4911 0,-0.29092 0.20572,-0.66705 0,-0.87277 -0.20571,-0.20571 -0.58184,0 -0.87277,0 -1.74554,0 -3.49108,0 -5.23663,0 -4.94571,0 -9.89142,0 -14.83714,0 -1.45461,0 -3.0628,0.65053 -4.36385,0 -4.02816,-2.01407 -3.69551,-3.41243 -5.23664,-6.1094 -0.1275,-0.22314 -2.94321,-4.6484 -3.49109,-6.10941 -0.64605,-1.72282 -1.16369,-3.49109 -1.74554,-5.23664 -0.29093,-0.87277 -0.69236,-1.7162 -0.87277,-2.61832 -0.28763,-1.43811 0.84766,-3.50364 -0.87278,-4.36385 -2.74809,-1.37405 -5.66167,-2.31172 -8.72772,-2.61832 -1.44741,-0.14474 -2.90924,0 -4.36387,0 -1.16369,0 -2.32738,0 -3.49108,0 -2.61832,0 -5.23664,0 -7.85495,0 -0.87277,0 -1.74555,0 -2.61832,0 -0.87277,0 -1.75742,0.14348 -2.61832,0 -2.23288,-0.37215 -4.08609,-1.75119 -6.1094,-2.61832 -0.8456,-0.3624 -1.79546,-0.46134 -2.61832,-0.87277 -2.20199,-1.101 -2.74029,-1.86752 -4.36386,-3.49109 -0.29093,-0.29092 -0.68878,-0.50478 -0.87278,-0.87277 -0.1301,-0.26021 0.13011,-0.61256 0,-0.87277 -0.4691,-0.93821 -1.16369,-1.74555 -1.74554,-2.61832 -1.96479,-2.94719 -2.32648,-3.10016 -3.49109,-6.98218 -1.6345,-5.44834 0.36506,-3.12603 -1.74555,-5.23663"
       id="path3004"
       inkscape:connector-curvature="0" />
    <path
       style="fill:none;stroke:#000000;stroke-width:0.51913249px;stroke-linecap:butt;stroke-linejoin:miter;stroke-opacity:1"
       d="m 170.28751,392.5887 c 1.1637,1.16369 2.17453,2.50366 3.4911,3.49109 1.04084,0.78063 2.27675,1.27849 3.49109,1.74554 2.57598,0.99076 5.16072,2.0196 7.85495,2.61832 2.57169,0.57149 5.24086,0.54601 7.85495,0.87277 2.04126,0.25516 4.08544,0.50478 6.10941,0.87277 2.29055,0.41647 7.14789,1.5163 8.72772,3.49109 0.0878,0.10976 1.59746,4.94048 1.74555,5.23664 0.46909,0.9382 1.44413,1.61361 1.74554,2.61831 0.59112,1.97039 0.58185,4.07294 0.87277,6.10941 0.29093,2.03647 0.68653,4.06071 0.87277,6.10941 0.10536,1.15892 -0.19131,2.34322 0,3.49109 0.10695,0.64167 0.66706,1.1284 0.87278,1.74555 0.25152,0.75455 -0.27768,3.80849 0,4.36385 0.86844,1.73688 3.80985,1.90493 5.23664,2.61832 0.73598,0.36799 1.00955,1.37755 1.74554,1.74554 0.26021,0.13011 0.66706,-0.20571 0.87277,0 0.20571,0.20572 -0.20571,0.66706 0,0.87277 0.20571,0.20572 0.66706,-0.20571 0.87277,0 0.20571,0.20572 -0.20571,0.66706 0,0.87278 0.41143,0.41143 1.22512,-0.26021 1.74555,0 0.36799,0.184 0.50478,0.68878 0.87277,0.87277 1.1637,0.58185 0.87277,-0.87277 0.87277,0.87277"
       id="path3006"
       inkscape:connector-curvature="0" />
    <path
       style="fill:none;stroke:#000000;stroke-width:0.51913249px;stroke-linecap:butt;stroke-linejoin:miter;stroke-opacity:1"
       d="m 268.03803,384.73374 c -0.27291,3.41513 -2.26728,5.66821 -3.49109,8.72773 -6.1113,15.27824 2.23326,-3.75633 -3.49109,9.6005 -0.51251,1.19585 -1.07616,2.37544 -1.74554,3.49108 -0.53968,0.89947 -1.27645,1.68012 -1.74555,2.61832 -3.855,7.71001 -1.04717,5.09681 -6.98218,12.21882 -1.31695,1.58034 -2.90924,2.90924 -4.36386,4.36386 -0.87278,0.87277 -1.6545,1.84726 -2.61832,2.61832 -1.01595,0.81276 -2.40855,1.02385 -3.49109,1.74554 -0.34233,0.22822 -0.54363,0.62592 -0.87277,0.87278 -1.67831,1.25873 -3.55833,2.23235 -5.23664,3.49108 -0.96744,0.72558 -1.61318,1.94823 -2.61831,2.61832 -1.08255,0.72169 -2.40855,1.02384 -3.49109,1.74554 -0.29093,0.29092 -0.58185,0.58185 -0.87278,0.87277 0,0.29093 0.20572,0.66706 0,0.87277 -0.20571,0.20572 -0.66705,-0.20571 -0.87277,0 -0.20571,0.20572 0.20572,0.66706 0,0.87278 -1.1637,1.16369 -0.87277,-1.45462 -0.87277,0.87277"
       id="path3008"
       inkscape:connector-curvature="0" />
    <path
       style="fill:none;stroke:#000000;stroke-width:0.51913249px;stroke-linecap:butt;stroke-linejoin:miter;stroke-opacity:1"
       d="m 291.60289,393.46147 c 0.29092,1.1637 0.58185,2.32739 0.87277,3.49109 0,0.29092 -0.0571,0.5875 0,0.87277 0.23524,1.17622 0.72399,2.30084 0.87277,3.49109 0.25259,2.02074 0,4.07294 0,6.10941 0,3.20016 0,6.40033 0,9.60049 0,0.87278 0,1.74555 0,2.61832 0,1.1637 0.33439,2.37647 0,3.49109 -1.68927,5.63091 -2.64242,4.76545 -6.10941,8.72773 -7.83741,8.95703 2.21041,-1.33764 -5.23663,6.1094 -0.58185,0.58185 -1.08726,1.25183 -1.74555,1.74554 -1.04084,0.78063 -2.5711,0.82556 -3.49109,1.74555 -0.20571,0.20571 0.20572,0.66705 0,0.87277 -0.20571,0.20571 -0.58185,0 -0.87277,0 -0.29092,0 -0.58185,0 -0.87277,0 -0.81938,0 -3.86377,-0.1667 -4.36386,0 -0.39032,0.13011 -0.68878,0.50478 -0.87278,0.87277 -0.1328,0.26562 0,2.22526 0,2.61832 17.45545,0 34.9109,0 52.36635,0 2.61832,0 5.23664,0 7.85495,0 2.32739,0 4.76073,0.6942 6.98218,0 4.79969,-1.4999 9.89441,-7.03016 13.09159,-10.47327 1.82509,-1.96549 3.71709,-3.89916 5.23663,-6.1094 4.68454,-6.81388 4.67379,-8.73415 6.98218,-16.58268 0.59762,-2.0319 1.23187,-4.05468 1.74555,-6.10941 0.14112,-0.56447 -0.26021,-1.22512 0,-1.74554 0.184,-0.36799 0.74267,-0.48246 0.87277,-0.87277 0.16038,-0.48114 0,-4.49596 0,-5.23664 0,-0.29092 -0.20572,-0.66706 0,-0.87277 0.20572,-0.20571 0.58185,0 0.87277,0 1.45463,0 2.90925,0 4.36387,0"
       id="path3010"
       inkscape:connector-curvature="0" />
    <path
       style="fill:none;stroke:#000000;stroke-width:0.51913249px;stroke-linecap:butt;stroke-linejoin:miter;stroke-opacity:1"
       d="m 417.28212,403.93474 c -6.34911,5.07928 -3.60923,2.09754 -8.72773,10.47326 -2.65371,4.34244 -5.33005,8.67302 -7.85495,13.09159 -0.6455,1.12963 -0.96491,2.45025 -1.74554,3.4911 -0.49372,0.65828 -1.23152,1.103 -1.74555,1.74554 -1.31054,1.63817 -2.32739,3.49109 -3.49109,5.23663 -1.1451,1.71765 -1.83291,3.12023 -3.49109,4.36386 -0.52042,0.39032 -1.20427,0.51193 -1.74554,0.87277 -0.34233,0.22822 -0.50478,0.68878 -0.87278,0.87277 -0.26021,0.13011 -0.61256,-0.1301 -0.87277,0 -0.36799,0.184 -0.51997,0.6611 -0.87277,0.87278 -1.11564,0.66938 -2.43238,0.98932 -3.49109,1.74554 -2.06141,1.47244 -2.05029,2.9127 -4.36386,3.49109 -0.0292,0.007 -2.61368,-0.005 -2.61832,0 -0.20572,0.20571 0,0.58185 0,0.87277 -2.51814,13.84978 -0.33324,5.45681 -5.23663,18.32823 -1.21223,3.1821 -2.16969,6.46216 -3.49109,9.6005 -1.00977,2.39818 -2.557,4.55351 -3.4911,6.98217 -0.53251,1.38455 -0.51298,2.92473 -0.87277,4.36387 -0.51368,2.05472 -1.23186,4.05468 -1.74554,6.1094 -0.85081,3.40323 -1.25291,7.02485 -1.74555,10.47327 -0.29092,2.03647 -0.64559,4.06484 -0.87277,6.10941 -0.15519,1.39674 0,2.94889 0,4.36386 2.61832,-0.58185 5.42806,-0.60348 7.85495,-1.74555 2.63234,-1.23874 4.49978,-3.71961 6.98218,-5.23663 31.17287,-19.05008 -14.30804,11.04577 17.45545,-9.60049 2.97747,-1.93536 5.81848,-4.07295 8.72773,-6.10942 2.90924,-2.03646 5.94046,-3.90893 8.72772,-6.1094 2.7496,-2.17073 5.16373,-4.73949 7.85495,-6.98218 2.54823,-2.12352 5.41384,-3.86358 7.85495,-6.10941 4.84453,-4.45697 9.30958,-9.30957 13.96436,-13.96436 2.03647,-2.03646 3.99317,-4.15595 6.10941,-6.1094 1.66961,-1.54119 3.7978,-2.60529 5.23663,-4.36387 1.23582,-1.51043 1.56299,-3.595 2.61832,-5.23663 1.57319,-2.44719 3.55892,-4.60542 5.23664,-6.98218 1.81472,-2.57086 3.52165,-5.21652 5.23663,-7.85494 6.66369,-10.25184 2.68152,-7.88656 7.85495,-10.47327"
       id="path3012"
       inkscape:connector-curvature="0" />
    <path
       style="fill:none;stroke:#000000;stroke-width:0.51913249px;stroke-linecap:butt;stroke-linejoin:miter;stroke-opacity:1"
       d="m 446.08361,490.33921 c -0.58185,1.16369 -0.99944,2.42522 -1.74555,3.49108 -1.30301,1.86146 -3.05353,3.38033 -4.36386,5.23664 -2.18747,3.09891 -4.04216,6.42012 -6.10941,9.6005 -4.78461,7.36093 -4.87109,7.34318 -9.60049,13.96436 -1.45462,2.03646 -2.83799,4.12576 -4.36386,6.1094 -1.38539,1.801 -2.97849,3.43565 -4.36387,5.23664 -1.52587,1.98364 -2.66638,4.27047 -4.36386,6.1094 -1.81928,1.97088 -4.35276,3.20974 -6.10941,5.23664 -2.06095,2.37802 -3.34854,5.33749 -5.23663,7.85495 -1.27815,1.7042 -6.42601,7.6824 -8.72773,9.6005 -0.49974,0.41645 -1.20427,0.51192 -1.74554,0.87277 -0.34233,0.22822 -0.54363,0.62592 -0.87277,0.87277 -0.83916,0.62936 -1.74555,1.1637 -2.61832,1.74555 -0.87278,0.58184 -1.70758,1.22512 -2.61832,1.74554 -1.12963,0.6455 -2.37544,1.07616 -3.49109,1.74554 -0.35279,0.21169 -0.50478,0.68878 -0.87277,0.87278 -0.26562,0.1328 -2.22526,0 -2.61832,0 -2.32739,0 -4.65479,0 -6.98218,0 -0.29092,0 -0.58184,0 -0.87277,0 -0.29092,0 -0.66706,-0.20572 -0.87277,0 -0.20572,0.20571 0.20571,0.66706 0,0.87277 -0.29002,0.29002 -1.45553,-0.29002 -1.74555,0 -0.20571,0.20572 0,0.58185 0,0.87277 0,0.29093 0,0.58185 0,0.87278 0,1.1637 0,2.32739 0,3.49109 0,2.32739 0,4.65478 0,6.98218 0,16.58267 0,33.16535 0,49.74802 0,4.36387 0,8.72773 0,13.09159 0,6.40033 0.8845,12.86207 0,19.20099 -0.87808,6.29292 -3.73966,12.15321 -5.23663,18.32823 -0.83385,3.43961 -0.83362,7.05352 -1.74555,10.47326 -0.27027,1.01353 -1.27644,1.68012 -1.74554,2.61832 -0.26021,0.52042 0.14112,1.18107 0,1.74555 -2.46163,7.38487 0.0157,-0.9672 -0.87277,4.36386 -0.1972,1.18319 -0.70314,2.30363 -0.87278,3.49109 -0.12343,0.864 0,1.74554 0,2.61832 0,0.29092 0.20572,0.66705 0,0.87277 -0.20571,0.20571 -0.87277,0.29092 -0.87277,0 0,-0.29093 0.87277,-0.29093 0.87277,0 0,0.29092 -0.58184,0 -0.87277,0 1.1637,1.45462 2.10646,3.1177 3.49109,4.36386 1.55935,1.40341 3.625,2.14806 5.23663,3.49109 1.89642,1.58034 3.4911,3.49109 5.23664,5.23664 1.45462,1.45462 3.12957,2.71814 4.36386,4.36386 0.0791,0.10548 1.61756,4.98067 1.74555,5.23663 0.9382,1.8764 2.63906,3.31957 3.49109,5.23664 1.49456,3.36276 1.84537,7.18184 3.49109,10.47326 0.65052,1.30106 1.77283,2.30742 2.61831,3.4911 0.60969,0.85356 1.11618,1.77916 1.74555,2.61832 0.24686,0.32914 0.48246,0.74266 0.87277,0.87277 0.55199,0.18399 1.19356,-0.184 1.74555,0 0.39031,0.1301 0.50478,0.68877 0.87277,0.87277 0.82285,0.41143 1.78079,0.49208 2.61832,0.87277 2.36886,1.07676 4.57607,2.50034 6.98218,3.49109 2.55206,1.05085 5.27896,1.62755 7.85495,2.61832 1.21433,0.46705 2.2568,1.33411 3.49109,1.74554 0.55199,0.184 1.1637,0 1.74554,0 0.87277,0 1.74555,0 2.61832,0 0.83604,0 5.67334,0 6.10941,0 0.58185,0 1.16369,0 1.74554,0 0.29093,0 0.66706,-0.20571 0.87277,0 0.20572,0.20572 0,0.58185 0,0.87278"
       id="path3014"
       inkscape:connector-curvature="0" />
    <path
       style="fill:none;stroke:#000000;stroke-width:0.51913249px;stroke-linecap:butt;stroke-linejoin:miter;stroke-opacity:1"
       d="m 397.20835,784.46352 c -2.38776,-2.201 -4.85977,-4.03857 -7.85495,-5.23664 -0.85418,-0.34167 -1.76413,-0.5311 -2.61832,-0.87277 -1.20799,-0.4832 -2.29523,-1.23304 -3.49109,-1.74554 -1.44,-0.61715 -2.93221,-1.10927 -4.36386,-1.74555 -1.18892,-0.52841 -2.25681,-1.33411 -3.49109,-1.74555 -2.81461,-0.9382 -5.84945,-1.02597 -8.72772,-1.74554 -0.89252,-0.22313 -1.71086,-0.72153 -2.61832,-0.87277 -0.8609,-0.14349 -1.75742,0.14348 -2.61832,0 -0.90747,-0.15125 -1.70758,-0.74267 -2.61832,-0.87278 -1.152,-0.16457 -2.32739,0 -3.49109,0 -1.74554,0 -3.49109,0 -5.23663,0 -1.1637,0 -2.33909,0.16457 -3.49109,0 -1.38789,-0.19826 -5.2811,-1.99708 -6.10941,-2.61831 -2.49758,-1.87319 -5.07858,-5.52833 -6.98218,-7.85496 -1.43883,-1.75857 -2.92503,-3.47805 -4.36386,-5.23663 -1.17961,-1.44175 -2.34743,-2.89344 -3.49109,-4.36386 -2.02202,-2.59974 -3.9046,-5.40518 -6.10941,-7.85495 -2.75231,-3.05813 -5.81848,-5.81849 -8.72772,-8.72773 -1.54942,-1.54942 -2.8458,-2.8458 -4.36386,-4.36386 -1.58704,-1.58704 -3.02272,-3.62589 -5.23664,-4.36386 -0.50557,-0.16853 -2.73476,0 -3.49109,0 2.72857,4.5476 2.85664,3.65212 3.49109,8.72772 0.10826,0.86603 -0.14348,1.75742 0,2.61832 0.15125,0.90747 0.72153,1.71085 0.87278,2.61832 0.14348,0.86089 0,1.74554 0,2.61831 0,0.87278 0,1.74555 0,2.61832 0,3.78202 0,7.56403 0,11.34605 0,1.16369 -0.12851,2.3345 0,3.49108 0.16381,1.47436 0.66298,2.89535 0.87277,4.36386 0.0823,0.57601 -0.14112,1.18108 0,1.74555 0.15777,0.6311 0.58185,1.1637 0.87277,1.74555 0.852,1.704 1.30182,2.78406 2.61832,4.36386 0.79017,0.9482 1.74554,1.74554 2.61831,2.61831 1.74555,1.74555 3.49109,3.4911 5.23664,5.23664 0.58185,0.58185 1.1637,1.1637 1.74554,1.74554 0.58185,0.58185 1.32219,1.03996 1.74555,1.74555 0.47333,0.78888 0.46134,1.79546 0.87277,2.61832 0.36799,0.73598 1.37755,1.00956 1.74554,1.74554 1.28421,2.5684 -2.02185,-1.14907 0.87278,1.74555"
       id="path3016"
       inkscape:connector-curvature="0" />
    <path
       style="fill:none;stroke:#000000;stroke-width:0.51913249px;stroke-linecap:butt;stroke-linejoin:miter;stroke-opacity:1"
       d="m 300.33061,786.20906 c 0,-2.03647 0,-4.07294 0,-6.10941 0,-0.87277 0.21168,-1.7716 0,-2.61831 -0.37997,-1.5199 -1.1637,-2.90924 -1.74555,-4.36387 -2.22874,-5.57186 -1.0449,-2.96258 -3.49108,-7.85495 -0.58185,-1.16369 -1.05599,-2.3878 -1.74555,-3.49109 -0.77095,-1.23351 -1.77283,-2.30741 -2.61832,-3.49109 -1.32127,-1.84978 -1.69472,-3.01658 -3.49109,-4.36386 -0.52042,-0.39032 -1.16369,-0.58185 -1.74554,-0.87277 -0.58185,-0.29093 -1.12841,-0.66706 -1.74554,-0.87277 -2.27592,-0.75864 -4.67547,-1.08649 -6.98219,-1.74555 -2.20469,-0.62991 -3.63943,-1.02111 -5.23663,-2.61832 -0.29092,-0.29092 -0.68878,-0.50477 -0.87277,-0.87277 -0.13011,-0.26021 0.1301,-0.61256 0,-0.87277 -4.18714,-8.37428 0.74941,4.80488 -2.61832,-6.98218 0.52604,-1.57967 -1.41384,-1.62321 -1.74555,-2.61832 -0.18399,-0.55199 0.184,-1.19355 0,-1.74554 -0.1301,-0.39032 -0.74266,-0.48246 -0.87277,-0.87277 -0.18399,-0.552 0.2161,-1.20532 0,-1.74555 -1.99176,-4.97941 -1.34753,-0.55151 -2.61831,-4.36386 -3.63285,-10.89855 1.98374,3.09471 -2.61832,-6.10941 -1.28421,-2.5684 2.02185,1.14908 -0.87277,-1.74555"
       id="path3018"
       inkscape:connector-curvature="0" />
    <path
       style="fill:none;stroke:#000000;stroke-width:1px;stroke-linecap:butt;stroke-linejoin:miter;stroke-opacity:1"
       d="m 95.775501,425.26069 c 2.280369,-3.04049 4.153666,-6.43404 6.841109,-9.12148 4.30662,-4.30662 4.30454,-1.07613 9.12147,-2.28037 1.64894,-0.41223 2.89406,-1.94703 4.56074,-2.28037 2.23609,-0.44721 4.56074,0 6.84111,0 2.28037,0 4.56074,0 6.84111,0 0.55305,0 6.76777,0.0733 6.8411,0 1.20186,-1.20186 1.68357,-2.96927 2.28037,-4.56073 1.68801,-4.50135 3.17933,-9.07753 4.56074,-13.68222 0.76012,-3.04049 1.52025,-6.08098 2.28037,-9.12147 0.76012,-1.52025 1.74288,-2.94828 2.28037,-4.56074 0.48074,-1.44223 -1.07498,-3.48576 0,-4.56074 0.53749,-0.53749 1.52025,0 2.28037,0 6.84111,0 13.68221,0 20.52332,0 49.408,0 98.81599,0 148.22399,0 7.60123,0 15.20246,0 22.80369,0 1.19245,0 8.52187,-0.2998 9.12148,0 0.96148,0.48074 1.31888,1.79962 2.28037,2.28037 0.67987,0.33994 1.74288,-0.53749 2.28036,0 0.53749,0.53749 -0.33993,1.60049 0,2.28037 0.48075,0.96149 1.94044,1.26055 2.28037,2.28037 0.48075,1.44223 -0.36871,3.08588 0,4.56073 0.41224,1.64894 1.86814,2.9118 2.28037,4.56074 0.0191,0.0762 -0.0121,6.829 0,6.84111 0.53749,0.53749 1.52025,0 2.28037,0 6.08099,0 12.16197,0 18.24295,0 4.56074,0 9.12148,0 13.68222,0 1.52025,0 3.08588,-0.36871 4.56074,0 12.00594,3.00148 1.58993,2.28037 13.68221,2.28037 6.08099,0 12.16197,0 18.24295,0 0.76013,0 1.74289,-0.53749 2.28037,0 0.53749,0.53749 -0.33993,1.60049 0,2.28037 0.48075,0.96149 1.79963,1.31888 2.28037,2.28037 0.33994,0.67987 -0.53749,1.74288 0,2.28037 0.53749,0.53748 1.52025,0 2.28037,0 5.32086,0 10.64172,0 15.96258,0 0.76013,0 1.52025,0 2.28037,0 0.76013,0 1.74288,-0.53749 2.28037,0 0.53749,0.53748 0,1.52024 0,2.28037 0,9.88159 0,19.76319 0,29.64479 0,3.80062 0,7.60123 0,11.40185 0,0.76012 -0.53749,1.74288 0,2.28037 0.53749,0.53749 1.52025,0 2.28037,0 0.76013,0 1.52025,0 2.28037,0 3.04049,0 6.08099,0 9.12148,0 0.76012,0 1.74288,-0.53749 2.28037,0 1.20186,1.20186 2.00094,2.88417 2.28037,4.56074 0.49985,2.99912 0,6.08098 0,9.12147 0,0.55305 0.0733,6.76777 0,6.84111 -4.52552,4.52552 -0.72075,-10.79924 -4.56074,4.56074 -0.10322,0.41288 0.14197,11.25987 0,11.40184 -0.50851,0.50851 -10.04569,-0.45205 -11.40185,0 -1.01981,0.33994 -1.52024,1.52025 -2.28037,2.28037 -0.76012,0.76012 -2.06955,1.22627 -2.28037,2.28037 -0.59629,2.98145 0,6.08098 0,9.12148 0,2.28037 0,4.56074 0,6.8411 0,3.0405 0,6.08099 0,9.12148 0,2.28037 -1.01981,4.80148 0,6.84111 4.68446,9.36891 13.57737,8.50639 22.80369,9.12147 6.06752,0.4045 12.16197,0 18.24296,0 15.20246,0 30.40492,0 45.60738,0 3.80061,0 7.60123,0 11.40184,0 0.76013,0 1.94044,0.67988 2.28037,0 0.67988,-1.35975 0,-3.04049 0,-4.56073 0,-3.0405 0,-6.08099 0,-9.12148 0,-6.08098 0,-12.16197 0,-18.24295 0,-22.80369 0,-45.60738 0,-68.41108 0,-5.32086 0,-10.64172 0,-15.96258 0,-3.26313 1.07498,-5.16343 -2.28037,-6.84111 -1.43326,-0.71663 -7.68821,0.71664 -9.12147,0 -0.96149,-0.48074 -1.31888,-1.79962 -2.28037,-2.28036 -2.14995,-1.07498 -4.56074,-1.52025 -6.84111,-2.28037 -4.56074,-1.52025 -9.21862,-2.7753 -13.68221,-4.56074 -3.15624,-1.2625 -5.8236,-3.73627 -9.12148,-4.56074 -17.3328,0 -2.76186,1.35975 -13.68221,-2.28037 -0.72112,-0.24037 -1.94044,0.67988 -2.28037,0 -0.67988,-1.35975 0,-3.04049 0,-4.56074 0,-9.8816 0,-19.7632 0,-29.6448 0,-2.28036 0,-4.56073 0,-6.8411 0,-0.76013 0.67987,-1.94043 0,-2.28037 -1.35975,-0.67988 -3.0405,0 -4.56074,0 -2.28037,0 -4.56074,0 -6.84111,0 -2.1108,0 -13.04845,0 -15.96258,0 -2.28037,0 -4.64848,0.62646 -6.84111,0 -9.93994,-2.83998 -8.67774,-5.15769 -15.96258,-11.40185 -7.37773,-6.32376 -12.58637,-9.94223 -22.80369,-11.40184 -6.01987,-0.85998 -12.16197,0 -18.24296,0 -8.36135,0 -16.7227,0 -25.08406,0 -4.56073,0 -9.12147,0 -13.68221,0 -0.76012,0 -1.74288,0.53749 -2.28037,0 -0.70611,-0.70611 0.70611,-10.69574 0,-11.40185 -0.53749,-0.53749 -1.52024,0 -2.28037,0 -4.56074,0 -9.12147,0 -13.68221,0 -6.08099,0 -12.16197,0 -18.24295,0 -6.08099,0 -12.20362,-0.71051 -18.24296,0 -6.95999,0.81882 -13.72457,2.86105 -20.52332,4.56074 -5.36855,1.34214 -10.56058,3.36029 -15.96258,4.56074 -0.58172,0.12927 -10.31377,0.36269 -11.40185,0 -1.61246,-0.53749 -2.86803,-2.12649 -4.56074,-2.28037 -6.81301,-0.61937 -13.68221,0 -20.52332,0 -4.56074,0 -9.12147,0 -13.68221,0 -22.04357,0 -44.08714,0 -66.13071,0 -2.28036,0 -4.56073,0 -6.8411,0 -0.76013,0 -1.52025,0 -2.28037,0 -0.76012,0 -1.74288,0.53749 -2.28037,0 -1.20186,-1.20186 -1.26056,-3.20099 -2.28037,-4.56074 -3.1639,-4.21853 -5.98313,-6.16377 -11.40184,-6.84111 -7.89532,-0.98691 -18.31271,0.0465 -25.08406,4.56074 -5.36661,3.57774 -10.104482,8.31561 -13.682219,13.68222 -4.152676,6.22901 -6.023605,13.708 -9.121476,20.52332 -0.703336,1.54734 -1.078509,3.35888 -2.280369,4.56074 -0.537489,0.53748 -1.742881,-0.53749 -2.28037,0 -0.537488,0.53748 0,1.52024 0,2.28037 0,0.76012 0,1.52024 0,2.28036 0,5.32087 0,10.64173 0,15.96259 0,2.28037 0.65526,4.65691 0,6.84111 -1.663435,5.54478 -3.710702,11.09306 -6.841107,15.96258 -10.589923,16.47321 -11.094248,13.04582 -22.80369,22.80369 -1.65164,1.37637 -3.040493,3.04049 -4.560739,4.56074 -0.760123,0.76012 -1.799625,1.31888 -2.280369,2.28037 -0.339937,0.67987 0,1.52024 0,2.28037 0,1.76132 -0.537488,3.99716 2.280369,4.56073 2.981448,0.59629 6.080985,0 9.121477,0 9.121476,0 18.242952,0 27.364429,0 3.040492,0 6.971523,2.14996 9.121476,0 2.740662,-2.74066 -1.107762,-9.51955 2.280369,-11.40184 5.315739,-2.95319 12.192149,0.60508 18.242949,0 5.24062,-2.62031 2.86105,-2.28037 6.84111,-2.28037"
       id="path3285"
       inkscape:connector-curvature="0" />
    <path
       style="fill:none;stroke:#000000;stroke-width:1px;stroke-linecap:butt;stroke-linejoin:miter;stroke-opacity:1"
       d="m 524.48489,694.34424 c 16.18577,-13.48815 10.98646,-7.61011 22.80369,-22.80369 2.33335,-3.00003 4.3677,-6.23584 6.8411,-9.12148 3.49793,-4.08091 7.60123,-7.60123 11.40185,-11.40184 0.76012,-0.76013 1.52025,-1.52025 2.28037,-2.28037 0.76012,-0.76013 1.94043,-1.26056 2.28037,-2.28037 0.48074,-1.44223 -0.56461,-3.14923 0,-4.56074 1.01785,-2.54464 3.33507,-4.38978 4.56074,-6.84111 1.07497,-2.14995 1.38765,-4.60931 2.28036,-6.8411 0.63125,-1.57812 1.86814,-2.9118 2.28037,-4.56074 0.50897,-2.03588 0,-8.76226 0,-11.40185 0,-9.12147 0,-18.24295 0,-27.36443 0,-4.56073 0,-9.12147 0,-13.68221 0,-1.52025 -0.24992,-3.06118 0,-4.56074 5.66754,-34.00522 -0.86141,11.1482 4.56074,-15.96258 0.5137,-2.56849 0,-6.37721 0,-9.12148 0,-6.84111 0,-13.68221 0,-20.52332 0,-2.89364 -0.4748,-6.27265 0,-9.12148 0.63719,-3.82314 1.64318,-7.5787 2.28037,-11.40184 0.88363,-5.30175 1.57001,-10.63485 2.28037,-15.96259 0.80994,-6.07455 1.72554,-12.13981 2.28037,-18.24295 0.34409,-3.785 0,-7.60123 0,-11.40184 0,-8.36136 0,-16.72271 0,-25.08406 0,-0.55305 0.0733,-6.76777 0,-6.84111 -1.20186,-1.20186 -3.14651,-1.33755 -4.56074,-2.28037 -0.89443,-0.59629 -1.31888,-1.79962 -2.28037,-2.28037 -0.67987,-0.33994 -1.60049,0.33994 -2.28037,0 -0.96149,-0.48074 -1.52024,-1.52024 -2.28037,-2.28037 -0.76012,-0.76012 -1.52024,-1.52024 -2.28037,-2.28037 -2.87692,-2.87692 -6.73874,-5.94449 -9.12147,-9.12147 -2.76928,-3.69238 -1.07334,-4.51618 -4.56074,-6.84111 -1.41422,-0.94282 -3.04049,-1.52025 -4.56074,-2.28037 -1.52024,-0.76012 -2.94827,-1.74288 -4.56074,-2.28037 -0.72111,-0.24037 -1.74288,0.53749 -2.28037,0 -0.53748,-0.53749 0.53749,-1.74288 0,-2.28037 -0.53748,-0.53749 -1.74288,0.53749 -2.28036,0 -0.53749,-0.53749 0,-1.52024 0,-2.28037 0,-2.28037 0,-4.56073 0,-6.8411 0,-8.36136 0,-16.72271 0,-25.08406 0,-0.54189 0.25555,-8.61038 0,-9.12148 -0.48075,-0.96149 -1.52025,-1.52025 -2.28037,-2.28037 -0.76013,-0.76012 -1.31888,-1.79962 -2.28037,-2.28037 -0.67988,-0.33994 -1.6005,0.33994 -2.28037,0 -0.96149,-0.48074 -1.31888,-1.79962 -2.28037,-2.28037 -0.67988,-0.33993 -1.52025,0 -2.28037,0 -2.73013,0 -7.14798,0.67988 -9.12148,-2.28037 -6.65668,-9.98502 -3.45996,-13.81357 -6.8411,-25.08406 -0.97681,-3.25601 -3.22166,-5.99695 -4.56074,-9.12147 -0.94687,-2.20937 -1.20539,-4.69116 -2.28037,-6.84111 -0.48074,-0.96149 -1.79963,-1.31888 -2.28037,-2.28037 -0.67987,-1.35975 1.07498,-3.48576 0,-4.56074 -0.53749,-0.53748 -1.74288,0.53749 -2.28037,0 -0.53749,-0.53748 0.33994,-1.60049 0,-2.28037 -0.48074,-0.96148 -1.68408,-1.38593 -2.28037,-2.28036 -0.94281,-1.41423 -1.33755,-3.14652 -2.28037,-4.56074 -0.59629,-0.89444 -1.79962,-1.31888 -2.28037,-2.28037 -0.33993,-0.67988 0,-1.52025 0,-2.28037"
       id="path3287"
       inkscape:connector-curvature="0" />
    <path
       style="fill:none;stroke:#000000;stroke-width:1px;stroke-linecap:butt;stroke-linejoin:miter;stroke-opacity:1"
       d="m 542.72784,279.31707 c 4.2651,0.26002 12.12576,-1.55645 15.96258,2.28037 1.57156,1.57156 5.16901,11.17406 6.84111,13.68221 6.41387,9.6208 -3.91352,-12.38777 6.84111,9.12148 0.33993,0.67987 -0.24038,1.55925 0,2.28037 5.50588,16.51766 -0.65744,-3.59525 4.56073,6.8411 0.33994,0.67988 -0.33993,1.6005 0,2.28037 0.48075,0.96149 1.94044,1.26056 2.28037,2.28037 0.48075,1.44223 -0.48074,3.11851 0,4.56074 0.33994,1.01981 1.52025,1.52025 2.28037,2.28037 0,1.52025 -0.36871,3.08588 0,4.56074 2.75295,11.01177 1.08368,-0.11302 4.56074,6.8411 0.33994,0.67988 -0.33994,1.6005 0,2.28037 0.48074,0.96149 1.94043,1.26056 2.28037,2.28037 0.48074,1.44224 -0.48074,3.11851 0,4.56074 0.33994,1.01981 1.94043,1.26056 2.28037,2.28037 0.48074,1.44223 -0.48075,3.11851 0,4.56074 0.33994,1.01981 1.94043,1.26056 2.28037,2.28037 0.96149,2.88446 -0.96149,6.23701 0,9.12147 0.33994,1.01982 1.79962,1.31888 2.28037,2.28037 0.33993,0.67988 0,1.52025 0,2.28037 0,2.7836 -0.88488,5.25849 2.28037,6.84111 0.67987,0.33994 2.28037,-0.76012 2.28037,0 0,0.76012 -2.28037,0.76012 -2.28037,0 0,-2.40372 1.80896,-4.48407 2.28037,-6.84111 0.29814,-1.49072 0,-3.04049 0,-4.56074 0,-3.02381 0,-6.09766 0,-9.12147 0,-24.81734 -1.20186,-0.83181 2.28036,-18.24296 0.5137,-2.56848 0,-6.3772 0,-9.12147 0,-5.32086 0,-10.64172 0,-15.96258 0,-17.48283 0,-34.96566 0,-52.44849"
       id="path3289"
       inkscape:connector-curvature="0" />
    <path
       style="fill:none;stroke:#000000;stroke-width:1px;stroke-linecap:butt;stroke-linejoin:miter;stroke-opacity:1"
       d="m 659.02666,270.19559 c 0,11.40185 0,22.80369 0,34.20554 0,15.20246 0,30.40492 0,45.60738 0,3.04049 0,6.08098 0,9.12148 0,0.76012 0,1.52024 0,2.28036 0,0.76013 0.76012,2.28037 0,2.28037 -0.76012,0 0,-3.04049 0,-2.28037 0,1.52025 -1.07498,3.48577 0,4.56074 0.76012,0.76013 1.63538,-1.42039 2.28037,-2.28037 1.6444,-2.19253 2.77714,-4.76024 4.56074,-6.8411 2.79834,-3.26473 6.28997,-5.88547 9.12147,-9.12148 14.9792,-17.11908 0.0502,-1.77308 11.40185,-15.96258 1.34306,-1.67883 3.04049,-3.0405 4.56074,-4.56074 0.76012,-0.76012 1.79962,-1.31888 2.28037,-2.28037 0.33993,-0.67988 -0.33994,-1.60049 0,-2.28037 0.96149,-1.92298 3.59925,-2.63776 4.56074,-4.56074 0.33993,-0.67987 -0.53749,-1.74288 0,-2.28037 1.07497,-1.07497 3.20098,0.67988 4.56073,0 0.96149,-0.48074 1.31888,-1.79962 2.28037,-2.28037 0.67988,-0.33993 1.52025,0 2.28037,0 0.76012,0 1.52025,0 2.28037,0"
       id="path3291"
       inkscape:connector-curvature="0" />
    <path
       style="fill:none;stroke:#000000;stroke-width:1px;stroke-linecap:butt;stroke-linejoin:miter;stroke-opacity:1"
       d="m 709.19478,400.17663 c 0,3.04049 1.35975,6.40198 0,9.12148 -1.92298,3.84595 -6.32313,5.85674 -9.12148,9.12147 -1.7836,2.08087 -2.84866,4.70101 -4.56073,6.84111 -1.34307,1.67883 -3.36816,2.77187 -4.56074,4.56074 -0.66201,0.99301 0.60185,5.6374 0,6.8411 -0.48075,0.96149 -1.94043,1.26056 -2.28037,2.28037 -0.48075,1.44224 0,3.0405 0,4.56074 0,1.52025 0,3.04049 0,4.56074 0,2.28037 0.72111,4.67776 0,6.84111 -0.86667,2.60002 -3.15068,4.491 -4.56074,6.8411 -0.76012,1.52025 -1.52025,3.0405 -2.28037,4.56074 0,0.76012 0.33994,1.6005 0,2.28037 -0.48074,0.96149 -1.79962,1.31888 -2.28037,2.28037 -0.33993,0.67987 0.53749,1.74288 0,2.28037 -0.53749,0.53749 -1.55925,-0.24037 -2.28037,0 -1.61246,0.53749 -3.20099,1.26056 -4.56073,2.28037 -1.71997,1.28997 -3.0405,3.04049 -4.56074,4.56074 -2.28037,2.28037 -4.77656,4.36364 -6.84111,6.8411 -1.75453,2.10544 -2.84866,4.70101 -4.56074,6.84111 -1.34306,1.67883 -3.04049,3.04049 -4.56074,4.56074 -0.76012,0.76012 -1.79962,1.31888 -2.28037,2.28037 -0.40725,0.8145 0,13.15438 0,13.68221 0,6.84111 0,13.68222 0,20.52332 0,12.16197 0,24.32394 0,36.48591 0,4.56074 0,9.12148 0,13.68221 0,2.01051 -0.48575,4.89807 0,6.84111 0.58299,2.33195 1.52025,4.56074 2.28037,6.84111 0.76013,2.28037 1.38765,4.60931 2.28037,6.84111 1.8872,4.718 4.95391,8.9642 6.84111,13.68221 0.11821,0.29552 4.51568,13.60712 4.56074,13.68221 2.21228,3.68714 6.54153,5.68156 9.12147,9.12148 1.01982,1.35975 1.33756,3.14651 2.28037,4.56074 1.93537,2.90305 7.01408,6.31161 9.12148,9.12147 1.01981,1.35975 1.33755,3.14652 2.28037,4.56074 1.19258,1.78887 3.59925,2.63776 4.56074,4.56074 0.33993,0.67988 -0.33994,1.6005 0,2.28037 0.48074,0.96149 1.79962,1.31888 2.28037,2.28037 0.33993,0.67987 -0.33994,1.60049 0,2.28037 0.48074,0.96149 1.79962,1.31888 2.28037,2.28037 0.60535,1.21071 -0.60536,3.35002 0,4.56074 0.48074,0.96148 1.79962,1.31888 2.28036,2.28036 0.60536,1.21072 -0.60535,3.35003 0,4.56074 4.87284,9.74567 0.92243,-14.06637 4.56074,11.40185 0.3225,2.25745 -0.55307,4.62882 0,6.84111 0.26072,1.04288 1.94043,1.26055 2.28037,2.28036 0.003,0.0103 -0.002,6.83893 0,6.84111 3.04049,3.04049 2.28037,-3.80061 2.28037,2.28037"
       id="path3293"
       inkscape:connector-curvature="0" />
    <path
       style="fill:none;stroke:#000000;stroke-width:1px;stroke-linecap:butt;stroke-linejoin:miter;stroke-opacity:1"
       d="m 456.07381,222.30784 c 13.79178,-6.06329 -10.44668,10.07664 -6.8411,13.68222 1.20186,1.20186 3.14651,1.33755 4.56073,2.28036 0.89444,0.59629 1.31889,1.79963 2.28037,2.28037 1.35975,0.67988 3.48577,-1.07497 4.56074,0 0.53749,0.53749 0,1.52025 0,2.28037 0,1.52025 0,3.0405 0,4.56074 0,9.8816 0,19.7632 0,29.6448 0,0.55305 -0.0733,6.76777 0,6.84111 0.0918,0.0918 8.28404,0 9.12148,0 3.80061,0 7.60123,0 11.40184,0 1.52025,0 3.29582,0.84328 4.56074,0 1.41423,-0.94282 1.33755,-3.14652 2.28037,-4.56074 1.3839,-2.07586 5.83052,-4.81993 6.84111,-6.84111 0.33994,-0.67987 -0.53749,-1.74288 0,-2.28037 0.53749,-0.53749 1.60049,0.33994 2.28037,0 0.96149,-0.48074 1.31888,-1.79962 2.28037,-2.28037 0.67987,-0.33993 1.74288,0.53749 2.28037,0 0.53748,-0.53749 -0.33994,-1.60049 0,-2.28037 4.74517,-9.49035 -0.15743,2.4378 4.56073,-2.28037 0.53749,-0.53748 -0.53748,-1.74288 0,-2.28036 0.53749,-0.53749 1.52025,0 2.28037,0 0.76013,0 2.28037,-0.76013 2.28037,0 0,0.76012 -3.04049,0 -2.28037,0 3.10121,0 7.36726,-1.22807 9.12148,2.28036 1.57272,3.14545 -2.76165,2.03973 2.28037,4.56074 0.67987,0.33994 1.52024,0 2.28037,0 0.76012,0 1.52024,0 2.28037,0 3.80061,0 7.60123,0 11.40184,0 0.55305,0 6.76777,0.0733 6.84111,0 2.50123,-2.50123 4.0453,-11.87817 4.56074,-13.68221 0.66035,-2.31124 1.62001,-4.52987 2.28037,-6.84111 0.86099,-3.01348 1.28929,-6.14824 2.28036,-9.12148 0.89288,-2.67862 3.66787,-6.44285 4.56074,-9.12147 0.94364,-2.8309 -1.87198,-2.48456 2.28037,-4.56074 0.19439,-0.0972 8.92709,-0.0972 9.12148,0 0.96149,0.48074 1.79962,1.31888 2.28037,2.28037 0.33993,0.67987 -0.53749,1.74288 0,2.28037 0.53749,0.53749 1.74288,-0.53749 2.28037,0 0.53748,0.53749 -0.33994,1.60049 0,2.28037 0.60895,1.21791 5.64057,5.64057 6.8411,6.8411 1.52025,1.52025 3.0405,3.0405 4.56074,4.56074 0.76012,0 1.6005,-0.33993 2.28037,0 1.92298,0.96149 2.63776,3.59925 4.56074,4.56074 0.67987,0.33994 1.74288,-0.53749 2.28037,0 0.53749,0.53749 -0.53749,1.74288 0,2.28037 0.0733,0.0733 6.28805,0 6.84111,0 6.78973,0 19.32026,1.56216 25.08405,-2.28037 4.56159,-3.04106 4.48451,-11.36373 9.12148,-13.68221 0.67988,-0.33994 2.28037,-0.76013 2.28037,0 0,0.76012 -3.04049,0 -2.28037,0 1.52025,0 3.04049,0 4.56074,0 0.76012,0 1.74288,-0.53749 2.28037,0 0.53749,0.53748 -0.18436,1.54294 0,2.28037 0.58299,2.33195 1.20539,4.69115 2.28037,6.8411 0.48074,0.96149 1.79962,1.31888 2.28037,2.28037 0.67987,1.35975 -0.67988,3.20099 0,4.56074 0.48074,0.96149 1.79962,1.31888 2.28037,2.28037 0.67987,1.35975 -1.07498,3.48576 0,4.56074 4.71816,4.71816 -0.18444,-7.20998 4.56073,2.28037 0.67988,1.35975 -1.07497,3.48576 0,4.56073 0.53749,0.53749 1.74288,-0.53748 2.28037,0 0.53749,0.53749 -0.53749,1.74289 0,2.28037 0.53749,0.53749 1.74288,-0.53748 2.28037,0 0.53749,0.53749 -0.53749,1.74288 0,2.28037 0.53749,0.53749 1.74288,-0.53749 2.28037,0 1.20186,1.20186 1.07851,3.35888 2.28037,4.56074 0.53749,0.53749 1.60049,-0.33994 2.28037,0 0.96149,0.48074 1.31888,1.79963 2.28037,2.28037 0.69331,0.34666 7.54683,0 9.12147,0 0.98227,0 13.06514,0.30854 13.68222,0 0.96149,-0.48074 1.31888,-1.79963 2.28037,-2.28037 0.58959,-0.29479 12.06588,0 13.68221,0 0.76013,0 1.74288,-0.53749 2.28037,0 0.53749,0.53749 -0.33994,1.6005 0,2.28037 0.48075,0.96149 1.94043,1.26056 2.28037,2.28037 0,10.38089 -1.07498,0.13042 2.28037,6.84111 0.71663,1.43326 -0.71663,7.68821 0,9.12147 0.48074,0.96149 1.79962,1.31888 2.28037,2.28037 0.67987,1.35975 -1.07498,3.48576 0,4.56074 1.07497,1.07498 4.56074,-1.52025 4.56074,0 0,0.76012 -2.28037,0.76012 -2.28037,0 0,-4.62365 1.92575,-9.07219 2.28037,-13.68221 0.69958,-9.09461 0,-18.24296 0,-27.36443 0,-17.48283 0,-34.96566 0,-52.44849 0,-4.56074 0,-9.12148 0,-13.68222 0,-0.54188 0.25555,-8.61037 0,-9.12147 -0.48075,-0.96149 -1.52025,-1.52025 -2.28037,-2.28037 -0.76013,-0.76012 -1.38594,-1.68408 -2.28037,-2.28037 -1.41423,-0.94282 -3.20099,-1.26056 -4.56074,-2.28037 -0.30746,-0.2306 -10.91287,-10.4239 -11.40184,-11.40185 -11.01178,-22.02355 2.9378,4.25269 -2.28037,-11.40184 -0.33994,-1.01981 -1.94044,-1.26056 -2.28037,-2.28037 -0.55006,-1.65019 0.75169,-8.36978 0,-9.12148 -0.53749,-0.53748 -1.74288,0.53749 -2.28037,0 -0.53749,-0.53748 0.53749,-1.74288 0,-2.28037 -0.33535,-0.33534 -6.84111,0.26828 -6.84111,0 0,-0.76012 3.04049,0 2.28037,0 -3.26313,0 -5.16343,-1.07497 -6.84111,2.28037 -1.57272,3.14545 2.76165,2.03973 -2.28037,4.56074 -0.67987,0.33994 -1.74288,-0.53749 -2.28037,0 -0.53748,0.53749 0.53749,1.74288 0,2.28037 -0.53748,0.53749 -1.60049,-0.33994 -2.28036,0 -0.96149,0.48075 -1.31889,1.79963 -2.28037,2.28037 -1.35975,0.67987 -3.11851,-0.48074 -4.56074,0 -1.61247,0.53749 -2.9118,1.86813 -4.56074,2.28037 -1.47486,0.36871 -3.04049,0 -4.56074,0 -3.80061,0 -7.60123,0 -11.40184,0 -5.75559,0 -10.48757,0.45714 -15.96259,-2.28037 -0.96148,-0.48074 -1.38593,-1.68408 -2.28037,-2.28037 -1.41422,-0.94282 -3.14651,-1.33755 -4.56073,-2.28037 -1.78887,-1.19258 -2.63777,-3.59925 -4.56074,-4.56074 -0.46777,-0.23388 -6.51952,-0.32159 -6.84111,0 -1.07498,1.07498 1.07498,3.48577 0,4.56074 -0.53749,0.53749 -1.52025,0 -2.28037,0 -0.76012,0 -1.52024,0 -2.28037,0 -8.20713,0 -6.94235,0.59368 -15.96258,-4.56074 -2.37956,-1.35975 -4.56074,-3.04049 -6.84111,-4.56073 -2.28037,-1.52025 -4.70101,-2.84866 -6.84111,-4.56074 -6.37278,-5.09823 -1.96016,-4.56074 -6.8411,-4.56074 -0.76013,0 -1.52025,0 -2.28037,0 -0.76012,0 -1.85873,-0.63246 -2.28037,0 -1.33334,2.00002 -1.52025,4.56074 -2.28037,6.84111 -0.76012,2.28037 -1.52025,4.56073 -2.28037,6.8411 -1.51544,4.54633 -3.0453,9.13589 -4.56074,13.68222 -0.76012,2.28037 -1.80896,4.48406 -2.28037,6.84111 -3.46029,17.30148 3.52178,-4.76319 -2.28037,6.8411 -0.33993,0.67988 0.53749,1.74288 0,2.28037 -0.53748,0.53749 -1.52024,0 -2.28036,0 -3.80062,0 -7.60123,0 -11.40185,0 -2.28037,0 -4.67776,0.72112 -6.84111,0 -2.60002,-0.86667 -4.56074,-3.04049 -6.8411,-4.56074 -2.28037,-1.52024 -4.38979,-3.33507 -6.84111,-4.56073 -0.41842,-0.20921 -6.84111,0.16736 -6.84111,0 0,-0.76013 3.04049,0 2.28037,0 -1.52025,0 -3.48576,-1.07498 -4.56074,0 -1.07497,1.07497 0.48075,3.1185 0,4.56073 -0.33993,1.01982 -1.79962,1.31888 -2.28037,2.28037 -0.33993,0.67988 0.53749,1.74288 0,2.28037 -0.53748,0.53749 -1.74288,-0.53749 -2.28037,0 -0.53748,0.53749 0.53749,1.74288 0,2.28037 -0.53748,0.53749 -1.52024,0 -2.28036,0 -0.76013,0 -1.52025,0 -2.28037,0 -5.32087,0 -10.64173,0 -15.96259,0 -3.61969,0 -8.68259,-1.1187 -11.40184,2.28037 -0.3374,0.42174 -8.30653,15.79811 -9.12148,18.24295 -0.4426,1.32781 0,12.11316 0,13.68222 0,0.76012 0.33994,1.60049 0,2.28037 -1.98216,3.96431 -4.56074,7.60123 -6.84111,11.40184 z"
       id="path3295"
       inkscape:connector-curvature="0" />
    <path
       style="fill:none;stroke:#000000;stroke-width:1px;stroke-linecap:butt;stroke-linejoin:miter;stroke-opacity:1"
       d="m 362.57868,288.43854 c 0,-15.20246 0,-30.40492 0,-45.60738 0,-20.52332 0,-41.04664 0,-61.56996 0,-6.08099 0,-12.16197 0,-18.24295 0,-1.57465 0.34666,-8.42817 0,-9.12148 -0.48074,-0.96149 -1.52024,-1.52025 -2.28037,-2.28037 -0.76012,-0.76012 -1.31888,-1.79962 -2.28037,-2.28037 -0.67987,-0.33994 -1.60049,0.33994 -2.28037,0 -0.68437,-0.34219 -3.87636,-4.21855 -4.56073,-4.56074 -1.35975,-0.67987 -3.48577,1.07498 -4.56074,0 -0.53749,-0.53749 0.53749,-1.74288 0,-2.28037 -1.07498,-1.07497 -3.20099,0.67988 -4.56074,0 -0.96149,-0.48074 -1.38593,-1.68408 -2.28037,-2.28037 -1.41422,-0.94281 -3.14651,-1.33755 -4.56074,-2.28036 -0.89443,-0.59629 -1.31888,-1.79963 -2.28037,-2.28037 -0.67987,-0.33994 -1.60049,0.33993 -2.28036,0 -7.56304,-7.56304 2.14995,1.07497 -4.56074,-2.28037 -1.92298,-0.96149 -2.63777,-3.59925 -4.56074,-4.56074 -0.67988,-0.33994 -1.6005,0.33994 -2.28037,0 -0.96149,-0.48074 -1.38594,-1.68408 -2.28037,-2.28037 -1.41422,-0.94282 -3.35888,-1.07851 -4.56074,-2.28037 -0.53749,-0.53749 0.53749,-1.74288 0,-2.28037 -0.53749,-0.53749 -1.60049,0.33994 -2.28037,0 -0.96148,-0.48074 -1.31888,-1.79962 -2.28037,-2.28037 -0.67987,-0.33993 -1.74288,0.53749 -2.28036,0 -0.53749,-0.53748 0.53748,-1.74288 0,-2.28037 -2.24954,-2.24953 -4.56074,4.67266 -4.56074,-2.28036"
       id="path3297"
       inkscape:connector-curvature="0" />
    <path
       style="fill:none;stroke:#000000;stroke-width:1px;stroke-linecap:butt;stroke-linejoin:miter;stroke-opacity:1"
       d="m 328.37315,99.167912 c 5.32086,0 10.64172,0 15.96258,0 1.52025,0 3.11851,-0.480744 4.56074,0 2.4451,0.815033 2.11564,3.745708 4.56074,4.560738 10.38089,0 0.13041,-1.07498 6.8411,2.28037 0.90415,0.45207 6.37492,-0.46619 6.84111,0 0.53749,0.53749 -0.53749,1.74288 0,2.28037 0.53749,0.53749 1.60049,-0.33994 2.28037,0 0.60546,0.30273 6.53838,6.23564 6.84111,6.84111 0.33993,0.67987 -0.24038,1.55925 0,2.28036 0.53748,1.61247 1.74288,2.94828 2.28037,4.56074 0.48074,1.44223 -0.67988,3.20099 0,4.56074 0.48074,0.96149 1.94043,1.26056 2.28036,2.28037 0.1895,0.56848 -0.2349,11.16694 0,11.40184 1.07498,1.07498 4.56074,-1.52024 4.56074,0 0,0.76013 -3.04049,0 -2.28037,0 3.0405,0 6.08099,0 9.12148,0 0.76012,0 1.74288,0.53749 2.28037,0 0.53749,-0.53748 -0.33994,-1.60049 0,-2.28036 0.48074,-0.96149 1.68408,-1.38594 2.28037,-2.28037 0.94281,-1.41423 1.52024,-3.0405 2.28037,-4.56074 0.76012,-1.52025 1.74288,-2.94828 2.28037,-4.56074 0.24037,-0.72112 -0.24038,-1.55925 0,-2.28037 0.53748,-1.61246 1.74288,-2.94827 2.28037,-4.56074 0.24037,-0.72111 -0.33994,-1.60049 0,-2.28037 0.48074,-0.96148 1.94043,-1.26055 2.28036,-2.28036 0.72112,-2.16335 0,-4.56074 0,-6.84111 0,-3.04049 0,-6.08099 0,-9.121478 0,-0.760123 -0.76012,-2.280369 0,-2.280369 0.76013,0 0,1.520246 0,2.280369"
       id="path3299"
       inkscape:connector-curvature="0" />
    <path
       style="fill:none;stroke:#000000;stroke-width:1px;stroke-linecap:butt;stroke-linejoin:miter;stroke-opacity:1"
       d="m 428.70939,99.167912 c 0,4.560738 0,9.121478 0,13.682218 0,7.60123 0,15.20246 0,22.80369 0,0.90146 0.48695,10.42793 0,11.40184 -0.48075,0.96149 -1.79963,1.31888 -2.28037,2.28037 -0.33994,0.67988 0.33993,1.6005 0,2.28037 -0.96149,1.92298 -3.59925,2.63776 -4.56074,4.56074 -3.35535,6.71069 5.28266,-3.0023 -2.28037,4.56074 -0.76012,0.76012 -1.52025,3.04049 -2.28037,2.28037 -0.76012,-0.76013 1.79962,-1.31889 2.28037,-2.28037 0.33994,-0.67988 -0.33994,-1.6005 0,-2.28037 0.48074,-0.96149 1.52024,-1.52025 2.28037,-2.28037 3.04049,-3.04049 6.32313,-5.85675 9.12147,-9.12148 3.69566,-4.3116 6.66272,-10.12787 11.40185,-13.68221 1.35975,-1.01981 3.14651,-1.33755 4.56074,-2.28037 1.96773,-1.31182 5.05994,-5.05994 6.8411,-6.84111 0.76013,-0.76012 1.31889,-1.79962 2.28037,-2.28037 0.67988,-0.33993 1.6005,0.33994 2.28037,0 7.56304,-7.56303 -2.14995,1.07498 4.56074,-2.28037 0.96149,-0.48074 1.31888,-1.79962 2.28037,-2.28037 0.67987,-0.33993 1.60049,0.33994 2.28037,0 0.96149,-0.48074 1.31888,-1.79962 2.28037,-2.28036 0.67987,-0.33994 1.60049,0.33993 2.28037,0 0.68437,-0.34219 3.87636,-4.21856 4.56074,-4.56074 3.14544,-1.57272 2.03972,2.76165 4.56073,-2.28037 0,-6.08099 -0.76012,0.76012 2.28037,-2.28037 3.04049,-3.04049 -3.80061,-2.28037 2.28037,-2.28037"
       id="path3301"
       inkscape:connector-curvature="0" />
    <path
       style="fill:none;stroke:#000000;stroke-width:1px;stroke-linecap:butt;stroke-linejoin:miter;stroke-opacity:1"
       d="m 513.08304,131.09308 c -5.52223,11.04445 -2.15702,6.71775 -9.12148,13.68221 -0.76012,0.76013 -1.52024,1.52025 -2.28036,2.28037 -0.76013,0.76013 -1.31889,1.79963 -2.28037,2.28037 -1.35975,0.67988 -3.48577,-1.07498 -4.56074,0 -0.53749,0.53749 0.53749,1.74288 0,2.28037 -1.07498,1.07498 -3.20099,-0.67987 -4.56074,0 -0.96149,0.48074 -1.31888,1.79963 -2.28037,2.28037 -0.67987,0.33994 -1.74288,-0.53749 -2.28037,0 -0.53749,0.53749 0.53749,1.74288 0,2.28037 -1.07497,1.07497 -3.20099,-0.67988 -4.56074,0 -1.92297,0.96149 -2.63776,3.59925 -4.56073,4.56074 -0.67988,0.33993 -1.6005,-0.33994 -2.28037,0 -2.02118,1.01059 -4.76526,5.4572 -6.84111,6.8411 -1.52025,0.76013 -3.04049,1.52025 -4.56074,2.28037 -0.76012,0 -1.60049,-0.33993 -2.28037,0 -0.68437,0.34219 -3.87636,4.21855 -4.56074,4.56074 -0.67987,0.33994 -1.60049,-0.33994 -2.28037,0 -0.96148,0.48074 -1.31888,1.79963 -2.28036,2.28037 -0.67988,0.33994 -1.74289,-0.53749 -2.28037,0 -0.53749,0.53749 0.53748,1.74288 0,2.28037 -0.53749,0.53749 -1.74288,-0.53749 -2.28037,0 -0.53749,0.53749 0.33993,1.60049 0,2.28037 -0.48075,0.96149 -1.79963,1.31888 -2.28037,2.28037 -0.33994,0.67987 0.33994,1.60049 0,2.28037 -0.48075,0.96148 -1.94043,1.26055 -2.28037,2.28037 -0.48074,1.44223 0.48074,3.1185 0,4.56073 -0.33994,1.01982 -1.79963,1.31888 -2.28037,2.28037 -0.67273,1.34547 0.52284,5.2726 0,6.84111 -0.53749,1.61246 -1.74288,2.94827 -2.28037,4.56074 -0.49158,1.47473 0,8.91191 0,11.40184 0,7.60123 0,15.20246 0,22.80369 0,7.60123 0,15.20246 0,22.80369 0,1.58609 0.41233,10.57719 0,11.40185 -0.48074,0.96149 -1.79962,1.31888 -2.28037,2.28037 -0.91215,1.82429 0.91215,5.01681 0,6.84111 -0.48074,0.96148 -1.79962,1.31888 -2.28037,2.28037 -0.34699,0.69399 0,5.81412 0,6.8411 0,4.56074 0,9.12148 0,13.68222 0,0.67585 0,11.37085 0,4.56074"
       id="path3303"
       inkscape:connector-curvature="0" />
    <path
       style="fill:none;stroke:#000000;stroke-width:1px;stroke-linecap:butt;stroke-linejoin:miter;stroke-opacity:1"
       d="m 262.24244,140.21455 c 2.28037,-4.56073 4.77019,-9.02263 6.84111,-13.68221 0.76012,-2.28037 1.52025,-4.56074 2.28037,-6.84111 0,-1.52024 -0.48074,-3.1185 0,-4.56073 0.33994,-1.01982 1.79962,-1.31889 2.28037,-2.28037 1.57272,-3.14545 -2.76165,-2.03973 2.28037,-4.56074 0.69399,-0.347 5.81412,0 6.8411,0 5.32087,0 10.64173,0 15.96259,0 0.76012,0 1.52024,0 2.28037,0 0.76012,0 1.64791,0.42164 2.28037,0 1.78886,-1.19258 3.45459,-2.71717 4.56073,-4.56074 1.23671,-2.06117 1.38765,-4.609309 2.28037,-6.841107 0.63125,-1.57812 1.86814,-2.9118 2.28037,-4.560739 0.36872,-1.474855 -0.67987,-3.200988 0,-4.560738 0.33994,-0.679874 1.74288,0.537488 2.28037,0 0.46619,-0.46619 -0.45207,-5.936959 0,-6.841107 0.48075,-0.961488 1.79963,-1.318881 2.28037,-2.280369 0.67988,-1.359749 -0.67987,-3.200989 0,-4.560738 0.48074,-0.961488 1.79963,-1.318881 2.28037,-2.280369 0.33994,-0.679875 -0.53749,-1.742881 0,-2.280369 0.0569,-0.05691 10.54516,0 11.40185,0 11.40184,0 22.80369,0 34.20553,0 3.80062,0 7.60123,0 11.40185,0 0.76012,0 1.52024,0 2.28037,0 0.76012,0 1.60049,0.339937 2.28036,0 0.96149,-0.480744 1.31889,-1.799625 2.28037,-2.280369 0.1193,-0.05965 6.72181,-0.05965 6.84111,0 4.28956,2.144779 1.43879,4.913576 2.28037,9.121476 0.33334,1.66668 1.74288,2.948274 2.28037,4.560738 0.24037,0.721116 -0.33994,1.600494 0,2.280369 0.48074,0.961488 1.79962,1.318881 2.28037,2.280369 0.91215,1.824296 -0.91215,5.016812 0,6.841107 0.48074,0.961488 1.79962,1.318882 2.28037,2.28037 0.33993,0.679874 -0.53749,1.74288 0,2.280369 0.53749,0.537488 1.52024,0 2.28037,0 0.76012,0 1.52024,0 2.28037,0 2.28036,0 4.8857,1.17324 6.8411,0 2.3501,-1.41006 3.04049,-4.560739 4.56074,-6.841108 3.04049,-4.560738 5.83268,-9.297154 9.12148,-13.682214 0.64498,-0.859981 1.79962,-1.318881 2.28037,-2.280369 0.33993,-0.679875 -0.33994,-1.600494 0,-2.280369 4.74517,-9.49035 -0.15743,2.437796 4.56073,-2.280369 0.53749,-0.537488 -0.53748,-1.742881 0,-2.280369 0.0918,-0.09176 8.28405,0 9.12148,0 1.02698,0 6.14711,-0.346997 6.84111,0 4.40291,2.201454 1.19834,4.79335 2.28037,9.121476 0.26072,1.04288 1.94043,1.260557 2.28037,2.280369 0.48074,1.442232 0,3.040492 0,4.560738 0,0.760123 -0.33994,1.600495 0,2.280369 0.48074,0.961488 1.79962,1.318881 2.28036,2.280369 0.71664,1.433263 -0.71663,7.688214 0,9.121477 0.48075,0.961488 1.79963,1.318881 2.28037,2.280369 0.67988,1.359748 -1.07497,3.485758 0,4.560738 0.53749,0.53749 1.74288,-0.53749 2.28037,0 0.53749,0.53749 -0.53749,1.74288 0,2.28037 0.53749,0.53749 1.52025,0 2.28037,0 1.52025,0 3.04049,0 4.56074,0 6.84111,0 13.68221,0 20.52332,0 0.55305,0 6.76777,-0.0733 6.84111,0 0.53749,0.53749 -0.33994,1.60049 0,2.28037 0.48074,0.96149 1.79962,1.31888 2.28037,2.28037 0.45207,0.90414 -0.46619,6.37491 0,6.8411 0.53749,0.53749 1.74288,-0.53748 2.28037,0 0.53749,0.53749 0,1.52025 0,2.28037 0,5.32086 0,10.64173 0,15.96259 0,2.28037 0,4.56073 0,6.8411 0,0.76013 0,1.52025 0,2.28037 0,0.76013 -0.53749,1.74288 0,2.28037 0.53749,0.53749 1.52024,0 2.28037,0 1.52024,0 3.04049,0 4.56073,0 2.28037,0 5.08928,1.45986 6.84111,0 3.41236,-2.84363 8.83008,-16.23703 11.40185,-20.52332 0.55307,-0.92178 1.79962,-1.31888 2.28037,-2.28037 0.33993,-0.67987 -0.53749,-1.74288 0,-2.28037 0.53748,-0.53749 1.74288,0.53749 2.28036,0 1.20187,-1.20186 1.68357,-2.96927 2.28037,-4.56074 1.68801,-4.50134 2.71173,-9.24457 4.56074,-13.68221 1.96118,-4.706825 4.77018,-9.022634 6.84111,-13.682215 0.97624,-2.196547 1.38765,-4.609309 2.28037,-6.841107 0.63125,-1.578119 1.74288,-2.948274 2.28037,-4.560738 0.24037,-0.721116 -0.53749,-1.742881 0,-2.280369 0.53749,-0.537488 1.52024,0 2.28037,0 5.42285,0 4.56073,1.893658 4.56073,-4.560738 0,-6.841107 0,-13.682215 0,-20.523322 0,-0.606703 0.37658,-6.65282 0,-6.841107 -1.35974,-0.679875 -3.04049,0 -4.56073,0 -2.28037,0 -4.56074,0 -6.84111,0 -0.90146,0 -10.42794,0.486954 -11.40185,0 -0.96148,-0.480744 -1.31888,-1.799625 -2.28037,-2.280369 -1.49322,-0.746611 -9.37817,0.674558 -11.40184,0 -1.61246,-0.537488 -3.35888,-1.078509 -4.56074,-2.280369 -1.57272,-1.572722 -4.26389,-10.214459 -4.56074,-11.401845 -0.67402,-2.696095 1.4907,-2.675203 -2.28037,-4.560739 -0.67987,-0.339937 -1.52024,0 -2.28036,0 -0.76013,0 -1.52025,0 -2.28037,0 -4.56074,0 -9.12148,0 -13.68222,0 -5.32086,0 -10.64172,0 -15.96258,0 -3.87972,0 -8.27577,-0.845709 -11.40185,2.280369 -4.90378,2.002256 -3.70704,8.267778 -6.8411,11.401846 -0.53749,0.537488 -1.6005,-0.339938 -2.28037,0 -0.96149,0.480744 -1.31888,1.799625 -2.28037,2.280369 -0.67988,0.339937 -1.52025,0 -2.28037,0 -0.76012,0 -1.52025,0 -2.28037,0 -4.56074,0 -9.12148,0 -13.68221,0 -1.52025,0 -3.29582,-0.843281 -4.56074,0 -12.16197,8.107979 8.36135,1.77362 -6.84111,6.841107 -1.23415,0.411383 -8.34461,0 -9.12148,0 -1.48751,0 -7.32476,0.449178 -9.12147,0 -2.33195,-0.582988 -4.48407,-1.808961 -6.84111,-2.280369 -2.56849,-0.513698 -6.37721,0 -9.12148,0 -0.54188,0 -8.61037,-0.25555 -9.12147,0 -0.96149,0.480744 -1.31888,1.799625 -2.28037,2.280369 -0.58959,0.294795 -12.06589,0 -13.68222,0 -4.56073,0 -9.12147,0 -13.68221,0 -1.52025,0 -3.08588,0.368714 -4.56074,0 -1.64894,-0.412235 -3.35888,-1.078509 -4.56074,-2.280369 -2.68744,-2.687441 -3.44173,-7.42179 -6.8411,-9.121476 -0.67988,-0.339938 -1.52025,0 -2.28037,0 -1.52025,0 -3.11851,-0.480744 -4.56074,0 -2.90926,0.969753 -4.3348,7.991797 -4.56074,9.121476 -0.29814,1.490724 0.48074,3.118506 0,4.560738 -0.33994,1.019812 -1.31888,1.799625 -2.28037,2.280369 -0.47563,0.237817 -11.40091,2.35e-4 -11.40184,0 -1.64894,-0.412234 -3.54093,-0.920619 -4.56074,-2.280369 -5.19045,-15.571334 1.54725,-0.733113 -6.84111,-9.121476 -0.53749,-0.537488 0.53749,-1.742881 0,-2.280369 -0.53749,-0.537488 -2.04,-0.721116 -2.28037,0 0,2.280369 0,4.560738 0,6.841107 -0.76012,0.760123 -1.94043,1.260557 -2.28037,2.280369 -0.48074,1.442232 0,3.040492 0,4.560738 0,0.760123 0.33994,1.600495 0,2.280369 -1.67767,3.355346 -3.57798,2.280369 -6.8411,2.280369 -1.52025,0 -3.0405,0 -4.56074,0 -10.64172,0 -21.28345,0 -31.92517,0 -1.52025,0 -3.04049,0 -4.56074,0 -0.76012,0 -1.74288,-0.537488 -2.28037,0 -0.0918,0.09177 0,8.284042 0,9.121477 0,12.922091 0,25.844182 0,38.766274 0,2.28037 0,4.56074 0,6.84111 0,0.76012 -0.53748,1.74288 0,2.28037 0.53749,0.53748 1.74288,-0.53749 2.28037,0 0.53749,0.53748 -0.53749,1.74288 0,2.28037 0.53749,0.53748 1.6005,-0.33994 2.28037,0 0.96149,0.48074 1.31888,1.79962 2.28037,2.28036 0.67988,0.33994 1.60049,-0.33993 2.28037,0 0.96149,0.48075 1.31888,1.79963 2.28037,2.28037 0.58959,0.2948 12.06588,0 13.68221,0 0.76013,0 1.74288,-0.53748 2.28037,0 0.53749,0.53749 -0.53749,1.74288 0,2.28037 0.53749,0.53749 1.74288,-0.53749 2.28037,0 0.53749,0.53749 0.76012,2.28037 0,2.28037 -0.76012,0 0,-3.04049 0,-2.28037 0,1.52025 0,3.04049 0,4.56074"
       id="path3305"
       inkscape:connector-curvature="0" />
    <path
       style="fill:none;stroke:#000000;stroke-width:1px;stroke-linecap:butt;stroke-linejoin:miter;stroke-opacity:1"
       d="m 127.70067,288.43854 c -1.11479,-10.3453 -7.7099,-18.13456 -11.40185,-27.36442 -0.89272,-2.2318 -1.20539,-4.69116 -2.28037,-6.84111 -1.22566,-2.45132 -3.04049,-4.56074 -4.56073,-6.84111 -1.52025,-2.28037 -2.84866,-4.70101 -4.56074,-6.84111 -1.34307,-1.67883 -3.27077,-2.84077 -4.56074,-4.56073 -1.019813,-1.35975 -1.337553,-3.14652 -2.28037,-4.56074 -0.59629,-0.89444 -1.520246,-1.52025 -2.280369,-2.28037 -1.520246,-1.52025 -3.040492,-3.04049 -4.560738,-4.56074 -0.760123,-0.76012 -1.520246,-1.52025 -2.280369,-2.28037 -0.760123,-0.76012 -1.318881,-1.79962 -2.280369,-2.28037 -0.679875,-0.33994 -1.600495,0.33994 -2.280369,0 -10.436354,-5.21817 9.676555,0.94515 -6.841108,-4.56074 -0.721116,-0.24037 -1.600494,0.33994 -2.280369,0 -0.961488,-0.48074 -1.260557,-1.94043 -2.280369,-2.28036 -1.442232,-0.48075 -3.118506,0.48074 -4.560738,0 -1.019812,-0.33994 -1.318881,-1.79963 -2.280369,-2.28037 -1.438615,-0.71931 -9.96323,0.7193 -11.401845,0 -0.961488,-0.48075 -1.318881,-1.79963 -2.280369,-2.28037 -0.679875,-0.33994 -1.520246,0 -2.280369,0 -0.760124,0 -1.520247,0 -2.28037,0"
       id="path3307"
       inkscape:connector-curvature="0" />
    <path
       style="fill:none;stroke:#000000;stroke-width:1px;stroke-linecap:butt;stroke-linejoin:miter;stroke-opacity:1"
       d="m 68.411072,188.10231 c 9.881599,0 19.763199,0 29.644798,0 0.776862,0 7.88733,-0.41139 9.12148,0 1.61246,0.53748 2.94827,1.74288 4.56073,2.28036 0.72112,0.24038 1.6005,-0.33993 2.28037,0 0.96149,0.48075 1.31888,1.79963 2.28037,2.28037 2.14996,1.07498 4.77994,1.04367 6.84111,2.28037 1.84357,1.10614 2.84078,3.27077 4.56074,4.56074 1.35975,1.01981 3.14651,1.33755 4.56074,2.28037 0.89443,0.59629 1.38593,1.68408 2.28037,2.28037 5.82677,3.88452 4.18984,0.2656 9.12147,6.84111 1.01981,1.35975 1.52025,3.04049 2.28037,4.56073 1.52025,3.0405 3.04049,6.08099 4.56074,9.12148 0.76012,1.52025 1.33755,3.14651 2.28037,4.56074 0.59629,0.89443 1.94043,1.26056 2.28037,2.28037 0.48074,1.44223 -0.67988,3.20099 0,4.56074 0.33993,0.67987 1.74288,-0.53749 2.28037,0 0.0733,0.0733 0,6.28805 0,6.8411 0,0.76013 0.76012,2.28037 0,2.28037 -0.76013,0 0,-1.52024 0,-2.28037 0.36887,-7.1876 6.97152,-11.79309 9.12147,-18.24295 0.24037,-0.72112 0,-1.52025 0,-2.28037 0.76013,-1.52024 1.52025,-3.04049 2.28037,-4.56074 1.52025,-3.04049 3.48576,-5.89654 4.56074,-9.12147 0.24037,-0.72112 -0.33994,-1.6005 0,-2.28037 0.48074,-0.96149 1.79962,-1.31888 2.28037,-2.28037 0.67987,-1.35975 -0.67988,-3.20099 0,-4.56074 0.48074,-0.96149 1.94043,-1.26056 2.28037,-2.28037 0.48074,-1.44223 -0.48075,-3.1185 0,-4.56074 0.33993,-1.01981 1.79962,-1.31888 2.28037,-2.28037 0.34699,-0.69399 0,-5.81412 0,-6.8411"
       id="path3309"
       inkscape:connector-curvature="0" />
    <path
       style="fill:none;stroke:#000000;stroke-width:1px;stroke-linecap:butt;stroke-linejoin:miter;stroke-opacity:1"
       d="m 221.1958,213.18637 c 0,6.8411 0,13.68221 0,20.52332 0,2.28037 0.55307,4.62882 0,6.8411 -0.52144,2.08576 -3.59925,2.63777 -4.56074,4.56074 -0.33994,0.67988 0.24037,1.55926 0,2.28037 -0.79181,2.37543 -3.76893,6.74605 -4.56074,9.12148 -0.24037,0.72111 0.33994,1.60049 0,2.28037 -0.48074,0.96148 -1.79962,1.31888 -2.28037,2.28037 -0.67987,1.35974 1.07498,3.48576 0,4.56073 -0.53748,0.53749 -1.74288,-0.53748 -2.28036,0 -2.40372,2.40372 -2.52112,6.40198 -4.56074,9.12148 -1.28997,1.71996 -3.36816,2.77187 -4.56074,4.56074 -0.42164,0.63246 0.53749,1.74288 0,2.28037 -0.53749,0.53749 -1.74288,-0.53749 -2.28037,0 -3.04049,3.04049 3.80062,2.28037 -2.28037,2.28037 4.38363,0.87672 18.06233,4.38764 22.80369,2.28037 3.9293,-1.74636 6.08099,-6.08099 9.12148,-9.12148 9.64192,-9.64193 10.30594,-8.81522 15.96258,-18.24295 0.23695,-0.39492 4.47892,-9.03966 4.56074,-9.12148 0.53749,-0.53749 1.74288,0.53749 2.28037,0 0.53749,-0.53749 -0.24037,-1.55925 0,-2.28037 0.53749,-1.61246 1.74288,-2.94827 2.28037,-4.56074 0.24037,-0.72111 -0.33994,-1.60049 0,-2.28037 0.48074,-0.96148 1.79962,-1.31888 2.28037,-2.28037 0.33993,-0.67987 -0.33994,-1.60049 0,-2.28036 2.81785,-5.63572 2.28037,0.78713 2.28037,-4.56074"
       id="path3311"
       inkscape:connector-curvature="0" />
    <path
       style="fill:none;stroke:#000000;stroke-width:1px;stroke-linecap:butt;stroke-linejoin:miter;stroke-opacity:1"
       d="m 303.28909,265.63485 c 0,7.60123 0,15.20246 0,22.80369 0,0.76013 0,1.52025 0,2.28037 0,0.76013 0.33993,1.6005 0,2.28037 -0.19561,0.39122 -6.55783,6.74668 -6.84111,6.84111 -1.44223,0.48074 -3.11851,-0.48074 -4.56074,0 -1.01981,0.33994 -1.38593,1.68408 -2.28037,2.28037 -1.14838,5.02403 -4.69115,1.20539 -6.84111,2.28037 -0.96148,0.48074 -1.31888,1.79962 -2.28036,2.28037 -0.67988,0.33993 -1.52025,0 -2.28037,0 -1.52025,0 -3.11851,-0.48075 -4.56074,0 -1.01981,0.33993 -1.31888,1.79962 -2.28037,2.28037 -0.67988,0.33993 -1.52025,0 -2.28037,0 -1.52025,0 -3.11851,-0.48075 -4.56074,0 -1.01981,0.33993 -1.31888,1.79962 -2.28037,2.28037 -1.43326,0.71663 -7.68821,-0.71664 -9.12147,0 -0.96149,0.48074 -1.31888,1.79962 -2.28037,2.28036 -1.35975,0.67988 -3.48576,-1.07497 -4.56074,0 -3.04049,3.0405 3.80061,2.28037 -2.28037,2.28037"
       id="path3313"
       inkscape:connector-curvature="0" />
    <path
       style="fill:none;stroke:#000000;stroke-width:1px;stroke-linecap:butt;stroke-linejoin:miter;stroke-opacity:1"
       d="m 344.33573,247.3919 c 0,5.32086 0,10.64172 0,15.96258 0,0.76013 0.33994,1.6005 0,2.28037 -0.48074,0.96149 -1.79963,1.31888 -2.28037,2.28037 -0.33994,0.67988 0.53749,1.74288 0,2.28037 -0.53749,0.53749 -1.60049,-0.33994 -2.28037,0 -0.96149,0.48075 -1.31888,1.79963 -2.28037,2.28037 -0.67987,0.33994 -1.52024,0 -2.28037,0 -0.76012,0 -1.52024,0 -2.28037,0 -3.80061,0 -7.60123,0 -11.40184,0 -1.19245,0 -8.52187,0.2998 -9.12148,0 -0.96149,-0.48074 -1.52024,-1.52025 -2.28037,-2.28037 -0.76012,-0.76012 -1.79962,-1.31888 -2.28037,-2.28037 -0.33993,-0.67987 0.33994,-1.60049 0,-2.28037 -0.48074,-0.96148 -1.68408,-1.38593 -2.28036,-2.28037 -0.94282,-1.41422 -1.33756,-3.14651 -2.28037,-4.56073 -0.59629,-0.89444 -1.79963,-1.31888 -2.28037,-2.28037 -0.67988,-1.35975 1.07497,-3.48576 0,-4.56074 -0.53749,-0.53749 -1.74288,0.53749 -2.28037,0 -1.07498,-1.07498 1.07497,-3.48576 0,-4.56074 -0.53749,-0.53749 -2.28037,0.76012 -2.28037,0 0,-0.76012 3.04049,0 2.28037,0 -0.54189,0 -8.61038,-0.25555 -9.12148,0 -0.96149,0.48075 -1.52024,1.52025 -2.28037,2.28037 -0.76012,0.76012 -1.79962,1.31888 -2.28037,2.28037 -0.33993,0.67987 0.53749,1.74288 0,2.28037 -1.07497,1.07497 -3.48576,-1.07498 -4.56073,0 -0.53749,0.53749 0.53748,1.74288 0,2.28037 -0.53749,0.53749 -1.52025,0 -2.28037,0 -3.80062,0 -7.60123,0 -11.40185,0 -0.76012,0 -1.74288,0.53749 -2.28037,0 -0.53749,-0.53749 0.24037,-1.55926 0,-2.28037 -0.53749,-1.61247 -1.86813,-2.9118 -2.28037,-4.56074 -0.36871,-1.47486 0,-3.04049 0,-4.56074 0,-1.52024 0,-3.04049 0,-4.56074 0,-0.98226 0.30854,-13.06514 0,-13.68221 -0.48074,-0.96149 -1.79962,-1.31888 -2.28037,-2.28037 -0.45207,-0.90415 0.46619,-6.37492 0,-6.84111 -0.53748,-0.53748 -1.74288,0.53749 -2.28037,0 -0.53748,-0.53748 0.53749,-1.74288 0,-2.28037 -0.53748,-0.53748 -1.60049,0.33994 -2.28036,0 -0.96149,-0.48074 -1.31889,-1.79962 -2.28037,-2.28036 -0.59961,-0.29981 -7.92903,0 -9.12148,0 -7.60123,0 -15.20246,0 -22.80369,0 -0.74888,0 -6.50134,0.22651 -6.84111,0 -7.91925,-5.2795 -2.94603,-2.66267 -4.56074,-9.12148 -2.75294,-11.01178 -1.08367,0.11302 -4.56073,-6.84111 -0.67988,-1.35975 1.07497,-3.48576 0,-4.56074 -0.53749,-0.53748 -1.74288,0.53749 -2.28037,0 -0.53749,-0.53748 0.53749,-1.74288 0,-2.28037 -0.53749,-0.53748 -1.52025,0 -2.28037,0 -0.76012,0 -1.52025,0 -2.28037,0 -7.60123,0 -15.20246,0 -22.80369,0 -0.55305,0 -6.76777,0.0733 -6.84111,0 -1.07498,-1.07497 0.67988,-3.20098 0,-4.56073 -0.48074,-0.96149 -1.68408,-1.38594 -2.28037,-2.28037 -1.88563,-2.82845 -2.6751,-6.29303 -4.56074,-9.12148 -0.59629,-0.89443 -1.68408,-1.38593 -2.28037,-2.28037 -0.94281,-1.41422 -1.74288,-2.94827 -2.28036,-4.56074 -0.94364,-2.8309 1.87198,-2.48456 -2.28037,-4.56073 -0.67988,-0.33994 -1.55926,0.24037 -2.28037,0 -1.61247,-0.53749 -2.94828,-1.74289 -4.56074,-2.28037 -1.4845,-0.49484 -14.05345,0 -15.96258,0 -1.52025,0 -3.0405,0 -4.56074,0 -0.76013,0 -1.74288,-0.53749 -2.28037,0 -0.53749,0.53748 0.33994,1.60049 0,2.28037 -4.74518,9.49035 0.15743,-2.4378 -4.56074,2.28036 -0.53749,0.53749 0.53749,1.74289 0,2.28037 -0.53749,0.53749 -1.52025,0 -2.28037,0 -6.08098,0 -12.16197,0 -18.24295,0 -3.800616,0 -7.601231,0 -11.401846,0 -0.760123,0 -1.940432,-0.67987 -2.280369,0 -1.401598,2.8032 -1.520246,6.08099 -2.280369,9.12148 -0.760123,3.04049 -1.765132,6.03005 -2.28037,9.12148 -2.969382,17.81629 3.999746,-9.71887 -2.280369,9.12147 -0.240372,0.72112 0.537489,1.74288 0,2.28037 -1.140184,1.14019 -5.700922,-1.14018 -6.841107,0 -0.537488,0.53749 0.537488,1.74288 0,2.28037 -0.537488,0.53749 -1.600494,-0.33994 -2.280369,0 -0.961488,0.48074 -1.318881,1.79963 -2.280369,2.28037 -0.617075,0.30854 -12.699948,0 -13.682214,0 -0.760123,0 -1.520246,0 -2.280369,0 -0.760123,0 -1.742881,-0.53749 -2.280369,0 -0.18936,0.18936 0.210744,7.85701 0,9.12148 -1.030476,6.18285 -3.783272,12.02322 -4.560739,18.24295 -0.56569,4.52552 0,9.12147 0,13.68221 0,1.52025 0,3.0405 0,4.56074 0,0.76012 0.537489,1.74288 0,2.28037 -0.537488,0.53749 -1.742881,-0.53749 -2.280369,0 -0.537488,0.53749 0.537488,1.74288 0,2.28037 -0.537488,0.53749 -2.280369,0.76012 -2.280369,0 0,-0.76012 3.040492,0 2.280369,0 -3.800615,0 -7.60123,0 -11.401845,0 -0.760123,0 -1.600494,0.33994 -2.280369,0 -1.986893,-0.99345 -4.163959,-5.25399 -4.560738,-6.84111 -0.368714,-1.47485 0.368714,-3.08588 0,-4.56074 -3.721902,-14.8876 -1.224492,8.61564 -4.560738,-11.40184 -0.374891,-2.24934 0,-4.56074 0,-6.84111 0,-2.46245 0,-18.19552 0,-18.24295 0,-15.20246 0,-30.40492 0,-45.60738 0,-3.04049 0,-6.08099 0,-9.12148 0,-1.52024 0,-3.04049 0,-4.56074 0,-0.76012 -0.537489,-1.74288 0,-2.28037 1.074976,-1.07497 3.200988,0.67988 4.560738,0 0.961488,-0.48074 1.318881,-1.79962 2.280369,-2.28037 0.679875,-0.33993 1.742881,0.53749 2.280369,0 0.537488,-0.53748 -0.339937,-1.60049 0,-2.28036 0.480744,-0.96149 1.520246,-1.52025 2.280369,-2.28037 0,-1.52025 -0.480744,-3.11851 0,-4.56074 0.339937,-1.01981 1.799625,-1.31888 2.280369,-2.28037 0.912148,-1.8243 -0.912148,-5.01681 0,-6.84111 0.480744,-0.96149 1.799625,-1.31888 2.280369,-2.28037 0.725092,-1.45018 -0.62955,-9.51319 0,-11.40184 0.339937,-1.01981 1.318881,-1.79963 2.280369,-2.28037 0.679875,-0.33994 1.520246,0 2.280369,0 0.760123,0 1.520246,0 2.280369,0 3.800615,0 7.601231,0 11.401846,0 0.760123,0 1.520246,0 2.280369,0 0.760123,0 1.940431,0.67987 2.280369,0 0.679875,-1.35975 -0.679875,-3.20099 0,-4.56074 4.543236,-9.086472 4.56324,-0.01 6.841107,-9.121476 0,-10.380889 -1.074976,-0.130416 2.280369,-6.841107 0.339937,-0.679874 -0.537488,-1.742881 0,-2.280369 0.537488,-0.537488 1.520246,0 2.280369,0 0.760123,0 1.520246,0 2.280369,0 1.720657,0 8.233496,-0.355192 9.121476,0 7.553808,3.021523 10.577279,11.12699 18.242954,13.682215 1.39123,0.463744 11.92101,0 13.68221,0 1.52025,0 3.08589,0.368713 4.56074,0 4.59352,-1.148379 8.76958,-5.962753 11.40185,-9.121477 1.75453,-2.105435 3.33507,-4.389784 4.56074,-6.841107 0.33993,-0.679875 -0.53749,-1.742881 0,-2.280369 0.53748,-0.537488 2.28036,-0.760123 2.28036,0 0,0.760123 -2.28036,0.760123 -2.28036,0 0,-0.760123 1.52024,0 2.28036,0 0.76013,0 1.52025,0 2.28037,0 0.76013,0 1.6005,-0.339937 2.28037,0 2.32149,1.160743 3.63492,4.989473 4.56074,6.841107 2.28037,4.560738 4.56074,9.121477 6.84111,13.682215 1.52024,3.040488 2.6751,6.293028 4.56074,9.121478 0.59629,0.89443 1.79962,1.31888 2.28036,2.28037 0.33994,0.67987 -0.53748,1.74288 0,2.28037 0.53749,0.53748 1.74289,-0.53749 2.28037,0 0.53749,0.53748 -0.53748,1.74288 0,2.28037 0.53749,0.53748 1.52025,0 2.28037,0 1.58609,0 10.57719,-0.41233 11.40185,0 2.73644,1.36822 4.10466,5.47288 6.84111,6.8411 0.67987,0.33994 1.52024,0 2.28036,0 1.52025,0 3.0405,0 4.56074,0 3.04049,0 6.08099,0 9.12148,0 0.76012,0 1.52025,0 2.28037,0 0.76012,0 1.60049,-0.33993 2.28037,0 2.61425,1.30713 3.17201,4.75802 4.56074,6.84111 0.59628,0.89443 1.79962,1.31888 2.28036,2.28037 0.33994,0.67987 -0.53748,1.74288 0,2.28037 0.53749,0.53749 1.52025,0 2.28037,0 0.76013,0 1.52025,0 2.28037,0 2.28037,0 4.56074,0 6.84111,0 0.76012,0 1.60049,-0.33994 2.28037,0 0.96149,0.48074 1.52024,1.52024 2.28037,2.28037 0.76012,0.76012 1.79962,1.31888 2.28037,2.28037 1.07497,2.14995 1.38765,4.60931 2.28037,6.8411 1.26249,3.15624 3.48576,5.89655 4.56073,9.12148 0.24038,0.72112 -0.53748,1.74288 0,2.28037 0.62396,0.62396 7.88441,-0.61854 9.12148,0 5.04202,2.52101 0.70765,1.41529 2.28037,4.56074 0.48074,0.96148 1.79962,1.31888 2.28037,2.28037 0.33994,0.67987 -0.53749,1.74288 0,2.28036 0.80045,0.80046 9.82672,-0.78756 11.40184,0 2.61426,1.30713 3.17202,4.75802 4.56074,6.84111 0.59629,0.89444 1.79963,1.31888 2.28037,2.28037 0.33994,0.67988 -0.53749,1.74288 0,2.28037 0.53749,0.53749 1.52025,0 2.28037,0 1.03162,0 13.0745,-0.30386 13.68221,0 0.96149,0.48074 1.52025,1.52025 2.28037,2.28037 0.76013,0.76012 1.79963,1.31888 2.28037,2.28037 1.57272,3.14544 -2.76165,2.03973 2.28037,4.56074 0.90415,0.45207 6.37492,-0.46619 6.84111,0 0.53749,0.53748 -0.24037,1.55925 0,2.28037 0.53749,1.61246 1.74288,2.94827 2.28037,4.56073 0.29578,0.88735 -0.35389,6.48723 0,6.84111 0.53749,0.53749 1.52024,0 2.28037,0 6.8411,0 13.68221,0 20.52332,0 0.76012,0 1.52024,0 2.28037,0 0.76012,0 1.74288,-0.53749 2.28037,0 0.27642,0.27642 -0.23406,3.6245 0,4.56074 0.58298,2.33195 1.98222,4.45595 2.28037,6.84111 0.4714,3.77126 0,7.60123 0,11.40184 0,6.84111 0,13.68222 0,20.52332 0,0.83744 -0.0918,9.02971 0,9.12148 0.53748,0.53749 1.74288,-0.53749 2.28037,0 0.53748,0.53749 0,1.52025 0,2.28037 0,0.76012 0,1.52024 0,2.28037 0,0.76012 -0.53749,1.74288 0,2.28037 0.53748,0.53748 2.28036,-0.76013 2.28036,0 0,0.76012 -2.28036,0.76012 -2.28036,0 0,-0.76013 1.52024,0 2.28036,0 0.76013,0 1.52025,0 2.28037,0 0.76013,0 1.80553,0.59355 2.28037,0 2.7688,-3.461 4.56074,-7.60123 6.84111,-11.40185 z"
       id="path3315"
       inkscape:connector-curvature="0" />
  </g>
</svg>
