<?xml version="1.0" encoding="UTF-8" standalone="no"?>
<!-- Created with Inkscape (http://www.inkscape.org/) -->

<svg
   xmlns:dc="http://purl.org/dc/elements/1.1/"
   xmlns:cc="http://creativecommons.org/ns#"
   xmlns:rdf="http://www.w3.org/1999/02/22-rdf-syntax-ns#"
   xmlns:svg="http://www.w3.org/2000/svg"
   xmlns="http://www.w3.org/2000/svg"
   xmlns:sodipodi="http://sodipodi.sourceforge.net/DTD/sodipodi-0.dtd"
   xmlns:inkscape="http://www.inkscape.org/namespaces/inkscape"
   width="210mm"
   height="297mm"
   id="svg2"
   version="1.1"
   inkscape:version="0.48.5 r10040"
   sodipodi:docname="e-saiu-correndo-pelo-quintal.svg"
   inkscape:export-filename="/home/fredm/projetos/o-rato-anderson/um-dia-este-rato-encontrou-uma-rata.png"
   inkscape:export-xdpi="90"
   inkscape:export-ydpi="90">
  <defs
     id="defs4">
    <marker
       inkscape:stockid="Arrow1Lend"
       orient="auto"
       refY="0.0"
       refX="0.0"
       id="Arrow1Lend"
       style="overflow:visible;">
      <path
         id="path3844"
         d="M 0.0,0.0 L 5.0,-5.0 L -12.5,0.0 L 5.0,5.0 L 0.0,0.0 z "
         style="fill-rule:evenodd;stroke:#000000;stroke-width:1.0pt;"
         transform="scale(0.8) rotate(180) translate(12.5,0)" />
    </marker>
  </defs>
  <sodipodi:namedview
     id="base"
     pagecolor="#ffffff"
     bordercolor="#666666"
     borderopacity="1.0"
     inkscape:pageopacity="0.0"
     inkscape:pageshadow="2"
     inkscape:zoom="1.0440874"
     inkscape:cx="287.7429"
     inkscape:cy="592.38139"
     inkscape:document-units="px"
     inkscape:current-layer="layer1"
     showgrid="false"
     inkscape:window-width="780"
     inkscape:window-height="711"
     inkscape:window-x="584"
     inkscape:window-y="31"
     inkscape:window-maximized="0" />
  <metadata
     id="metadata7">
    <rdf:RDF>
      <cc:Work
         rdf:about="">
        <dc:format>image/svg+xml</dc:format>
        <dc:type
           rdf:resource="http://purl.org/dc/dcmitype/StillImage" />
        <dc:title />
      </cc:Work>
    </rdf:RDF>
  </metadata>
  <g
     inkscape:label="Camada 1"
     inkscape:groupmode="layer"
     id="layer1">
    <path
       style="fill:none;stroke:#000000;stroke-width:1px;stroke-linecap:butt;stroke-linejoin:miter;stroke-opacity:1"
       d="m 195.04762,315.51563 c -5.94577,27.28457 9.82181,4.40383 13.54497,8.12699 0.63852,0.63851 -0.63852,2.07047 0,2.70899 0.63852,0.63852 1.806,0 2.70899,0 1.806,0 3.612,0 5.41799,0 9.02999,0 18.05997,0 27.08995,0 2.709,0 5.41799,0 8.12698,0 0.903,0 1.806,0 2.709,0 0.903,0 1.90133,-0.40383 2.70899,0 1.14222,0.57111 1.806,1.806 2.709,2.709 0.903,0.90299 2.00062,1.64643 2.70899,2.70899 1.12003,1.68005 1.09367,4.20649 2.709,5.41799 2.28442,1.71332 5.57292,1.43196 8.12698,2.70899 13.25872,6.62936 3.46619,3.2769 13.54498,10.83598 1.61533,1.2115 3.61199,1.806 5.41798,2.709 1.806,0.903 3.50245,2.07048 5.41799,2.70899 0.85666,0.28555 2.07048,-0.63851 2.709,0 0.63851,0.63852 -0.63852,2.07048 0,2.709 0.63851,0.63851 1.95765,-0.5009 2.70899,0 2.12511,1.41674 3.37474,3.88555 5.41799,5.41799 1.61533,1.2115 3.80266,1.49749 5.41799,2.70899 2.04325,1.53244 3.2279,4.10393 5.41799,5.41799 2.4486,1.46916 5.47569,1.64848 8.12699,2.70899 7.22398,2.8896 4.56036,3.62107 13.54497,5.41799 1.77092,0.35419 3.70467,-0.5711 5.41799,0 8.45564,2.81855 -0.903,1.806 2.70899,5.41799 0.17359,0.17359 10.33137,5.08159 10.83598,5.41799 3.12576,2.08384 5.00122,6.04314 8.12699,8.12699 4.0886,2.72573 14.47301,7.22899 18.96296,8.12698 1.77092,0.35419 3.70467,-0.57111 5.41799,0 1.2115,0.40383 1.49749,2.30516 2.70899,2.709 1.71332,0.5711 3.66592,-0.43802 5.41799,0 1.95888,0.48971 3.50244,2.07047 5.41799,2.70899 0.85666,0.28555 1.90133,-0.40383 2.709,0 1.14221,0.57111 1.64644,2.00062 2.70899,2.70899 1.68005,1.12004 3.73794,1.58897 5.41799,2.709 2.12511,1.41674 3.29288,4.00125 5.41799,5.41799 8.08499,5.38999 2.45818,1.03343 10.83598,2.70899 2.80008,0.56002 5.35671,2.01643 8.12698,2.709 0.87604,0.21901 2.07048,-0.63852 2.709,0 0.63851,0.63851 -0.70513,2.14489 0,2.70899 20.88105,16.70485 6.95417,-1.36828 24.38095,18.96297 2.11885,2.47199 3.3841,5.58462 5.41799,8.12698 0.54981,0.68726 10.17652,9.51706 10.83598,10.83598 0.40383,0.80766 -0.63852,2.07048 0,2.70899 0.63851,0.63852 1.85233,-0.28555 2.70899,0 4.61325,1.53775 9.07536,3.50244 13.54497,5.41799 1.85591,0.79539 3.45912,2.21928 5.41799,2.709 1.75208,0.43802 3.66592,-0.43802 5.41799,0 3.91776,0.97944 7.00488,4.14095 10.83598,5.41799 0.85666,0.28555 2.07048,-0.63852 2.709,0 0.63851,0.63851 -0.63852,2.07047 0,2.70899 0.83151,0.83151 8.82519,-0.5027 10.83598,0 1.95887,0.48972 3.45911,2.21928 5.41798,2.709 1.75208,0.43801 3.612,0 5.41799,0 2.709,0 5.41799,0 8.12699,0 0.903,0 2.07048,-0.63852 2.70899,0 0.63852,0.63851 -0.52485,1.97419 0,2.70899 4.09927,5.73897 9.44571,10.515 13.54498,16.25397 1.04971,1.4696 -1.61534,4.61032 0,5.41799 1.61533,0.80766 3.61199,0 5.41799,0 0.90299,0 2.07047,-0.63852 2.70899,0 0.63852,0.63851 0,1.80599 0,2.70899 0,0.903 0.903,2.709 0,2.709 -0.903,0 -0.903,-2.709 0,-2.709 1.27703,0 1.806,1.806 2.70899,2.709"
       id="path2985"
       inkscape:connector-curvature="0" />
    <path
       style="fill:none;stroke:#000000;stroke-width:1px;stroke-linecap:butt;stroke-linejoin:miter;stroke-opacity:1"
       d="m 200.46561,60.870133 c 0,17.156966 0,34.313932 0,51.470897 0,49.6649 0,99.32981 0,148.99471 0,17.15696 0,34.31393 0,51.4709 0,3.61199 0,7.22398 0,10.83598 0,0.90299 0.90299,2.70899 0,2.70899 -0.903,0 0,-1.806 0,-2.70899"
       id="path2987"
       inkscape:connector-curvature="0" />
    <path
       style="fill:none;stroke:#000000;stroke-width:1px;stroke-linecap:butt;stroke-linejoin:miter;stroke-opacity:1"
       d="m 235.68254,20.235212 c -1.806,4.514992 -3.24329,9.195558 -5.41799,13.544974 -0.57111,1.142212 -2.00063,1.646439 -2.709,2.708995 -1.12003,1.680047 -1.58896,3.737942 -2.70899,5.417989 -0.88196,1.322941 -9.51304,9.954018 -10.83598,10.835979 -1.68005,1.120031 -3.99022,1.281229 -5.41799,2.708994 -1.42777,1.427766 -1.4975,3.802657 -2.70899,5.41799 -15.87383,21.165103 4.82216,-12.353323 -8.12699,13.544973 -0.57111,1.142212 -1.806,1.805996 -2.70899,2.708995 -1.806,1.805996 -3.88555,3.374737 -5.41799,5.417989 -1.2115,1.615332 -1.58897,3.737942 -2.709,5.417989 -4.13267,6.199003 -2.14436,-1.693909 -5.41799,8.126984 -0.28555,0.85666 0.28556,1.852336 0,2.708995 -0.63851,1.915552 -2.07048,3.502442 -2.70899,5.417992 -0.28555,0.85666 0.28555,1.85233 0,2.70899 -0.63852,1.91555 -2.07048,3.50244 -2.709,5.41799 -0.28555,0.85666 0,1.806 0,2.709 0,1.80599 0,3.61199 0,5.41799 0,4.51499 0,9.02998 0,13.54497 0,0.903 -0.63851,2.07048 0,2.70899 0.63852,0.63852 1.806,0 2.709,0 1.80599,0 3.61199,0 5.41799,0 2.29898,0 14.76056,0.49781 16.25397,0 0.57091,-0.1903 7.63081,-7.38272 8.12698,-8.12698 1.12003,-1.68005 1.58896,-3.73794 2.70899,-5.41799 0.70837,-1.06256 1.806,-1.806 2.709,-2.70899 2.70899,-2.709 5.41799,-5.41799 8.12698,-8.12699 0.903,-0.903 2.13789,-1.56678 2.709,-2.70899 0.40383,-0.80767 -0.63852,-2.07048 0,-2.709 3.71823,-3.71823 2.70899,4.78058 2.70899,5.41799 0,9.93298 0,19.86596 0,29.79894 0,0.72074 -0.44735,7.90331 0,8.12699 1.61533,0.80766 3.612,0 5.41799,0 3.61199,0 7.22399,0 10.83598,0 1.05925,0 17.79456,0.38947 18.96296,0 1.2115,-0.40384 1.806,-1.806 2.709,-2.709 3.61199,-3.61199 7.22398,-7.22398 10.83598,-10.83598 0.90299,-0.90299 1.64644,-2.00062 2.70899,-2.70899 1.68005,-1.12003 3.99023,-1.28123 5.41799,-2.709 0.63852,-0.63851 -0.903,-2.70899 0,-2.70899 0.903,0 0,1.806 0,2.70899 0,2.709 0,5.41799 0,8.12699 0,7.22398 0,14.44797 0,21.67196 0,0.90299 0.63852,2.07047 0,2.70899 -0.63852,0.63852 -2.07048,-0.63852 -2.70899,0 -0.63852,0.63852 -0.63852,2.07048 0,2.70899 0.63851,0.63852 1.80599,0 2.70899,0 5.41799,0 10.83598,0 16.25397,0 1.806,0 3.91531,1.00179 5.41799,0 0.44958,-0.29972 4.58765,-9.72885 5.41799,-10.83597 11.71719,-11.71719 0.42457,0.71764 8.12698,-10.83598 0.70837,-1.06256 1.806,-1.806 2.709,-2.709 0.90299,-0.903 1.80599,-3.61199 2.70899,-2.70899 1.27703,1.27703 1.806,5.41799 0,5.41799 -1.806,0 0,-7.22399 0,-5.41799 0,9.93298 0,19.86596 0,29.79894 0,4.51499 0,9.02998 0,13.54497 0,0.903 -0.63852,2.07048 0,2.709 1.42777,1.42776 3.45911,2.21927 5.41799,2.70899 1.75207,0.43802 3.61199,0 5.41799,0 5.41799,0 10.83598,0 16.25397,0 2.32521,0 14.66899,0.52833 16.25397,0 1.21149,-0.40383 1.80599,-1.80599 2.70899,-2.70899 2.70899,-2.709 5.41799,-5.41799 8.12698,-8.12699 1.806,-1.80599 3.612,-7.22398 5.41799,-5.41799 2.55407,2.55407 0,7.22399 0,10.83598 0,7.22399 0,14.44797 0,21.67196 0,1.806 0,3.61199 0,5.41799 0,0.903 -0.63851,2.07048 0,2.70899 0.63852,0.63852 1.806,0 2.709,0 2.70899,0 5.41799,0 8.12698,0 4.51499,0 9.02998,0 13.54498,0 1.80599,0 3.61199,0 5.41798,0 0.903,0 1.90133,0.40384 2.709,0 3.10564,-1.55282 3.76823,-5.65235 5.41799,-8.12698 1.41674,-2.12511 3.61199,-3.61199 5.41799,-5.41799 0.903,-0.903 1.43196,-2.70899 2.70899,-2.70899 0.903,0 0.903,2.70899 0,2.70899 -0.903,0 0,-3.61199 0,-2.70899 0,6.32098 0,12.64197 0,18.96296 0,5.41799 0,10.83598 0,16.25397 0,0.903 0,1.80599 0,2.70899 0,0.903 -0.40383,1.90133 0,2.709 0.57111,1.14221 1.5233,2.23471 2.709,2.70899 4.63489,1.85396 20.37819,4.4173 24.38095,5.41799 2.77027,0.69257 5.32691,2.14898 8.12698,2.70899 2.69049,0.5381 13.17381,0 16.25397,0 1.1669,0 15.52091,0.36654 16.25397,0 1.14221,-0.5711 1.56678,-2.13788 2.70899,-2.70899 0.80767,-0.40383 2.07048,0.63852 2.709,0 0.63852,-0.63852 -0.903,-2.70899 0,-2.70899 0.903,0 0.33536,1.87058 0,2.70899 -1.4998,3.7495 -3.82721,7.12417 -5.41799,10.83598 -1.12485,2.62465 -1.806,5.41799 -2.70899,8.12698 -0.903,2.709 -2.01643,5.35671 -2.709,8.12699 -0.57336,2.29345 0,8.02332 0,10.83598 0,1.80599 0,3.61199 0,5.41799 0,0.90299 -0.63852,2.07047 0,2.70899 0.63852,0.63852 1.806,0 2.709,0 2.70899,0 5.41798,0 8.12698,0 0.46978,0 18.40034,0.28131 18.96296,0 1.14221,-0.57111 1.94278,-1.68737 2.709,-2.70899 1.95348,-2.60465 4.20881,-5.10405 5.41799,-8.12699 2.86117,-7.15293 -4.00656,-4.12043 2.70899,-10.83598 0.63852,-0.63851 2.30516,-0.80766 2.709,0 0.80766,1.61533 0,3.612 0,5.41799 0,1.806 0,3.61199 0,5.41799 0,7.22399 0,14.44797 0,21.67196 0,1.0709 -0.57849,12.388 0,13.54497 0.5711,1.14221 1.56678,2.13789 2.70899,2.709 12.84817,6.42408 10.47156,5.41799 21.67196,5.41799 4.51499,0 9.02998,0 13.54497,0 1.806,0 3.80266,0.80766 5.41799,0 7.05503,-3.52752 5.03755,-7.3661 8.12698,-13.54498 1.45604,-2.91208 3.96195,-5.2149 5.41799,-8.12698 1.27704,-2.55407 1.23984,-5.67839 2.709,-8.12699 6.69502,-11.15837 5.41799,0.29214 5.41799,-10.83597 0,-0.903 0,1.80599 0,2.70899 0,6.32099 0,12.64198 0,18.96296 0,15.35097 0,30.70194 0,46.05291 0,0.903 -0.63852,2.07048 0,2.709 0.63851,0.63851 1.80599,0 2.70899,0 0.903,0 1.806,0 2.709,0 5.41799,0 10.83598,0 16.25396,0 2.709,0 5.70399,1.2115 8.12699,0 0.80766,-0.40384 -0.33537,-1.87058 0,-2.709 1.4998,-3.74949 3.41441,-7.32972 5.41799,-10.83598 1.61533,-2.82683 4.38841,-5.03825 5.41799,-8.12698 0.85666,-2.56998 0,-5.41799 0,-8.12698 0,-0.903 -0.903,-2.709 0,-2.709 0.903,0 0,1.806 0,2.709 0,3.61199 0,7.22398 0,10.83597 0,8.12699 0,16.25397 0,24.38096 0,0.90299 0,1.80599 0,2.70899 0,0.903 -0.80767,2.30516 0,2.709 1.61533,0.80766 3.61199,0 5.41799,0 2.94373,0 8.82645,0.80766 10.83598,-2.709 6.51233,-11.39659 5.64429,-22.8035 8.12698,-35.21693 0.56002,-2.80008 1.806,-5.41799 2.70899,-8.12698 0.903,-2.709 1.43197,-5.57292 2.709,-8.12699 1.45604,-2.91208 3.80266,-5.30015 5.41799,-8.12698 2.91912,-5.10847 9.54592,-19.22071 10.83598,-24.38095 6.97648,-48.83538 -2.38868,6.04949 8.12698,-32.50794 1.44523,-5.29918 2.10243,-10.79484 2.709,-16.25397 0.29915,-2.69242 -0.74422,-5.52222 0,-8.12698 2.09322,-7.32627 13.13393,-23.55888 16.25396,-29.79894 1.27704,-2.55407 1.43197,-5.57292 2.709,-8.12699 3.17988,-6.35975 11.86477,-14.95116 13.54497,-21.67195 0.43802,-1.75208 0,-3.612 0,-5.41799 1.806,-3.612 4.14096,-7.00489 5.41799,-10.83598 0.57111,-1.71332 -0.43802,-3.66592 0,-5.41799 0.97944,-3.91776 4.14096,-7.00488 5.41799,-10.83598 0.57111,-1.71332 0,-3.61199 0,-5.41799"
       id="path2989"
       inkscape:connector-curvature="0" />
    <path
       style="fill:none;stroke:#000000;stroke-width:1px;stroke-linecap:butt;stroke-linejoin:miter;stroke-opacity:1"
       d="m 582.43385,529.52621 c 0,-37.92592 0,-75.85185 0,-113.77778 0,-7.22398 0,-14.44797 0,-21.67195 0,-1.806 0,-3.612 0,-5.41799 0,-0.903 -0.40383,-1.90133 0,-2.709 0.57111,-1.14221 2.30517,-1.49749 2.709,-2.70899 0.57111,-1.71332 -0.43802,-3.66592 0,-5.41799 0.48972,-1.95888 1.806,-3.61199 2.70899,-5.41799 0.903,-2.70899 2.14898,-5.32691 2.709,-8.12698 0.85774,-4.28869 -1.01384,-12.19861 0,-16.25397 0.48972,-1.95888 2.07048,-3.50244 2.70899,-5.41799 0.57666,-1.72996 -0.7231,-12.82187 0,-13.54497 0.63852,-0.63852 1.806,0 2.709,0"
       id="path2991"
       inkscape:connector-curvature="0" />
    <path
       style="fill:none;stroke:#000000;stroke-width:1px;stroke-linecap:butt;stroke-linejoin:miter;stroke-opacity:1"
       d="m 587.85184,543.07118 c 4.515,-2.70899 9.26039,-5.06656 13.54498,-8.12698 9.3828,-6.702 1.88182,-4.59082 10.83598,-13.54497 8.63276,-8.63277 11.65785,-7.82263 21.67195,-13.54498 2.82683,-1.61533 5.21491,-3.96194 8.12699,-5.41799 2.55406,-1.27703 5.57292,-1.43196 8.12698,-2.70899 9.64017,-4.82008 -7.13486,-1.05746 8.12699,-5.41799 6.69583,-5.66701 14.53312,-1.28123 21.67195,-2.70899 1.97996,-0.396 3.4263,-2.37705 5.41799,-2.709 3.56285,-0.59381 7.29413,0.70837 10.83598,0 0.40871,-0.0817 4.53065,-4.82643 5.41799,-5.41799 1.68005,-1.12003 3.73794,-1.58896 5.41799,-2.70899 1.06255,-0.70837 1.64644,-2.00063 2.70899,-2.709 1.68005,-1.12003 3.73795,-1.58896 5.41799,-2.70899 1.06256,-0.70837 1.64644,-2.00063 2.709,-2.709 3.36009,-2.24006 7.47588,-3.17792 10.83598,-5.41799 2.05996,-1.37331 5.41799,-7.07449 5.41799,-2.70899 0,0.903 -1.806,0 -2.709,0"
       id="path2993"
       inkscape:connector-curvature="0" />
    <path
       style="fill:none;stroke:#000000;stroke-width:2.5999999;stroke-linecap:butt;stroke-linejoin:miter;stroke-miterlimit:4;stroke-opacity:1;stroke-dasharray:2.6, 7.8;stroke-dashoffset:0;marker-end:url(#Arrow1Lend)"
       d="m 138.15873,838.3516 c -0.903,-12.64197 0.36494,-25.63016 -2.709,-37.92592 -1.57929,-6.31719 -7.38483,-10.73213 -10.83598,-16.25397 -1.07015,-1.71225 -1.58896,-3.73794 -2.70899,-5.41799 -1.64403,-2.46604 -6.92644,-5.7259 -8.12698,-8.12698 -0.40384,-0.80767 0.19588,-1.8275 0,-2.709 -1.61534,-7.26899 -3.80266,-14.40296 -5.41799,-21.67196 -0.57054,-2.56741 0.37253,-5.51927 0,-8.12698 -0.77679,-5.43752 -1.51746,-10.89204 -2.709,-16.25397 -4.25541,-19.14933 -3.36227,5.8016 -5.41799,-27.08994 -0.506944,-8.11116 0,-16.25397 0,-24.38096 0,-10.83597 0,-21.67195 0,-32.50793 0,-9.02998 0,-18.05997 0,-27.08995 0,-5.11955 -1.615329,-11.92964 2.709,-16.25397 2.3022,-2.3022 5.41799,-3.61199 8.12698,-5.41799 2.709,-1.80599 5.41799,-3.61199 8.12699,-5.41799 2.70899,-1.80599 5.03825,-4.38841 8.12698,-5.41799 2.56998,-0.85665 5.61175,1.0061 8.12698,0 2.37139,-0.94855 3.0466,-4.46943 5.41799,-5.41798 2.51524,-1.0061 5.41799,0 8.12699,0 8.12698,0 16.25397,0 24.38095,0 6.32099,0 12.64197,0 18.96296,0 2.709,0 5.55701,-0.85666 8.12699,0 2.41208,0.80402 4.86483,6.83629 5.41799,8.12698 1.91554,4.46961 3.71054,8.9918 5.41798,13.54497 1.00265,2.67372 1.43197,5.57292 2.709,8.12699 1.45604,2.91208 3.74289,5.33515 5.41799,8.12698 1.03885,1.73142 1.58896,3.73794 2.70899,5.41799 1.1101,1.66514 12.09115,15.5707 13.54498,18.96296 1.46662,3.42212 1.32625,7.37912 2.70899,10.83598 0.47428,1.1857 2.13789,1.56678 2.709,2.709 1.27703,2.55406 1.43196,5.57292 2.70899,8.12698 0.57111,1.14221 2.00063,1.64644 2.709,2.709 2.24006,3.36009 3.17792,7.47588 5.41798,10.83597 0.70837,1.06256 1.94278,1.68737 2.709,2.709 1.95348,2.60464 2.91681,6.04267 5.41799,8.12698 3.10233,2.58528 7.54985,3.07076 10.83598,5.41799 3.11749,2.22678 4.93932,6.00188 8.12698,8.12699 2.37595,1.58396 5.47569,1.64847 8.12699,2.70899 1.87474,0.7499 3.61199,1.806 5.41798,2.709 1.806,0.90299 3.73795,1.58896 5.41799,2.70899 1.06256,0.70837 1.68737,1.94278 2.709,2.70899 5.81148,4.35862 9.15292,6.70678 16.25397,8.12699 1.77092,0.35418 3.61199,0 5.41799,0 2.70899,0 5.41799,0 8.12698,0 6.32099,0 12.64198,0 18.96296,0 6.32099,0 12.64198,0 18.96297,0 2.70899,0 5.47059,0.53128 8.12698,0 2.81347,-0.56269 12.6332,-7.39757 13.54497,-8.12699 1.99439,-1.59551 3.2279,-4.10393 5.41799,-5.41798 2.4486,-1.46916 5.57292,-1.43197 8.12699,-2.709 1.14221,-0.57111 1.80599,-1.806 2.70899,-2.70899 1.806,-1.806 3.88555,-3.37474 5.41799,-5.41799 5.48216,-7.30955 -0.0454,-4.43936 5.41799,-13.54498 2.62811,-4.38018 7.64496,-6.8472 10.83598,-10.83598 4.64197,-5.80246 7.55184,-12.39468 10.83598,-18.96296 0.903,-1.80599 1.49749,-3.80266 2.70899,-5.41799 5.29205,-7.05606 5.50409,-2.9673 8.12699,-10.83598 0.28555,-0.85666 -0.21901,-1.83295 0,-2.70899 0.69256,-2.77027 2.23954,-5.31031 2.70899,-8.12698 0.44536,-2.67214 0,-5.41799 0,-8.12699 0,-2.70899 0,-5.41799 0,-8.12698 0,-10.83598 0,-21.67196 0,-32.50794 0,-11.73898 0,-23.47795 0,-35.21693 0,-1.806 0,-3.61199 0,-5.41799 0,-1.806 0.57111,-3.70467 0,-5.41799 -0.80767,-2.423 -4.00125,-3.29288 -5.41799,-5.41799 -1.98639,-2.97959 -6.26003,-14.38701 -8.12698,-16.25397 -0.63852,-0.63851 -2.30516,0.80767 -2.709,0 -0.80766,-1.61533 0,-3.61199 0,-5.41799 0,-8.12698 0,-16.25396 0,-24.38095 0,-0.903 0,-1.80599 0,-2.70899 0,-0.903 -0.63851,-2.07048 0,-2.709 1.27703,-1.27703 3.70467,0.57111 5.41799,0 1.91555,-0.63851 3.50244,-2.07048 5.41799,-2.70899 0.85666,-0.28555 2.07048,0.63851 2.709,0 0.63851,-0.63852 -0.63852,-2.07048 0,-2.709 1.27703,-1.27703 4.14095,1.27704 5.41798,0 0.63852,-0.63851 -0.90299,-2.70899 0,-2.70899 0.903,0 0,3.61199 0,2.70899 0,-1.80599 0.80767,-3.80265 0,-5.41799 -0.40383,-0.80766 -1.85233,0.28556 -2.70899,0 -1.91555,-0.63851 -3.50244,-2.07047 -5.41799,-2.70899 -7.716,-2.572 4.35638,9.77437 -10.83598,-5.41799 -2.3022,-2.3022 -3.11578,-5.82478 -5.41799,-8.12698 -0.63851,-0.63852 -1.80599,0 -2.70899,0 -2.709,-3.612 -5.80404,-6.96441 -8.12699,-10.83598 -0.46458,-0.77432 0,-1.806 0,-2.709 -1.80599,-1.80599 -3.37473,-3.88555 -5.41799,-5.41799 -10.94825,-8.21119 -1.28681,-0.42893 -8.12698,-2.70899 -19.62238,-6.54079 4.27102,0.78101 -8.12698,-5.41799 -5.9891,-2.99455 -6.21842,-2.70899 -10.83598,-2.70899 -0.903,0 -1.85234,0.28555 -2.709,0 -1.91555,-0.63852 -3.50244,-2.07048 -5.41799,-2.709 -2.56997,-0.85666 -5.557,0.85666 -8.12698,0 -1.2115,-0.40383 -1.56678,-2.13789 -2.70899,-2.70899 -0.80767,-0.40384 -1.83296,0.21901 -2.709,0 -2.70899,-0.903 -5.41799,-1.806 -8.12698,-2.709 -0.903,0 -1.83296,0.21901 -2.709,0 -3.52435,-0.88109 -10.18197,-3.17599 -13.54497,-5.41799 -1.06256,-0.70837 -1.56678,-2.13789 -2.709,-2.70899 -1.61533,-0.80767 -3.86936,0.92917 -5.41799,0 -3.87157,-2.32295 -1.21775,-0.656 -5.08932,-2.97895 -1.54863,-0.92917 -2.96461,1.64572 -4.57994,0.83805 -1.14222,-0.5711 -0.52696,14.03205 -0.91318,15.24928 -1.88515,5.94142 -5.57981,11.60483 -10.01201,11.73273 -4.76055,0.13737 -8.82209,-0.12701 -14.06847,-1.42257 -1.23979,-0.30616 -9.54808,-5.71199 -10.61064,-6.42036 -1.68004,-1.12003 -1.22378,-11.04699 -2.90383,-12.16702 -1.06255,-0.70837 0.46849,-16.14533 -0.67372,-16.71644 -1.61533,-0.80767 1.36624,-13.92764 0.0892,-15.20467 -0.63852,-0.63852 0,-1.806 0,-2.70899"
       id="path2995"
       inkscape:connector-curvature="0"
       sodipodi:nodetypes="csssscssssssssssssssssssssssssssssssssssssssssssssssssssssssssssssssssssssscssssssssscccssssssssccsssssssssssssc" />
    <g
       id="g3038">
      <path
         inkscape:connector-curvature="0"
         id="path2997"
         d="m 144.25397,816.34102 c 0.67725,0 1.35449,0 2.03174,0 0.13387,0 1.5485,0.0723 1.69312,0 0.14278,-0.0714 0.22575,-0.22575 0.33863,-0.33862 0.11287,-0.11288 0.26723,-0.19585 0.33862,-0.33863 0.054,-0.10791 0,-1.39048 0,-1.69312 0,-0.4515 0,-0.903 0,-1.3545 0,-0.33862 0.0821,-0.68736 0,-1.01587 -0.0387,-0.15486 -0.18718,-0.28814 -0.33862,-0.33862 -0.21417,-0.0714 -0.47533,0.10095 -0.67725,0 -0.10096,-0.0505 0.0798,-0.25881 0,-0.33863 -0.027,-0.027 -0.54191,0.0226 -0.67725,0 -0.56772,-0.0946 -1.1254,-0.244 -1.69312,-0.33862 -0.31437,-0.0524 -0.69665,0 -1.01587,0 -0.11288,0 -0.23767,-0.0505 -0.33863,0 -0.74871,0.37436 -0.10508,0.21016 -0.33862,0.67725 -0.0714,0.14277 -0.26724,0.19584 -0.33863,0.33862 -0.10514,0.2103 0.10849,1.81476 0,2.03175 -0.0714,0.14277 -0.39467,0.18916 -0.33862,0.33862 0.31953,0.85208 0.903,1.58025 1.3545,2.37037 z"
         style="fill:none;stroke:#000000;stroke-width:1px;stroke-linecap:butt;stroke-linejoin:miter;stroke-opacity:1" />
      <path
         inkscape:connector-curvature="0"
         id="path2999"
         d="m 144.93122,817.01827 c 0.0936,0.0234 1.51101,0.13094 1.69312,0.67725 0.0714,0.21416 -0.0714,0.46308 0,0.67725 0.0505,0.15143 0.25007,0.2058 0.33862,0.33862 0.14001,0.21001 0.25881,0.43781 0.33863,0.67725 0.0714,0.21417 -0.0714,0.46308 0,0.67725 0.0798,0.23944 0.19862,0.46724 0.33862,0.67725 0.0885,0.13282 0.28815,0.18718 0.33862,0.33862 0.0714,0.21417 -0.12522,0.48942 0,0.67725 0.14001,0.21001 0.49878,0.16015 0.67725,0.33863 0.0798,0.0798 -0.0505,0.23766 0,0.33862 0.0714,0.14278 0.25008,0.2058 0.33863,0.33862 0.14,0.21001 0.19862,0.46725 0.33862,0.67725 0.0885,0.13282 0.26724,0.19585 0.33863,0.33863 0.10095,0.20191 -0.0548,0.45824 0,0.67725 0.0866,0.34628 0.26862,0.66586 0.33862,1.01587 0.0443,0.22136 -0.0371,0.45457 0,0.67725 0.0765,0.45906 0.27281,0.89378 0.33862,1.35449 0.0798,0.55871 0,1.12875 0,1.69313 0,0.14244 0.0504,1.93101 0,2.03174 -0.0714,0.14278 -0.19584,0.26724 -0.33862,0.33863 -0.10096,0.0505 -0.22575,0 -0.33862,0 -0.22575,0 -0.4515,0 -0.67725,0 -0.67725,0 -1.3545,0 -2.03175,0 -0.67725,0 -1.3545,0 -2.03174,0 -0.22575,0 -0.4515,0 -0.67725,0 -0.11288,0 -0.23767,0.0505 -0.33863,0 -0.59329,-0.29665 -0.21498,-0.26512 -0.33862,-0.67725 -0.3077,-1.02567 -0.64993,-2.04127 -1.01588,-3.04762 -0.0863,-0.2372 -0.22574,-0.4515 -0.33862,-0.67725 -0.11287,-0.56437 -0.15662,-1.14711 -0.33862,-1.69312 -0.0505,-0.15144 -0.26724,-0.19585 -0.33863,-0.33863 -0.0505,-0.10095 0,-0.22575 0,-0.33862 0,-0.67725 0,-1.3545 0,-2.03175 0,-0.90299 0,-1.80599 0,-2.70899 0,-0.56437 0,-1.12875 0,-1.69312 0,-0.11288 0,-0.22575 0,-0.33863 0,-0.11287 -0.0798,-0.25881 0,-0.33862 0.0798,-0.0798 0.33863,-0.11288 0.33863,0 0,0.11287 -0.4515,0 -0.33863,0 0.33863,0 0.68383,0.0664 1.01587,0 1.94552,-0.3891 -0.0972,-0.33863 1.01588,-0.33863"
         style="fill:none;stroke:#000000;stroke-width:1px;stroke-linecap:butt;stroke-linejoin:miter;stroke-opacity:1" />
      <path
         inkscape:connector-curvature="0"
         id="path3001"
         d="m 143.23809,815.32515 c -1.03621,-1.33034 -1.48708,-2.98886 -2.37037,-4.40212 -0.0598,-0.0957 -0.23766,0.0505 -0.33862,0 -0.14278,-0.0714 -0.18719,-0.28814 -0.33863,-0.33862 -0.002,-5.1e-4 -1.01555,3.2e-4 -1.01587,0 -0.0798,-0.0798 0.0798,-0.25881 0,-0.33863 -0.0525,-0.0525 -0.8841,0.0439 -1.01587,0 -0.55654,-0.18551 -0.88891,-0.59254 -1.01587,-0.33862 -0.10096,0.20192 0,0.4515 0,0.67725 0,0.22575 0,0.4515 0,0.67725 0,0.17707 -0.0445,1.26546 0,1.35449 0.0816,0.16321 1.3452,1.34753 1.35449,1.3545 0.20192,0.15144 0.43781,0.25881 0.67725,0.33863 0.10708,0.0357 0.25881,-0.0798 0.33863,0 0.0798,0.0798 -0.0798,0.25881 0,0.33862 0.70062,0.70063 -0.0274,-1.07065 0.67724,0.33862 0.0505,0.10096 -0.0505,0.23767 0,0.33863 0.0714,0.14277 0.26724,0.19585 0.33863,0.33862 0.0505,0.10096 -0.0798,0.25881 0,0.33863 0.16931,0.16931 0.84656,-0.16932 1.01587,0 0.0798,0.0798 0.11288,0.33862 0,0.33862 -0.11287,0 0,-0.4515 0,-0.33862 0,0.63962 0,0.97825 0,0.33862"
         style="fill:none;stroke:#000000;stroke-width:1px;stroke-linecap:butt;stroke-linejoin:miter;stroke-opacity:1" />
      <path
         inkscape:connector-curvature="0"
         id="path3003"
         d="m 148.31746,832.93361 c 0,2.59612 0,5.19224 0,7.78836 0,0.4515 0,0.903 0,1.3545 0,0.33863 -0.0821,0.68736 0,1.01587 0.0387,0.15487 0.25008,0.20581 0.33862,0.33863 0.32898,0.49347 0.21141,0.70531 0.67725,1.01587 0.21001,0.14001 0.46724,0.19862 0.67725,0.33863 0.81102,0.54068 -0.30475,0.4007 1.3545,0.67724 0.33401,0.0557 0.68382,-0.0664 1.01587,0 0.49499,0.099 0.87561,0.51762 1.3545,0.67725 0.30476,0.10159 0.71111,-0.10158 1.01587,0 0.15144,0.0505 0.19585,0.26724 0.33863,0.33863 0.10095,0.0505 0.22574,0 0.33862,0 0.22575,0 0.45824,-0.0548 0.67725,0 0.24486,0.0612 0.4429,0.24488 0.67725,0.33862 0.33141,0.13257 0.68446,0.20606 1.01587,0.33863 0.23434,0.0937 0.46724,0.19862 0.67725,0.33862 0.14353,0.0957 0.94582,0.87577 1.01587,1.01587 0.10096,0.20192 -0.15963,0.51762 0,0.67725 0.4515,0.4515 0.33863,-0.56437 0.33863,0.33863 0,0.4515 0,0.90299 0,1.35449 0,0.11288 -0.0798,0.25881 0,0.33863 0.0798,0.0798 0.25881,0.0798 0.33862,0 0.0798,-0.0798 0,-0.22575 0,-0.33863 0,-0.22575 0,-0.4515 0,-0.67725 0,-0.56437 0,-1.12874 0,-1.69312 0,-0.11287 0.0274,-0.22912 0,-0.33862 -0.1335,-0.53402 -0.8827,-2.48705 -1.01587,-2.709 -0.0545,-0.0908 -0.89402,0.0305 -1.01588,0 -0.34628,-0.0866 -0.66958,-0.25205 -1.01587,-0.33862 -0.1095,-0.0274 -0.23766,0.0505 -0.33862,0 -0.14278,-0.0714 -0.18719,-0.28815 -0.33863,-0.33862 -0.16103,-0.0537 -2.40535,0 -2.70899,0 -0.24209,0 -1.85841,0.0578 -2.03175,0 -0.15144,-0.0505 -0.19585,-0.26724 -0.33862,-0.33863 -0.10096,-0.0505 -0.25881,0.0798 -0.33863,0 -0.0798,-0.0798 0.0505,-0.23766 0,-0.33862 -0.0714,-0.14278 -0.26723,-0.19585 -0.33862,-0.33863 -0.0505,-0.10096 0.0798,-0.25881 0,-0.33862 -0.0798,-0.0798 -0.25881,0.0798 -0.33863,0 -0.0798,-0.0798 0.0357,-0.23154 0,-0.33863 -0.15962,-0.47888 -0.51762,-0.87561 -0.67724,-1.35449 -0.0714,-0.21417 0,-0.4515 0,-0.67725 0,-0.4515 0,-0.903 0,-1.3545 0,-0.22575 0.0443,-0.45588 0,-0.67725 -0.07,-0.35001 -0.25206,-0.66959 -0.33863,-1.01587 -0.0274,-0.10951 0,-0.22575 0,-0.33863 0,-0.22575 0,-0.45149 0,-0.67724 0,-0.56438 0,-1.12875 0,-1.69313 0,-0.11287 0,-0.22575 0,-0.33862 0,-0.11287 0.0505,-0.23767 0,-0.33862 -0.29434,-0.58869 -0.67725,-1.12875 -1.01587,-1.69313 z"
         style="fill:none;stroke:#000000;stroke-width:1px;stroke-linecap:butt;stroke-linejoin:miter;stroke-opacity:1" />
    </g>
    <g
       id="g3032"
       transform="matrix(-0.73537024,0.67766556,-0.67766556,-0.73537024,732.5256,850.88329)">
      <path
         inkscape:connector-curvature="0"
         id="path2997-3"
         d="m 195.72957,554.25639 c 0.67725,0 1.35449,0 2.03174,0 0.13387,0 1.5485,0.0723 1.69312,0 0.14278,-0.0714 0.22575,-0.22575 0.33863,-0.33862 0.11287,-0.11288 0.26723,-0.19585 0.33862,-0.33863 0.054,-0.10791 0,-1.39048 0,-1.69312 0,-0.4515 0,-0.903 0,-1.3545 0,-0.33862 0.0821,-0.68736 0,-1.01587 -0.0387,-0.15486 -0.18718,-0.28814 -0.33862,-0.33862 -0.21417,-0.0714 -0.47533,0.10095 -0.67725,0 -0.10096,-0.0505 0.0798,-0.25881 0,-0.33863 -0.027,-0.027 -0.54191,0.0226 -0.67725,0 -0.56772,-0.0946 -1.1254,-0.244 -1.69312,-0.33862 -0.31437,-0.0524 -0.69665,0 -1.01587,0 -0.11288,0 -0.23767,-0.0505 -0.33863,0 -0.74871,0.37436 -0.10508,0.21016 -0.33862,0.67725 -0.0714,0.14277 -0.26724,0.19584 -0.33863,0.33862 -0.10514,0.2103 0.10849,1.81476 0,2.03175 -0.0714,0.14277 -0.39467,0.18916 -0.33862,0.33862 0.31953,0.85208 0.903,1.58025 1.3545,2.37037 z"
         style="fill:none;stroke:#000000;stroke-width:1px;stroke-linecap:butt;stroke-linejoin:miter;stroke-opacity:1" />
      <path
         inkscape:connector-curvature="0"
         id="path2999-6"
         d="m 196.40682,554.93364 c 0.0936,0.0234 1.51101,0.13094 1.69312,0.67725 0.0714,0.21416 -0.0714,0.46308 0,0.67725 0.0505,0.15143 0.25007,0.2058 0.33862,0.33862 0.14001,0.21001 0.25881,0.43781 0.33863,0.67725 0.0714,0.21417 -0.0714,0.46308 0,0.67725 0.0798,0.23944 0.19862,0.46724 0.33862,0.67725 0.0885,0.13282 0.28815,0.18718 0.33862,0.33862 0.0714,0.21417 -0.12522,0.48942 0,0.67725 0.14001,0.21001 0.49878,0.16015 0.67725,0.33863 0.0798,0.0798 -0.0505,0.23766 0,0.33862 0.0714,0.14278 0.25008,0.2058 0.33863,0.33862 0.14,0.21001 0.19862,0.46725 0.33862,0.67725 0.0885,0.13282 0.26724,0.19585 0.33863,0.33863 0.10095,0.20191 -0.0548,0.45824 0,0.67725 0.0866,0.34628 0.26862,0.66586 0.33862,1.01587 0.0443,0.22136 -0.0371,0.45457 0,0.67725 0.0765,0.45906 0.27281,0.89378 0.33862,1.35449 0.0798,0.55871 0,1.12875 0,1.69313 0,0.14244 0.0504,1.93101 0,2.03174 -0.0714,0.14278 -0.19584,0.26724 -0.33862,0.33863 -0.10096,0.0505 -0.22575,0 -0.33862,0 -0.22575,0 -0.4515,0 -0.67725,0 -0.67725,0 -1.3545,0 -2.03175,0 -0.67725,0 -1.3545,0 -2.03174,0 -0.22575,0 -0.4515,0 -0.67725,0 -0.11288,0 -0.23767,0.0505 -0.33863,0 -0.59329,-0.29665 -0.21498,-0.26512 -0.33862,-0.67725 -0.3077,-1.02567 -0.64993,-2.04127 -1.01588,-3.04762 -0.0863,-0.2372 -0.22574,-0.4515 -0.33862,-0.67725 -0.11287,-0.56437 -0.15662,-1.14711 -0.33862,-1.69312 -0.0505,-0.15144 -0.26724,-0.19585 -0.33863,-0.33863 -0.0505,-0.10095 0,-0.22575 0,-0.33862 0,-0.67725 0,-1.3545 0,-2.03175 0,-0.90299 0,-1.80599 0,-2.70899 0,-0.56437 0,-1.12875 0,-1.69312 0,-0.11288 0,-0.22575 0,-0.33863 0,-0.11287 -0.0798,-0.25881 0,-0.33862 0.0798,-0.0798 0.33863,-0.11288 0.33863,0 0,0.11287 -0.4515,0 -0.33863,0 0.33863,0 0.68383,0.0664 1.01587,0 1.94552,-0.3891 -0.0972,-0.33863 1.01588,-0.33863"
         style="fill:none;stroke:#000000;stroke-width:1px;stroke-linecap:butt;stroke-linejoin:miter;stroke-opacity:1" />
      <path
         inkscape:connector-curvature="0"
         id="path3001-7"
         d="m 194.71369,553.24052 c -1.03621,-1.33034 -1.48708,-2.98886 -2.37037,-4.40212 -0.0598,-0.0957 -0.23766,0.0505 -0.33862,0 -0.14278,-0.0714 -0.18719,-0.28814 -0.33863,-0.33862 -0.002,-5.1e-4 -1.01555,3.2e-4 -1.01587,0 -0.0798,-0.0798 0.0798,-0.25881 0,-0.33863 -0.0525,-0.0525 -0.8841,0.0439 -1.01587,0 -0.55654,-0.18551 -0.88891,-0.59254 -1.01587,-0.33862 -0.10096,0.20192 0,0.4515 0,0.67725 0,0.22575 0,0.4515 0,0.67725 0,0.17707 -0.0445,1.26546 0,1.35449 0.0816,0.16321 1.3452,1.34753 1.35449,1.3545 0.20192,0.15144 0.43781,0.25881 0.67725,0.33863 0.10708,0.0357 0.25881,-0.0798 0.33863,0 0.0798,0.0798 -0.0798,0.25881 0,0.33862 0.70062,0.70063 -0.0274,-1.07065 0.67724,0.33862 0.0505,0.10096 -0.0505,0.23767 0,0.33863 0.0714,0.14277 0.26724,0.19585 0.33863,0.33862 0.0505,0.10096 -0.0798,0.25881 0,0.33863 0.16931,0.16931 0.84656,-0.16932 1.01587,0 0.0798,0.0798 0.11288,0.33862 0,0.33862 -0.11287,0 0,-0.4515 0,-0.33862 0,0.63962 0,0.97825 0,0.33862"
         style="fill:none;stroke:#000000;stroke-width:1px;stroke-linecap:butt;stroke-linejoin:miter;stroke-opacity:1" />
      <path
         inkscape:connector-curvature="0"
         id="path3003-5"
         d="m 199.79306,570.84898 c 0,2.59612 0,5.19224 0,7.78836 0,0.4515 0,0.903 0,1.3545 0,0.33863 -0.0821,0.68736 0,1.01587 0.0387,0.15487 0.25008,0.20581 0.33862,0.33863 0.32898,0.49347 0.21141,0.70531 0.67725,1.01587 0.21001,0.14001 0.46724,0.19862 0.67725,0.33863 0.81102,0.54068 -0.30475,0.4007 1.3545,0.67724 0.33401,0.0557 0.68382,-0.0664 1.01587,0 0.49499,0.099 0.87561,0.51762 1.3545,0.67725 0.30476,0.10159 0.71111,-0.10158 1.01587,0 0.15144,0.0505 0.19585,0.26724 0.33863,0.33863 0.10095,0.0505 0.22574,0 0.33862,0 0.22575,0 0.45824,-0.0548 0.67725,0 0.24486,0.0612 0.4429,0.24488 0.67725,0.33862 0.33141,0.13257 0.68446,0.20606 1.01587,0.33863 0.23434,0.0937 0.46724,0.19862 0.67725,0.33862 0.14353,0.0957 0.94582,0.87577 1.01587,1.01587 0.10096,0.20192 -0.15963,0.51762 0,0.67725 0.4515,0.4515 0.33863,-0.56437 0.33863,0.33863 0,0.4515 0,0.90299 0,1.35449 0,0.11288 -0.0798,0.25881 0,0.33863 0.0798,0.0798 0.25881,0.0798 0.33862,0 0.0798,-0.0798 0,-0.22575 0,-0.33863 0,-0.22575 0,-0.4515 0,-0.67725 0,-0.56437 0,-1.12874 0,-1.69312 0,-0.11287 0.0274,-0.22912 0,-0.33862 -0.1335,-0.53402 -0.8827,-2.48705 -1.01587,-2.709 -0.0545,-0.0908 -0.89402,0.0305 -1.01588,0 -0.34628,-0.0866 -0.66958,-0.25205 -1.01587,-0.33862 -0.1095,-0.0274 -0.23766,0.0505 -0.33862,0 -0.14278,-0.0714 -0.18719,-0.28815 -0.33863,-0.33862 -0.16103,-0.0537 -2.40535,0 -2.70899,0 -0.24209,0 -1.85841,0.0578 -2.03175,0 -0.15144,-0.0505 -0.19585,-0.26724 -0.33862,-0.33863 -0.10096,-0.0505 -0.25881,0.0798 -0.33863,0 -0.0798,-0.0798 0.0505,-0.23766 0,-0.33862 -0.0714,-0.14278 -0.26723,-0.19585 -0.33862,-0.33863 -0.0505,-0.10096 0.0798,-0.25881 0,-0.33862 -0.0798,-0.0798 -0.25881,0.0798 -0.33863,0 -0.0798,-0.0798 0.0357,-0.23154 0,-0.33863 -0.15962,-0.47888 -0.51762,-0.87561 -0.67724,-1.35449 -0.0714,-0.21417 0,-0.4515 0,-0.67725 0,-0.4515 0,-0.903 0,-1.3545 0,-0.22575 0.0443,-0.45588 0,-0.67725 -0.07,-0.35001 -0.25206,-0.66959 -0.33863,-1.01587 -0.0274,-0.10951 0,-0.22575 0,-0.33863 0,-0.22575 0,-0.45149 0,-0.67724 0,-0.56438 0,-1.12875 0,-1.69313 0,-0.11287 0,-0.22575 0,-0.33862 0,-0.11287 0.0505,-0.23767 0,-0.33862 -0.29434,-0.58869 -0.67725,-1.12875 -1.01587,-1.69313 z"
         style="fill:none;stroke:#000000;stroke-width:1px;stroke-linecap:butt;stroke-linejoin:miter;stroke-opacity:1" />
    </g>
    <g
       id="g3057"
       transform="translate(3.3862433,-16.253968)">
      <path
         inkscape:connector-curvature="0"
         id="path2997-35"
         d="m 454.77718,537.32518 c 0.67725,0 1.35449,0 2.03174,0 0.13387,0 1.5485,0.0723 1.69312,0 0.14278,-0.0714 0.22575,-0.22575 0.33863,-0.33862 0.11287,-0.11288 0.26723,-0.19585 0.33862,-0.33863 0.054,-0.10791 0,-1.39048 0,-1.69312 0,-0.4515 0,-0.903 0,-1.3545 0,-0.33862 0.0821,-0.68736 0,-1.01587 -0.0387,-0.15486 -0.18718,-0.28814 -0.33862,-0.33862 -0.21417,-0.0714 -0.47533,0.10095 -0.67725,0 -0.10096,-0.0505 0.0798,-0.25881 0,-0.33863 -0.027,-0.027 -0.54191,0.0226 -0.67725,0 -0.56772,-0.0946 -1.1254,-0.244 -1.69312,-0.33862 -0.31437,-0.0524 -0.69665,0 -1.01587,0 -0.11288,0 -0.23767,-0.0505 -0.33863,0 -0.74871,0.37436 -0.10508,0.21016 -0.33862,0.67725 -0.0714,0.14277 -0.26724,0.19584 -0.33863,0.33862 -0.10514,0.2103 0.10849,1.81476 0,2.03175 -0.0714,0.14277 -0.39467,0.18916 -0.33862,0.33862 0.31953,0.85208 0.903,1.58025 1.3545,2.37037 z"
         style="fill:none;stroke:#000000;stroke-width:1px;stroke-linecap:butt;stroke-linejoin:miter;stroke-opacity:1" />
      <path
         inkscape:connector-curvature="0"
         id="path2999-62"
         d="m 455.45443,538.00243 c 0.0936,0.0234 1.51101,0.13094 1.69312,0.67725 0.0714,0.21416 -0.0714,0.46308 0,0.67725 0.0505,0.15143 0.25007,0.2058 0.33862,0.33862 0.14001,0.21001 0.25881,0.43781 0.33863,0.67725 0.0714,0.21417 -0.0714,0.46308 0,0.67725 0.0798,0.23944 0.19862,0.46724 0.33862,0.67725 0.0885,0.13282 0.28815,0.18718 0.33862,0.33862 0.0714,0.21417 -0.12522,0.48942 0,0.67725 0.14001,0.21001 0.49878,0.16015 0.67725,0.33863 0.0798,0.0798 -0.0505,0.23766 0,0.33862 0.0714,0.14278 0.25008,0.2058 0.33863,0.33862 0.14,0.21001 0.19862,0.46725 0.33862,0.67725 0.0885,0.13282 0.26724,0.19585 0.33863,0.33863 0.10095,0.20191 -0.0548,0.45824 0,0.67725 0.0866,0.34628 0.26862,0.66586 0.33862,1.01587 0.0443,0.22136 -0.0371,0.45457 0,0.67725 0.0765,0.45906 0.27281,0.89378 0.33862,1.35449 0.0798,0.55871 0,1.12875 0,1.69313 0,0.14244 0.0504,1.93101 0,2.03174 -0.0714,0.14278 -0.19584,0.26724 -0.33862,0.33863 -0.10096,0.0505 -0.22575,0 -0.33862,0 -0.22575,0 -0.4515,0 -0.67725,0 -0.67725,0 -1.3545,0 -2.03175,0 -0.67725,0 -1.3545,0 -2.03174,0 -0.22575,0 -0.4515,0 -0.67725,0 -0.11288,0 -0.23767,0.0505 -0.33863,0 -0.59329,-0.29665 -0.21498,-0.26512 -0.33862,-0.67725 -0.3077,-1.02567 -0.64993,-2.04127 -1.01588,-3.04762 -0.0863,-0.2372 -0.22574,-0.4515 -0.33862,-0.67725 -0.11287,-0.56437 -0.15662,-1.14711 -0.33862,-1.69312 -0.0505,-0.15144 -0.26724,-0.19585 -0.33863,-0.33863 -0.0505,-0.10095 0,-0.22575 0,-0.33862 0,-0.67725 0,-1.3545 0,-2.03175 0,-0.90299 0,-1.80599 0,-2.70899 0,-0.56437 0,-1.12875 0,-1.69312 0,-0.11288 0,-0.22575 0,-0.33863 0,-0.11287 -0.0798,-0.25881 0,-0.33862 0.0798,-0.0798 0.33863,-0.11288 0.33863,0 0,0.11287 -0.4515,0 -0.33863,0 0.33863,0 0.68383,0.0664 1.01587,0 1.94552,-0.3891 -0.0972,-0.33863 1.01588,-0.33863"
         style="fill:none;stroke:#000000;stroke-width:1px;stroke-linecap:butt;stroke-linejoin:miter;stroke-opacity:1" />
      <path
         inkscape:connector-curvature="0"
         id="path3001-9"
         d="m 453.7613,536.30931 c -1.03621,-1.33034 -1.48708,-2.98886 -2.37037,-4.40212 -0.0598,-0.0957 -0.23766,0.0505 -0.33862,0 -0.14278,-0.0714 -0.18719,-0.28814 -0.33863,-0.33862 -0.002,-5.1e-4 -1.01555,3.2e-4 -1.01587,0 -0.0798,-0.0798 0.0798,-0.25881 0,-0.33863 -0.0525,-0.0525 -0.8841,0.0439 -1.01587,0 -0.55654,-0.18551 -0.88891,-0.59254 -1.01587,-0.33862 -0.10096,0.20192 0,0.4515 0,0.67725 0,0.22575 0,0.4515 0,0.67725 0,0.17707 -0.0445,1.26546 0,1.35449 0.0816,0.16321 1.3452,1.34753 1.35449,1.3545 0.20192,0.15144 0.43781,0.25881 0.67725,0.33863 0.10708,0.0357 0.25881,-0.0798 0.33863,0 0.0798,0.0798 -0.0798,0.25881 0,0.33862 0.70062,0.70063 -0.0274,-1.07065 0.67724,0.33862 0.0505,0.10096 -0.0505,0.23767 0,0.33863 0.0714,0.14277 0.26724,0.19585 0.33863,0.33862 0.0505,0.10096 -0.0798,0.25881 0,0.33863 0.16931,0.16931 0.84656,-0.16932 1.01587,0 0.0798,0.0798 0.11288,0.33862 0,0.33862 -0.11287,0 0,-0.4515 0,-0.33862 0,0.63962 0,0.97825 0,0.33862"
         style="fill:none;stroke:#000000;stroke-width:1px;stroke-linecap:butt;stroke-linejoin:miter;stroke-opacity:1" />
      <path
         inkscape:connector-curvature="0"
         id="path3003-1"
         d="m 458.84067,553.91777 c 0,2.59612 0,5.19224 0,7.78836 0,0.4515 0,0.903 0,1.3545 0,0.33863 -0.0821,0.68736 0,1.01587 0.0387,0.15487 0.25008,0.20581 0.33862,0.33863 0.32898,0.49347 0.21141,0.70531 0.67725,1.01587 0.21001,0.14001 0.46724,0.19862 0.67725,0.33863 0.81102,0.54068 -0.30475,0.4007 1.3545,0.67724 0.33401,0.0557 0.68382,-0.0664 1.01587,0 0.49499,0.099 0.87561,0.51762 1.3545,0.67725 0.30476,0.10159 0.71111,-0.10158 1.01587,0 0.15144,0.0505 0.19585,0.26724 0.33863,0.33863 0.10095,0.0505 0.22574,0 0.33862,0 0.22575,0 0.45824,-0.0548 0.67725,0 0.24486,0.0612 0.4429,0.24488 0.67725,0.33862 0.33141,0.13257 0.68446,0.20606 1.01587,0.33863 0.23434,0.0937 0.46724,0.19862 0.67725,0.33862 0.14353,0.0957 0.94582,0.87577 1.01587,1.01587 0.10096,0.20192 -0.15963,0.51762 0,0.67725 0.4515,0.4515 0.33863,-0.56437 0.33863,0.33863 0,0.4515 0,0.90299 0,1.35449 0,0.11288 -0.0798,0.25881 0,0.33863 0.0798,0.0798 0.25881,0.0798 0.33862,0 0.0798,-0.0798 0,-0.22575 0,-0.33863 0,-0.22575 0,-0.4515 0,-0.67725 0,-0.56437 0,-1.12874 0,-1.69312 0,-0.11287 0.0274,-0.22912 0,-0.33862 -0.1335,-0.53402 -0.8827,-2.48705 -1.01587,-2.709 -0.0545,-0.0908 -0.89402,0.0305 -1.01588,0 -0.34628,-0.0866 -0.66958,-0.25205 -1.01587,-0.33862 -0.1095,-0.0274 -0.23766,0.0505 -0.33862,0 -0.14278,-0.0714 -0.18719,-0.28815 -0.33863,-0.33862 -0.16103,-0.0537 -2.40535,0 -2.70899,0 -0.24209,0 -1.85841,0.0578 -2.03175,0 -0.15144,-0.0505 -0.19585,-0.26724 -0.33862,-0.33863 -0.10096,-0.0505 -0.25881,0.0798 -0.33863,0 -0.0798,-0.0798 0.0505,-0.23766 0,-0.33862 -0.0714,-0.14278 -0.26723,-0.19585 -0.33862,-0.33863 -0.0505,-0.10096 0.0798,-0.25881 0,-0.33862 -0.0798,-0.0798 -0.25881,0.0798 -0.33863,0 -0.0798,-0.0798 0.0357,-0.23154 0,-0.33863 -0.15962,-0.47888 -0.51762,-0.87561 -0.67724,-1.35449 -0.0714,-0.21417 0,-0.4515 0,-0.67725 0,-0.4515 0,-0.903 0,-1.3545 0,-0.22575 0.0443,-0.45588 0,-0.67725 -0.07,-0.35001 -0.25206,-0.66959 -0.33863,-1.01587 -0.0274,-0.10951 0,-0.22575 0,-0.33863 0,-0.22575 0,-0.45149 0,-0.67724 0,-0.56438 0,-1.12875 0,-1.69313 0,-0.11287 0,-0.22575 0,-0.33862 0,-0.11287 0.0505,-0.23767 0,-0.33862 -0.29434,-0.58869 -0.67725,-1.12875 -1.01587,-1.69313 z"
         style="fill:none;stroke:#000000;stroke-width:1px;stroke-linecap:butt;stroke-linejoin:miter;stroke-opacity:1" />
    </g>
    <path
       style="fill:none;stroke:#000000;stroke-width:1px;stroke-linecap:butt;stroke-linejoin:miter;stroke-opacity:1"
       d="m 272.25396,341.25108 c 0,-1.806 -1.80599,-5.41799 0,-5.41799 1.806,0 0,7.22399 0,5.41799 0,-4.51499 0,-9.02998 0,-13.54497 0,-0.8898 -0.15925,-5.09948 0,-5.41799 0.20192,-0.40384 0.95067,0.20191 1.3545,0 1.14221,-0.57111 1.56678,-2.13789 2.709,-2.709 0.53704,-0.26852 3.78658,0.27691 4.06349,0 0.31926,-0.31925 -0.31926,-1.03524 0,-1.35449 0.31926,-0.31926 0.903,0 1.3545,0 0.90299,0 1.80599,0 2.70899,0 3.61199,0 -0.4515,0.4515 1.3545,-1.3545 0.31926,-0.31926 0.903,0 1.3545,0 0.45149,0 0.90299,0 1.35449,0 2.709,0 5.41799,0 8.12699,0 0.4515,0 0.90299,0 1.35449,0 0.4515,0 0.95067,-0.20192 1.3545,0 0.57111,0.28555 1.06895,0.78339 1.3545,1.3545 0.20192,0.40383 -0.20192,0.95066 0,1.35449 0.28555,0.57111 1.06894,0.78339 1.3545,1.3545 0.20191,0.40383 0,0.903 0,1.3545 0.4515,0.4515 1.06894,0.78339 1.35449,1.3545 0.40384,0.80766 -0.40383,1.90132 0,2.70899 0.28556,0.57111 1.06895,0.78339 1.3545,1.3545 0.17808,0.35615 0,4.70969 0,5.41799 0,4.06349 0,8.12698 0,12.19047 0,1.806 0,3.612 0,5.41799 0,0.4515 0.4515,1.3545 0,1.3545 -0.4515,0 0,-1.806 0,-1.3545 0,6.77427 0,1.8395 0,6.77249 0,0.4515 0,-1.806 0,-1.3545 0,0.903 0.40383,1.90133 0,2.709 -0.20192,0.40383 -1.3545,0.4515 -1.3545,0 0,-1.64475 6.32099,3.28949 -1.35449,0 -2.41981,-1.03706 -4.41776,-2.88613 -6.77249,-4.0635 -0.80767,-0.40383 -2.07048,0.63852 -2.709,0 -0.31925,-0.31925 0.31926,-1.03524 0,-1.35449 -0.31925,-0.31926 -1.03523,0.31925 -1.35449,0 -0.71389,-0.71389 -0.79448,-1.86897 -1.3545,-2.709 -0.35418,-0.53128 -1.06894,-0.78339 -1.3545,-1.3545 -0.20191,-0.40383 0.20192,-0.95066 0,-1.35449 -0.28555,-0.57111 -1.00031,-0.82322 -1.35449,-1.3545 -0.56002,-0.84002 -1.03524,-1.75122 -1.3545,-2.70899 -0.5605,-1.68151 1.11192,-1.47579 -1.3545,-2.709 -0.49321,-0.24661 -5.41799,0.23749 -5.41799,0 0,-0.4515 1.3545,-0.4515 1.3545,0 0,0.4515 -0.903,0 -1.3545,0 -2.25749,0 -4.51499,0 -6.77249,0 z"
       id="path3065"
       inkscape:connector-curvature="0" />
    <path
       style="fill:#241c1c"
       d="m 301.90057,357.17005 c -0.37249,-0.74498 -2.93995,-2.40033 -5.70546,-3.67856 -3.32995,-1.53912 -5.96975,-4.16961 -7.81589,-7.78836 -2.38182,-4.66876 -3.42457,-5.46732 -7.16227,-5.48504 -2.40602,-0.0114 -5.02626,-0.46855 -5.82274,-1.01587 -2.19295,-1.50693 -2.45942,-14.46134 -0.33272,-16.17496 2.10953,-1.69979 14.50098,-4.46039 20.02123,-4.46039 6.02926,0 8.38336,7.68196 7.88651,25.73545 -0.21528,7.82223 -0.69618,13.6127 -1.06866,12.86773 z"
       id="path3067"
       inkscape:connector-curvature="0" />
  </g>
</svg>
