<?xml version="1.0" encoding="UTF-8" standalone="no"?>
<!-- Created with Inkscape (http://www.inkscape.org/) -->

<svg
   xmlns:dc="http://purl.org/dc/elements/1.1/"
   xmlns:cc="http://creativecommons.org/ns#"
   xmlns:rdf="http://www.w3.org/1999/02/22-rdf-syntax-ns#"
   xmlns:svg="http://www.w3.org/2000/svg"
   xmlns="http://www.w3.org/2000/svg"
   xmlns:sodipodi="http://sodipodi.sourceforge.net/DTD/sodipodi-0.dtd"
   xmlns:inkscape="http://www.inkscape.org/namespaces/inkscape"
   width="210mm"
   height="297mm"
   id="svg2985"
   version="1.1"
   inkscape:version="0.48.5 r10040"
   sodipodi:docname="que-ficava-embaixo-de-uma-raiz.svg"
   inkscape:export-filename="/home/fredm/projetos/o-rato-anderson/que-ficava-embaixo-de-uma-raiz.png"
   inkscape:export-xdpi="90"
   inkscape:export-ydpi="90">
  <defs
     id="defs3" />
  <sodipodi:namedview
     inkscape:document-units="mm"
     id="base"
     pagecolor="#ffffff"
     bordercolor="#666666"
     borderopacity="1.0"
     inkscape:pageopacity="0.0"
     inkscape:pageshadow="2"
     inkscape:zoom="0.2799099"
     inkscape:cx="350"
     inkscape:cy="520"
     inkscape:current-layer="layer1"
     showgrid="false"
     inkscape:window-width="684"
     inkscape:window-height="599"
     inkscape:window-x="590"
     inkscape:window-y="110"
     inkscape:window-maximized="0"
     units="mm" />
  <metadata
     id="metadata4">
    <rdf:RDF>
      <cc:Work
         rdf:about="">
        <dc:format>image/svg+xml</dc:format>
        <dc:type
           rdf:resource="http://purl.org/dc/dcmitype/StillImage" />
        <dc:title></dc:title>
      </cc:Work>
    </rdf:RDF>
  </metadata>
  <g
     inkscape:label="Layer 1"
     inkscape:groupmode="layer"
     id="layer1">
    <path
       style="fill:none;stroke:#000000;stroke-width:0.57363164px;stroke-linecap:butt;stroke-linejoin:miter;stroke-opacity:1"
       d="m 477.17575,668.32805 c 1.40894,-3.74833 1.03853,-7.52042 1.03853,-11.42396 0,-1.03854 -0.20367,-2.09725 0,-3.11562 0.15182,-0.75905 0.8508,-1.32611 1.03855,-2.07708 0.16792,-0.67169 0,-1.38472 0,-2.07708 0,-1.03854 0,-2.07709 0,-3.11562 0,-3.46181 0,-6.92361 0,-10.38542 0,-2.07708 0,-4.15416 0,-6.23124 0,-2.07708 0.57062,-4.23409 0,-6.23125 -0.79185,-2.77147 -6.04749,-11.99612 -8.30833,-14.53958 -1.14995,-1.29369 -2.78787,-2.05294 -4.15416,-3.11562 -1.74971,-1.36088 -3.34836,-2.92459 -5.19271,-4.15416 -2.32225,-1.54817 -4.84653,-2.76944 -7.26979,-4.15417 -2.42326,-1.38472 -4.80714,-2.84075 -7.26979,-4.15416 -4.48901,-2.39415 -11.58465,-6.01179 -16.61665,-7.26979 -2.70767,-0.67692 -5.56514,-0.52419 -8.30833,-1.03854 -2.76944,-0.69236 -5.53888,-1.38472 -8.30833,-2.07708 -1.03854,0 -2.09121,0.17073 -3.11562,0 -1.07983,-0.17997 -2.07708,-0.69236 -3.11563,-1.03854 -1.03853,-0.34618 -2.0992,-0.63198 -3.11562,-1.03854 -0.71872,-0.28749 -1.31803,-0.88674 -2.07708,-1.03855 -2.03675,-0.40734 -4.17504,0.29375 -6.23125,0 -1.41299,-0.20185 -2.74117,-0.83668 -4.15416,-1.03853 -1.02811,-0.14688 -2.07708,0 -3.11563,0 -0.74875,0 -11.28678,0 -11.42395,0 -3.11562,0 -6.23124,0 -9.34686,0 -3.80371,0 -4.64331,-0.33585 -8.30834,1.03853 -5.56354,2.08634 -3.38042,1.69367 -7.26978,6.23125 -0.95583,1.11514 -2.17537,1.98732 -3.11562,3.11563 -0.79907,0.95887 -1.3516,2.09994 -2.07709,3.11562 -1.00606,1.40849 -2.19825,2.68636 -3.11562,4.15416 -0.82052,1.31284 -1.32523,2.80083 -2.07708,4.15417 -1.52541,2.74573 -4.04345,6.28217 -5.19271,9.34687 -0.50117,1.33645 -0.47628,2.84223 -1.03854,4.15416 -0.49167,1.14725 -1.51888,1.99922 -2.07708,3.11563 -3.25057,6.50113 -1.13234,3.397 -3.11563,9.34686 -0.48957,1.46872 -1.70159,2.65222 -2.07708,4.15417 -0.16792,0.67169 0.21895,1.42025 0,2.07708 -0.15481,0.46445 -0.88372,0.57409 -1.03854,1.03854 -0.21894,0.65683 0.13578,1.39817 0,2.07708 -0.21469,1.07346 -0.69236,2.07708 -1.03854,3.11563 0,1.38472 0.13778,2.77631 0,4.15416 -0.20953,2.09528 -0.86367,4.13279 -1.03854,6.23125 -0.17249,2.0699 0,4.15416 0,6.23124 0,5.19271 0,10.38542 0,15.57812 0,3.80798 0,7.61597 0,11.42395 0,3.73473 -0.12881,7.92189 1.03854,11.42395 0.88259,2.64777 2.64492,4.92207 4.15416,7.26979 1.61036,2.50499 3.48497,4.83015 5.19271,7.26979 0.71578,1.02254 1.27803,2.15675 2.07708,3.11562 2.00325,2.40389 9.32199,8.61065 10.38541,9.34687 1.90934,1.32185 4.23994,1.92084 6.23125,3.11562 1.48424,0.89055 2.68636,2.19825 4.15417,3.11562 3.89954,2.43723 4.06397,1.95808 8.30832,3.11563 2.43143,0.66312 4.85585,1.3529 7.26979,2.07708 1.04855,0.31457 2.03191,0.88373 3.11562,1.03855 1.37081,0.19582 2.76945,0 4.15417,0 1.03854,0 2.07708,0 3.11562,0 4.50034,0 9.00069,0 13.50103,0 3.80799,0 7.61597,0 11.42396,0 2.47733,0 4.94702,0.25188 7.26979,-1.03855 1.93768,-1.07649 3.313,-2.97935 5.1927,-4.15416 0.92832,-0.5802 2.17691,-0.47531 3.11562,-1.03855 0.83962,-0.50376 1.26239,-1.53394 2.07708,-2.07708 7.97873,-5.31914 0.37056,1.61111 8.30834,-5.1927 3.03768,-2.60374 3.76865,-3.98634 6.23124,-7.26979 1.03854,-1.38472 1.89169,-2.93023 3.11562,-4.15416 1.22393,-1.22393 2.76945,-2.07708 4.15417,-3.11563 1.03854,-1.7309 1.87634,-3.59935 3.11562,-5.1927 1.20228,-1.54578 2.93083,-2.625 4.15416,-4.15417 1.55946,-1.94931 2.65637,-4.23417 4.15417,-6.23124 0.58748,-0.78332 1.46542,-1.3125 2.07708,-2.07708 0.77973,-0.97466 1.38472,-2.07709 2.07709,-3.11563 1.03853,-1.03854 2.17537,-1.98732 3.11562,-3.11562 1.59811,-1.91774 2.59471,-4.28193 4.15416,-6.23124 5.60708,-7.00885 -2.76141,5.98707 5.19271,-7.26979 z"
       id="path2991"
       inkscape:connector-curvature="0" />
    <path
       style="fill:none;stroke:#000000;stroke-width:0.57363164px;stroke-linecap:butt;stroke-linejoin:miter;stroke-opacity:1"
       d="m 396.16954,648.59577 c -1.38472,-1.03855 -2.66993,-2.22509 -4.15416,-3.11563 -0.34034,-0.2042 -3.55806,0 -4.15416,0 -0.34618,0 -0.69237,0 -1.03855,0 -0.34618,0 -0.79375,-0.24478 -1.03854,0 -0.24478,0.24479 0,0.69236 0,1.03855 0,2.07708 0,4.15416 0,6.23124 0,0.34618 -0.24478,0.79375 0,1.03854 0.24479,0.24479 0.79376,-0.24479 1.03854,0 0.24479,0.24479 -0.24478,0.79376 0,1.03854 0.24479,0.24479 0.69237,0 1.03855,0 0.34618,0 0.69235,0 1.03853,0 2.76945,0 5.53889,0 8.30834,0 0.34618,0 0.79375,0.24479 1.03853,0 0.24479,-0.24478 0.10947,-0.71013 0,-1.03854 -0.58952,-1.76857 -1.38472,-3.4618 -2.07708,-5.1927 z"
       id="path2993"
       inkscape:connector-curvature="0" />
    <path
       style="fill:none;stroke:#000000;stroke-width:0.57363164px;stroke-linecap:butt;stroke-linejoin:miter;stroke-opacity:1"
       d="m 420.05599,649.63431 c -1.38472,-1.03854 -5.19271,-1.73091 -4.15417,-3.11562 1.03855,-1.38473 5.88507,3.11562 4.15417,3.11562 -2.01856,0 -3.38725,-2.2129 -5.19271,-3.11562 -0.61926,-0.30964 -2.07708,0.69235 -2.07708,0 0,-0.34619 1.03854,-0.34619 1.03854,0 0,0.34618 -0.79375,-0.24479 -1.03854,0 -0.24478,0.24478 0,0.69235 0,1.03853 0,3.46181 0,6.92361 0,10.38541 0,0.34619 0,0.69237 0,1.03855 0,0.34618 -0.30963,0.88372 0,1.03854 0.32494,0.16247 5.58771,0 6.23125,0 0.48967,0 5.14563,0.047 5.1927,0 0.24479,-0.24479 0,-0.69236 0,-1.03854 0,-0.63411 0.0973,-3.98395 0,-4.15417 -1.09975,-1.92458 -4.15416,-2.97607 -4.15416,-5.1927 0,-2.21664 2.76944,-3.46181 4.15416,-5.19271"
       id="path2995"
       inkscape:connector-curvature="0" />
    <path
       style="fill:none;stroke:#000000;stroke-width:0.57363164px;stroke-linecap:butt;stroke-linejoin:miter;stroke-opacity:1"
       d="m 388.89975,626.7864 c -0.73118,-0.29907 0.40663,-6.04991 0,-7.26978 -0.15481,-0.46445 -0.81959,-0.60066 -1.03853,-1.03855 -0.15482,-0.30963 0.15481,-0.72891 0,-1.03853 -0.21895,-0.43789 -0.76698,-0.6312 -1.03855,-1.03855 -0.12897,-0.19345 -2.01053,-4.08761 -2.07708,-4.15416 -0.54736,-0.54736 -1.433,-0.60916 -2.07708,-1.03854 -0.40735,-0.27157 -0.69236,-0.69236 -1.03854,-1.03854 -0.69236,-0.69237 -1.38472,-1.38473 -2.07709,-2.07708 -0.34618,-0.34619 -0.60064,-0.8196 -1.03853,-1.03855 -0.30964,-0.15481 -0.69236,0 -1.03855,0 -0.69236,-0.34618 -1.433,-0.60915 -2.07708,-1.03854 -0.40735,-0.27156 -0.60065,-0.81959 -1.03854,-1.03854 -0.61927,-0.30963 -1.42025,0.21895 -2.07708,0 -0.73436,-0.24478 -1.433,-0.60915 -2.07708,-1.03854 -0.40735,-0.27157 -0.56359,-0.9198 -1.03855,-1.03854 -1.00753,-0.25188 -2.07708,0 -3.11562,0 -2.42326,0 -4.84652,0 -7.26978,0 -1.64731,0 -7.38557,-0.26365 -8.30834,0 -2.44596,0.69885 -4.459,3.77491 -6.23124,5.19271 -0.60446,0.48356 -1.52972,0.49117 -2.07708,1.03853 -0.54736,0.54736 -0.69236,1.38473 -1.03854,2.07709 -0.34619,0.69236 -0.8508,1.32611 -1.03854,2.07708 -0.26896,1.07582 0,2.96331 0,4.15417 0,2.78838 0,5.51993 0,8.30832 0,5.19271 0,10.38541 0,15.57812 0,1.38472 0,2.76944 0,4.15416 0,0.34618 0,0.69236 0,1.03855 0,0.34618 -0.15482,0.7289 0,1.03853 0.21894,0.43789 0.69235,0.69236 1.03854,1.03855 0.34618,0.34618 0.57409,0.88372 1.03854,1.03854 0.65683,0.21894 1.43424,-0.25714 2.07708,0 1.1589,0.46356 1.96838,1.5854 3.11562,2.07708 5.61563,2.40669 2.39655,0.22633 7.26979,1.03854 1.07982,0.17997 2.04216,0.82385 3.11562,1.03854 1.15542,0.23109 3.83976,0 5.19271,0 4.50034,0 9.00069,0 13.50103,0"
       id="path2997"
       inkscape:connector-curvature="0" />
    <path
       style="fill:none;stroke:#000000;stroke-width:0.57363164px;stroke-linecap:butt;stroke-linejoin:miter;stroke-opacity:1"
       d="m 408.63204,631.97911 c 0.31261,-5.51271 -0.45838,-11.1161 0,-16.61666 0.14659,-1.75908 0.65562,-3.46955 1.03854,-5.1927 0.50657,-2.27958 0.79053,-4.30143 2.07708,-6.23125 0.54313,-0.8147 1.38472,-1.38472 2.07708,-2.07708 0.34618,-0.34618 0.60065,-0.8196 1.03854,-1.03854 0.30964,-0.15482 0.71013,0.10947 1.03854,0 0.73436,-0.24479 1.31804,-0.88673 2.07708,-1.03855 1.69729,-0.33945 3.46181,0 5.19271,0 2.76945,0 5.53889,0 8.30833,0 2.07708,0 4.15417,0 6.23125,0 2.91353,0 3.49733,-0.32841 6.23124,1.03855 0.43789,0.21894 0.69236,0.69236 1.03854,1.03854 0.69237,0.69236 1.38472,1.38472 2.07708,2.07708 0.34619,0.34618 0.69237,0.69236 1.03855,1.03854 0.34618,0.34618 0.8196,0.60065 1.03854,1.03854 0.15481,0.30963 -0.24479,0.79376 0,1.03854 2.14878,2.14878 -0.084,-3.28361 2.07708,1.03855 0.15482,0.30963 -0.19203,0.7505 0,1.03853 2.77179,4.1577 2.27166,-0.35752 4.15417,6.23125 0.2853,0.99858 -0.25189,2.10809 0,3.11562 0.11873,0.47496 0.88372,0.5741 1.03853,1.03855 0.15848,0.4754 0,4.61303 0,5.1927 0,3.4618 0,6.92361 0,10.38541 0,0.59139 0.02,9.33689 0,9.34687 -0.61926,0.30963 -1.40539,-0.16792 -2.07708,0 -2.73574,0.68394 -4.53404,3.47023 -7.26979,4.15417 -0.67168,0.16792 -1.42024,-0.21895 -2.07708,0 -0.46445,0.15481 -0.60065,0.81959 -1.03854,1.03854 -0.61926,0.30963 -1.42025,-0.21895 -2.07708,0 -0.73436,0.24478 -1.34272,0.79375 -2.07708,1.03854 -0.65366,0.21788 -4.2566,0 -5.19271,0"
       id="path2999"
       inkscape:connector-curvature="0" />
    <path
       style="fill:none;stroke:#000000;stroke-width:0.57363164px;stroke-linecap:butt;stroke-linejoin:miter;stroke-opacity:1"
       d="m 437.71119,570.70518 c -1.38472,-0.69235 -2.76945,-1.38471 -4.15417,-2.07708 -0.34618,-0.34618 -0.63119,-0.76697 -1.03854,-1.03854 -5.24651,-3.49767 -0.0241,-0.008 -3.11562,-1.03854 -0.73436,-0.24478 -1.38472,-0.69236 -2.07709,-1.03854 -5.82158,-2.9108 -2.71672,-1.50211 -9.34687,-4.15417 -1.73089,-0.69236 -3.40708,-1.54139 -5.1927,-2.07708 -1.69074,-0.50722 -3.46956,-0.65562 -5.19271,-1.03854 -2.78669,-0.61926 -5.47569,-1.723 -8.30832,-2.07708 -1.37403,-0.17176 -2.80242,0.30039 -4.15417,0 -1.81984,-0.40441 -3.44071,-1.43999 -5.1927,-2.07708 -2.05762,-0.74823 -4.10718,-1.54607 -6.23125,-2.07708 -0.67169,-0.16792 -1.42025,0.21894 -2.07708,0 -0.46445,-0.15482 -0.5741,-0.88373 -1.03854,-1.03854 -0.65683,-0.21895 -1.38473,0 -2.07708,0 -2.73854,0 -5.56979,0 -8.30833,0 -1.7309,0 -3.46181,0 -5.19271,0 -1.03854,0 -2.21392,-0.51527 -3.11562,0 -4.23086,2.41763 -5.22032,6.98859 -8.30833,10.3854 -1.81874,2.00063 -4.51912,3.10012 -6.23125,5.19271 -1.47053,1.79732 -2.00361,4.19256 -3.11562,6.23125 -2.79461,5.12345 -5.28369,8.12391 -8.30833,13.50103 -1.51801,2.69869 -2.69706,5.57627 -4.15416,8.30833 -1.31341,2.46264 -2.83096,4.8124 -4.15417,7.26979 -1.10098,2.04467 -2.00361,4.19255 -3.11562,6.23125 -3.14589,5.76746 -2.80059,3.9646 -5.19271,9.34687 -2.34988,2.67264 -1.82192,6.32825 -3.11562,9.34686 -0.6701,1.56357 -2.65775,3.36121 -3.11562,5.19271 -0.16793,0.67169 0.30963,1.45781 0,2.07708 -0.77408,1.54817 -2.19825,2.68637 -3.11562,4.15416 -0.82053,1.31285 -1.25656,2.84133 -2.07708,4.15417 -0.91739,1.4678 -2.19825,2.68636 -3.11563,4.15417 -0.82053,1.31284 -1.14818,2.91563 -2.07708,4.15416 -0.0364,0.0486 -8.22382,8.21175 -8.30833,8.30833 -1.13981,1.30263 -1.98917,2.83996 -3.11562,4.15416 -0.95583,1.11514 -2.07709,2.07708 -3.11563,3.11563 -1.38472,1.38471 -2.76944,2.76944 -4.15416,4.15416 -3.11563,3.11562 -6.23125,6.23124 -9.34687,9.34687 -0.69236,0.69236 -1.32488,1.45025 -2.07708,2.07708 -3.30883,2.75736 -5.53898,4.05531 -9.34688,6.23125 -2.84149,1.62371 -1.6464,0.65856 -5.1927,2.07708 -0.71872,0.28748 -1.38472,0.69236 -2.07708,1.03854 -1.03854,0.34618 -2.09921,0.63197 -3.11562,1.03854 -0.71873,0.28748 -1.41332,0.64028 -2.07709,1.03854 -1.07029,0.64218 -1.94692,1.63882 -3.11562,2.07708 -1.65279,0.6198 -3.50197,0.53132 -5.19271,1.03854 -1.78561,0.53569 -3.44716,1.42251 -5.1927,2.07709 -1.02502,0.38438 -2.09921,0.63197 -3.11562,1.03854 -1.43744,0.57497 -2.65223,1.70159 -4.15417,2.07708 -0.67169,0.16792 -1.40539,-0.16792 -2.07708,0 -0.75097,0.18774 -1.32611,0.8508 -2.07708,1.03854 -0.67169,0.16792 -1.4054,-0.16792 -2.07709,0 -7.40101,1.85025 6.13671,0.53109 -6.23124,2.07709 -1.37403,0.17175 -2.77791,-0.15292 -4.15417,0 -1.75438,0.19493 -3.43628,0.86289 -5.1927,1.03853 -2.7557,0.27558 -5.53889,0 -8.30833,0 -1.03854,0 -2.07708,0 -3.11562,0 -0.34618,0 -1.03854,0.34618 -1.03854,0 0,-0.34618 0.69236,0 1.03854,0"
       id="path3001"
       inkscape:connector-curvature="0" />
    <path
       style="fill:none;stroke:#000000;stroke-width:0.57363164px;stroke-linecap:butt;stroke-linejoin:miter;stroke-opacity:1"
       d="m 182.23008,638.21035 c 3.6915,-0.7383 5.11485,-0.79969 8.30833,-2.07708 0.71872,-0.28748 1.35836,-0.75105 2.07708,-1.03854 1.01642,-0.40657 2.10942,-0.60731 3.11563,-1.03854 1.42298,-0.60985 2.73943,-1.44831 4.15416,-2.07708 1.70356,-0.75714 3.56307,-1.17173 5.1927,-2.07708 13.80317,-7.66843 -2.08495,0.35143 6.23125,-5.19271 1.28815,-0.85877 2.91563,-1.14818 4.15417,-2.07708 1.56663,-1.17498 2.69051,-2.85315 4.15416,-4.15417 1.65673,-1.47265 3.52452,-2.69449 5.1927,-4.15416 4.72613,-4.13535 1.77882,-2.1813 6.23125,-7.26979 1.28955,-1.47376 2.85314,-2.69051 4.15416,-4.15416 3.35985,-3.77982 4.88537,-6.01397 7.26979,-10.38541 1.11202,-2.03869 1.86887,-4.27206 3.11563,-6.23125 1.11083,-1.7456 8.50742,-10.26971 9.34687,-11.42395 1.18726,-1.63248 2.07708,-3.4618 3.11562,-5.1927 1.7309,-2.42327 3.37701,-4.9094 5.1927,-7.26979 1.64852,-2.14306 3.52227,-4.10524 5.19271,-6.23125 2.13878,-2.72208 4.01506,-5.64889 6.23125,-8.30833 1.25367,-1.5044 2.95189,-2.60838 4.15416,-4.15416 2.47856,-3.18671 3.91611,-7.07808 6.23125,-10.38541 1.27116,-1.81594 2.80767,-3.4319 4.15416,-5.19271 3.15432,-4.12487 5.56555,-8.90359 9.34687,-12.46249 2.25475,-2.12212 5.70376,-2.4798 8.30833,-4.15416 2.27434,-1.46208 4.11997,-3.50369 6.23125,-5.19271 1.35161,-1.08129 2.80256,-2.03434 4.15416,-3.11563 0.3823,-0.30583 0.63119,-0.76697 1.03854,-1.03853 2.72235,-1.8149 1.8149,-0.38819 5.19271,-2.07709 9.51096,-4.75548 -6.9066,0.98302 10.38541,-5.1927 11.17776,-3.99206 3.26522,-0.51385 14.53957,-3.11563 2.13337,-0.49231 4.0716,-1.71714 6.23125,-2.07708 2.04882,-0.34147 4.15417,0 6.23125,0 3.11562,0 6.23124,0 9.34687,0 4.30622,0 8.15627,0 12.46249,0 2.42326,0 5.03293,-0.93202 7.26979,0 2.25957,0.94149 3.29816,3.64263 5.1927,5.19271 1.93207,1.58078 3.99845,3.03776 6.23125,4.15416 1.95829,0.97915 4.34005,0.97389 6.23124,2.07708 2.33545,1.36235 4.13866,3.48059 6.23125,5.19271 1.71558,1.40366 3.52452,2.6945 5.19271,4.15416 2.21064,1.93432 3.93749,4.39625 6.23124,6.23125 0.60446,0.48356 1.45782,0.57409 2.07708,1.03854 0.78332,0.58749 1.29377,1.4896 2.07709,2.07708 4.41646,3.31235 -0.41645,-2.57681 5.1927,4.15417 0.79906,0.95887 1.68238,1.9315 2.07708,3.11562 0.32842,0.98525 -0.73436,2.38127 0,3.11562 0.73437,0.73436 2.07709,0 3.11563,0 5.79764,0 9.7753,-0.30057 15.57812,1.03855 1.81649,0.41918 3.40708,1.54139 5.1927,2.07708 1.69073,0.50722 3.50197,0.53132 5.1927,1.03854 1.78562,0.53569 3.37287,1.67267 5.19271,2.07708 1.35175,0.30039 2.77791,-0.15292 4.15416,0 1.75439,0.19493 3.43833,0.84361 5.19271,1.03854 1.37625,0.15292 2.76944,0 4.15417,0 3.80798,0 7.61596,0 11.42395,0 0.69236,0 1.38472,0 2.07708,0 0.69236,0 1.40539,-0.16792 2.07708,0 0.75097,0.18775 1.35836,0.75105 2.07708,1.03854 1.01642,0.40657 2.09921,0.63198 3.11562,1.03854 0.71873,0.28749 1.32612,0.8508 2.07709,1.03855 0.67168,0.16792 1.40539,-0.16793 2.07708,0 0.75097,0.18774 1.34272,0.79375 2.07708,1.03853 0.32842,0.10948 0.72891,-0.15481 1.03854,0 0.43789,0.21895 0.60065,0.8196 1.03854,1.03855 0.30964,0.15481 0.72891,-0.15482 1.03854,0 0.43789,0.21894 0.60066,0.8196 1.03855,1.03854 0.30963,0.15482 0.71012,-0.10947 1.03853,0 0.73437,0.24479 1.40499,0.65448 2.07709,1.03854 1.7526,1.00149 3.51316,1.99592 5.1927,3.11562 1.41127,0.94085 5.41196,4.26379 7.26979,5.19271 0.97915,0.48957 2.07708,0.69236 3.11563,1.03854 1.03854,0.34618 2.06302,0.73779 3.11562,1.03854 1.37242,0.39212 2.91488,0.33038 4.15416,1.03854 1.27521,0.72869 2.00049,2.15979 3.11563,3.11562 1.31419,1.12646 2.74567,2.10956 4.15416,3.11563 2.03136,1.45096 4.09065,2.8698 6.23124,4.15416 0.66378,0.39826 1.43301,0.60916 2.07709,1.03854 0.8147,0.54313 1.38472,1.38472 2.07708,2.07709 1.38472,1.38471 2.76944,2.76944 4.15417,4.15416 0.69236,0.69236 1.26238,1.53395 2.07708,2.07708 0.64407,0.42938 1.52972,0.49118 2.07708,1.03854 0.24479,0.24479 -0.15482,0.72891 0,1.03854 0.21895,0.43789 0.69236,0.69236 1.03854,1.03855 1.31022,1.31022 3.069,2.70728 4.15416,4.15416 0.46446,0.61927 0.49119,1.52972 1.03855,2.07708 0.24478,0.24479 0.79375,-0.24478 1.03853,0 0.24479,0.24479 -0.15481,0.72891 0,1.03854 0.43789,0.87577 1.6392,1.20131 2.07709,2.07708 0.15482,0.30964 -0.24479,0.79376 0,1.03855 0.24479,0.24478 0.79375,-0.24479 1.03854,0 0.24478,0.24478 -0.24479,0.79375 0,1.03853 0.24478,0.24479 0.79375,-0.24478 1.03854,0 0.24479,0.24479 -0.15482,0.72891 0,1.03855 0.21894,0.43789 0.8196,0.60065 1.03854,1.03854 0.15482,0.30963 -0.24478,0.79375 0,1.03854 1.38472,1.38472 1.03854,-1.7309 1.03854,1.03854"
       id="path3003"
       inkscape:connector-curvature="0" />
    <path
       style="fill:none;stroke:#000000;stroke-width:0.57363164px;stroke-linecap:butt;stroke-linejoin:miter;stroke-opacity:1"
       d="m 438.74973,571.74373 c 0.69236,1.38472 0.80877,3.26635 2.07708,4.15416 2.42309,1.69617 5.50234,2.1803 8.30833,3.11563 4.46693,1.48897 9.11853,2.43246 13.50103,4.15416 13.85732,5.44394 14.15201,6.31905 24.92499,13.50103 2.34857,1.56572 7.92491,5.11686 10.38541,7.26979 1.47376,1.28955 2.76944,2.76944 4.15416,4.15417 1.03854,1.03853 2.15979,2.00048 3.11562,3.11562 1.12646,1.31419 1.98917,2.83996 3.11563,4.15416 0.95583,1.11513 2.26195,1.92048 3.11562,3.11562 0.0237,0.0332 4.09773,8.20957 4.15417,8.30833 2.19134,3.83486 2.44232,2.70488 4.15416,7.26979 1.00234,2.67292 1.17435,5.60015 2.07708,8.30833 0.24479,0.73436 0.79375,1.34272 1.03855,2.07708 0.10947,0.32842 -0.15482,0.72891 0,1.03854 0.21894,0.43789 0.74479,0.64689 1.03853,1.03855 0.74891,0.99853 1.38473,2.07708 2.07709,3.11562 1.7309,2.07708 3.50368,4.11996 5.1927,6.23124 1.08129,1.35161 1.98917,2.83997 3.11563,4.15417 0.67675,0.78954 6.11151,6.34317 7.26978,7.26978 0.97466,0.77973 2.07708,1.38473 3.11563,2.07709 1.82869,1.21913 3.19678,2.31725 5.1927,3.11562 1.01642,0.40657 2.13648,0.54897 3.11562,1.03854 0.43789,0.21894 0.58399,0.85672 1.03855,1.03854 1.32525,0.5301 2.78174,0.64642 4.15416,1.03855 1.0526,0.30073 2.0358,0.85856 3.11563,1.03853 1.0244,0.17074 2.07708,0 3.11562,0 3.4618,0 6.9236,0 10.3854,0"
       id="path3005"
       inkscape:connector-curvature="0" />
    <path
       style="fill:none;stroke:#000000;stroke-width:0.57363164px;stroke-linecap:butt;stroke-linejoin:miter;stroke-opacity:1"
       d="m 402.40079,662.0968 c -1.03854,1.38472 -2.34154,2.606 -3.11562,4.15417 -0.0813,0.16248 0,4.90235 0,5.1927 0,3.4618 0,6.92361 0,10.38541 0,2.42326 0,4.84652 0,7.26978 0,0.34619 -0.24479,0.79376 0,1.03855 0.24478,0.24478 1.03854,-0.34618 1.03854,0 0,0.34618 -1.38472,0 -1.03854,0 2.07708,0 4.15416,0 6.23124,0 0.46772,0 2.79956,0.15803 3.11563,0 0.43788,-0.21895 0.69236,-0.69236 1.03854,-1.03855 0.34618,-0.34617 0.8196,-0.60064 1.03854,-1.03853 0.30963,-0.61927 -0.30963,-1.45782 0,-2.07709 0.21894,-0.43789 0.81959,-0.60065 1.03854,-1.03854 0.27638,-0.55275 -0.27638,-1.52432 0,-2.07708 0.21894,-0.43789 0.8196,-0.60065 1.03854,-1.03854 0.41542,-0.83084 -0.41542,-2.28479 0,-3.11562 0.21894,-0.43789 0.8196,-0.60066 1.03854,-1.03854 0.13426,-0.26852 0,-5.49513 0,-6.23125"
       id="path3007"
       inkscape:connector-curvature="0" />
    <path
       style="fill:none;stroke:#000000;stroke-width:1px;stroke-linecap:butt;stroke-linejoin:miter;stroke-opacity:1"
       d="m 278.6611,677.24147 c -14.29031,0 -28.58063,0 -42.87094,0 -39.29836,0 -78.59672,0 -117.89508,0 -13.09945,0 -26.198906,0 -39.298359,0 -0.996778,0 -22.185234,0 -10.717735,0 5.954297,-1.19086 11.908594,-2.38172 17.862891,-3.57258 1.190859,-1.19086 2.066247,-2.81941 3.572578,-3.57258 1.065137,-0.53256 2.507441,0.53257 3.572578,0 3.012663,-1.50633 3.949746,-6.08002 7.145157,-7.14515 2.2595,-0.75317 4.88566,0.75316 7.14516,0 3.19541,-1.06514 4.13249,-5.63883 7.14515,-7.14516 1.06514,-0.53257 2.73052,0.84207 3.57258,0 0.84207,-0.84206 -0.84206,-2.73051 0,-3.57258 0.84207,-0.84206 2.50744,0.53257 3.57258,0 1.50633,-0.75316 2.1713,-2.63839 3.57258,-3.57257 2.21562,-1.47708 4.92953,-2.0955 7.14515,-3.57258 6.53688,-4.35792 0.35643,-4.55483 10.71774,-7.14516 3.18954,-0.79738 13.72753,0 17.86289,0 13.09945,0 26.19891,0 39.29836,0"
       id="path2992"
       inkscape:connector-curvature="0" />
    <path
       style="fill:none;stroke:#000000;stroke-width:1px;stroke-linecap:butt;stroke-linejoin:miter;stroke-opacity:1"
       d="m 367.97556,480.74967 c 0,-20.98996 -1.96293,-25.62504 7.14515,-46.44352 4.9143,-11.23268 12.61428,-21.07279 17.86289,-32.1532 5.49062,-11.5913 8.25458,-24.40877 14.29032,-35.72578 0.97934,-1.83627 15.70772,-20.71224 21.43547,-25.00805 2.13027,-1.59771 4.76343,-2.38172 7.14515,-3.57258 2.38172,-1.19086 4.51855,-3.13481 7.14516,-3.57258 4.69862,-0.7831 9.52687,0 14.29031,0 4.76344,0 9.52688,0 14.29031,0 0.89412,0 31.165,0 35.72579,0 7.14515,0 14.29031,0 21.43546,0 2.99164,0 15.14607,0.67921 17.8629,0 2.58333,-0.64583 5.01488,-1.97487 7.14515,-3.57258 2.69461,-2.02095 4.55759,-4.98885 7.14516,-7.14515 4.57422,-3.81185 10.07999,-6.50741 14.29031,-10.71774 4.21033,-4.21032 6.84273,-9.76947 10.71774,-14.29031 3.28805,-3.83606 7.48327,-6.83638 10.71773,-10.71773 2.74876,-3.29852 4.76344,-7.14516 7.14516,-10.71774 4.69615,-7.04423 9.59416,-14.39124 14.29031,-21.43547 2.38172,-3.57258 4.4629,-7.36491 7.14516,-10.71773 3.1562,-3.94526 7.91517,-6.5139 10.71773,-10.71774 1.19086,-2.38172 2.38172,-4.76343 3.57258,-7.14515 1.19086,0 2.73051,0.84206 3.57258,0 4.76344,-4.76344 -5.9543,-3.57258 3.57258,-3.57258"
       id="path2994"
       inkscape:connector-curvature="0" />
    <path
       style="fill:none;stroke:#000000;stroke-width:1px;stroke-linecap:butt;stroke-linejoin:miter;stroke-opacity:1"
       d="m 535.88673,548.62866 c 0.7022,-20.77122 -2.43123,-44.2937 3.57258,-64.30641 3.82581,-12.75271 12.16326,-23.69323 17.86289,-35.72578 5.02086,-10.59959 9.82465,-21.30802 14.29031,-32.15321 3.87402,-9.40833 5.25519,-19.99662 10.71774,-28.58062 3.19671,-5.02342 9.71609,-6.90589 14.29031,-10.71774 2.58757,-2.15631 4.3426,-5.27678 7.14516,-7.14516 0.5323,-0.35486 9.54449,0 10.71773,0 11.9086,0 23.81719,0 35.72578,0 1.19086,0 2.38172,0 3.57258,0 1.19086,0 2.73052,0.84207 3.57258,0 3.03611,-3.0361 5.22495,-6.87732 7.14516,-10.71773 1.68413,-3.36826 2.17398,-7.22125 3.57257,-10.71773 1.97791,-4.94478 5.85349,-9.12364 7.14516,-14.29032 0.57765,-2.3106 -0.46709,-4.80969 0,-7.14515 -0.81983,-7.17425 5.58978,-11.6414 7.14516,-17.86289 0.57765,-2.31061 -0.75317,-4.88566 0,-7.14516 0.53257,-1.59771 2.81941,-2.06625 3.57258,-3.57258 0.96111,-1.92222 -0.96112,-5.22293 0,-7.14516 0.75316,-1.50633 2.81941,-2.06624 3.57257,-3.57257 2.38172,-4.76344 -3.57257,-3.57258 3.57258,-3.57258"
       id="path2996"
       inkscape:connector-curvature="0" />
    <path
       style="fill:none;stroke:#000000;stroke-width:1px;stroke-linecap:butt;stroke-linejoin:miter;stroke-opacity:1"
       d="m 578.75767,602.21733 c 9.07382,3.04976 14.12869,-5.31846 21.43547,-7.14516 2.31061,-0.57765 4.88566,0.75317 7.14516,0 1.5977,-0.53257 2.38171,-2.38172 3.57257,-3.57258 21.88952,-21.88951 -1.16172,1.95078 25.00805,-28.58062 2.19204,-2.55737 5.27678,-4.3426 7.14516,-7.14516 2.95416,-4.43124 4.50287,-9.66632 7.14515,-14.29031 2.13028,-3.72798 5.22496,-6.87733 7.14516,-10.71774 3.36826,-6.73651 4.17829,-14.51278 7.14516,-21.43547 2.09789,-4.89507 5.04726,-9.39523 7.14515,-14.29031 1.48344,-3.46134 1.88845,-7.34947 3.57258,-10.71773 8.17515,-16.35029 -1.48073,15.15993 7.14516,-10.71774 4.53228,-13.59684 1.98433,-12.96613 7.14515,-25.00804 2.09789,-4.89508 5.04727,-9.39524 7.14516,-14.29032 3.48589,-8.13375 2.54517,-10.96292 7.14516,-17.86289 0.93418,-1.40128 2.81941,-2.06625 3.57258,-3.57258 1.06513,-2.13027 -0.75317,-4.88566 0,-7.14515 10.12055,-20.24111 -1.33143,5.32568 3.57257,-14.29032 0.64584,-2.58333 2.73052,-4.61896 3.57258,-7.14515 0.75317,-2.2595 0,-4.76344 0,-7.14516"
       id="path2998"
       inkscape:connector-curvature="0" />
    <path
       style="fill:none;stroke:#000000;stroke-width:1px;stroke-linecap:butt;stroke-linejoin:miter;stroke-opacity:1"
       d="m 568.03994,687.95921 c 11.90859,0 23.81718,0 35.72578,0 7.14515,0 14.29031,0 21.43547,0 3.57257,0 7.32849,1.12974 10.71773,0 1.59771,-0.53257 2.38172,-2.38172 3.57258,-3.57258 1.19086,-1.19086 2.38172,-2.38172 3.57258,-3.57258 3.57258,-3.57258 7.14515,-7.14516 10.71773,-10.71774 1.19086,-1.19086 2.63839,-2.17129 3.57258,-3.57257 1.47708,-2.21562 1.68966,-5.26225 3.57258,-7.14516 1.88291,-1.88291 5.26224,-1.68966 7.14515,-3.57258 1.88292,-1.88291 1.68967,-5.26224 3.57258,-7.14515 1.88292,-1.88292 5.26225,-1.68967 7.14516,-3.57258 3.03611,-3.03611 4.4629,-7.36492 7.14516,-10.71774 2.10413,-2.63017 5.1242,-4.45055 7.14515,-7.14515 1.59771,-2.13028 2.0955,-4.92954 3.57258,-7.14516 0.93419,-1.40128 3.04001,-1.97487 3.57258,-3.57258 0.75316,-2.2595 -0.57765,-4.83455 0,-7.14516 4.31294,-17.25178 1.69776,0.17707 7.14516,-10.71773 0.53256,-1.06514 -0.84207,-2.73051 0,-3.57258 0.84206,-0.84206 2.73051,0.84207 3.57257,0 0.84207,-0.84206 -0.84206,-2.73051 0,-3.57258 0.84207,-0.84206 2.73052,0.84207 3.57258,0 0.84207,-0.84206 -0.84206,-2.73051 0,-3.57257 0.84207,-0.84207 2.38172,0 3.57258,0 7.14516,0 14.29031,0 21.43547,0"
       id="path3000"
       inkscape:connector-curvature="0" />
    <path
       style="fill:none;stroke:#000000;stroke-width:1px;stroke-linecap:butt;stroke-linejoin:miter;stroke-opacity:1"
       d="m 653.78181,198.51599 c 0,-45.25266 0,-90.50531 0,-135.757971 0,-7.145157 0,-14.290313 0,-21.435469 0,-1.19086 0,-2.381719 0,-3.572579 0,-1.190859 0.84207,-2.730513 0,-3.572578 -0.84206,-0.842065 -2.73051,0.842065 -3.57258,0 -0.84206,-0.842065 0,-2.381719 0,-3.572578 0,-1.190859 0,-2.381719 0,-3.572578"
       id="path3002"
       inkscape:connector-curvature="0" />
  </g>
</svg>
