<?xml version="1.0" encoding="UTF-8" standalone="no"?>
<!-- Created with Inkscape (http://www.inkscape.org/) -->

<svg
   xmlns:dc="http://purl.org/dc/elements/1.1/"
   xmlns:cc="http://creativecommons.org/ns#"
   xmlns:rdf="http://www.w3.org/1999/02/22-rdf-syntax-ns#"
   xmlns:svg="http://www.w3.org/2000/svg"
   xmlns="http://www.w3.org/2000/svg"
   xmlns:sodipodi="http://sodipodi.sourceforge.net/DTD/sodipodi-0.dtd"
   xmlns:inkscape="http://www.inkscape.org/namespaces/inkscape"
   width="210mm"
   height="297mm"
   id="svg2"
   version="1.1"
   inkscape:version="0.48.5 r10040"
   sodipodi:docname="tudo-que-eles-fazem-é.svg"
   inkscape:export-filename="/home/fredm/projetos/o-rato-anderson/um-dia-este-rato-encontrou-uma-rata.png"
   inkscape:export-xdpi="90"
   inkscape:export-ydpi="90">
  <defs
     id="defs4" />
  <sodipodi:namedview
     id="base"
     pagecolor="#ffffff"
     bordercolor="#666666"
     borderopacity="1.0"
     inkscape:pageopacity="0.0"
     inkscape:pageshadow="2"
     inkscape:zoom="1.4765625"
     inkscape:cx="427.22424"
     inkscape:cy="565.64309"
     inkscape:document-units="px"
     inkscape:current-layer="layer1"
     showgrid="false"
     inkscape:window-width="710"
     inkscape:window-height="693"
     inkscape:window-x="560"
     inkscape:window-y="31"
     inkscape:window-maximized="0" />
  <metadata
     id="metadata7">
    <rdf:RDF>
      <cc:Work
         rdf:about="">
        <dc:format>image/svg+xml</dc:format>
        <dc:type
           rdf:resource="http://purl.org/dc/dcmitype/StillImage" />
        <dc:title />
      </cc:Work>
    </rdf:RDF>
  </metadata>
  <g
     inkscape:label="Camada 1"
     inkscape:groupmode="layer"
     id="layer1">
    <path
       style="fill:none;stroke:#000000;stroke-width:1px;stroke-linecap:butt;stroke-linejoin:miter;stroke-opacity:1"
       d="m 214.53789,369.33003 c -4.46961,0 -8.93923,0 -13.40884,0 -0.63852,0 -1.27703,0 -1.91555,0 -0.63852,0 -1.34444,-0.28556 -1.91555,0 -0.80766,0.40383 -1.10788,1.51171 -1.91555,1.91555 -0.5711,0.28555 -1.46405,-0.4515 -1.91554,0 -0.4515,0.45149 0.28555,1.34444 0,1.91554 -0.40384,0.80767 -1.51172,1.10789 -1.91555,1.91555 -0.28556,0.57111 0.28555,1.34444 0,1.91555 -0.40384,0.80767 -1.51172,1.10788 -1.91555,1.91555 -0.76622,1.53244 0.76622,4.21421 0,5.74665 -0.40383,0.80766 -1.51172,1.10788 -1.91555,1.91554 -0.40905,0.8181 0,8.82051 0,9.57775 0,0.90317 -0.0868,9.49092 0,9.57774 0.0616,0.0616 5.28207,0 5.74665,0 1.27703,0 2.55406,0 3.83109,0 0.63852,0 1.38427,0.35418 1.91555,0 1.50268,-1.00179 2.55407,-2.55407 3.8311,-3.8311 1.27703,-1.27703 2.7475,-2.3863 3.8311,-3.8311 0.85665,-1.14221 1.12356,-2.64312 1.91554,-3.83109 1.16251,-1.74375 4.89774,-4.04882 5.74665,-5.74665 0.28555,-0.5711 -0.4515,-1.46405 0,-1.91555 0.4515,-0.4515 1.34444,0.28556 1.91555,0 7.97205,-3.98602 -2.04779,0.13224 1.91555,-3.83109 0.4515,-0.4515 1.46405,0.4515 1.91554,0 0.4515,-0.4515 0,-1.27704 0,-1.91555 0,-5.63871 0.32852,-1.36803 -5.74664,-11.49329 z"
       id="path3022"
       inkscape:connector-curvature="0" />
    <path
       style="fill:none;stroke:#000000;stroke-width:1px;stroke-linecap:butt;stroke-linejoin:miter;stroke-opacity:1"
       d="m 181.97356,334.85015 c -2.55406,0 -7.66219,2.55407 -7.66219,0 0,-2.55406 9.46819,-1.80599 7.66219,0 -2.3022,2.30221 -6.78591,0.24045 -9.57774,1.91555 -0.26904,0.16142 0,9.18316 0,9.57774 0,5.10813 0,10.21626 0,15.32439 0,0.63852 0,1.27704 0,1.91555 0,0.63852 -0.4515,1.46405 0,1.91555 0.4515,0.4515 1.27703,0 1.91555,0 4.46961,0 8.93923,0 13.40884,0 1.27703,0 2.9281,0.903 3.8311,0 0.903,-0.903 -0.30973,-2.59219 0,-3.8311 0.34628,-1.38513 1.46405,-2.4766 1.91555,-3.83109 0.20191,-0.60575 0,-1.27704 0,-1.91555 0.63851,-0.63852 1.51171,-1.10789 1.91554,-1.91555 0.28556,-0.57111 -0.28555,-1.34444 0,-1.91555 0.40384,-0.80767 1.51172,-1.10788 1.91555,-1.91555 0.24764,-0.49526 0,-10.13554 0,-11.49329"
       id="path3024"
       inkscape:connector-curvature="0" />
    <path
       style="fill:none;stroke:#000000;stroke-width:1px;stroke-linecap:butt;stroke-linejoin:miter;stroke-opacity:1"
       d="m 237.52447,338.68125 c -7.47518,0 -7.26547,-1.806 -11.49329,3.8311 -0.85666,1.14221 -1.12357,2.64312 -1.91555,3.83109 -0.50089,0.75134 -1.51171,1.10789 -1.91555,1.91555 -2.73895,5.47791 -1.91555,11.35074 -1.91555,17.23994 0,4.46961 0,8.93923 0,13.40884 0,0.63852 -0.45149,1.46405 0,1.91555 0.18593,0.18593 8.84779,0 9.57775,0 0.63851,0 1.34444,0.28555 1.91555,0 0.50859,-0.2543 5.49234,-5.23805 5.74664,-5.74665 0.28555,-0.5711 -0.28555,-1.34444 0,-1.91555 0.80767,-1.61533 3.02343,-2.21576 3.8311,-3.83109 0.5711,-1.14222 -0.903,-2.9281 0,-3.8311 0.4515,-0.4515 1.46405,0.4515 1.91555,0 0.4515,-0.4515 -0.28556,-1.34444 0,-1.91555 0.40383,-0.80766 1.51171,-1.10788 1.91555,-1.91555 0.24763,-0.49526 0,-10.13554 0,-11.49329 0,-2.55406 0,-5.10813 0,-7.66219 0,-0.63852 0.5711,-1.63 0,-1.91555 -2.35474,-1.17737 -5.10813,-1.27703 -7.6622,-1.91555 z"
       id="path3026"
       inkscape:connector-curvature="0" />
    <path
       style="fill:none;stroke:#000000;stroke-width:1px;stroke-linecap:butt;stroke-linejoin:miter;stroke-opacity:1"
       d="m 181.97356,306.11693 c 2.55407,-3.19259 5.39431,-6.17591 7.6622,-9.57775 0.35418,-0.53127 0,-1.27703 0,-1.91555 0,-3.83109 0,-7.66219 0,-11.49329 0,-1.91555 0.85666,-4.03332 0,-5.74664 -0.63852,-1.27703 -2.82152,-0.90597 -3.8311,-1.91555 -1.00958,-1.00958 -0.90596,-2.82152 -1.91555,-3.8311 -7.47587,-7.47588 -1.02874,0.44341 -5.74664,-1.91555 -0.80767,-0.40383 -1.05889,-1.62999 -1.91555,-1.91555 -1.02981,-0.34327 -6.0404,0 -7.6622,0 -5.10812,0 -10.21625,0 -15.32438,0 -3.8311,0 -7.6622,0 -11.49329,0 -0.63852,0 -1.46405,-0.45149 -1.91555,0 -0.0478,0.0478 0,8.85812 0,9.57775 0,7.02368 0,14.04735 0,21.07103 0,0.45519 -0.21467,7.23286 0,7.6622 0.40383,0.80766 1.51171,1.10788 1.91555,1.91554 0.28555,0.57111 -0.4515,1.46405 0,1.91555 0.45149,0.4515 1.46404,-0.4515 1.91554,0 0.4515,0.4515 -0.4515,1.46405 0,1.91555 0.4515,0.4515 1.46405,-0.4515 1.91555,0 0.4515,0.4515 -0.4515,1.46405 0,1.91555 0.4515,0.4515 1.27703,0 1.91555,0 5.10813,0 10.21626,0 15.32439,0 0.63852,0 1.27703,0 1.91555,0 0.63851,0 1.46405,-0.4515 1.91555,0 0.4515,0.4515 -0.4515,1.46405 0,1.91555 0.4515,0.4515 1.91554,-0.63852 1.91554,0 0,0.63851 -1.27703,0 -1.91554,0"
       id="path3028"
       inkscape:connector-curvature="0" />
    <path
       style="fill:none;stroke:#000000;stroke-width:1px;stroke-linecap:butt;stroke-linejoin:miter;stroke-opacity:1"
       d="m 226.03118,302.28583 c 0,-14.04736 0,-28.09471 0,-42.14207 0,-3.19258 0,-6.38516 0,-9.57774 0,-0.63852 -0.4515,-1.46405 0,-1.91555 0.4515,-0.4515 1.27703,0 1.91555,0 1.27703,0 2.55406,0 3.8311,0 10.21625,0 20.43251,0 30.64877,0 7.02368,0 14.04736,0 21.07104,0 0.63851,0 1.27703,0 1.91554,0 0.63852,0 1.46405,-0.4515 1.91555,0 0.4515,0.4515 0,1.27703 0,1.91555 0,0.63851 0,1.27703 0,1.91555 0,6.38516 0,12.77032 0,19.15548 0,6.38516 0,12.77033 0,19.15549 0,1.62562 0.352,10.43729 0,11.49329 -0.28555,0.85666 -1.51171,1.10788 -1.91555,1.91555 -0.28555,0.5711 0.28556,1.34444 0,1.91555 -0.40383,0.80766 -1.51171,1.10788 -1.91554,1.91554 -0.28556,0.57111 0.28555,1.34445 0,1.91555 -0.2543,0.5086 -5.23805,5.49235 -5.74665,5.74665 -0.57111,0.28555 -1.34444,-0.28555 -1.91555,0 -0.80766,0.40383 -1.10788,1.51171 -1.91555,1.91555 -0.50367,0.25184 -6.66051,0 -7.66219,0 -5.10813,0 -10.21626,0 -15.32439,0"
       id="path3030"
       inkscape:connector-curvature="0" />
    <path
       style="fill:none;stroke:#000000;stroke-width:1px;stroke-linecap:butt;stroke-linejoin:miter;stroke-opacity:1"
       d="m 559.36965,274.51449 c 6.35501,0 6.90665,-1.14222 11.49329,1.91555 1.50268,1.00178 2.21576,3.02343 3.8311,3.83109 0.5711,0.28556 1.46405,-0.4515 1.91555,0 0.45149,0.4515 -0.4515,1.46405 0,1.91555 0.45149,0.4515 1.46405,-0.4515 1.91554,0 0.4515,0.4515 -0.45149,1.46405 0,1.91555 0.4515,0.4515 1.46405,-0.4515 1.91555,0 0.4515,0.4515 -0.28555,1.34444 0,1.91555 0.80767,1.61533 3.02343,2.21576 3.8311,3.8311 0.28555,0.5711 -0.20192,1.30979 0,1.91554 0.4515,1.3545 1.46405,2.4766 1.91555,3.8311 0.34557,1.03671 0,7.00961 0,7.66221 0,5.1081 0,10.2162 0,15.3244 0,4.4696 0,8.9392 0,13.4088 0,1.9156 1.01524,4.1223 0,5.7467 -6.64338,10.6294 -9.63695,7.7214 -17.23994,15.3244 -7.53976,7.5397 -0.0797,3.8909 -7.66219,9.5777 -1.14221,0.8567 -2.68889,1.0589 -3.8311,1.9155 -2.1672,1.6254 -3.8311,3.8311 -5.74665,5.7467 -6.90211,6.9021 -9.53854,8.9744 -15.32438,17.2399 -2.13509,3.0502 -3.77338,6.4205 -5.74665,9.5778 -1.22016,1.9522 -2.64662,3.7725 -3.8311,5.7466 -0.73458,1.2243 -1.12356,2.6431 -1.91554,3.8311 -0.5009,0.7514 -1.51172,1.1079 -1.91555,1.9156 -0.28556,0.5711 0,1.277 0,1.9155 0,0.6385 0,1.277 0,1.9156 0,3.1925 0,6.3851 0,9.5777 0,3.1926 0,6.3852 0,9.5777 0,1.2771 0,2.5541 0,3.8311 0,0.6386 -0.35419,1.3843 0,1.9156 3.27286,4.9093 4.3382,3.6508 9.57774,5.7466 1.27703,0.6385 2.55406,1.2771 3.8311,1.9156 0.63851,0.6385 1.10788,1.5117 1.91555,1.9155 1.53243,0.7662 4.2142,-0.7662 5.74664,0 0.57111,0.2856 -0.57111,1.63 0,1.9156 1.20397,0.602 6.45823,-0.602 7.66219,0 0.80767,0.4038 1.10789,1.5117 1.91555,1.9155 1.04759,0.5238 4.44303,-0.3259 5.74665,0 10.89286,2.7232 0.28285,1.9156 13.40884,1.9156 10.89372,0 1.26112,-0.8567 9.57774,1.9155 0.36838,0.1228 5.74665,-0.098 5.74665,0 0,0.6385 -1.91555,0.6385 -1.91555,0 0,-0.6385 2.55406,0 1.91555,0 -14.04736,0 -28.09471,0 -42.14207,0 -4.46961,0 -8.93923,0 -13.40884,0 -0.63852,0 -1.27703,0 -1.91555,0 -0.63852,0 -1.34444,0.2856 -1.91555,0 -0.80766,-0.4038 -1.27703,-1.277 -1.91555,-1.9155 -0.63851,-0.6385 -1.41465,-1.1642 -1.91554,-1.9156 -0.79199,-1.1879 -0.90597,-2.8215 -1.91555,-3.8311 -1.00959,-1.0096 -2.68889,-1.0589 -3.8311,-1.9155 -13.7785,-10.3339 4.04253,2.127 -5.74665,-7.6622 -0.45149,-0.4515 -1.46405,0.4515 -1.91554,0 -0.4515,-0.4515 0.45149,-1.4641 0,-1.9156 -0.4515,-0.4515 -1.63,0.5711 -1.91555,0 -0.60199,-1.2039 0.60198,-6.4582 0,-7.6622 -0.40384,-0.8076 -1.51172,-1.1078 -1.91555,-1.9155 -0.62717,-1.2543 0.56664,-7.8778 0,-9.5777 -0.4515,-1.3545 -1.56927,-2.446 -1.91555,-3.8311 -0.61945,-2.4779 0.80767,-5.2392 0,-7.6622 -0.28555,-0.8567 -1.63,-1.0589 -1.91555,-1.9156 -0.36323,-1.0897 0,-7.7736 0,-9.5777 0,-2.5541 0,-5.1082 0,-7.6622 0,-1.2771 -0.30972,-2.5922 0,-3.8311 1.02163,-4.0865 3.55378,-10.1196 5.74665,-13.4089 1.42785,-2.1417 5.57724,-5.5772 7.66219,-7.6622 0.63852,-0.6385 1.51172,-1.1078 1.91555,-1.9155 0.28555,-0.5711 -0.4515,-1.4641 0,-1.9156 0.4515,-0.4515 1.34444,0.2856 1.91555,0 0.80766,-0.4038 1.27703,-1.277 1.91555,-1.9155 0.63851,-0.6385 1.41465,-1.1642 1.91555,-1.9155 0.79198,-1.188 1.12356,-2.6432 1.91554,-3.8311 1.87912,-2.8187 5.78308,-4.8436 7.6622,-7.6622 0.79198,-1.188 0.90596,-2.8216 1.91555,-3.8311 0.4515,-0.4515 1.34444,0.2855 1.91555,0 0.80766,-0.4039 1.10788,-1.5118 1.91554,-1.9156 0.57111,-0.2855 1.46405,0.4515 1.91555,0 0.4515,-0.4515 -0.4515,-1.464 0,-1.9155 0.903,-0.903 2.68889,0.5711 3.8311,0 0.80767,-0.4039 1.16421,-1.4147 1.91555,-1.9156 1.01757,-0.6784 6.64462,-3.1527 7.66219,-3.8311 1.50268,-1.0018 2.21577,-3.0234 3.8311,-3.8311 0.57111,-0.2855 1.46405,0.4515 1.91555,0 0.4515,-0.4515 -0.28556,-1.3444 0,-1.9155 0.80766,-1.6154 2.7475,-2.3863 3.83109,-3.8311 1.27704,-1.9156 2.55407,-3.8311 3.8311,-5.7467 0,-0.6385 -0.28555,-1.3444 0,-1.9155 0.40383,-0.8077 1.51172,-1.1079 1.91555,-1.9156 0.21467,-0.4293 0,-7.207 0,-7.6622 0,-1.3577 0.24763,-10.99799 0,-11.49325 -0.40383,-0.80767 -1.10788,-1.51172 -1.91555,-1.91555 -0.5711,-0.28556 -1.27703,0 -1.91555,0 -1.27703,-0.63852 -2.64312,-1.12357 -3.83109,-1.91555 -0.75134,-0.5009 -1.10789,-1.51172 -1.91555,-1.91555 -0.57111,-0.28555 -1.79033,0.62612 -1.91555,0 -0.62612,-3.13058 3.13058,-8.95163 0,-9.57774 -4.0091,-0.80182 -6.38516,5.10813 -9.57774,7.66219"
       id="path3034"
       inkscape:connector-curvature="0" />
    <path
       style="fill:none;stroke:#000000;stroke-width:1px;stroke-linecap:butt;stroke-linejoin:miter;stroke-opacity:1"
       d="m 291.16338,328.28484 c 3.19258,-0.63852 6.60254,-0.59324 9.57774,-1.91555 2.91742,-1.29663 5.0058,-3.97572 7.66219,-5.74664 5.01206,-3.34138 10.37171,-6.14897 15.32439,-9.57775 3.36153,-2.32721 6.12843,-5.46718 9.57774,-7.66219 8.00314,-5.09291 16.45653,-7.27049 24.90213,-11.49329 2.05916,-1.02958 3.8311,-2.55407 5.74665,-3.8311 3.8311,-2.55406 7.60873,-5.1902 11.49329,-7.66219 3.14108,-1.99887 6.59922,-3.51275 9.57774,-5.74665 2.1672,-1.62539 3.8311,-3.83109 5.74665,-5.74664 3.8311,-1.91555 7.86106,-3.47651 11.49329,-5.74665 1.53148,-0.95717 2.42085,-2.7029 3.8311,-3.8311 2.75106,-2.20085 10.35004,-6.78825 13.40884,-7.66219 1.84184,-0.52624 3.86829,0.37567 5.74664,0 1.40004,-0.28001 2.44596,-1.56926 3.8311,-1.91555 1.5068,-0.3767 9.50126,0 11.49329,0 1.27703,0 2.55406,0 3.8311,0 1.27703,0 2.6196,0.40383 3.83109,0 0.85666,-0.28555 1.03952,-1.69654 1.91555,-1.91555 1.85836,-0.46459 3.8311,0 5.74665,0 4.46961,0 8.93922,0 13.40884,0 12.77032,0 25.54065,0 38.31097,0 3.8311,0 7.66219,0 11.49329,0 0.45519,0 7.23286,-0.21466 7.66219,0 1.61534,0.80767 2.11778,3.25999 3.8311,3.8311 1.2115,0.40383 2.68889,-0.57111 3.8311,0 0.5711,0.28555 0,1.27703 0,1.91555 0,0.53445 0,11.8953 0,5.74664"
       id="path3065"
       inkscape:connector-curvature="0" />
    <path
       style="fill:none;stroke:#000000;stroke-width:1px;stroke-linecap:butt;stroke-linejoin:miter;stroke-opacity:1"
       d="m 235.61247,424.06227 c -3.7567,3.45911 0.75134,7.73659 0,11.49329 -0.51631,2.58154 -1.48274,5.06534 -1.91555,7.66219 -0.20994,1.25966 0.30973,2.5922 0,3.8311 -2.23751,8.95005 -1.59358,-1.28786 -3.8311,7.66219 -0.30972,1.23891 0,2.55407 0,3.8311 0,0.63852 0.28556,1.34444 0,1.91555 -0.80766,1.61533 -3.02343,2.21576 -3.83109,3.8311 -0.5238,1.04758 0.3259,4.44302 0,5.74664 -0.97944,3.91776 -3.03912,7.53338 -3.8311,11.49329 -0.25045,1.25224 0.1806,2.5669 0,3.8311 -0.46044,3.22308 -1.3803,6.36623 -1.91555,9.57774 -0.31926,1.91555 0.63852,3.8311 0,5.74665 -0.28555,0.85666 -1.51172,1.10788 -1.91555,1.91555 -0.76622,1.53244 0.76622,4.2142 0,5.74664 -0.40383,0.80767 -1.62999,1.05889 -1.91555,1.91555 -0.40383,1.2115 0,2.55407 0,3.8311 0,0.63851 0.28556,1.34444 0,1.91555 -0.40383,0.80766 -1.62999,1.05889 -1.91555,1.91554 -0.40383,1.2115 0,2.55407 0,3.8311 0,1.91555 0,3.8311 0,5.74665 0,1.91555 0.46459,3.88829 0,5.74664 -0.219,0.87604 -1.51171,1.10789 -1.91554,1.91555 -0.2912,0.5824 0,6.33947 0,7.6622 0,0.63851 0,2.55406 0,1.91554 0,-1.91554 0,-3.83109 0,-5.74664 0,-1.27703 -0.47428,-2.6454 0,-3.8311 0.85501,-2.13754 2.64662,-3.77252 3.83109,-5.74664 0.73458,-1.2243 1.05889,-2.68889 1.91555,-3.8311 1.0836,-1.4448 2.7029,-2.42085 3.8311,-3.8311 7.39861,-9.24826 0.86309,-2.01388 5.74664,-13.40884 0.90689,-2.11606 2.97608,-3.6091 3.8311,-5.74664 0.47428,-1.1857 -0.25045,-2.57887 0,-3.8311 -0.43958,-3.84669 2.99714,-6.24189 3.8311,-9.57774 0.30972,-1.23891 0,-2.55407 0,-3.8311 0,-0.63852 -0.28555,-1.34444 0,-1.91555 0.40383,-0.80766 1.51171,-1.10788 1.91555,-1.91555 1.08431,-2.16862 -1.62369,-2.94322 1.91555,-7.66219 1.08359,-1.4448 3.02343,-2.21577 3.83109,-3.8311 1.17737,-2.35473 1.08303,-5.16462 1.91555,-7.66219 0.4515,-1.3545 1.27703,-2.55407 1.91555,-3.8311 1.27703,-2.55406 2.36194,-5.2136 3.8311,-7.66219 2.36704,-3.94508 1.91554,0.10328 1.91554,-3.8311"
       id="path3067"
       inkscape:connector-curvature="0" />
    <path
       style="fill:none;stroke:#000000;stroke-width:1px;stroke-linecap:butt;stroke-linejoin:miter;stroke-opacity:1"
       d="m 279.67008,447.04885 c 0,19.794 0,39.588 0,59.382 0,3.8311 0,7.6622 0,11.49329 0,0.63852 0,1.27704 0,1.91555 0,0.63852 0.63852,1.91555 0,1.91555 -0.63851,0 0,-2.55406 0,-1.91555 0,1.91555 0,3.8311 0,5.74665 0,0.63852 0,1.27703 0,1.91555 0,0.63851 -0.45149,1.46405 0,1.91555 0.4515,0.4515 1.27704,0 1.91555,0 0.63852,0 1.27704,0 1.91555,0 0.63852,0 1.27703,0 1.91555,0 0.63852,0 1.34444,0.28555 1.91555,0 3.78104,-1.89053 3.31303,-9.42104 3.8311,-11.4933 0.48971,-1.95887 1.38427,-3.79862 1.91554,-5.74664 1.27704,-5.10813 2.55407,-10.21626 3.8311,-15.32439 0,-1.91555 -0.37567,-3.86829 0,-5.74664 0.28001,-1.40004 1.63554,-2.43106 1.91555,-3.8311 0.50765,-2.53827 0,-6.70104 0,-9.57774 0,-14.04736 0,-28.09472 0,-42.14207"
       id="path3069"
       inkscape:connector-curvature="0" />
    <path
       style="fill:none;stroke:#000000;stroke-width:1px;stroke-linecap:butt;stroke-linejoin:miter;stroke-opacity:1"
       d="m 310.31886,414.48452 c 0.65044,10.99368 6.50224,2.29335 9.57774,3.8311 0.80767,0.40383 1.10789,1.51172 1.91555,1.91555 0.57111,0.28555 1.3098,-0.20192 1.91555,0 1.3545,0.4515 2.43106,1.63554 3.8311,1.91555 1.87835,0.37567 3.86829,-0.37567 5.74664,0 1.40004,0.28001 2.44596,1.56926 3.8311,1.91555 1.2389,0.30972 2.55406,0 3.8311,0 3.83109,0 7.66219,0 11.49329,0 12.77032,0 25.54065,0 38.31097,0 5.74664,0 11.49329,0 17.23994,0 1.00167,0 7.15851,0.25184 7.66219,0 0.80767,-0.40384 1.27703,-1.27704 1.91555,-1.91555 1.27703,0 2.6196,0.40383 3.83109,0 0.85666,-0.28555 1.16421,-1.41466 1.91555,-1.91555 1.18798,-0.79198 2.4766,-1.46405 3.8311,-1.91555 5.70227,-1.90075 -3.93033,4.53577 5.74665,-1.91555 0.75134,-0.50089 1.10788,-1.51171 1.91554,-1.91555 1.14222,-0.5711 2.9281,0.903 3.8311,0 0.4515,-0.45149 -0.4515,-1.46404 0,-1.91554 2.01917,-2.01917 5.64303,-1.81194 7.6622,-3.8311 0.45149,-0.4515 -0.28556,-1.34444 0,-1.91555 0.80766,-1.61533 2.82931,-2.32842 3.83109,-3.8311 0.79198,-1.18797 1.12357,-2.64312 1.91555,-3.83109 1.50268,-2.25402 4.12125,-3.57945 5.74665,-5.74665 0.85666,-1.14221 1.27703,-2.55406 1.91555,-3.8311 0.63851,-1.27703 1.05888,-2.68888 1.91554,-3.83109 1.0836,-1.4448 2.55407,-2.55407 3.8311,-3.8311 0.63852,-0.63852 1.16421,-1.41466 1.91555,-1.91555 1.18797,-0.79198 2.82151,-0.90596 3.8311,-1.91555 0.4515,-0.4515 -0.4515,-1.46405 0,-1.91555 1.00958,-1.00958 2.64312,-1.12356 3.83109,-1.91554 4.40072,-2.93382 -0.82139,-1.09416 3.8311,-5.74665 1.00958,-1.00958 2.82151,-0.90597 3.8311,-1.91555 1.00958,-1.00958 1.18097,-2.6068 1.91555,-3.8311 1.18447,-1.97412 2.80152,-3.68749 3.83109,-5.74664 0.28556,-0.57111 -0.35418,-1.38427 0,-1.91555 1.00179,-1.50268 2.7475,-2.3863 3.8311,-3.8311 0.85666,-1.14221 1.05889,-2.68888 1.91555,-3.83109 8.2853,-8.28531 0.30022,0.50745 5.74664,-7.6622 1.75682,-2.63522 2.95516,-1.9701 5.74665,-3.83109 0.75134,-0.5009 1.16421,-1.41466 1.91555,-1.91555 3.5364,-2.3576 7.95689,-3.38905 11.49329,-5.74665 2.63522,-1.75681 1.9701,-2.95515 3.8311,-5.74664 0.50089,-0.75134 1.27703,-1.27704 1.91555,-1.91555 0.63851,-0.63852 1.05888,-1.63 1.91554,-1.91555 4.46962,-1.48987 3.8311,2.02197 3.8311,-1.91555"
       id="path3071"
       inkscape:connector-curvature="0" />
    <path
       style="fill:none;stroke:#000000;stroke-width:1px;stroke-linecap:butt;stroke-linejoin:miter;stroke-opacity:1"
       d="m 316.06551,420.23117 c 0,9.57774 0,19.15549 0,28.73323 0,0.46457 -0.0616,5.68504 0,5.74664 0.0616,0.0616 5.28207,0 5.74664,0 0.47528,0 7.50462,0.10505 7.6622,0 1.50268,-1.00178 2.55406,-2.55406 3.83109,-3.83109 0.63852,-0.63852 1.51172,-1.10789 1.91555,-1.91555 0.28555,-0.57111 -0.25152,-1.32866 0,-1.91555 1.68727,-3.93697 3.8311,-7.66219 5.74665,-11.49329 0.63851,-1.27703 1.46405,-2.4766 1.91555,-3.8311 2.28143,-6.8443 -7.41645,7.89113 1.91554,-7.66219 1.33353,-2.22255 4.46041,-5.11734 5.74665,-3.8311 0.4515,0.4515 0,1.27703 0,1.91555 0,3.8311 0,7.66219 0,11.49329 0,0.63852 -0.4515,1.46405 0,1.91555 0.4515,0.4515 1.46405,-0.4515 1.91555,0 0.4515,0.4515 -0.28555,1.34444 0,1.91555 0.40383,0.80766 1.51171,1.10788 1.91555,1.91555 0.5711,1.14221 -0.903,2.92809 0,3.83109 0.4515,0.4515 1.46405,-0.4515 1.91555,0 0.45149,0.4515 -0.4515,1.46405 0,1.91555 0.45149,0.4515 1.46404,-0.4515 1.91554,0 0.903,0.903 -0.90299,2.9281 0,3.8311 0.4515,0.4515 1.34445,-0.28556 1.91555,0 0.80767,0.40383 1.05889,1.62999 1.91555,1.91555 13.45422,4.48474 -3.23796,-4.07419 5.74665,1.91555 1.18797,0.79198 2.4766,1.46404 3.83109,1.91554 0.60575,0.20192 1.27704,0 1.91555,0 1.27703,0 2.6196,0.40384 3.8311,0 3.27004,-1.09001 1.27703,-1.91554 1.91555,-3.83109 0.4515,-1.3545 1.46405,-2.4766 1.91555,-3.8311 0.20191,-0.60575 -0.4515,-1.46405 0,-1.91555 0.4515,-0.4515 1.91554,-0.63852 1.91554,0 0,0.63852 -1.91554,0.63852 -1.91554,0 0,-0.903 1.51171,-1.10788 1.91554,-1.91555 0.34637,-0.69272 0,-8.2454 0,-9.57774 0,-0.46457 -0.0616,-5.68504 0,-5.74665 2.55407,-2.55406 1.91555,3.19259 1.91555,-1.91554 0,-1.27704 0,-2.55407 0,-3.8311 0,-0.63852 -0.63851,-1.91555 0,-1.91555 0.63852,0 0,1.27703 0,1.91555 0,1.27703 0,2.55406 0,3.8311 0,4.4923 -0.4515,-0.903 1.91555,3.83109 0.37975,0.7595 -0.39161,5.35504 0,5.74665 3.78948,3.78947 0.0416,-3.78948 3.8311,0 0.4515,0.4515 -0.4515,1.46405 0,1.91555 0.4515,0.4515 1.46405,-0.4515 1.91555,0 0.4515,0.4515 -0.4515,1.46405 0,1.91555 0.4515,0.45149 1.46405,-0.4515 1.91555,0 0.45149,0.45149 0,1.27703 0,1.91554 0.63851,0 1.34444,-0.28555 1.91554,0 0.80767,0.40384 1.27704,1.27704 1.91555,1.91555 0.63852,0.63852 1.51172,1.10788 1.91555,1.91555 0.28555,0.57111 -0.4515,1.46405 0,1.91555 0.4515,0.4515 1.46405,-0.4515 1.91555,0 0.95777,0.95777 -0.95777,4.78887 0,5.74665 0.4515,0.45149 1.91555,-0.63852 1.91555,0 0,0.63851 -1.91555,0.63851 -1.91555,0 0,-0.63852 1.46405,0.45149 1.91555,0 0.0616,-0.0616 0,-5.28208 0,-5.74665 0,-6.38516 0,-12.77032 0,-19.15549 0,-1.27703 0,-2.55406 0,-3.83109 0,-0.63852 -0.63852,-1.91555 0,-1.91555 0.63851,0 -0.35419,1.38427 0,1.91555 0.94447,1.41671 6.8743,6.08642 7.66219,7.66219 0.37975,0.7595 -0.39161,5.35504 0,5.74665 0.4515,0.4515 1.34444,-0.28556 1.91555,0 0.80767,0.40383 1.05889,1.62999 1.91555,1.91555 1.81725,0.60574 3.8311,0 5.74664,0 0.63852,0 1.91555,-0.63852 1.91555,0 0,0.63851 -2.55406,0 -1.91555,0 1.27704,0 2.6196,0.40383 3.8311,0 0.85666,-0.28556 1.51172,-1.10789 1.91555,-1.91555 0.34636,-0.69273 0,-8.24541 0,-9.57775 0,-0.63851 -0.28555,-1.34444 0,-1.91554 0.40383,-0.80767 1.51172,-1.10789 1.91555,-1.91555 0.57111,-1.14222 -0.903,-2.9281 0,-3.8311 0.4515,-0.4515 1.46405,0.4515 1.91555,0 0.4515,-0.4515 -0.63852,-1.91555 0,-1.91555 0.63851,0 0,1.27703 0,1.91555 0,2.55406 0,5.10813 0,7.66219 0,0.63852 -0.4515,1.46405 0,1.91555 1.00958,1.00959 2.64312,1.12357 3.83109,1.91555 0.75134,0.50089 1.10789,1.51172 1.91555,1.91555 0.57111,0.28555 1.46405,-0.4515 1.91555,0 0.903,0.903 -1.14221,3.25999 0,3.8311 1.14221,0.5711 2.68889,-0.57111 3.8311,0 0.5711,0.28555 -0.57111,1.62999 0,1.91555 1.14221,0.5711 2.55406,0 3.8311,0 1.27703,0 2.55406,0 3.83109,0 0.63852,0 1.46405,0.45149 1.91555,0 0.40954,-0.40955 -0.35203,-6.60611 0,-7.6622 0.4515,-1.3545 1.53988,-2.45364 1.91555,-3.8311 4.24664,-15.571 3.8311,-12.50464 3.8311,-22.98658 0,-0.63851 0,-1.27703 0,-1.91555 0,-0.63851 -0.63852,-1.91555 0,-1.91555 0.63851,0 0.63851,1.91555 0,1.91555 -0.63852,0 0,-1.27703 0,-1.91555 0,-0.63851 -0.63852,-1.91554 0,-1.91554 0.63851,0 0,2.55406 0,1.91554 0,-1.91554 0,-3.83109 0,-5.74664 0,-0.63852 -0.63852,-1.91555 0,-1.91555 0.903,0 1.27703,1.27703 1.91555,1.91555 0.63851,0.63852 1.27703,1.27703 1.91554,1.91555 0.63852,0.63851 1.51172,1.10788 1.91555,1.91555 0.28556,0.5711 -0.4515,1.46405 0,1.91554 0.4515,0.4515 1.46405,-0.45149 1.91555,0 0.903,0.903 -0.903,2.9281 0,3.8311 0.4515,0.4515 1.46405,-0.4515 1.91555,0 0.903,0.903 -0.903,2.9281 0,3.8311 0.4515,0.4515 1.46405,-0.4515 1.91555,0 0.4515,0.4515 -0.28556,1.34444 0,1.91555 3.98603,7.97205 -0.13224,-2.04779 3.8311,1.91555 0.45149,0.4515 -0.4515,1.46405 0,1.91554 0.45149,0.4515 1.46404,-0.45149 1.91554,0 0.4515,0.4515 -0.4515,1.46405 0,1.91555 0.4515,0.4515 1.27704,0 1.91555,0 0.63852,0 1.38427,0.35419 1.91555,0 5.79929,4.72683 3.29486,-5.21041 3.8311,-5.74664 0.4515,-0.4515 1.46405,0.4515 1.91555,0 0.0771,-0.0771 0,-6.95874 0,-7.6622 0,-14.04735 0,-28.09471 0,-42.14206 0,-1.27704 0,-2.55407 0,-3.8311 0,-0.63852 -0.63852,-1.91555 0,-1.91555 0.63851,0 0,1.27703 0,1.91555 0,1.27703 0,2.55406 0,3.8311 0,0.63851 -0.28556,1.34444 0,1.91554 0.38685,0.77372 7.60477,7.60478 7.66219,7.6622 0.63852,0.63851 1.51172,1.10788 1.91555,1.91555 0.28555,0.5711 -0.28555,1.34444 0,1.91555 0.40383,0.80766 1.51171,1.10788 1.91555,1.91554 0.28555,0.57111 -0.28556,1.34445 0,1.91555 0.24935,0.49871 2.50998,3.23666 3.83109,1.91555 0.0616,-0.0616 0,-5.28207 0,-5.74664 0,-6.61312 -0.20191,7.16006 1.91555,-7.6622 0.47012,-3.29082 0,-7.8709 0,-11.49329 0,-5.81207 1.91555,-11.42787 1.91555,-17.23994"
       id="path3075"
       inkscape:connector-curvature="0" />
    <path
       style="fill:none;stroke:#000000;stroke-width:1px;stroke-linecap:butt;stroke-linejoin:miter;stroke-opacity:1"
       d="m 353.52381,494.30927 c -3.61199,0 -7.22399,0 -10.83598,0 -0.22575,0 -0.4515,0 -0.67725,0 -0.22575,0 -0.51762,0.15963 -0.67725,0 -1.01106,-1.01106 -0.52049,-1.6117 -0.67725,-2.70899 -0.19419,-1.35938 -0.5256,-2.69871 -0.67724,-4.06349 -0.14958,-1.34622 0,-2.709 0,-4.06349 0,-1.806 0,-3.612 0,-5.41799 0,-2.709 0,-5.41799 0,-8.12699 0,-0.16425 -0.0218,-2.00996 0,-2.03174 0.87916,-0.87917 1.63605,-0.67725 2.70899,-0.67725 0.22575,0 0.46308,0.0714 0.67725,0 0.47889,-0.15963 0.87561,-0.51762 1.3545,-0.67725 0.39434,-0.13145 3.59749,0 4.06349,0 2.03174,0 4.06349,0 6.09524,0 0.18934,0 3.28028,-0.053 3.38624,0 0.20192,0.10096 -0.10096,0.47533 0,0.67725 0.14278,0.28555 0.50016,0.41161 0.67725,0.67725 2.28088,3.42132 0.005,0.0157 0.67725,2.03174 0.15963,0.47889 0.51762,0.87561 0.67725,1.3545 0.15527,0.46583 -0.1998,1.63215 0,2.03174 0.14277,0.28556 0.57629,0.37438 0.67724,0.67725 0.28556,0.85666 -0.28555,1.85234 0,2.709 0.10096,0.30287 0.53448,0.39169 0.67725,0.67725 0.089,0.17807 0,2.35484 0,2.70899 0,3.38625 0,6.77249 0,10.15873"
       id="path3077"
       inkscape:connector-curvature="0" />
    <path
       style="fill:none;stroke:#000000;stroke-width:1px;stroke-linecap:butt;stroke-linejoin:miter;stroke-opacity:1"
       d="m 351.49206,467.21933 c -0.88231,-3.81612 -0.67725,-7.64147 -0.67725,-11.51323 0,-0.24871 -0.0273,-2.68174 0,-2.709 0.15963,-0.15962 0.4515,0 0.67725,0 1.3545,0 2.709,0 4.06349,0 2.03175,0 4.0635,0 6.09524,0 0.16094,0 2.55721,-0.0759 2.709,0 0.60027,0.30014 1.41523,1.62074 2.03174,2.03175 0.42002,0.28001 0.99756,0.32031 1.3545,0.67725 0.15963,0.15963 -0.20192,0.57629 0,0.67725 0.40383,0.20191 0.92617,-0.14278 1.3545,0 0.60575,0.20191 0.73504,1.19963 1.3545,1.3545 0.65702,0.16425 1.37471,-0.16426 2.03174,0 0.30973,0.0774 0.41161,0.50015 0.67725,0.67724 0.42001,0.28001 0.99756,0.32031 1.3545,0.67725 0.15963,0.15963 -0.20192,0.57629 0,0.67725 0.40383,0.20192 1.03524,-0.31926 1.35449,0 0.31926,0.31926 -0.14277,0.92617 0,1.3545 0.10096,0.30287 0.4515,0.4515 0.67725,0.67725 0.22575,0.67725 0.50411,1.33918 0.67725,2.03174 0.0548,0.21901 0,0.4515 0,0.67725 0,0.903 -0.14845,1.81828 0,2.709 0.083,0.49792 0.55482,0.86477 0.67725,1.35449 0.11863,0.47451 0,3.81828 0,4.0635 0,2.03174 0,4.06349 0,6.09523 0,2.07867 0.2859,4.16894 -0.67725,6.09524 -0.68486,1.36972 -1.57167,0.21718 -2.03174,0.67725 -0.35695,0.35694 -0.32031,0.99756 -0.67725,1.3545 -0.15963,0.15963 -0.47533,-0.10096 -0.67725,0 -0.28555,0.14278 -0.3917,0.53447 -0.67725,0.67725 -0.20192,0.10096 -0.47533,-0.10096 -0.67725,0 -0.5711,0.28555 -0.78339,1.06894 -1.3545,1.35449 -0.20191,0.10096 -0.51762,-0.15962 -0.67724,0 -0.15963,0.15963 0.15962,0.51762 0,0.67725 -0.15963,0.15963 -0.4515,0 -0.67725,0 -0.22575,0 -0.4515,0 -0.67725,0"
       id="path3079"
       inkscape:connector-curvature="0" />
    <path
       style="fill:none;stroke:#000000;stroke-width:1px;stroke-linecap:butt;stroke-linejoin:miter;stroke-opacity:1"
       d="m 335.91534,489.56853 c 0,-1.12874 0,-2.25749 0,-3.38624 0,-0.22575 0.15963,-0.51762 0,-0.67725 -0.15963,-0.15963 -0.4515,0 -0.67725,0 -0.45149,-0.67725 -1.0971,-1.25956 -1.35449,-2.03174 -0.65817,-1.97451 -0.69633,-4.12074 -1.3545,-6.09524 -0.0714,-0.21417 -0.4515,0 -0.67725,0 -0.22575,0 -0.67725,0.22575 -0.67725,0 0,-0.22575 0.67725,-0.22575 0.67725,0 0,0.22575 -0.51762,0.15963 -0.67725,0 -0.31926,-0.31926 0.31926,-1.03524 0,-1.3545 -0.15963,-0.15963 -0.50097,0.14102 -0.67725,0 -2.03174,-1.806 -4.06349,-3.61199 -6.09523,-5.41799 0,-0.22575 0.15962,-0.51762 0,-0.67725 -0.15963,-0.15963 -0.46765,0.0838 -0.67725,0 -3.96496,-1.58598 -1.50805,-1.3545 -4.74074,-1.3545 -0.15629,0 -2.0057,-0.0781 -2.03175,0 -0.21416,0.6425 0.16426,1.37472 0,2.03175 -0.0774,0.30973 -0.53447,0.3917 -0.67725,0.67725 -0.10096,0.20192 0,0.4515 0,0.67725 0,0.22575 0,0.4515 0,0.67725 0,1.58024 0,3.16049 0,4.74074 0,0.47105 -0.12246,3.14132 0,3.38624 0.14278,0.28555 0.53447,0.3917 0.67725,0.67725 0.97354,1.94707 -2.37881,-1.13437 1.3545,1.3545 1.54975,1.03316 -0.42348,0.53609 2.03174,1.35449 0.21417,0.0714 0.47534,-0.10095 0.67725,0 0.28556,0.14278 0.3917,0.53448 0.67725,0.67725 0.74471,0.37236 1.36701,-0.65222 2.03175,0.67725 0.15407,0.30815 -0.0369,3.23858 0,3.38624 0.83687,3.34752 0.67725,-1.41729 0.67725,1.3545 0,0.67725 0,1.3545 0,2.03175 0,0.22575 -0.10096,0.47533 0,0.67725 0.14277,0.28555 0.53447,0.39169 0.67724,0.67725 0.10096,0.20191 -0.10095,0.47533 0,0.67724 0.14278,0.28556 0.53448,0.3917 0.67725,0.67725 0.20192,0.40384 -0.31926,1.03524 0,1.3545 0.15963,0.15963 0.51762,-0.15963 0.67725,0 0.31926,0.31926 -0.20191,0.95066 0,1.3545 0.14278,0.28555 0.4515,0.4515 0.67725,0.67725 0.22575,0.22575 0.3917,0.53447 0.67725,0.67724 0.20192,0.10096 0.47533,-0.10095 0.67725,0 0.28555,0.14278 0.39169,0.53448 0.67725,0.67725 0.20191,0.10096 0.47533,-0.10095 0.67725,0 0.28555,0.14278 0.4116,0.50016 0.67724,0.67725 0.42002,0.28001 0.903,0.4515 1.3545,0.67725 0.4515,0.22575 0.87561,0.51762 1.3545,0.67725 0.21416,0.0714 0.51762,-0.15963 0.67725,0 0.15963,0.15963 -0.15963,0.51762 0,0.67725 0.15963,0.15963 0.4515,0 0.67725,0 0.22575,0 0.45149,0 0.67724,0 0.22575,0 0.4515,0 0.67725,0 0.22575,0 0.51762,-0.15963 0.67725,0 0.15963,0.15963 -0.10096,0.47533 0,0.67725 0.14278,0.28555 0.53447,0.39169 0.67725,0.67725 0.20192,0.40383 -0.20192,0.95066 0,1.35449 0.28555,0.57111 1.06894,0.78339 1.3545,1.3545 0.10096,0.20192 -0.15963,0.51762 0,0.67725 0.4515,0.22575 0.903,0.4515 1.3545,0.67725 0,0.22575 -0.15963,0.51762 0,0.67725 0.15962,0.15963 0.67724,-0.22575 0.67724,0 0,0.22575 -0.89141,-0.0714 -0.67724,0 0.88302,0.29434 1.87647,0.26098 2.70899,0.67724 0.20192,0.10096 -0.15963,0.51762 0,0.67725 0.31926,0.31926 1.03524,-0.31925 1.3545,0 0.15963,0.15963 0.22575,0.67725 0,0.67725 -0.22575,0 0,-0.4515 0,-0.67725"
       id="path3081"
       inkscape:connector-curvature="0" />
    <path
       style="fill:none;stroke:#000000;stroke-width:1px;stroke-linecap:butt;stroke-linejoin:miter;stroke-opacity:1"
       d="m 360.97354,498.37277 c 2.20502,0 2.81514,-0.28556 4.74074,0.67724 0.28556,0.14278 0.3917,0.53448 0.67725,0.67725 0.20192,0.10096 0.51762,-0.15963 0.67725,0 0.15963,0.15963 -0.10096,0.47534 0,0.67725 0.14278,0.28556 0.53447,0.3917 0.67725,0.67725 0.10096,0.20192 -0.10096,0.47533 0,0.67725 1.54975,3.0995 -0.2807,-2.87385 1.3545,2.03175 0.0714,0.21416 -0.10096,0.47533 0,0.67724 0.14277,0.28556 0.50015,0.41161 0.67725,0.67725 0.28,0.42001 0.39724,0.93449 0.67725,1.3545 0.17709,0.26564 0.53447,0.3917 0.67724,0.67725 0.10096,0.20192 -0.10095,0.47533 0,0.67725 0.14278,0.28555 0.57629,0.37437 0.67725,0.67725 0.14278,0.42833 -0.14277,0.92616 0,1.35449 0.10096,0.30288 0.57629,0.37438 0.67725,0.67725 0.14278,0.42833 -0.0885,0.91177 0,1.3545 -0.15541,1.36001 1.05965,2.20684 1.3545,3.38624 0.1095,0.43802 -0.0885,0.91177 0,1.3545 1.14044,5.70221 0.0105,0.0209 1.3545,2.70899 0.22173,0.44348 -0.20034,2.78524 0,3.38625 0.15963,0.47889 0.57825,0.85951 0.67724,1.3545 0.13417,0.67083 0,6.6565 0,6.77248 0,0.22575 -0.10095,0.47533 0,0.67725 0.14278,0.28555 0.53448,0.3917 0.67725,0.67725 0.10306,0.20611 0,1.72674 0,2.03175 0,1.58024 0,3.16049 0,4.74074 0,2.90658 0.32244,6.28883 -1.35449,8.80423 -0.22575,0.22575 -0.4515,0.4515 -0.67725,0.67725 -0.22575,0 -0.51762,-0.15963 -0.67725,0 -0.15963,0.15963 0.15963,0.51762 0,0.67725 -0.15963,0.15963 -0.4515,0 -0.67725,0 -1.58025,0 -3.16049,0 -4.74074,0 -2.709,0 -5.41799,0 -8.12698,0 -0.22575,0 -0.51762,0.15963 -0.67725,0 -0.15963,-0.15963 0.15963,-0.51762 0,-0.67725 -0.15963,-0.15963 -0.47534,0.10096 -0.67725,0 -2.07886,-1.03943 -4.01638,-2.34682 -6.09524,-3.38625 -1.57376,-0.78688 0.21211,2.38527 -2.03175,-1.35449 -1.03885,-1.73142 -1.63884,-3.70574 -2.70899,-5.41799 -0.11965,-0.19144 -0.51762,0.15963 -0.67725,0 -0.15963,-0.15963 0.0298,-0.45348 0,-0.67725 -0.42194,-3.16458 -0.85657,-6.32797 -1.3545,-9.48148 -0.17953,-1.13702 -0.48801,-2.25081 -0.67725,-3.38625 -0.16742,-1.00457 0,-2.35648 0,-3.38624 0,-2.25749 0,-4.51499 0,-6.77249"
       id="path3083"
       inkscape:connector-curvature="0" />
    <path
       style="fill:none;stroke:#000000;stroke-width:1px;stroke-linecap:butt;stroke-linejoin:miter;stroke-opacity:1"
       d="m 376.55026,549.84367 c 1.21548,0.85665 2.77851,-0.42833 4.0635,0 0.0841,0.028 1.97365,1.91555 2.03174,2.03174 0.10096,0.20192 -0.15963,0.51762 0,0.67725 0.15963,0.15963 0.47533,-0.10096 0.67725,0 2.81855,1.40927 -0.724,-0.0467 0.67725,1.3545 0.15963,0.15963 0.51762,-0.15963 0.67725,0 0.15963,0.15963 -0.15963,0.51762 0,0.67725 0.15963,0.15963 0.47533,-0.10096 0.67725,0 0.28555,0.14277 0.4515,0.4515 0.67725,0.67724 0.22574,0.22575 0.53447,0.3917 0.67724,0.67725 0.10096,0.20192 -0.0714,0.46309 0,0.67725 0.31926,0.95778 1.03524,1.75122 1.3545,2.709 0.14278,0.42833 0,0.903 0,1.35449 0,1.58025 0,3.1605 0,4.74074 0,0.903 0,1.806 0,2.709 0,0.4515 0.20192,0.95066 0,1.3545 -0.10096,0.20191 -0.51762,-0.15963 -0.67725,0 -0.15963,0.15963 0.10096,0.47533 0,0.67725 -0.14277,0.28555 -0.53447,0.39169 -0.67725,0.67724 -0.10095,0.20192 0,0.4515 0,0.67725 -0.22575,0.22575 -0.53447,0.3917 -0.67724,0.67725 -0.10096,0.20192 0.22574,0.67725 0,0.67725 -0.22575,0 0,-0.903 0,-0.67725 0,0.67725 0,1.3545 0,2.03175 0,1.3545 0,2.70899 0,4.06349 0,1.12875 0,2.2575 0,3.38624 0,0.22575 0,0.4515 0,0.67725 0,0.22575 -0.10096,0.47533 0,0.67725 0.14277,0.28555 0.53447,0.3917 0.67724,0.67725 0.10096,0.20192 -0.15963,0.51762 0,0.67725 6.5e-4,6.4e-4 2.02868,-10e-4 2.03175,0 0.30287,0.10096 0.37437,0.57629 0.67725,0.67725 0.56091,0.18697 2.95555,-0.21535 3.38624,0 0.28555,0.14277 0.37438,0.57629 0.67725,0.67725 0.42833,0.14277 0.92617,-0.14278 1.3545,0 2.98952,0.9965 -2.46056,0.67724 2.03174,0.67724 1.58827,0 -0.31925,-0.15963 1.3545,0.67725 0.20192,0.10096 0.67725,-0.22575 0.67725,0 0,0.22575 -0.4515,0 -0.67725,0 -0.4515,0 -0.903,0 -1.3545,0 -1.12874,0 -2.25749,0 -3.38624,0 -3.83774,0 -7.67548,0 -11.51323,0 -0.16425,0 -2.00996,0.0218 -2.03174,0 -0.15963,-0.15963 0.15963,-0.51762 0,-0.67725 -0.15963,-0.15963 -0.51762,0.15963 -0.67725,0 -0.15963,-0.15963 0.0548,-0.45824 0,-0.67724 -0.3986,-1.59442 -0.903,-3.1605 -1.3545,-4.74075 -0.4515,-1.58024 -0.903,-3.16049 -1.3545,-4.74074 -0.22575,-0.22575 -0.53447,-0.39169 -0.67725,-0.67724 -0.10095,-0.20192 0.15963,-0.51762 0,-0.67725 -0.15962,-0.15963 -0.51761,0.15963 -0.67724,0 -0.15963,-0.15963 0,-0.4515 0,-0.67725 0,-0.903 0,-1.806 0,-2.709 0,-2.70899 0,-5.41799 0,-8.12698 0,-0.67692 -0.14486,-2.80683 0,-3.38624 0.17314,-0.69257 0.5041,-1.33918 0.67724,-2.03175 0.16905,-0.67616 -0.0657,-2.05173 0,-2.709 0.18111,-1.81101 0.4515,-3.61199 0.67725,-5.41798 z"
       id="path3087"
       inkscape:connector-curvature="0" />
    <path
       style="fill:none;stroke:#000000;stroke-width:1px;stroke-linecap:butt;stroke-linejoin:miter;stroke-opacity:1"
       d="m 427.37113,488.87659 c -3.61199,0 -7.22399,0 -10.83598,0 -0.22575,0 -0.4515,0 -0.67725,0 -0.22575,0 -0.51762,0.15963 -0.67725,0 -1.01106,-1.01106 -0.52049,-1.6117 -0.67725,-2.70899 -0.19419,-1.35938 -0.5256,-2.69871 -0.67724,-4.06349 -0.14958,-1.34622 0,-2.709 0,-4.06349 0,-1.806 0,-3.612 0,-5.41799 0,-2.709 0,-5.41799 0,-8.12699 0,-0.16425 -0.0218,-2.00996 0,-2.03174 0.87916,-0.87917 1.63605,-0.67725 2.70899,-0.67725 0.22575,0 0.46308,0.0714 0.67725,0 0.47889,-0.15963 0.87561,-0.51762 1.3545,-0.67725 0.39434,-0.13145 3.59749,0 4.06349,0 2.03174,0 4.06349,0 6.09524,0 0.18934,0 3.28028,-0.053 3.38624,0 0.20192,0.10096 -0.10096,0.47533 0,0.67725 0.14278,0.28555 0.50016,0.41161 0.67725,0.67725 2.28088,3.42132 0.005,0.0157 0.67725,2.03174 0.15963,0.47889 0.51762,0.87561 0.67725,1.3545 0.15527,0.46583 -0.1998,1.63215 0,2.03174 0.14277,0.28556 0.57629,0.37438 0.67724,0.67725 0.28556,0.85666 -0.28555,1.85234 0,2.709 0.10096,0.30287 0.53448,0.39169 0.67725,0.67725 0.089,0.17807 0,2.35484 0,2.70899 0,3.38625 0,6.77249 0,10.15873"
       id="path3077-5"
       inkscape:connector-curvature="0" />
    <path
       style="fill:none;stroke:#000000;stroke-width:1px;stroke-linecap:butt;stroke-linejoin:miter;stroke-opacity:1"
       d="m 425.33938,461.78665 c -0.88231,-3.81612 -0.67725,-7.64147 -0.67725,-11.51323 0,-0.24871 -0.0273,-2.68174 0,-2.709 0.15963,-0.15962 0.4515,0 0.67725,0 1.3545,0 2.709,0 4.06349,0 2.03175,0 4.0635,0 6.09524,0 0.16094,0 2.55721,-0.0759 2.709,0 0.60027,0.30014 1.41523,1.62074 2.03174,2.03175 0.42002,0.28001 0.99756,0.32031 1.3545,0.67725 0.15963,0.15963 -0.20192,0.57629 0,0.67725 0.40383,0.20191 0.92617,-0.14278 1.3545,0 0.60575,0.20191 0.73504,1.19963 1.3545,1.3545 0.65702,0.16425 1.37471,-0.16426 2.03174,0 0.30973,0.0774 0.41161,0.50015 0.67725,0.67724 0.42001,0.28001 0.99756,0.32031 1.3545,0.67725 0.15963,0.15963 -0.20192,0.57629 0,0.67725 0.40383,0.20192 1.03524,-0.31926 1.35449,0 0.31926,0.31926 -0.14277,0.92617 0,1.3545 0.10096,0.30287 0.4515,0.4515 0.67725,0.67725 0.22575,0.67725 0.50411,1.33918 0.67725,2.03174 0.0548,0.21901 0,0.4515 0,0.67725 0,0.903 -0.14845,1.81828 0,2.709 0.083,0.49792 0.55482,0.86477 0.67725,1.35449 0.11863,0.47451 0,3.81828 0,4.0635 0,2.03174 0,4.06349 0,6.09523 0,2.07867 0.2859,4.16894 -0.67725,6.09524 -0.68486,1.36972 -1.57167,0.21718 -2.03174,0.67725 -0.35695,0.35694 -0.32031,0.99756 -0.67725,1.3545 -0.15963,0.15963 -0.47533,-0.10096 -0.67725,0 -0.28555,0.14278 -0.3917,0.53447 -0.67725,0.67725 -0.20192,0.10096 -0.47533,-0.10096 -0.67725,0 -0.5711,0.28555 -0.78339,1.06894 -1.3545,1.35449 -0.20191,0.10096 -0.51762,-0.15962 -0.67724,0 -0.15963,0.15963 0.15962,0.51762 0,0.67725 -0.15963,0.15963 -0.4515,0 -0.67725,0 -0.22575,0 -0.4515,0 -0.67725,0"
       id="path3079-6"
       inkscape:connector-curvature="0" />
    <path
       style="fill:none;stroke:#000000;stroke-width:1px;stroke-linecap:butt;stroke-linejoin:miter;stroke-opacity:1"
       d="m 409.76266,484.13585 c 0,-1.12874 0,-2.25749 0,-3.38624 0,-0.22575 0.15963,-0.51762 0,-0.67725 -0.15963,-0.15963 -0.4515,0 -0.67725,0 -0.45149,-0.67725 -1.0971,-1.25956 -1.35449,-2.03174 -0.65817,-1.97451 -0.69633,-4.12074 -1.3545,-6.09524 -0.0714,-0.21417 -0.4515,0 -0.67725,0 -0.22575,0 -0.67725,0.22575 -0.67725,0 0,-0.22575 0.67725,-0.22575 0.67725,0 0,0.22575 -0.51762,0.15963 -0.67725,0 -0.31926,-0.31926 0.31926,-1.03524 0,-1.3545 -0.15963,-0.15963 -0.50097,0.14102 -0.67725,0 -2.03174,-1.806 -4.06349,-3.61199 -6.09523,-5.41799 0,-0.22575 0.15962,-0.51762 0,-0.67725 -0.15963,-0.15963 -0.46765,0.0838 -0.67725,0 -3.96496,-1.58598 -1.50805,-1.3545 -4.74074,-1.3545 -0.15629,0 -2.0057,-0.0781 -2.03175,0 -0.21416,0.6425 0.16426,1.37472 0,2.03175 -0.0774,0.30973 -0.53447,0.3917 -0.67725,0.67725 -0.10096,0.20192 0,0.4515 0,0.67725 0,0.22575 0,0.4515 0,0.67725 0,1.58024 0,3.16049 0,4.74074 0,0.47105 -0.12246,3.14132 0,3.38624 0.14278,0.28555 0.53447,0.3917 0.67725,0.67725 0.97354,1.94707 -2.37881,-1.13437 1.3545,1.3545 1.54975,1.03316 -0.42348,0.53609 2.03174,1.35449 0.21417,0.0714 0.47534,-0.10095 0.67725,0 0.28556,0.14278 0.3917,0.53448 0.67725,0.67725 0.74471,0.37236 1.36701,-0.65222 2.03175,0.67725 0.15407,0.30815 -0.0369,3.23858 0,3.38624 0.83687,3.34752 0.67725,-1.41729 0.67725,1.3545 0,0.67725 0,1.3545 0,2.03175 0,0.22575 -0.10096,0.47533 0,0.67725 0.14277,0.28555 0.53447,0.39169 0.67724,0.67725 0.10096,0.20191 -0.10095,0.47533 0,0.67724 0.14278,0.28556 0.53448,0.3917 0.67725,0.67725 0.20192,0.40384 -0.31926,1.03524 0,1.3545 0.15963,0.15963 0.51762,-0.15963 0.67725,0 0.31926,0.31926 -0.20191,0.95066 0,1.3545 0.14278,0.28555 0.4515,0.4515 0.67725,0.67725 0.22575,0.22575 0.3917,0.53447 0.67725,0.67724 0.20192,0.10096 0.47533,-0.10095 0.67725,0 0.28555,0.14278 0.39169,0.53448 0.67725,0.67725 0.20191,0.10096 0.47533,-0.10095 0.67725,0 0.28555,0.14278 0.4116,0.50016 0.67724,0.67725 0.42002,0.28001 0.903,0.4515 1.3545,0.67725 0.4515,0.22575 0.87561,0.51762 1.3545,0.67725 0.21416,0.0714 0.51762,-0.15963 0.67725,0 0.15963,0.15963 -0.15963,0.51762 0,0.67725 0.15963,0.15963 0.4515,0 0.67725,0 0.22575,0 0.45149,0 0.67724,0 0.22575,0 0.4515,0 0.67725,0 0.22575,0 0.51762,-0.15963 0.67725,0 0.15963,0.15963 -0.10096,0.47533 0,0.67725 0.14278,0.28555 0.53447,0.39169 0.67725,0.67725 0.20192,0.40383 -0.20192,0.95066 0,1.35449 0.28555,0.57111 1.06894,0.78339 1.3545,1.3545 0.10096,0.20192 -0.15963,0.51762 0,0.67725 0.4515,0.22575 0.903,0.4515 1.3545,0.67725 0,0.22575 -0.15963,0.51762 0,0.67725 0.15962,0.15963 0.67724,-0.22575 0.67724,0 0,0.22575 -0.89141,-0.0714 -0.67724,0 0.88302,0.29434 1.87647,0.26098 2.70899,0.67724 0.20192,0.10096 -0.15963,0.51762 0,0.67725 0.31926,0.31926 1.03524,-0.31925 1.3545,0 0.15963,0.15963 0.22575,0.67725 0,0.67725 -0.22575,0 0,-0.4515 0,-0.67725"
       id="path3081-2"
       inkscape:connector-curvature="0" />
    <path
       style="fill:none;stroke:#000000;stroke-width:1px;stroke-linecap:butt;stroke-linejoin:miter;stroke-opacity:1"
       d="m 434.82086,492.94009 c 2.20502,0 2.81514,-0.28556 4.74074,0.67724 0.28556,0.14278 0.3917,0.53448 0.67725,0.67725 0.20192,0.10096 0.51762,-0.15963 0.67725,0 0.15963,0.15963 -0.10096,0.47534 0,0.67725 0.14278,0.28556 0.53447,0.3917 0.67725,0.67725 0.10096,0.20192 -0.10096,0.47533 0,0.67725 1.54975,3.0995 -0.2807,-2.87385 1.3545,2.03175 0.0714,0.21416 -0.10096,0.47533 0,0.67724 0.14277,0.28556 0.50015,0.41161 0.67725,0.67725 0.28,0.42001 0.39724,0.93449 0.67725,1.3545 0.17709,0.26564 0.53447,0.3917 0.67724,0.67725 0.10096,0.20192 -0.10095,0.47533 0,0.67725 0.14278,0.28555 0.57629,0.37437 0.67725,0.67725 0.14278,0.42833 -0.14277,0.92616 0,1.35449 0.10096,0.30288 0.57629,0.37438 0.67725,0.67725 0.14278,0.42833 -0.0885,0.91177 0,1.3545 -0.15541,1.36001 1.05965,2.20684 1.3545,3.38624 0.1095,0.43802 -0.0885,0.91177 0,1.3545 1.14044,5.70221 0.0105,0.0209 1.3545,2.70899 0.22173,0.44348 -0.20034,2.78524 0,3.38625 0.15963,0.47889 0.57825,0.85951 0.67724,1.3545 0.13417,0.67083 0,6.6565 0,6.77248 0,0.22575 -0.10095,0.47533 0,0.67725 0.14278,0.28555 0.53448,0.3917 0.67725,0.67725 0.10306,0.20611 0,1.72674 0,2.03175 0,1.58024 0,3.16049 0,4.74074 0,2.90658 0.32244,6.28883 -1.35449,8.80423 -0.22575,0.22575 -0.4515,0.4515 -0.67725,0.67725 -0.22575,0 -0.51762,-0.15963 -0.67725,0 -0.15963,0.15963 0.15963,0.51762 0,0.67725 -0.15963,0.15963 -0.4515,0 -0.67725,0 -1.58025,0 -3.16049,0 -4.74074,0 -2.709,0 -5.41799,0 -8.12698,0 -0.22575,0 -0.51762,0.15963 -0.67725,0 -0.15963,-0.15963 0.15963,-0.51762 0,-0.67725 -0.15963,-0.15963 -0.47534,0.10096 -0.67725,0 -2.07886,-1.03943 -4.01638,-2.34682 -6.09524,-3.38625 -1.57376,-0.78688 0.21211,2.38527 -2.03175,-1.35449 -1.03885,-1.73142 -1.63884,-3.70574 -2.70899,-5.41799 -0.11965,-0.19144 -0.51762,0.15963 -0.67725,0 -0.15963,-0.15963 0.0298,-0.45348 0,-0.67725 -0.42194,-3.16458 -0.85657,-6.32797 -1.3545,-9.48148 -0.17953,-1.13702 -0.48801,-2.25081 -0.67725,-3.38625 -0.16742,-1.00457 0,-2.35648 0,-3.38624 0,-2.25749 0,-4.51499 0,-6.77249"
       id="path3083-9"
       inkscape:connector-curvature="0" />
    <path
       style="fill:none;stroke:#000000;stroke-width:1px;stroke-linecap:butt;stroke-linejoin:miter;stroke-opacity:1"
       d="m 450.39758,544.41099 c 1.21548,0.85665 2.77851,-0.42833 4.0635,0 0.0841,0.028 1.97365,1.91555 2.03174,2.03174 0.10096,0.20192 -0.15963,0.51762 0,0.67725 0.15963,0.15963 0.47533,-0.10096 0.67725,0 2.81855,1.40927 -0.724,-0.0467 0.67725,1.3545 0.15963,0.15963 0.51762,-0.15963 0.67725,0 0.15963,0.15963 -0.15963,0.51762 0,0.67725 0.15963,0.15963 0.47533,-0.10096 0.67725,0 0.28555,0.14277 0.4515,0.4515 0.67725,0.67724 0.22574,0.22575 0.53447,0.3917 0.67724,0.67725 0.10096,0.20192 -0.0714,0.46309 0,0.67725 0.31926,0.95778 1.03524,1.75122 1.3545,2.709 0.14278,0.42833 0,0.903 0,1.35449 0,1.58025 0,3.1605 0,4.74074 0,0.903 0,1.806 0,2.709 0,0.4515 0.20192,0.95066 0,1.3545 -0.10096,0.20191 -0.51762,-0.15963 -0.67725,0 -0.15963,0.15963 0.10096,0.47533 0,0.67725 -0.14277,0.28555 -0.53447,0.39169 -0.67725,0.67724 -0.10095,0.20192 0,0.4515 0,0.67725 -0.22575,0.22575 -0.53447,0.3917 -0.67724,0.67725 -0.10096,0.20192 0.22574,0.67725 0,0.67725 -0.22575,0 0,-0.903 0,-0.67725 0,0.67725 0,1.3545 0,2.03175 0,1.3545 0,2.70899 0,4.06349 0,1.12875 0,2.2575 0,3.38624 0,0.22575 0,0.4515 0,0.67725 0,0.22575 -0.10096,0.47533 0,0.67725 0.14277,0.28555 0.53447,0.3917 0.67724,0.67725 0.10096,0.20192 -0.15963,0.51762 0,0.67725 6.5e-4,6.4e-4 2.02868,-10e-4 2.03175,0 0.30287,0.10096 0.37437,0.57629 0.67725,0.67725 0.56091,0.18697 2.95555,-0.21535 3.38624,0 0.28555,0.14277 0.37438,0.57629 0.67725,0.67725 0.42833,0.14277 0.92617,-0.14278 1.3545,0 2.98952,0.9965 -2.46056,0.67724 2.03174,0.67724 1.58827,0 -0.31925,-0.15963 1.3545,0.67725 0.20192,0.10096 0.67725,-0.22575 0.67725,0 0,0.22575 -0.4515,0 -0.67725,0 -0.4515,0 -0.903,0 -1.3545,0 -1.12874,0 -2.25749,0 -3.38624,0 -3.83774,0 -7.67548,0 -11.51323,0 -0.16425,0 -2.00996,0.0218 -2.03174,0 -0.15963,-0.15963 0.15963,-0.51762 0,-0.67725 -0.15963,-0.15963 -0.51762,0.15963 -0.67725,0 -0.15963,-0.15963 0.0548,-0.45824 0,-0.67724 -0.3986,-1.59442 -0.903,-3.1605 -1.3545,-4.74075 -0.4515,-1.58024 -0.903,-3.16049 -1.3545,-4.74074 -0.22575,-0.22575 -0.53447,-0.39169 -0.67725,-0.67724 -0.10095,-0.20192 0.15963,-0.51762 0,-0.67725 -0.15962,-0.15963 -0.51761,0.15963 -0.67724,0 -0.15963,-0.15963 0,-0.4515 0,-0.67725 0,-0.903 0,-1.806 0,-2.709 0,-2.70899 0,-5.41799 0,-8.12698 0,-0.67692 -0.14486,-2.80683 0,-3.38624 0.17314,-0.69257 0.5041,-1.33918 0.67724,-2.03175 0.16905,-0.67616 -0.0657,-2.05173 0,-2.709 0.18111,-1.81101 0.4515,-3.61199 0.67725,-5.41798 z"
       id="path3087-1"
       inkscape:connector-curvature="0" />
    <path
       style="fill:none;stroke:#000000;stroke-width:1px;stroke-linecap:butt;stroke-linejoin:miter;stroke-opacity:1"
       d="m 520.15419,542.37923 c -3.61199,0 -7.22399,0 -10.83598,0 -0.22575,0 -0.4515,0 -0.67725,0 -0.22575,0 -0.51762,0.15963 -0.67725,0 -1.01106,-1.01106 -0.52049,-1.6117 -0.67725,-2.70899 -0.19419,-1.35938 -0.5256,-2.69871 -0.67724,-4.06349 -0.14958,-1.34622 0,-2.709 0,-4.06349 0,-1.806 0,-3.612 0,-5.41799 0,-2.709 0,-5.41799 0,-8.12699 0,-0.16425 -0.0218,-2.00996 0,-2.03174 0.87916,-0.87917 1.63605,-0.67725 2.70899,-0.67725 0.22575,0 0.46308,0.0714 0.67725,0 0.47889,-0.15963 0.87561,-0.51762 1.3545,-0.67725 0.39434,-0.13145 3.59749,0 4.06349,0 2.03174,0 4.06349,0 6.09524,0 0.18934,0 3.28028,-0.053 3.38624,0 0.20192,0.10096 -0.10096,0.47533 0,0.67725 0.14278,0.28555 0.50016,0.41161 0.67725,0.67725 2.28088,3.42132 0.005,0.0157 0.67725,2.03174 0.15963,0.47889 0.51762,0.87561 0.67725,1.3545 0.15527,0.46583 -0.1998,1.63215 0,2.03174 0.14277,0.28556 0.57629,0.37438 0.67724,0.67725 0.28556,0.85666 -0.28555,1.85234 0,2.709 0.10096,0.30287 0.53448,0.39169 0.67725,0.67725 0.089,0.17807 0,2.35484 0,2.70899 0,3.38625 0,6.77249 0,10.15873"
       id="path3077-0"
       inkscape:connector-curvature="0" />
    <path
       style="fill:none;stroke:#000000;stroke-width:1px;stroke-linecap:butt;stroke-linejoin:miter;stroke-opacity:1"
       d="m 518.12244,515.28929 c -0.88231,-3.81612 -0.67725,-7.64147 -0.67725,-11.51323 0,-0.24871 -0.0273,-2.68174 0,-2.709 0.15963,-0.15962 0.4515,0 0.67725,0 1.3545,0 2.709,0 4.06349,0 2.03175,0 4.0635,0 6.09524,0 0.16094,0 2.55721,-0.0759 2.709,0 0.60027,0.30014 1.41523,1.62074 2.03174,2.03175 0.42002,0.28001 0.99756,0.32031 1.3545,0.67725 0.15963,0.15963 -0.20192,0.57629 0,0.67725 0.40383,0.20191 0.92617,-0.14278 1.3545,0 0.60575,0.20191 0.73504,1.19963 1.3545,1.3545 0.65702,0.16425 1.37471,-0.16426 2.03174,0 0.30973,0.0774 0.41161,0.50015 0.67725,0.67724 0.42001,0.28001 0.99756,0.32031 1.3545,0.67725 0.15963,0.15963 -0.20192,0.57629 0,0.67725 0.40383,0.20192 1.03524,-0.31926 1.35449,0 0.31926,0.31926 -0.14277,0.92617 0,1.3545 0.10096,0.30287 0.4515,0.4515 0.67725,0.67725 0.22575,0.67725 0.50411,1.33918 0.67725,2.03174 0.0548,0.21901 0,0.4515 0,0.67725 0,0.903 -0.14845,1.81828 0,2.709 0.083,0.49792 0.55482,0.86477 0.67725,1.35449 0.11863,0.47451 0,3.81828 0,4.0635 0,2.03174 0,4.06349 0,6.09523 0,2.07867 0.2859,4.16894 -0.67725,6.09524 -0.68486,1.36972 -1.57167,0.21718 -2.03174,0.67725 -0.35695,0.35694 -0.32031,0.99756 -0.67725,1.3545 -0.15963,0.15963 -0.47533,-0.10096 -0.67725,0 -0.28555,0.14278 -0.3917,0.53447 -0.67725,0.67725 -0.20192,0.10096 -0.47533,-0.10096 -0.67725,0 -0.5711,0.28555 -0.78339,1.06894 -1.3545,1.35449 -0.20191,0.10096 -0.51762,-0.15962 -0.67724,0 -0.15963,0.15963 0.15962,0.51762 0,0.67725 -0.15963,0.15963 -0.4515,0 -0.67725,0 -0.22575,0 -0.4515,0 -0.67725,0"
       id="path3079-62"
       inkscape:connector-curvature="0" />
    <path
       style="fill:none;stroke:#000000;stroke-width:1px;stroke-linecap:butt;stroke-linejoin:miter;stroke-opacity:1"
       d="m 502.54572,537.63849 c 0,-1.12874 0,-2.25749 0,-3.38624 0,-0.22575 0.15963,-0.51762 0,-0.67725 -0.15963,-0.15963 -0.4515,0 -0.67725,0 -0.45149,-0.67725 -1.0971,-1.25956 -1.35449,-2.03174 -0.65817,-1.97451 -0.69633,-4.12074 -1.3545,-6.09524 -0.0714,-0.21417 -0.4515,0 -0.67725,0 -0.22575,0 -0.67725,0.22575 -0.67725,0 0,-0.22575 0.67725,-0.22575 0.67725,0 0,0.22575 -0.51762,0.15963 -0.67725,0 -0.31926,-0.31926 0.31926,-1.03524 0,-1.3545 -0.15963,-0.15963 -0.50097,0.14102 -0.67725,0 -2.03174,-1.806 -4.06349,-3.61199 -6.09523,-5.41799 0,-0.22575 0.15962,-0.51762 0,-0.67725 -0.15963,-0.15963 -0.46765,0.0838 -0.67725,0 -3.96496,-1.58598 -1.50805,-1.3545 -4.74074,-1.3545 -0.15629,0 -2.0057,-0.0781 -2.03175,0 -0.21416,0.6425 0.16426,1.37472 0,2.03175 -0.0774,0.30973 -0.53447,0.3917 -0.67725,0.67725 -0.10096,0.20192 0,0.4515 0,0.67725 0,0.22575 0,0.4515 0,0.67725 0,1.58024 0,3.16049 0,4.74074 0,0.47105 -0.12246,3.14132 0,3.38624 0.14278,0.28555 0.53447,0.3917 0.67725,0.67725 0.97354,1.94707 -2.37881,-1.13437 1.3545,1.3545 1.54975,1.03316 -0.42348,0.53609 2.03174,1.35449 0.21417,0.0714 0.47534,-0.10095 0.67725,0 0.28556,0.14278 0.3917,0.53448 0.67725,0.67725 0.74471,0.37236 1.36701,-0.65222 2.03175,0.67725 0.15407,0.30815 -0.0369,3.23858 0,3.38624 0.83687,3.34752 0.67725,-1.41729 0.67725,1.3545 0,0.67725 0,1.3545 0,2.03175 0,0.22575 -0.10096,0.47533 0,0.67725 0.14277,0.28555 0.53447,0.39169 0.67724,0.67725 0.10096,0.20191 -0.10095,0.47533 0,0.67724 0.14278,0.28556 0.53448,0.3917 0.67725,0.67725 0.20192,0.40384 -0.31926,1.03524 0,1.3545 0.15963,0.15963 0.51762,-0.15963 0.67725,0 0.31926,0.31926 -0.20191,0.95066 0,1.3545 0.14278,0.28555 0.4515,0.4515 0.67725,0.67725 0.22575,0.22575 0.3917,0.53447 0.67725,0.67724 0.20192,0.10096 0.47533,-0.10095 0.67725,0 0.28555,0.14278 0.39169,0.53448 0.67725,0.67725 0.20191,0.10096 0.47533,-0.10095 0.67725,0 0.28555,0.14278 0.4116,0.50016 0.67724,0.67725 0.42002,0.28001 0.903,0.4515 1.3545,0.67725 0.4515,0.22575 0.87561,0.51762 1.3545,0.67725 0.21416,0.0714 0.51762,-0.15963 0.67725,0 0.15963,0.15963 -0.15963,0.51762 0,0.67725 0.15963,0.15963 0.4515,0 0.67725,0 0.22575,0 0.45149,0 0.67724,0 0.22575,0 0.4515,0 0.67725,0 0.22575,0 0.51762,-0.15963 0.67725,0 0.15963,0.15963 -0.10096,0.47533 0,0.67725 0.14278,0.28555 0.53447,0.39169 0.67725,0.67725 0.20192,0.40383 -0.20192,0.95066 0,1.35449 0.28555,0.57111 1.06894,0.78339 1.3545,1.3545 0.10096,0.20192 -0.15963,0.51762 0,0.67725 0.4515,0.22575 0.903,0.4515 1.3545,0.67725 0,0.22575 -0.15963,0.51762 0,0.67725 0.15962,0.15963 0.67724,-0.22575 0.67724,0 0,0.22575 -0.89141,-0.0714 -0.67724,0 0.88302,0.29434 1.87647,0.26098 2.70899,0.67724 0.20192,0.10096 -0.15963,0.51762 0,0.67725 0.31926,0.31926 1.03524,-0.31925 1.3545,0 0.15963,0.15963 0.22575,0.67725 0,0.67725 -0.22575,0 0,-0.4515 0,-0.67725"
       id="path3081-6"
       inkscape:connector-curvature="0" />
    <path
       style="fill:none;stroke:#000000;stroke-width:1px;stroke-linecap:butt;stroke-linejoin:miter;stroke-opacity:1"
       d="m 527.60392,546.44273 c 2.20502,0 2.81514,-0.28556 4.74074,0.67724 0.28556,0.14278 0.3917,0.53448 0.67725,0.67725 0.20192,0.10096 0.51762,-0.15963 0.67725,0 0.15963,0.15963 -0.10096,0.47534 0,0.67725 0.14278,0.28556 0.53447,0.3917 0.67725,0.67725 0.10096,0.20192 -0.10096,0.47533 0,0.67725 1.54975,3.0995 -0.2807,-2.87385 1.3545,2.03175 0.0714,0.21416 -0.10096,0.47533 0,0.67724 0.14277,0.28556 0.50015,0.41161 0.67725,0.67725 0.28,0.42001 0.39724,0.93449 0.67725,1.3545 0.17709,0.26564 0.53447,0.3917 0.67724,0.67725 0.10096,0.20192 -0.10095,0.47533 0,0.67725 0.14278,0.28555 0.57629,0.37437 0.67725,0.67725 0.14278,0.42833 -0.14277,0.92616 0,1.35449 0.10096,0.30288 0.57629,0.37438 0.67725,0.67725 0.14278,0.42833 -0.0885,0.91177 0,1.3545 -0.15541,1.36001 1.05965,2.20684 1.3545,3.38624 0.1095,0.43802 -0.0885,0.91177 0,1.3545 1.14044,5.70221 0.0105,0.0209 1.3545,2.70899 0.22173,0.44348 -0.20034,2.78524 0,3.38625 0.15963,0.47889 0.57825,0.85951 0.67724,1.3545 0.13417,0.67083 0,6.6565 0,6.77248 0,0.22575 -0.10095,0.47533 0,0.67725 0.14278,0.28555 0.53448,0.3917 0.67725,0.67725 0.10306,0.20611 0,1.72674 0,2.03175 0,1.58024 0,3.16049 0,4.74074 0,2.90658 0.32244,6.28883 -1.35449,8.80423 -0.22575,0.22575 -0.4515,0.4515 -0.67725,0.67725 -0.22575,0 -0.51762,-0.15963 -0.67725,0 -0.15963,0.15963 0.15963,0.51762 0,0.67725 -0.15963,0.15963 -0.4515,0 -0.67725,0 -1.58025,0 -3.16049,0 -4.74074,0 -2.709,0 -5.41799,0 -8.12698,0 -0.22575,0 -0.51762,0.15963 -0.67725,0 -0.15963,-0.15963 0.15963,-0.51762 0,-0.67725 -0.15963,-0.15963 -0.47534,0.10096 -0.67725,0 -2.07886,-1.03943 -4.01638,-2.34682 -6.09524,-3.38625 -1.57376,-0.78688 0.21211,2.38527 -2.03175,-1.35449 -1.03885,-1.73142 -1.63884,-3.70574 -2.70899,-5.41799 -0.11965,-0.19144 -0.51762,0.15963 -0.67725,0 -0.15963,-0.15963 0.0298,-0.45348 0,-0.67725 -0.42194,-3.16458 -0.85657,-6.32797 -1.3545,-9.48148 -0.17953,-1.13702 -0.48801,-2.25081 -0.67725,-3.38625 -0.16742,-1.00457 0,-2.35648 0,-3.38624 0,-2.25749 0,-4.51499 0,-6.77249"
       id="path3083-1"
       inkscape:connector-curvature="0" />
    <path
       style="fill:none;stroke:#000000;stroke-width:1px;stroke-linecap:butt;stroke-linejoin:miter;stroke-opacity:1"
       d="m 543.18064,597.91363 c 1.21548,0.85665 2.77851,-0.42833 4.0635,0 0.0841,0.028 1.97365,1.91555 2.03174,2.03174 0.10096,0.20192 -0.15963,0.51762 0,0.67725 0.15963,0.15963 0.47533,-0.10096 0.67725,0 2.81855,1.40927 -0.724,-0.0467 0.67725,1.3545 0.15963,0.15963 0.51762,-0.15963 0.67725,0 0.15963,0.15963 -0.15963,0.51762 0,0.67725 0.15963,0.15963 0.47533,-0.10096 0.67725,0 0.28555,0.14277 0.4515,0.4515 0.67725,0.67724 0.22574,0.22575 0.53447,0.3917 0.67724,0.67725 0.10096,0.20192 -0.0714,0.46309 0,0.67725 0.31926,0.95778 1.03524,1.75122 1.3545,2.709 0.14278,0.42833 0,0.903 0,1.35449 0,1.58025 0,3.1605 0,4.74074 0,0.903 0,1.806 0,2.709 0,0.4515 0.20192,0.95066 0,1.3545 -0.10096,0.20191 -0.51762,-0.15963 -0.67725,0 -0.15963,0.15963 0.10096,0.47533 0,0.67725 -0.14277,0.28555 -0.53447,0.39169 -0.67725,0.67724 -0.10095,0.20192 0,0.4515 0,0.67725 -0.22575,0.22575 -0.53447,0.3917 -0.67724,0.67725 -0.10096,0.20192 0.22574,0.67725 0,0.67725 -0.22575,0 0,-0.903 0,-0.67725 0,0.67725 0,1.3545 0,2.03175 0,1.3545 0,2.70899 0,4.06349 0,1.12875 0,2.2575 0,3.38624 0,0.22575 0,0.4515 0,0.67725 0,0.22575 -0.10096,0.47533 0,0.67725 0.14277,0.28555 0.53447,0.3917 0.67724,0.67725 0.10096,0.20192 -0.15963,0.51762 0,0.67725 6.5e-4,6.4e-4 2.02868,-10e-4 2.03175,0 0.30287,0.10096 0.37437,0.57629 0.67725,0.67725 0.56091,0.18697 2.95555,-0.21535 3.38624,0 0.28555,0.14277 0.37438,0.57629 0.67725,0.67725 0.42833,0.14277 0.92617,-0.14278 1.3545,0 2.98952,0.9965 -2.46056,0.67724 2.03174,0.67724 1.58827,0 -0.31925,-0.15963 1.3545,0.67725 0.20192,0.10096 0.67725,-0.22575 0.67725,0 0,0.22575 -0.4515,0 -0.67725,0 -0.4515,0 -0.903,0 -1.3545,0 -1.12874,0 -2.25749,0 -3.38624,0 -3.83774,0 -7.67548,0 -11.51323,0 -0.16425,0 -2.00996,0.0218 -2.03174,0 -0.15963,-0.15963 0.15963,-0.51762 0,-0.67725 -0.15963,-0.15963 -0.51762,0.15963 -0.67725,0 -0.15963,-0.15963 0.0548,-0.45824 0,-0.67724 -0.3986,-1.59442 -0.903,-3.1605 -1.3545,-4.74075 -0.4515,-1.58024 -0.903,-3.16049 -1.3545,-4.74074 -0.22575,-0.22575 -0.53447,-0.39169 -0.67725,-0.67724 -0.10095,-0.20192 0.15963,-0.51762 0,-0.67725 -0.15962,-0.15963 -0.51761,0.15963 -0.67724,0 -0.15963,-0.15963 0,-0.4515 0,-0.67725 0,-0.903 0,-1.806 0,-2.709 0,-2.70899 0,-5.41799 0,-8.12698 0,-0.67692 -0.14486,-2.80683 0,-3.38624 0.17314,-0.69257 0.5041,-1.33918 0.67724,-2.03175 0.16905,-0.67616 -0.0657,-2.05173 0,-2.709 0.18111,-1.81101 0.4515,-3.61199 0.67725,-5.41798 z"
       id="path3087-8"
       inkscape:connector-curvature="0" />
  </g>
</svg>
