<?xml version="1.0" encoding="UTF-8" standalone="no"?>
<!-- Created with Inkscape (http://www.inkscape.org/) -->

<svg
   xmlns:dc="http://purl.org/dc/elements/1.1/"
   xmlns:cc="http://creativecommons.org/ns#"
   xmlns:rdf="http://www.w3.org/1999/02/22-rdf-syntax-ns#"
   xmlns:svg="http://www.w3.org/2000/svg"
   xmlns="http://www.w3.org/2000/svg"
   xmlns:sodipodi="http://sodipodi.sourceforge.net/DTD/sodipodi-0.dtd"
   xmlns:inkscape="http://www.inkscape.org/namespaces/inkscape"
   width="210mm"
   height="297mm"
   id="svg2"
   version="1.1"
   inkscape:version="0.48.5 r10040"
   sodipodi:docname="um-dia-este-rato-encontrou-uma-rata.svg"
   inkscape:export-filename="/home/fredm/projetos/o-rato-anderson/um-dia-este-rato-encontrou-uma-rata.png"
   inkscape:export-xdpi="90"
   inkscape:export-ydpi="90">
  <defs
     id="defs4" />
  <sodipodi:namedview
     id="base"
     pagecolor="#ffffff"
     bordercolor="#666666"
     borderopacity="1.0"
     inkscape:pageopacity="0.0"
     inkscape:pageshadow="2"
     inkscape:zoom="0.52204368"
     inkscape:cx="350"
     inkscape:cy="749.86582"
     inkscape:document-units="px"
     inkscape:current-layer="layer1"
     showgrid="false"
     inkscape:window-width="694"
     inkscape:window-height="735"
     inkscape:window-x="579"
     inkscape:window-y="0"
     inkscape:window-maximized="0" />
  <metadata
     id="metadata7">
    <rdf:RDF>
      <cc:Work
         rdf:about="">
        <dc:format>image/svg+xml</dc:format>
        <dc:type
           rdf:resource="http://purl.org/dc/dcmitype/StillImage" />
        <dc:title></dc:title>
      </cc:Work>
    </rdf:RDF>
  </metadata>
  <g
     inkscape:label="Camada 1"
     inkscape:groupmode="layer"
     id="layer1">
    <path
       style="fill:none;stroke:#000000;stroke-width:1px;stroke-linecap:butt;stroke-linejoin:miter;stroke-opacity:1"
       d="m 141.75059,627.11041 c 0,-7.66219 0,-15.32439 0,-22.98658 0,-3.8311 -0.42307,-7.68563 0,-11.49329 0.22298,-2.00682 1.27703,-3.8311 1.91555,-5.74665 0.63852,-1.91555 1.16565,-3.8719 1.91555,-5.74665 0.53026,-1.32564 1.46405,-2.4766 1.91555,-3.83109 0.20191,-0.60575 -0.28556,-1.34444 0,-1.91555 0.40383,-0.80767 1.51171,-1.10788 1.91555,-1.91555 0.5711,-1.14221 -0.57111,-2.68888 0,-3.8311 0.40383,-0.80766 1.41465,-1.16421 1.91554,-1.91555 0.79199,-1.18797 1.18097,-2.60679 1.91555,-3.83109 2.13272,-3.55453 7.26084,-10.62856 9.57774,-13.40884 1.15618,-1.38741 2.62295,-2.48871 3.8311,-3.8311 8.60735,-9.56372 13.78095,-16.61706 22.98658,-24.90213 2.8786,-2.59073 13.4848,-10.7266 17.23994,-13.40884 1.87338,-1.33813 3.8311,-2.55406 5.74665,-3.8311 1.91555,-1.27703 3.68749,-2.80152 5.74664,-3.83109 2.74807,-1.37404 10.95386,-3.21736 13.40884,-3.8311 2.55407,-0.63852 5.05599,-1.54323 7.6622,-1.91555 1.89629,-0.2709 3.83109,0 5.74664,0 5.10813,0 10.21626,0 15.32439,0 14.04736,0 28.09471,0 42.14207,0"
       id="path3004"
       inkscape:connector-curvature="0" />
    <path
       style="fill:none;stroke:#000000;stroke-width:1px;stroke-linecap:butt;stroke-linejoin:miter;stroke-opacity:1"
       d="m 335.22099,420.23117 c -3.19258,-1.27703 -6.38516,-2.55407 -9.57774,-3.8311 -1.27703,0 -2.6196,0.40383 -3.8311,0 -0.85666,-0.28555 -1.10788,-1.51171 -1.91555,-1.91555 -0.5711,-0.28555 -1.27703,0 -1.91554,0 -3.19259,0 -6.38517,0 -9.57775,0 -10.85477,0 -21.70955,0 -32.56432,0 -3.19258,0 -6.38516,0 -9.57774,0 -0.63852,0 -1.46405,-0.4515 -1.91555,0 -0.4515,0.4515 0,1.27704 0,1.91555 0,3.19258 0.31767,6.40101 0,9.57774 -0.32397,3.23965 -1.51172,6.34708 -1.91555,9.57775 -0.2376,1.90075 0,3.83109 0,5.74664 0,8.63241 0,8.09909 0,15.32439 0,5.37203 -1.05484,12.2893 1.91555,17.23994 3.19907,5.33178 3.51357,2.63517 7.66219,5.74664 1.4448,1.0836 2.55407,2.55407 3.8311,3.8311 0.63851,0.63852 1.10788,1.51172 1.91555,1.91555 0.50367,0.25184 6.66051,0 7.66219,0 7.66219,0 15.32439,0 22.98658,0 1.27704,0 2.55407,0 3.8311,0 0.63852,0 1.46405,0.4515 1.91555,0 0.4515,-0.4515 0,-1.27703 0,-1.91555"
       id="path3006"
       inkscape:connector-curvature="0" />
    <path
       style="fill:none;stroke:#000000;stroke-width:1px;stroke-linecap:butt;stroke-linejoin:miter;stroke-opacity:1"
       d="m 360.12312,420.23117 c 2.55407,-2.55407 4.723,-5.56277 7.6622,-7.6622 3.78225,-2.70161 9.11493,-1.91554 13.40884,-1.91554 5.74664,0 11.49329,0 17.23993,0 1.27704,0 2.80948,-0.76622 3.8311,0 3.9447,2.95852 4.81279,9.20646 5.74665,13.40884 0.70628,3.17827 1.51171,6.34707 1.91555,9.57774 0.23759,1.90075 -0.37567,3.86829 0,5.74664 0.28,1.40004 1.63554,2.43106 1.91554,3.8311 0.37567,1.87835 0,3.8311 0,5.74665 0,2.55406 0,5.10813 0,7.66219 0,7.66219 0,15.32439 0,22.98658 0,6.38516 0,12.77033 0,19.15549 0,0.63851 0,1.27703 0,1.91555 0,0.63851 0.4515,1.46405 0,1.91554 -0.4515,0.4515 -1.27703,0 -1.91554,0 -2.55407,0 -5.10813,0 -7.6622,0 -1.55224,0 -12.3516,0 -15.32439,0 -5.74664,0 -11.49329,0 -17.23993,0 -0.63852,0 -1.27704,0 -1.91555,0 -0.63852,0 -1.46405,0.4515 -1.91555,0 -0.4515,-0.45149 -0.63852,-1.91554 0,-1.91554 0.903,0 2.55406,1.27703 1.91555,1.91554 -0.63852,0.63852 -1.27703,-1.27703 -1.91555,-1.91554"
       id="path3008"
       inkscape:connector-curvature="0" />
    <path
       style="fill:none;stroke:#000000;stroke-width:1px;stroke-linecap:butt;stroke-linejoin:miter;stroke-opacity:1"
       d="m 352.46093,544.74182 c 3.19258,0 6.41725,-0.4515 9.57774,0 3.81843,0.54549 4.88079,3.6606 7.6622,5.74665 1.14221,0.85666 2.7162,1.02363 3.83109,1.91555 3.91798,3.13438 8.93684,9.31851 11.49329,13.40884 1.51343,2.42148 2.41436,5.1829 3.8311,7.66219 1.14221,1.99887 3.10308,3.56258 3.8311,5.74665 0.67158,2.01475 -0.6322,7.68115 0,9.57774 0.4515,1.3545 1.63554,2.43106 1.91555,3.8311 0.37567,1.87835 0,3.83109 0,5.74664 0,3.19258 0,6.38516 0,9.57774 0,12.02353 0,0.49539 0,9.57775 0,0.63851 0.4515,1.46405 0,1.91555 -0.4515,0.45149 -1.27704,0 -1.91555,0 -17.87166,0 -1.3414,1.42776 -21.07104,-5.74665 -3.05978,-1.11265 -6.52923,-0.77236 -9.57774,-1.91555 -17.48597,-6.55724 2.85618,-1.602 -9.57774,-5.74664 -2.378,-0.79267 -2.08707,1.5725 -3.8311,-1.91555 -0.29148,-0.58297 0,-4.88397 0,-5.74665 0,-5.10813 0,-10.21626 0,-15.32439"
       id="path3010"
       inkscape:connector-curvature="0" />
    <path
       style="fill:none;stroke:#000000;stroke-width:1px;stroke-linecap:butt;stroke-linejoin:miter;stroke-opacity:1"
       d="m 298.82557,596.46163 c 8.64992,6.82768 12.80905,16.44022 19.15549,24.90213 1.08359,1.4448 3.02343,2.21577 3.83109,3.8311 0.28556,0.57111 0,1.27703 0,1.91555 0,0.63852 0,1.27703 0,1.91555"
       id="path3012"
       inkscape:connector-curvature="0" />
    <path
       style="fill:none;stroke:#000000;stroke-width:1px;stroke-linecap:butt;stroke-linejoin:miter;stroke-opacity:1"
       d="m 285.41673,619.44822 c 0,8.30071 0,16.60142 0,24.90213 0,0.63851 0,1.27703 0,1.91554 0,0.63852 -0.28555,1.34445 0,1.91555 0.40383,0.80767 1.10788,1.51172 1.91555,1.91555 0.57111,0.28555 1.91555,-0.63851 1.91555,0 0,0.63852 -1.27703,0 -1.91555,0"
       id="path3014"
       inkscape:connector-curvature="0" />
    <path
       style="fill:none;stroke:#000000;stroke-width:1px;stroke-linecap:butt;stroke-linejoin:miter;stroke-opacity:1"
       d="m 151.32833,644.35035 c 0,-4.46962 0,-8.93923 0,-13.40884 0,-0.63852 -0.4515,-1.46405 0,-1.91555 1.62791,-1.62791 4.11875,-2.2032 5.74665,-3.8311 2.891,-2.891 5.0732,-6.41342 7.66219,-9.57774 3.15794,-3.8597 6.22315,-7.80323 9.57775,-11.49329 3.03711,-3.34083 6.75725,-6.05213 9.57774,-9.57775 2.32584,-2.90729 3.77337,-6.42051 5.74664,-9.57774 1.22017,-1.95226 2.2032,-4.11874 3.8311,-5.74664 1.00958,-1.00959 2.64313,-1.12357 3.8311,-1.91555 6.35307,-6.35308 -1.806,0.903 3.8311,-1.91555 0.80766,-0.40383 1.10788,-1.51172 1.91554,-1.91555 0.57111,-0.28555 1.3098,0.20192 1.91555,0 1.27703,-0.63852 2.55407,-1.27703 3.8311,-1.91555 0.63852,0 1.3098,0.20192 1.91555,0 1.3545,-0.4515 2.41768,-1.71363 3.8311,-1.91555 3.16049,-0.4515 6.38516,0 9.57774,0 1.91555,0 3.83109,0 5.74664,0 0.44205,0 5.67297,-0.22102 5.74665,0 0.60575,1.81725 0,3.8311 0,5.74665 0,1.27703 0,2.55406 0,3.8311 0,5.10813 0,10.21625 0,15.32438 0,12.21156 0.67115,24.32416 -1.91555,36.39543 -5.96727,27.84724 -0.78827,0.0551 -7.66219,17.23993 -2.02316,5.05789 2.83306,2.91359 -1.91555,7.6622 -0.4515,0.4515 -1.34444,-0.28556 -1.91555,0 -0.80767,0.40383 -1.10788,1.51171 -1.91555,1.91555 -0.57111,0.28555 -1.34444,-0.28556 -1.91555,0 -0.80766,0.40383 -1.16421,1.41465 -1.91555,1.91554 -1.18797,0.79199 -2.82151,0.90597 -3.83109,1.91555 -1.00959,1.00959 -1.27704,2.55407 -1.91555,3.8311 -0.63852,1.27703 -1.27703,2.55406 -1.91555,3.8311 0.67775,3.26953 -2.80152,3.68749 -3.8311,5.74664 0,5.10813 0.63852,-0.63851 -1.91555,1.91555 -0.4515,0.4515 0.63852,1.91555 0,1.91555 -0.63851,0 -0.63851,-1.91555 0,-1.91555 0.903,0 1.27704,1.27703 1.91555,1.91555 2.55407,0 5.18439,0.61945 7.6622,0 2.77027,-0.69257 4.9532,-2.9281 7.66219,-3.8311 3.08873,-1.02957 6.41915,-1.1259 9.57774,-1.91555 3.91776,-0.97944 7.57554,-2.85165 11.49329,-3.83109 0.61946,-0.15487 1.34445,0.28555 1.91555,0 0.80767,-0.40384 1.10789,-1.51172 1.91555,-1.91555 0.57111,-0.28555 1.27703,0 1.91555,0 0.63852,0 1.27703,0 1.91555,0 3.8311,0 7.66219,0 11.49329,0 1.27703,0 2.55406,0 3.8311,0 0.63851,0 1.46405,-0.4515 1.91555,0 0.45149,0.4515 0,1.27703 0,1.91555 0,0.63851 0,1.27703 0,1.91555 0,1.10373 0.34908,8.87957 0,9.57774 -0.40384,0.80766 -1.27704,1.27703 -1.91555,1.91555 -6.35308,6.35307 1.80599,-0.903 -3.8311,1.91555 -0.80767,0.40383 -1.16421,1.41465 -1.91555,1.91554 -1.18797,0.79199 -2.64312,1.12357 -3.8311,1.91555 -2.87332,1.91555 -1.91554,3.8311 -5.74664,5.74665 -5.78258,2.89128 -12.91812,1.91555 -19.15549,1.91555 -8.30071,0 -16.60142,0 -24.90213,0"
       id="path3016"
       inkscape:connector-curvature="0" />
    <path
       style="fill:none;stroke:#000000;stroke-width:1px;stroke-linecap:butt;stroke-linejoin:miter;stroke-opacity:1"
       d="m 329.47435,521.75524 c -4.46962,0 -8.93923,0 -13.40884,0 -5.10813,0 -10.21626,0 -15.32439,0 -0.63852,0 -1.27703,0 -1.91555,0 -0.63852,0 -1.46405,-0.4515 -1.91555,0 -0.903,0.903 0.903,2.9281 0,3.8311 -0.4515,0.4515 -1.46405,-0.4515 -1.91555,0 -0.4515,0.4515 0,1.27703 0,1.91555 0,3.83109 0,7.66219 0,11.49329 0,3.19258 0,6.38516 0,9.57774 0,0.63852 -0.4515,1.46405 0,1.91555 0.4515,0.4515 1.3098,-0.20192 1.91555,0 1.3545,0.4515 2.4766,1.46405 3.8311,1.91555 1.2023,0.40076 6.12011,0 7.66219,0 3.8311,0 7.6622,0 11.49329,0 0.63852,0 1.46405,0.4515 1.91555,0 0.4515,-0.4515 -0.4515,-1.46405 0,-1.91555 0.4515,-0.4515 1.46405,0.4515 1.91555,0 0.4515,-0.4515 -0.28555,-1.34444 0,-1.91555 0.40383,-0.80767 1.51172,-1.10788 1.91555,-1.91555 0.28555,-0.57111 0,-1.27703 0,-1.91555 0,-0.63851 0,-1.27703 0,-1.91555 0,-2.11212 -0.34415,-10.1167 0,-11.49329 3.92933,-15.71732 6.28693,-3.43816 0,-19.15548"
       id="path3018"
       inkscape:connector-curvature="0" />
    <path
       style="fill:none;stroke:#000000;stroke-width:1px;stroke-linecap:butt;stroke-linejoin:miter;stroke-opacity:1"
       d="m 360.12312,514.09305 c -5.10813,0 -10.21626,0 -15.32438,0 -0.63852,0 -1.34445,-0.28556 -1.91555,0 -4.23539,2.11769 -0.59444,1.18887 -1.91555,3.83109 -0.40384,0.80767 -1.51172,1.10789 -1.91555,1.91555 -0.28555,0.57111 0.28555,1.34444 0,1.91555 -0.40383,0.80767 -1.51172,1.10788 -1.91555,1.91555 -0.24763,0.49526 0,10.13555 0,11.49329 0,0.70346 -0.0771,7.58511 0,7.66219 0.0771,0.0771 6.95874,0 7.6622,0 0.90317,0 9.49092,0.0868 9.57774,0 0.4515,-0.4515 -0.4515,-1.46405 0,-1.91554 0.4515,-0.4515 1.34444,0.28555 1.91555,0 0.80766,-0.40384 1.27703,-1.27704 1.91554,-1.91555 0.63852,-0.63852 1.51172,-1.10789 1.91555,-1.91555 0.5105,-1.021 -0.5105,-2.8101 0,-3.8311 0.40384,-0.80766 1.63,-1.05889 1.91555,-1.91555 0.0618,-0.18545 0.16018,-6.70112 0,-7.66219 -0.53525,-3.21151 -1.27703,-6.38516 -1.91555,-9.57774 z"
       id="path3020"
       inkscape:connector-curvature="0" />
    <path
       style="fill:none;stroke:#000000;stroke-width:1px;stroke-linecap:butt;stroke-linejoin:miter;stroke-opacity:1"
       d="m 547.84688,538.99518 c -4.46961,0 -8.93923,0 -13.40884,0 -0.63852,0 -1.27703,0 -1.91555,0 -0.63852,0 -1.34444,-0.28556 -1.91555,0 -0.80766,0.40383 -1.10788,1.51171 -1.91555,1.91555 -0.5711,0.28555 -1.46405,-0.4515 -1.91554,0 -0.4515,0.45149 0.28555,1.34444 0,1.91554 -0.40384,0.80767 -1.51172,1.10789 -1.91555,1.91555 -0.28556,0.57111 0.28555,1.34444 0,1.91555 -0.40384,0.80767 -1.51172,1.10788 -1.91555,1.91555 -0.76622,1.53244 0.76622,4.21421 0,5.74665 -0.40383,0.80766 -1.51172,1.10788 -1.91555,1.91554 -0.40905,0.8181 0,8.82051 0,9.57775 0,0.90317 -0.0868,9.49092 0,9.57774 0.0616,0.0616 5.28207,0 5.74665,0 1.27703,0 2.55406,0 3.83109,0 0.63852,0 1.38427,0.35418 1.91555,0 1.50268,-1.00179 2.55407,-2.55407 3.8311,-3.8311 1.27703,-1.27703 2.7475,-2.3863 3.8311,-3.8311 0.85665,-1.14221 1.12356,-2.64312 1.91554,-3.83109 1.16251,-1.74375 4.89774,-4.04882 5.74665,-5.74665 0.28555,-0.5711 -0.4515,-1.46405 0,-1.91555 0.4515,-0.4515 1.34444,0.28556 1.91555,0 7.97205,-3.98602 -2.04779,0.13224 1.91555,-3.83109 0.4515,-0.4515 1.46405,0.4515 1.91554,0 0.4515,-0.4515 0,-1.27704 0,-1.91555 0,-5.63871 0.32852,-1.36803 -5.74664,-11.49329 z"
       id="path3022"
       inkscape:connector-curvature="0" />
    <path
       style="fill:none;stroke:#000000;stroke-width:1px;stroke-linecap:butt;stroke-linejoin:miter;stroke-opacity:1"
       d="m 515.28255,504.5153 c -2.55406,0 -7.66219,2.55407 -7.66219,0 0,-2.55406 9.46819,-1.80599 7.66219,0 -2.3022,2.30221 -6.78591,0.24045 -9.57774,1.91555 -0.26904,0.16142 0,9.18316 0,9.57774 0,5.10813 0,10.21626 0,15.32439 0,0.63852 0,1.27704 0,1.91555 0,0.63852 -0.4515,1.46405 0,1.91555 0.4515,0.4515 1.27703,0 1.91555,0 4.46961,0 8.93923,0 13.40884,0 1.27703,0 2.9281,0.903 3.8311,0 0.903,-0.903 -0.30973,-2.59219 0,-3.8311 0.34628,-1.38513 1.46405,-2.4766 1.91555,-3.83109 0.20191,-0.60575 0,-1.27704 0,-1.91555 0.63851,-0.63852 1.51171,-1.10789 1.91554,-1.91555 0.28556,-0.57111 -0.28555,-1.34444 0,-1.91555 0.40384,-0.80767 1.51172,-1.10788 1.91555,-1.91555 0.24764,-0.49526 0,-10.13554 0,-11.49329"
       id="path3024"
       inkscape:connector-curvature="0" />
    <path
       style="fill:none;stroke:#000000;stroke-width:1px;stroke-linecap:butt;stroke-linejoin:miter;stroke-opacity:1"
       d="m 570.83346,508.3464 c -7.47518,0 -7.26547,-1.806 -11.49329,3.8311 -0.85666,1.14221 -1.12357,2.64312 -1.91555,3.83109 -0.50089,0.75134 -1.51171,1.10789 -1.91555,1.91555 -2.73895,5.47791 -1.91555,11.35074 -1.91555,17.23994 0,4.46961 0,8.93923 0,13.40884 0,0.63852 -0.45149,1.46405 0,1.91555 0.18593,0.18593 8.84779,0 9.57775,0 0.63851,0 1.34444,0.28555 1.91555,0 0.50859,-0.2543 5.49234,-5.23805 5.74664,-5.74665 0.28555,-0.5711 -0.28555,-1.34444 0,-1.91555 0.80767,-1.61533 3.02343,-2.21576 3.8311,-3.83109 0.5711,-1.14222 -0.903,-2.9281 0,-3.8311 0.4515,-0.4515 1.46405,0.4515 1.91555,0 0.4515,-0.4515 -0.28556,-1.34444 0,-1.91555 0.40383,-0.80766 1.51171,-1.10788 1.91555,-1.91555 0.24763,-0.49526 0,-10.13554 0,-11.49329 0,-2.55406 0,-5.10813 0,-7.66219 0,-0.63852 0.5711,-1.63 0,-1.91555 -2.35474,-1.17737 -5.10813,-1.27703 -7.6622,-1.91555 z"
       id="path3026"
       inkscape:connector-curvature="0" />
    <path
       style="fill:none;stroke:#000000;stroke-width:1px;stroke-linecap:butt;stroke-linejoin:miter;stroke-opacity:1"
       d="m 515.28255,475.78208 c 2.55407,-3.19259 5.39431,-6.17591 7.6622,-9.57775 0.35418,-0.53127 0,-1.27703 0,-1.91555 0,-3.83109 0,-7.66219 0,-11.49329 0,-1.91555 0.85666,-4.03332 0,-5.74664 -0.63852,-1.27703 -2.82152,-0.90597 -3.8311,-1.91555 -1.00958,-1.00958 -0.90596,-2.82152 -1.91555,-3.8311 -7.47587,-7.47588 -1.02874,0.44341 -5.74664,-1.91555 -0.80767,-0.40383 -1.05889,-1.62999 -1.91555,-1.91555 -1.02981,-0.34327 -6.0404,0 -7.6622,0 -5.10812,0 -10.21625,0 -15.32438,0 -3.8311,0 -7.6622,0 -11.49329,0 -0.63852,0 -1.46405,-0.45149 -1.91555,0 -0.0478,0.0478 0,8.85812 0,9.57775 0,7.02368 0,14.04735 0,21.07103 0,0.45519 -0.21467,7.23286 0,7.6622 0.40383,0.80766 1.51171,1.10788 1.91555,1.91554 0.28555,0.57111 -0.4515,1.46405 0,1.91555 0.45149,0.4515 1.46404,-0.4515 1.91554,0 0.4515,0.4515 -0.4515,1.46405 0,1.91555 0.4515,0.4515 1.46405,-0.4515 1.91555,0 0.4515,0.4515 -0.4515,1.46405 0,1.91555 0.4515,0.4515 1.27703,0 1.91555,0 5.10813,0 10.21626,0 15.32439,0 0.63852,0 1.27703,0 1.91555,0 0.63851,0 1.46405,-0.4515 1.91555,0 0.4515,0.4515 -0.4515,1.46405 0,1.91555 0.4515,0.4515 1.91554,-0.63852 1.91554,0 0,0.63851 -1.27703,0 -1.91554,0"
       id="path3028"
       inkscape:connector-curvature="0" />
    <path
       style="fill:none;stroke:#000000;stroke-width:1px;stroke-linecap:butt;stroke-linejoin:miter;stroke-opacity:1"
       d="m 559.34017,471.95098 c 0,-14.04736 0,-28.09471 0,-42.14207 0,-3.19258 0,-6.38516 0,-9.57774 0,-0.63852 -0.4515,-1.46405 0,-1.91555 0.4515,-0.4515 1.27703,0 1.91555,0 1.27703,0 2.55406,0 3.8311,0 10.21625,0 20.43251,0 30.64877,0 7.02368,0 14.04736,0 21.07104,0 0.63851,0 1.27703,0 1.91554,0 0.63852,0 1.46405,-0.4515 1.91555,0 0.4515,0.4515 0,1.27703 0,1.91555 0,0.63851 0,1.27703 0,1.91555 0,6.38516 0,12.77032 0,19.15548 0,6.38516 0,12.77033 0,19.15549 0,1.62562 0.352,10.43729 0,11.49329 -0.28555,0.85666 -1.51171,1.10788 -1.91555,1.91555 -0.28555,0.5711 0.28556,1.34444 0,1.91555 -0.40383,0.80766 -1.51171,1.10788 -1.91554,1.91554 -0.28556,0.57111 0.28555,1.34445 0,1.91555 -0.2543,0.5086 -5.23805,5.49235 -5.74665,5.74665 -0.57111,0.28555 -1.34444,-0.28555 -1.91555,0 -0.80766,0.40383 -1.10788,1.51171 -1.91555,1.91555 -0.50367,0.25184 -6.66051,0 -7.66219,0 -5.10813,0 -10.21626,0 -15.32439,0"
       id="path3030"
       inkscape:connector-curvature="0" />
    <path
       style="fill:none;stroke:#000000;stroke-width:1px;stroke-linecap:butt;stroke-linejoin:miter;stroke-opacity:1"
       d="m 597.65114,531.33298 c 10.21626,0 20.43252,0 30.64878,0 4.46961,0 8.93922,0 13.40884,0 0.45519,0 7.23286,-0.21466 7.66219,0 1.72519,0.86259 5.53115,7.33896 5.74665,7.6622 1.27703,1.91555 2.80152,3.68749 3.83109,5.74664 0.903,1.806 0.8767,4.01523 1.91555,5.74665 10.23362,17.05603 -3.90726,-15.50211 7.6622,11.49329 0.79538,1.85591 1.27703,3.8311 1.91554,5.74664 1.27227,3.8168 3.35005,9.56042 3.8311,13.40884 0.31679,2.53435 -0.28205,5.12376 0,7.6622 0.35955,3.23589 1.55601,6.34185 1.91555,9.57774 0.28205,2.53844 -0.28205,5.12375 0,7.6622 0.35954,3.23589 1.62078,6.3353 1.91555,9.57774 0.34685,3.81536 0,7.66219 0,11.49329 0,10.21626 0,20.43252 0,30.64878 0,1.91554 0,3.83109 0,5.74664 0,0.63852 0,1.27703 0,1.91555 0,0.63852 0.4515,1.46405 0,1.91555 -0.4515,0.4515 -1.27703,0 -1.91555,0 -3.67299,0 -2.96566,0.86544 -5.74665,-1.91555"
       id="path3032"
       inkscape:connector-curvature="0" />
    <path
       style="fill:none;stroke:#000000;stroke-width:1px;stroke-linecap:butt;stroke-linejoin:miter;stroke-opacity:1"
       d="m 678.10418,669.25248 c 6.35501,0 6.90665,-1.14222 11.49329,1.91555 1.50268,1.00178 2.21576,3.02343 3.8311,3.83109 0.5711,0.28556 1.46405,-0.4515 1.91555,0 0.45149,0.4515 -0.4515,1.46405 0,1.91555 0.45149,0.4515 1.46405,-0.4515 1.91554,0 0.4515,0.4515 -0.45149,1.46405 0,1.91555 0.4515,0.4515 1.46405,-0.4515 1.91555,0 0.4515,0.4515 -0.28555,1.34444 0,1.91555 0.80767,1.61533 3.02343,2.21576 3.8311,3.8311 0.28555,0.5711 -0.20192,1.30979 0,1.91554 0.4515,1.3545 1.46405,2.4766 1.91555,3.8311 0.34557,1.03671 0,7.00962 0,7.66219 0,5.10813 0,10.21626 0,15.32439 0,4.46962 0,8.93923 0,13.40884 0,1.91555 1.01524,4.12227 0,5.74665 -6.64338,10.6294 -9.63695,7.7214 -17.23994,15.32439 -7.53976,7.53976 -0.0797,3.8909 -7.66219,9.57774 -1.14221,0.85666 -2.68889,1.05889 -3.8311,1.91555 -2.1672,1.62539 -3.8311,3.83109 -5.74665,5.74664 -6.90211,6.90212 -9.53854,8.97445 -15.32438,17.23994 -2.13509,3.05013 -3.77338,6.42051 -5.74665,9.57774 -1.22016,1.95227 -2.64662,3.77253 -3.8311,5.74665 -0.73458,1.2243 -1.12356,2.64312 -1.91554,3.8311 -0.5009,0.75134 -1.51172,1.10788 -1.91555,1.91554 -0.28556,0.57111 0,1.27704 0,1.91555 0,0.63852 0,1.27703 0,1.91555 0,3.19258 0,6.38516 0,9.57774 0,3.19258 0,6.38517 0,9.57775 0,1.27703 0,2.55406 0,3.83109 0,0.63852 -0.35419,1.38427 0,1.91555 3.27286,4.90929 4.3382,3.65083 9.57774,5.74665 1.27703,0.63851 2.55406,1.27703 3.8311,1.91555 0.63851,0.63851 1.10788,1.51171 1.91555,1.91554 1.53243,0.76622 4.2142,-0.76621 5.74664,0 0.57111,0.28556 -0.57111,1.63 0,1.91555 1.20397,0.60199 6.45823,-0.60198 7.66219,0 0.80767,0.40384 1.10789,1.51172 1.91555,1.91555 1.04759,0.52379 4.44303,-0.3259 5.74665,0 10.89286,2.72322 0.28285,1.91555 13.40884,1.91555 10.89372,0 1.26112,-0.85666 9.57774,1.91555 0.36838,0.12279 5.74665,-0.0982 5.74665,0 0,0.63851 -1.91555,0.63851 -1.91555,0 0,-0.63852 2.55406,0 1.91555,0 -14.04736,0 -28.09471,0 -42.14207,0 -4.46961,0 -8.93923,0 -13.40884,0 -0.63852,0 -1.27703,0 -1.91555,0 -0.63852,0 -1.34444,0.28555 -1.91555,0 -0.80766,-0.40383 -1.27703,-1.27703 -1.91555,-1.91555 -0.63851,-0.63852 -1.41465,-1.16421 -1.91554,-1.91555 -0.79199,-1.18797 -0.90597,-2.82151 -1.91555,-3.8311 -1.00959,-1.00958 -2.68889,-1.05888 -3.8311,-1.91554 -13.7785,-10.33388 4.04253,2.12698 -5.74665,-7.6622 -0.45149,-0.4515 -1.46405,0.4515 -1.91554,0 -0.4515,-0.4515 0.45149,-1.46405 0,-1.91555 -0.4515,-0.4515 -1.63,0.57111 -1.91555,0 -0.60199,-1.20396 0.60198,-6.45823 0,-7.66219 -0.40384,-0.80767 -1.51172,-1.10788 -1.91555,-1.91555 -0.62717,-1.25433 0.56664,-7.87782 0,-9.57774 -0.4515,-1.3545 -1.56927,-2.44596 -1.91555,-3.8311 -0.61945,-2.47781 0.80767,-5.23919 0,-7.66219 -0.28555,-0.85666 -1.63,-1.05889 -1.91555,-1.91555 -0.36323,-1.08968 0,-7.77361 0,-9.57774 0,-2.55407 0,-5.10813 0,-7.6622 0,-1.27703 -0.30972,-2.59219 0,-3.8311 1.02163,-4.0865 3.55378,-10.11954 5.74665,-13.40884 1.42785,-2.14177 5.57724,-5.57724 7.66219,-7.66219 0.63852,-0.63852 1.51172,-1.10788 1.91555,-1.91555 0.28555,-0.5711 -0.4515,-1.46405 0,-1.91555 0.4515,-0.4515 1.34444,0.28556 1.91555,0 0.80766,-0.40383 1.27703,-1.27703 1.91555,-1.91554 0.63851,-0.63852 1.41465,-1.16421 1.91555,-1.91555 0.79198,-1.18798 1.12356,-2.64313 1.91554,-3.8311 1.87912,-2.81868 5.78308,-4.84352 7.6622,-7.66219 0.79198,-1.18798 0.90596,-2.82152 1.91555,-3.8311 0.4515,-0.4515 1.34444,0.28555 1.91555,0 0.80766,-0.40383 1.10788,-1.51172 1.91554,-1.91555 0.57111,-0.28555 1.46405,0.4515 1.91555,0 0.4515,-0.4515 -0.4515,-1.46405 0,-1.91555 0.903,-0.903 2.68889,0.57111 3.8311,0 0.80767,-0.40383 1.16421,-1.41465 1.91555,-1.91555 1.01757,-0.67838 6.64462,-3.15271 7.66219,-3.83109 1.50268,-1.00179 2.21577,-3.02344 3.8311,-3.8311 0.57111,-0.28555 1.46405,0.4515 1.91555,0 0.4515,-0.4515 -0.28556,-1.34444 0,-1.91555 0.80766,-1.61533 2.7475,-2.3863 3.83109,-3.8311 1.27704,-1.91555 2.55407,-3.83109 3.8311,-5.74664 0,-0.63852 -0.28555,-1.34444 0,-1.91555 0.40383,-0.80767 1.51172,-1.10788 1.91555,-1.91555 0.21467,-0.42933 0,-7.207 0,-7.66219 0,-1.35775 0.24763,-10.99803 0,-11.49329 -0.40383,-0.80767 -1.10788,-1.51172 -1.91555,-1.91555 -0.5711,-0.28556 -1.27703,0 -1.91555,0 -1.27703,-0.63852 -2.64312,-1.12357 -3.83109,-1.91555 -0.75134,-0.5009 -1.10789,-1.51172 -1.91555,-1.91555 -0.57111,-0.28555 -1.79033,0.62612 -1.91555,0 -0.62612,-3.13058 3.13058,-8.95163 0,-9.57774 -4.0091,-0.80182 -6.38516,5.10813 -9.57774,7.66219"
       id="path3034"
       inkscape:connector-curvature="0" />
    <path
       style="fill:none;stroke:#000000;stroke-width:1px;stroke-linecap:butt;stroke-linejoin:miter;stroke-opacity:1"
       d="m 153.24388,625.19486 c -5.74664,0 -11.49329,0 -17.23993,0 -0.63852,0 -1.27704,0 -1.91555,0 -0.63852,0 -1.34445,-0.28555 -1.91555,0 -0.80767,0.40383 -1.16421,1.41466 -1.91555,1.91555 -1.18797,0.79198 -2.64312,1.12357 -3.8311,1.91555 -0.75134,0.50089 -1.27703,1.27703 -1.91555,1.91555 -0.63851,0.63851 -1.41465,1.1642 -1.91554,1.91554 -0.79199,1.18798 -1.05889,2.68889 -1.91555,3.8311 -1.0836,1.4448 -2.67493,2.44369 -3.8311,3.8311 -2.04384,2.45261 -3.75226,5.16921 -5.74665,7.66219 -0.56409,0.70513 -1.51171,1.10789 -1.91554,1.91555 -0.28556,0.57111 0.28555,1.34444 0,1.91555 -0.40384,0.80767 -1.51172,1.10788 -1.91555,1.91555 -0.76854,1.53708 0.64093,4.14431 0,5.74664 -1.06052,2.6513 -2.85524,4.97859 -3.8311,7.6622 -1.58858,4.3686 -2.36112,8.99891 -3.831097,13.40884 -1.725175,5.17553 -4.021469,10.14886 -5.746645,15.32439 -0.832523,2.49757 -1.48274,5.06534 -1.915549,7.66219 -0.421572,2.52943 0,8.5454 0,11.49329 0,0.63852 -0.510813,1.53244 0,1.91555 2.284425,1.71332 5.10813,2.55406 7.662194,3.8311 5.108127,2.55406 10.365797,4.82871 15.324387,7.66219 1.60219,0.91554 6.99453,5.10084 9.57774,5.74665 1.23891,0.30972 2.5922,-0.30973 3.8311,0 1.38514,0.34628 2.55407,1.27703 3.8311,1.91555 1.91555,0 3.85716,-0.31492 5.74664,0 1.9917,0.33194 3.8311,1.27703 5.74665,1.91554 1.91555,0.63852 3.8719,1.16565 5.74665,1.91555 1.32564,0.53026 2.44596,1.56927 3.83109,1.91555 1.23891,0.30973 2.57887,-0.25045 3.8311,0 4.78897,0.95779 9.1021,3.59328 13.40884,5.74665 1.27703,0.63851 2.68888,1.05889 3.8311,1.91555 1.44479,1.08359 2.55406,2.55406 3.83109,3.83109 0.63852,0.63852 1.41466,1.16421 1.91555,1.91555 0.79198,1.18797 1.05889,2.68889 1.91555,3.8311 1.0836,1.44479 2.55406,2.55406 3.8311,3.83109 1.27703,2.55407 2.24713,5.28625 3.83109,7.6622 1.00179,1.50268 2.82931,2.32842 3.8311,3.8311 0.35419,0.53127 -0.20192,1.30979 0,1.91554 5.42645,10.8529 -0.71388,-2.85553 1.91555,7.6622 3.12646,12.50584 1.02859,-7.23728 3.8311,9.57774 0.31491,1.88949 0,3.8311 0,5.74665 0,4.46961 0,8.93922 0,13.40884 0,0.46457 0.0616,5.68504 0,5.74664 -1.00959,1.00958 -2.51878,1.35313 -3.8311,1.91555 -3.16049,1.3545 -6.38516,2.55407 -9.57774,3.8311 -8.20723,3.28289 -16.38487,7.14424 -24.90213,9.57774 -2.53138,0.72325 -5.04986,1.58901 -7.6622,1.91555 -2.53434,0.31679 -5.1338,-0.3612 -7.66219,0 -16.23567,2.31938 2.14014,1.91555 -9.57774,1.91555 -0.63852,0 -1.27704,0 -1.91555,0 -0.63852,0 -1.91555,0.63851 -1.91555,0 0,-0.63852 1.27703,0 1.91555,0 1.27703,0 2.55406,0 3.83109,0 4.49231,0 -0.90299,0.4515 3.8311,-1.91555 0.57111,-0.28555 1.3098,0.20192 1.91555,0 1.27703,-0.63852 2.55406,-1.27703 3.8311,-1.91555 0.63851,0 1.3098,0.20192 1.91555,0 3.47907,-1.15969 3.55496,-1.63942 5.74664,-3.8311 0.63852,-0.63851 1.10788,-1.51171 1.91555,-1.91555 0.57111,-0.28555 1.34444,0.28556 1.91555,0 0.80766,-0.40383 1.10788,-1.51171 1.91555,-1.91554 0.5711,-0.28556 1.46405,0.4515 1.91554,0 0.4515,-0.4515 -0.28555,-1.34445 0,-1.91555 0.40384,-0.80767 1.51172,-1.10788 1.91555,-1.91555 0.57111,-1.14221 -0.5711,-2.68889 0,-3.8311 0.40384,-0.80766 1.51172,-1.10788 1.91555,-1.91555 0.28556,-0.5711 -0.28555,-1.34444 0,-1.91554 1.23177,-2.46355 2.59933,-1.36756 3.8311,-3.8311 0.57111,-1.14221 -0.57111,-2.68889 0,-3.8311 0.40383,-0.80767 1.51171,-1.10788 1.91555,-1.91555 0.25184,-0.50367 0,-6.66051 0,-7.66219 0,-5.74665 0,-11.49329 0,-17.23994 0,-3.19258 0,-6.38516 0,-9.57774 0,-1.91555 0.37567,-3.8683 0,-5.74665 -0.28001,-1.40004 -1.12357,-2.64312 -1.91555,-3.83109 -0.50089,-0.75134 -1.27703,-1.27704 -1.91555,-1.91555 -0.63852,-0.63852 -1.10788,-1.51172 -1.91555,-1.91555 -0.5711,-0.28555 -1.34444,0.28555 -1.91555,0 -0.80766,-0.40383 -1.10788,-1.51172 -1.91555,-1.91555 -0.5711,-0.28555 -1.34444,0.28555 -1.91554,0 -0.80767,-0.40383 -1.10789,-1.51171 -1.91555,-1.91555 -0.57111,-0.28555 -1.27703,0 -1.91555,0 -1.27703,0 -2.6196,0.40384 -3.8311,0 -0.85666,-0.28555 -1.05889,-1.62999 -1.91555,-1.91555 -1.056,-0.352 -9.86766,0 -11.49329,0 -8.93922,0 -17.87845,0 -26.81768,0 -2.23577,0 -9.99883,0.37362 -11.49329,0 -1.38513,-0.34628 -2.445959,-1.56926 -3.831095,-1.91554 -1.238903,-0.30973 -2.688885,0.5711 -3.831097,0 -0.571106,-0.28556 0.571106,-1.63 0,-1.91555 -1.142213,-0.57111 -2.619598,0.40383 -3.831097,0 -1.713319,-0.57111 -2.215765,-3.02343 -3.831097,-3.8311 -0.571106,-0.28555 -1.46405,0.4515 -1.915549,0 -0.640728,-0.64073 0.640729,-3.19037 0,-3.8311 -1.009582,-1.00958 -2.821514,-0.90596 -3.831097,-1.91555 -1.627903,-1.6279 -2.392922,-3.94892 -3.831097,-5.74664 -1.128197,-1.41025 -2.7029,-2.42085 -3.831097,-3.8311 -9.497742,-11.87218 0.221617,-0.62535 -5.746646,-9.57774 -0.500893,-0.75134 -1.511715,-1.10788 -1.915548,-1.91555 -0.285553,-0.57111 0.285553,-1.34444 0,-1.91555 -0.403833,-0.80766 -1.511715,-1.10788 -1.915549,-1.91555 -0.565106,-1.13021 0.439192,-4.42907 0,-5.74664 -0.451499,-1.3545 -1.569264,-2.44596 -1.915548,-3.8311 -0.309726,-1.2389 0.250447,-2.57886 0,-3.8311 -0.395991,-1.97995 -1.5836,-3.75495 -1.915549,-5.74664 -0.314914,-1.88949 0,-3.8311 0,-5.74665 0,-3.83109 0,-7.66219 0,-11.49329 0,-2.55406 0,-5.10813 0,-7.66219 0,-4.46962 -1.176033,-9.09672 0,-13.40884 0.840024,-3.08009 3.975721,-5.00581 5.746646,-7.6622 0.791982,-1.18797 1.277032,-2.55406 1.915548,-3.83109 0.638517,-1.27704 1.46405,-2.4766 1.915549,-3.8311 0.201917,-0.60575 -0.451499,-1.46405 0,-1.91555 0.451499,-0.4515 1.464049,0.4515 1.915549,0 0.451499,-0.4515 -0.4515,-1.46405 0,-1.91555 0.451499,-0.4515 1.344442,0.28556 1.915548,0 0.807666,-0.40383 1.277032,-1.27703 1.915549,-1.91555 1.915548,-1.91555 3.831097,-3.83109 5.746645,-5.74664 1.277033,-1.27703 2.747499,-2.3863 3.831097,-3.8311 0.85666,-1.14221 0.727576,-3.03911 1.915549,-3.8311 0.552846,-0.36856 9.948041,0 11.493291,0 8.939225,0 17.878455,0 26.817675,0"
       id="path3036"
       inkscape:connector-curvature="0" />
    <path
       style="fill:none;stroke:#000000;stroke-width:1px;stroke-linecap:butt;stroke-linejoin:miter;stroke-opacity:1"
       d="m 637.87766,657.75919 c 0,-5.08853 0.80767,-8.87015 -1.91555,-13.40884 -0.92918,-1.54863 -2.55406,-2.55407 -3.8311,-3.8311 -6.73255,-6.73256 -1.24792,-1.60913 -11.49329,-9.57774 -3.22726,-2.5101 -6.35047,-5.1521 -9.57774,-7.6622 -11.0439,-8.5897 -3.51629,-3.70517 -13.40884,-7.66219 -2.65129,-1.06052 -4.89192,-3.13853 -7.66219,-3.8311 -1.23891,-0.30972 -2.55407,0 -3.8311,0 -3.19258,0 -6.38516,0 -9.57774,0 -1.91555,0 -3.8311,0 -5.74665,0 -0.63851,0 -1.46405,-0.4515 -1.91555,0 -0.4515,0.4515 0.20192,1.3098 0,1.91555 -0.63851,1.27703 -1.27703,2.55406 -1.91555,3.8311 0,0.63851 0.20192,1.3098 0,1.91555 -0.45149,1.35449 -1.46404,2.47659 -1.91554,3.83109 -0.37681,1.13042 0,8.50748 0,9.57774 0,5.74665 0,11.4933 0,17.23994 0,1.27703 0,2.55407 0,3.8311 0,0.63851 -0.28556,1.34444 0,1.91555 0.18333,0.36667 7.29551,7.47885 7.66219,7.66219 0.57111,0.28555 1.34444,-0.28555 1.91555,0 1.61533,0.80767 2.32842,2.82931 3.8311,3.8311 1.18797,0.79198 2.4766,1.46405 3.83109,1.91555 0.60575,0.20191 1.46405,-0.4515 1.91555,0 0.4515,0.4515 -0.4515,1.46405 0,1.91555 0.903,0.90299 2.68889,-0.57111 3.8311,0 6.35307,6.35307 -1.806,-0.903 3.8311,1.91554 0.80766,0.40384 1.10788,1.51172 1.91554,1.91555 1.14222,0.57111 2.9281,-0.903 3.8311,0 2.55407,2.55407 -3.19258,1.91555 1.91555,1.91555"
       id="path3038"
       inkscape:connector-curvature="0" />
    <path
       style="fill:none;stroke:#000000;stroke-width:1px;stroke-linecap:butt;stroke-linejoin:miter;stroke-opacity:1"
       d="m 538.26914,596.46163 c -21.70955,10.85478 0,-1.91555 -9.57775,7.6622 -0.4515,0.4515 -1.46405,-0.4515 -1.91554,0 -1.62791,1.6279 -2.2032,4.11874 -3.8311,5.74664 -1.00958,1.00959 -2.82152,0.90597 -3.8311,1.91555 -1.00958,1.00958 -1.12357,2.64313 -1.91555,3.8311 -1.00178,1.50268 -3.02343,2.21576 -3.83109,3.8311 -0.28556,0.5711 0.45149,1.46404 0,1.91554 -0.4515,0.4515 -1.46405,-0.4515 -1.91555,0 -0.39161,0.39161 0.37975,4.98715 0,5.74665 -2.36705,4.73409 -1.91555,-0.66121 -1.91555,3.8311"
       id="path3040"
       inkscape:connector-curvature="0" />
    <path
       style="fill:none;stroke:#000000;stroke-width:1px;stroke-linecap:butt;stroke-linejoin:miter;stroke-opacity:1"
       d="m 549.76243,607.95492 c 0,11.4933 0,22.98659 0,34.47988 0,1.88176 0.42231,10.22635 0,11.49329 -0.4515,1.3545 -1.27703,2.55406 -1.91555,3.8311 -0.63852,1.27703 -1.46405,2.4766 -1.91555,3.83109 -0.79267,2.37801 1.5725,2.08708 -1.91555,3.8311 -0.58296,0.29148 -4.88396,0 -5.74664,0"
       id="path3042"
       inkscape:connector-curvature="0" />
  </g>
</svg>
